<svg id="Layer_1" enable-background="new 0 0 132 132" height="512" viewBox="0 0 132 132" width="512" xmlns="http://www.w3.org/2000/svg"><g><g><g fill="#bac1ce"><path d="m93.04 45.3835c0 1.5584-1.0899 3.4513-2.4474 4.2351l-15.7836 9.1202c0 1.3481.2007 2.4283.6023 3.346l4.2446-2.4569 6.3382 3.6806v1.6634l-23.269 13.4319-6.3383-3.6806-.0096-1.6539 8.9291-5.1624c.6118-1.5296 1.0038-2.9446 1.1759-4.369l-15.9174 9.1968c-.9846.564-1.8355.3919-2.2274-.3347.1051.2294.2772.4111.478.5258l-.717-.4206-1.4244-.8031c-.4494-.2773-.717-.8221-.717-1.5964l-.0191-2.7724-.0669-29.2059c0-1.5391 1.1089-3.4416 2.4378-4.2256l40.0851-23.1352c.6788-.3823 1.3002-.4302 1.7304-.172l2.151 1.2523h.0096v.0096c.4398.2486.717.7934.717 1.5583l.0287 29.1867z"/><path d="m63.5282 93.8718-.0191 2.0269-35.6493 20.4487-25.8598-15.076.1147-26.8636 35.5346-20.6497 1.5487.8987-.0669 25.248z"/><path d="m99.5981 78.4944.9422.5519c-.0048-.0029-.0082-.0081-.0129-.0111l1.6327.9504c-.0873-.0531-.1628-.126-.2364-.2014.455.4535 1.1851.5023 2.0141.0238l17.952-10.3646c1.3721-.7923 2.4837-2.7175 2.4792-4.2993l-.1278-45.0777c-.0022-.7901-.2826-1.3444-.7336-1.6027.0029.0016.0065.0019.0095.0035l-2.5716-1.4914c-.4493-.2677-1.0708-.2294-1.7686.172l-17.9537 10.3631c-1.3671.7936-2.4761 2.7245-2.4761 4.302l.1243 45.0753c.0002.7935.2774 1.348.7267 1.6062zm4.1958-49.4907c-.3438.1985-.6711.4676-.9686.7842.2977-.3175.6253-.5873.9697-.7857l6.6674-3.8485zm-2.4665 10.3899-.0181-6.0894c0-.1233.0184-.2516.0315-.3786-.013.1274-.031.256-.0307.38zm.5044 40.2898c.0123.0151.0201.0358.0328.0503-.0126-.0147-.0207-.035-.0328-.0503zm20.8963-61.3773c-.0033.0002-.0061-.0007-.0093-.0003.0032-.0004.006.0005.0093.0003zm-.4801.1018c.059-.0201.1129-.023.1703-.0375-.0575.0146-.1114.0173-.1703.0375z"/><path d="m120.0948 95.5067c0 1.7303-1.1376 3.4607-3.4129 4.78l-33.4696 19.3303c-4.5314 2.6004-11.8639 2.6004-16.3572 0-2.2371-1.3097-3.346-3.0019-3.3556-4.7131l-.0096-5.0285c0-.1434.0096-.2868.0191-.4303-.5067-.7361-.7744-1.52-.7744-2.3134l-.0096-5.086c0-1.6156 1.0611-3.2312 3.193-4.4645.7649-.4397 1.5966-.7936 2.4856-1.0708l-.0096-2.629c0 .0191.0096.0383.0096.067-.0765-1.6634 1.0038-3.3364 3.2122-4.608 3.4511-1.9979 8.604-2.3804 12.7244-1.1472.4589-1.0707 1.3958-2.0553 2.8202-2.8776 4.063-2.3517 10.516-2.4569 14.7607-.3346 4.4932-1.8356 10.7837-1.5966 14.8084.7361 2.2753 1.3289 3.3842 3.0687 3.346 4.8086z"/><path d="m48.0409 113.918-.0168 1.7591 6.4929 3.7486 6.4559-3.7517.0167-1.7591-6.4929-3.7486z"/><path d="m123.5071 75.649-6.4559 3.7516-.0167 1.7592 6.4929 3.7486 6.4558-3.7517.0168-1.7591z"/><path d="m73.3869 77.9589-.0168 1.7592 6.493 3.7486 6.4558-3.7517.0168-1.7591-6.4929-3.7486z"/></g><g><g><g><g><g><g enable-background="new"><g><g><g><path d="m56.3794 73.0665.0047 1.6584 6.3364 3.6823-.0047-1.6584z" fill="#525566"/></g></g></g><g><g><g><path d="m62.7158 76.7488.0047 1.6584 23.2771-13.439-.0047-1.6585z" fill="#474b59"/></g></g></g><g><g><g><path d="m56.3794 73.0665 6.3364 3.6823 23.2771-13.4391-6.3364-3.6823z" fill="#5b5e71"/></g></g></g></g><g><g><g><g><g><g><g><path d="m92.2963 11.8545c-.4212-.2281-1.1415-.2077-1.8084.1959l-40.0245 23.1065c-1.3512.7722-2.4568 2.6851-2.4568 4.2294l.0877 29.1839v2.7903c.0176.7722.2807 1.3162.7195 1.5619l-.7195-.4212-1.4176-.7998c-.4563-.2807-.7195-.8248-.7195-1.5969l-.0176-2.7728-.0702-29.2016c0-1.5443 1.1056-3.4395 2.4392-4.2293l40.082-23.1296c.6844-.3861 1.2986-.4387 1.7373-.1756z" fill="#bac1ce"/></g></g></g></g></g></g></g><g><g><g><g><g><g><g><path d="m93.0285 42.6041-44.9342 25.9661-.0877-29.1839c0-1.5443 1.1056-3.4396 2.4568-4.2294l40.082-23.1296c1.3513-.7897 2.4568-.158 2.4568 1.3863z" fill="#3f434f"/></g></g></g></g></g></g></g><g><g><g><g><g><g><g><path d="m91.4207 41.2625-41.7314 24.1104-.0803-25.9899c0-.9637.8031-2.3451 1.6705-2.8431l40.1092-23.1467z" fill="#fff"/></g></g></g></g></g></g></g><g enable-background="new"><g><g><path d="m65.0371 72.3358-1.3922-.8091c2.0017-3.9041 3.021-6.7667 2.9363-9.9307l1.3922.8091c.0847 3.164-.9346 6.0266-2.9363 9.9307z" fill="#cad0dd"/></g></g><g><g><path d="m67.9734 62.4051-1.3923-.809 6.8274-3.9418 1.3922.8091z" fill="#cfdae7"/></g></g><g><g><path d="m74.8007 58.4634c-.0582 3.2465.9656 4.9295 2.9829 6.5132l-12.7465 7.3592c2.0017-3.9041 3.021-6.7667 2.9363-9.9307z" fill="#bac1ce"/></g></g></g><g><g><g><g><g><g><g><path d="m93.0285 42.6041.0079 2.7839c.0044 1.5569-1.0892 3.4512-2.4442 4.2334l-40.0293 23.111c-1.3623.7865-2.4631.1593-2.4675-1.3977l-.0079-2.7839z" fill="#e4e8f4"/></g></g></g></g></g></g></g><g><g><g><g><g><g><g><path d="m71.5353 57.6673c0 .6781-.4747 1.4747-1.0509 1.8137-.5764.339-1.0509.0679-1.0509-.5932 0-.6781.4576-1.4917 1.0509-1.8307.5762-.3221 1.0509-.0508 1.0509.6102z" fill="#bac1ce"/></g></g></g></g></g></g></g></g><g><g><path d="m60.959 35.4237c1.0254-.592 1.8671-.1183 1.8704 1.0659.0034 1.1902-.8328 2.6326-1.8583 3.2247-1.0358.598-1.8722.1213-1.8756-1.0689-.0033-1.1843.8277-2.6237 1.8635-3.2217z" fill="#fed57a"/></g><g><path d="m67.329 31.746c1.0254-.592 1.8671-.1183 1.8704 1.0659.0034 1.1902-.8329 2.6327-1.8583 3.2247-1.0358.598-1.8774.1243-1.8808-1.0659-.0034-1.1843.8329-2.6267 1.8687-3.2247z" fill="#75ca75"/></g><g><path d="m73.6938 28.0713c1.0306-.595 1.8722-.1213 1.8756 1.0629.0034 1.1902-.8329 2.6327-1.8634 3.2277-1.0306.595-1.8723.1213-1.8757-1.0689-.0034-1.1843.8329-2.6267 1.8635-3.2217z" fill="#748bfd"/></g><g><path d="m80.0637 24.3936c1.0306-.595 1.8671-.1183 1.8705 1.0659.0034 1.1902-.8277 2.6297-1.8583 3.2247s-1.8723.1213-1.8756-1.0689c-.0034-1.1843.8328-2.6267 1.8634-3.2217z" fill="#4c7891"/></g></g><g><g><path d="m87.2795 30.9618.0047 1.6482-33.534 19.3609-.0047-1.6482z" fill="#e4e8f4"/></g><g><path d="m83.5835 40.5775.0047 1.6482-26.0996 15.0686-.0047-1.6482z" fill="#e4e8f4"/></g><g><path d="m87.2901 34.6931.0047 1.6552-33.534 19.3609-.0047-1.6553z" fill="#e4e8f4"/></g><g><path d="m87.2689 27.2236.0047 1.6552-33.534 19.3609-.0047-1.6553z" fill="#e4e8f4"/></g></g></g><g><g><g><g><g><g><g><g><path d="m3.665 75.3036 35.5356-20.651-.0716 25.2498-35.5643 20.4858z" fill="#5b5e71"/></g></g></g><g><g><g><path d="m37.6604 57.3257-.0655 21.6909-32.4586 18.866.0573-21.6909z" fill="#fff"/></g></g></g></g><g><g><g><g><path d="m2.1115 74.4066 35.5355-20.651 1.5536.897-35.5356 20.651z" fill="#e4e8f4"/></g></g></g></g><g><g><g><g><path d="m27.8716 114.5583 35.6538-20.6898-.0172 2.0254-35.6518 20.4496z" fill="#bac1ce"/></g></g></g></g><g><g><g><path d="m3.5647 100.3882 35.5643-20.4858 24.3964 13.9661-35.6538 20.6898z" fill="#e4e8f4"/></g></g></g><g><g><g><path d="m6.6548 100.549 32.4766-18.8731 12.6706 7.2996-32.4767 18.8731z" fill="#cad0dd"/></g></g></g><g><g><g><g><path d="m3.6599 75.3123-.0952 25.0759 24.3069 14.1701-.0152 1.7852-25.8553-15.0759.1104-26.861z" fill="#cad0dd"/></g></g></g></g><g><g><g><g><g><path d="m19.9884 100.6039 2.0105 1.1683 2.0149-1.1633-2.0105-1.1683z" fill="#5b5e71"/></g></g></g></g><g><g><g><g><path d="m17.1028 98.9269 2.0104 1.1684 2.0149-1.1633-2.0104-1.1684z" fill="#5b5e71"/></g></g></g></g><g><g><g><g><path d="m14.2171 97.2499 2.0104 1.1684 2.0149-1.1633-2.0104-1.1683z" fill="#5b5e71"/></g></g></g></g><g><g><g><g><path d="m19.9783 103.9528 2.0104 1.1684 2.0237-1.1684-2.0105-1.1683z" fill="#5b5e71"/></g></g></g></g><g><g><g><g><path d="m17.0912 105.6197 2.0104 1.1683 2.0149-1.1633-2.0105-1.1683z" fill="#5b5e71"/></g></g></g></g><g><g><g><g><path d="m14.2055 103.9427 2.0104 1.1683 4.9108-2.8352-2.0105-1.1683z" fill="#5b5e71"/></g></g></g></g><g><g><g><g><path d="m14.2069 100.5989 2.0104 1.1683 2.0236-1.1684-2.0104-1.1683z" fill="#5b5e71"/></g></g></g></g><g><g><g><g><path d="m11.3212 98.9219 2.0104 1.1683 2.0236-1.1683-2.0104-1.1684z" fill="#5b5e71"/></g></g></g></g><g><g><g><g><path d="m8.4341 100.5887 2.0104 1.1684 2.0149-1.1633-2.0104-1.1683z" fill="#5b5e71"/></g></g></g></g><g><g><g><g><path d="m22.8756 98.937 2.0104 1.1684 2.0149-1.1633-2.0105-1.1684z" fill="#5b5e71"/></g></g></g></g><g><g><g><g><path d="m50.017 88.9293-2.0106 1.1702-2.0106-1.1702 2.0106-1.1554z" fill="#5b5e71"/></g></g></g></g><g><g><g><g><path d="m43.1116 87.2537 2.0105 1.1684 2.0149-1.1633-2.0105-1.1684z" fill="#5b5e71"/></g></g></g></g><g><g><g><g><path d="m40.226 85.5768 2.0104 1.1683 2.0149-1.1633-2.0104-1.1683z" fill="#5b5e71"/></g></g></g></g><g enable-background="new"><g><g><g><g><path d="m31.5573 87.2386 2.0104 1.1683 2.0149-1.1633-2.0104-1.1683z" fill="#5b5e71"/></g></g></g></g><g><g><g><g><path d="m28.6701 88.9055 2.0105 1.1683 2.0148-1.1633-2.0104-1.1683z" fill="#5b5e71"/></g></g></g></g><g><g><g><g><path d="m34.443 88.9156 2.0104 1.1683 4.902-2.8302-2.0104-1.1683z" fill="#5b5e71"/></g></g></g></g><g><g><g><g><path d="m25.7743 90.5774 2.0104 1.1683 2.0149-1.1633-2.0104-1.1683z" fill="#5b5e71"/></g></g></g></g><g><g><g><g><path d="m31.5558 90.5825 2.0105 1.1683 2.0148-1.1633-2.0104-1.1683z" fill="#5b5e71"/></g></g></g></g><g><g><g><g><path d="m37.3286 90.5925 2.0105 1.1684 2.0149-1.1633-2.0105-1.1684z" fill="#5b5e71"/></g></g></g></g><g><g><g><g><path d="m22.8872 92.2443 2.0104 1.1683 2.0149-1.1633-2.0104-1.1683z" fill="#5b5e71"/></g></g></g></g><g><g><g><g><path d="m28.66 92.2544 2.0104 1.1683 2.0149-1.1633-2.0104-1.1683z" fill="#5b5e71"/></g></g></g></g><g><g><g><g><path d="m34.4415 92.2594 2.0105 1.1684 2.0149-1.1633-2.0105-1.1684z" fill="#5b5e71"/></g></g></g></g><g><g><g><g><path d="m40.2071 88.9206 2.8944 1.682-2.8872 1.6669 2.0105 1.1684 4.902-2.8302-4.9048-2.8504z" fill="#5b5e71"/></g></g></g></g><g><g><g><g><path d="m25.7729 93.9212 2.0104 1.1684 2.0149-1.1633-2.0104-1.1683z" fill="#5b5e71"/></g></g></g></g><g><g><g><g><path d="m31.5457 93.9313 2.0104 1.1684 2.0149-1.1633-2.0105-1.1684z" fill="#5b5e71"/></g></g></g></g><g><g><g><g><path d="m37.3272 93.9364 2.0105 1.1683 2.0149-1.1633-2.0105-1.1683z" fill="#5b5e71"/></g></g></g></g><g><g><g><g><path d="m22.8858 95.5881 2.0104 1.1683 2.0149-1.1633-2.0104-1.1683z" fill="#5b5e71"/></g></g></g></g><g><g><g><g><path d="m28.6585 95.5982 2.0105 1.1683 2.0149-1.1632-2.0105-1.1684z" fill="#5b5e71"/></g></g></g></g><g><g><g><g><path d="m19.9899 97.26 2.0104 1.1684 2.0149-1.1633-2.0104-1.1683z" fill="#5b5e71"/></g></g></g></g><g><g><g><g><path d="m25.7714 97.2651 2.0105 1.1683 2.0149-1.1633-2.0105-1.1683z" fill="#5b5e71"/></g></g></g></g><g><g><g><g><path d="m22.8741 102.2809 2.0105 1.1683 13.5721-7.8358-2.0105-1.1684z" fill="#5b5e71"/></g></g></g></g></g><g><g><g><g><path d="m17.1042 95.5831 2.0104 1.1683 2.0149-1.1633-2.0104-1.1683z" fill="#5b5e71"/></g></g></g></g><g><g><g><g><path d="m20.0001 93.9111 2.0104 1.1684 2.0149-1.1633-2.0104-1.1684z" fill="#5b5e71"/></g></g></g></g><g><g><g><g><path d="m37.3403 83.8998 2.0104 1.1683 2.0149-1.1633-2.0104-1.1683z" fill="#5b5e71"/></g></g></g></g><g><g><g><g><path d="m34.4444 85.5717 2.0104 1.1683 2.0149-1.1633-2.0104-1.1683z" fill="#5b5e71"/></g></g></g></g><g><g><g><g><path d="m11.3198 102.2657 2.0104 1.1683 2.0149-1.1632-2.0104-1.1684z" fill="#5b5e71"/></g></g></g></g></g><g><g><g><g><path d="m31.2141 102.893c-.2959.1709-.2976.4612-.0037.632l5.3944 3.1349c.294.1708.7953.1709 1.0913 0l7.8263-4.5185c.2959-.1708.2975-.4613.0036-.6321l-5.3944-3.1349c-.294-.1708-.7953-.1708-1.0912.0001z" fill="#cad0dd"/></g></g></g></g></g></g></g><g><g><path d="m13.8105 77.662c.8783-.5071 1.5992-.1013 1.6021.913.0029 1.0194-.7134 2.2549-1.5917 2.762-.8871.5122-1.6036.1039-1.6065-.9155-.0028-1.0144.709-2.2473 1.5961-2.7595z" fill="#f9607f"/></g><g><path d="m19.2665 74.512c.8783-.5071 1.5992-.1013 1.6021.913.0029 1.0194-.7134 2.2549-1.5917 2.762-.8871.5122-1.6081.1065-1.611-.913-.0028-1.0143.7135-2.2498 1.6006-2.762z" fill="#75ca75"/></g><g><path d="m24.7181 71.3645c.8827-.5096 1.6036-.1039 1.6065.9104.0029 1.0194-.7134 2.2549-1.5961 2.7645s-1.6037.1039-1.6065-.9155c-.0029-1.0143.7134-2.2498 1.5961-2.7594z" fill="#efac41"/></g><g><path d="m30.1741 68.2145c.8827-.5096 1.5992-.1014 1.6021.913.0029 1.0194-.709 2.2524-1.5917 2.762s-1.6036.1039-1.6065-.9155c-.0029-1.0144.7134-2.2499 1.5961-2.7595z" fill="#4c7891"/></g></g><g><path d="m32.3535 77.1182.0039 1.3828-21.8964 12.6418-.0039-1.3827z" fill="#e4e8f4"/></g><g><path d="m35.4631 72.1814.004 1.3887-28.1335 16.2429-.004-1.3887z" fill="#e4e8f4"/></g></g><g><g><g><path d="m123.5172 18.467c-.4589-.2581-1.0802-.2294-1.7686.1721l-17.9537 10.363c-1.3766.7934-2.4856 2.7246-2.4856 4.302l.1339 45.0755c0 .7839.2772 1.3383.717 1.606l-2.5621-1.4913c-.4493-.2581-.7266-.8126-.7266-1.6061l-.1243-45.0753c0-1.5775 1.1089-3.5086 2.4761-4.302l17.9537-10.3631c.6979-.4014 1.3193-.4397 1.7686-.172z" fill="#d4dae8"/><path d="m121.8974 17.5276c-.4589-.2581-1.0802-.2294-1.7686.1721l-17.9537 10.363c-1.3766.7934-2.4856 2.7246-2.4856 4.302l.1339 45.0755c0 .7839.2772 1.3383.717 1.606l-.9423-.5519c-.4493-.2581-.7266-.8126-.7266-1.6061l-.1243-45.0753c0-1.5775 1.1089-3.5086 2.4761-4.302l17.9537-10.3631c.6979-.4014 1.3193-.4397 1.7686-.172z" fill="#4c7891"/><path d="m121.7459 18.6391c1.3722-.7922 2.4909-.1547 2.4954 1.4272l.1278 45.0776c.0045 1.5819-1.107 3.5071-2.4792 4.2993l-17.952 10.3646c-1.3766.7948-2.4954.1572-2.4999-1.4246l-.1278-45.0776c-.0045-1.5819 1.107-3.5071 2.4837-4.3019z" fill="#4c7891"/><g><g><path d="m112.775 25.5286c.2548-.1471.4608-.0297.4616.2688.0008.2928-.2038.6472-.4586.7943s-.4657.0326-.4666-.2602c-.0008-.2984.2088-.6558.4636-.8029z" fill="#d4dae8"/></g><g><path d="m121.7498 20.424c.6838-.3948 1.2511-.0767 1.2533.7142l.1258 44.3637c.0022.7909-.5613 1.7619-1.2452 2.1567l-17.9543 10.3659c-.6838.3948-1.2511.0767-1.2533-.7142l-.1258-44.3637c-.0022-.7909.5613-1.7619 1.2452-2.1567l7.339-4.2372c.3799-.2193.7248-.1587.8779.1568l.1283.2654c.0814.2771.3412.3509.6362.1805.295-.1703.5536-.5434.6331-.9134l.1264-.4125c.1508-.4909.4942-.949.8742-1.1683z" fill="#fff"/></g></g></g></g><g><g><path d="m107.7014 46.0033c.9127-.5269 1.65-.1001 1.653.9555.003 1.0487-.7295 2.3175-1.6422 2.8444-.9186.5304-1.6558.1101-1.6588-.9386-.003-1.0555.7294-2.3309 1.648-2.8613z" fill="#fed57a"/></g><g><path d="m113.1359 42.8657c.9127-.5269 1.6559-.1035 1.6589.9521.003 1.0487-.7354 2.3209-1.6481 2.8478s-1.6499.1067-1.6529-.942c-.003-1.0555.7295-2.331 1.6421-2.8579z" fill="#9ad898"/></g><g><path d="m118.5764 39.7247c.9127-.5269 1.65-.1001 1.653.9555.003 1.0487-.7295 2.3175-1.6422 2.8444s-1.6558.1101-1.6588-.9386c-.0031-1.0556.7353-2.3344 1.648-2.8613z" fill="#f9607f"/></g></g></g><g><g><path d="m121.4509 47.2174.0023.8166-16.6155 9.593-.0023-.8166z" fill="#e4e8f4"/></g><g><path d="m119.6196 51.9818.0023.8166-12.9319 7.4663-.0023-.8167z" fill="#e4e8f4"/></g><g><path d="m121.4562 49.0661.0023.8202-16.6156 9.593-.0023-.8202z" fill="#e4e8f4"/></g><g><path d="m121.4457 45.3651.0023.8202-16.6155 9.593-.0024-.8202z" fill="#e4e8f4"/></g></g><g><path d="m68.3937 93.8814.0162 5.0855c.0041 1.4629.9913 2.9234 2.7398 4.0957l.0663-5.1836c-1.7484-1.1723-2.8181-2.5347-2.8223-3.9976z" fill="#576cfb"/><g><path d="m62.7205 102.0495.0162 5.0855c.0041 1.4629.8836 2.9234 2.632 4.0957l-.0162-5.0855c-1.7484-1.1723-2.6279-2.6329-2.632-4.0957z" fill="#576cfb"/><path d="m120.0969 95.504c0 1.7331-1.1356 3.4663-3.4186 4.7812l-33.4686 19.3281c-4.5303 2.6058-11.8575 2.6058-16.3519 0-2.2352-1.3029-3.3468-3.0002-3.3588-4.7095l-.0119-5.0746c.0119 1.6974 1.1236 3.3947 3.3468 4.6976 4.5063 2.6058 11.8335 2.6058 16.3637 0l33.4566-19.3282c2.2711-1.3028 3.4186-3.0361 3.4186-4.7573z" fill="#576cfb"/><path d="m71.6144 89.3363c-3.2581 1.8811-4.0631 4.6337-2.333 6.9203-1.2233.3106-2.3579.7421-3.3592 1.3202-4.0801 2.3557-4.2502 6.1006-.5696 8.5684-2.9047 2.6059-2.4179 6.1092 1.4872 8.3786 4.499 2.6145 11.8283 2.6145 16.3568 0l33.4629-19.3198c4.5285-2.6145 4.5673-6.8685.0683-9.483-4.0239-2.3385-10.309-2.5801-14.8033-.7422-4.2485-2.1227-10.6995-2.0106-14.7647.3364-1.4198.8197-2.3639 1.8121-2.8168 2.882-4.1197-1.2338-9.2762-.8542-12.7286 1.1391z" fill="#748bfd"/></g></g></g><g><g><path d="m68.9076 100.476.5735.3333 4.0146-2.3179-.5735-.3332z" fill="#e4e8f4"/></g><g><path d="m73.9357 97.573.5735.3333 7.7012-4.4463-.5735-.3333z" fill="#e4e8f4"/></g><g><path d="m75.7441 104.4489.5735.3333 1.9483-1.1248-.5735-.3333z" fill="#e4e8f4"/></g><g><path d="m91.4219 105.2993.5703.3314 12.3882-7.1524-.5703-.3314z" fill="#e4e8f4"/></g><g><path d="m92.604 102.6349.5736.3333 5.2249-3.0166-.5735-.3333z" fill="#e4e8f4"/></g><g enable-background="new"><g><path d="m93.7423 92.0796.5735.3333 4.0769-2.3539-.5735-.3332z" fill="#e4e8f4"/></g><g><path d="m85.6325 94.7799.5735.3333 10.476-6.0483-.5735-.3333z" fill="#e4e8f4"/></g><g><path d="m92.242 94.9239.5735.3332 7.2847-4.2058-.5735-.3333z" fill="#e4e8f4"/></g><g><path d="m83.9223 97.7492.5735.3333 7.9537-4.5922-.5735-.3332z" fill="#e4e8f4"/></g><g><path d="m78.1182 99.1183.5735.3333 6.1498-3.5506-.5735-.3333z" fill="#e4e8f4"/></g><g><path d="m73.3702 99.8814.5735.3333 13.9593-8.0594-.5735-.3333z" fill="#e4e8f4"/></g><g><path d="m70.6183 101.4702.5735.3333 2.2173-1.2802-.5736-.3332z" fill="#e4e8f4"/></g><g><path d="m87.3326 101.7183.5735.3333 8.003-4.6205-.5735-.3333z" fill="#e4e8f4"/></g><g><path d="m83.398 102.0118.5736.3333 12.2964-7.0993-.5736-.3333z" fill="#e4e8f4"/></g><g><path d="m79.3946 102.3413.5735.3333 10.2924-5.9423-.5735-.3333z" fill="#e4e8f4"/></g><g><path d="m72.3259 102.4625.5735.3333 3.5521-2.0509-.5735-.3333z" fill="#e4e8f4"/></g><g><path d="m74.0366 103.4567.5735.3332 8.4851-4.8988-.5735-.3333z" fill="#e4e8f4"/></g><g><path d="m86.6031 104.1214.5702.3314 3.0176-1.7422 1.2596-.7461 7.3797-4.2418-.5703-.3314z" fill="#e4e8f4"/></g><g><path d="m77.4548 105.4431.5736.3333 4.4771-2.5848-.5736-.3333z" fill="#e4e8f4"/></g><g><path d="m79.1624 106.4354.5735.3333 7.3437-4.2399-.5735-.3333z" fill="#e4e8f4"/></g><g><path d="m80.8731 107.4296.5703.3314 4.7394-2.7363-.5702-.3314z" fill="#e4e8f4"/></g><g><path d="m82.5807 108.4219.5735.3333 8.7475-5.0504-.5735-.3333z" fill="#e4e8f4"/></g><g><path d="m84.2914 109.4161.5702.3314 4.0147-2.3179-.5703-.3313z" fill="#e4e8f4"/></g></g><g><path d="m82.9751 92.3541.5735.3333 7.3765-4.2588-.5735-.3333z" fill="#e4e8f4"/></g><g><path d="m87.9428 91.4679.5735.3333 6.4582-3.7286-.5735-.3333z" fill="#e4e8f4"/></g><g><path d="m91.2142 87.5972.5736.3333 1.4759-.8521-.5735-.3333z" fill="#e4e8f4"/></g><g><path d="m97.9477 93.6115.5736.3334 3.2897-1.8994-.5735-.3333z" fill="#e4e8f4"/></g><g><path d="m96.2737 96.5562.5735.3333 3.6341-2.0982-.5735-.3333z" fill="#e4e8f4"/></g><g><path d="m105.1746 97.3592.5702.3314 2.8995-1.674-.5703-.3314z" fill="#e4e8f4"/></g><g><path d="m99.8297 98.4632.5735.3333 6.5336-3.7722-.5735-.3333z" fill="#e4e8f4"/></g><g><path d="m99.5522 96.6452.5703.3314 5.1035-2.9465-.5703-.3314z" fill="#e4e8f4"/></g><g><path d="m100.4326 94.1551.5735.3332 2.5124-1.4505-.5735-.3333z" fill="#e4e8f4"/></g></g></g><g><g enable-background="new"><g><path d="m60.9896 113.915-.0167 1.759-6.4559 3.7518.0168-1.7591z" fill="#6eba6e"/></g><g><path d="m54.5338 117.6667-.0168 1.7591-6.4929-3.7487.0167-1.7591z" fill="#75ca75"/></g><g><path d="m60.9896 113.915-6.4558 3.7517-6.493-3.7487 6.4559-3.7517z" fill="#9ad898"/></g></g></g><g><g enable-background="new"><g><path d="m130 79.3977-.0168 1.759-6.4558 3.7517.0168-1.759z" fill="#f34858"/></g><g><path d="m123.5442 83.1494-.0168 1.759-6.4929-3.7487.0167-1.759z" fill="#fa5168"/></g><g><path d="m130 79.3977-6.4558 3.7517-6.493-3.7487 6.4559-3.7518z" fill="#f9607f"/></g></g></g><g><g enable-background="new"><g><path d="m86.3357 77.9559-.0168 1.7591-6.4558 3.7517.0168-1.759z" fill="#efac41"/></g><g><path d="m79.8799 81.7077-.0168 1.759-6.4929-3.7487.0167-1.759z" fill="#f9bb4a"/></g><g><path d="m86.3357 77.9559-6.4558 3.7518-6.493-3.7487 6.4559-3.7518z" fill="#fed57a"/></g></g></g></g></g></g></svg>