<svg clip-rule="evenodd" fill-rule="evenodd" height="2.667in" image-rendering="optimizeQuality" shape-rendering="geometricPrecision" text-rendering="geometricPrecision" viewBox="0 0 2667 2667" width="2.667in" xmlns="http://www.w3.org/2000/svg"><g id="Layer_x0020_1"><circle cx="1333" cy="1333" fill="#d3a1ba" r="1333"/><path d="m1755 2141-67-1c-27 0-49-22-49-48v-46c-22-7-43-15-63-26-64 64-70 65-139-5h-100c-10 96-92 172-191 172s-180-76-190-172h-420c-26 0-26-40 0-40h420c10-96 91-171 190-171s181 75 191 171h63c-23-39 16-66 40-91-10-20-19-41-26-63-86 0-96 0-95-100 0-12 1-27 1-43 0-27 22-49 48-49h46c6-19 14-37 23-55h-450c-10 96-91 171-190 171s-180-75-191-171h-70c-26 0-26-40 0-40h70c11-96 92-172 191-172s180 76 190 172h421c-41-48 10-79 67-136 18-18 50-18 69 0l32 33c20-11 41-20 63-26 0-87 0-96 100-95h43c27 0 49 22 49 49v46c21 7 42 15 62 26 63-62 69-67 139 4 8 8 18 19 30 30 19 19 19 50 0 69l-33 33c11 20 19 41 26 62 87 0 96 1 95 101v43c0 26-22 48-49 48h-46c-7 22-15 43-26 63 61 61 68 69-4 138-9 9-19 19-30 30-19 19-50 19-69 0l-33-32c-20 11-41 19-62 26 0 71 3 95-76 95zm-609-297c-83 0-151 68-151 151 0 84 68 152 151 152 84 0 152-68 152-152 0-83-68-151-152-151zm-198-290c0-84-67-152-151-152s-152 68-152 152 68 152 152 152 151-68 151-152zm198-250c-98 0-180-75-190-171h-420c-26 0-26-40 0-40h420c10-96 91-172 190-172s181 76 191 172h523c26 0 26 40 0 40h-523c-10 96-92 171-191 171zm0-343c-83 0-151 68-151 152 0 83 68 151 151 151 84 0 152-68 152-151 0-84-68-152-152-152zm714-269h-873c-10 96-91 171-190 171s-180-75-191-171h-70c-26 0-26-40 0-40h70c11-97 92-172 191-172s180 75 190 172h873c26 0 26 40 0 40zm-1063-172c-84 0-152 68-152 152 0 83 68 151 152 151 83 0 151-68 151-151 0-84-67-152-151-152zm938 1397c-106 0-192-86-192-192 0-105 86-191 192-191 105 0 191 86 191 191 0 106-86 192-191 192zm0-343c-84 0-152 68-152 151 0 84 68 152 152 152 83 0 151-68 151-152 0-83-68-151-151-151zm-162 401c12 0 37 23 90 36 35 9 0 90 24 90 22 0 97 2 101-3l2-67c0-27 33-16 96-53 31-18 63 64 80 46 16-15 70-66 70-73l-46-49c-19-19 12-34 30-105 9-35 90 0 90-24 0-22 2-97-3-101l-67-2c-27 0-16-33-53-96-19-31 63-63 46-80-16-16-66-70-73-70l-49 46c-19 19-35-12-106-30-34-9 1-90-23-90-22 0-97-2-102 3l-2 67c0 27-33 16-95 53-8 5-18 4-25-3-60-59-40-58-86-12-20 18-38 36-39 42l46 49c19 20-13 34-30 106-9 34-90-1-90 23 0 22-2 97 3 102l67 2c27 0 16 33 53 95 5 8 4 18-3 25-59 60-58 40-13 86 19 20 37 38 43 39 12 0 44-52 64-52z"/><path d="m797 823c83 0 151-68 151-151 0-84-67-152-151-152s-152 68-152 152c0 83 68 151 152 151z" fill="#f96759"/><path d="m1146 961c-83 0-151 68-151 152 0 83 68 151 151 151 84 0 152-68 152-151 0-84-68-152-152-152z" fill="#ffb800"/><path d="m948 1554c0-84-67-152-151-152s-152 68-152 152 68 152 152 152 151-68 151-152z" fill="#44c868"/><path d="m1146 1844c-83 0-151 68-151 151 0 84 68 152 151 152 84 0 152-68 152-152 0-83-68-151-152-151z" fill="#f55a3e"/><path d="m1479 1549c19 20-13 34-30 106-9 34-90-1-90 23 0 22-2 97 3 102l67 2c27 0 16 33 53 95 5 8 4 18-3 25-59 60-58 40-13 86 19 20 37 38 43 39 12 0 44-52 64-52 12 0 37 23 90 36 35 9 0 90 24 90 22 0 97 2 101-3l2-67c0-27 33-16 96-53 31-18 63 64 80 46 16-15 70-66 70-73l-46-49c-19-19 12-34 30-105 9-35 90 0 90-24 0-22 2-97-3-101l-67-2c-27 0-16-33-53-96-19-31 63-63 46-80-16-16-66-70-73-70l-49 46c-19 19-35-12-106-30-34-9 1-90-23-90-22 0-97-2-102 3l-2 67c0 27-33 16-95 53-8 5-18 4-25-3-60-59-40-58-86-12-20 18-38 36-39 42zm64 176c0-105 86-191 192-191 105 0 191 86 191 191 0 106-86 192-191 192-106 0-192-86-192-192z" fill="#6354b1"/></g></svg>