<svg viewBox="-60 0 512 512" xmlns="http://www.w3.org/2000/svg"><path d="m7.5 504h66.066406v-34c32.847656 0 59.09375-26.628906 59.09375-59.476562v-195.863282h-65.089844c-33.175781 0-60.070312 26.894532-60.070312 60.070313zm0 0" fill="#fecbaa"/><path d="m349.261719 504.5h-215.480469c-19.867188 0-35.96875-16.105469-35.96875-35.972656v-425.054688c0-19.867187 16.101562-35.972656 35.96875-35.972656h215.480469c19.867187 0 35.972656 16.105469 35.972656 35.972656v425.058594c0 19.863281-16.105469 35.96875-35.972656 35.96875zm0 0" fill="#bddff4"/><path d="m385.230469 43.46875v425.0625c0 19.867188-16.097657 35.96875-35.96875 35.96875h-31.011719c19.871094 0 35.972656-16.101562 35.972656-35.96875v-425.0625c0-19.867188-16.101562-35.96875-35.972656-35.96875h31.011719c19.871093 0 35.96875 16.101562 35.96875 35.96875zm0 0" fill="#9cc6db"/><path d="m97.8125 71.921875h287.421875v360.15625h-287.421875zm0 0" fill="#43a3f9"/><path d="m354.222656 71.921875h31.007813v360.15625h-31.007813zm0 0" fill="#1685fb"/><path d="m201.0625 295.160156v10.039063c0 25.339843-20.621094 45.949219-45.960938 45.949219h-10.441406v59.371093c0 7.511719-1.160156 14.75-3.308594 21.558594h-43.832031v-156.269531c5.171875-1.71875 10.703125-2.648438 16.441407-2.648438h65.101562c12.128906 0 22 9.859375 22 22zm0 0" fill="#1685fb"/><path d="m336.75 265.039062v24.632813c0 5.519531-4.480469 10-10 10h-170.449219c-5.53125 0-10-4.480469-10-10v-24.632813c0-5.519531 4.46875-10 10-10h170.449219c5.519531 0 10 4.480469 10 10zm0 0" fill="#fdb659"/><path d="m325.171875 335.699219v24.628906c0 5.53125-4.480469 10-10 10h-147.300781c-5.519532 0-10-4.46875-10-10v-24.628906c0-5.519531 4.480468-10 10-10h147.300781c5.519531 0 10 4.480469 10 10zm0 0" fill="#fdb659"/><path d="m167.871094 325.699219h28.359375c-7.160157 14.300781-21.558594 24.359375-38.359375 25.371093v-15.371093c0-5.519531 4.480468-10 10-10zm0 0" fill="#fd9e28"/><path d="m201.0625 295.160156v4.511719h-44.761719c-5.53125 0-10-4.480469-10-10v-16.511719h32.761719c12.128906 0 22 9.859375 22 22zm0 0" fill="#fd9e28"/><path d="m200.269531 187.746094v-32.457032c0-23.234374 18.835938-42.074218 42.074219-42.074218h32.457031c4.402344 0 7.972657 3.570312 7.972657 7.972656v32.457031c0 23.238281-18.835938 42.074219-42.074219 42.074219h-32.457031c-4.402344 0-7.972657-3.566406-7.972657-7.972656zm0 0" fill="#1fc974"/><path d="m113.964844 285.15625h65.09375c5.523437 0 10 4.476562 10 10v10.039062c0 18.753907-15.203125 33.957032-33.957032 33.957032h-22.4375v71.367187c0 32.851563-26.25 59.480469-59.097656 59.480469v-144.445312c0-22.3125 18.085938-40.398438 40.398438-40.398438zm0 0" fill="#fecbaa"/><path d="m257.417969 468.007812c0 9.089844-7.367188 16.453126-16.453125 16.453126-9.085938 0-16.453125-7.363282-16.453125-16.453126 0-9.085937 7.367187-16.453124 16.453125-16.453124 9.085937 0 16.453125 7.367187 16.453125 16.453124zm0 0" fill="#38627c"/><path d="m274.804688 105.714844h-32.460938c-27.332031 0-49.574219 22.238281-49.574219 49.574218v32.457032c0 8.53125 6.941407 15.472656 15.472657 15.472656h32.457031c27.335937 0 49.574219-22.238281 49.574219-49.574219v-32.457031c0-8.53125-6.9375-15.472656-15.46875-15.472656zm.46875 47.929687c0 19.066407-15.507813 34.574219-34.574219 34.574219h-22.753907l28.664063-28.664062c2.929687-2.925782 2.929687-7.675782 0-10.605469-2.929687-2.929688-7.675781-2.929688-10.605469 0l-28.234375 28.234375v-21.894532c0-19.0625 15.511719-34.574218 34.574219-34.574218h32.460938c.257812 0 .46875.210937.46875.472656zm0 0"/><path d="m385.234375 246.589844c-4.144531 0-7.5 3.355468-7.5 7.5v105.820312c0 4.144532 3.355469 7.5 7.5 7.5 4.140625 0 7.5-3.355468 7.5-7.5v-105.820312c0-4.144532-3.359375-7.5-7.5-7.5zm0 0"/><path d="m385.234375 386.589844c-4.144531 0-7.5 3.355468-7.5 7.5v30.492187h-239.066406c.96875-4.535156 1.496093-9.238281 1.496093-14.0625v-63.867187h10.207032v13.679687c0 9.648438 7.851562 17.5 17.5 17.5h147.300781c9.648437 0 17.5-7.851562 17.5-17.5v-24.628906c0-9.648437-7.851563-17.5-17.5-17.5h-120.714844c1.160157-3.496094 1.871094-7.195313 2.050781-11.03125h130.238282c9.648437 0 17.5-7.851563 17.5-17.5v-24.628906c0-9.648438-7.851563-17.5-17.5-17.5h-170.449219c-9.648437 0-17.5 7.851562-17.5 17.5v12.613281h-24.832031c-2.957032 0-5.84375.28125-8.652344.796875v-137.363281c0-4.144532-3.359375-7.5-7.5-7.5s-7.5 3.355468-7.5 7.5v66.070312h-22.738281c-37.261719 0-67.574219 30.3125-67.574219 67.570313v229.269531c0 4.140625 3.359375 7.5 7.5 7.5s7.5-3.359375 7.5-7.5v-229.269531c0-28.988281 23.585938-52.570313 52.574219-52.570313h22.738281v61.769532c-14.464844 8.25-24.246094 23.8125-24.246094 41.625v52.023437c0 4.140625 3.359375 7.5 7.5 7.5s7.5-3.359375 7.5-7.5v-52.023437c0-18.140626 14.757813-32.898438 32.898438-32.898438h65.09375c1.378906 0 2.5 1.121094 2.5 2.5v10.039062c0 14.589844-11.867188 26.457032-26.457032 26.457032h-22.4375c-4.144531 0-7.5 3.359375-7.5 7.5v71.371094c0 28.660156-23.148437 51.980468-51.597656 51.980468-4.140625 0-7.5 3.355469-7.5 7.5v34c0 4.140625 3.359375 7.5 7.5 7.5s7.5-3.359375 7.5-7.5v-26.925781c3.335938-.375 6.589844-1.011719 9.757813-1.867187 3.222656 20.808593 21.257812 36.789062 42.957031 36.789062h215.480469c23.96875 0 43.472656-19.5 43.472656-43.472656v-74.4375c0-4.144532-3.359375-7.5-7.5-7.5zm-206.175781-108.933594h-25.261719v-12.617188c0-1.375 1.125-2.5 2.5-2.5h170.449219c1.378906 0 2.5 1.125 2.5 2.5v24.632813c0 1.378906-1.121094 2.5-2.5 2.5h-130.460938c-1.421875-8.230469-8.597656-14.515625-17.226562-14.515625zm6.578125 55.546875h129.535156c1.378906 0 2.5 1.121094 2.5 2.5v24.628906c0 1.378907-1.121094 2.5-2.5 2.5h-147.300781c-1.378906 0-2.5-1.121093-2.5-2.5v-14.96875c7.90625-2.023437 14.90625-6.324219 20.265625-12.160156zm163.625 163.796875h-215.480469c-15.417969 0-28.007812-12.324219-28.449219-27.640625 12.222657-6.703125 22.132813-17.136719 28.214844-29.777344h244.183594v28.945313c.003906 15.699218-12.769531 28.472656-28.46875 28.472656zm0 0"/><path d="m349.261719 0h-215.480469c-23.96875 0-43.46875 19.5-43.46875 43.472656v63.4375c0 4.144532 3.355469 7.5 7.5 7.5 4.140625 0 7.5-3.355468 7.5-7.5v-27.492187h272.421875v140.492187c0 4.144532 3.355469 7.5 7.5 7.5 4.140625 0 7.5-3.355468 7.5-7.5v-176.4375c0-23.972656-19.503906-43.472656-43.472656-43.472656zm-243.949219 64.417969v-20.945313c0-15.699218 12.769531-28.472656 28.46875-28.472656h215.480469c15.699219 0 28.472656 12.773438 28.472656 28.472656v20.945313zm0 0"/><path d="m240.964844 444.054688c-13.207032 0-23.953125 10.746093-23.953125 23.953124 0 13.210938 10.746093 23.953126 23.953125 23.953126 13.207031 0 23.953125-10.742188 23.953125-23.953126 0-13.207031-10.746094-23.953124-23.953125-23.953124zm0 32.90625c-4.9375 0-8.953125-4.015626-8.953125-8.953126s4.015625-8.953124 8.953125-8.953124 8.953125 4.015624 8.953125 8.953124-4.015625 8.953126-8.953125 8.953126zm0 0"/><path d="m254.46875 36h-29.242188c-4.144531 0-7.5 3.359375-7.5 7.5s3.355469 7.5 7.5 7.5h29.242188c4.140625 0 7.5-3.359375 7.5-7.5s-3.359375-7.5-7.5-7.5zm0 0"/><path d="m286.546875 36.046875-9-.09375c-.027344 0-.054687 0-.082031 0-4.105469 0-7.453125 3.308594-7.496094 7.425781-.042969 4.140625 3.277344 7.53125 7.421875 7.574219l9 .09375h.078125c4.105469 0 7.457031-3.308594 7.5-7.421875.042969-4.144531-3.28125-7.535156-7.421875-7.578125zm0 0"/><path d="m195.929688 36c-4.144532.023438-7.484376 3.445312-7.460938 7.585938.023438 4.128906 3.375 7.460937 7.5 7.460937h.039062c4.144532-.023437 7.484376-3.398437 7.460938-7.539063v-.09375c-.023438-4.140624-3.390625-7.429687-7.539062-7.414062zm0 0"/><path d="m149.289062 237.800781h20.222657c4.140625 0 7.5-3.359375 7.5-7.5 0-4.144531-3.359375-7.5-7.5-7.5h-20.222657c-4.140624 0-7.5 3.355469-7.5 7.5 0 4.140625 3.359376 7.5 7.5 7.5zm0 0"/><path d="m284.011719 230.300781c0 4.140625 3.355469 7.5 7.5 7.5h44.328125c4.140625 0 7.5-3.359375 7.5-7.5 0-4.144531-3.359375-7.5-7.5-7.5h-44.328125c-4.144531 0-7.5 3.355469-7.5 7.5zm0 0"/></svg>