<svg viewBox="-61 0 512 512.001" xmlns="http://www.w3.org/2000/svg"><path d="m10.300781 511.484375h47.457031c5.691407 0 10.304688-4.613281 10.304688-10.300781v-24.722656c33.839844 0 60.878906-27.433594 60.878906-61.273438v-201.777344h-67.054687c-34.179688 0-61.886719 27.707032-61.886719 61.886719v225.886719c0 5.6875 4.613281 10.300781 10.300781 10.300781zm0 0" fill="#fecbaa"/><path d="m352.078125 512h-221.984375c-20.464844 0-37.054688-16.589844-37.054688-37.054688v-437.890624c0-20.464844 16.589844-37.054688 37.054688-37.054688h221.984375c20.464844 0 37.054687 16.589844 37.054687 37.054688v437.890624c0 20.464844-16.589843 37.054688-37.054687 37.054688zm0 0" fill="#bddff4"/><path d="m389.132812 37.054688v437.890624c0 20.46875-16.585937 37.054688-37.054687 37.054688h-31.949219c20.472656 0 37.058594-16.585938 37.058594-37.054688v-437.890624c0-20.46875-16.585938-37.054688-37.058594-37.054688h31.949219c20.46875 0 37.054687 16.585938 37.054687 37.054688zm0 0" fill="#9cc6db"/><path d="m93.039062 66.363281h296.09375v371.03125h-296.09375zm0 0" fill="#43a3f9"/><path d="m357.1875 66.363281h31.945312v371.03125h-31.945312zm0 0" fill="#1685fb"/><path d="m199.402344 296.34375v10.339844c0 26.105468-21.242188 47.339844-47.347656 47.339844h-10.753907v61.160156c0 7.738281-1.195312 15.195312-3.410156 22.210937h-45.152344v-160.988281c5.328125-1.769531 11.023438-2.726562 16.9375-2.726562h67.0625c12.496094 0 22.664063 10.15625 22.664063 22.664062zm0 0" fill="#1685fb"/><path d="m339.191406 265.3125v25.375c0 5.683594-4.617187 10.300781-10.304687 10.300781h-175.59375c-5.699219 0-10.300781-4.617187-10.300781-10.300781v-25.375c0-5.6875 4.601562-10.300781 10.300781-10.300781h175.59375c5.6875 0 10.304687 4.613281 10.304687 10.300781zm0 0" fill="#fdb659"/><path d="m327.257812 338.105469v25.371093c0 5.699219-4.613281 10.304688-10.300781 10.304688h-151.746093c-5.683594 0-10.300782-4.605469-10.300782-10.304688v-25.371093c0-5.6875 4.617188-10.300781 10.300782-10.300781h151.746093c5.6875 0 10.300781 4.613281 10.300781 10.300781zm0 0" fill="#fdb659"/><path d="m165.210938 327.804688h29.21875c-7.378907 14.730468-22.210938 25.09375-39.519532 26.136718v-15.835937c0-5.6875 4.617188-10.300781 10.300782-10.300781zm0 0" fill="#fd9e28"/><path d="m199.402344 296.34375v4.644531h-46.109375c-5.699219 0-10.300781-4.617187-10.300781-10.300781v-17.007812h33.746093c12.496094 0 22.664063 10.15625 22.664063 22.664062zm0 0" fill="#fd9e28"/><path d="m283.578125 117.121094v33.441406c0 23.929688-19.398437 43.339844-43.339844 43.339844h-33.4375c-4.535156 0-8.210937-3.679688-8.210937-8.210938v-33.441406c0-23.941406 19.40625-43.351562 43.339844-43.351562h33.4375c4.535156 0 8.210937 3.679687 8.210937 8.222656zm0 0" fill="#1fc974"/><path d="m246.328125 156.648438-36.40625 36.40625c-.320313.320312-.660156.597656-1.019531.847656h-2.101563c-4.535156 0-8.210937-3.679688-8.210937-8.210938v-3.121094c.121094-.15625.257812-.300781.402344-.445312l36.40625-36.40625c3.015624-3.019531 7.910156-3.019531 10.929687 0s3.019531 7.914062 0 10.929688zm0 0" fill="#149856"/><path d="m109.679688 286.035156h67.058593c5.691407 0 10.300781 4.613282 10.300781 10.300782v10.34375c0 19.320312-15.660156 34.980468-34.980468 34.980468h-23.117188v73.523438c0 33.839844-27.039062 61.273437-60.878906 61.273437v-148.804687c-.003906-22.984375 18.632812-41.617188 41.617188-41.617188zm0 0" fill="#fecbaa"/><path d="m60.328125 372.0625v-53.597656c0-21.375 13.660156-39.609375 32.710937-46.453125v16.9375c-10.292968 5.820312-17.257812 16.875-17.257812 29.515625v53.597656c0 4.265625-3.449219 7.726562-7.726562 7.726562-4.265626 0-7.726563-3.460937-7.726563-7.726562zm0 0" fill="#f4a67a"/><path d="m257.460938 474.40625c0 9.363281-7.589844 16.949219-16.949219 16.949219-9.363281 0-16.949219-7.585938-16.949219-16.949219 0-9.359375 7.585938-16.949219 16.949219-16.949219 9.359375 0 16.949219 7.589844 16.949219 16.949219zm0 0" fill="#38627c"/><path d="m254.421875 44.8125h-30.125c-4.265625 0-7.726563-3.457031-7.726563-7.726562 0-4.265626 3.460938-7.726563 7.726563-7.726563h30.125c4.269531 0 7.726563 3.460937 7.726563 7.726563 0 4.269531-3.457032 7.726562-7.726563 7.726562zm0 0" fill="#9cc6db"/><path d="m287.390625 44.859375c-.027344 0-.054687 0-.082031 0l-9.269532-.09375c-4.269531-.046875-7.691406-3.539063-7.648437-7.804687.042969-4.242188 3.496094-7.648438 7.726563-7.648438h.078124l9.273438.097656c4.265625.042969 7.691406 3.539063 7.644531 7.804688-.042969 4.238281-3.492187 7.644531-7.722656 7.644531zm0 0" fill="#9cc6db"/><path d="m194.15625 44.859375c-4.246094 0-7.703125-3.429687-7.722656-7.683594-.023438-4.269531 3.417968-7.792969 7.683594-7.816406 4.273437-.015625 7.746093 3.371094 7.769531 7.636719v.097656c.023437 4.265625-3.417969 7.746094-7.6875 7.765625-.015625 0-.027344 0-.042969 0zm0 0" fill="#1685fb"/><g fill="#e3f4ff"><path d="m166.902344 237.25h-20.832032c-4.265624 0-7.726562-3.457031-7.726562-7.726562 0-4.265626 3.460938-7.722657 7.726562-7.722657h20.832032c4.265625 0 7.726562 3.457031 7.726562 7.722657 0 4.265624-3.460937 7.726562-7.726562 7.726562zm0 0"/><path d="m338.25 237.25h-45.667969c-4.265625 0-7.722656-3.457031-7.722656-7.726562 0-4.265626 3.457031-7.722657 7.722656-7.722657h45.667969c4.265625 0 7.726562 3.457031 7.726562 7.722657 0 4.265624-3.460937 7.726562-7.726562 7.726562zm0 0"/></g></svg>