<svg height="512" viewBox="0 0 58 58" width="512" xmlns="http://www.w3.org/2000/svg"><g id="Page-1" fill="none" fill-rule="evenodd"><g id="034---Online-Chat" fill-rule="nonzero"><path id="Shape" d="m58 7v38c0 1.6568542-1.3431458 3-3 3h-52c-1.65685425 0-3-1.3431458-3-3v-38z" fill="#ecf0f1"/><path id="Shape" d="m58 3v5h-58v-5c0-1.65685425 1.34314575-3 3-3h52c1.6568542 0 3 1.34314575 3 3z" fill="#547580"/><path id="Shape" d="m44 24h3.5c2.4852814 0 4.5-2.0147186 4.5-4.5s-2.0147186-4.5-4.5-4.5h-11c-2.4852814 0-4.5 2.0147186-4.5 4.5s2.0147186 4.5 4.5 4.5z" fill="#f29c1f"/><circle id="Oval" cx="4" cy="4" fill="#e64c3c" r="1"/><circle id="Oval" cx="8" cy="4" fill="#f0c419" r="1"/><circle id="Oval" cx="12" cy="4" fill="#24ae5f" r="1"/><path id="Shape" d="m53.36 37-4.78 8.85c-.98 1.84-1.75 4.04-3.43 5.38-.3742466.3052393-.6692708.6963178-.86 1.14-.1720372.3766206-.2607248.7859477-.26 1.2v3.43c0 .5522847-.4477153 1-1 1h-11.03c-.5522847 0-1-.4477153-1-1v-2.99c.01649-1.6509372-.4155423-3.2753787-1.25-4.7-1.144405-1.9058689-1.7492977-4.0869393-1.75-6.31v-9c.0081672-1.1011688.8988312-1.9918328 2-2 1.1032019.0032948 1.9967052.8967981 2 2v-1c.0081672-1.1011688.8988312-1.9918328 2-2 1.1032019.0032948 1.9967052.8967981 2 2v-1c.0081672-1.1011688.8988312-1.9918328 2-2 1.1032019.0032948 1.9967052.8967981 2 2v-9.11c.0040118-.6153716.2895597-1.1950331.7749999-1.5732475.4854402-.3782145 1.1173302-.513344 1.7150001-.3667525.9097194.2622102 1.5293597 1.1034438 1.51 2.05v16.79c.0022627.457017.314075.8543473.7574521.9651915.4433771.1108443.9054846-.093006 1.1225479-.4951915l3.12-5.74c.3359629-.6263163.9217952-1.0807588 1.6119764-1.2504443.6901812-.1696854 1.4199469-.038691 2.0080236.3604443 1.0638579.7742611 1.3815939 2.221248.74 3.37z" fill="#fdd7ad"/><path id="Shape" d="m27 16v8c0 1.6568542-1.3431458 3-3 3h-1.75l.424 3.395c.0508103.4113755-.1574336.811454-.523538 1.0058222-.3661045.1943682-.814169.1427298-1.126462-.1298222l-4.884-4.271h-8.14c-1.65685425 0-3-1.3431458-3-3v-8c0-1.6568542 1.34314575-3 3-3h16c1.6568542 0 3 1.3431458 3 3z" fill="#26b99a"/><g fill="#fff"><path id="Shape" d="m11 19h-2c-.55228475 0-1-.4477153-1-1s.44771525-1 1-1h2c.5522847 0 1 .4477153 1 1s-.4477153 1-1 1z"/><path id="Shape" d="m23 19h-8c-.5522847 0-1-.4477153-1-1s.4477153-1 1-1h8c.5522847 0 1 .4477153 1 1s-.4477153 1-1 1z"/><path id="Shape" d="m23 23h-2c-.5522847 0-1-.4477153-1-1s.4477153-1 1-1h2c.5522847 0 1 .4477153 1 1s-.4477153 1-1 1z"/><path id="Shape" d="m17 23h-8c-.55228475 0-1-.4477153-1-1s.44771525-1 1-1h8c.5522847 0 1 .4477153 1 1s-.4477153 1-1 1z"/></g><path id="Shape" d="m8 45h-4c-.55228475 0-1-.4477153-1-1v-4c0-.5522847.44771525-1 1-1s1 .4477153 1 1v3h3c.55228475 0 1 .4477153 1 1s-.44771525 1-1 1z" fill="#95a5a5"/><path id="Shape" d="m32 34v5c0 .5522847-.4477153 1-1 1s-1-.4477153-1-1v-7c1.1032019.0032948 1.9967052.8967981 2 2z" fill="#f9c795"/><path id="Shape" d="m36 33v6c0 .5522847-.4477153 1-1 1s-1-.4477153-1-1v-8c1.1032019.0032948 1.9967052.8967981 2 2z" fill="#f9c795"/><path id="Shape" d="m40 32v7c0 .5522847-.4477153 1-1 1s-1-.4477153-1-1v-9c1.1032019.0032948 1.9967052.8967981 2 2z" fill="#f9c795"/></g></g></svg>