<svg clip-rule="evenodd" fill-rule="evenodd" height="1.707in" image-rendering="optimizeQuality" shape-rendering="geometricPrecision" text-rendering="geometricPrecision" viewBox="0 0 1707 1707" width="1.707in" xmlns="http://www.w3.org/2000/svg"><g id="Layer_x0020_1"><g id="_320244856"><path d="m1581 1633h-1456c-69 0-125-56-125-125v-1309c0-70 56-126 125-126h1456c69 0 126 56 126 126v1309c0 69-57 125-126 125z" fill="#4e4cd3"/><path d="m0 491v-229h914v-10c0-98 79-178 177-179h490c69 0 126 56 126 126v292z" fill="#3e4095"/><g><path d="m1107 363c-45 0-81-37-81-81 0-45 36-81 81-81 44 0 80 36 80 81 0 44-36 81-80 81z" fill="#f06277"/><path d="m1327 363c-44 0-81-37-81-81 0-45 37-81 81-81 45 0 81 36 81 81 0 44-36 81-81 81z" fill="#fcad42"/><path d="m1548 363c-45 0-81-37-81-81 0-45 36-81 81-81 44 0 80 36 80 81 0 44-36 81-80 81z" fill="#22b37f"/></g><path d="m40 491v1017c0 47 38 85 85 85h1456c47 0 86-38 86-85v-1017z" fill="#dbe3fd"/><path d="m1091 222c45 0 81 36 81 80 0 14-3 27-9 38 15-15 24-35 24-58 0-45-36-81-80-81-31 0-58 18-72 43 15-14 34-22 56-22z" fill="#ef4f6b"/><path d="m1312 222c44 0 80 36 80 80 0 14-3 27-9 38 15-15 25-35 25-58 0-45-36-81-81-81-31 0-58 18-71 43 14-14 34-22 56-22z" fill="#fb9e3f"/><path d="m1532 222c45 0 81 36 81 80 0 14-3 27-9 38 15-15 24-35 24-58 0-45-36-81-80-81-31 0-58 18-72 43 15-14 34-22 56-22z" fill="#22a476"/></g><path d="m1506 1440h-877c-12 0-20-9-20-20s8-20 20-20h877c11 0 20 9 20 20s-9 20-20 20z" fill="#6765d3"/><path d="m1506 1306h-877c-12 0-20-9-20-20s8-20 20-20h877c11 0 20 9 20 20s-9 20-20 20z" fill="#6765d3"/><path d="m450 1485h-234c-20 0-35-16-35-35v-194c0-19 15-35 35-35h234c19 0 35 16 35 35v194c0 19-16 35-35 35z" fill="#fec124"/><path d="m1489 1133h-1271c-26 0-46-21-46-46v-442c0-25 20-46 46-46h1271c25 0 46 21 46 46v442c0 25-21 46-46 46z" fill="#4fbbff"/><path d="m802 1133h-520l259-400c3-5 10-9 17-8 7 0 13 4 16 10z" fill="#22b37f"/><path d="m1447 1133h-442l37-96 142-142c8-7 20-7 28 0l203 204z" fill="#22b37f"/><path d="m1079 865c-44 0-81-36-81-81s37-81 81-81c45 0 81 36 81 81s-36 81-81 81z" fill="#fec124"/><path d="m1123 1133h-461l216-313c8-10 25-10 32 0z" fill="#0caa5f"/></g></svg>