<svg id="Layer_1" height="512" viewBox="0 0 512 512" width="512" xmlns="http://www.w3.org/2000/svg" data-name="Layer 1"><path d="m31.986 32.134h173.731v173.731h-173.731zm-2.972 205.732h179.722a29.042 29.042 0 0 0 29.01-29v-179.732a29.042 29.042 0 0 0 -29.01-29h-179.722a29.042 29.042 0 0 0 -29.014 29v179.731a29.042 29.042 0 0 0 29.01 29zm277.272 242.261v-207.991h173.731v207.991zm173.731-447.993v208h-173.731v-208zm2.972-32h-179.722a29.042 29.042 0 0 0 -29.01 29v453.993a29.042 29.042 0 0 0 29.01 29h179.722a29.042 29.042 0 0 0 29.01-29v-453.993a29.042 29.042 0 0 0 -29.01-29zm-451.003 306.266h173.731v173.727h-173.731zm-2.972 205.728h179.722a29.042 29.042 0 0 0 29.01-29v-179.728a29.041 29.041 0 0 0 -29.01-29h-179.722a29.041 29.041 0 0 0 -29.014 29v179.727a29.042 29.042 0 0 0 29.014 29.001z" fill="#4caf50" fill-rule="evenodd"/></svg>