<svg id="Layer_1" viewBox="0 0 512 512" xmlns="http://www.w3.org/2000/svg" data-name="Layer 1"><path d="m385.477 124.685c26.391 0 47.849-21.458 47.849-47.849s-21.458-47.877-47.849-47.877-47.906 21.486-47.906 47.877 21.487 47.849 47.906 47.849z" fill="#fd7a6e"/><path d="m256.67 141.183c-34.866 0-63.269 28.403-63.269 63.269 0 24.945 14.655 47.282 36.708 57.487v-62.816c0-13.181 11.112-23.896 24.775-23.896s24.747 10.715 24.747 23.896v39.458c2.721-1.049 5.669-1.616 8.731-1.616 6.86 0 13.068 2.778 17.546 7.285 9.014-11.197 14.06-25.257 14.06-39.799 0-34.866-28.375-63.269-63.298-63.269z" fill="#30b3e3"/><path d="m313.165 268.373v51.364c0 4.422-3.572 7.994-8.022 7.994-4.422 0-7.994-3.572-7.994-7.994v-57.969c0-4.847-3.94-8.787-8.787-8.787-4.819 0-8.731 3.94-8.731 8.787v57.997c0 4.45-3.572 8.022-7.994 8.022s-8.022-3.572-8.022-8.022v-120.643c0-4.28-3.997-7.88-8.731-7.88-4.762 0-8.759 3.6-8.759 7.88v120.643c0 .85-.142 1.672-.368 2.438.227 1.927.368 3.912.368 5.925v29.395c0 4.394-3.572 7.994-8.022 7.994-4.422 0-7.994-3.6-7.994-7.994v-29.395c0-7.115-2.409-13.635-6.945-18.851-3.005-3.487-6.378-4.422-7.313-4.224-.227.284-.737 1.389-.907 3.685-.142 2.438-.113 5.386-.057 8.788 0 1.644.028 3.401.028 5.216v50.598c0 29.65 17.688 41.584 29.395 49.493 6.917 4.677 12.869 8.702 12.869 15.789v4.11h79.597v-4.337c0-13.946 6.973-21.827 13.153-28.771 7.313-8.277 14.23-16.073 14.23-36.284v-52.753c0-.17 0-.283.028-.425-.028-.142-.028-.284-.028-.425v-43.172c0-4.819-3.912-8.731-8.731-8.731-4.847 0-8.759 3.912-8.759 8.731v43.172c0 4.422-3.572 7.994-7.994 7.994s-8.022-3.572-8.022-7.994v-51.364c0-4.847-3.912-8.759-8.731-8.759-4.847 0-8.759 3.912-8.759 8.759z" fill="#ffddcf"/><path d="m128.204 28.109c-26.561 0-48.16 21.6-48.16 48.189s21.6 48.161 48.16 48.161 48.189-21.6 48.189-48.161-21.6-48.189-48.189-48.189z" fill="#66f2bf"/><path d="m270.503 70.062c0-7.54-6.151-13.663-13.691-13.663s-13.635 6.123-13.635 13.663 6.123 13.663 13.635 13.663 13.691-6.123 13.691-13.663z" fill="#6ac9eb"/><path d="m229.798 464.417v22.025c0 3.061 2.58 5.641 5.669 5.641h122.995c3.146 0 5.698-2.523 5.698-5.641v-22.025c0-3.118-2.551-5.669-5.698-5.669h-122.995c-3.146 0-5.669 2.551-5.669 5.669z" fill="#ccc4cc"/><path d="m393.811 218.569c7.54 0 13.691-6.123 13.691-13.663s-6.151-13.663-13.691-13.663-13.635 6.123-13.635 13.663 6.123 13.663 13.635 13.663z" fill="#6ac9eb"/><path d="m128.204 286.203c-26.079 0-47.31 21.231-47.31 47.339s21.231 47.31 47.31 47.31 47.339-21.231 47.339-47.31-21.231-47.339-47.339-47.339z" fill="#ffee93"/><path d="m119.814 191.242c-7.512 0-13.635 6.123-13.635 13.663s6.123 13.663 13.635 13.663c7.568 0 13.691-6.123 13.691-13.663s-6.123-13.663-13.691-13.663z" fill="#6ac9eb"/><path d="m385.477 28.959c26.391 0 47.849 21.486 47.849 47.877s-21.458 47.849-47.849 47.849-47.906-21.458-47.906-47.849 21.487-47.877 47.906-47.877zm-65.509 175.493c0 14.542-5.046 28.602-14.06 39.799-4.479-4.507-10.687-7.285-17.546-7.285-3.062 0-6.01.567-8.731 1.616v-39.458c0-13.181-11.112-23.896-24.747-23.896s-24.775 10.715-24.775 23.896v62.816c-22.053-10.205-36.708-32.542-36.708-57.487 0-34.866 28.403-63.269 63.269-63.269s63.298 28.403 63.298 63.269zm10.687 63.921v51.364c0 4.422 3.6 7.994 8.022 7.994s7.994-3.572 7.994-7.994v-43.172c0-4.819 3.912-8.731 8.759-8.731 4.819 0 8.731 3.912 8.731 8.731v43.172c0 .142 0 .283.028.425-.028.142-.028.255-.028.425v52.753c0 20.211-6.917 28.006-14.23 36.284-6.179 6.945-13.153 14.825-13.153 28.771v4.337h-79.597v-4.11c0-7.087-5.953-11.112-12.869-15.789-11.707-7.908-29.395-19.843-29.395-49.493v-50.598c0-1.814-.028-3.572-.028-5.216-.057-3.402-.085-6.35.057-8.788.17-2.296.68-3.401.907-3.685.935-.198 4.309.737 7.313 4.224 4.535 5.216 6.945 11.735 6.945 18.851v29.395c0 4.394 3.572 7.994 7.994 7.994 4.45 0 8.022-3.6 8.022-7.994v-29.395c0-2.013-.142-3.997-.368-5.925.227-.765.368-1.587.368-2.438v-120.643c0-4.28 3.997-7.88 8.759-7.88 4.734 0 8.731 3.6 8.731 7.88v120.643c0 4.45 3.6 8.022 8.022 8.022s7.994-3.572 7.994-8.022v-57.997c0-4.847 3.912-8.787 8.731-8.787 4.847 0 8.787 3.94 8.787 8.787v57.969c0 4.422 3.572 7.994 7.994 7.994 4.45 0 8.022-3.572 8.022-7.994v-51.364c0-4.847 3.912-8.759 8.759-8.759 4.819 0 8.731 3.912 8.731 8.759zm27.808 190.375c3.146 0 5.698 2.551 5.698 5.669v22.025c0 3.118-2.551 5.641-5.698 5.641h-122.995c-3.09 0-5.669-2.58-5.669-5.641v-22.025c0-3.118 2.523-5.669 5.669-5.669zm-115.285-388.686c0-7.54 6.123-13.663 13.635-13.663s13.691 6.123 13.691 13.663-6.151 13.663-13.691 13.663-13.635-6.123-13.635-13.663zm150.633 121.181c7.54 0 13.691 6.123 13.691 13.663s-6.151 13.663-13.691 13.663-13.635-6.123-13.635-13.663 6.123-13.663 13.635-13.663zm-265.607 189.609c-26.079 0-47.31-21.231-47.31-47.31s21.231-47.339 47.31-47.339 47.339 21.231 47.339 47.339-21.231 47.31-47.339 47.31zm-8.39-162.283c-7.512 0-13.635-6.123-13.635-13.663s6.123-13.663 13.635-13.663c7.568 0 13.691 6.123 13.691 13.663s-6.123 13.663-13.691 13.663zm8.39-94.11c-26.561 0-48.16-21.6-48.16-48.161s21.6-48.189 48.16-48.189 48.189 21.6 48.189 48.189-21.6 48.161-48.189 48.161zm257.272 16.243c35.206 0 63.865-28.658 63.865-63.865s-28.658-63.893-63.865-63.893-63.921 28.658-63.921 63.893c0 14.599 4.932 28.063 13.209 38.806l-27.638 27.666c-11.764-9.694-26.334-16.073-42.293-17.717v-26.958c12.501-3.515 21.685-14.995 21.685-28.573 0-16.356-13.323-29.679-29.707-29.679s-29.65 13.323-29.65 29.679c0 13.578 9.184 25.058 21.657 28.573v26.929c-15.987 1.587-30.614 7.937-42.378 17.603l-27.553-27.553c8.447-10.857 13.521-24.52 13.521-39.317 0-35.405-28.8-64.205-64.205-64.205s-64.176 28.8-64.176 64.205 28.8 64.177 64.176 64.177c14.825 0 28.488-5.046 39.373-13.521l27.581 27.581c-9.609 11.792-15.874 26.391-17.405 42.35h-29.339c-3.515-12.473-14.995-21.657-28.602-21.657-16.328 0-29.65 13.294-29.65 29.679s13.323 29.679 29.65 29.679c13.606 0 25.115-9.184 28.602-21.685h29.452c1.672 15.676 7.965 30.217 17.66 42.01l-28.573 28.545c-10.715-8.306-24.151-13.266-38.75-13.266-34.923 0-63.326 28.403-63.326 63.354s28.403 63.326 63.326 63.326 63.354-28.403 63.354-63.326c0-14.598-4.961-28.035-13.294-38.778l28.63-28.573c6.832 5.527 14.655 9.978 23.216 13.039v14.797c-6.151-4.507-13.408-6.18-19.446-4.139-3.26 1.105-10.885 5.046-11.679 17.83-.198 3.033-.17 6.435-.114 9.978.029 1.616.029 3.288.029 5.046v50.598c0 38.154 23.726 54.17 36.453 62.759 1.984 1.36 4.535 3.09 5.811 4.195v2.438h-5.698c-11.962 0-21.685 9.723-21.685 21.685v22.025c0 11.934 9.723 21.657 21.685 21.657h122.995c11.991 0 21.713-9.723 21.713-21.657v-22.025c0-11.962-9.723-21.685-21.713-21.685h-5.669v-4.337c0-7.88 3.628-11.962 9.127-18.142 8.135-9.213 18.255-20.636 18.255-46.914v-52.753c0-.17 0-.283-.028-.425.028-.142.028-.284.028-.425v-43.172c0-13.635-11.112-24.747-24.746-24.747-4.592 0-8.873 1.247-12.529 3.43-3.799-6.038-10.092-10.318-17.405-11.395 5.414-9.468 8.872-20.012 10.035-30.954h29.735c3.487 12.501 14.967 21.685 28.545 21.685 16.384 0 29.707-13.323 29.707-29.679s-13.323-29.679-29.707-29.679c-13.578 0-25.03 9.184-28.545 21.657h-29.65c-1.531-15.874-7.739-30.416-17.263-42.18l27.694-27.666c10.857 8.561 24.548 13.663 39.43 13.663z" fill="#030403"/></svg>