<svg id="Layer_1" height="512" viewBox="0 0 24 24" width="512" xmlns="http://www.w3.org/2000/svg" data-name="Layer 1"><g fill="#145638"><path d="m2 7.75a.75.75 0 0 1 -.75-.75v-5a.75.75 0 0 1 .75-.75h5a.75.75 0 0 1 0 1.5h-4.25v4.25a.75.75 0 0 1 -.75.75z"/><path d="m7 22.75h-5a.75.75 0 0 1 -.75-.75v-5a.75.75 0 0 1 1.5 0v4.25h4.25a.75.75 0 0 1 0 1.5z"/><path d="m22 7.75a.75.75 0 0 1 -.75-.75v-4.25h-4.25a.75.75 0 0 1 0-1.5h5a.75.75 0 0 1 .75.75v5a.75.75 0 0 1 -.75.75z"/><path d="m22 22.75h-5a.75.75 0 0 1 0-1.5h4.25v-4.25a.75.75 0 0 1 1.5 0v5a.75.75 0 0 1 -.75.75z"/></g><rect fill="#00aa5b" height="6.5" rx=".75" width="6.5" x="4.25" y="4.25"/><rect fill="#00aa5b" height="6.5" rx=".75" width="6.5" x="13.25" y="4.25"/><path d="m10 13.25h-5a.755.755 0 0 0 -.75.75v5a.755.755 0 0 0 .75.75h5.09a.619.619 0 0 0 .66-.66v-5.09a.755.755 0 0 0 -.75-.75z" fill="#00aa5b"/><circle cx="16.5" cy="16.5" fill="#fcc400" r="3.5"/></svg>