<svg height="509pt" viewBox="0 -3 509.41099 509" width="509pt" xmlns="http://www.w3.org/2000/svg"><path d="m102.25 503.566406c-1.492188-.023437-2.871094-.792968-3.671875-2.046875-1.179687-2.003906-.535156-4.585937 1.453125-5.800781l96.765625-60.671875-117.675781 68.265625c-2.003906 1.179688-4.585938.535156-5.800782-1.453125-1.1875-2.03125-.546874-4.640625 1.449219-5.886719l51.203125-31.574218-58.882812 34.132812c-2.003906 1.183594-4.585938.535156-5.800782-1.449219-.609374-1.058593-.734374-2.332031-.34375-3.492187.394532-1.15625 1.261719-2.09375 2.390626-2.566406l47.445312-29.355469-47.957031 27.648437c-2.007813 1.179688-4.585938.535156-5.800781-1.449218-1.191407-2.03125-.546876-4.640626 1.449218-5.886719l11.007813-6.574219-7.507813 4.269531c-.96875.582031-2.132812.746094-3.226562.457031-1.09375-.289062-2.023438-1.007812-2.578125-1.996093-1.179688-2.003907-.535157-4.585938 1.449219-5.800781l65.195312-39.9375-60.839844 35.160156c-2.035156 1.117187-4.589844.441406-5.804687-1.539063-1.195313-1.984375-.589844-4.558593 1.367187-5.800781l79.613282-48.980469-75.261719 43.433594c-.957031.578125-2.109375.742187-3.1875.453125-1.082031-.289062-1.996094-1.007812-2.53125-1.988281-1.195313-1.984375-.589844-4.5625 1.367187-5.804688l125.4375-78.164062-104.105468 60.160156c-2.007813 1.179687-4.589844.535156-5.804688-1.449219-1.203125-2.011718-.597656-4.613281 1.367188-5.890625l147.285156-93.097656-119.464844 68.949219c-2.007812 1.179687-4.589844.535156-5.804688-1.449219-1.1875-2.035156-.546874-4.640625 1.449219-5.890625l103.597657-64.9375-80.042969 45.996094c-2.023438 1.152344-4.597657.46875-5.785157-1.53125-1.183593-2.003906-.550781-4.585938 1.433594-5.808594l110.933594-70.398438-85.335938 49.40625c-2.027343 1.226563-4.660156.574219-5.886718-1.449218-1.226563-2.027344-.574219-4.664063 1.449218-5.890625l99.671876-63.65625-74.667969 43.09375c-1.980469.992187-4.394531.300781-5.550781-1.589844s-.671876-4.351563 1.113281-5.664063l75.863281-48.300781-52.910156 30.464844c-1.980469 1.171875-4.535156.523437-5.714844-1.449219-1.195312-1.984375-.589844-4.5625 1.363281-5.804687l31.234375-19.710938-12.546875 6.996094c-1.980469.996094-4.394531.304687-5.550781-1.585937-1.15625-1.890626-.671875-4.355469 1.113281-5.667969l50.519531-32.339844-29.269531 17.066406c-2.007812 1.179688-4.589843.535157-5.804687-1.449219-1.203125-2.011718-.597656-4.613281 1.367187-5.890624l16.042969-10.066407c-1.644531.148438-3.230469-.644531-4.097656-2.050781-1.195313-1.984375-.589844-4.558594 1.367187-5.800781l28.84375-18.601563-8.960937 5.546875c-2.011719 1.132813-4.558594.492188-5.804688-1.453125-1.226562-1.941406-.699218-4.503906 1.195313-5.800781l71.167969-48.8125-43.859376 25.601563c-1.984374 1.195312-4.5625.589843-5.804687-1.367188-1.164063-1.96875-.605469-4.503906 1.28125-5.800781l30.804687-20.652344-9.984374 5.804687c-2.003907 1.246094-4.636719.636719-5.886719-1.367187s-.636719-4.640625 1.363281-5.886719l23.894531-16.214844-3.582031 2.046876c-1.96875 1.140624-4.480469.542968-5.71875-1.363282-1.230469-1.941406-.699219-4.503906 1.195312-5.804687l18.089844-12.796875c-1.621094.234375-3.234375-.457032-4.179687-1.792969-1.269531-1.816406-.933594-4.300781.765625-5.71875l26.539062-21.84375-.769531.511719c-1.820313 1.058594-4.144531.628906-5.464844-1.011719-1.324219-1.644531-1.25-4.003906.175781-5.558594l15.703126-17.492187c-.972657-2.011719-.226563-4.429688 1.703124-5.546875l7.511719-4.269531c1.78125-1.121094 4.128907-.675782 5.375 1.023437 1.367188 1.597656 1.367188 3.953125 0 5.546875l-5.800781 6.402344 22.441406-13.398438c1.917969-1.144531 4.398438-.582031 5.632813 1.28125 1.289062 1.828125.914062 4.347656-.855469 5.714844l-26.539062 22.019531 40.789062-23.554687c1.972656-1.125 4.476562-.507813 5.703125 1.398437 1.230469 1.910157.746094 4.445313-1.09375 5.769531l-15.445313 10.410157 15.53125-8.957031c2.011719-1.132813 4.558594-.496094 5.800782 1.449218 1.214844 1.960938.648437 4.53125-1.277344 5.800782l-23.808594 16.214843 20.054688-11.605469c1.980468-1.171874 4.535156-.523437 5.714844 1.449219 1.230468 1.941407.699218 4.507813-1.195313 5.804688l-30.890625 20.652343 26.371094-15.277343c2-1.25 4.636718-.636719 5.886718 1.367187 1.25 2 .636719 4.636719-1.367187 5.886719l-71.082031 48.8125 66.5625-38.402344c1.980468-.992187 4.394531-.304687 5.550781 1.589844 1.15625 1.890625.671875 4.351563-1.113281 5.664063l-28.929688 18.6875 24.492188-14.164063c1.980468-.996094 4.394531-.304687 5.550781 1.585937 1.15625 1.890626.671875 4.355469-1.113281 5.667969l-8.535156 5.289063 3.839843-2.304688c2.035157-1.117187 4.585938-.441406 5.804688 1.535156 1.195312 1.984376.585937 4.5625-1.367188 5.804688l-50.515625 32.339844 46.078125-26.621094c1.3125-.792969 2.945313-.828125 4.289063-.089844 1.339844.742188 2.1875 2.140625 2.214844 3.671875.03125 1.53125-.753907 2.960938-2.066407 3.753907l-31.402343 19.714843 26.964843-15.53125c1.980469-.996093 4.394531-.304687 5.550781 1.585938s.671876 4.355469-1.113281 5.667969l-75.863281 48.382812 71.425781-41.300781c2.035157-1.117188 4.585938-.441407 5.804688 1.535156 1.195312 1.984375.585937 4.558594-1.367188 5.800781l-99.414062 63.660156 95.234375-54.953124c1.980468-.996094 4.394531-.304688 5.550781 1.585937s.671875 4.355469-1.113281 5.667969l-110.933594 70.398437 106.496094-61.441406c.96875-.582031 2.132812-.746094 3.222656-.457031 1.09375.289062 2.023438 1.007812 2.578125 1.992187 1.195313 1.984375.589844 4.5625-1.363281 5.804688l-103.597656 64.9375 99.160156-57.257813c2.003906-1.179687 4.585937-.535156 5.800781 1.449219 1.203125 2.011719.601563 4.613281-1.363281 5.890625l-147.117188 93.097656 142.679688-82.261718c1.980468-.992188 4.394531-.304688 5.550781 1.589843 1.15625 1.890625.671875 4.351563-1.113281 5.664063l-125.527344 78.078125 121.089844-69.972657c2.019531-1.152343 4.59375-.46875 5.78125 1.53125 1.1875 2.003907.550781 4.585938-1.429688 5.808594l-79.53125 48.980469 75.179688-43.347656c.96875-.585938 2.132812-.75 3.222656-.460938 1.09375.289063 2.023438 1.007813 2.578125 1.996094 1.179687 2.007813.535156 4.585937-1.449219 5.800781l-65.023437 39.851563 60.671875-34.984375c2.003906-1.179688 4.585937-.535156 5.800781 1.449218 1.1875 2.03125.546875 4.640626-1.449219 5.886719l-11.09375 6.65625 6.742188-3.839843c.96875-.582032 2.132812-.75 3.222656-.457032 1.09375.289063 2.023438 1.007813 2.578125 1.992188 1.179687 2.007812.535156 4.589844-1.449219 5.804687l-47.617187 29.097657 43.265625-25c2.027344-1.167969 4.613281-.480469 5.800781 1.535156.589844.957031.769531 2.113281.496094 3.207031-.273438 1.089844-.976563 2.027344-1.945313 2.59375l-51.203125 31.574219 47.105469-27.136719c1.980469-.992187 4.394531-.304687 5.550781 1.589844 1.15625 1.890625.675781 4.351562-1.113281 5.664062l-97.023438 60.671875 92.332032-53.332031c1.980468-.996094 4.394531-.304687 5.550781 1.585937 1.15625 1.890626.671875 4.355469-1.113281 5.667969l-121.515625 78.675781 117.417969-67.839843c.96875-.582031 2.132812-.75 3.226562-.460938 1.09375.289063 2.023438 1.011719 2.574219 1.996094 1.195312 1.984375.589843 4.558594-1.363281 5.804687l-36.523438 22.613282 32.171875-18.605469c1.980469-.992187 4.394531-.300781 5.550781 1.589844s.671875 4.351562-1.113281 5.664062l-59.648437 38.058594 54.785156-31.65625c1.980468-.996094 4.394531-.304687 5.550781 1.585937 1.15625 1.890626.671875 4.355469-1.113281 5.664063l-6.144532 3.84375 1.707032-.941406c1.949218-.933594 4.292968-.257813 5.449218 1.574219 1.15625 1.828124.753907 4.234374-.929687 5.59375l-70.398437 47.359374 66.21875-38.3125c2.003906-1.25 4.640624-.636718 5.886718 1.363282 1.25 2.003906.640625 4.640625-1.363281 5.890625l-54.101563 36.691406 49.578126-28.585937c1.972656-1.09375 4.453124-.503907 5.71875 1.367187 1.292968 1.90625.796874 4.503906-1.109376 5.800781l-53.761718 38.996094 49.066406-28.328125c2.003906-1.25 4.640625-.640625 5.886719 1.363281 1.25 2.003906.640625 4.640625-1.363281 5.890625l-3.5 2.300781c1.761718-.441406 3.609374.277344 4.609374 1.792969 1.289063 1.828125.914063 4.347657-.855468 5.71875l-28.242188 22.1875 23.550782-13.65625c1.882812-1.09375 4.285156-.59375 5.578124 1.15625 1.289063 1.753907 1.054688 4.195313-.542968 5.671875l-20.054688 18.6875 14.679688-8.535156c1.789062-.988281 4.027344-.597656 5.375.941406 1.238281 1.578125 1.238281 3.796875 0 5.375l-7.511719 9.726563c1.320313-.957031 3.066406-1.082031 4.507813-.320313 1.4375.761719 2.320312 2.277344 2.269531 3.90625-.050781 1.625-1.023438 3.082032-2.507813 3.753906l-19.203125 11.09375c-1.761719 1.042969-4.019531.6875-5.375-.851562-1.285156-1.59375-1.285156-3.871094 0-5.464844l7.765625-9.898437-27.5625 15.957031c-1.851562.953125-4.121094.425781-5.367187-1.242188-1.242188-1.667968-1.105469-3.992187.332031-5.496093l19.796875-18.605469-44.03125 25.601562c-1.910156 1.195313-4.425781.621094-5.632813-1.28125-1.246093-1.835937-.875-4.324218.855469-5.714843l28.328125-22.273438-50.6875 29.011719c-1.949218.9375-4.292968.261719-5.449218-1.570312-1.15625-1.832032-.757813-4.234376.929687-5.597657l1.703125-1.191406-14.503906 8.53125c-1.964844 1.140625-4.480469.539063-5.71875-1.363281-1.234375-1.894532-.746094-4.425782 1.109375-5.71875l53.675781-39.167969-79.789062 46.078125c-1.96875 1.125-4.476563.511719-5.703126-1.398438-1.226562-1.90625-.742187-4.441406 1.097657-5.769531l54.101562-36.777343-76.117187 43.945312c-1.964844 1.140625-4.480469.542969-5.71875-1.363281-1.226563-1.941407-.699219-4.503907 1.195312-5.804688l70.828125-47.445312-94.636719 54.613281c-2.007812 1.183594-4.585937.535156-5.800781-1.449219-.59375-.957031-.769531-2.113281-.496093-3.207031.269531-1.089844.972656-2.027344 1.945312-2.59375l6.144531-3.925781-19.628906 11.175781c-1.980469.996094-4.394531.304688-5.550781-1.585938-1.15625-1.890624-.671875-4.351562 1.113281-5.664062l59.136719-37.71875-77.652344 44.96875c-2.007812 1.183594-4.589844.535156-5.804688-1.449219-.589843-.957031-.765624-2.113281-.496093-3.207031.273437-1.089844.976562-2.027344 1.949219-2.59375l36.523437-22.871094-51.882813 30.121094c-1.984374.996094-4.394531.304688-5.554687-1.585938-1.15625-1.890624-.671875-4.351562 1.117187-5.664062l121.941407-78.679688-149.25 85.929688c-.707031.457031-1.546875.667969-2.386719.597656zm0 0" fill="#a9b0bb" fill-rule="evenodd"/><path d="m71.953125 452.367188c-1.546875.035156-3.003906-.742188-3.839844-2.046876-1.1875-2.03125-.542969-4.640624 1.453125-5.886718l15.613282-9.304688-29.097657 16.640625c-1.980469.996094-4.394531.304688-5.550781-1.585937s-.671875-4.355469 1.113281-5.667969l69.546875-43.175781-87.210937 50.429687c-2.003907 1.179688-4.585938.535157-5.800781-1.449219-.589844-.957031-.769532-2.113281-.496094-3.207031.273437-1.09375.972656-2.027343 1.945312-2.597656l135-85.332031-149.589844 86.273437c-2.03125 1.164063-4.617187.480469-5.804687-1.539062-1.179687-2.003907-.535156-4.585938 1.453125-5.800781l89.769531-55.382813-89.6875 51.796875c-2.023437 1.226562-4.660156.578125-5.886719-1.449219-1.226562-2.027343-.574218-4.664062 1.449219-5.886719l166.230469-105.300781-162.132812 93.351563c-1.824219 1.054687-4.144532.621094-5.460938-1.023438-1.1875-2.03125-.546875-4.640625 1.449219-5.886718l55.894531-34.132813-51.199219 29.695313c-2.007812 1.179687-4.589843.535156-5.804687-1.449219-.59375-.972657-.773438-2.140625-.5-3.246094.269531-1.109375.972656-2.058594 1.953125-2.644531l96.167969-59.730469-92.160157 52.90625c-1.980469.992187-4.394531.300781-5.550781-1.589844s-.671875-4.351562 1.113281-5.664062l139.09375-87.039063-134.65625 77.738282c-2.023437 1.222656-4.660156.574218-5.886719-1.453126-1.226562-2.023437-.574218-4.660156 1.449219-5.886718l167.167969-105.984375-162.730469 93.867187c-1.980469.992188-4.394531.304688-5.550781-1.585937-1.15625-1.894531-.671875-4.355469 1.113281-5.667969l162.136719-102.398438-157.699219 91.050782c-2.03125 1.117187-4.585937.441406-5.800781-1.539063-.589844-.957031-.769531-2.113281-.496094-3.203125.273438-1.09375.972656-2.03125 1.945313-2.597656l67.671875-41.558594-63.320313 36.609375c-2.03125 1.117188-4.585937.441407-5.800781-1.535156-.59375-.972656-.777344-2.140625-.503906-3.246094.273437-1.105469.976562-2.058593 1.953125-2.644531l3.753906-2.300781c-1.816406.886719-4.007813.347656-5.203125-1.28125-1.195312-1.984375-.589844-4.558594 1.363281-5.804688l138.582031-87.210937-134.144531 77.484375c-.96875.582031-2.132812.75-3.226562.460937-1.089844-.289062-2.019531-1.011718-2.574219-1.996094-1.195312-1.984374-.589844-4.558593 1.363281-5.804687l130.050781-81.066406-125.613281 72.449219c-1.980469.992187-4.394531.304687-5.550781-1.585938-1.15625-1.894531-.671875-4.355469 1.113281-5.667969l86.273438-53.164062-81.835938 47.277343c-.96875.582032-2.132812.75-3.226562.457032-1.089844-.289063-2.019531-1.007813-2.574219-1.992188-1.195312-1.984375-.589844-4.5625 1.363281-5.804687l170.15625-108.03125-165.71875 95.660156c-1.980469.992187-4.394531.300781-5.550781-1.589844s-.671875-4.351562 1.113281-5.664062l151.46875-95.402344-147.113281 85.332031c-.964844.554688-2.105469.707032-3.179688.417969-1.070312-.289063-1.984374-.992187-2.539062-1.953125-1.195312-1.984375-.589844-4.5625 1.363281-5.804688l154.882813-98.046874-150.527344 86.867187c-2.035156 1.117187-4.589844.441406-5.804688-1.535156-1.132812-2.011719-.496093-4.558594 1.449219-5.800781l36.183594-22.015626-31.828125 18.601563c-1.980469 1.171875-4.539062.523437-5.71875-1.449219-1.167969-1.972656-.605469-4.507812 1.28125-5.804687l142.847656-91.734375-138.410156 79.875c-1.980469 1.171875-4.539062.523437-5.71875-1.453125-1.210938-1.960938-.644531-4.53125 1.28125-5.800781l121.597656-78.421876-117.160156 67.667969c-1.980469 1.171875-4.539062.523438-5.71875-1.449219-1.210938-1.960937-.644531-4.53125 1.28125-5.804687l92.585938-59.730469-88.148438 51.199219c-1.984375.992187-4.398438.304687-5.554688-1.589844-1.15625-1.890625-.671874-4.351562 1.117188-5.664062l94.71875-62.804688-90.28125 51.96875c-2.03125 1.164063-4.617188.480469-5.804688-1.539062-1.179687-2.003907-.535156-4.585938 1.449219-5.800781l9.898438-6.316407-5.542969 3.246094c-1.984375.992187-4.398438.300781-5.554688-1.589844s-.671874-4.351562 1.117188-5.664062l34.132812-22.445313-29.695312 17.238282c-1.960938 1.1875-4.507812.578124-5.71875-1.363282-1.230469-1.941406-.699219-4.507812 1.195312-5.804687l49.066407-33.28125-40.789063 23.382812c-.953125.65625-2.125.910157-3.261718.703125-1.136719-.210937-2.140626-.859375-2.796876-1.8125-1.28125-1.875-.871093-4.425781.9375-5.800781l54.101563-40.875-2.476563 1.449219c-1.902343 1.121094-4.34375.601562-5.628906-1.195313-1.289062-1.792969-.992187-4.273437.679688-5.714843l27.90625-24.917969c-.496094-1.855469.308594-3.808594 1.960937-4.78125l10.070313-5.800781c1.902344-1.1210942 4.347656-.601563 5.632812 1.195312 1.296875 1.746094 1.035156 4.195312-.597656 5.632812l-8.535156 7.335938 24.917968-14.164062c1.910157-1.195313 4.425782-.625 5.632813 1.28125 1.28125 1.875.867187 4.425781-.9375 5.800781l-53.933594 40.875 83.285157-47.957031c1.953124-.933594 4.296874-.257813 5.453124 1.570312 1.15625 1.832031.753907 4.238281-.929687 5.597656l-49.066406 33.449219 70.316406-40.617187c1.980469-.992188 4.394531-.304688 5.550781 1.585937s.671875 4.355469-1.113281 5.667969l-34.5625 22.441406 51.203125-29.695312c.992188-.804688 2.300781-1.109376 3.550781-.824219 1.246094.28125 2.296875 1.121093 2.847657 2.273437 1.195312 1.984375.589843 4.5625-1.367188 5.804688l-9.898438 6.3125 23.125-13.566406c2.003907-1.2500005 4.640626-.636719 5.890626 1.363281 1.25 2.003906.636718 4.640625-1.367188 5.890625l-94.71875 62.71875 121.003906-69.972656c1.980469-.992188 4.394532-.304688 5.550782 1.585937s.671874 4.355469-1.113282 5.667969l-92.503906 59.730468 116.054688-66.984374c.984374-.707032 2.222656-.953126 3.402343-.675782 1.179688.277344 2.179688 1.054688 2.742188 2.125.605469.9375.808593 2.078125.570312 3.167969-.242187 1.089844-.90625 2.039063-1.851562 2.636719l-122.113281 78.421875 148.394531-85.675781c1.984375-.992188 4.394531-.304688 5.554687 1.585937 1.15625 1.890625.671875 4.355469-1.117187 5.667969l-142.761719 91.390625 168.191406-97.109375c2.03125-1.164063 4.617188-.480469 5.804688 1.535156 1.179687 2.007812.535156 4.589844-1.453125 5.804688l-36.265625 22.1875 40.191406-23.210938c1.980469-1.171875 4.535156-.523438 5.71875 1.449219 1.195312 1.984375.589844 4.558593-1.367188 5.804687l-154.792968 97.703125 153.601562-88.402343c1.980469-.996094 4.394532-.304688 5.550782 1.585937s.671874 4.355469-1.113282 5.667969l-151.980468 95.402344 147.113281-84.910157c1.984375-.992187 4.394531-.300781 5.554687 1.589844 1.15625 1.890625.671875 4.351563-1.117187 5.664063l-170.152344 108.035156 165.714844-95.660156c.949219-.597657 2.097656-.789063 3.1875-.535157 1.09375.257813 2.035156.941407 2.617187 1.898438 1.179688 2.007812.535156 4.589843-1.453125 5.804687l-86.097656 53.246094 81.746094-47.1875c2.007812-1.179688 4.589843-.535156 5.804687 1.449219.589844.960937.769532 2.117187.496094 3.207031-.273438 1.09375-.976562 2.027344-1.949219 2.597656l-129.960937 81.066406 125.527344-72.449218c2.023437-1.226563 4.660156-.574219 5.886718 1.453125 1.226563 2.023437.574219 4.660156-1.453125 5.886719l-138.496093 86.699218 134.144531-77.398437c2.007812-1.179688 4.589843-.535157 5.804687 1.449219 1.1875 2.035156.546875 4.640624-1.453125 5.890624l-3.921875 2.304688c1.988282-.8125 4.269532-.050781 5.375 1.789062 1.179688 2.007813.535156 4.589844-1.453125 5.804688l-67.667969 41.472656 63.316407-36.523437c2.007812-1.179688 4.589843-.535157 5.804687 1.449219 1.203125 2.011718.601563 4.613281-1.367187 5.890624l-161.621094 102.398438 157.183594-90.964844c1.984375-.996094 4.394531-.304687 5.554687 1.585938 1.15625 1.890625.671875 4.355468-1.117187 5.667968l-167.167969 105.984376 162.730469-93.867188c2.007812-1.179688 4.589843-.535156 5.804687 1.449219 1.203125 2.011719.601563 4.613281-1.367187 5.886719l-138.582031 86.957031 134.574218-77.738281c2.003906-1.179688 4.585938-.535157 5.800782 1.449218.59375.972656.777343 2.140625.503906 3.246094-.273438 1.105469-.976563 2.058594-1.953125 2.640625l-96.769531 59.136719 91.988281-53.078125c.96875-.582031 2.132812-.746094 3.226562-.457031 1.09375.289062 2.023438 1.007812 2.578125 1.996093 1.179688 2.003907.535156 4.585938-1.453125 5.800781l-55.636719 34.132813 51.203126-29.609375c1.980468-.992188 4.394531-.304688 5.550781 1.585938 1.15625 1.890624.671875 4.355468-1.117188 5.667968l-166.140625 105.640625 162.132813-93.4375c2.019531-1.152343 4.59375-.472656 5.78125 1.527344 1.1875 2.003906.550781 4.589844-1.429688 5.808594l-90.027343 55.382812 85.332031-49.238281c1.984375-.992188 4.394531-.304688 5.554687 1.589844 1.15625 1.890625.671875 4.351562-1.117187 5.664062l-135.082031 85.332032 130.644531-75.773438c2.023437-1.152344 4.597656-.472656 5.785156 1.53125 1.1875 2 .550781 4.585938-1.433594 5.804688l-69.542969 43.863281 65.191407-37.632813c2.023437-1.152344 4.597656-.472656 5.785156 1.53125 1.1875 2 .550781 4.585938-1.433594 5.808594l-15.273437 9.386719 10.921875-6.316407c2.015625-1.132812 4.5625-.496093 5.804687 1.453126 1.210938 1.960937.644532 4.53125-1.28125 5.800781l-118.015625 76.886719 113.492188-65.453126c2.027343-1.222656 4.664062-.574218 5.890625 1.453126 1.222656 2.027343.574218 4.660156-1.453125 5.886718l-43.519531 27.476563 39.082031-22.527344c1.984375-.992187 4.394531-.304687 5.554687 1.589844 1.15625 1.890625.671875 4.351562-1.117187 5.664062l-34.132813 21.503907 29.355469-17.066407c1.296875-.808593 2.925781-.863281 4.269531-.144531 1.347656.71875 2.210938 2.101562 2.261719 3.625.054687 1.527344-.714844 2.964844-2.007813 3.773438l-78.25 53.417968 73.726563-42.667968c1.296875-.808594 2.925781-.863282 4.269531-.144532 1.347656.71875 2.210938 2.101563 2.261719 3.628906.054687 1.523438-.714844 2.960938-2.007813 3.769532l-39.511718 26.710937 35.328125-20.394531c1.972656-1.125 4.476562-.511719 5.703125 1.398438 1.226562 1.90625.746094 4.441406-1.09375 5.769531l-41.214844 28.757812 36.605469-21.164062c1.972656-1.09375 4.453125-.503907 5.71875 1.363281 1.21875 1.90625.773437 4.429688-1.023438 5.804688l-38.058593 28.671874 33.363281-19.285156c1.90625-1.121094 4.347656-.601562 5.632812 1.195313 1.265625 1.816406.933594 4.296875-.765625 5.714843l-28.078125 23.640626 22.957031-13.226563c1.902344-1.121094 4.347657-.601563 5.632813 1.191406 1.234375 1.78125.9375 4.199219-.683594 5.632813l-9.730469 8.535156 4.78125-2.730469c1.839844-1.066406 4.183594-.609375 5.492188 1.066407 1.3125 1.671874 1.1875 4.058593-.289062 5.589843l-4.265626 4.605469c1.542969-.003906 2.96875.808594 3.753907 2.132812 1.101562 2.058594.386719 4.617188-1.621094 5.804688l-21.332031 12.457031c-1.824219 1.054688-4.144532.621094-5.460938-1.023437-1.402344-1.582032-1.402344-3.964844 0-5.546875l2.984375-3.242188-17.066406 9.8125c-1.875 1.109375-4.289063.589844-5.546875-1.195312-1.265625-1.78125-1.007812-4.230469.597656-5.714844l9.730469-8.535156-26.453125 15.445312c-1.90625 1.121094-4.347656.601563-5.632812-1.195312-1.246094-1.804688-.953126-4.253907.683593-5.714844l27.816407-23.554687-52.820313 30.464843c-1.945313 1.15625-4.453125.59375-5.71875-1.277343-1.261719-1.898438-.8125-4.453126 1.023437-5.804688l38.058594-28.671875-61.949218 35.753906c-1.984376 1.195313-4.5625.589844-5.804688-1.363281-1.226562-1.941406-.699219-4.507812 1.195312-5.804688l41.132813-28.757812-62.210937 35.925781c-2.003907 1.179688-4.585938.535157-5.800782-1.449219-1.167968-1.96875-.605468-4.507812 1.277344-5.804687l39.9375-26.621094-58.707031 34.132813c-1.984375 1.195312-4.5625.589844-5.804688-1.367188-1.226562-1.941406-.699219-4.503906 1.195313-5.800781l78.25-53.417969-105.046875 60.328125c-1.980469 1.171875-4.535157.523438-5.714844-1.449219-1.195313-1.984374-.589844-4.558593 1.363281-5.804687l34.132813-21.503906-50.601563 28.757812c-1.980468 1.171875-4.535156.523438-5.714844-1.449219-1.199218-1.984374-.589843-4.558593 1.363282-5.804687l43.519531-27.5625-59.988281 34.816406c-1.980469.996094-4.394532.304688-5.550782-1.585937s-.675781-4.355469 1.113282-5.667969l117.929687-76.796875-146.429687 84.050781c-.636719.40625-1.378906.613281-2.136719.597657zm0 0" fill="#e4e8eb" fill-rule="evenodd"/><path d="m34.75 93.96875c-1.390625.019531-2.703125-.652344-3.5-1.792969-1.246094-1.804687-.953125-4.257812.683594-5.71875l23.894531-20.476562-40.875 23.976562c-1.972656 1.09375-4.453125.503907-5.71875-1.363281-1.273437-1.851562-.855469-4.375.9375-5.71875l35.585937-27.050781c-.800781-.292969-1.507812-.792969-2.046874-1.449219-1.253907-1.777344-1.035157-4.195312.511718-5.71875l39.167969-37.292969c-.152344-1.558593.527344-3.082031 1.789063-4.007812l5.804687-3.328125c1.863281-1.085938 4.242187-.609375 5.546875 1.109375 1.316406 1.726562 1.09375 4.171875-.511719 5.632812l-19.371093 18.941407 14.933593-8.53125c1.972657-1.097657 4.453125-.503907 5.71875 1.363281 1.207031 1.878906.761719 4.375-1.027343 5.71875l-26.453126 19.796875 21.503907-12.375c1.90625-1.117188 4.347656-.597656 5.632812 1.195312 1.246094 1.804688.953125 4.257813-.683593 5.71875l-23.890626 20.394532 18.941407-10.921876c1.871093-1.046874 4.222656-.578124 5.546875 1.109376 1.417968 1.609374 1.417968 4.019531 0 5.628906l-11.261719 10.753906 5.714844-3.242188c1.769531-1.101562 4.085937-.695312 5.378906.9375 1.351563 1.570313 1.351563 3.894532 0 5.460938l-4.097656 4.949219c.839843.359375 1.53125.988281 1.960937 1.792969.585938.96875.75 2.132812.460938 3.226562-.289063 1.09375-1.007813 2.023438-1.996094 2.578125l-13.824219 8.019531c-1.78125 1.023438-4.042969.628906-5.375-.9375-1.351562-1.570312-1.351562-3.894531 0-5.460937l.9375-1.195313-13.3125 7.679688c-1.863281 1.085937-4.242187.609375-5.542969-1.109375-1.40625-1.582031-1.40625-3.964844 0-5.546875l11.175782-10.753906-30.207032 17.066406c-.601562.519531-1.34375.847656-2.132812.941406zm0 0" fill="#5e8faa" fill-rule="evenodd"/><path d="m295.1875 336.828125c-1.425781-.015625-2.761719-.714844-3.585938-1.878906-1.199218-1.925781-.714843-4.453125 1.109376-5.800781l8.535156-6.144532-10.410156 5.972656c-1.925782.898438-4.222657.242188-5.382813-1.539062-1.160156-1.785156-.828125-4.148438.773437-5.542969l58.964844-42.667969-65.363281 37.800782c-2.015625 1.132812-4.5625.496094-5.804687-1.449219-1.210938-1.960937-.644532-4.53125 1.28125-5.800781l73.472656-49.152344-79.277344 45.992188c-2.011719 1.132812-4.558594.496093-5.800781-1.449219-1.195313-1.984375-.589844-4.558594 1.363281-5.804688l60.246094-39.421875-16.382813 9.214844c-1.980469 1.171875-4.535156.523438-5.71875-1.449219-1.21875-1.914062-.6875-4.453125 1.195313-5.71875l49.238281-34.132812-1.367187.769531c-1.957032 1.1875-4.503907.578125-5.714844-1.367188-1.230469-1.941406-.703125-4.503906 1.195312-5.800781l30.035156-20.566406c-.421874-.25-.773437-.601563-1.023437-1.023437-1.265625-1.785157-1.011719-4.234376.597656-5.71875l40.617188-35.328126c-.1875-1.695312.652343-3.339843 2.132812-4.179687l8.535157-4.949219c1.902343-1.121094 4.347656-.601562 5.632812 1.195313 1.246094 1.804687.953125 4.253906-.683594 5.714843l-17.066406 15.105469 21.332031-12.375c2.003907-1.269531 4.660157-.679687 5.933594 1.324219 1.269531 2.003906.679687 4.65625-1.324219 5.929688l-5.972656 4.097656 7.765625-4.4375c1.964844-1.140625 4.476563-.539063 5.714844 1.363281 1.230469 1.941406.703125 4.507813-1.195313 5.804687l-49.234375 34.132813 53.84375-31.0625c2.007813-1.179687 4.589844-.535156 5.804688 1.453125 1.164062 1.96875.605469 4.503906-1.28125 5.800781l-60.417969 39.082031 63.148438-36.351562c1.953124-.933594 4.296874-.257812 5.449218 1.570312 1.15625 1.832032.757813 4.238282-.925781 5.597657l-73.8125 49.152343 22.953125-13.226562c1.964844-1.140625 4.480469-.539062 5.71875 1.367188 1.199219 1.925781.714844 4.453124-1.109375 5.800781l-58.96875 42.667969 2.5625-1.707032c1.28125-.839844 2.910156-.929687 4.277344-.242187 1.367187.691406 2.261719 2.058593 2.347656 3.585937s-.652344 2.984375-1.933594 3.824219l-31.144531 22.867187c.273438.277344.503906.59375.683594.941407 1.148437 2.050781.425781 4.644531-1.625 5.800781l-37.800782 21.847656c-.660156.339844-1.390624.515625-2.132812.511719zm0 0" fill="#46ceac" fill-rule="evenodd"/><path d="m242.023438 380.089844c-1.390626.023437-2.703126-.648438-3.496094-1.792969-1.277344-1.839844-.945313-4.355469.765625-5.800781l12.628906-10.238282-15.53125 8.53125c-1.941406 1.15625-4.449219.59375-5.714844-1.28125-1.226562-1.855468-.820312-4.347656.9375-5.714843l8.535157-6.914063-10.925782 6.144532c-1.882812 1.414062-4.558594 1.03125-5.972656-.851563-1.414062-1.886719-1.03125-4.5625.855469-5.976563l23.210937-21.671874-3.5 1.960937c-1.808594 1.136719-4.1875.691406-5.460937-1.023437-1.367188-1.597657-1.367188-3.949219 0-5.546876l20.136719-21.417968c-.453126-1.824219.390624-3.722656 2.050781-4.609375l5.460937-3.15625c1.824219-1.054688 4.140625-.617188 5.460938 1.023437 1.363281 1.597656 1.363281 3.949219 0 5.546875l-6.914063 7.425781 9.644531-5.546874c1.851563-.953126 4.121094-.425782 5.367188 1.242187 1.242188 1.667969 1.105469 3.992187-.332031 5.496094l-23.382813 22.101562 29.355469-17.066406c1.957031-1.316406 4.609375-.800781 5.929687 1.152344 1.320313 1.957031.804688 4.613281-1.152343 5.933593l-8.53125 6.910157 11.007812-6.058594c1.957031-1.070313 4.402344-.523437 5.714844 1.28125 1.207031 1.84375.839844 4.300781-.851563 5.714844l-12.542968 10.070312 4.179687-2.390625c2.054688-1.171875 4.667969-.488281 5.886719 1.539063 1.152344 2.050781.425781 4.644531-1.621094 5.800781l-49.066406 28.332031c-.609375.484375-1.351562.78125-2.132812.851563zm0 0" fill="#35ba9b" fill-rule="evenodd"/><path d="m457.832031 185.871094c-1.792969.019531-3.40625-1.085938-4.039062-2.765625-.628907-1.683594-.140625-3.578125 1.222656-4.742188l11.863281-10.324219-15.019531 8.53125c-1.871094 1.046876-4.222656.574219-5.546875-1.109374-1.277344-1.738282-1.058594-4.152344.511719-5.632813l23.125-22.355469-29.355469 17.066406c-1.914062 1-4.277344.40625-5.496094-1.378906s-.910156-4.199218.71875-5.617187l2.390625-1.878907-3.839843 2.21875c-1.90625 1.117188-4.347657.601563-5.632813-1.195312-1.289063-1.792969-.992187-4.273438.683594-5.71875l22.695312-19.625c-.324219-.25-.585937-.570312-.765625-.9375-.582031-.96875-.75-2.132812-.460937-3.226562.289062-1.09375 1.011719-2.023438 1.996093-2.578126l20.566407-11.859374c1.902343-1.128907 4.355469-.613282 5.640625 1.1875 1.289062 1.796874.988281 4.285156-.691406 5.722656l-10.667969 9.386718 21.761719-12.628906c1.96875-1.09375 4.453124-.503906 5.714843 1.367188 1.273438 1.847656.859375 4.371094-.9375 5.714844l-2.390625 1.878906 4.523438-2.644532c1.863281-1.085937 4.246094-.609374 5.546875 1.109376 1.300781 1.714843 1.117187 4.128906-.425781 5.628906l-23.808594 22.273437 23.125-13.3125c1.878906-1.109375 4.292968-.589843 5.546875 1.195313 1.265625 1.785156 1.011719 4.234375-.597657 5.71875l-12.371093 10.75c1.882812-.605469 3.925781.222656 4.863281 1.964844.582031.96875.75 2.132812.457031 3.226562-.289062 1.089844-1.007812 2.019531-1.992187 2.574219l-37.121094 21.417969c-.542969.339843-1.15625.542968-1.792969.597656zm0 0" fill="#35ba9b" fill-rule="evenodd"/><path d="m202.6875 408.335938c-1.261719.015624-2.457031-.550782-3.246094-1.535157-1.363281-1.597656-1.363281-3.949219 0-5.546875l13.738282-15.445312-14.503907 8.53125c-1.777343 1.0625-4.0625.664062-5.375-.9375-1.320312-1.582032-1.320312-3.878906 0-5.460938l20.5625-24.917968c-1.164062-2.027344-.480469-4.617188 1.535157-5.800782l6.574218-3.757812c1.769532-1.097656 4.082032-.695313 5.375.941406 1.316406 1.582031 1.316406 3.878906 0 5.460938l-12.628906 15.445312 17.917969-10.324219c1.816406-1.09375 4.164062-.652343 5.460937 1.023438 1.332032 1.609375 1.332032 3.9375 0 5.546875l-13.992187 15.359375 19.199219-11.007813c2.027343-1.167968 4.617187-.480468 5.800781 1.535156 1.175781 2.054688.492187 4.667969-1.535157 5.886719l-42.667968 24.578125c-.6875.335938-1.453125.480469-2.214844.425782zm0 0" fill="#457393" fill-rule="evenodd"/><g fill="#262626"><path d="m2.238281 95.929688c-5.035156 17.835937 0 43.863281 0 62.378906v211.371094c0 19.03125-3.328125 41.128906 0 59.734374 3.839844 22.355469 17.917969 22.015626 37.800781 22.015626h13.3125c0 23.808593-5.375 45.054687 22.015626 50.601562 23.554687 4.695312 52.90625 0 76.800781 0 72.191406 0 145.066406 2.988281 217.089843 0 44.117188-1.875 37.714844-30.632812 37.714844-67.839844v-185.941406l56.320313-52.222656c4.414062 3.984375 8.339843 8.484375 11.691406 13.398437 5.71875 9.128907-1.792969 13.054688-7.851563 18.6875l-36.949218 34.132813c-5.035156 4.691406 7.167968 3.753906 9.730468 1.363281 14.25-13.226563 28.925782-26.109375 42.664063-39.679687 5.71875-5.632813 9.898437-10.324219 4.863281-18.261719-4.941406-6.425781-10.453125-12.398438-16.46875-17.832031 9.558594-8.535157 19.457032-17.578126 28.84375-26.710938 13.398438-13.140625 13.566406-35.5-4.609375-44.800781-26.367187-13.394531-49.917969 14.59375-67.582031 32-1.222656.398437-2.355469 1.035156-3.328125 1.878906l-17.066406 15.871094c0-29.011719 1.960937-58.539063 0-87.296875-2.21875-30.632813-26.539063-27.730469-50.773438-27.136719 1.109375-16.808594 3.496094-38.484375-9.8125-47.015625-10.839843-7.082031-34.136719-2.902344-45.65625-2.902344-64.253906 0-129.363281-3.414062-193.449219 0-2.640624.191406-5.261718.5625-7.851562 1.109375-1.449219-3.839843-8.53125-1.878906-11.09375.425781l-7.847656 7.851563c-16.226563 12.277344-30.71875 26.6875-43.09375 42.835937l-34.132813 34.132813c-2.136719 2.050781-1.539062 3.585937 0 4.4375-.53125 1.097656-.960937 2.238281-1.28125 3.414063zm80.128907-16.382813c-5.71875 7.421875-5.71875 6.144531-14.253907 6.144531h-48.722656l68.265625-68.265625v21.84375c-.171875 13.566407 3.585938 29.609375-5.289062 40.277344zm312.402343 398.589844c-4.351562 23.042969-12.371093 18.859375-32.167969 18.859375h-190.636718c-25.085938 0-52.308594 3.074218-76.800782 0-28.242187-3.414063-29.097656-20.394532-29.097656-45.480469h68.265625c53.675781.679687 107.351563 1.449219 160.855469 0h4.351562c12.375 0 34.132813 3.496094 45.484376-4.011719 9.386718-6.144531 11.6875-17.578125 11.945312-29.441406 5.546875-38.65625-.769531-83.453125-1.023438-122.28125l38.824219-36.011719v140.203125c0 24.492188 4.4375 54.015625 0 78.164063zm8.535157-238.503907-100.351563 92.925782c-7.59375-8.53125-15.277344-16.554688-22.957031-24.746094-1.003906-1.46875-2.210938-2.789062-3.582032-3.925781l-1.535156-1.621094 1.023438-2.046875c6.65625-16.46875 39.253906-36.523438 52.222656-48.46875l24.578125-22.871094c1.253906-.496094 2.289063-1.4375 2.898437-2.644531l48.300782-44.886719c1.257812-.496094 2.289062-1.4375 2.902344-2.644531l21.503906-19.96875 2.21875 2.304687 18.515625 19.882813c.683593.855469 1.449219 1.621094 2.046875 2.476563 1.148437 1.851562 2.691406 3.425781 4.523437 4.605468l.769531.855469c-.4375.734375-.808593 1.503906-1.109374 2.304687-6.65625 16.46875-39.253907 36.4375-52.226563 48.46875zm-181.589844 123.390626 16.296875 17.578124c-5.023438 4.535157-10.484375 8.5625-16.296875 12.03125-3.5 1.988282-7.121094 3.753907-10.835938 5.292969-2.050781.851563-4.097656 1.621094-6.230468 2.304688-4.011719-2.476563-4.695313-5.546875-2.046876-9.046875 4.539063-10.507813 11.023438-20.058594 19.113282-28.160156zm25.601562 10.410156-17.066406-18.941406 36.4375-43.523438 27.5625 29.699219zm191.316406-225.621094c7.191407-5.9375 14.03125-12.292969 20.480469-19.027344 8.53125-8.535156 19.113281-15.019531 30.632813-4.183594 4.890625 4.714844 7.65625 11.214844 7.65625 18.007813 0 6.789063-2.765625 13.292969-7.65625 18.003906-7.335938 7.59375-15.359375 14.675781-23.296875 21.761719l-29.863281-32.257812c.609374-.828126 1.296874-1.597657 2.046874-2.304688zm-66.21875-87.636719c21.246094 3.585938 22.273438 14.164063 22.273438 32.257813v85.332031l-38.742188 35.925781v-59.734375c0-28.160156 6.824219-65.449219 0-92.929687v-1.789063c5.507813-.222656 11.023438.09375 16.46875.9375zm-119.46875-52.394531c20.566407 0 54.273438-6.742188 74.15625 0 19.882813 6.742188 18.347657 28.5 17.066407 47.359375-.082031.394531-.082031.800781 0 1.195313v168.703124l-81.492188 75.605469-14.421875 16.300781h-186.28125c-4.523437 0-13.144531 6.824219-4.78125 6.824219h185.34375l-24.234375 28.929688-.851562.597656c-8.953125 8.101563-16.558594 17.578125-22.527344 28.074219-2.574219 4.082031-4.554687 8.503906-5.890625 13.140625h-74.238281c-2.816407 0-14.082031 5.289062-8.023438 5.289062h82.007813c.402344 2.753907 1.875 5.238281 4.09375 6.914063 8.109375 6.3125 20.140625 0 28.074218-3.667969 10.882813-5.421875 20.894532-12.4375 29.699219-20.824219l54.183594-38.996094 1.027344-.9375 36.777343-34.132812v100.179688c1.007813 9.441406.253907 18.992187-2.21875 28.160156-8.535156 13.996094-27.050781 8.53125-42.667968 8.53125h-234.324219c-18.773437 0-41.558594 5.292968-48.894531-18.003906-4.355469-13.996094 0-36.523438 0-51.199219v-183.46875c0-25.085938-7.765625-73.214844-.769532-98.132813h38.230469c13.140625 0 30.121094 2.902344 40.789063-6.65625 10.664062-9.554687 7.167968-25.597656 7.167968-37.628906v-42.667969c48.46875-6.996093 104.105469.511719 152.574219.511719zm0 0"/><path d="m57.191406 400.65625h17.066406c3.09375.230469 6.113282-1.039062 8.109376-3.414062 1.449218-2.390626-1.195313-3.582032-3.328126-3.582032h-17.066406c-3.242187-.378906-6.449218.90625-8.535156 3.410156-1.023438 2.390626 1.621094 3.585938 3.753906 3.585938zm0 0" fill-rule="evenodd"/><path d="m57.277344 153.703125h238.933594c5.289062 0 12.886718-8.023437 4.609374-8.023437h-238.933593c-5.292969 0-12.886719 8.023437-4.609375 8.023437zm0 0" fill-rule="evenodd"/><path d="m300.902344 188.773438h-42.664063c-2.304687 0-7.167969.769531-8.535156 3.414062-1.363281 2.644531.855469 3.753906 3.414063 3.753906h42.667968c2.304688 0 7.167969-.769531 8.53125-3.414062 1.367188-2.644532-.851562-3.753906-3.414062-3.753906zm0 0" fill-rule="evenodd"/><path d="m210.621094 195.34375c4.011718 0 13.3125-5.972656 5.121094-5.972656h-153.601563c-4.007813 0-13.3125 5.972656-5.117187 5.972656zm0 0" fill-rule="evenodd"/><path d="m102.761719 230.332031h-42.667969c-7.167969 0-9.386719 9.386719-1.023438 9.386719h42.664063c7.167969 0 9.046875-9.386719 1.027344-9.386719zm0 0" fill-rule="evenodd"/><path d="m147.304688 231.441406c-4.777344 0-13.054688 7.167969-4.777344 7.167969h145.066406c4.777344 0 13.054688-7.167969 4.777344-7.167969zm0 0" fill-rule="evenodd"/><path d="m87.398438 273.59375h-25.597657c-3.300781-.585938-6.640625.816406-8.535156 3.585938-1.109375 2.558593 1.023437 4.605468 3.671875 4.605468h25.597656c3.160156.414063 6.285156-.96875 8.109375-3.582031 1.535157-2.5625-.597656-4.609375-3.246093-4.609375zm0 0" fill-rule="evenodd"/><path d="m130.238281 274.019531c-4.863281 0-13.058593 7.339844-4.78125 7.339844h110.933594c4.867187 0 13.058594-7.339844 4.78125-7.339844zm0 0" fill-rule="evenodd"/><path d="m227.601562 67.085938c3.671876 0 13.484376-5.460938 5.292969-5.460938h-68.265625c-3.671875 0-13.484375 5.460938-5.292968 5.460938zm0 0" fill-rule="evenodd"/></g></svg>