<svg height="512" viewBox="0 0 60 60" width="512" xmlns="http://www.w3.org/2000/svg"><g id="020---Watch-Stock-Market" fill="none"><path id="Path" d="m13.615 45.471c-.2236162-.0003443-.419815-.1491253-.4804793-.3643557-.0606643-.2152305.0289578-.4445722.2194793-.5616443l.592-.364-2.119 1.219c-.2350866.127347-.5287583.0472199-.6665908-.1818764-.1378325-.2290964-.071048-.5260868.1515908-.6741236l10.765-6.765-13.2 7.621c-.23628449.1306359-.5336041.0500916-.67163931-.181948s-.06692381-.5317553.16063931-.677052l2.066-1.262-3.675 2.121c-.23628449.1306359-.5336041.0500916-.67163931-.181948s-.06692381-.5317553.16063931-.677052l3.891-2.376-5.448 3.148c-.23698876.1350471-.53848394.055235-.67761558-.1793791-.13913163-.2346142-.06455352-.5374465.16761558-.6806209l6.641-4.06-7.62 4.398c-.23508655.127347-.52875831.0472199-.66659082-.1818764-.13783251-.2290964-.071048-.5260868.15159082-.6741236l18.2-11.388-18.985 10.953c-.23508655.127347-.52875831.0472199-.66659082-.1818764-.13783251-.2290964-.071048-.5260868.15159082-.6741236l20.815-13.08-20.889 12.061c-.23497088.1292146-.53003872.050062-.66879247-.179405-.13875376-.2294671-.07178369-.5275361.15179247-.675595l21.644-13.62-21.158 12.216c-.2353357.1240261-.52657993.04207-.66269982-.1864836-.13611989-.2285535-.06945065-.5236725.15169982-.6715164l12.247-7.518-11.736 6.776c-.23693016.1419372-.54406281.0649301-.68599999-.172-.14193717-.2369302-.06493016-.5440628.17199999-.686l18.775-11.7-18.261 10.542c-.23508655.127347-.52875831.0472199-.66659082-.1818764-.13783251-.2290964-.071048-.5260868.15159082-.6741236l21.059-13.222-20.544 11.861c-.23638246.1285498-.53210687.0469768-.6691568-.184581-.13704993-.2315579-.06627089-.5300498.1601568-.675419l2.906-1.759-2.397 1.386c-.23638246.1285498-.53210687.0469768-.6691568-.184581-.13704993-.2315579-.06627089-.5300498.1601568-.675419l4.223-2.561-3.714 2.141c-.2372063.1413849-.54411508.0637063-.68549997-.1735s-.06370631-.5441151.17349997-.6855l15.364-9.5-14.852 8.577c-.23546673.1225198-.52563259.0396943-.66094465-.1886614-.13531207-.2283558-.0686058-.5226457.15194465-.6703386l6.492-3.954-5.983 3.454c-.23637787.1427656-.54373439.0668779-.6865-.1695s-.06687787-.5437344.1695-.6865l20.337-12.86-19.82 11.444c-.23520866.125628-.52761522.0445694-.66457305-.1842276-.13695782-.228797-.07026696-.5248112.15157305-.6727724l12.377-7.685-11.864 6.849c-.23460579.1253855-.5263122.0451285-.66376043-.18262s-.07251115-.523243.14776043-.67238l14.323-9.049-13.807 7.97c-.2353357.1240261-.52657993.04207-.66269982-.1864836-.13611989-.2285535-.06945065-.5236725.15169982-.6715164l3.205-1.974-2.694 1.552c-.23571786.1278172-.53029699.0469384-.66770199-.1833224-.13740501-.2302607-.06871185-.5279174.15570199-.6746776l1.494-.921-.983.567c-.23436107.1288923-.5286543.0505227-.66787555-.1778537-.13922124-.2283764-.07406124-.5258734.14787555-.6751463l10.541-6.777-10.021 5.784c-.23541159.1379583-.53795774.061708-.67986369-.1713453-.14190596-.2330532-.07076502-.5368414.15986369-.6826547l7.428-4.771-6.908 3.988c-.23308287.1306613-.52770735.0549657-.66894229-.1718661-.14123493-.2268319-.07915925-.5246238.14094229-.6761339l9.334-6.257-8.806 5.079c-.23184122.125947-.52164614.0500755-.66202867-.1733204-.14038253-.223396-.08302436-.5174256.13102867-.6716796l7.186-4.887-6.655 3.841c-.2296891.1296297-.52056951.0585592-.66460409-.1623819-.14403457-.2209411-.09168688-.5157667.11960409-.6736181l7.03-5.136-6.485 3.743c-.22941602.13348907-.52315653.06445615-.6690977-.15724684-.14594118-.22170298-.0932171-.51880432.1200977-.67675316l4.37-3.251-3.821 2.207c-.22787101.12651469-.51470386.05676597-.6590373-.16025712-.14433343-.2170231-.09774758-.50851535.1070373-.66974288l2.335-1.78-1.783 1.029c-.22590421.12776206-.51200417.06144377-.65865933-.15267798-.14665516-.21412174-.10510389-.50485322.09565933-.66932202l1.068-.858-.429.247c-.21459408.12282353-.486738.07035061-.64028186-.12345476-.15354386-.19380536-.14237308-.47073665.02628186-.65154524l1.144-1.22c-.20657451-.03705257-.36802462-.1991664-.40422939-.40589118-.03620477-.20672477.06054218-.41405799.24222939-.51910882l2.308-1.333c.2143746-.12279557.48629712-.07061406.6399891.12281292.15369198.19342699.14307446.47010737-.0249891.65118708l-.866.923 3.143-1.811c.22590421-.12776206.51200417-.06144377.65865933.15267798.14665516.21412174.10510389.50485322-.09565933.66932202l-1.069.859 2.913-1.681c.22805424-.12904158.51704704-.0601323.66233529.15793143.14528821.21806373.09758261.5113034-.10933529.67206857l-2.337 1.779 4.525-2.609c.229416-.13348907.5231565-.06445615.6690977.15724684.1459412.22170298.0932171.51880432-.1200977.67675316l-4.371 3.247 7.074-4.081c.2296891-.12962966.5205695-.0585592.6646041.16238191.1440346.2209411.0916869.51576672-.1196041.67361809l-7.03 5.134 10.346-5.97c.2318412-.125947.5216461-.05007548.6620287.17332045.1403825.22339593.0830243.51742555-.1310287.67167955l-7.182 4.883 9.926-5.728c.232368-.12564615.5223842-.0488566.6621282.17531617.1397441.22417276.0809951.51837437-.1341282.67168383l-9.33 6.253 12.311-7.1c.2343611-.12889228.5286543-.05052268.6678755.17785371.1392213.22837639.0740613.52587341-.1478755.67514629l-7.428 4.769 9.74-5.622c.2343611-.12889228.5286543-.05052268.6678755.17785371.1392213.22837639.0740613.52587341-.1478755.67514629l-10.538 6.778 13.225-7.631c.2362075-.13307102.5354329-.05365088.6745599.17904108.1391271.23269196.0674613.53386873-.1615599.67895892l-1.489.917 3.075-1.775c.2357179-.12781718.530297-.04693838.667702.18332235.137405.23026074.0687118.52791741-.155702.67467765l-3.2 1.97 4.9-2.828c.2349709-.1292146.5300387-.05006202.6687925.17940502.1387537.22946704.0717837.52753611-.1517925.67559498l-14.321 9.045 17.153-9.9c.2356087-.12976469.5316571-.04987998.6700067.18079238.1383496.23067235.0694166.52946068-.1560067.67620762l-12.381 7.686 14.334-8.277c.2363779-.14276559.5437344-.06687785.6865.16950001.1427656.23637787.0668779.54373437-.1695.68649999l-20.339 12.86 21.557-12.446c.2358358-.12604535.529101-.04422219.6656159.18571176.1365149.22993394.0679517.52657952-.1556159.67328824l-6.489 3.952 6.552-3.783c.2362075-.13307102.5354329-.05365088.6745599.17904108.1391271.23269196.0674613.53386873-.1615599.67895892l-15.363 9.5 15.128-8.737c.2377586-.14055645.5444435-.06175856.685.17600002.1405564.23775857.0617586.5444435-.176.68499998l-4.241 2.571 3.733-2.154c.2359602-.12440737.5280295-.041678.663696.18799355.1356664.22967154.0671501.52539802-.155696.67200645l-2.905 1.76 2.4-1.384c.2350866-.12734701.5287583-.04721993.6665908.18187644.1378325.22909636.071048.52608673-.1515908.67412356l-21.058 13.219 20.541-11.859c.2356087-.12976469.5316571-.04987998.6700067.18079237.1383496.23067236.0694166.52946073-.1560067.67620763l-18.783 11.705 18.27-10.547c.2362845-.1306359.5336041-.0500916.6716393.181948s.0669238.5317553-.1606393.677052l-12.227 7.5 11.716-6.759c.2346058-.1253855.5263122-.0451285.6637604.18262.1374483.2277485.0725112.523243-.1477604.67238l-21.651 13.623 21.136-12.2c.2350866-.127347.5287583-.0472199.6665908.1818764.1378325.2290964.071048.5260868-.1515908.6741236l-20.807 13.079 20.293-11.716c.2350866-.127347.5287583-.0472199.6665908.1818764.1378325.2290964.071048.5260868-.1515908.6741236l-18.206 11.394 17.692-10.214c.2358358-.1260453.529101-.0442222.6656159.1857118.1365149.2299339.0679517.5265795-.1556159.6732882l-6.644 4.063 6.134-3.541c.2358358-.1260453.529101-.0442222.6656159.1857118.1365149.2299339.0679517.5265795-.1556159.6732882l-3.873 2.366 3.364-1.942c.2369888-.1350471.5384839-.055235.6776156.1793791.1391316.2346142.0645535.5374465-.1676156.6806209l-2.052 1.253 1.542-.889c.2350866-.127347.5287583-.0472199.6665908.1818764.1378325.2290964.071048.5260868-.1515908.6741236l-10.769 6.768 10.255-5.921c.2353357-.1240261.5265799-.04207.6626998.1864836.1361199.2285535.0694507.5236725-.1516998.6715164l-.593.366.082-.047c.2346058-.1253855.5263122-.0451285.6637604.18262.1374483.2277485.0725112.523243-.1477604.67238l-7.418 4.686 6.9-3.985c.2340027-.1389988.5362016-.0652981.6799386.1658244s.0762078.5347601-.1519386.6831756l-12.13 8.111 10.298-5.947c.2335451-.1328438.5303244-.0573638.6720248.1709163s.0776546.5277351-.1450248.6780837l-7.287 4.851 2.515-1.451c.2295527-.1314921.521805-.0614183.6667704.1598726.1449654.2212908.0924688.5172061-.1197704.6751274l-5.4 3.982.094-.053c.2241703-.1280952.5090066-.0644456.6573283.1468868.1483216.2113324.1113468.5008421-.0853283.6681132l-3.243 2.731c.1343462.2385357.0518814.540758-.185.678l-2.013 1.163c-.2241703.1280952-.5090066.0644456-.6573283-.1468868-.1483216-.2113324-.1113468-.5008421.0853283-.6681132l1.041-.876-2.931 1.691c-.2295527.1314921-.521805.0614183-.6667704-.1598726-.1449654-.2212908-.0924688-.5172061.1197704-.6751274l5.4-3.982-8.34 4.817c-.2330829.1306613-.5277074.0549657-.6689423-.1718661-.1412349-.2268319-.0791592-.5246238.1409423-.6761339l7.282-4.852-9.873 5.7c-.2330829.1306613-.5277074.0549657-.6689423-.1718661-.1412349-.2268319-.0791592-.5246238.1409423-.6761339l12.132-8.113-15.523 8.961c-.2346058.1253855-.5263122.0451285-.6637604-.18262-.1374483-.2277485-.0725112-.523243.1477604-.67238l7.405-4.678-9.586 5.533c-.0756184.0452887-.1618652.0697828-.25.071z" fill="#cad0d7"/><path id="Path" d="m42.476 56.417c-.2152152 0-.4062846-.137715-.4743416-.3418861-.0680571-.2041711.0021694-.4289848.1743416-.5581139l6.165-4.59-8.568 4.946c-.2329673.1327691-.5291919.0581284-.6714287-.1691822-.1422368-.2273105-.0798406-.5263539.1414287-.6778178l4.884-3.312-6.149 3.55c-.2328603.1351428-.5309189.0616362-.6742423-.1662803-.1433233-.2279164-.080443-.5283964.1422423-.6797197l7.114-4.848-8.273 4.776c-.2322938.1351768-.5298928.0625367-.6737842-.164462-.1438914-.2269988-.0825928-.5271392.1387842-.679538l9.781-6.79-10.941 6.315c-.233204.1287421-.5263939.0520483-.6666872-.1743946-.1402933-.226443-.0784231-.5231151.1406872-.6746054l6.95-4.588-7.5 4.33c-.2355494.1444224-.5435775.0705494-.688-.165-.1444224-.2355495-.0705494-.5435775.165-.688l5.269-3.417-5.6 3.235c-.2348642.1312813-.531504.0531604-.6712412-.1767732-.1397372-.2299337-.0724576-.5292187.1522412-.6772268l3.613-2.316-3.708 2.14c-.2343611.1288923-.5286543.0505227-.6678755-.1778537-.1392213-.2283764-.0740613-.5258734.1478755-.6751463l2.972-1.902-3.007 1.735c-.2354379.13455-.5352149.0569022-.6757281-.1750261-.1405133-.2319283-.0705395-.5335888.1577281-.6799739l1.832-1.164-1.715.99c-.1529097.0925318-.3435692.0964583-.5001589.0103006-.1565897-.0861578-.2553199-.2493105-.259-.428-.00368-.1786896.0882492-.3457688.2411589-.4383006l.7-.442-.5.286c-.2335451.1328438-.5303244.0573638-.6720248-.1709163s-.0776546-.5277351.1450248-.6780837l7.645-5.107-7.442 4.3c-.2342478.1308833-.5300435.0535271-.6702262-.1752769s-.074765-.527467.1482262-.6767231l3.544-2.3-3.157 1.822c-.2340569.1357068-.5336008.0606207-.6759704-.1694442s-.0759129-.5316408.1499704-.6805558l4.681-3.1-4.07 2.349c-.2309306.1317312-.5245674.0597083-.6683337-.1639283-.1437664-.2236366-.0873821-.520673.1283337-.6760717l7.444-5.311-6.439 3.716c-.2293391.1285228-.5190351.0574922-.6629121-.1625395s-.0927858-.5139004.1169121-.6724605l5.261-3.855-3.628 2.094c-.2241703.1280952-.5090066.0644456-.6573283-.1468868-.1483216-.2113324-.1113468-.5008421.0853283-.6681132l3.152-2.661c-.2156169-.0219965-.3925111-.1804032-.4380792-.3922948-.045568-.2118916.0505672-.4290143.2380792-.5377052l4.168-2.401c.2241703-.1280952.5090066-.0644456.6573283.1468868.1483216.2113324.1113468.5008421-.0853283.6681132l-2.74 2.311 6.7-3.869c.2299138-.1328235.5235501-.0627731.6687427.1595365s.0912979.5193359-.1227427.6764635l-5.262 3.855 7.484-4.317c.2309306-.1317312.5245674-.0597083.6683337.1639283.1437664.2236366.0873821.520673-.1283337.6760717l-7.44 5.308 9.253-5.34c.2335451-.1328438.5303244-.0573638.6720248.1709163s.0776546.5277351-.1450248.6780837l-4.68 3.093 5.53-3.192c.2337734-.1287456.5274505-.051198.667188.1761759.1397374.2273739.07627.5244122-.144188.6748241l-3.535 2.3 4.11-2.373c.2335451-.1328438.5303244-.0573638.6720248.1709163s.0776546.5277351-.1450248.6780837l-7.653 5.113 8.438-4.871c.2354379-.13455.5352149-.0569022.6757281.1750261.1405133.2319283.0705395.5335888-.1577281.6799739l-.68.43.828-.478c.2361017-.1433179.5436821-.0681017.687.168.1433178.2361017.0681017.5436821-.168.687l-1.85 1.176 2.037-1.176c.2343611-.1288923.5286543-.0505227.6678755.1778537.1392213.2283764.0740613.5258734-.1478755.6751463l-2.973 1.9 3.055-1.763c.2354116-.1379583.5379577-.061708.6798637.1713453.1419059.2330532.070765.5368414-.1598637.6826547l-3.6 2.3 3.647-2.1c.2347034-.1364868.5354374-.0607325.6774741.1706544.1420368.2313868.073465.5338394-.1544741.6813456l-5.27 3.415 5.234-3.021c.2329061-.1254293.5232086-.0477402.6623373.1772508s.0789338.5194187-.1373373.6717492l-6.955 4.592 6.886-3.974c.23158-.1294027.5239091-.0554223.6660571.1685604.142148.2239828.0846277.5199909-.1310571.6744396l-9.779 6.79 9.483-5.474c.2325262-.1307666.5267591-.0559509.6685809.1700024s.0812744.5234503-.1375809.6759976l-7.113 4.849 6.5-3.752c.2329673-.1327691.5291919-.0581284.6714287.1691822.1422368.2273105.0798406.5263539-.1414287.6778178l-4.879 3.305 4.041-2.333c.229416-.1334891.5231565-.0644561.6690977.1572468.1459412.221703.0932171.5188044-.1200977.6767532l-6.167 4.599 4.52-2.609c.2230711-.126215.5054574-.0633143.6538691.1456472.1484117.2089616.1147824.4963073-.0778691.6653528l-3.361 2.9c.1876112-.0074288.3643456.0880308.461.249.1380647.2391402.0561341.5449248-.183.683l-4.168 2.397c-.2234669.1287231-.5081764.0663691-.6573848-.1439733-.1492085-.2103425-.1139612-.4996608.0813848-.6680267l3.145-2.71-7.343 4.241c-.0758978.0441549-.1621931.067282-.25.067z" fill="#66d4f1"/><path id="Path" d="m31.866 47.491c-.2179249-.0002653-.4105775-.141646-.4761907-.349459-.0656131-.2078131.0109278-.4341868.1891907-.559541l5.707-3.995-6.621 3.822c-.2310609.1298083-.523268.0567757-.6660866-.1664779-.1428185-.2232536-.086628-.5191613.1280866-.6745221l7.615-5.379-7.382 4.262c-.2319831.1309881-.5259285.0570795-.6683699-.1680527-.1424414-.2251321-.0833463-.52241.1343699-.6759473l6.848-4.742-6.3 3.637c-.2335451.1328438-.5303244.0573638-.6720248-.1709163s-.0776546-.5277351.1450248-.6780837l4.153-2.774-3.462 2c-.151302.0961044-.3423819.10419-.5012618.0212108-.1588798-.0829791-.2614221-.2444164-.269-.4235-.0075779-.1790835.0809598-.3486064.2322618-.4447108l4.458-3.067-3.316 1.914c-.2327682.1379387-.5330334.0656905-.677577-.1630348s-.0809181-.5309351.143577-.6819652l1.825-1.256-.384.222c-.2247363.1292165-.510959.0652384-.6592891-.1473681-.1483301-.2126064-.1095663-.5033193.0892891-.6696319l3-2.489c-.2024234-.0430877-.3573803-.2064309-.3897491-.4108423-.0323689-.2044115.0645412-.4076381.2437491-.5111577l4.167-2.403c.225024-.1298327.5119893-.0657046.6603401.147566s.108657.5046224-.0913401.670434l-2.411 2 6.2-3.582c.2327682-.1379387.5330334-.0656905.677577.1630348s.0809181.5309351-.143577.6819652l-1.827 1.257 3.335-1.924c.2327682-.1379387.5330334-.0656905.677577.1630348s.0809181.5309351-.143577.6819652l-4.454 3.063 5.74-3.311c.2335451-.1328438.5303244-.0573638.6720248.1709163s.0776546.5277351-.1450248.6780837l-4.147 2.771 3.62-2.09c.2322938-.1351768.5298928-.0625367.6737842.164462.1438914.2269988.0825928.5271392-.1387842.679538l-6.849 4.746 6.314-3.645c.2304519-.1256553.5188365-.0517188.6604036.1693153.1415671.2210342.088116.5139083-.1224036.6706847l-7.618 5.379 7.08-4.088c.2314518-.1313128.5252013-.0583356.6682918.1660259.1430904.2243616.0853808.5214879-.1312918.6759741l-5.7 3.994 5.169-2.984c.2274132-.1273482.5145055-.05864.6596263.1578646.1451209.2165046.0995839.5081708-.1046263.6701354l-5.417 4.2 4.862-2.806c.229416-.1334891.5231565-.0644561.6690977.1572468.1459412.221703.0932171.5188044-.1200977.6767532l-1.851 1.378 1.3-.751c.2164748-.1176434.486383-.0600602.6359981.1356862.149615.1957464.134338.4713056-.0359981.6493138l-2.346 2.357 1.549-.893c.1549945-.0985297.351531-.1041539.5119064-.0146489.1603754.0895049.2587712.2597296.2562855.4433739s-.1054527.3511436-.2681919.436275l-4.805 2.765c-.216926.1250668-.492915.0703862-.6457677-.1279434-.1528528-.1983296-.1354294-.4791432.0407677-.6570566l2.346-2.357-5.456 3.149c-.229416.1334891-.5231565.0644561-.6690977-.1572468-.1459412-.221703-.0932171-.5188044.1200977-.6767532l1.848-1.373-3.837 2.215c-.2275891.1298897-.5168511.062032-.6629348-.1555172-.1460838-.2175492-.0994243-.5109773.1069348-.6724828l5.416-4.194-8.713 5.03c-.0757424.0446404-.1620816.0681246-.25.068z" fill="#3aadd9"/><path id="Path" d="m10.342 40.5c-.202768.000365-.38567933-.1217666-.46305971-.3091894-.07738038-.1874227-.03390616-.4030211.11005971-.5458106l.908-.9-.617.357c-.2160105.1246636-.49085765.0710795-.64421986-.1255968s-.13833616-.4762947.03521986-.6554032l1.473-1.521-.865.5c-.216157.1232114-.49001831.0687436-.64257948-.1278015-.15256118-.196545-.13739754-.4753583.03557948-.6541985l1.411-1.445-.8.464c-.2137214.1227494-.48501248.071451-.63915946-.1208586-.15414697-.1923095-.14516585-.4682619.02115946-.6501414l1.732-1.882-1.114.642c-.2226556.1273746-.50558289.0655928-.65487411-.1430023-.14929122-.2085952-.11651109-.4963282.07587411-.6659977l.328-.286c-.20763322-.0007124-.39321928-.1296749-.46629497-.3240251-.07307568-.1943502-.01843209-.413639.13729497-.5509749l.322-.284c-.16701262-.0030804-.32145553-.0893591-.41164205-.2299617-.09018653-.1406026-.10420276-.3169551-.03735795-.4700383l.615-1.388c-.20238446.0262509-.40108057-.0699557-.506-.245-.0666188-.1149293-.08476389-.2516448-.05043057-.3799727.03433332-.1283278.11832247-.2377179.23343057-.3040273l1.128-.65c.1873331-.1078592.4227667-.0831198.5835878.0613235.1608212.1444433.2106086.3758784.1234122.5736765l-.591 1.334 2.488-1.446c.2223898-.1269737.5047663-.065395.6540994.1426415.1493332.2080365.1173442.4952735-.0740994.6653585l-.244.214c.1731876-.010704.3398592.0677296.442.208.1500065.2095019.1162385.4986944-.078.668l-.326.285c.1982356.0001787.3776453.1174545.4573518.2989601.0797065.1815055.0446556.3929598-.0893518.5390399l-1.732 1.883 1.12-.646c.2162377-.1247517.4913592-.0708905.6445905.1261931.1532312.1970836.1376138.4769924-.0365905.6558069l-1.412 1.445.809-.467c.2160865-.1262428.4922254-.073282.6462727.123949.1540472.197231.1385487.4779753-.0362727.657051l-1.472 1.52.867-.5c.2174475-.1222843.4917629-.0655717.6428937.1329134.1511308.1984852.1328285.4780031-.0428937.6550866l-.906.9.307-.178c.1965747-.1141598.4454174-.0813508.6056858.0798576s.1916216.4102386.0763142.6061424l-.37.63c.2143283.0248021.3885732.1842892.4321969.3955916s-.0532143.426755-.2401969.5344084l-1.228.71c-.1963607.1134973-.4445199.0806114-.6045408-.0801134s-.1918173-.409026-.0774592-.6048866l.269-.46-2.015 1.164c-.0748272.0442145-.1600866.0676868-.247.068z" fill="#89c053"/><path id="Path" d="m15.665 40.487c-.1367889.0000261-.2676157-.0559909-.362-.155-.1593106-.1672814-.1832866-.4219221-.058-.616l1.2-1.85-2.165 1.248c-.2218647.1262356-.5031961.0650788-.6526317-.1418714-.1494355-.2069502-.1189881-.4932377.0706317-.6641286l.415-.37c-.2203338.0367191-.4382948-.0771614-.5339874-.2789985s-.0459002-.4426617.1219874-.5900015l.35-.306c-.1647707.0030166-.3215349-.0709288-.424-.2-.1517625-.2045617-.1254929-.4905129.061-.664l.718-.666-.127.073c-.212437.1228152-.482602.0733206-.6377036-.116828-.1551017-.1901487-.1492961-.4647486.0137036-.648172l1.9-2.143-1.278.737c-.2159307.1231341-.4895276.0689462-.642223-.1271971-.1526954-.1961432-.1381159-.4746734.034223-.6538029l1.431-1.472-.821.473c-.2127921.1213918-.482198.0707276-.6363549-.1196723-.1541568-.1903998-.1476562-.4644512.0153549-.6473277l1.727-1.914-1.106.638c-.1863091.1075747-.4205437.083914-.5815757-.0587468s-.212756-.3723351-.1284243-.5702532l.644-1.512c-.2408647.0498845-.4822347-.0828297-.5691483-.3129391s.006449-.489254.2201483-.6110609l1.128-.65c.1865025-.1080132.4212303-.0843648.5824392.0586797.1612088.1430445.2126169.3732913.1275608.5713203l-.626 1.47 2.551-1.472c.2127921-.1213918.482198-.0707276.6363549.1196723.1541568.1903998.1476562.4644512-.0153549.6473277l-1.727 1.914 1.2-.693c.2159307-.1231341.4895276-.0689462.642223.1271971.1526954.1961432.1381159.4746734-.034223.6538029l-1.429 1.467.824-.475c.212437-.1228152.482602-.0733206.6377036.116828.1551017.1901487.1492961.4647486-.0137036.648172l-1.9 2.145 1.285-.741c.2206356-.1300292.503851-.072325.6560244.1336626s.1241014.4936554-.0650244.6663374l-.717.666.129-.074c.222272-.1250569.5030453-.0627806.6515981.1445262.1485528.2073069.1172703.4931974-.0725981.6634738l-.347.3c.1658153.0029882.3219446.0786762.427.207.1503629.2083248.1183693.4966994-.074.667l-.414.368c.164445-.026969.3316254.0287578.447.149.1593106.1672814.1832866.4219221.058.616l-1.2 1.851.533-.308c.1549945-.0985297.351531-.1041539.5119064-.0146489.1603754.0895049.2587712.2597296.2562855.4433739s-.1054527.3511436-.2681919.436275l-2.33 1.35c-.0758031.044382-.1621615.067526-.25.067z" fill="#fab153"/><path id="Path" d="m30.03 39.559c-.192963-.0001868-.3685959-.1113936-.4512834-.2857424-.0826875-.1743489-.0576693-.3807174.0642834-.5302576l1.1-1.35-.462.265c-.2180963.1257781-.4956948.0697764-.6479698-.1307191-.1522751-.2004955-.1317242-.4829397.0479698-.6592809l1.129-1.108-.531.3c-.220521.127688-.5017903.0691082-.653-.136-.1513646-.2057318-.1233373-.4924722.065-.665l.566-.517c-.2135857.1064735-.4726447.0471589-.6186241-.1416411-.1459794-.1888001-.1381803-.4544483.0186241-.6343589l1.91-2.159-1.285.741c-.2190652.1318893-.5023394.0772423-.6566242-.1266708s-.1298566-.4913741.0566242-.6663292l.968-.931-.372.215c-.2167987.1191224-.4881174.0618073-.638215-.1348206s-.1338516-.473458.038215-.6511794l1.175-1.174-.572.33c-.1852487.1065815-.417758.0836357-.5785995-.0571006s-.2144482-.3681421-.1334005-.5658994l.668-1.624c-.2414528.0590617-.4896284-.0682174-.5825514-.2987669-.0929229-.2305494-.0023729-.494352.2125514-.6192331l1.129-.651c.1852487-.1065815.417758-.0836357.5785995.0571006s.2144482.3681421.1334005.5658994l-.655 1.593 2.6-1.5c.217123-.1206668.4899085-.063641.6405105.1338986s.1333491.4756874-.0405105.6531014l-1.176 1.174.643-.371c.2190652-.1318893.5023394-.0772423.6566242.1266708s.1298566.4913741-.0566242.6663292l-.967.93.372-.215c.2122255-.1228453.4822194-.073656.6374856.1161414s.1499782.4641845-.0124856.6478586l-1.91 2.159 1.286-.742c.2203354-.1244491.4989119-.0646624.6487785.1392378.1498666.2039001.1237692.4876223-.0607785.6607622l-.57.519c.2197759-.1165123.4917776-.0537473.6382794.1472845.1465019.2010317.1229447.4791853-.0552794.6527155l-1.427 1.4c.1237472.0165235.2371931.0776919.319.172.1564564.1836971.1594011.4529248.007.64l-1.642 2.019c.1326564.1015813.2058066.262711.1949591.4294407-.0108475.1667298-.1042589.3170228-.2489591.4005593l-1.252.723c-.0751386.0443412-.1607537.0678163-.248.068z" fill="#35ba9b"/><path id="Path" d="m27.57 40.488c-.189386 0-.3625176-.1070012-.4472136-.2763932s-.066418-.372098.0472136-.5236068l.9-1.172-1.79 1.03c-.2119487.1215228-.4806809.0720808-.6354985-.1169206-.1548177-.1890014-.1503782-.4622079.0104985-.6460794l1.945-2.213-1.323.763c-.2180963.1257781-.4956948.0697764-.6479698-.1307191-.1522751-.2004955-.1317242-.4829397.0479698-.6592809l1.122-1.1-.524.3c-.215258.1229472-.4881008.0696094-.6412115-.1253499-.1531108-.1949593-.1402554-.4726694.0302115-.6526501l1.545-1.617-.934.538c-.2130757.122757-.4837819.0723545-.6383991-.1188629-.1546171-.1912173-.1472392-.4664769.0173991-.6491371l1.826-2.018-1.2.694c-.2229237.1277986-.5064223.0658196-.6556784-.1433455-.1492561-.2091652-.11567-.4974096.0776784-.6666545l.323-.282c-.1573787 0-.3055728-.0740971-.4-.2-.1515103-.2048074-.1248078-.4907826.062-.664l.657-.607-.067.039c-.2130757.122757-.4837819.0723545-.6383991-.1188629-.1546171-.1912173-.1472392-.4664769.0173991-.6491371l1.7-1.888-1.083.625c-.1869906.1077568-.4220181.083375-.5829074-.0604709-.1608892-.1438459-.2113264-.374689-.1250926-.5725291l.626-1.433c-.239293.0414274-.4737516-.0950818-.5558533-.3236352-.0821018-.2285535.0118976-.4830524.2228533-.6033648l1.128-.65c.1873146-.1060353.4212085-.0819639.583.06.1610698.1439442.2114859.3750515.125.573l-.6 1.384 2.513-1.451c.2130757-.122757.4837819-.0723545.6383991.1188629.1546171.1912173.1472392.4664769-.0173991.6491371l-1.7 1.887 1.2-.69c.220439-.1262233.5004889-.0670999.6510942.1374575.1506054.2045574.1238973.4895314-.0620942.6625425l-.658.608.072-.041c.2229237-.1277986.5064223-.0658196.6556784.1433455.1492561.2091652.11567.4974096-.0776784.6666545l-.322.28c.1499074.000373.2915357.068796.385.186.1546502.1910961.1474424.4662623-.017.649l-1.823 2.018 1.2-.7c.2156332-.1260678.4912237-.0736612.6455329.1227553.1543092.1964164.1399934.4765801-.0335329.6562447l-1.544 1.623.937-.541c.2180963-.1257781.4956948-.0697764.6479698.1307191.1522751.2004955.1317242.4829397-.0479698.6592809l-1.12 1.095.523-.3c.211671-.1202462.4791807-.0705672.6335655.1176588.1543849.1882261.1507683.4602856-.0085655.6443412l-1.948 2.214 1.328-.765c.2062518-.1182441.4672436-.0749051.6242099.1036531.1569663.1785583.1664952.4429523.0227901.6323469l-.9 1.171.253-.146c.23893-.1358451.5427102-.0533708.6801373.1846528.137427.2380237.0569695.5423443-.1801373.6813472l-2.427 1.4c-.0752182.0440363-.1608395.0671679-.248.067z" fill="#d56fac"/><path id="Path" d="m19.915 40.485c-.1376337.0007446-.2692866-.0561963-.363-.157-.158867-.1681754-.1816159-.4233764-.055-.617l.916-1.393-2.133 1.232c-.2115954.1229666-.4811022.0747006-.6368709-.1140573-.1557686-.1887578-.1520147-.4625268.0088709-.6469427l2-2.3-1.372.792c-.2125801.1214168-.481811.0710563-.6361309-.1189903-.1543198-.1900467-.1483392-.4638818.0141309-.6470097l1.842-2.05-1.222.7c-.2229237.1277986-.5064223.0658196-.6556784-.1433455-.1492561-.2091652-.11567-.4974096.0776784-.6666545l.323-.282c-.1951307-.0021398-.3711863-.1176075-.4508994-.2957266-.0797131-.178119-.0485161-.3863379.0798994-.5332734l1.955-2.237-1.329.767c-.2208144.1342809-.5075757.0781561-.6614736-.1294633s-.1242133-.4983097.0684736-.6705367l.416-.393c-.1568247.0213102-.314639-.0315409-.427-.143-.1595972-.1610986-.1907929-.4094326-.076-.605l.395-.675c-.1319321-.0325461-.2449349-.1173885-.313-.235-.0666188-.1149293-.0847639-.2516448-.0504306-.3799727.0343334-.1283278.1183225-.2377179.2334306-.3040273l1.128-.65c.1965273-.1132146.4446422-.0799672.60443.0809937.1597877.1609609.1912192.4093125.07657.6050063l-.252.43 1.743-1.006c.2208953-.136633.509623-.0813788.6644625.1271591.1548394.208538.1242214.5009064-.0704625.6728409l-.3.288.267-.153c.2114635-.1203007.4788239-.0709321.63338.1169548s.1514409.4597493-.00738.6440452l-1.955 2.238 1.336-.772c.2229237-.1277986.5064223-.0658196.6556784.1433455.1492561.2091652.11567.4974096-.0776784.6666545l-.323.281c.1969608.0008181.3750906.1171916.4549645.2972316s.0466082.3901981-.0849645.5367684l-1.843 2.049 1.226-.708c.2115954-.1229666.4811022-.0747006.6368709.1140573.1557686.1887578.1520147.4625268-.0088709.6469427l-2 2.3 1.376-.794c.2005172-.1155234.4541079-.0783538.6130377.0898548.1589297.1682086.1816656.4234984.0549623.6171452l-.918 1.399.254-.146c.1549945-.0985297.351531-.1041539.5119064-.0146489.1603754.0895049.2587712.2597296.2562855.4433739s-.1054527.3511436-.2681919.436275l-2.082 1.2c-.0759022.0440324-.1622543.0668294-.25.066z" fill="#9579da"/><path id="Path" d="m24.59 40.48c-.1790724.0000531-.3445006-.0956631-.433701-.2509377-.0892003-.1552747-.0885515-.3463968.001701-.5010623l.446-.76-2.324 1.342c-.2205392.1280792-.5021318.0696485-.6535046-.1356028-.1513729-.2052513-.124009-.4915375.0635046-.6643972l.668-.617-.078.045c-.2148894.1243392-.4884665.0721685-.6425166-.1225268-.1540502-.1946953-.1419081-.4729375.0285166-.6534732l1.634-1.738-1.02.588c-.2207276.1320893-.5056598.0751513-.6586724-.1316224-.1530126-.2067738-.124171-.4959044.0666724-.6683776l.817-.769-.225.129c-.2203354.1244491-.4989119.0646624-.6487785-.1392378-.1498666-.2039001-.1237692-.4876223.0607785-.6607622l.585-.537c-.2137856.1199732-.4830219.0672546-.6357709-.1244889-.152749-.1917434-.143953-.4659515.0207709-.6475111l1.161-1.263-.544.314c-.19691.1135988-.4456681.0800668-.6054709-.081616-.1598027-.1616828-.1904231-.410816-.0745291-.606384l.391-.66c-.1972575-.0501806-.3444088-.2149267-.3720862-.4165764s.0696438-.3999508.2460862-.5014236l1.128-.65c.1969571-.1145529.4464505-.0814625.6067371.0804717s.1908239.4117529.0742629.6075283l-.242.408 1.716-.991c.2137916-.1241908.4862521-.0734756.6410402.1193218.1547881.1927975.1454204.4697794-.0220402.6516782l-1.166 1.265 1.119-.645c.2203354-.1244491.4989119-.0646624.6487785.1392378.1498666.2039001.1237692.4876223-.0607785.6607622l-.588.539c.2207276-.1320893.5056598-.0751513.6586724.1316224.1530126.2067738.124171.4959044-.0666724.6683776l-.811.767.228-.132c.2149606-.1258651.4897809-.0743043.6445002.1209187.1547192.195223.1421401.4745552-.0295002.6550813l-1.632 1.737 1.023-.591c.2205392-.1280792.5021318-.0696485.6535046.1356028.1513729.2052513.124009.4915375-.0635046.6643972l-.668.617.083-.048c.1965747-.1141598.4454174-.0813508.6056858.0798576s.1916216.4102386.0763142.6061424l-.487.83c.2355221-.0280491.4583417.1132338.5334193.3382244s-.018249.4717691-.2234193.5907756l-1.407.812c-.0752186.0428164-.1604537.0649016-.247.064z" fill="#4a88da"/><path id="Path" d="m34.03 33.786c-.2021449-.0004467-.3841339-.1225684-.4611668-.3094605-.0770328-.1868922-.0339526-.4017824.1091668-.5445395l1.232-1.227-.63.363c-.2119487.1215228-.4806809.0720808-.6354985-.1169206-.1548177-.1890014-.1503782-.4622079.0104985-.6460794l1.927-2.183-1.3.751c-.214156.122774-.4858627.0708854-.6397046-.1221662s-.1437736-.4694853.0237046-.6508338l1.668-1.789-1.052.606c-.2203354.1244491-.4989119.0646624-.6487785-.1392378-.1498666-.2039001-.1237692-.4876223.0607785-.6607622l.59-.542c-.2206356.1300292-.503851.072325-.6560244-.1336626s-.1241014-.4936554.0650244-.6663374l.738-.688-.147.084c-.2201191.1211079-.4959248.0600693-.6443868-.1426092s-.1234717-.48405.0583868-.6573908l.516-.469c-.2220725.0852881-.4734869.0023045-.6011555-.1984216s-.0962372-.4636094.0751555-.6285784l.5-.483c-.197359.0640779-.4137855-.0004015-.543897-.1620417s-.1468651-.3868453-.042103-.5659583l.4-.694c-.1348749-.0307458-.2506269-.1167434-.319-.237-.1382327-.2388784-.0567713-.5445824.182-.683l1.129-.651c.1961463-.1128455.4436308-.0798866.6034081.0803592.1597772.1602458.1920112.4078258.0785919.6036408l-.268.459 1.78-1.027c.2190652-.1318893.5023394-.0772423.6566242.1266708s.1298566.4913741-.0566242.6663292l-.472.455.407-.234c.2201191-.1211079.4959248-.0600693.6443868.1426092s.1234717.48405-.0583868.6573908l-.517.471c.2232199-.0850532.4754245-.0003329.6020279.2022325.1266034.2025655.0922399.4663909-.0820279.6297675l-.738.69.15-.086c.2203354-.1244491.4989119-.0646624.6487785.1392378.1498666.2039001.1237692.4876223-.0607785.6607622l-.591.542h.005c.2144477-.1242599.4875608-.0726667.6419004.1212601.1543397.1939268.1433197.4716518-.0259004.6527399l-1.669 1.791 1.056-.609c.2113021-.1251331.4824802-.075673.636.116.1551976.1892853.1505424.4630997-.011.647l-1.926 2.182 1.3-.752c.217123-.1206668.4899085-.063641.6405105.1338986s.1333491.4756874-.0405105.6531014l-1.228 1.221.279-.162c.23893-.1358451.5427102-.0533708.6801373.1846528.137427.2380237.0569695.5423443-.1801373.6813472l-3.6 2.08c-.0755107.0442088-.1615005.0673466-.249.067z" fill="#d94452"/><path id="Path" d="m38.389 42.479c-.1762285.0000978-.3394949-.0925837-.429741-.2439511-.0902462-.1513675-.0941438-.3390656-.010259-.4940489l.763-1.411-3.432 1.982c-.2243015.1303348-.511027.0674761-.6602307-.1447421-.1492038-.2122182-.1113211-.5032983.0872307-.6702579l.7-.59-.124.072c-.2248726.1315945-.5131068.0684479-.6623629-.1451111-.149256-.213559-.1094985-.5059386.0913629-.6718889l.541-.452c-.2216006.1087073-.4893714.0394428-.6304651-.1630829s-.1132894-.4777087.0654651-.6479171l1.94-1.854-1.345.776c-.2154812.1230022-.4885691.0693794-.6415393-.1259712-.1529702-.1953505-.1395447-.4733291.0315393-.6530288l2.486-2.581-1.879 1.083c-.2078536.1182361-.47033.0727469-.6262743-.1085383-.1559442-.1812852-.1616968-.4476121-.0137257-.6354617l1.376-1.724-.736.424c-.2374252.1242009-.5305531.0391619-.6646466-.1928199-.1340935-.2319817-.0614797-.5284321.1646466-.6721801l3.028-1.748c.2078536-.1182361.47033-.0727469.6262743.1085383.1559442.1812852.1616968.4476121.0137257.6354617l-1.376 1.724 2.653-1.531c.2157843-.1245835.4903641-.0712785.6438596.1249944s.1390557.4756061-.0338596.6550056l-2.486 2.58 1.881-1.084c.219385-.1342545.5048344-.0801688.6599003.1250351.1550659.2052038.1291551.4945743-.0599003.6689649l-1.94 1.854 1.349-.779c.2245855-.1309436.5120466-.0679354.6612702.144943.1492235.2128783.1104168.5045939-.0892702.671057l-.541.452c.2263462-.1124557.5010201-.038316.6400393.1727588.1390191.2110748.098662.4927019-.0940393.6562412l-.7.589.126-.072c.1937838-.1121162.438476-.0817508.5989774.074331.1605014.1560817.1976856.399831.0910226.596669l-.763 1.412.079-.046c.1549945-.0985297.351531-.1041539.5119064-.0146489.1603754.0895049.2587712.2597296.2562855.4433739s-.1054527.3511436-.2681919.436275l-1.609.929c-.0760009.0436831-.1623469.0661331-.25.065z" fill="#31a1c4"/><path id="Path" d="m32.436 41.49c-.189386 0-.3625176-.1070012-.4472136-.2763932s-.066418-.372098.0472136-.5236068l1.149-1.567-2.539 1.467c-.2241703.1280952-.5090066.0644456-.6573283-.1468868-.1483216-.2113324-.1113468-.5008421.0853283-.6681132l.659-.557c-.198049-.0119381-.3703023-.1398501-.4389936-.3259884-.0686913-.1861382-.0208232-.3952825.1219936-.5330116l1.423-1.374c-.1677744.0137884-.3316973-.0552908-.439-.185-.1533714-.1949711-.1406022-.4729128.03-.653l2.27-2.407c-.0761825-.2257898.0175638-.4739666.224-.593l.8-.461c.2148145-.122858.4871855-.0700952.640583.1240916.1533976.1941868.1416695.4713733-.027583.6519084l-.837.887.229-.131c.2187434-.1297091.5000021-.0745628.6535686.128145s.1305136.4883932-.0535686.663855l-1.288 1.244.7-.4c.2238916-.1275836.5080784-.0641108.6564103.1466086.148332.2107193.1122202.4996603-.0834103.6673914l-.415.352c.1729792-.0355685.3517887.0239075.469.156.1585049.1759273.1718631.4389175.032.63l-1.158 1.564.5-.29c.1805189-.1041998.4067402-.0854849.5676816.0469634s.2228358.3508411.1553184.5480366l-.2.585c.0678745.0431021.124177.102151.164.172.1373847.2389169.0555349.543953-.183.682l-.506.292c-.1802847.1031433-.4055621.0840872-.5659596-.0478741-.1603974-.1319613-.2225085-.349344-.1560404-.5461259l.067-.2-1.4.81c-.0755069.0443333-.1614404.0678011-.249.068z" fill="#2b95ad"/><g fill="#262626"><path id="Shape" d="m30 47.253c1.8446989 5.3605992 6.8631825 8.9802986 12.532 9.039 3.4164933-.0804183 6.710635-1.2876843 9.37-3.434l6.429 6.429c.367.367 1.741-.177 1.344-.574-2.216-2.216-4.4323333-4.4323333-6.649-6.649-.0439211-.0383215-.0958546-.0663382-.152-.082 2.4771417-2.4085144 3.8680583-5.7210115 3.853-9.176-.1180677-5.6177535-3.7244673-10.5667747-9.036-12.4-.112-.267-.485-.328-.828-.244-.373-.1-.75-.183-1.136-.249v-14.513c0-3.3 1.531-11.549-1.687-13.91-2.497-1.826-7.554-.883-10.362-.883h-19.934c-3.067 0-7.3-.771-10.29.319-3.874 1.413-3.178 5.535-3.178 8.811v19.363c0 3.875-.565 8.251 0 12.1.838 5.717 7.989 4.2 12.163 4.2h17.083c.105751.5944568.2514138 1.1811173.436 1.756.0083997.0344806.0226022.0672815.042.097zm-3.267-7.563v-7.561c0-.421-.067-1.127-.128-1.943.1240462-.1713623.1071815-.4070457-.04-.559-.15-2.291-.151-5.1 1.367-5.109.776-.006 1.182.616 1.383 1.508-.0077247.0864078.0096358.17321.05.25.1361009 1.885191.1026331 3.7787958-.1 5.658v7.756zm-4 0v-9.156h2.538v9.156zm-4 0v-9.456c0-.642.035-1.264.037-1.834 1.013-.065 2.182-.066 2.5.78.0690828.205549.1101196.4194783.122.636-.1117498.1605184-.1044221.3754647.018.528-.014.755-.14 1.593-.14 2.158v7.188zm-2.258 0c-.5 0-1.1.043-1.742.1v-6.9c-.1905478-1.6599059-.2206871-3.3343119-.09-5 .0307845-.0314198.0405385-.0778485.025-.119.157-.677.463-1.164 1.025-1.243 1.032-.146 1.484.565 1.662 1.568-.064.118-.058.223.048.29.0533928 1.4484092.0079541 2.8987735-.136 4.341v6.963zm-5.9.354c.0840769-.0522389.1399665-.1397502.152-.238v-7.575c-.1485116-1.102019-.1485116-2.218981 0-3.321.254-.758.157-.58 1.029-.58h1.5c-.011.543.012 1.139.012 1.772v9.812c-.903.078-1.826.135-2.696.13zm31.957-9.752c.6000307.0045785 1.1989376.0527049 1.792.144.1651392.1136936.3729064.1464215.565.089.4669021.087979.9283363.2028367 1.382.344v6.331c0 2 .482 4.7-.081 6.671-1.043 3.648-6.432 2.628-8.98 2.628h-5.88c-.368429-1.1971634-.5722979-2.4388801-.606-3.691 0-.145.023-.287.031-.431h10.954c.5 0 1.553-.75.582-.75h-1.567v-11.134c.5956825-.1127856 1.1990987-.1799804 1.805-.201zm-8.34 3.815c.029-.009.059-.012.087-.022v7.54h-3.47c.3042302-2.8001236 1.4874698-5.4319565 3.38-7.518zm5.087 7.518h-3.555v-8.925c.6046421-.4621979 1.2530658-.8641134 1.936-1.2.4.094.948-.1 1.044-.453.188-.071.379-.133.572-.2zm-1.989-10.482c-.8729128.4022719-1.7036657.8903392-2.48 1.457-.026.007-.052.011-.077.019v-9.386c0-.5-.251-1.816 0-2.26.5-.879 2.168-.588 2.534.23.309.693 0 2.269 0 3.021v6.833c.0043418.0294542.0120592.0583107.023.086zm-3.976 2.72c-1.0481674 1.0202828-1.9202805 2.2069783-2.581 3.512v-7.975c0-.929.109-1.928.109-2.837h2.425v7.127c.0030336.0603771.0190654.1193879.047.173zm21.962 9.331c.0585873 6.6625085-5.1503945 12.184338-11.805 12.514-5.2241365-.0994415-9.8740926-3.3357036-11.782-8.2h7.25c2.449 0 5.418.475 7.364-1.368 1.877-1.779 1.429-4.55 1.429-6.892v-7.8c4.5251676 2.1831813 7.4407739 6.7227772 7.544 11.746zm-36.423 1.413c-4.154 0-9.286.844-13.365 0-5.061-1.048-3.764-6.907-3.764-10.591v-17.111c0-3.417-.975-8.478 0-11.778 1.5-5.069 6.6-3.734 10.6-3.734h17.233c3.084 0 8.042-.978 11.012 0 3.395 1.119 3.707 3.219 3.707 6.047v22.308c-.268-.016-.533-.04-.805-.04-1.0312485.0299132-2.0572637.1585-3.064.384-.3289706.0110772-.6519451.0911394-.948.235-.246.071-.485.157-.726.24v-8.444c0-.84.16-1.784-.618-2.352-.9946639-.4173727-2.0947204-.5142001-3.147-.277-2.468.463-1.7 3.651-1.7 5.5v.45h-2.508c-.208-1.172-.867-2-2.692-1.958-3.591.076-2.8 2.973-2.8 5.749v.235h-2.508c.0814168-.6272155-.157491-1.2534094-.636-1.667-.811-.559-2.317-.342-3.394-.274-.133-1.24-.685-2.074-2.664-2.049-2.054.027-2.621.868-2.766 2.152-1.0314486-.1537207-2.0848894-.0506779-3.067.3-1.063.532-.957 1.39-.957 2.409v9.626c-.42343274-.0415569-.84038609-.1335417-1.242-.274-1.567-.6-1.31-1.344-1.31-2.9v-30.987c0-.263-1.448-.049-1.448.388v25.025c0 2.151-.493 4.954 0 7.051.778 3.315 4.969 2.11 8.077 2.046.3427788.2822135.8381137.2796906 1.178-.006h2.816c.22.311.855.265 1.184 0h2.837c.3219511.2044504.7330489.2044504 1.055 0h2.925c.22.3.848.259 1.178 0h2.822c.0674299.0838476.1605355.1432244.265.169-.1993388.8920643-.3121943 1.8012717-.337 2.715.013.479.051.95.11 1.413z"/><path id="Path" d="m10.451 21.22c1.681-1.121 4.133-3.543 6-3.352 2.214.226 3.611 2.857 6.05 2.1 1.895-.587 2.949-2.972 4.736-3.726 1.4-.59.958.24 2.5.656.6942248.2954521 1.4894319.2299953 2.126-.175.0345462-.0175345.0679464-.0372407.1-.059.0735096-.0277545.1412997-.0687675.2-.121 1.704-1.7053333 3.4086667-3.41 5.114-5.114v1.764c0 .278 1.448.06 1.448-.388v-3c0-.145-.349-.123-.417-.123h-3c-.258 0-.823.111-.967.357-.155.265.135.277.353.277h2.506c-.151526.0260534-.2933841.0919777-.411.191l-5.63 5.629c-.763.139-1.97-1.3-2.863-1.306-.5173062.0603785-1.0136035.2397301-1.45.524-2.109 1.025-3.359 4.07-5.637 3.607-2.151-.437-3.518-2.691-5.883-1.976-2 .6-4.029 2.629-5.775 3.794-.816.543.431.754.9.441z"/></g></g></svg>