<svg fill="none" viewBox="0 0 24 24" xmlns="http://www.w3.org/2000/svg"><g clip-rule="evenodd" fill-rule="evenodd"><path d="m6 6.625c-.76 0-1.375.615-1.375 1.375v8c0 .76.615 1.375 1.375 1.375h12c.76 0 1.375-.615 1.375-1.375v-8c0-.76-.615-1.375-1.375-1.375zm-2.625 1.375a2.624 2.624 0 0 1 2.625-2.625h12a2.624 2.624 0 0 1 2.625 2.625v8a2.624 2.624 0 0 1 -2.625 2.625h-12a2.624 2.624 0 0 1 -2.625-2.625z" fill="#54da72"/><path d="m5.375 4c0-.345.28-.625.625-.625h12a.625.625 0 1 1 0 1.25h-12a.625.625 0 0 1 -.625-.625zm0 16c0-.345.28-.625.625-.625h12a.625.625 0 1 1 0 1.25h-12a.625.625 0 0 1 -.625-.625z" fill="#098d26"/></g></svg>