<svg id="Layer_1" height="512" viewBox="0 0 24 24" width="512" xmlns="http://www.w3.org/2000/svg" data-name="Layer 1"><g id="Setting"><path d="m10 21v-2.26l-1.354-.556-1.6 1.595-2.826-2.829 1.6-1.591-.559-1.359h-2.261v-4h2.259l.556-1.354-1.6-1.6 2.835-2.826 1.591 1.6 1.359-.56v-2.26h4v2.26l1.357.562 1.593-1.6 2.83 2.829-1.6 1.6.561 1.349h2.259v4h-2.253l-.562 1.365 1.6 1.586-2.83 2.829-1.594-1.593-1.361.556v2.257zm2-12a3 3 0 1 0 3 3 3 3 0 0 0 -3-3z" fill="#29c8a0"/><g fill="#1e1e1e"><path d="m14 22h-4a1 1 0 0 1 -1-1v-1.583l-.123-.05-1.12 1.119a1 1 0 0 1 -1.414 0l-2.83-2.829a1 1 0 0 1 0-1.417l1.12-1.113-.051-.127h-1.582a1 1 0 0 1 -1-1v-4a1 1 0 0 1 1-1h1.582c.017-.041.033-.082.051-.123l-1.12-1.12a1 1 0 0 1 0-1.414l2.83-2.829a1 1 0 0 1 .707-.294 1 1 0 0 1 .707.294l1.113 1.12.13-.053v-1.581a1 1 0 0 1 1-1h4a1 1 0 0 1 1 1v1.581l.128.053 1.113-1.12a1 1 0 0 1 .707-.294 1 1 0 0 1 .707.293l2.83 2.829a1 1 0 0 1 0 1.414l-1.12 1.12c.018.041.034.082.051.123h1.584a1 1 0 0 1 1 1v4a1 1 0 0 1 -1 1h-1.582l-.053.128 1.12 1.113a1 1 0 0 1 0 1.417l-2.83 2.829a1 1 0 0 1 -1.414 0l-1.12-1.119-.123.05v1.583a1 1 0 0 1 -.998 1zm-3-2h2v-1.29a1 1 0 0 1 .709-.956 6.118 6.118 0 0 0 1.141-.47 1 1 0 0 1 1.187.169l.913.913 1.414-1.414-.909-.9a1 1 0 0 1 -.295-.71q0-.039 0-.078a1.064 1.064 0 0 1 .119-.407 6.008 6.008 0 0 0 .471-1.141 1 1 0 0 1 .96-.716h1.29v-2h-1.29a1 1 0 0 1 -.957-.709 5.981 5.981 0 0 0 -.471-1.141 1 1 0 0 1 .171-1.187l.913-.913-1.414-1.414-.9.908a1.006 1.006 0 0 1 -.337.223.975.975 0 0 1 -.372.072c-.026 0-.053 0-.079 0a1.011 1.011 0 0 1 -.407-.12 6.118 6.118 0 0 0 -1.141-.47 1 1 0 0 1 -.716-.96v-1.289h-2v1.29a1 1 0 0 1 -.709.957 6.118 6.118 0 0 0 -1.141.47 1.048 1.048 0 0 1 -.107.051.978.978 0 0 1 -.369.072c-.049-.007-.11 0-.164-.013a1.016 1.016 0 0 1 -.557-.282l-.9-.908-1.419 1.412.913.913a1 1 0 0 1 .171 1.187 5.981 5.981 0 0 0 -.471 1.141 1 1 0 0 1 -.957.71h-1.29v2h1.29a1 1 0 0 1 .957.71 6.008 6.008 0 0 0 .471 1.141c.018.035.035.07.05.106a1.028 1.028 0 0 1 .072.37 1.087 1.087 0 0 1 -.013.163 1.023 1.023 0 0 1 -.282.557l-.909.9 1.414 1.418.913-.913a1 1 0 0 1 1.187-.169 6.118 6.118 0 0 0 1.141.47 1 1 0 0 1 .709.956z"/><path d="m12 16a4 4 0 1 1 4-4 4 4 0 0 1 -4 4zm0-6a2 2 0 1 0 2 2 2 2 0 0 0 -2-2z"/></g></g></svg>