<svg id="Capa_1" enable-background="new 0 0 512 512" height="512" viewBox="0 0 512 512" width="512" xmlns="http://www.w3.org/2000/svg"><g><path d="m30.905 450.129v38.086c0 1.707 1.384 3.09 3.091 3.09h444.008c1.707 0 3.091-1.384 3.091-3.09v-38.086z" fill="#a2c7f8"/><g><path d="m30.905 451.129v37.087c0 1.707 1.384 3.091 3.091 3.091h45.843v-40.177h-48.934z" fill="#8db3df"/></g><g><g><path d="m227.707 338.615h56.586v41.002h-56.586z" fill="#647fa0"/><path d="m227.707 338.615h27.707v41.002h-27.707z" fill="#5e6f90"/><g><path d="m421.515 295.891h-330.881l-4.302 1v22.173c0 11.35 9.201 20.552 20.552 20.552h298.231c11.35 0 20.552-9.201 20.552-20.552v-22.173z" fill="#8db3df"/></g><path d="m103.622 101.699c-1.813 0-3.289 1.476-3.289 3.289v177.902h311.335v-177.902c0-1.813-1.476-3.289-3.289-3.289z" fill="#fff3de"/><path d="m100.333 146.665h36.339v136.226h-36.339z" fill="#ffe5c2"/><path d="m330.173 407.956v-19.067c0-5.689-4.612-10.302-10.302-10.302h-127.742c-5.69 0-10.302 4.612-10.302 10.302v19.067z" fill="#8db3df"/><path d="m233.956 378.587h-41.827c-5.69 0-10.302 4.612-10.302 10.302v19.067h41.827v-19.067c0-5.69 4.612-10.302 10.302-10.302z" fill="#799fca"/></g><g><path d="m138.665 319.063v-22.173h-52.332v22.173c0 11.35 9.201 20.552 20.552 20.552h52.333c-11.352 0-20.553-9.201-20.553-20.552z" fill="#799fca"/></g><path d="m408.378 87.699h-304.756c-9.533 0-17.289 7.756-17.289 17.289v191.902h339.335v-191.902c-.001-9.533-7.756-17.289-17.29-17.289zm2.289 194.192h-309.334v-176.903c0-1.262 1.027-2.289 2.289-2.289h304.757c1.262 0 2.289 1.027 2.289 2.289v176.903z" fill="#647fa0"/></g><g><g><path d="m151.136 146.665h-71.552c-1.707 0-3.091-1.384-3.091-3.091v-71.552c0-1.707 1.384-3.091 3.091-3.091h71.552c1.707 0 3.091 1.384 3.091 3.091v71.552c0 1.707-1.384 3.091-3.091 3.091z" fill="#fed402"/></g><g><path d="m108.684 143.574v-71.552c0-1.707 1.384-3.091 3.091-3.091h-32.191c-1.707 0-3.091 1.384-3.091 3.091v71.552c0 1.707 1.384 3.091 3.091 3.091h32.191c-1.707 0-3.091-1.384-3.091-3.091z" fill="#fac600"/></g><g><g fill="#a2c7f8"><path d="m39.391 61.528h15v92.54h-15z"/><path d="m69.09 31.829h92.539v15h-92.539z"/><path d="m69.09 168.768h92.539v15h-92.539z"/><path d="m176.329 61.528h15v92.54h-15z"/></g><path d="m125.967 107.798 4.936-4.936c2.929-2.93 2.929-7.678 0-10.607-2.929-2.928-7.678-2.928-10.606 0l-4.937 4.937-4.937-4.937c-2.929-2.928-7.678-2.928-10.606 0-2.929 2.93-2.929 7.678 0 10.607l4.936 4.936-4.936 4.936c-2.929 2.93-2.929 7.678 0 10.607 1.464 1.464 3.384 2.196 5.303 2.196s3.839-.732 5.303-2.196l4.937-4.937 4.937 4.937c1.464 1.464 3.384 2.196 5.303 2.196s3.839-.732 5.303-2.196c2.929-2.93 2.929-7.678 0-10.607z" fill="#647fa0"/></g></g><g fill="#8db3df"><path d="m197.464 194.902h-31.834c-2.761 0-5-2.239-5-5v-31.834c0-2.761 2.239-5 5-5h31.834c2.761 0 5 2.239 5 5v31.834c0 2.762-2.239 5-5 5z"/><path d="m65.09 194.902h-31.834c-2.761 0-5-2.239-5-5v-31.834c0-2.761 2.239-5 5-5h31.834c2.761 0 5 2.239 5 5v31.834c0 2.762-2.238 5-5 5z"/><path d="m197.464 62.528h-31.834c-2.761 0-5-2.239-5-5v-31.834c0-2.761 2.239-5 5-5h31.834c2.761 0 5 2.239 5 5v31.834c0 2.762-2.239 5-5 5z"/></g><path d="m181.166 57.528v-31.834c0-2.761 2.239-5 5-5h-20.536c-2.761 0-5 2.239-5 5v31.834c0 2.761 2.239 5 5 5h20.536c-2.762 0-5-2.238-5-5z" fill="#799fca"/><path d="m65.09 62.528h-31.834c-2.761 0-5-2.239-5-5v-31.834c0-2.761 2.239-5 5-5h31.834c2.761 0 5 2.239 5 5v31.834c0 2.762-2.238 5-5 5z" fill="#8db3df"/><path d="m48.792 57.528v-31.834c0-2.761 2.239-5 5-5h-20.536c-2.761 0-5 2.239-5 5v31.834c0 2.761 2.239 5 5 5h20.536c-2.761 0-5-2.238-5-5z" fill="#799fca"/><path d="m181.166 189.902v-31.834c0-2.761 2.239-5 5-5h-20.536c-2.761 0-5 2.239-5 5v31.834c0 2.761 2.239 5 5 5h20.536c-2.762 0-5-2.238-5-5z" fill="#799fca"/><path d="m48.792 189.902v-31.834c0-2.761 2.239-5 5-5h-20.536c-2.761 0-5 2.239-5 5v31.834c0 2.761 2.239 5 5 5h20.536c-2.761 0-5-2.238-5-5z" fill="#799fca"/><path d="m451.047 330.271h-10.614v15h10.614c4.385 0 7.953 3.567 7.953 7.952v19.573c0 4.386-3.568 7.953-7.953 7.953h-10.614v15h10.614c12.656 0 22.953-10.297 22.953-22.953v-19.573c0-12.656-10.297-22.952-22.953-22.952z" fill="#fd4755"/><path d="m441.433 407.956v-84.57c0-1.707-1.384-3.091-3.091-3.091h-64.901c-1.707 0-3.091 1.384-3.091 3.091v84.57z" fill="#fe646f"/><path d="m401.256 407.956v-84.57c0-1.707 1.384-3.091 3.091-3.091h-30.905c-1.707 0-3.091 1.384-3.091 3.091v84.57z" fill="#fd4755"/><g><path d="m39 356.322v-37.057c0-4.143-3.358-7.5-7.5-7.5s-7.5 3.357-7.5 7.5v37.057z" fill="#a2c7f8"/><path d="m72.113 356.322v-57.66c0-1.707-1.384-3.091-3.091-3.091h-19.573c-1.707 0-3.091 1.384-3.091 3.091v57.66z" fill="#fed402"/><path d="m60.091 295.571h-10.642c-1.707 0-3.091 1.384-3.091 3.091v57.66h10.642v-57.66c0-1.707 1.384-3.091 3.091-3.091z" fill="#fac600"/></g><path d="m80.869 407.956v-49.544c0-1.707-1.384-3.091-3.091-3.091h-57.69c-1.707 0-3.091 1.384-3.091 3.091v49.544z" fill="#46cc8d"/><path d="m47.903 407.956v-49.544c0-1.707 1.384-3.09 3.091-3.09h-30.905c-1.707 0-3.091 1.384-3.091 3.09v49.544z" fill="#08b865"/><g><path d="m506.849 451.129h-501.698c-2.845 0-5.151-2.306-5.151-5.151v-33.871c0-2.845 2.306-5.151 5.151-5.151h501.698c2.845 0 5.151 2.306 5.151 5.151v33.871c0 2.844-2.306 5.151-5.151 5.151z" fill="#ea9b58"/></g><g><path d="m72.628 445.978v-33.871c0-2.845 2.306-5.151 5.151-5.151h-72.628c-2.845 0-5.151 2.306-5.151 5.151v33.871c0 2.845 2.306 5.151 5.151 5.151h72.628c-2.845 0-5.151-2.307-5.151-5.151z" fill="#d88a55"/></g><g><g><path d="m382.712 253.73h-53.569c-1.707 0-3.091-1.384-3.091-3.091v-108.168c0-1.707 1.384-3.091 3.091-3.091h53.569c1.707 0 3.091 1.384 3.091 3.091v108.169c0 1.707-1.384 3.09-3.091 3.09z" fill="#fe646f"/></g><g><path d="m352.837 250.64v-108.169c0-1.707 1.384-3.091 3.091-3.091h-26.785c-1.707 0-3.091 1.384-3.091 3.091v108.169c0 1.707 1.384 3.091 3.091 3.091h26.785c-1.707-.001-3.091-1.385-3.091-3.091z" fill="#fd4755"/></g><g><g><path d="m299.268 194.902h-67.992c-4.142 0-7.5-3.357-7.5-7.5s3.358-7.5 7.5-7.5h67.992c4.142 0 7.5 3.357 7.5 7.5s-3.358 7.5-7.5 7.5z" fill="#a2c7f8"/></g><g><path d="m299.268 170.178h-67.992c-4.142 0-7.5-3.357-7.5-7.5s3.358-7.5 7.5-7.5h67.992c4.142 0 7.5 3.357 7.5 7.5s-3.358 7.5-7.5 7.5z" fill="#a2c7f8"/></g><g><path d="m299.268 145.454h-67.992c-4.142 0-7.5-3.357-7.5-7.5s3.358-7.5 7.5-7.5h67.992c4.142 0 7.5 3.357 7.5 7.5s-3.358 7.5-7.5 7.5z" fill="#a2c7f8"/></g></g><g><path d="m297.378 253.73h-35.368c-1.831 0-3.316-1.485-3.316-3.316v-35.368c0-1.831 1.485-3.316 3.316-3.316h35.368c1.831 0 3.316 1.485 3.316 3.316v35.368c0 1.832-1.484 3.316-3.316 3.316z" fill="#08b865"/></g><g><path d="m230.417 253.73h-35.368c-1.831 0-3.316-1.485-3.316-3.316v-35.368c0-1.831 1.485-3.316 3.316-3.316h35.368c1.831 0 3.316 1.485 3.316 3.316v35.368c-.001 1.832-1.485 3.316-3.316 3.316z" fill="#fe9901"/></g><g><path d="m163.455 253.73h-35.368c-1.831 0-3.316-1.485-3.316-3.316v-35.368c0-1.831 1.485-3.316 3.316-3.316h35.368c1.831 0 3.316 1.485 3.316 3.316v35.368c0 1.832-1.485 3.316-3.316 3.316z" fill="#0593fc"/></g></g></g></svg>