<svg id="Layer_1" enable-background="new 0 0 492 492" viewBox="0 0 492 492" xmlns="http://www.w3.org/2000/svg"><g id="Master_Layer_3"/><g><g><path clip-rule="evenodd" d="m382 431h-271.5c-8.6 0-15.7-7-15.7-15.7v-337.2c0-8.6 7-15.7 15.7-15.7h190.6c1.5 0 3 .6 4.1 1.7l90.8 90.8c1.1 1.1 1.7 2.5 1.7 4.1v256.3c0 8.7-7 15.7-15.7 15.7zm-271.5-357c-2.3 0-4.2 1.9-4.2 4.2v337.2c0 2.3 1.9 4.2 4.2 4.2h271.5c2.3 0 4.2-1.9 4.2-4.2v-254l-87.4-87.4z" fill="#212121" fill-rule="evenodd"/></g><g><path clip-rule="evenodd" d="m391.9 164.8h-80.9c-8.6 0-15.7-7-15.7-15.7v-80.9c0-3.2 2.6-5.8 5.8-5.8s5.8 2.6 5.8 5.8v80.9c0 2.3 1.9 4.2 4.2 4.2h80.9c3.2 0 5.8 2.6 5.8 5.8-.1 3.1-2.7 5.7-5.9 5.7z" fill="#212121" fill-rule="evenodd"/></g><g><g><path clip-rule="evenodd" d="m257.6 128h-113.5c-3.2 0-5.8-2.6-5.8-5.8s2.6-5.8 5.8-5.8h113.5c3.2 0 5.8 2.6 5.8 5.8s-2.6 5.8-5.8 5.8z" fill="#212121" fill-rule="evenodd"/></g><g><path clip-rule="evenodd" d="m257.6 164.8h-113.5c-3.2 0-5.8-2.6-5.8-5.8s2.6-5.8 5.8-5.8h113.5c3.2 0 5.8 2.6 5.8 5.8s-2.6 5.8-5.8 5.8z" fill="#212121" fill-rule="evenodd"/></g></g><g><g><g><path clip-rule="evenodd" d="m253.1 407.8h-13.8c-7.6 0-13.7-5.8-15.3-14.4l-1.8-10.2c-4.1-1.3-8.1-3-11.9-4.9l-8.5 5.9c-7.2 5-15.6 4.7-21-.7l-9.7-9.7c-5.4-5.4-5.6-13.8-.7-21l5.9-8.5c-2-3.8-3.6-7.8-4.9-11.9l-10.2-1.8c-8.6-1.6-14.4-7.7-14.4-15.3v-13.8c0-7.6 5.8-13.7 14.4-15.3l10.2-1.8c1.3-4.1 3-8.1 4.9-11.9l-5.9-8.5c-5-7.2-4.7-15.6.7-21l9.7-9.7c5.4-5.4 13.8-5.6 21-.7l8.5 5.9c3.8-2 7.8-3.6 11.9-4.9l1.8-10.2c1.6-8.6 7.7-14.4 15.3-14.4h13.8c7.6 0 13.7 5.8 15.3 14.4l1.8 10.2c4.1 1.3 8.1 3 11.9 4.9l8.5-5.9c7.2-5 15.6-4.7 21 .7l9.7 9.7c5.4 5.4 5.6 13.8.7 21l-5.9 8.5c2 3.8 3.6 7.8 4.9 11.9l10.2 1.8c8.6 1.6 14.4 7.7 14.4 15.3v13.8c0 7.6-5.8 13.7-14.4 15.3l-10.2 1.8c-1.3 4.1-3 8.1-4.9 11.9l5.9 8.5c5 7.2 4.7 15.6-.7 21l-9.7 9.7c-2.8 2.8-6.4 4.2-10.3 4.2-3.5 0-7.2-1.2-10.7-3.6l-8.5-5.9c-3.8 2-7.8 3.6-11.9 4.9l-1.8 10.2c-1.5 8.7-7.7 14.5-15.3 14.5zm-43.2-42c1 0 2 .3 2.9.8 5 2.9 10.4 5.1 15.9 6.6 2.2.6 3.8 2.4 4.2 4.5l2.5 13.7c.1.8 1 4.9 4 4.9h13.8c2.9 0 3.8-4.1 4-4.9l2.5-13.7c.4-2.2 2-4 4.2-4.5 5.6-1.5 10.9-3.7 16-6.6 1.9-1.1 4.3-1 6.1.3l11.4 7.9c.7.5 4.2 2.7 6.2.7l9.7-9.7c2.1-2.1-.2-5.6-.7-6.2l-7.9-11.4c-1.3-1.8-1.4-4.2-.3-6.1 2.9-5 5.1-10.4 6.6-15.9.6-2.2 2.4-3.8 4.5-4.2l13.7-2.5c.8-.1 4.9-1 4.9-4v-13.8c0-2.9-4.1-3.8-4.9-4l-13.7-2.5c-2.2-.4-4-2-4.5-4.2-1.5-5.6-3.7-10.9-6.6-16-1.1-1.9-1-4.3.3-6.1l7.9-11.4c.5-.7 2.7-4.2.7-6.2l-9.7-9.7c-2.1-2.1-5.6.2-6.2.7l-11.4 7.9c-1.8 1.3-4.2 1.4-6.1.3-5-2.9-10.4-5.1-15.9-6.6-2.2-.6-3.8-2.4-4.2-4.5l-2.5-13.7c-.1-.8-1-4.9-4-4.9h-13.8c-2.9 0-3.8 4.1-4 4.9l-2.4 13.7c-.4 2.2-2 4-4.2 4.5-5.6 1.5-10.9 3.7-15.9 6.6-1.9 1.1-4.3 1-6.1-.3l-11.4-7.9c-.7-.5-4.2-2.7-6.2-.7l-9.7 9.7c-2.1 2.1.2 5.6.7 6.2l7.9 11.4c1.3 1.8 1.4 4.2.3 6.1-2.9 5-5.1 10.4-6.6 15.9-.6 2.2-2.4 3.8-4.5 4.2l-13.7 2.5c-.8.1-4.9 1-4.9 4v13.8c0 2.9 4.1 3.8 4.9 4l13.7 2.5c2.2.4 4 2 4.5 4.2 1.5 5.6 3.7 10.9 6.6 16 1.1 1.9 1 4.3-.3 6.1l-7.9 11.4c-.5.7-2.7 4.2-.7 6.2l9.7 9.7c2.1 2.1 5.6-.2 6.2-.7l11.4-7.9c.7-.8 1.9-1.1 3-1.1z" fill="#65bb6a" fill-rule="evenodd"/></g><g><path clip-rule="evenodd" d="m246.3 352.7c-24.5 0-44.4-19.9-44.4-44.4s19.9-44.4 44.4-44.4 44.4 19.9 44.4 44.4-20 44.4-44.4 44.4zm0-77.1c-18.1 0-32.8 14.7-32.8 32.8s14.7 32.8 32.8 32.8 32.8-14.7 32.8-32.8-14.7-32.8-32.8-32.8z" fill="#65bb6a" fill-rule="evenodd"/></g></g></g></g></svg>