<svg id="_x31__x2C_5" enable-background="new 0 0 36 36" height="512" viewBox="0 0 36 36" width="512" xmlns="http://www.w3.org/2000/svg"><g><path d="m8.377 4.167c6.917 0 11.667-3.583 15-3.583s10.333 1.916 10.333 17.249-9.417 17.583-13.083 17.583c-17.167.001-24.5-31.249-12.25-31.249z" fill="#efefef"/></g><g><path d="m8.5 5c-.827 0-1.5-.673-1.5-1.5s.673-1.5 1.5-1.5 1.5.673 1.5 1.5-.673 1.5-1.5 1.5zm0-2c-.275 0-.5.224-.5.5s.225.5.5.5.5-.224.5-.5-.225-.5-.5-.5z" fill="#a4afc1"/></g><g><path d="m27.25 28.25h-18.5c-1.105 0-2-.895-2-2v-15h22.5v15c0 1.105-.895 2-2 2z" fill="#f3f3f1"/></g><g><path d="m29.25 11.25h-22.5v-1.5c0-1.105.895-2 2-2h18.5c1.105 0 2 .895 2 2z" fill="#2fdf84"/></g><g><path d="m18.75 15.569c0-.452.367-.819.819-.819h5.862c.452 0 .819.367.819.819v5.862c0 .452-.367.819-.819.819h-5.862c-.452 0-.819-.367-.819-.819z" fill="#2fdf84"/></g><g><path d="m21 21.431v-5.862c0-.452.367-.819.819-.819h-2.25c-.452 0-.819.367-.819.819v5.862c0 .452.367.819.819.819h2.25c-.452 0-.819-.367-.819-.819z" fill="#00b871"/></g><g><path d="m9.25 26.25v-15h-2.5v15c0 1.105.895 2 2 2h2.5c-1.105 0-2-.895-2-2z" fill="#d5dbe1"/></g><g><path d="m11 7.75h-2.25c-1.105 0-2 .895-2 2v1.5h2.25v-1.5c0-1.105.895-2 2-2z" fill="#00b871"/></g><g><path d="m25.431 23h-5.861c-.866 0-1.57-.704-1.57-1.569v-5.862c0-.865.704-1.569 1.569-1.569h5.861c.866 0 1.57.704 1.57 1.569v5.862c0 .865-.704 1.569-1.569 1.569zm-5.862-7.5-.069.069v5.862l5.931.069.069-5.931z"/></g><g><path d="m9 24.5h18v1.5h-18z"/></g><g><path d="m9 14.5h7v1.5h-7z"/></g><g><path d="m9 17.5h7v1.5h-7z"/></g><g><path d="m9 20.5h7v1.5h-7z"/></g><g><path d="m21.25 20.75c-.127 0-.255-.032-.369-.097-.235-.133-.381-.383-.381-.653v-3c0-.27.146-.52.381-.653s.524-.129.755.01l2.5 1.5c.226.135.364.379.364.643s-.139.508-.364.643l-2.5 1.5c-.118.071-.252.107-.386.107zm.75-2.425v.351l.292-.175z"/></g><g><path d="m27.25 29h-18.5c-1.517 0-2.75-1.233-2.75-2.75v-16.5c0-1.517 1.233-2.75 2.75-2.75h18.5c1.517 0 2.75 1.233 2.75 2.75v16.5c0 1.517-1.233 2.75-2.75 2.75zm-18.5-20.5c-.689 0-1.25.561-1.25 1.25v16.5c0 .689.561 1.25 1.25 1.25h18.5c.689 0 1.25-.561 1.25-1.25v-16.5c0-.689-.561-1.25-1.25-1.25z"/></g><g><path d="m6.75 10.5h22.5v1.5h-22.5z"/></g><g><path d="m2 27.5h32v1.5h-32z"/></g></svg>