<svg id="Layer_1" height="512" viewBox="0 0 64 64" width="512" xmlns="http://www.w3.org/2000/svg"><g><path d="m41 18v4h-32v-4c0-1.66 1.34-3 3-3h26c1.66 0 3 1.34 3 3z" fill="#3892e5"/><path d="m48 11v4h-32v-4c0-1.66 1.34-3 3-3h26c1.66 0 3 1.34 3 3z" fill="#287dd1"/><path d="m55 4v4h-32v-4c0-1.66 1.34-3 3-3h26c1.66 0 3 1.34 3 3z" fill="#3892e5"/><path d="m45 8h10v30h-7v-27c0-1.66-1.34-3-3-3z" fill="#60e8b3"/><path d="m38 15h10v30h-7v-27c0-1.66-1.34-3-3-3z" fill="#3ad894"/><path d="m41 45v7h-8.8l-7.2-16-7.2 16h-8.8v-30h32z" fill="#60e8b3"/><path d="m32.2 52 1.8 4h-6v7h-6v-7h-6l1.8-4 7.2-16z" fill="#287dd1"/></g><g fill="#252525"><path d="m52 0h-26c-2.206 0-4 1.794-4 4v3h-3c-2.206 0-4 1.794-4 4v3h-3c-2.206 0-4 1.794-4 4v34c0 .552.448 1 1 1h4c.552 0 1-.448 1-1s-.448-1-1-1h-3v-28h30v28h-7.153l-6.935-15.41c-.162-.359-.519-.59-.912-.59s-.75.231-.912.59l-9 20c-.139.309-.112.668.072.953.185.285.5.457.84.457h5v6c0 .552.448 1 1 1h6c.552 0 1-.448 1-1v-6h5c.339 0 .655-.172.84-.457.184-.285.211-.644.072-.953l-1.165-2.59h7.253c.552 0 1-.448 1-1v-6h6c.552 0 1-.448 1-1v-6h6c.552 0 1-.448 1-1v-34c0-2.206-1.794-4-4-4zm-24 55c-.552 0-1 .448-1 1v6h-4v-6c0-.552-.448-1-1-1h-4.454l7.454-16.563 7.454 16.563zm-18-34v-3c0-1.103.897-2 2-2h26c1.103 0 2 .897 2 2v3zm32 23v-26c0-2.206-1.794-4-4-4h-21v-3c0-1.103.897-2 2-2h26c1.103 0 2 .897 2 2v3h-3c-.552 0-1 .448-1 1s.448 1 1 1h3v28zm7-7v-26c0-2.206-1.794-4-4-4h-21v-3c0-1.103.897-2 2-2h26c1.103 0 2 .897 2 2v3h-3c-.552 0-1 .448-1 1s.448 1 1 1h3v28z"/><path d="m35 26h-20c-.552 0-1 .448-1 1s.448 1 1 1h20c.552 0 1-.448 1-1s-.448-1-1-1z"/><path d="m15 33h6c.552 0 1-.448 1-1s-.448-1-1-1h-6c-.552 0-1 .448-1 1s.448 1 1 1z"/><path d="m20 37c0-.552-.448-1-1-1h-4c-.552 0-1 .448-1 1s.448 1 1 1h4c.552 0 1-.448 1-1z"/><path d="m35 31h-6c-.552 0-1 .448-1 1s.448 1 1 1h6c.552 0 1-.448 1-1s-.448-1-1-1z"/><path d="m35 36h-4c-.552 0-1 .448-1 1s.448 1 1 1h4c.552 0 1-.448 1-1s-.448-1-1-1z"/></g></svg>