<svg id="Layer_1" enable-background="new 0 0 53 53" height="512" viewBox="0 0 53 53" width="512" xmlns="http://www.w3.org/2000/svg"><g id="_x32_0"><g><g><g><g><g><g><path d="m32.8832016 50.5005493h-24.4955711c-2.0533276 0-3.7178788-1.6645508-3.7178788-3.7178764v-40.5642429c0-2.053328 1.6645513-3.7178793 3.7178788-3.7178793h24.4955711c2.0533295 0 3.7178802 1.6645513 3.7178802 3.7178793v40.5642433c0 2.0533252-1.6645507 3.717876-3.7178802 3.717876z" fill="#5b5e8b"/></g></g><g><g><path d="m12.0210648 50.4994507h-3.6300049c-2.0599976 0-3.7199707-1.6599731-3.7199707-3.7199707v-40.559999c0-2.0500488 1.6599731-3.7200317 3.7199707-3.7200317h3.6300049c-2.0499878 0-3.7099609 1.6699829-3.7099609 3.7200317v40.559999c-.0000001 2.0599975 1.6599731 3.7199707 3.7099609 3.7199707z" fill="#312e4b"/></g></g><g><g><path d="m34.6027718 6.2195835v40.5599995c0 .949913-.7700577 1.7199707-1.7199707 1.7199707h-24.4900523c-.949914 0-1.7199712-.7700577-1.7199712-1.7199707v-40.5599995c0-.9500122.7699585-1.7200317 1.7099614-1.7200317h5.0096769c.6246643 0 1.1888037.3734789 1.4327621.9485354l1.000597 2.3586044c.1884823.4442887.6243362.7328382 1.1069508.7328382h7.4000244c.4899902 0 .9299927-.289978 1.1099854-.7399902l.9976177-2.3514748c.2439632-.5750446.8080959-.948513 1.4327507-.948513h5.009636c.9499474 0 1.7200318.7700844 1.7200318 1.7200317z" fill="#deddff"/></g></g></g><g><g><g><path d="m24.3344173 8.5404758h-7.3980007c-.4855175 0-.9238873-.2905817-1.1129808-.7377615l-1.4579315-3.4477853h12.5398245l-1.4579315 3.4477854c-.1890946.4471797-.6274644.7377614-1.11298.7377614z" fill="#5b5e8b"/></g></g><g><g><g><g><path d="m23.6414299 6.8680801h-3.3527584c-.3490906 0-.6315727-.2824802-.6315727-.6315718 0-.3490911.2824821-.6315718.6315727-.6315718h3.3527584c.3490906 0 .6315708.2824807.6315708.6315718 0 .3490916-.2824802.6315718-.6315708.6315718z" fill="#312e4b"/></g></g></g><g><g><g><path d="m18.0216694 6.8680801h-.3922653c-.3490906 0-.6315708-.2824802-.6315708-.6315718 0-.3490911.2824802-.6315718.6315708-.6315718h.3922653c.3490906 0 .6315727.2824807.6315727.6315718 0 .3490916-.2824821.6315718-.6315727.6315718z" fill="#312e4b"/></g></g></g></g></g></g></g></g><g><g><path d="m9.7188568 32.9045525v-5.206707c0-.7785492.6311388-1.409687 1.409687-1.409687h6.4739208c.7785473 0 1.409687.6311378 1.409687 1.409687v5.206707c0 .7785492-.6311398 1.409687-1.409687 1.409687h-6.4739208c-.7785482 0-1.409687-.6311378-1.409687-1.409687z" fill="#fcb73e"/></g></g><g><g><g><g><path d="m11.1730223 23.2930698h-1.5c-.2763672 0-.5-.2236328-.5-.5v-1.5c0-.2763672.2236328-.5.5-.5s.5.2236328.5.5v1h1c.2763672 0 .5.2236328.5.5s-.2236328.5-.5.5z" fill="#b5b5ea"/></g></g></g><g><g><g><path d="m9.6730223 18.9527378c-.2763672 0-.5-.2236328-.5-.5v-2.840332c0-.2763672.2236328-.5.5-.5s.5.2236328.5.5v2.840332c0 .2763672-.2236328.5-.5.5z" fill="#b5b5ea"/></g></g></g><g><g><g><path d="m9.6730223 13.2720737c-.2763672 0-.5-.2236328-.5-.5v-1.5c0-.2763672.2236328-.5.5-.5h1.5c.2763672 0 .5.2236328.5.5s-.2236328.5-.5.5h-1v1c0 .2763672-.2236328.5-.5.5z" fill="#b5b5ea"/></g></g></g><g><g><g><path d="m27.398119 11.7720737h-2.7041016c-.2763672 0-.5-.2236328-.5-.5s.2236328-.5.5-.5h2.7041016c.2763672 0 .5.2236328.5.5s-.2236328.5-.5.5zm-5.4082032 0h-2.7041016c-.2763672 0-.5-.2236328-.5-.5s.2236328-.5.5-.5h2.7041016c.2763672 0 .5.2236328.5.5s-.2236328.5-.5.5zm-5.4086914 0h-2.7041006c-.2763672 0-.5-.2236328-.5-.5s.2236328-.5.5-.5h2.7041006c.2763672 0 .5.2236328.5.5s-.2236328.5-.5.5z" fill="#b5b5ea"/></g></g></g><g><g><g><path d="m31.6027088 13.2720737c-.2763672 0-.5-.2236328-.5-.5v-1h-1c-.2763672 0-.5-.2236328-.5-.5s.2236328-.5.5-.5h1.5c.2763672 0 .5000019.2236328.5000019.5v1.5c0 .2763672-.2236347.5-.5000019.5z" fill="#b5b5ea"/></g></g></g><g><g><g><path d="m31.6027088 18.9527378c-.2763672 0-.5-.2236328-.5-.5v-2.840332c0-.2763672.2236328-.5.5-.5s.5000019.2236328.5000019.5v2.840332c0 .2763672-.2236347.5-.5000019.5z" fill="#b5b5ea"/></g></g></g><g><g><g><path d="m31.6027088 23.2930698h-1.5c-.2763672 0-.5-.2236328-.5-.5s.2236328-.5.5-.5h1v-1c0-.2763672.2236328-.5.5-.5s.5000019.2236328.5000019.5v1.5c0 .2763672-.2236347.5-.5000019.5z" fill="#b5b5ea"/></g></g></g><g><g><g><path d="m27.3986073 23.2930698h-2.7041016c-.2763672 0-.5-.2236328-.5-.5s.2236328-.5.5-.5h2.7041016c.2763672 0 .5.2236328.5.5s-.2236329.5-.5.5zm-5.4086915 0h-2.7041016c-.2763672 0-.5-.2236328-.5-.5s.2236328-.5.5-.5h2.7041016c.2763672 0 .5.2236328.5.5s-.2236328.5-.5.5zm-5.4082031 0h-2.7041006c-.2763672 0-.5-.2236328-.5-.5s.2236328-.5.5-.5h2.7041006c.2763672 0 .5.2236328.5.5s-.2236328.5-.5.5z" fill="#b5b5ea"/></g></g></g></g><g><g><g><g><path d="m23.8092518 34.8140678h-1.5c-.2763672 0-.5-.2236328-.5-.5v-1.5c0-.2763672.2236328-.5.5-.5s.5.2236328.5.5v1h1c.2763672 0 .5.2236328.5.5s-.2236328.5-.5.5z" fill="#b5b5ea"/></g></g></g><g><g><g><path d="m22.3092518 31.638773c-.2763672 0-.5-.2236328-.5-.5v-1.675293c0-.2763672.2236328-.5.5-.5s.5.2236328.5.5v1.675293c0 .2763672-.2236328.5-.5.5z" fill="#b5b5ea"/></g></g></g><g><g><g><path d="m22.3092518 28.288187c-.2763672 0-.5-.2236328-.5-.5v-1.5c0-.2763672.2236328-.5.5-.5h1.5c.2763672 0 .5.2236328.5.5s-.2236328.5-.5.5h-1v1c0 .2763672-.2236328.5-.5.5z" fill="#b5b5ea"/></g></g></g><g><g><g><path d="m28.0050526 26.788187h-2.0976563c-.2763672 0-.5-.2236328-.5-.5s.2236328-.5.5-.5h2.0976563c.2763672 0 .5.2236328.5.5s-.2236328.5-.5.5z" fill="#b5b5ea"/></g></g></g><g><g><g><path d="m31.6027088 28.288187c-.2763672 0-.5-.2236328-.5-.5v-1h-1c-.2763672 0-.5-.2236328-.5-.5s.2236328-.5.5-.5h1.5c.2763672 0 .5000019.2236328.5000019.5v1.5c0 .2763672-.2236347.5-.5000019.5z" fill="#b5b5ea"/></g></g></g><g><g><g><path d="m31.6027088 31.638773c-.2763672 0-.5-.2236328-.5-.5v-1.675293c0-.2763672.2236328-.5.5-.5s.5000019.2236328.5000019.5v1.675293c0 .2763672-.2236347.5-.5000019.5z" fill="#b5b5ea"/></g></g></g><g><g><g><path d="m31.6027088 34.8140678h-1.5c-.2763672 0-.5-.2236328-.5-.5s.2236328-.5.5-.5h1v-1c0-.2763672.2236328-.5.5-.5s.5000019.2236328.5000019.5v1.5c0 .2763672-.2236347.5-.5000019.5z" fill="#b5b5ea"/></g></g></g><g><g><g><path d="m28.0050526 34.8140678h-2.0976563c-.2763672 0-.5-.2236328-.5-.5s.2236328-.5.5-.5h2.0976563c.2763672 0 .5.2236328.5.5s-.2236328.5-.5.5z" fill="#b5b5ea"/></g></g></g></g><g><g><path d="m22.3094158 44.0899277v-5.206707c0-.7785492.6311378-1.409687 1.409687-1.409687h6.4739189c.7785492 0 1.409687.6311378 1.409687 1.409687v5.206707c0 .7785454-.6311378 1.409687-1.409687 1.409687h-6.4739189c-.7785491 0-1.409687-.6311416-1.409687-1.409687z" fill="#46cc6b"/></g></g><g><g><path d="m26.3627186 45.4995537h-2.6399536c-.7800293 0-1.4100342-.6300049-1.4100342-1.4099731v-5.210022c0-.7700195.6300049-1.4099731 1.4100342-1.4099731h2.6399536c-.7799683 0-1.4099731.6399536-1.4099731 1.4099731v5.210022c-.0000001.7799682.6300048 1.4099731 1.4099731 1.4099731z" fill="#34ba5d"/></g></g><g><g><g><g><g><path d="m11.2189207 45.9996147h-1.5c-.2763672 0-.5-.2236328-.5-.5v-1.5c0-.2763672.2236328-.5.5-.5s.5.2236328.5.5v1h1c.2763672 0 .5.2236328.5.5s-.2236328.5-.5.5z" fill="#b5b5ea"/></g></g></g><g><g><g><path d="m9.7189207 42.8243217c-.2763672 0-.5-.2236328-.5-.5v-1.675293c0-.2763672.2236328-.5.5-.5s.5.2236328.5.5v1.675293c0 .2763672-.2236328.5-.5.5z" fill="#b5b5ea"/></g></g></g><g><g><g><path d="m9.7189207 39.4737358c-.2763672 0-.5-.2236328-.5-.5v-1.5c0-.2763672.2236328-.5.5-.5h1.5c.2763672 0 .5.2236328.5.5s-.2236328.5-.5.5h-1v1c0 .2763672-.2236328.5-.5.5z" fill="#b5b5ea"/></g></g></g><g><g><g><path d="m15.4142332 37.9737358h-2.0976562c-.2763672 0-.5-.2236328-.5-.5s.2236328-.5.5-.5h2.0976563c.2763672 0 .5.2236328.5.5s-.2236329.5-.5000001.5z" fill="#b5b5ea"/></g></g></g><g><g><g><path d="m19.0123768 39.4737358c-.2763672 0-.5-.2236328-.5-.5v-1h-1c-.2763672 0-.5-.2236328-.5-.5s.2236328-.5.5-.5h1.5c.2763672 0 .5.2236328.5.5v1.5c0 .2763672-.2236328.5-.5.5z" fill="#b5b5ea"/></g></g></g><g><g><g><path d="m19.0123768 42.8243217c-.2763672 0-.5-.2236328-.5-.5v-1.675293c0-.2763672.2236328-.5.5-.5s.5.2236328.5.5v1.675293c0 .2763672-.2236328.5-.5.5z" fill="#b5b5ea"/></g></g></g><g><g><g><path d="m19.0123768 45.9996147h-1.5c-.2763672 0-.5-.2236328-.5-.5s.2236328-.5.5-.5h1v-1c0-.2763672.2236328-.5.5-.5s.5.2236328.5.5v1.5c0 .2763672-.2236328.5-.5.5z" fill="#b5b5ea"/></g></g></g><g><g><g><path d="m15.4142332 45.9996147h-2.0976562c-.2763672 0-.5-.2236328-.5-.5s.2236328-.5.5-.5h2.0976563c.2763672 0 .5.2236328.5.5s-.2236329.5-.5000001.5z" fill="#b5b5ea"/></g></g></g></g></g><g><g><path d="m13.4327269 34.3095512h-2.2999878c-.7799683 0-1.4099731-.6300049-1.4099731-1.4099731v-5.2000141c0-.7800293.6300049-1.4100342 1.4099731-1.4100342h2.2999878c-.7799683 0-1.4099731.6300049-1.4099731 1.4100342v5.2000141c-.0000001.7799683.6300048 1.4099731 1.4099731 1.4099731z" fill="#fd982e"/></g></g><g><g><g><path d="m45.9552498 20.7948513h-16.0612488c-1.311676 0-2.375-1.063324-2.375-2.375v-9.9665861c0-1.311676 1.063324-2.375 2.375-2.375h16.0612488c1.311676 0 2.375 1.063324 2.375 2.375v9.9665861c0 1.311676-1.063324 2.375-2.375 2.375z" fill="#c7754f"/></g></g><g><g><path d="m47.0400467 8.7785215v9.3217001c0 .1783772-.0334167.3456593-.089222.5017815-.2006989.6020947-.76931 1.025816-1.4383736 1.025816h-15.1756515c-.6355801 0-1.1707764-.3791428-1.3937969-.9255009-.089222-.1783772-.1337986-.3902359-.1337986-.6020966v-9.3217001c0-.8474402.6801567-1.5387583 1.5275955-1.5387583h15.1756516c.8474388.0000001 1.5275955.6913181 1.5275955 1.5387583z" fill="#deddff"/></g></g><g><g><g><g><path d="m46.9508247 18.6020031c-.2006989.6020947-.76931 1.025816-1.4383736 1.025816h-15.1756515c-.6355801 0-1.1707764-.3791428-1.3937969-.9255009l5.3633289-7.7829437c.2899208-.4348803.9365959-.4348803 1.2265167 0l3.2224731 4.6720123c.2899208.4237194.914341.4348812 1.2265167.0223227l1.7840996-2.4308434c.3010826-.4125586.9031792-.4125586 1.2042618 0z" fill="#34ba5d"/></g></g></g><g><g><circle cx="39.318" cy="10.593" fill="#fcb73e" r="1.448"/></g></g></g></g></g></svg>