<svg enable-background="new 0 0 512 512" viewBox="0 0 512 512" xmlns="http://www.w3.org/2000/svg"><g id="_x30_6_Interactive_Modules"><g><path d="m496.344 87.804v61.185h-480.688v-61.185c0-20.426 16.558-36.984 36.984-36.984h406.72c20.426 0 36.984 16.558 36.984 36.984z" fill="#554e56"/><path d="m495.431 87.807v61.192h-480.689v-54.559c67.441 16.391 137.91 25.092 210.446 25.092 93.734 0 184.104-14.565 268.945-41.532.866 3.125 1.298 6.394 1.298 9.807z" opacity=".1"/><path d="m496.344 424.195v-275.205h-480.688v275.206c0 20.426 16.558 36.984 36.984 36.984h406.72c20.426 0 36.984-16.559 36.984-36.985z" fill="#ecf7fe"/><path d="m496.344 148.998v275.194c0 20.429-16.536 36.965-36.965 36.965h-406.758c-20.429 0-36.965-16.536-36.965-36.965v-79.842c48.021 41.243 110.51 66.143 178.768 66.143 147.283 0 267.599-115.846 274.617-261.495z" opacity=".1"/><path d="m235.856 205.438v85.577c0 7.307-5.923 13.23-13.23 13.23h-143.682c-7.307 0-13.23-5.923-13.23-13.23v-85.577c0-7.307 5.923-13.23 13.23-13.23h143.682c7.307-.001 13.23 5.923 13.23 13.23z" fill="#45e29d"/><path d="m235.859 205.431v85.563c0 7.306-5.912 13.267-13.219 13.267h-143.677c-7.307 0-13.267-5.961-13.267-13.267v-16.824c12.113 4.134 25.044 6.345 38.551 6.345 55.327 0 101.954-37.397 115.846-88.303h2.548c7.306 0 13.218 5.913 13.218 13.219z" opacity=".1"/><path d="m235.856 404.711v-40.885c0-7.307-5.923-13.23-13.23-13.23h-143.682c-7.307 0-13.23 5.923-13.23 13.23v40.885c0 7.307 5.923 13.23 13.23 13.23h143.682c7.307 0 13.23-5.924 13.23-13.23z" fill="#f4dc3f"/><path d="m235.859 363.818v40.907c0 7.306-5.912 13.219-13.219 13.219h-143.677c-7.307 0-13.267-5.913-13.267-13.219v-9.95c13.459 2.692 27.543 4.086 42.06 4.086 50.088 0 94.936-16.728 125.316-43.166 1.73 2.211 2.787 5.047 2.787 8.123z" opacity=".1"/><path d="m446.287 205.438v199.294c0 7.307-5.923 13.23-13.23 13.23h-108.975c-7.307 0-13.23-5.923-13.23-13.23v-199.294c0-7.307 5.923-13.23 13.23-13.23h108.974c7.307-.001 13.231 5.923 13.231 13.23z" fill="#f35059"/><path d="m446.305 205.431v199.294c0 7.306-5.96 13.219-13.267 13.219h-108.972c-4.759 0-8.893-2.5-11.248-6.249 63.499-20.814 109.549-82.678 109.549-155.743 0-22.592-4.422-44.127-12.402-63.739h23.073c7.306-.001 13.267 5.912 13.267 13.218z" opacity=".1"/><g fill="#ecf7fe"><path d="m92.083 99.905c0 10.849-8.82 19.625-19.669 19.625s-19.625-8.776-19.625-19.625 8.776-19.625 19.625-19.625c10.848 0 19.669 8.776 19.669 19.625z"/><path d="m152.696 99.905c0 10.849-8.82 19.625-19.669 19.625s-19.625-8.776-19.625-19.625 8.776-19.625 19.625-19.625 19.669 8.776 19.669 19.625z"/><path d="m213.309 99.905c0 10.849-8.82 19.625-19.669 19.625s-19.625-8.776-19.625-19.625 8.776-19.625 19.625-19.625 19.669 8.776 19.669 19.625z"/><path d="m299.15 80.28c-10.849 0-19.669 8.776-19.669 19.625s8.82 19.625 19.669 19.625h140.392c10.849 0 19.669-8.776 19.669-19.625s-8.82-19.625-19.669-19.625z"/></g><path d="m52.639 465.987h406.722c23.044 0 41.79-18.746 41.79-41.79v-275.207-61.186c0-23.044-18.746-41.79-41.79-41.79h-406.722c-23.044 0-41.79 18.746-41.79 41.79v61.187 275.206c0 23.043 18.746 41.79 41.79 41.79zm-32.176-378.183c0-17.742 14.435-32.177 32.177-32.177h406.722c17.742 0 32.177 14.435 32.177 32.177v56.38h-471.076zm0 65.993h471.075v270.399c0 17.742-14.435 32.177-32.177 32.177h-406.722c-17.742 0-32.177-14.435-32.177-32.177v-270.399z"/><path d="m72.414 75.472c-13.472 0-24.431 10.961-24.431 24.433s10.959 24.431 24.431 24.431c13.496 0 24.476-10.959 24.476-24.431s-10.981-24.433-24.476-24.433zm0 39.251c-8.17 0-14.817-6.647-14.817-14.817 0-8.173 6.647-14.82 14.817-14.82 8.194 0 14.862 6.647 14.862 14.82-.001 8.17-6.669 14.817-14.862 14.817z"/><path d="m133.025 75.472c-13.472 0-24.431 10.961-24.431 24.433s10.959 24.431 24.431 24.431c13.498 0 24.478-10.959 24.478-24.431s-10.979-24.433-24.478-24.433zm0 39.251c-8.17 0-14.817-6.647-14.817-14.817 0-8.173 6.647-14.82 14.817-14.82 8.196 0 14.864 6.647 14.864 14.82.001 8.17-6.668 14.817-14.864 14.817z"/><path d="m193.64 75.472c-13.472 0-24.431 10.961-24.431 24.433s10.959 24.431 24.431 24.431c13.496 0 24.476-10.959 24.476-24.431s-10.981-24.433-24.476-24.433zm0 39.251c-8.17 0-14.817-6.647-14.817-14.817 0-8.173 6.647-14.82 14.817-14.82 8.194 0 14.862 6.647 14.862 14.82-.001 8.17-6.669 14.817-14.862 14.817z"/><path d="m439.542 75.472h-140.393c-13.496 0-24.476 10.961-24.476 24.433s10.98 24.431 24.476 24.431h140.393c13.496 0 24.476-10.959 24.476-24.431s-10.98-24.433-24.476-24.433zm0 39.251h-140.393c-8.194 0-14.862-6.647-14.862-14.817 0-8.173 6.668-14.82 14.862-14.82h140.393c8.194 0 14.862 6.647 14.862 14.82 0 8.17-6.668 14.817-14.862 14.817z"/><path d="m78.943 309.052h143.683c9.947 0 18.038-8.09 18.038-18.038v-85.576c0-9.947-8.09-18.038-18.038-18.038h-143.683c-9.947 0-18.038 8.09-18.038 18.038v85.576c.001 9.947 8.091 18.038 18.038 18.038zm-8.424-103.614c0-4.645 3.779-8.424 8.424-8.424h143.683c4.645 0 8.424 3.779 8.424 8.424v85.576c0 4.645-3.779 8.424-8.424 8.424h-143.683c-4.645 0-8.424-3.779-8.424-8.424z"/><path d="m78.943 422.748h143.683c9.947 0 18.038-8.09 18.038-18.038v-40.884c0-9.947-8.09-18.038-18.038-18.038h-143.683c-9.947 0-18.038 8.091-18.038 18.038v40.884c.001 9.948 8.091 18.038 18.038 18.038zm-8.424-58.922c0-4.645 3.779-8.424 8.424-8.424h143.683c4.645 0 8.424 3.779 8.424 8.424v40.884c0 4.645-3.779 8.424-8.424 8.424h-143.683c-4.645 0-8.424-3.779-8.424-8.424z"/><path d="m324.083 422.769h108.974c9.947 0 18.038-8.091 18.038-18.038v-199.293c0-9.947-8.091-18.038-18.038-18.038h-108.974c-9.947 0-18.038 8.09-18.038 18.038v199.293c0 9.948 8.091 18.038 18.038 18.038zm-8.424-217.331c0-4.645 3.779-8.424 8.424-8.424h108.974c4.645 0 8.424 3.779 8.424 8.424v199.293c0 4.645-3.779 8.424-8.424 8.424h-108.974c-4.645 0-8.424-3.779-8.424-8.424z"/></g></g><g id="Layer_1"/></svg>