<svg id="Layer_1" enable-background="new 0 0 55 55" height="512" viewBox="0 0 55 55" width="512" xmlns="http://www.w3.org/2000/svg"><g id="_x34_6"><g><g><path d="m37.5231781 40.3329391c-.7400513-.4299927-2.1600342-.5900269-3.8400269-.4500122l.5528717-2.4179916c-.0733032-.3456421 3.0237885-.419838 3.0074921-.7836685-.1348877-3.0113525 2.5723877-5.6633301 5.5012207-5.822998.2831421-.1413574.5530396-.2997437.8240967-.4616089.6053467-.5969238 1.3247681-1.0216064 2.0942993-1.3001099v-.3135986l-.0199585-22.3599849c0-.6100464-.2400513-1.0300293-.6100464-1.2000122.0300293 0 .0500488.0199585.0800171.0299683l-2.7700195-1.6300051c-.3299561-.1999512-.789978-.1599731-1.2999878.1300049l-29.8900146 17.25c-.9899902.5900269-1.8199463 2-1.8199463 3.1500244l.0599976 22.3699951v.0100098l.0028076.5861206c.1582642-.0552979.3164673-.109436.4758301-.1652222.8525391-.2983398 1.8123169-.4728394 2.7058105-.432312 2.1077271.0956421 5.1918201-2.0309372 6.2122669-.4311447l3.2732677.5025558c-.0499878.2099609-.0700073.4199829-.0700073.6199951v1.9500122c0 .6900024.2999878 1.25.8699951 1.5899658 1.7999878 1.0400391 6.5100098-.0100098 10.5700073-2.3499756 2.9899902-1.7299805 4.7800293-3.1600342 4.7800293-4.4799805v-2.4700317c0-.4600222-.2200317-.8499758-.6900024-1.1199954z" fill="#1d2943"/></g></g><g><g><g><g><g><path d="m42.341053 3.6230731c-.3271637-.1962554-.7851563-.157037-1.2955513.1309094l-29.8896961 17.2480584c-.9945173.5889015-1.8189878 2.0021935-1.8189878 3.1538143l.0523367 22.3694019.0000811.0105476 3.2244778 1.8634682v-.309166l.4367046-22.3043003c0-1.1516209.1417704-2.1389885 1.1493788-2.7147999l29.6627558-17.4204687c.4973068-.3009696.9383202-.5633183 1.2523804-.3931904z" fill="#4c5c75"/></g><g><g><g><g><g><g><path d="m26.9808998 41.4500122-2.48176-1.4422417 6.2171593-3.5894813 2.48176 1.4422417z" fill="#4e5161"/></g></g><g><g enable-background="new"><g><g><g><path d="m21.9913464 47.2175407.002636 1.9494629c.0019341.6875839.2967682 1.2499428.8697777 1.5829391 1.7989712 1.0454483 6.5119781-.0083237 10.5680676-2.3501053 2.9936523-1.7283859 4.7844162-3.1564331 4.7806778-4.4756279l-.002594-2.470047c.0037117 1.3191795-1.7870522 3.2678566-4.7807045 4.9962425-4.0560913 2.3417854-8.7690964 3.3955536-10.5680695 2.3501053-.5730077-.3329963-.8678418-.8953513-.8697911-1.5829696z" fill="#1d2943"/></g></g></g><g><g><g><path d="m26.0462189 42.1598816c-4.0560913 2.3417854-4.969656 5.60355-3.1850815 6.6406288 1.7989731 1.0454483 6.5119781-.0083199 10.5680695-2.3501053 4.0415497-2.3333893 5.8907127-5.0682907 4.0917397-6.113739-1.7845765-1.0370827-7.4331761-.5101738-11.4747277 1.8232155z" fill="#4c5c75"/></g></g></g></g></g><g><g><g><path d="m27.0057793 47.2728806-2.2883549-1.3298455-.0248795-7.4592666 2.2883549 1.3298454z" fill="#c9cee2"/></g></g></g><g><g><g><path d="m33.1980591 36.2241364.0248794 7.4592628-6.2171592 3.5894814-.0248795-7.4592667z" fill="#f3f1fc"/></g></g></g><g><g><path d="m21.3610554 44.6009293 10.6845989-6.2092095 1.9102402 1.2563629-10.684597 6.2092095z" fill="#eaf0f6"/></g></g><g><g><path d="m45.6603966 28.7804356-33.5125284 19.3610706-.0600996-22.3526669c0-1.151619.8238306-2.5663967 1.8309975-3.155159l29.8912162-17.2467551c1.0071564-.5887623 1.8309975-.1186266 1.8309975 1.0330453z" fill="#1d2943"/></g><g><path d="m13.4241276 25.7847614c0-.6733894.5681171-1.6461697 1.1690769-1.9974365l29.711628-17.1431255.018486 21.3654881-30.8415528 17.8236942z" fill="#fff"/></g><g><path d="m13.4291515 27.5423241.0525904 18.2910766 30.8415995-17.8237018-.0158501-18.3122654z" fill="#fff"/><path d="m44.304821 6.6441922-29.711628 17.1431198c-.6009254.3512726-1.1690865 1.3240662-1.1690865 1.9974651l.0050449 1.7575474 30.8783399-17.844891z" fill="#72d561"/></g></g></g></g></g></g><g><g><path d="m9.4022312 48.5929451c0 .5758133.196269.9814949.5365248 1.1908417l.7057152.3924294 2.0449467 1.2136917c-.3271656-.1832314-.0626001-.6431961-.0757046-1.2190094v-1.7716255l-3.2244778-1.8634682z" fill="#dedffb"/></g></g><g><g><path d="m45.6631317 28.7829514.0036812 2.0742226c.0032921 1.1610374-.812252 2.5735741-1.8226624 3.1569366l-29.8503694 17.2341194c-1.015892.586525-1.8367682.1187744-1.8400593-1.042263l-.0058861-2.0760193z" fill="#e9e7fc"/></g></g><g><g><path d="m29.8080559 39.9909744c0 .6185112-.4329758 1.3451729-.9586258 1.6544304-.5257454.3092537-.9586277.0619049-.9586277-.5411301 0-.6185112.4174061-1.3606491.9586277-1.6699028.52565-.2937812.9586258-.0463371.9586258.5566025z" fill="#555"/></g></g></g></g><g><path d="m38.0449638 21.4851093c.0097313 1.3420506-.9530296 2.9953079-2.1200409 3.6663342l-7.4395695 4.2984219c.8654785-.495924 1.5754414-1.6921349 1.6143208-2.7035122 0-.0292034.0097332-.0680809.0097332-.0972843-.0097332-.7585182-.408432-1.1766853-.972496-1.147541-.1847782.0194702-.3890228.077816-.6126785.1945114.0583477-.1945114.077816-.3695526.077816-.5348606 0-.8071899-.5737991-1.1378059-1.2739697-.7293739-.077816.0486126-.155632.0972252-.2333889.1555729-.0389385-.0680218-.0778179-.1264286-.1264305-.1750412-.0875511-.0777569-.1750431-.1458397-.2820625-.1945114.3695545-.8168659.9724979-1.5559731 1.6629925-1.9449959.3986988-.2333908.7779865-.3111477 1.0891933-.2625332.3112049-1.3906651 1.2837029-2.8396778 2.4312439-3.5107021.9724979-.5543308 1.8088322-.408493 2.2464657.2722683.0875511-.0680828.1945114-.1361637.2820053-.1847782.9336166-.5348606 1.6824608-.1166935 1.6824608.9433537.0097351.2139225-.0292053.4473114-.0972862.7001705 1.1378631-.6126787 2.0616912-.068083 2.0616912 1.2545011z" fill="#dedffb"/><path d="m39.2229576 25.6692524.0067253 2.7824421-20.7051945 11.9541473-.0067214-2.7824402z" fill="#986ff9"/><path d="m30.3688202 31.4909592-11.4625855 6.6191406.0097046 1.4684448 11.4528809-6.6135254z" fill="#fff"/><path d="m25.3907413 24.3821983c.4982433-.2876606.9529266-.3294353 1.2964211-.167141.1027164.0486012.1957321.1152458.276701.199297.0495586.0514126.0946827.1091843.1349945.1732063.0758743-.0596962.1517696-.1114616.2276878-.1552925.6970711-.4024544 1.2717896-.0749416 1.2740593.7260475.0004959.1744728-.0197201.3529549-.0745239.5355434.2189846-.1159801.425375-.1766911.6132011-.1874638.5657253-.0324593.9635372.3872509.9656792 1.1426334.0000916.0322151-.0005684.0646496-.0018806.0972729-.0409679 1.0114288-.7522526 2.2048626-1.6147366 2.7028179l-7.1915951 4.1520691c-.9041405.522007-1.6311874.107708-1.6341095-.9232826-.0027657-.975462.6506119-2.1549892 1.4786091-2.7124672-.0028343-.9992599.691946-2.2106361 1.5615883-2.7127247.3036728-.1753254.5869045-.2355785.8289604-.200573.2389546-1.0594233.9824658-2.1639078 1.8589439-2.6699427z" fill="#febc1f"/></g><g><g><g><path d="m16.0087357 23.6764965c.4538651-.2620392.823555-.0565376.8250351.4649868.0014782.5215263-.3658409 1.1525402-.819706 1.4145794s-.8190451.0539341-.8205233-.4675922c-.0014791-.5215264.3613291-1.1499348.8151942-1.411974z" fill="#fff"/></g><g><path d="m19.0869312 21.8992996c.4538956-.2620564.823555-.0565376.8250332.4649887.0014782.5215244-.3658104 1.1525211-.819706 1.4145775-.4538651.2620392-.8190441.0539341-.8205223-.4675922-.0014782-.5215245.3613301-1.1499348.8151951-1.411974z" fill="#fff"/></g><g><ellipse cx="22.172" cy="21.059" fill="#fff" rx="1.153" ry=".668" transform="matrix(.502 -.865 .865 .502 -7.176 29.648)"/></g></g></g></g><g><path d="m13.9537067 23.8957005c-.5024395 0-.9611902.2184429-1.2815876.5607052-.3203964.3567963-.5243053.83008-.5243053 1.3762093 0-1.0703888-.808259-1.9369144-1.8058491-1.9369144.4951506 0 .9539022-.2257309 1.2815876-.5679951.3131075-.3495064.5242615-.8446579.5242615-1.3762074 0 .5315495.2039089 1.026701.5243053 1.3762074.3203974.3422641.7791481.567995 1.2815876.567995z" fill="#fff"/></g></g></g></svg>