<svg id="Layer_2" enable-background="new 0 0 60 60" viewBox="0 0 60 60" xmlns="http://www.w3.org/2000/svg"><g><g><path d="m53 28h-30c-.5527344 0-1-.4477539-1-1s.4472656-1 1-1h30c.5527344 0 1 .4477539 1 1s-.4472656 1-1 1z"/></g><g><path d="m53 34h-30c-.5527344 0-1-.4477539-1-1s.4472656-1 1-1h30c.5527344 0 1 .4477539 1 1s-.4472656 1-1 1z"/></g><g><path d="m53 46h-30c-.5527344 0-1-.4477539-1-1s.4472656-1 1-1h30c.5527344 0 1 .4477539 1 1s-.4472656 1-1 1z"/></g><g><path d="m53 52h-30c-.5527344 0-1-.4477539-1-1s.4472656-1 1-1h30c.5527344 0 1 .4477539 1 1s-.4472656 1-1 1z"/></g><g><path d="m53 10h-30c-.5527344 0-1-.4477539-1-1s.4472656-1 1-1h30c.5527344 0 1 .4477539 1 1s-.4472656 1-1 1z"/></g><g><path d="m53 16h-30c-.5527344 0-1-.4477539-1-1s.4472656-1 1-1h30c.5527344 0 1 .4477539 1 1s-.4472656 1-1 1z"/></g><g><path d="m7 7h10v10h-10z" fill="#f4d2b1"/><path d="m17 18h-10c-.5527344 0-1-.4477539-1-1v-10c0-.5522461.4472656-1 1-1h10c.5527344 0 1 .4477539 1 1v10c0 .5522461-.4472656 1-1 1zm-9-2h8v-8h-8z"/></g><g><path d="m7 25h10v10h-10z" fill="#52c392"/><path d="m17 36h-10c-.5527344 0-1-.4477539-1-1v-10c0-.5522461.4472656-1 1-1h10c.5527344 0 1 .4477539 1 1v10c0 .5522461-.4472656 1-1 1zm-9-2h8v-8h-8z"/></g><g><path d="m7 43h10v10h-10z" fill="#e3334f"/><path d="m17 54h-10c-.5527344 0-1-.4477539-1-1v-10c0-.5522461.4472656-1 1-1h10c.5527344 0 1 .4477539 1 1v10c0 .5522461-.4472656 1-1 1zm-9-2h8v-8h-8z"/></g></g></svg>