<svg enable-background="new 0 0 128 128" viewBox="0 0 128 128" xmlns="http://www.w3.org/2000/svg"><g id="Layer_1" display="none"><g id="XMLID_3710_" display="inline" fill="none" stroke="#000" stroke-miterlimit="10" stroke-width=".1"><path id="XMLID_3773_" d="m0 0h128v128h-128z"/><path id="XMLID_3772_" d="m0 124h128"/><path id="XMLID_3771_" d="m0 120h128"/><path id="XMLID_3770_" d="m0 116h128"/><path id="XMLID_3769_" d="m0 112h128"/><path id="XMLID_3768_" d="m0 108h128"/><path id="XMLID_3767_" d="m0 104h128"/><path id="XMLID_3766_" d="m0 100h128"/><path id="XMLID_3765_" d="m0 96h128"/><path id="XMLID_3764_" d="m0 92h128"/><path id="XMLID_3763_" d="m0 88h128"/><path id="XMLID_3762_" d="m0 84h128"/><path id="XMLID_3761_" d="m0 80h128"/><path id="XMLID_3760_" d="m0 76h128"/><path id="XMLID_3759_" d="m0 72h128"/><path id="XMLID_3758_" d="m0 68h128"/><path id="XMLID_3757_" d="m0 64h128"/><path id="XMLID_3756_" d="m0 60h128"/><path id="XMLID_3755_" d="m0 56h128"/><path id="XMLID_3754_" d="m0 52h128"/><path id="XMLID_3753_" d="m0 48h128"/><path id="XMLID_3752_" d="m0 44h128"/><path id="XMLID_3751_" d="m0 40h128"/><path id="XMLID_3750_" d="m0 36h128"/><path id="XMLID_3749_" d="m0 32h128"/><path id="XMLID_3748_" d="m0 28h128"/><path id="XMLID_3747_" d="m0 24h128"/><path id="XMLID_3746_" d="m0 20h128"/><path id="XMLID_3745_" d="m0 16h128"/><path id="XMLID_3744_" d="m0 12h128"/><path id="XMLID_3743_" d="m0 8h128"/><path id="XMLID_3742_" d="m0 4h128"/><path id="XMLID_3741_" d="m124 0v128"/><path id="XMLID_3740_" d="m120 0v128"/><path id="XMLID_3739_" d="m116 0v128"/><path id="XMLID_3738_" d="m112 0v128"/><path id="XMLID_3737_" d="m108 0v128"/><path id="XMLID_3736_" d="m104 0v128"/><path id="XMLID_3735_" d="m100 0v128"/><path id="XMLID_3734_" d="m96 0v128"/><path id="XMLID_3733_" d="m92 0v128"/><path id="XMLID_3732_" d="m88 0v128"/><path id="XMLID_3731_" d="m84 0v128"/><path id="XMLID_3730_" d="m80 0v128"/><path id="XMLID_3729_" d="m76 0v128"/><path id="XMLID_3728_" d="m72 0v128"/><path id="XMLID_3727_" d="m68 0v128"/><path id="XMLID_3726_" d="m64 0v128"/><path id="XMLID_3725_" d="m60 0v128"/><path id="XMLID_3724_" d="m56 0v128"/><path id="XMLID_3723_" d="m52 0v128"/><path id="XMLID_3722_" d="m48 0v128"/><path id="XMLID_3721_" d="m44 0v128"/><path id="XMLID_3720_" d="m40 0v128"/><path id="XMLID_3719_" d="m36 0v128"/><path id="XMLID_3718_" d="m32 0v128"/><path id="XMLID_3717_" d="m28 0v128"/><path id="XMLID_3716_" d="m24 0v128"/><path id="XMLID_3715_" d="m20 0v128"/><path id="XMLID_3714_" d="m16 0v128"/><path id="XMLID_3713_" d="m12 0v128"/><path id="XMLID_3712_" d="m8 0v128"/><path id="XMLID_3711_" d="m4 0v128"/></g></g><g id="Layer_2" display="none"/><g id="Layer_3"><g><g id="XMLID_2164_"><g id="art_board_47_49_"><g id="artboard_10_49_" style="fill:none;stroke:#046799;stroke-width:4;stroke-linecap:round;stroke-linejoin:round;stroke-miterlimit:10"><path id="XMLID_8532_" d="m76.9 102.7h-73.1v-85.6h106.6v51.8"/><path id="XMLID_8531_" d="m5 38.9h104.2"/><path id="XMLID_8530_" d="m10 28.4h62.1"/><path id="XMLID_8529_" d="m102.3 27.6h.8v.8h-.8z"/><path id="XMLID_8528_" d="m92.1 27.6h.8v.8h-.8z"/><path id="XMLID_8527_" d="m81 27.6h.8v.8h-.8z"/></g></g></g><g id="XMLID_2089_"><g id="XMLID_2092_"><path id="XMLID_2162_" d="m92.4 97.1c-4.2 0-7.6-3.4-7.6-7.6s3.4-7.6 7.6-7.6 7.6 3.4 7.6 7.6-3.4 7.6-7.6 7.6z" style="fill:none;stroke:#04689a;stroke-width:4;stroke-linecap:round;stroke-linejoin:round;stroke-miterlimit:10"/><path id="XMLID_2160_" d="m92.4 113.3c-13.1 0-23.8-10.7-23.8-23.8s10.7-23.8 23.8-23.8 23.8 10.7 23.8 23.8-10.7 23.8-23.8 23.8z" fill="#45b978"/><g style="fill:none;stroke-width:4;stroke-linecap:round;stroke-linejoin:round;stroke-miterlimit:10;stroke:#fff"><path id="XMLID_2159_" d="m92.4 105.7c-8.9 0-16.1-7.3-16.1-16.1s7.3-16.1 16.1-16.1 16.1 7.3 16.1 16.1-7.2 16.1-16.1 16.1z"/><path id="XMLID_2157_" d="m92.4 94.7c-2.9 0-5.2-2.3-5.2-5.2s2.3-5.2 5.2-5.2 5.2 2.3 5.2 5.2-2.3 5.2-5.2 5.2z"/></g></g><g fill="none" stroke="#45b978" stroke-linecap="round" stroke-miterlimit="10" stroke-width="4"><path id="XMLID_2091_" d="m118.4 59.2.8 3.7 3.7 1-4.6 4.3-3.7-.9-.8-3.8z"/><path id="XMLID_2090_" d="m115.1 66.8-23.6 23.7"/></g></g></g></g></svg>