<svg clip-rule="evenodd" fill-rule="evenodd" height="7.111in" image-rendering="optimizeQuality" shape-rendering="geometricPrecision" text-rendering="geometricPrecision" viewBox="0 0 7111 7111" width="7.111in" xmlns="http://www.w3.org/2000/svg"><g id="Layer_x0020_1"><path d="m6184 6240h-5257c-511 0-927-416-927-927v-3515c0-511 416-927 927-927h5257c511 0 927 416 927 927v3515c0 511-416 927-927 927z" fill="#335f8c"/><path d="m981 1089c-410 0-745 334-745 745v3443c0 411 335 745 745 745h5149c411 0 745-334 745-745v-3443c0-411-334-745-745-745z" fill="#e9f1ff"/><path d="m1769 3048h-1088c-46 0-83-38-83-84s37-83 83-83h1088c46 0 83 37 83 83s-37 84-83 84z" fill="#25a753"/><path d="m1379 2447h-698c-46 0-83-37-83-83s37-83 83-83h698c46 0 83 37 83 83s-37 83-83 83z" fill="#fa3c48"/><path d="m1769 4227h-1088c-46 0-83-38-83-84s37-83 83-83h1088c46 0 83 37 83 83s-37 84-83 84z" fill="#ffb800"/><path d="m1379 4816h-698c-46 0-83-37-83-83s37-83 83-83h698c46 0 83 37 83 83s-37 83-83 83z" fill="#ff5329"/><path d="m1379 3639h-698c-46 0-83-37-83-83s37-84 83-84h698c46 0 83 38 83 84s-37 83-83 83z" fill="#9cc735"/><path d="m6430 3048h-1088c-46 0-83-38-83-84s37-83 83-83h1088c46 0 83 37 83 83s-37 84-83 84z" fill="#25a753"/><path d="m6430 2447h-698c-46 0-83-37-83-83s37-83 83-83h698c46 0 83 37 83 83s-37 83-83 83z" fill="#fa3c48"/><path d="m6430 4227h-1088c-46 0-83-38-83-84s37-83 83-83h1088c46 0 83 37 83 83s-37 84-83 84z" fill="#ffb800"/><path d="m6430 4816h-698c-46 0-83-37-83-83s37-83 83-83h698c46 0 83 37 83 83s-37 83-83 83z" fill="#ff5329"/><path d="m6430 3639h-698c-46 0-83-37-83-83s37-84 83-84h698c46 0 83 38 83 84s-37 83-83 83z" fill="#9cc735"/><path d="m3556 2010c-22 0-43-9-59-25l-596-596c-24-23-31-59-18-90 13-32 43-52 77-52h1191c34 0 64 20 77 52 13 31 6 67-18 90l-596 596c-16 16-37 25-58 25z" fill="#5684b9"/><path d="m4486 3930h-568c-46 0-83-37-83-83s37-84 83-84h568c46 0 83 38 83 84s-37 83-83 83z" fill="#ff5329"/><path d="m3193 3916h-568c-46 0-83-37-83-83s37-84 83-84h568c46 0 84 38 84 84s-38 83-84 83z" fill="#ffb800"/><g fill="#335f8c"><path d="m4587 5571h-2048c-46 0-84-37-84-83s38-84 84-84h2048c46 0 84 38 84 84s-38 83-84 83z"/><path d="m4315 5791c-24 0-48-10-64-31-29-36-24-88 12-117l192-155-192-155c-36-29-41-82-12-118 28-35 81-41 117-12l272 220c19 16 31 40 31 65s-12 49-31 65l-272 220c-16 12-34 18-53 18z"/><path d="m2796 5791c-19 0-37-6-53-18l-272-220c-19-16-31-40-31-65s12-49 31-65l272-220c36-29 89-23 118 12 29 36 23 89-13 118l-192 155 192 155c36 29 42 81 13 117-17 21-41 31-65 31z"/></g><path d="m6219 5571h-877c-46 0-83-37-83-83s37-84 83-84h877c70 0 128-57 128-128v-3441c0-71-58-128-128-128h-877c-46 0-83-38-83-84s37-83 83-83h877c162 0 294 132 294 295v3441c0 163-132 295-294 295zm-4450 0h-877c-162 0-294-132-294-295v-3441c0-163 132-295 294-295h877c46 0 83 37 83 83s-37 84-83 84h-877c-70 0-128 57-128 128v3441c0 71 58 128 128 128h877c46 0 83 38 83 84s-37 83-83 83z" fill="#5684b9"/><path d="m3563 3561c-46 0-84-38-84-84v-568c0-46 38-83 84-83s83 37 83 83v568c0 46-37 84-83 84z" fill="#fa3c48"/><path d="m3556 4285c-246 0-446-200-446-445 0-246 200-446 446-446 245 0 445 200 445 446 0 245-200 445-445 445z" fill="#5684b9"/><path d="m4761 2447c-46 0-84-38-84-84v-353h-2243v353c0 46-37 84-83 84s-84-38-84-84v-437c0-46 38-83 84-83h2410c46 0 83 37 83 83v437c0 46-37 84-83 84z" fill="#335f8c"/></g></svg>