<svg clip-rule="evenodd" fill-rule="evenodd" height="1.707in" image-rendering="optimizeQuality" shape-rendering="geometricPrecision" text-rendering="geometricPrecision" viewBox="0 0 1706.66 1706.66" width="1.707in" xmlns="http://www.w3.org/2000/svg" xmlns:xodm="http://www.corel.com/coreldraw/odm/2003"><g id="Layer_x0020_1"><g id="_2153726551472"><g><path d="m1611.47 1577.2h-1516.3c-52.43 0-95.07-42.65-95.07-95.09v-1257.58c0-52.43 42.65-95.07 95.07-95.07h1516.32c52.41 0 95.07 42.65 95.07 95.07v1257.58c-.02 52.43-42.66 95.09-95.09 95.09z" fill="#4682bf"/><path d="m833.36 129.46h40 738.13c52.41 0 95.07 42.65 95.07 95.07v196.89h-40.01-604.9c-25.52 19.22-50.01 40.25-109.36 0-20.3-13.27-38.65-29.28-54.53-47.5-30.83-35.38-52.35-79.1-60.64-127.28-2.23-12.96-3.51-90.19-3.76-117.19z" fill="#3f75ac"/><path d="m1666.55 421.43c-542.15 0-1084.3 0-1626.45 0v1060.69c0 30.37 24.7 55.07 55.07 55.07h1516.32c30.37 0 55.07-24.7 55.07-55.07z" fill="#d6e3ff"/><path d="m1159.62 295.44h-59.72c-11.04 0-20-8.96-20-20s8.97-20 20-20h59.72c11.04 0 20 8.96 20 20s-8.96 20-20 20z" fill="#fb505a"/><path d="m1348.15 295.44h-59.73c-11.04 0-20-8.96-20-20s8.97-20 20-20h59.73c11.04 0 20 8.96 20 20s-8.96 20-20 20z" fill="#9cc735"/><path d="m1536.67 295.44h-59.74c-11.04 0-20-8.96-20-20s8.97-20 20-20h59.74c11.04 0 20 8.96 20 20s-8.96 20-20 20z" fill="#fc0"/></g><path d="m785.3 958.29h-618.22c-11.04 0-20-8.97-20-20v-408.21c0-11.04 8.96-20 20-20h618.22c11.04 0 20 8.96 20 20v408.21c-.02 11.04-8.96 20-20 20z" fill="#fa3c48"/><g fill="#9dbcdd"><path d="m1539.56 586.19h-574.53c-11.04 0-20-8.96-20-20s8.97-20 20-20h574.53c11.04 0 20 8.96 20 20s-8.95 19.99-20 19.99z"/><path d="m1539.56 754.17h-574.53c-11.04 0-20-8.96-20-20s8.97-20 20-20h574.53c11.04 0 20 8.96 20 20s-8.95 19.99-20 19.99z"/><path d="m1539.56 922.19h-574.53c-11.04 0-20-8.97-20-20s8.97-20 20-20h574.53c11.04 0 20 8.97 20 20s-8.95 20-20 20z"/></g><path d="m1536.92 1448.55h-706.26c-11.04 0-20-8.97-20-20v-374.96c0-11.04 8.96-20 20-20h706.26c11.04 0 20 8.97 20 20v374.96c0 11.03-8.96 20-20 20z" fill="#25a753"/><path d="m686.18 1094.76h-515.72c-11.04 0-20-8.97-20-20s8.96-20 20-20h515.73c11.04 0 20 8.97 20 20s-8.96 20-20.01 20z" fill="#9dbcdd"/><path d="m686.18 1260.57h-515.72c-11.04 0-20-8.97-20-20s8.96-20 20-20h515.73c11.04 0 20 8.97 20 20s-8.96 20-20.01 20z" fill="#9dbcdd"/><path d="m686.18 1426.37h-515.72c-11.04 0-20-8.97-20-20s8.96-20 20-20h515.73c11.04 0 20 8.97 20 20s-8.96 20-20.01 20z" fill="#9dbcdd"/><path d="m422.56 859.51c-56.74 0-102.91-46.16-102.91-102.91v-127.76c0-11.04 8.96-20 20-20s20 8.96 20 20v127.76c0 34.69 28.22 62.91 62.91 62.91s62.91-28.22 62.91-62.91v-127.76c0-11.04 8.96-20 20-20s20 8.96 20 20v127.76c0 56.76-46.16 102.91-102.91 102.91z" fill="#fff"/><path d="m612.72 852.83c-11.04 0-20-8.96-20-20v-197.3c0-11.04 8.96-20 20-20s20 8.96 20 20v197.3c0 11.04-8.94 20-20 20z" fill="#fff"/></g></g></svg>