<svg id="Layer_1" height="512" viewBox="0 0 512 512" width="512" xmlns="http://www.w3.org/2000/svg" data-name="Layer 1"><path d="m470.788 97.088h-429.588a5.273 5.273 0 0 0 -5.2 5.212v254.562a5.211 5.211 0 0 0 5.194 5.144h429.594a5.2 5.2 0 0 0 5.195-5.144v-254.562a5.264 5.264 0 0 0 -5.195-5.215zm-5.208 254.487h-419.168v-244.056h419.168zm-445.18-259.631a10.462 10.462 0 0 1 10.4-10.5h450.4a10.462 10.462 0 0 1 10.4 10.5v285.709h-471.2zm146.1 296.068h179v14.432a4.411 4.411 0 0 1 -4.394 4.358h-170.216a4.41 4.41 0 0 1 -4.393-4.358v-14.432zm-166.5 0v21.288a21.278 21.278 0 0 0 21.226 21.219h469.546a21.274 21.274 0 0 0 21.228-21.219v-21.288h-156.088v14.432a14.808 14.808 0 0 1 -14.8 14.718h-170.222a14.8 14.8 0 0 1 -14.79-14.718v-14.432zm274.107-64.872a12.15 12.15 0 0 1 -12.238-12.14v-63.3a12.288 12.288 0 0 1 12.238-12.36h63.3a12.291 12.291 0 0 1 12.253 12.36v63.3a12.154 12.154 0 0 1 -12.253 12.145zm-1.836-75.446a1.873 1.873 0 0 1 1.836-1.858h63.3a1.872 1.872 0 0 1 1.851 1.858v63.306a1.811 1.811 0 0 1 -1.851 1.786h-63.3a1.812 1.812 0 0 1 -1.836-1.786v-63.3zm1.836-23.934a12.334 12.334 0 0 1 -12.238-12.36v-63.229a12.212 12.212 0 0 1 12.238-12.217h63.3a12.215 12.215 0 0 1 12.253 12.217v63.229a12.337 12.337 0 0 1 -12.253 12.36zm-1.836-75.589a1.827 1.827 0 0 1 1.836-1.857h63.3a1.826 1.826 0 0 1 1.851 1.857v63.229a1.826 1.826 0 0 1 -1.851 1.858h-63.3a1.827 1.827 0 0 1 -1.836-1.858zm-97.68 174.969a12.159 12.159 0 0 1 -12.253-12.14v-63.3a12.3 12.3 0 0 1 12.253-12.36h63.3a12.313 12.313 0 0 1 12.268 12.36v63.3a12.175 12.175 0 0 1 -12.268 12.145zm-1.843-75.446a1.884 1.884 0 0 1 1.843-1.858h63.3a1.887 1.887 0 0 1 1.858 1.858v63.306a1.826 1.826 0 0 1 -1.858 1.786h-63.3a1.822 1.822 0 0 1 -1.843-1.786v-63.3zm1.843-23.934a12.342 12.342 0 0 1 -12.253-12.36v-63.229a12.22 12.22 0 0 1 12.253-12.217h63.3a12.237 12.237 0 0 1 12.268 12.217v63.229a12.359 12.359 0 0 1 -12.268 12.36zm-1.843-75.589a1.837 1.837 0 0 1 1.843-1.857h63.3a1.84 1.84 0 0 1 1.858 1.857v63.229a1.84 1.84 0 0 1 -1.858 1.858h-63.3a1.837 1.837 0 0 1 -1.843-1.858z" fill="#4caf50" fill-rule="evenodd"/></svg>