<svg id="Layer_1" height="512" viewBox="0 0 512 512" width="512" xmlns="http://www.w3.org/2000/svg" data-name="Layer 1"><path d="m177.771 224.975h60.829a11.8 11.8 0 0 0 11.781-11.789v-60.8a11.8 11.8 0 0 0 -11.781-11.786h-60.829a11.8 11.8 0 0 0 -11.771 11.787v60.8a11.8 11.8 0 0 0 11.775 11.789zm0 95.593h60.829a11.742 11.742 0 0 0 11.781-11.717v-60.871a11.8 11.8 0 0 0 -11.781-11.788h-60.829a11.8 11.8 0 0 0 -11.771 11.788v60.871a11.736 11.736 0 0 0 11.775 11.717zm95.629-95.593h60.828a11.792 11.792 0 0 0 11.772-11.789v-60.8a11.792 11.792 0 0 0 -11.772-11.786h-60.828a11.791 11.791 0 0 0 -11.767 11.789v60.8a11.791 11.791 0 0 0 11.767 11.786zm0 95.593h60.828a11.731 11.731 0 0 0 11.772-11.717v-60.871a11.792 11.792 0 0 0 -11.774-11.788h-60.826a11.791 11.791 0 0 0 -11.767 11.788v60.871a11.73 11.73 0 0 0 11.767 11.717zm-263.4 62.3h150v13.861a14.206 14.206 0 0 0 14.211 14.146h163.575a14.206 14.206 0 0 0 14.214-14.146v-13.861h150v20.432a20.406 20.406 0 0 1 -20.4 20.362h-451.2a20.406 20.406 0 0 1 -20.4-20.362zm19.608-284.568a10.016 10.016 0 0 1 10-10h432.792a10.016 10.016 0 0 1 10 10v274.566h-452.792zm.792 335.366a30.433 30.433 0 0 1 -30.4-30.366v-25.433a4.984 4.984 0 0 1 5-5h14.613v-274.567a20.037 20.037 0 0 1 19.99-20h432.797a20.037 20.037 0 0 1 19.99 20v274.566h14.61a4.984 4.984 0 0 1 5 5v25.434a30.433 30.433 0 0 1 -30.4 30.364zm426.992-85.806h-402.792v-234.554h402.792zm5-244.556a5.024 5.024 0 0 1 4.994 5v244.557a4.979 4.979 0 0 1 -4.994 5h-412.792a4.988 4.988 0 0 1 -5-5v-244.556a5.034 5.034 0 0 1 5-5z" fill="#4caf50" fill-rule="evenodd"/></svg>