<svg id="Icons" height="512" viewBox="0 0 60 60" width="512" xmlns="http://www.w3.org/2000/svg"><path d="m15 1.28a2.811 2.811 0 0 1 1.24-.28h22.76a2.006 2.006 0 0 1 2 2v28.58l-5.79 23.42h-32.21a2.006 2.006 0 0 1 -2-2v-36.76a2.811 2.811 0 0 1 .28-1.24z" fill="#d7e5f4"/><circle cx="45" cy="45" fill="#3ac184" r="14"/><path d="m15 1.28v11.39a2.326 2.326 0 0 1 -2.33 2.33h-11.39a2.869 2.869 0 0 1 .6-.88l12.24-12.24a2.869 2.869 0 0 1 .88-.6z" fill="#9fbace"/><path d="m52 44h-6v-6a1 1 0 0 0 -2 0v6h-6a1 1 0 0 0 0 2h6v6a1 1 0 0 0 2 0v-6h6a1 1 0 0 0 0-2z" fill="#fff"/></svg>