<svg id="Layer_1" enable-background="new 0 0 512 512" height="512" viewBox="0 0 512 512" width="512" xmlns="http://www.w3.org/2000/svg"><g clip-rule="evenodd" fill-rule="evenodd"><circle cx="256" cy="256" fill="#66bb6a" r="256"/><g fill="#fffffe"><path d="m235.1 273.8v-125.9c-67.9 1.8-122.5 57.5-122.5 125.7 0 69.4 56.5 125.8 125.8 125.8 37.3 0 72.2-16.2 96.1-44.7l-98.2-78.4c-.9-.7-1.2-1.5-1.2-2.5z"/><path d="m399.5 235.1c-1.7-66.8-55.7-120.8-122.5-122.5v122.5z"/><path d="m301 291.4 8.2-14.4h-26.2z"/><path d="m349.9 277h-33l-10.7 18.5 22.6 18z"/><path d="m398 277-36.3 62.9 12.3 9.8c15.8-20.9 24.8-46.5 25.5-72.7z"/><path d="m357.5 277-23.5 40.6 22.5 18.2 34-58.8z"/></g></g></svg>