<svg height="512pt" viewBox="-82 0 512 512.00009" width="512pt" xmlns="http://www.w3.org/2000/svg"><path d="m276.71875 171.480469-59.449219-12.308594 31.105469-150.207031c1.261719-6.078125 7.210938-9.988282 13.292969-8.730469l37.429687 7.753906c6.082032 1.257813 9.988282 7.207031 8.730469 13.289063zm0 0" fill="#7af4ab"/><path d="m307.820312 21.277344-31.105468 150.203125-24.222656-5.015625 31.109374-150.203125c1.257813-6.078125-2.640624-12.027344-8.730468-13.289063l24.222656 5.015625c6.085938 1.261719 9.988281 7.210938 8.726562 13.289063zm0 0" fill="#09d692"/><path d="m186.574219 204.242188-62.113281-62.113282c-4.390626-4.394531-4.390626-11.511718 0-15.902344l62.113281-62.113281c4.390625-4.390625 11.507812-4.390625 15.898437 0l62.117188 62.113281c4.390625 4.390626 4.390625 11.507813 0 15.902344l-62.117188 62.113282c-4.386718 4.390624-11.507812 4.390624-15.898437 0zm0 0" fill="#ffc26d"/><path d="m172.332031 218.480469-62.113281-62.113281c-4.390625-4.390626-4.390625-11.507813 0-15.898438l62.113281-62.113281c4.390625-4.390625 11.511719-4.390625 15.902344 0l62.113281 62.113281c4.390625 4.390625 4.390625 11.507812 0 15.898438l-62.113281 62.113281c-4.390625 4.394531-11.511719 4.394531-15.902344 0zm0 0" fill="#ffc26d"/><path d="m264.589844 142.125-14.246094 14.242188c4.394531-4.394532 4.394531-11.511719 0-15.894532l-62.109375-62.121094c-4.394531-4.394531-11.511719-4.394531-15.894531 0l14.230468-14.242187c4.398438-4.386719 11.515626-4.386719 15.898438 0l62.121094 62.117187c4.394531 4.386719 4.394531 11.511719 0 15.898438zm0 0" fill="#ffb54e"/><path d="m147.878906 156h-87.84375c-6.210937 0-11.242187-5.035156-11.242187-11.246094v-87.839844c0-6.210937 5.03125-11.242187 11.242187-11.242187h87.84375c6.207032 0 11.242188 5.03125 11.242188 11.242187v87.84375c0 6.207032-5.03125 11.242188-11.242188 11.242188zm0 0" fill="#ff5a96"/><path d="m159.117188 56.914062v87.839844c0 6.207032-5.027344 11.246094-11.246094 11.246094h-23.980469c6.207031 0 11.246094-5.039062 11.246094-11.246094v-87.839844c0-6.207031-5.039063-11.242187-11.246094-11.242187h23.980469c6.21875 0 11.246094 5.035156 11.246094 11.242187zm0 0" fill="#ff3b82"/><path d="m331.890625 146.417969-28.097656 314.832031-3.621094 40.507812c-.527344 5.789063-5.382813 10.242188-11.207031 10.242188h-229.011719c-5.8125 0-10.683594-4.453125-11.199219-10.242188l-3.621094-40.507812-28.097656-314.832031c-.582031-6.574219 4.601563-12.242188 11.199219-12.242188h292.457031c6.597656 0 11.78125 5.667969 11.199219 12.242188zm0 0" fill="#7eadde"/><path d="m331.890625 146.417969-28.097656 314.832031-3.621094 40.507812c-.527344 5.789063-5.386719 10.242188-11.207031 10.242188h-29.300782c5.824219 0 10.679688-4.453125 11.207032-10.242188l3.621094-40.507812 28.097656-314.828125c.582031-6.578125-4.601563-12.246094-11.199219-12.246094h29.300781c6.597656 0 11.78125 5.667969 11.199219 12.242188zm0 0" fill="#609cd6"/><path d="m303.792969 461.25-3.621094 40.507812c-.527344 5.789063-5.386719 10.242188-11.210937 10.242188h-229.007813c-5.8125 0-10.683594-4.453125-11.199219-10.242188l-3.621094-40.507812zm0 0" fill="#609cd6"/><path d="m303.792969 461.25-3.621094 40.507812c-.527344 5.789063-5.386719 10.242188-11.207031 10.242188h-29.300782c5.824219 0 10.679688-4.453125 11.207032-10.242188l3.621094-40.507812zm0 0" fill="#408ace"/><path d="m330.371094 157.230469h-311.816406c-10.246094 0-18.554688-8.308594-18.554688-18.554688 0-10.246093 8.308594-18.554687 18.554688-18.554687h311.816406c10.246094 0 18.554687 8.308594 18.554687 18.554687 0 10.246094-8.308593 18.554688-18.554687 18.554688zm0 0" fill="#8ecbfd"/><g fill="#609cd6"><path d="m236.238281 420.089844c-.246093 0-.496093-.011719-.746093-.035156-4.246094-.40625-7.359376-4.179688-6.953126-8.429688l19.617188-204.898438c.40625-4.246093 4.179688-7.351562 8.429688-6.953124 4.246093.40625 7.359374 4.179687 6.953124 8.425781l-19.617187 204.898437c-.382813 4-3.746094 6.992188-7.683594 6.992188zm0 0"/><path d="m112.6875 420.089844c-3.9375 0-7.300781-2.992188-7.683594-6.992188l-19.617187-204.898437c-.40625-4.246094 2.707031-8.019531 6.957031-8.425781 4.238281-.40625 8.019531 2.703124 8.425781 6.953124l19.621094 204.898438c.40625 4.246094-2.707031 8.019531-6.957031 8.429688-.25.023437-.5.035156-.746094.035156zm0 0"/><path d="m174.464844 428.898438c-4.269532 0-7.726563-3.460938-7.726563-7.726563v-222.519531c0-4.265625 3.457031-7.726563 7.726563-7.726563 4.265625 0 7.722656 3.460938 7.722656 7.726563v222.519531c0 4.269531-3.457031 7.726563-7.722656 7.726563zm0 0"/></g><path d="m338.0625 86.535156c-4.269531 0-7.773438-3.460937-7.773438-7.726562s3.410157-7.726563 7.675782-7.726563h.097656c4.265625 0 7.726562 3.460938 7.726562 7.726563s-3.460937 7.726562-7.726562 7.726562zm0 0" fill="#db885d"/><path d="m17.039062 53.394531c-4.269531 0-7.773437-3.457031-7.773437-7.722656 0-4.269531 3.410156-7.726563 7.675781-7.726563h.097656c4.269532 0 7.726563 3.457032 7.726563 7.726563 0 4.265625-3.457031 7.722656-7.726563 7.722656zm0 0" fill="#db885d"/><path d="m210.195312 17.511719c-4.265624 0-7.773437-3.457031-7.773437-7.726563 0-4.265625 3.410156-7.722656 7.679687-7.722656h.09375c4.269532 0 7.726563 3.457031 7.726563 7.722656 0 4.269532-3.457031 7.726563-7.726563 7.726563zm0 0" fill="#db885d"/></svg>