<svg id="Layer_1" enable-background="new 0 0 512 512" height="512" viewBox="0 0 512 512" width="512" xmlns="http://www.w3.org/2000/svg"><g><g><g><g><path d="m487.63 294.532h-364.467c-9.317 0-16.87-7.553-16.87-16.87v-253.292c0-9.317 7.553-16.87 16.87-16.87h364.467c9.317 0 16.87 7.553 16.87 16.87v253.293c0 9.316-7.553 16.869-16.87 16.869z" fill="#a1ffa1"/></g><path d="m487.63 7.5h-40c9.317 0 16.87 7.553 16.87 16.87v253.293c0 9.317-7.553 16.87-16.87 16.87h40c9.317 0 16.87-7.553 16.87-16.87v-253.293c0-9.317-7.553-16.87-16.87-16.87z" fill="#8ef58e"/><path d="m504.5 24.37c0-9.317-7.553-16.87-16.87-16.87h-295.25l31.67 46.039c3.147 4.575 8.345 7.309 13.899 7.309h266.551z" fill="#fff9e9"/><path d="m487.63 7.5h-40c9.317 0 16.87 7.553 16.87 16.87v36.478h40v-36.478c0-9.317-7.553-16.87-16.87-16.87z" fill="#fff4d6"/></g><g><g><path d="m388.63 400.532h-364.467c-9.317 0-16.87-7.553-16.87-16.87v-253.292c0-9.317 7.553-16.87 16.87-16.87h364.467c9.317 0 16.87 7.553 16.87 16.87v253.293c0 9.316-7.553 16.869-16.87 16.869z" fill="#ffabe7"/></g><path d="m388.63 113.5h-40c9.317 0 16.87 7.553 16.87 16.87v253.293c0 9.317-7.553 16.87-16.87 16.87h40c9.317 0 16.87-7.553 16.87-16.87v-253.293c0-9.317-7.553-16.87-16.87-16.87z" fill="#ff94e1"/><path d="m405.5 130.37c0-9.317-7.553-16.87-16.87-16.87h-295.249l31.67 46.039c3.147 4.575 8.345 7.309 13.899 7.309h266.55z" fill="#fff9e9"/><path d="m388.63 113.5h-40c9.317 0 16.87 7.553 16.87 16.87v36.478h40v-36.478c0-9.317-7.553-16.87-16.87-16.87z" fill="#fff4d6"/></g><g><g><path d="m438.234 504.5h-364.468c-9.317 0-16.87-7.553-16.87-16.87v-253.293c0-9.317 7.553-16.87 16.87-16.87h364.468c9.317 0 16.87 7.553 16.87 16.87v253.293c0 9.317-7.553 16.87-16.87 16.87z" fill="#fdf385"/><path d="m438.234 217.468h-40c9.317 0 16.87 7.553 16.87 16.87v253.292c0 9.317-7.553 16.87-16.87 16.87h40c9.317 0 16.87-7.553 16.87-16.87v-253.293c0-9.316-7.553-16.869-16.87-16.869z" fill="#faee6e"/><path d="m455.104 270.816h-266.55c-5.554 0-10.751-2.733-13.899-7.309l-31.67-46.039h295.25c9.317 0 16.87 7.553 16.87 16.87v36.478z" fill="#fff9e9"/><path d="m438.234 217.468h-40c9.317 0 16.87 7.553 16.87 16.87v36.478h40v-36.478c0-9.317-7.553-16.87-16.87-16.87z" fill="#fff4d6"/></g></g></g><g fill="#060606"><path d="m487.63 0h-364.467c-13.438 0-24.37 10.933-24.37 24.37v81.604c-24.808 0-49.616 0-74.423 0-13.438.001-24.37 10.932-24.37 24.37v253.293c0 13.438 10.932 24.37 24.37 24.37h25.027v79.623c0 13.438 10.932 24.37 24.37 24.37h364.468c13.438 0 24.37-10.933 24.37-24.37v-34.266c0-9.386-15-9.813-15 0v34.266c0 5.167-4.203 9.37-9.37 9.37h-364.469c-5.167 0-9.37-4.203-9.37-9.37v-253.292c0-5.167 4.203-9.37 9.37-9.37h65.274l29.435 42.789c4.547 6.611 12.053 10.559 20.079 10.559h259.05v136.348c0 9.386 15 9.813 15 0v-112.632h25.027c13.438 0 24.37-10.933 24.37-24.37v-253.292c-.001-13.437-10.933-24.37-24.371-24.37zm-438.234 234.338v158.669h-25.026c-5.167 0-9.37-4.203-9.37-9.37v-253.293c0-5.166 4.203-9.369 9.37-9.369h65.274l29.435 42.79c4.548 6.61 12.054 10.558 20.078 10.558h259.05v35.646h-324.441c-13.437-.001-24.37 10.931-24.37 24.369zm139.158 28.977c-3.085 0-5.971-1.518-7.72-4.06l-23.587-34.288h280.987c5.167 0 9.37 4.203 9.37 9.37v28.978zm308.446 14.347c0 5.167-4.203 9.37-9.37 9.37h-25.027v-52.694c0-13.438-10.932-24.37-24.37-24.37h-25.027v-79.624c0-13.438-10.932-24.369-24.37-24.369h-30.836c-9.386 0-9.813 15 0 15h30.837c5.167 0 9.37 4.203 9.37 9.369v28.979h-259.05c-3.085 0-5.971-1.518-7.72-4.06l-23.376-33.981c.335-.081.661-.183.976-.307h202.963c9.386 0 9.813-15 0-15h-198.207v-81.605c0-5.167 4.203-9.37 9.37-9.37h65.274l29.435 42.789c4.547 6.611 12.053 10.559 20.079 10.559h259.049zm0-224.314h-259.05c-3.085 0-5.972-1.518-7.72-4.06l-23.586-34.288h280.986c5.167 0 9.37 4.203 9.37 9.37z"/><path d="m172.081 30.419h-34.223c-4.142 0-7.5 3.357-7.5 7.5s3.358 7.5 7.5 7.5h34.223c4.142 0 7.5-3.357 7.5-7.5s-3.358-7.5-7.5-7.5z"/><path d="m73.288 136.393h-34.224c-4.142 0-7.5 3.357-7.5 7.5s3.358 7.5 7.5 7.5h34.223c4.142 0 7.5-3.357 7.5-7.5s-3.357-7.5-7.499-7.5z"/><path d="m88.461 240.387c-4.142 0-7.5 3.357-7.5 7.5s3.358 7.5 7.5 7.5h34.223c4.142 0 7.5-3.357 7.5-7.5s-3.358-7.5-7.5-7.5z"/></g></g></svg>