<?xml version="1.0" encoding="iso-8859-1"?>
<!-- Generator: Adobe Illustrator 19.0.0, SVG Export Plug-In . SVG Version: 6.00 Build 0)  -->
<svg version="1.1" id="Layer_1" xmlns="http://www.w3.org/2000/svg" xmlns:xlink="http://www.w3.org/1999/xlink" x="0px" y="0px"
	 viewBox="0 0 512 512" style="enable-background:new 0 0 512 512;" xml:space="preserve">
<path style="fill:#AAC9F7;" d="M72.758,471.579H29.642c-11.906,0-21.558-9.651-21.558-21.558V61.979
	c0-11.906,9.651-21.558,21.558-21.558h43.116V471.579z"/>
<path style="fill:#D4E8FF;" d="M444.629,396.126v86.232c0,11.906-9.651,21.558-21.558,21.558H78.145
	c-11.906,0-21.558-9.651-21.558-21.558V29.642c0-11.906,9.651-21.558,21.558-21.558h344.926c11.906,0,21.558,9.651,21.558,21.558
	v247.916"/>
<path style="fill:#81BC82;" d="M499.603,279.715L386.424,430.62c-4.071,5.428-10.461,8.623-17.246,8.623
	c-6.785,0-13.175-3.195-17.246-8.623l-48.505-64.674c-7.143-9.524-5.213-23.038,4.312-30.181c9.523-7.144,23.038-5.214,30.181,4.312
	l31.259,41.679l95.933-127.911c7.142-9.524,20.655-11.455,30.181-4.312C504.816,256.678,506.746,270.19,499.603,279.715z"/>
<path d="M175.163,409.6c4.466,0,8.084,3.618,8.084,8.084c0,4.466-3.618,8.084-8.084,8.084h-43.116c-4.466,0-8.084-3.618-8.084-8.084
	c0-4.466,3.618-8.084,8.084-8.084H175.163z M369.183,204.8h-10.779c-4.466,0-8.084,3.618-8.084,8.084s3.618,8.084,8.084,8.084
	h10.779c4.466,0,8.084-3.618,8.084-8.084S373.648,204.8,369.183,204.8z M312.595,256c0-4.466-3.618-8.084-8.084-8.084H132.047
	c-4.466,0-8.084,3.618-8.084,8.084s3.618,8.084,8.084,8.084H304.51C308.975,264.084,312.595,260.466,312.595,256z M258.7,374.568
	c0-4.466-3.618-8.084-8.084-8.084H132.047c-4.466,0-8.084,3.618-8.084,8.084c0,4.466,3.618,8.084,8.084,8.084h118.568
	C255.08,382.653,258.7,379.034,258.7,374.568z M191.331,140.126c-4.466,0-8.084,3.618-8.084,8.084c0,4.466,3.618,8.084,8.084,8.084
	H309.9c4.466,0,8.084-3.618,8.084-8.084c0-4.466-3.618-8.084-8.084-8.084H191.331z M296.966,370.797
	c-4.75-6.334-6.751-14.139-5.631-21.977c1.119-7.837,5.225-14.771,11.559-19.522c6.333-4.75,14.136-6.751,21.977-5.631
	c7.837,1.119,14.771,5.225,19.522,11.559l24.79,33.056l67.41-89.881c-0.028-0.278-0.043-0.558-0.043-0.843V29.642
	c0-7.43-6.044-13.474-13.474-13.474H78.154c-7.43,0-13.474,6.044-13.474,13.474v75.453c0,4.466-3.618,8.084-8.084,8.084
	s-8.084-3.618-8.084-8.084V48.505H29.648c-7.43,0-13.474,6.044-13.474,13.474v388.042c0,7.43,6.044,13.474,13.474,13.474h18.863
	V137.432c0-4.466,3.618-8.084,8.084-8.084s8.084,3.618,8.084,8.084v344.926c0,7.43,6.044,13.474,13.474,13.474h344.924
	c7.43,0,13.474-6.044,13.474-13.474v-86.232c0-4.466,3.618-8.084,8.084-8.084s8.084,3.618,8.084,8.084v86.232
	c0,16.344-13.298,29.642-29.642,29.642H78.154c-16.345,0-29.642-13.298-29.642-29.642v-2.695H29.648
	c-16.345,0-29.642-13.298-29.642-29.642V61.979c0-16.344,13.297-29.642,29.642-29.642h18.863v-2.695
	C48.511,13.298,61.808,0,78.154,0h344.924c16.344,0,29.642,13.298,29.642,29.642v227.259l5.93-7.906
	c9.805-13.076,28.422-15.734,41.498-5.93c13.077,9.809,15.736,28.425,5.93,41.5L392.898,435.471
	c-5.567,7.425-14.433,11.857-23.714,11.857c-9.281,0-18.145-4.432-23.713-11.858L296.966,370.797z M309.901,361.096l48.505,64.674
	c2.531,3.375,6.56,5.389,10.778,5.389c4.219,0,8.248-2.015,10.779-5.388c0-0.001,0-0.001,0-0.001l113.179-150.905
	c4.457-5.944,3.249-14.405-2.695-18.863c-5.944-4.457-14.406-3.25-18.863,2.695l-95.933,127.911
	c-1.526,2.036-3.924,3.234-6.467,3.234c-2.544,0-4.941-1.198-6.467-3.234l-31.258-41.679c-2.16-2.879-5.312-4.745-8.874-5.255
	c-0.647-0.092-1.292-0.138-1.934-0.138c-2.894,0-5.698,0.929-8.054,2.697c-2.88,2.161-4.746,5.313-5.256,8.874
	C306.832,354.669,307.741,358.217,309.901,361.096z M369.183,247.916h-10.779c-4.466,0-8.084,3.618-8.084,8.084
	s3.618,8.084,8.084,8.084h10.779c4.466,0,8.084-3.618,8.084-8.084S373.648,247.916,369.183,247.916z M132.047,220.968H304.51
	c4.466,0,8.084-3.618,8.084-8.084s-3.618-8.084-8.084-8.084H132.047c-4.466,0-8.084,3.618-8.084,8.084
	S127.581,220.968,132.047,220.968z M369.183,97.011H132.047c-4.466,0-8.084,3.618-8.084,8.084c0,4.466,3.618,8.084,8.084,8.084
	h237.136c4.466,0,8.084-3.618,8.084-8.084C377.267,100.629,373.648,97.011,369.183,97.011z"/>
<g>
</g>
<g>
</g>
<g>
</g>
<g>
</g>
<g>
</g>
<g>
</g>
<g>
</g>
<g>
</g>
<g>
</g>
<g>
</g>
<g>
</g>
<g>
</g>
<g>
</g>
<g>
</g>
<g>
</g>
</svg>
