<svg id="Capa_1" enable-background="new 0 0 512.031 512.031" height="512" viewBox="0 0 512.031 512.031" width="512" xmlns="http://www.w3.org/2000/svg"><g><g><path d="m303.019 504.515h-284.885c-5.873 0-10.634-4.761-10.634-10.634v-439.555c0-5.873 4.761-10.634 10.634-10.634h284.885c5.873 0 10.634 4.761 10.634 10.634v439.555c-.001 5.873-4.762 10.634-10.634 10.634z" fill="#e7e2e6"/><path d="m349.209 468.338h-284.885c-5.873 0-10.634-4.761-10.634-10.634v-439.555c0-5.873 4.761-10.634 10.634-10.634h284.885c5.873 0 10.634 4.761 10.634 10.634v439.555c0 5.873-4.761 10.634-10.634 10.634z" fill="#faf7f8"/><path d="m349.209 7.515h-22.1c5.873 0 10.634 4.761 10.634 10.634v439.555c0 5.873-4.761 10.634-10.634 10.634h22.1c5.873 0 10.634-4.761 10.634-10.634v-439.555c0-5.873-4.761-10.634-10.634-10.634z" fill="#f0eef0"/><path d="m285.934 85.707h-158.335c-5.642 0-10.216-4.574-10.216-10.216v-24.849c0-5.642 4.574-10.216 10.216-10.216h158.336c5.642 0 10.216 4.574 10.216 10.216v24.849c0 5.642-4.574 10.216-10.217 10.216z" fill="#6ce79a"/><path d="m285.935 40.426h-19.495c5.642 0 10.216 4.574 10.216 10.216v24.849c0 5.643-4.574 10.217-10.216 10.217h19.495c5.642 0 10.216-4.574 10.216-10.217v-24.849c0-5.642-4.574-10.216-10.216-10.216z" fill="#00d8a2"/><circle cx="385.536" cy="314.058" fill="#6ce79a" r="118.995"/><path d="m385.536 195.062c-4.609 0-9.154.271-13.626.781 59.301 6.762 105.37 57.104 105.37 118.214s-46.069 111.453-105.37 118.214c4.472.51 9.017.781 13.626.781 65.719 0 118.995-53.276 118.995-118.995.001-65.718-53.275-118.995-118.995-118.995z" fill="#00d8a2"/><g><path d="m366.713 367.651c-4.282 0-8.561-1.632-11.827-4.899l-36.086-36.087c-6.533-6.532-6.533-17.123 0-23.655 6.532-6.532 17.123-6.532 23.655 0l24.258 24.258 61.905-61.904c6.533-6.533 17.124-6.533 23.655 0 6.533 6.532 6.533 17.123 0 23.655l-73.733 73.732c-3.266 3.266-7.548 4.9-11.827 4.9z" fill="#faf7f8"/></g></g><g><path d="m285.935 93.207c9.77 0 17.717-7.947 17.717-17.716v-24.85c0-9.769-7.947-17.716-17.717-17.716h-158.336c-9.769 0-17.716 7.947-17.716 17.716v24.85c0 9.769 7.947 17.716 17.716 17.716zm-161.052-17.716v-24.85c0-1.497 1.219-2.716 2.716-2.716h158.336c1.498 0 2.717 1.219 2.717 2.716v24.85c0 1.497-1.219 2.716-2.717 2.716h-158.336c-1.497 0-2.716-1.219-2.716-2.716z"/><path d="m96.283 202.562h220.967c4.143 0 7.5-3.357 7.5-7.5s-3.357-7.5-7.5-7.5h-220.967c-4.143 0-7.5 3.357-7.5 7.5s3.358 7.5 7.5 7.5z"/><path d="m96.283 166.715h220.967c4.143 0 7.5-3.357 7.5-7.5s-3.357-7.5-7.5-7.5h-220.967c-4.143 0-7.5 3.357-7.5 7.5s3.358 7.5 7.5 7.5z"/><path d="m88.783 123.367c0 4.143 3.357 7.5 7.5 7.5h220.967c4.143 0 7.5-3.357 7.5-7.5s-3.357-7.5-7.5-7.5h-220.967c-4.142 0-7.5 3.358-7.5 7.5z"/><path d="m440.446 252.965c-6.471 0-12.555 2.521-17.132 7.097l-56.602 56.602-18.955-18.955c-4.575-4.576-10.659-7.097-17.131-7.097-6.471 0-12.555 2.521-17.13 7.096-4.577 4.576-7.098 10.66-7.098 17.131 0 6.472 2.521 12.556 7.097 17.131l36.085 36.084c4.574 4.577 10.658 7.098 17.132 7.098 6.472 0 12.556-2.521 17.131-7.096l73.731-73.731c4.577-4.576 7.098-10.66 7.098-17.131 0-6.472-2.521-12.556-7.096-17.129-4.574-4.579-10.658-7.1-17.13-7.1zm6.523 30.751-73.732 73.732c-1.742 1.742-4.059 2.702-6.523 2.702s-4.781-.959-6.523-2.703l-36.087-36.086c-1.743-1.742-2.703-4.059-2.703-6.523s.96-4.781 2.704-6.523c1.742-1.743 4.06-2.703 6.523-2.703 2.465 0 4.781.96 6.523 2.703l24.259 24.259c2.929 2.927 7.677 2.929 10.607 0l61.905-61.904c1.743-1.743 4.061-2.704 6.524-2.704s4.78.96 6.523 2.704c1.743 1.742 2.703 4.059 2.703 6.523.001 2.463-.959 4.781-2.703 6.523z"/><path d="m488.062 239.966c-2.429-3.355-7.12-4.104-10.473-1.678-3.355 2.429-4.106 7.118-1.678 10.473 13.817 19.087 21.12 41.666 21.12 65.297 0 61.479-50.017 111.495-111.495 111.495s-111.495-50.017-111.495-111.495 50.017-111.495 111.495-111.495c26.282 0 51.807 9.327 71.87 26.263 3.167 2.673 7.898 2.271 10.569-.894 2.672-3.165 2.271-7.897-.894-10.569-22.767-19.217-51.727-29.8-81.546-29.8-6.177 0-12.251.446-18.193 1.305v-170.72c0-9.998-8.135-18.133-18.134-18.133h-284.884c-9.999 0-18.134 8.135-18.134 18.133v18.044h-28.056c-9.999 0-18.134 8.135-18.134 18.134v36.001c0 4.143 3.357 7.5 7.5 7.5s7.5-3.357 7.5-7.5v-36.001c0-1.728 1.406-3.134 3.134-3.134h28.056v406.512c0 9.999 8.135 18.134 18.134 18.134h103.585c4.143 0 7.5-3.357 7.5-7.5s-3.357-7.5-7.5-7.5h-103.585c-1.728 0-3.134-1.406-3.134-3.134v-439.556c0-1.728 1.406-3.133 3.134-3.133h284.885c1.728 0 3.134 1.405 3.134 3.133v173.832c-20.974 5.709-39.796 16.692-54.949 31.429h-201.111c-4.143 0-7.5 3.357-7.5 7.5s3.357 7.5 7.5 7.5h187.929c-4.863 6.497-9.116 13.474-12.675 20.848h-175.254c-4.143 0-7.5 3.357-7.5 7.5s3.357 7.5 7.5 7.5h169.171c-2.232 6.719-3.915 13.686-4.996 20.848h-164.175c-4.143 0-7.5 3.357-7.5 7.5s3.357 7.5 7.5 7.5h162.819c-.041 1.312-.061 2.63-.061 3.952 0 5.728.383 11.367 1.124 16.896h-163.882c-4.143 0-7.5 3.357-7.5 7.5s3.357 7.5 7.5 7.5h166.831c1.882 7.219 4.387 14.188 7.454 20.848h-174.285c-4.143 0-7.5 3.357-7.5 7.5s3.357 7.5 7.5 7.5h182.467c4.791 7.525 10.354 14.511 16.577 20.848h-199.044c-4.143 0-7.5 3.357-7.5 7.5s3.357 7.5 7.5 7.5h216.732c11.796 8.283 25.064 14.604 39.327 18.486v21.57c0 1.728-1.406 3.134-3.134 3.134h-152.3c-4.143 0-7.5 3.357-7.5 7.5s3.357 7.5 7.5 7.5h109.243v18.043c0 1.729-1.406 3.135-3.134 3.135h-284.883c-1.728 0-3.134-1.406-3.134-3.135v-374.555c0-4.143-3.357-7.5-7.5-7.5s-7.5 3.357-7.5 7.5v374.554c0 10 8.135 18.135 18.134 18.135h284.885c9.999 0 18.134-8.135 18.134-18.135v-18.043h28.057c9.999 0 18.134-8.135 18.134-18.134v-18.457c5.942.86 12.017 1.305 18.193 1.305 69.75 0 126.495-56.745 126.495-126.495-.001-26.809-8.289-52.43-23.97-74.091z"/></g></g></svg>