<svg id="Capa_1" enable-background="new 0 0 512 512" height="512" viewBox="0 0 512 512" width="512" xmlns="http://www.w3.org/2000/svg"><g><g><path d="m255 392.899-90-90-150 150v44.101h435v-299.101z" fill="#f3f5f9"/></g><path d="m450 497v-299.101l-195 195v104.101z" fill="#e1e6f0"/><g id="Increase_43_"><path d="m422 30v30h38.789l-205.789 205.789-90-90-160.605 160.606 21.21 21.21 139.395-139.394 90 90 227-227v38.789h30v-90z" fill="#8cd96b"/></g><g><path d="m512 512h-512v-512h30v482h482z" fill="#4d4d80"/></g><path d="m512 482h-482l-30 30h512z" fill="#443d66"/><path d="m482 81.211v38.789h30v-90h-90v30h38.789l-205.789 205.789v42.422z" fill="#5ab267"/></g></svg>