<?xml version="1.0" encoding="iso-8859-1"?>
<!-- Generator: Adobe Illustrator 19.0.0, SVG Export Plug-In . SVG Version: 6.00 Build 0)  -->
<svg version="1.1" id="Capa_1" xmlns="http://www.w3.org/2000/svg" xmlns:xlink="http://www.w3.org/1999/xlink" x="0px" y="0px"
	 viewBox="0 0 378.471 378.471" style="enable-background:new 0 0 378.471 378.471;" xml:space="preserve">
<path style="fill:#187F70;" d="M266.299,0H58.781c-7.287,0-13.194,5.907-13.194,13.193v314.301c0,7.287,5.907,13.194,13.194,13.194
	h207.518c7.287,0,13.194-5.907,13.194-13.194V13.193C279.494,5.907,273.587,0,266.299,0z"/>
<path style="fill:#20D0C3;" d="M332.884,365.279V71.47l-33.687-33.687H112.173c-7.287,0-13.194,5.907-13.194,13.194v314.301
	c0,7.287,5.907,13.193,13.194,13.193h207.519C326.977,378.472,332.884,372.566,332.884,365.279z"/>
<path style="fill:#FF5B61;" d="M332.884,71.47h-26.233c-4.116,0-7.453-3.337-7.453-7.454V37.784L332.884,71.47z"/>
<g>
	<path style="fill:#FCFDFD;" d="M293.775,152.847H170.906c-2.878,0-5.211-2.333-5.211-5.212v-10.892
		c0-2.878,2.333-5.211,5.211-5.211h122.869c2.878,0,5.211,2.333,5.211,5.211v10.892
		C298.986,150.514,296.653,152.847,293.775,152.847z"/>
	<path style="fill:#FCFDFD;" d="M293.775,192.776H138.088c-2.878,0-5.211-2.333-5.211-5.211v-10.892
		c0-2.879,2.333-5.212,5.211-5.212h155.687c2.878,0,5.211,2.333,5.211,5.212v10.892
		C298.986,190.443,296.653,192.776,293.775,192.776z"/>
	<path style="fill:#FCFDFD;" d="M293.775,232.705H138.088c-2.878,0-5.211-2.333-5.211-5.211v-10.893
		c0-2.877,2.333-5.211,5.211-5.211h155.687c2.878,0,5.211,2.334,5.211,5.211v10.893
		C298.986,230.372,296.653,232.705,293.775,232.705z"/>
	<path style="fill:#FCFDFD;" d="M293.775,272.633H138.088c-2.878,0-5.211-2.333-5.211-5.212V256.53c0-2.879,2.333-5.212,5.211-5.212
		h155.687c2.878,0,5.211,2.333,5.211,5.212v10.891C298.986,270.3,296.653,272.633,293.775,272.633z"/>
	<path style="fill:#FCFDFD;" d="M219.655,312.562h-81.567c-2.878,0-5.211-2.333-5.211-5.211v-10.893
		c0-2.877,2.333-5.211,5.211-5.211h81.567c2.879,0,5.212,2.334,5.212,5.211v10.893C224.867,310.229,222.534,312.562,219.655,312.562
		z"/>
</g>
<g>
</g>
<g>
</g>
<g>
</g>
<g>
</g>
<g>
</g>
<g>
</g>
<g>
</g>
<g>
</g>
<g>
</g>
<g>
</g>
<g>
</g>
<g>
</g>
<g>
</g>
<g>
</g>
<g>
</g>
</svg>
