<?xml version="1.0" encoding="iso-8859-1"?>
<!-- Generator: Adobe Illustrator 19.0.0, SVG Export Plug-In . SVG Version: 6.00 Build 0)  -->
<svg xmlns="http://www.w3.org/2000/svg" xmlns:xlink="http://www.w3.org/1999/xlink" version="1.1" id="Layer_1" x="0px" y="0px" viewBox="0 0 490 490" style="enable-background:new 0 0 490 490;" xml:space="preserve" width="512" height="512">
<g>
	<path style="fill:#673389;" d="M490,245c0,49.45-14.65,95.48-39.85,133.98c-12.81,19.57-28.34,37.2-46.06,52.34   c-15.21,13-32.02,24.16-50.1,33.15C321.16,480.82,284.15,490,245,490s-76.16-9.19-108.98-25.53   c-18.09-8.98-34.91-20.15-50.12-33.16c-17.73-15.14-33.26-32.77-46.07-52.35C14.64,340.46,0,294.44,0,245   c0-50.06,15.01-96.61,40.78-135.4c28.64-43.11,70.57-76.63,119.93-94.71C186.99,5.26,215.38,0,245,0s58.01,5.26,84.29,14.89   c49.36,18.08,91.27,51.59,119.92,94.69C474.98,148.37,490,194.94,490,245z"/>
	<path style="fill:#F46D11;" d="M450.15,378.98C406.4,445.83,330.86,490,245,490c-85.87,0-161.42-44.18-205.17-111.04   c-3.21-89.79-2.89-179.58,0.95-269.36c0.68-15.76,1.46-31.51,2.35-47.26c1.3-23.01,19.51-41.43,42.48-43.15   c25.03-1.88,50.07-3.31,75.1-4.3c56.19-2.23,112.39-2.23,168.58,0c25.03,0.99,50.06,2.42,75.09,4.3   c22.98,1.72,41.18,20.14,42.48,43.15c0.89,15.75,1.67,31.49,2.35,47.24C453.06,199.38,453.38,289.18,450.15,378.98z"/>
	<path style="fill:#E6E6E6;" d="M404.09,431.32c-15.21,13-32.02,24.16-50.1,33.15c-72.66,4.98-145.31,4.98-217.97,0   c-18.09-8.98-34.91-20.15-50.12-33.16c-6.6-119.96-6.02-239.92,1.74-359.88c104.9-10.37,209.81-10.37,314.71,0   C410.12,191.4,410.7,311.35,404.09,431.32z"/>
	<path style="fill:#FFD833;" d="M315.768,94.889h-141.53c-14.896,0-26.972-12.076-26.972-26.972V26.973   c0-14.896,12.076-26.972,26.972-26.972h141.53c14.896,0,26.972,12.076,26.972,26.972v40.943   C342.74,82.813,330.664,94.889,315.768,94.889z"/>
	<g>
		<circle style="fill:#2F373B;" cx="199.392" cy="45.368" r="18.896"/>
		<circle style="fill:#2F373B;" cx="290.613" cy="45.368" r="18.896"/>
	</g>
	<g>
		<g>
			<path style="fill:#2F373B;" d="M234.905,157.181h140.086c6.148,0,11.133-4.984,11.133-11.133v0     c0-6.148-4.984-11.133-11.133-11.133H234.905c-6.148,0-11.133,4.984-11.133,11.133v0     C223.773,152.197,228.757,157.181,234.905,157.181z"/>
			<path style="fill:#2F373B;" d="M234.905,198.882h93.5c6.148,0,11.133-4.984,11.133-11.133v0c0-6.148-4.984-11.133-11.133-11.133     h-93.5c-6.148,0-11.133,4.984-11.133,11.133v0C223.773,193.898,228.757,198.882,234.905,198.882z"/>
		</g>
		<path style="fill:#4DC44D;" d="M146.84,207.631c-2.984,0-5.841-1.337-7.753-3.686l-25.639-31.488    c-3.487-4.283-2.842-10.582,1.44-14.068c4.282-3.487,10.581-2.842,14.068,1.44l15.433,18.953l21.131-46.732    c2.275-5.032,8.2-7.267,13.232-4.992c5.032,2.275,7.267,8.2,4.992,13.232l-27.791,61.461c-1.427,3.157-4.387,5.35-7.822,5.796    C147.699,207.603,147.268,207.631,146.84,207.631z"/>
	</g>
	<g>
		<g>
			<path style="fill:#2F373B;" d="M234.905,262.923h140.086c6.148,0,11.133-4.984,11.133-11.133v0     c0-6.148-4.984-11.133-11.133-11.133H234.905c-6.148,0-11.133,4.984-11.133,11.133v0     C223.773,257.939,228.757,262.923,234.905,262.923z"/>
			<path style="fill:#2F373B;" d="M234.905,304.624h93.5c6.148,0,11.133-4.984,11.133-11.133l0,0     c0-6.148-4.984-11.133-11.133-11.133h-93.5c-6.148,0-11.133,4.984-11.133,11.133l0,0     C223.773,299.64,228.757,304.624,234.905,304.624z"/>
		</g>
		<path style="fill:#4DC44D;" d="M146.84,313.373c-2.984,0-5.841-1.337-7.753-3.686l-25.639-31.488    c-3.487-4.283-2.842-10.582,1.44-14.068c4.282-3.487,10.581-2.842,14.068,1.44l15.433,18.953l21.131-46.732    c2.275-5.032,8.2-7.267,13.232-4.992c5.032,2.275,7.267,8.2,4.992,13.232l-27.791,61.461c-1.427,3.157-4.387,5.35-7.822,5.796    C147.699,313.345,147.268,313.373,146.84,313.373z"/>
	</g>
	<g>
		<g>
			<path style="fill:#2F373B;" d="M234.905,368.665h140.086c6.148,0,11.133-4.984,11.133-11.133v0     c0-6.148-4.984-11.133-11.133-11.133H234.905c-6.148,0-11.133,4.984-11.133,11.133v0     C223.773,363.681,228.757,368.665,234.905,368.665z"/>
			<path style="fill:#2F373B;" d="M234.905,410.366h93.5c6.148,0,11.133-4.984,11.133-11.133l0,0     c0-6.148-4.984-11.133-11.133-11.133h-93.5c-6.148,0-11.133,4.984-11.133,11.133l0,0     C223.773,405.382,228.757,410.366,234.905,410.366z"/>
		</g>
		<path style="fill:#4DC44D;" d="M146.84,419.115c-2.984,0-5.841-1.337-7.753-3.686l-25.639-31.488    c-3.487-4.283-2.842-10.582,1.44-14.068c4.282-3.487,10.581-2.842,14.068,1.44l15.433,18.953l21.131-46.732    c2.275-5.032,8.2-7.267,13.232-4.992c5.032,2.275,7.267,8.2,4.992,13.232l-27.791,61.461c-1.427,3.157-4.387,5.35-7.822,5.796    C147.699,419.087,147.268,419.115,146.84,419.115z"/>
	</g>
</g>















</svg>
