<?xml version="1.0" encoding="iso-8859-1"?>
<!-- Generator: Adobe Illustrator 19.0.0, SVG Export Plug-In . SVG Version: 6.00 Build 0)  -->
<svg version="1.1" id="Capa_1" xmlns="http://www.w3.org/2000/svg" xmlns:xlink="http://www.w3.org/1999/xlink" x="0px" y="0px"
	 viewBox="0 0 511.999 511.999" style="enable-background:new 0 0 511.999 511.999;" xml:space="preserve">
<path style="fill:#00AD94;" d="M488.254,183.651H197.447L474.55,475.313l36.855-262.692
	C514.762,197.775,503.475,183.651,488.254,183.651z"/>
<path style="fill:#EFEDEE;" d="M399.933,36.686H125.672c-16.89,0-30.582,13.692-30.582,30.582v358.534h335.425V67.268
	C430.515,50.377,416.823,36.686,399.933,36.686z"/>
<rect x="132.934" y="176.294" style="fill:#D4D2D3;" width="297.588" height="134.645"/>
<path style="fill:#3AC7B4;" d="M421.686,241.502c-3.653-16.157-18.01-27.629-34.574-27.629H158.979l-4.626-20.459
	c-2.263-10.011-11.159-17.12-21.423-17.12H21.973c-14.085,0-24.529,13.069-21.423,26.806l55.648,246.125
	c3.449,15.256,17.004,26.088,32.644,26.088H474.55L421.686,241.502z"/>
<g>
	<path style="fill:#3A484A;" d="M195.23,121.923c-4.268,0-7.726-3.459-7.726-7.726v-12.229c0-4.267,3.458-7.726,7.726-7.726
		c4.268,0,7.726,3.459,7.726,7.726v12.229C202.957,118.464,199.497,121.923,195.23,121.923z"/>
	<path style="fill:#3A484A;" d="M330.374,121.923c-4.268,0-7.726-3.459-7.726-7.726v-12.229c0-4.267,3.458-7.726,7.726-7.726
		c4.268,0,7.726,3.459,7.726,7.726v12.229C338.1,118.464,334.642,121.923,330.374,121.923z"/>
	<path style="fill:#3A484A;" d="M262.802,130.961c-10.216,0-19.806-4.267-26.309-11.707c-2.809-3.213-2.481-8.094,0.732-10.902
		c3.211-2.808,8.093-2.481,10.901,0.732c3.57,4.083,8.917,6.424,14.675,6.424c5.757,0,11.104-2.342,14.674-6.424
		c2.807-3.213,7.689-3.541,10.902-0.731c3.212,2.808,3.541,7.689,0.731,10.902C282.606,126.694,273.017,130.961,262.802,130.961z"/>
</g>
<g>
</g>
<g>
</g>
<g>
</g>
<g>
</g>
<g>
</g>
<g>
</g>
<g>
</g>
<g>
</g>
<g>
</g>
<g>
</g>
<g>
</g>
<g>
</g>
<g>
</g>
<g>
</g>
<g>
</g>
</svg>
