<svg height="512" viewBox="0 0 64 64" width="512" xmlns="http://www.w3.org/2000/svg"><g id="upload."><path d="m60 44a10 10 0 0 1 -19.95 1h-36.05v-35h46v24a10 10 0 0 1 10 10z" fill="#4fc3f7"/><path d="m44 18a4 4 0 1 1 -4-4 4 4 0 0 1 4 4z" fill="#fff075"/><path d="m45 36.5221a9.4249 9.4249 0 0 0 -4 8.4779h-5l-8.625-11.375 7.625-7.625z" fill="#80c683"/><path d="m60 44a10 10 0 1 1 -10-10 10 10 0 0 1 10 10z" fill="#29b6f6"/><path d="m37 45h-33l17-21z" fill="#a4d5a6"/><path d="m55.6245 42.2192a1 1 0 1 1 -1.249 1.5615l-3.3755-2.7v7.9193a1 1 0 0 1 -2 0v-7.9193l-3.3755 2.7a1 1 0 1 1 -1.249-1.5615l5-4a1 1 0 0 1 1.249 0zm5.3755 1.7808a10.9958 10.9958 0 0 1 -21.8089 2h-33.1911a3.0033 3.0033 0 0 1 -3-3v-31a3.0033 3.0033 0 0 1 3-3h42a3.0033 3.0033 0 0 1 3 3v21.0507a11.0113 11.0113 0 0 1 10 10.9493zm-56-32v30.4l14.3931-17.9918a2 2 0 0 1 3.1895.0869l5.4195 7.0888 5.5009-5.5009a1.9584 1.9584 0 0 1 1.5248-.583 2.0011 2.0011 0 0 1 1.4512.7476l7.684 8.4453a10.9107 10.9107 0 0 1 4.837-1.6422v-21.0507a1.0013 1.0013 0 0 0 -1-1h-42a1.0013 1.0013 0 0 0 -1 1zm15.9741 13.6836-14.6924 18.3164h28.695zm18.0259 18.3164a10.9606 10.9606 0 0 1 3.5692-8.087l-7.6112-8.3676-5.7274 5.6455 8.2637 10.8091zm20 0a9 9 0 1 0 -9 9 9.01 9.01 0 0 0 9-9zm-24-26a5 5 0 1 1 5 5 5.0059 5.0059 0 0 1 -5-5zm2 0a3 3 0 1 0 3-3 3.0033 3.0033 0 0 0 -3 3z" fill="#37474f"/></g></svg>