<svg id="Layer_1" height="512" viewBox="0 0 512 512" width="512" xmlns="http://www.w3.org/2000/svg" data-name="Layer 1"><path d="m278.4 182.49v78.475a15 15 0 1 1 -30 0v-78.475a15 15 0 0 1 30 0zm117.662 0v78.475a15 15 0 1 1 -30 0v-78.475a15 15 0 0 1 30 0zm-58.831-11.172v100.819a15 15 0 1 1 -30 0v-100.819a15 15 0 0 1 30 0zm144.7-31.086c.33-1.33-.944-3.047-1.7-3.953a5.831 5.831 0 0 0 -4.906-2.246h-303.825l41.8 165.284c.283 1.132 1.981 6.784 6.652 6.784h216.779c4.718 0 6.275-5.53 6.558-6.638l38.639-159.231zm-49.87 317.107a20.551 20.551 0 1 1 20.522-20.551 20.566 20.566 0 0 1 -20.522 20.551zm-210.414 0a20.551 20.551 0 1 1 20.57-20.551 20.556 20.556 0 0 1 -20.57 20.551zm253.676-353.306h-311.423l-11.746-46.333a43.7 43.7 0 0 0 -42.413-33.043h-94.733a15 15 0 1 0 0 30h94.733a13.439 13.439 0 0 1 13.352 10.4l61.142 241.612a39.294 39.294 0 0 0 2.312 6.737 47.673 47.673 0 0 0 5.142 82.7 50.561 50.561 0 1 0 65.625 4.869h139.08a50.561 50.561 0 1 0 70.2-1.028 14.992 14.992 0 0 0 -5.425-28.972h-248.485a17.7 17.7 0 0 1 0-35.4c.283 0 .613-.028.943-.047a35.031 35.031 0 0 0 6.322.566h216.782c17.079 0 31.421-11.879 35.714-29.566l38.639-159.228c2.547-10.6-.283-21.442-8.068-30.528a35.874 35.874 0 0 0 -27.693-12.739z" fill="#4caf50" fill-rule="evenodd"/></svg>