<svg id="Layer_1" height="512" viewBox="0 0 512 512" width="512" xmlns="http://www.w3.org/2000/svg" data-name="Layer 1"><path d="m256.251.5c141.383 0 256 114.616 256 256s-114.616 256-256 256-256-114.622-256-256 114.616-256 256-256zm-110.577 247.842v150.715h63.5v-90.6a6.968 6.968 0 0 1 6.967-6.963h80.215a6.964 6.964 0 0 1 6.962 6.963v90.6h63.512v-150.715l-110.582-80.337zm-29.4 4.154 135.769-98.64a6.974 6.974 0 0 1 8.29-.089l135.887 98.733 17.53-24.123-157.5-114.429-157.499 114.425z" fill="#4caf50" fill-rule="evenodd"/></svg>