<svg height="509pt" viewBox="0 -2 509.19439 509" width="509pt" xmlns="http://www.w3.org/2000/svg"><g fill-rule="evenodd"><path d="m144.496094 503.042969c-1.492188-.007813-2.878906-.78125-3.667969-2.046875-1.195313-1.984375-.589844-4.558594 1.367187-5.800782l44.96875-27.734374-60.585937 34.984374c-1.980469.996094-4.394531.304688-5.550781-1.585937s-.675782-4.355469 1.113281-5.664063l113.75-72.960937-138.839844 80.210937c-1.980469.996094-4.394531.304688-5.550781-1.585937s-.671875-4.355469 1.113281-5.664063l128.683594-81.496093-150.269531 86.785156c-2.007813 1.179687-4.589844.535156-5.804688-1.449219-.59375-.972656-.773437-2.140625-.503906-3.25.273438-1.105468.976562-2.054687 1.953125-2.640625l93.867187-58.195312-97.449218 56.320312c-.957032.589844-2.113282.769531-3.207032.496094s-2.027343-.976563-2.59375-1.949219c-1.199218-1.984375-.589843-4.558594 1.363282-5.800781l154.113281-97.023437-151.210937 87.210937c-.96875.582031-2.132813.746094-3.226563.457031-1.09375-.289062-2.023437-1.007812-2.578125-1.996094-1.195312-1.984374-.589844-4.558593 1.367188-5.800781l140.96875-88.320312-136.53125 78.847656c-2.023438 1.152344-4.597657.472656-5.785157-1.53125-1.183593-2-.550781-4.585937 1.433594-5.808594l27.648437-17.066406-17.152343 9.984375c-2.023438 1.152344-4.597657.472656-5.785157-1.53125-1.1875-2-.550781-4.585938 1.433594-5.804688l58.878906-36.097656-38.914062 22.699219c-2.019531 1.152344-4.59375.46875-5.78125-1.53125-1.1875-2.003906-.550781-4.585937 1.429688-5.808594l42.070312-25.601562-23.039062 13.3125c-2.035157 1.117187-4.589844.441406-5.804688-1.535157-1.179688-2.003906-.535156-4.585937 1.453125-5.800781l24.320313-14.933593-6.144532 3.582031c-.96875.585937-2.132812.75-3.226562.460937-1.09375-.289062-2.023438-1.007812-2.578125-1.996094-1.195313-1.984374-.589844-4.558593 1.367187-5.800781l126.121094-80.300781-99.242188 57.003906c-.96875.582032-2.132812.75-3.226562.457032-1.09375-.289063-2.023438-1.007813-2.574219-1.992188-1.199219-1.984375-.589843-4.5625 1.363281-5.804688l18.6875-11.519531h-.597656c-.957031.589844-2.113281.769531-3.207031.496094-1.089844-.273437-2.027344-.976563-2.59375-1.945313-1.195313-1.984374-.589844-4.5625 1.363281-5.804687l113.578125-73.472656-86.269531 50.089843c-1.980469 1.175782-4.535156.527344-5.71875-1.449218-1.195312-1.984375-.589844-4.558594 1.367188-5.800782l71.335937-45.65625-48.636719 28.074219c-1.980468 1.175781-4.539062.527344-5.71875-1.449219-1.210937-1.960937-.644531-4.53125 1.28125-5.800781l97.023438-64.257812-68.949219 40.023437c-1.984375.992188-4.394531.300782-5.554687-1.589844-1.15625-1.890624-.671876-4.351562 1.117187-5.664062l81.234375-54.359375-54.867188 31.574219c-2.027343 1.226562-4.664062.574218-5.886718-1.449219-1.226563-2.027344-.578125-4.664063 1.449218-5.890625l16.640626-10.410156c-1.65625.199218-3.277344-.5625-4.183594-1.960938-1.175782-1.996094-.617188-4.5625 1.28125-5.890625l22.527344-14.675781-3.15625 1.878906c-2.003907 1.246094-4.640626.636719-5.886719-1.367187-1.25-2.003907-.640625-4.640625 1.363281-5.886719l26.796875-17.835938-6.570313 3.839844c-1.972656 1.125-4.476562.511719-5.703124-1.398437-1.230469-1.910157-.746094-4.441407 1.09375-5.769531l53.503906-38.570313-26.28125 15.1875c-1.957032 1.320313-4.613282.804687-5.933594-1.148437-1.320312-1.957032-.800781-4.613282 1.152344-5.933594l38.402344-30.71875-10.925782 6.398437c-1.828125 1.019531-4.121094.585938-5.460937-1.023437-1.316407-1.582032-1.316407-3.878906 0-5.460938l23.554687-27.5625c-.585937-.96875-.75-2.132812-.460937-3.226562.289062-1.09375 1.007812-2.023438 1.996093-2.574219l7.507813-4.269531c1.777344-1.058594 4.0625-.660156 5.375.941406 1.332031 1.609375 1.332031 3.9375 0 5.546875l-15.273437 18.003906 41.8125-23.894531c1.957031-1.320312 4.613281-.804688 5.933593 1.152344 1.316407 1.957031.800781 4.613281-1.152343 5.929687l-38.914063 30.464844 47.445313-27.390625c1.972656-1.09375 4.453124-.503906 5.71875 1.363281 1.246093 1.921875.753906 4.480469-1.109376 5.804688l-53.847656 38.570312 50.605469-29.183593c1.980469-1.171876 4.535156-.523438 5.714844 1.449218 1.230469 1.941406.703125 4.507813-1.191407 5.804688l-26.796874 17.75 22.273437-12.800782c1.980469-.996093 4.394531-.304687 5.550781 1.585938s.671875 4.355469-1.113281 5.667969l-22.527344 14.675781 18.089844-10.410156c1.980469-.992188 4.394531-.304688 5.550781 1.585937s.671875 4.355469-1.113281 5.667969l-9.898437 6.3125 5.460937-3.15625c1.292969-.808594 2.921875-.863281 4.269531-.144531s2.210938 2.101562 2.261719 3.625c.050781 1.527343-.714844 2.964843-2.007813 3.773437l-81.324218 54.355469 76.800781-44.371094c1.292969-.808593 2.921875-.863281 4.269531-.144531 1.347656.714844 2.210938 2.097656 2.261719 3.625s-.714844 2.964844-2.007813 3.773438l-97.027343 64.253906 92.503906-53.417969c1.980469-.992187 4.394531-.304687 5.550781 1.585937 1.15625 1.894532.671875 4.355469-1.113281 5.667969l-71.425781 45.652344 66.988281-38.65625c1.980469-.992187 4.394531-.304687 5.550781 1.589844 1.15625 1.890625.671875 4.351562-1.113281 5.664062l-113.578125 73.472657 109.140625-62.976563c2.019531-1.152344 4.59375-.472656 5.78125 1.53125 1.1875 2 .550781 4.585937-1.429687 5.808594l-19.03125 11.519531 14.335937-8.535156c2.027344-1.222656 4.664063-.574219 5.890625 1.453125 1.222656 2.023437.574219 4.660156-1.453125 5.886719l-125.78125 80.554687 121.6875-69.804687c.96875-.582032 2.132813-.746094 3.226563-.457032 1.09375.289063 2.023437 1.007813 2.574218 1.996094 1.179688 2.003906.535156 4.585938-1.449218 5.800781l-24.320313 14.933594 19.96875-11.519531c2.003906-1.179688 4.585937-.535156 5.800781 1.449218 1.1875 2.035157.546875 4.640626-1.449218 5.890626l-42.070313 25.597656 37.71875-21.757813c2.003906-1.179687 4.585937-.535156 5.800781 1.449219 1.1875 2.03125.546875 4.640625-1.449218 5.886719l-58.878907 36.097656 54.527344-31.488281c.96875-.582032 2.132813-.75 3.226563-.460938 1.09375.289063 2.023437 1.011719 2.574218 1.996094 1.179688 2.007812.535156 4.589844-1.449218 5.804688l-27.476563 17.066406 23.125-13.398438c2.035156-1.117187 4.585937-.441406 5.800781 1.535156 1.195313 1.984376.589844 4.5625-1.363281 5.804688l-141.058594 87.722656 136.535157-78.847656c2.027343-1.226562 4.664062-.578125 5.886718 1.449219 1.226563 2.027343.578125 4.664062-1.449218 5.886719l-153.601563 97.027343 149.25-86.359375c2.027344-1.164062 4.617187-.480468 5.800781 1.535156.589844.960938.769532 2.117188.496094 3.207032-.273438 1.09375-.972656 2.027344-1.945312 2.597656l-93.953126 58.625 89.601563-51.714844c1.980469-.992187 4.394531-.300781 5.550781 1.589844s.671875 4.351562-1.113281 5.664062l-128.769531 81.066407 124.332031-71.765625c1.308594-.792969 2.945313-.824219 4.285156-.085938 1.34375.738282 2.1875 2.136719 2.21875 3.667969s-.757812 2.964844-2.066406 3.757813l-114.175781 72.789062 109.738281-63.316406c2.003906-1.179688 4.585937-.535156 5.800781 1.449218 1.207032 2.011719.601563 4.613282-1.363281 5.886719l-44.714844 28.078125 39.933594-23.042968c2.007813-1.179688 4.589844-.535157 5.804687 1.453124 1.15625 1.941407.59375 4.449219-1.28125 5.714844l-104.191406 68.351563 99.753906-57.511719c1.984376-.996094 4.394532-.304688 5.550782 1.585938 1.160156 1.890624.675781 4.355468-1.113282 5.667968l-28.246093 18.089844 24.066406-13.910156c1.96875-1.125 4.476563-.507813 5.703125 1.398437 1.226562 1.910157.746094 4.445313-1.097656 5.769531l-84.820313 58.792969 80.214844-46.335937c1.984375-1.121094 4.503906-.484375 5.714844 1.453125 1.222656 1.914062.691406 4.449219-1.191407 5.714843l-52.140624 35.839844 47.617187-27.476562c1.941406-1.15625 4.449219-.59375 5.714844 1.28125 1.21875 1.90625.777343 4.429687-1.023438 5.800781l-50.34375 36.695313 45.652344-25.601563c1.921875-1.101563 4.371094-.542969 5.632813 1.28125 1.265624 1.816406.929687 4.300781-.769532 5.71875l-37.972656 30.804687 33.109375-19.117187c1.914063-.996094 4.277344-.40625 5.496094 1.378906 1.21875 1.785157.910156 4.199219-.71875 5.621094l-12.117188 9.640625 7.339844-4.265625c1.820313-1.058594 4.144531-.628906 5.46875 1.011719 1.320313 1.644531 1.246094 4.003906-.179687 5.558594l-12.203126 13.484374 6.914063-4.011718c.96875-.582032 2.132813-.75 3.226563-.460938 1.09375.289063 2.023437 1.011719 2.574218 1.996094 1.175782 2.054688.492188 4.667969-1.535156 5.886719l-30.550781 17.152343c-1.816407 1.09375-4.164063.652344-5.460938-1.023437-1.328125-1.609375-1.328125-3.9375 0-5.546875l12.289063-13.480469-34.644532 20.050781c-1.917968 1.148438-4.398437.585938-5.632812-1.277343-1.246094-1.839844-.875-4.324219.851562-5.71875l12.203126-9.558594-28.839844 16.554687c-1.917969 1-4.277344.410157-5.496094-1.375-1.21875-1.785156-.910156-4.199218.714844-5.621093l37.890625-30.550781-65.453125 37.546874c-.925782.566407-2.042969.742188-3.097656.484376-1.054688-.253907-1.96875-.917969-2.535157-1.847657-.625-.894531-.867187-2-.675781-3.070312.191406-1.074219.804688-2.027344 1.703125-2.648438l50.261719-37.035156-76.800782 44.117187c-1.972656 1.125-4.476562.511719-5.703124-1.398437-1.226563-1.90625-.746094-4.441406 1.09375-5.769531l52.222656-35.753906-74.496094 42.667968c-1.964844 1.140625-4.476562.539063-5.714844-1.367187-1.230468-1.9375-.699218-4.503907 1.195313-5.800781l84.820312-58.796876-114.003906 66.21875c-1.980469 1.171876-4.539063.523438-5.71875-1.449218-1.195313-1.984375-.589844-4.558594 1.363281-5.800782l28.589844-18.179687-44.117188 25.429687c-2.007812 1.179688-4.589843.535157-5.804687-1.449218-1.164063-1.96875-.605469-4.507813 1.28125-5.800782l104.191406-68.269531-131.5 75.519531c-.6875.429688-1.492187.636719-2.304687.597657zm0 0" fill="#a9b0bb"/><path d="m46.792969 451.84375c-1.929688.019531-3.632813-1.257812-4.152344-3.117188-.519531-1.859374.273437-3.832031 1.933594-4.816406l23.125-14.082031-37.207031 21.417969c-1.925782.964844-4.269532.34375-5.460938-1.449219-1.1875-2.03125-.546875-4.640625 1.449219-5.886719h.683593l-8.53125 5.03125c-2.035156 1.117188-4.589843.441406-5.804687-1.535156-1.179687-2.003906-.535156-4.585938 1.449219-5.800781l117.503906-73.984375-120.660156 69.714844c-2.023438 1.152343-4.59375.472656-5.78125-1.527344-1.1875-2.003906-.550782-4.589844 1.429687-5.808594l80.8125-49.75-76.800781 44.628906c-2.023438 1.152344-4.597656.472656-5.78125-1.53125-1.1875-2-.550781-4.585937 1.429688-5.808594l54.183593-33.195312-50.257812 28.757812c-1.984375.996094-4.394531.304688-5.554688-1.585937-1.15625-1.890625-.671875-4.355469 1.117188-5.667969l128.851562-80.382812-124.414062 71.851562c-2.023438 1.152344-4.597657.472656-5.785157-1.53125-1.1875-2-.550781-4.585937 1.429688-5.808594l11.523438-6.996093-7.167969 4.097656c-2.074219 1.222656-4.75.535156-5.976563-1.539063-1.222656-2.074218-.535156-4.746093 1.539063-5.972656l141.480469-88.746094-137.042969 79.445313c-2.007813 1.179687-4.589844.535156-5.804688-1.449219-1.203125-2.011718-.601562-4.613281 1.367188-5.890625l157.609375-99.414062-153.171875 88.40625c-2.007813 1.179687-4.589844.535156-5.804688-1.449219-.589843-.960938-.769531-2.113281-.496093-3.207031.273437-1.09375.976562-2.027344 1.945312-2.597657l67.160156-41.300781-62.804687 36.351563c-2.035157 1.117187-4.589844.441406-5.804688-1.535156-1.195312-1.984376-.589843-4.558594 1.367188-5.800782l135.847656-84.90625-131.410156 75.859375c-2.03125 1.164063-4.617188.480469-5.804688-1.535156-.589843-.960937-.769531-2.117187-.496093-3.207031.273437-1.09375.976562-2.027344 1.945312-2.597656l80.8125-49.746094-76.800781 44.117187c-2.097657 1.128907-4.714844.347657-5.84375-1.75-1.132813-2.097656-.347657-4.714843 1.75-5.847656l72.277343-44.371094-67.839843 39.507813c-2.007813 1.179687-4.589844.535156-5.804688-1.449219-1.203125-2.011719-.601562-4.613281 1.367188-5.890625l164.179687-103.59375-159.742187 91.988281c-2.027344 1.226563-4.664063.578125-5.890625-1.449219-1.222656-2.027343-.574219-4.664062 1.453125-5.886718l102.824219-63.574219-98.386719 56.832031c-2.027344 1.226563-4.664063.574219-5.890625-1.449218-1.222656-2.027344-.574219-4.664063 1.453125-5.890626l151.550781-95.402343-147.113281 85.335937c-1.019531.53125-2.207031.632813-3.296875.28125-1.09375-.355468-1.996094-1.132812-2.507813-2.160156-.589843-.957031-.769531-2.113281-.496093-3.207031.273437-1.09375.976562-2.027344 1.945312-2.597657l27.5625-17.066406-23.292969 13.65625c-1.015625.53125-2.207031.632813-3.296875.28125-1.09375-.355468-1.996094-1.132812-2.507812-2.160156-1.132813-2.011719-.496094-4.558594 1.453125-5.800781l48.042969-29.269531-43.691407 25.511718c-.960937.558594-2.105469.707032-3.179687.417969-1.070313-.285156-1.984375-.988281-2.539063-1.953125-.628906-.96875-.839843-2.148438-.582031-3.273438.257812-1.128906.960938-2.101562 1.949219-2.699218l119.464843-74.15625-115.113281 66.390625c-1.980469 1.171875-4.535156.523437-5.71875-1.449219-1.195312-1.984375-.589843-4.5625 1.367188-5.804688l128.765625-80.980468-124.414063 71.851562c-1.988281 1.121094-4.507812.484375-5.71875-1.453125-1.164062-1.96875-.605469-4.503906 1.28125-5.800781l125.355469-79.53125-120.917969 69.460938c-1.914062 1.21875-4.453125.691406-5.71875-1.195313-1.210937-1.960937-.644531-4.53125 1.28125-5.800781l117.078125-75.605469-112.640625 64.339844c-1.984375.996093-4.394531.304687-5.550781-1.585938-1.160156-1.890625-.675781-4.355469 1.113281-5.667969l100.351563-65.277343-95.914063 55.464843c-1.984375.996094-4.394531.304688-5.550781-1.585937-1.160156-1.890625-.675781-4.355469 1.113281-5.667969l75.859375-49.746094-71.421875 41.128907c-1.984375.992187-4.394531.304687-5.550781-1.585938-1.160156-1.894531-.675781-4.355469 1.113281-5.667969l59.730469-39.679687-55.464844 32c-1.980468.992187-4.394531.304687-5.550781-1.585937-1.15625-1.894532-.671875-4.355469 1.113281-5.667969l21.164063-13.738281-17.066407 9.644531c-1.988281 1.121093-4.507812.484375-5.71875-1.453125-.605468-.9375-.808593-2.078125-.570312-3.167969.242188-1.089844.90625-2.039063 1.851562-2.632813l19.710938-12.628906c-1.988281.984375-4.402344.277344-5.546875-1.621094-1.183594-1.949218-.660156-4.480468 1.195313-5.804687l24.488281-16.554687c-.644531-.269532-1.207031-.714844-1.621094-1.28125-1.25-1.773438-1.03125-4.191407.511719-5.714844l39.425781-36.097656c-.59375-1.929688.21875-4.015626 1.960937-5.035157l10.070313-5.800781c1.890625-1.097656 4.300781-.6210938 5.632813 1.109375 1.265624 1.785156 1.011718 4.230469-.597657 5.714844l-21.929687 20.054687 46.675781-26.878906c1.980469-1.171875 4.535156-.523438 5.71875 1.449219 1.183594 1.949219.660156 4.480469-1.195313 5.804687l-2.902343 1.875 15.875-9.128906c2.003906-1.179688 4.585937-.535156 5.800781 1.449219 1.164062 1.96875.605469 4.507812-1.28125 5.804687l-19.027344 12.542969 34.132813-19.796875c1.980469-.992188 4.394531-.304688 5.550781 1.585938 1.15625 1.890624.671875 4.355468-1.113281 5.667968l-20.992188 13.738282 36.4375-20.992188c2.003907-1.179688 4.585938-.535156 5.800781 1.449219 1.167969 1.96875.609376 4.507812-1.277343 5.804687l-59.734375 39.59375 81.066406-46.847656c1.980469-.992188 4.394531-.304688 5.550781 1.585938 1.15625 1.890624.671875 4.355468-1.113281 5.667968l-75.945312 49.75 98.816406-57.003906c2.003906-1.179688 4.585937-.535156 5.800781 1.449219 1.164063 1.96875.605469 4.507812-1.28125 5.804687l-100.351563 65.535156 126.125-72.789062c1.980469-.992188 4.394532-.304688 5.550782 1.585938 1.15625 1.890624.671875 4.355468-1.113282 5.667968l-117.164062 75.691406 143.785156-82.945312c1.984375-.992188 4.394532-.304688 5.554688 1.585938 1.15625 1.890624.671875 4.355468-1.117188 5.667968l-125.351562 79.871094 150.953125-87.125c1.960937-.847656 4.25-.113281 5.351562 1.71875 1.101563 1.835938.671875 4.203125-1 5.535156l-128.683593 80.894532 140.714843-81.238282c.96875-.582031 2.132813-.746094 3.226563-.457031s2.023437 1.007813 2.578125 1.996094c1.195312 1.980469.589843 4.558593-1.367188 5.800781l-119.125 74.496094 118.359375-68.265625c.96875-.585938 2.132813-.75 3.222656-.460938 1.09375.289063 2.023438 1.007813 2.578126 1.996094 1.179687 2.007813.535156 4.585937-1.449219 5.800781l-48.214844 29.015625 43.863281-25.601562c2.03125-1.117188 4.585938-.441407 5.800782 1.535156 1.179687 2.007813.535156 4.589844-1.449219 5.804687l-27.5625 16.894532 22.867187-13.226563c2.007813-1.179687 4.589844-.535156 5.804688 1.453125 1.203125 2.007813.597656 4.613282-1.367188 5.886719l-151.296875 95.402344 147.203125-85.332031c2.003906-1.179688 4.585938-.535157 5.800782 1.449218 1.1875 2.03125.546874 4.640625-1.449219 5.886719l-102.402344 63.488281 98.050781-56.402344c.96875-.585937 2.132813-.75 3.222656-.460937 1.09375.289063 2.023438 1.007813 2.578126 1.996094 1.195312 1.984375.589843 4.558593-1.363282 5.800781l-164.183594 103.597656 159.746094-91.992187c.96875-.582031 2.132813-.75 3.222656-.457031 1.09375.289062 2.023438 1.007812 2.578126 1.992187 1.179687 2.007813.535156 4.589844-1.449219 5.804687l-72.191407 44.375 67.839844-38.914062c2.003906-1.179688 4.585938-.535156 5.800782 1.449219 1.1875 2.035156.546874 4.640625-1.449219 5.890625l-80.8125 49.664062 76.800781-44.117187c.96875-.585938 2.132812-.75 3.226562-.460938 1.09375.289063 2.023438 1.007813 2.574219 1.996094 1.195313 1.984375.589844 4.558594-1.363281 5.800781l-135.9375 85.335938 131.5-75.949219c.96875-.582031 2.132812-.746094 3.226562-.457031 1.09375.289062 2.023438 1.007812 2.574219 1.996094 1.183594 2.003906.535157 4.585937-1.449219 5.800781l-67.070312 41.132812 62.71875-36.183593c1.980469-.992188 4.394531-.304688 5.550781 1.589843 1.15625 1.890625.671875 4.351563-1.113281 5.664063l-157.953125 98.902344 153.175781-88.320313c2.03125-1.117187 4.585938-.441406 5.800782 1.535156 1.195312 1.984375.589843 4.558594-1.363282 5.800781l-141.65625 88.75 137.21875-79.019531c.96875-.582031 2.132813-.75 3.222656-.460937 1.09375.289062 2.023438 1.011718 2.578126 1.996094 1.179687 2.007812.535156 4.589843-1.449219 5.804687l-11.351563 6.910156 7-4.097656c.96875-.582031 2.132813-.746094 3.222656-.457031 1.09375.289062 2.023438 1.007812 2.578126 1.996094 1.195312 1.984374.589843 4.558593-1.363282 5.800781l-128.683594 79.957031 124.246094-71.851562c2.003906-1.179688 4.585938-.53125 5.800782 1.453124 1.1875 2.03125.546874 4.640626-1.449219 5.886719l-54.445313 33.28125 50.09375-28.929687c2.019532-1.152344 4.59375-.46875 5.78125 1.53125 1.1875 2.003906.550782 4.585937-1.429687 5.808594l-80.640625 49.664062 76.289062-44.03125c1.980469-.996094 4.394532-.304688 5.550782 1.585938 1.15625 1.890624.671874 4.355468-1.113282 5.667968l-118.1875 73.726563 113.75-65.707031c2.03125-1.117188 4.585938-.441407 5.800782 1.535156 1.179687 2.007812.535156 4.589844-1.449219 5.804687l-3.585938 2.21875c1.910157-.679687 4.035157.113281 5.035157 1.875 1.179687 2.007813.535156 4.589844-1.449219 5.804688l-22.871094 13.992187 18.519531-10.664062c.96875-.585938 2.132813-.75 3.222656-.460938 1.09375.289063 2.023438 1.011719 2.578126 1.996094 1.179687 2.007812.535156 4.589844-1.449219 5.800781l-10.496094 6.488281 6.226563-3.585937c1.984374-.992187 4.394531-.300781 5.554687 1.589844 1.15625 1.890625.671875 4.351562-1.117187 5.664062l-92.5 58.539063 87.980468-50.773438c2.003906-1.179687 4.585938-.535156 5.800782 1.449219 1.203124 2.011719.601562 4.613281-1.363282 5.890625l-29.527344 18.6875 25.089844-14.421875c1.980469-.992187 4.394532-.304687 5.550782 1.585937 1.15625 1.894532.671874 4.355469-1.113282 5.667969l-38.402344 24.320313 34.132813-19.628906c1.953125-.933594 4.296875-.257813 5.453125 1.574218 1.152344 1.828125.753906 4.234375-.929688 5.59375l-90.964843 62.039063 86.273437-49.835938c2.023438-1.222656 4.660156-.574219 5.886719 1.453125 1.226563 2.023438.574219 4.660156-1.449219 5.886719l-11.777344 7.507813 7.339844-4.179688c1.957032-1.1875 4.503906-.578125 5.714844 1.363281.617188.90625.847656 2.019531.640625 3.089844-.210937 1.074219-.839844 2.023437-1.75 2.628906l-65.023437 47.105469 60.417968-34.902344c1.96875-1.09375 4.453125-.503906 5.714844 1.363282 1.292969 1.910156.796875 4.507812-1.109375 5.804687l-37.121094 26.792969 32.515625-18.773438c1.90625-1.191406 4.425782-.621094 5.628906 1.28125 1.292969 1.828125.917969 4.347656-.851562 5.71875l-30.890625 23.976563 26.113281-15.101563c1.917969-1.148437 4.398438-.585937 5.628906 1.277344 1.269532 1.816406.933594 4.300781-.765624 5.71875l-15.789063 13.140625 10.925781-6.3125c1.882813-1.414063 4.558594-1.035156 5.972656.851563 1.414063 1.886718 1.03125 4.558593-.855468 5.972656l-6.824219 6.402344 1.707031-.941407c1.316406-.957031 3.0625-1.082031 4.503906-.320312 1.4375.761719 2.320313 2.277343 2.269532 3.90625-.050782 1.625-1.023438 3.082031-2.507813 3.753906l-32.597656 19.199219c-1.863281 1.085937-4.242187.609375-5.546875-1.109375-1.453125-1.59375-1.453125-4.035157 0-5.632813l6.742188-6.484375-22.445313 13.226563c-1.890625.972656-4.214844.402344-5.4375-1.339844-1.226563-1.738281-.980469-4.117188.574219-5.570312l15.789062-13.570313-34.902344 20.480469c-1.945312 1.15625-4.453124.59375-5.71875-1.277344-1.269531-1.851562-.855468-4.375.941407-5.71875l30.804687-24.320312-54.1875 31.316406c-1.925781.898437-4.222656.242187-5.382812-1.539063-1.15625-1.78125-.828125-4.144531.773437-5.542969l37.121094-26.792968-58.710937 34.132812c-1.941407 1.039063-4.355469.433594-5.570313-1.402344-1.21875-1.839843-.835937-4.300781.878906-5.679687l65.023438-47.105469-93.867188 54.1875c-1.980469.992188-4.394531.300782-5.550781-1.589844-1.15625-1.890624-.671875-4.351562 1.113281-5.664062l11.863281-7.59375-25.601562 14.847656c-1.953125.933594-4.292969.257813-5.449219-1.574218-1.15625-1.828126-.757812-4.234376.925781-5.59375l90.796876-62.039063-119.46875 69.207031c-1.980469.992188-4.394532.300782-5.550782-1.589844-1.15625-1.890624-.671875-4.351562 1.113282-5.664062l38.402343-24.320312-54.699219 31.574218c-1.984374.992188-4.394531.300782-5.550781-1.589844-1.160156-1.890624-.675781-4.351562 1.113281-5.664062l29.609376-18.519531-45.226563 25.515625c-1.980469.996094-4.394531.304687-5.550781-1.585938s-.671875-4.355468 1.113281-5.667968l92.417969-58.878907-114.605469 66.132813c-2.003906 1.179687-4.585937.535156-5.800781-1.449219-1.1875-2.03125-.546875-4.640625 1.449218-5.886719l10.582032-6.488281-23.976563 13.824219c-.632812.414062-1.378906.625-2.132812.597656zm0 0" fill="#e4e8eb"/><path d="m28.445312 93.445312c-1.851562.035157-3.519531-1.125-4.121093-2.878906-.605469-1.75-.007813-3.691406 1.476562-4.800781l13.652344-10.410156-26.453125 15.273437c-1.957031 1.390625-4.667969.929688-6.058594-1.023437-1.390625-1.957031-.933594-4.667969 1.023438-6.058594l45.3125-36.097656c-.914063-.246094-1.707032-.824219-2.21875-1.621094-1.363282-1.710937-1.136719-4.191406.511718-5.632813l31.402344-29.4375c-.15625-1.539062.527344-3.039062 1.792969-3.925781l5.800781-3.328125c1.863282-1.085937 4.246094-.609375 5.546875 1.109375 1.289063 1.761719 1.070313 4.210938-.511719 5.714844l-10.835937 10.839844 6.398437-3.753907c1.925782-1.105468 4.371094-.546874 5.632813 1.277344 1.289063 1.828125.914063 4.347656-.855469 5.71875l-38.738281 30.890625 34.132813-19.457031c1.957031-1.070312 4.402343-.523438 5.714843 1.28125 1.199219 1.894531.796875 4.382812-.9375 5.800781l-14.078125 10.328125 8.53125-5.035156c1.863282-1.085938 4.246094-.609375 5.546875 1.109375 1.414063 1.609375 1.414063 4.019531 0 5.628906l-13.566406 12.972657 8.53125-4.863282c1.738281-1.03125 3.964844-.671875 5.292969.851563 1.269531 1.566406 1.269531 3.808593 0 5.375l-5.546875 7.511719c1.355469.164062 2.554687.953124 3.242187 2.132812.582032.96875.75 2.132812.460938 3.226562-.292969 1.09375-1.011719 2.023438-1.996094 2.574219l-13.824219 8.023438c-1.738281 1.03125-3.964843.671875-5.292969-.851563-1.269531-1.570312-1.269531-3.8125 0-5.378906l4.183594-5.632812-21.25 11.949218c-1.898437 1.191406-4.398437.707032-5.714844-1.109375-1.300781-1.71875-1.117187-4.132812.425782-5.632812l13.652344-12.96875-34.132813 19.710937c-.640625.394532-1.378906.601563-2.132813.597656zm0 0" fill="#5e8faa"/><path d="m296.816406 287.320312c-1.40625.003907-2.722656-.703124-3.496094-1.875-1.257812-1.867187-.886718-4.378906.851563-5.804687l20.992187-16.382813-24.832031 13.910157c-1.925781.898437-4.222656.242187-5.378906-1.539063-1.160156-1.785156-.832031-4.148437.769531-5.542968l62.636719-45.398438-69.546875 40.105469c-1.980469.992187-4.394531.304687-5.550781-1.585938s-.671875-4.355469 1.113281-5.667969l20.734375-13.3125-23.207031 13.398438c-2.042969 1.074219-4.5625.40625-5.804688-1.535156-1.195312-1.984375-.589844-4.558594 1.367188-5.804688l35.410156-22.695312-14.335938 8.53125c-1.980468.992187-4.394531.304687-5.550781-1.585938s-.671875-4.355468 1.113281-5.667968l40.960938-26.964844c-1.894531.757812-4.058594.035156-5.121094-1.707032-1.179687-1.949218-.660156-4.480468 1.195313-5.800781l36.695312-24.578125c-1.089843-.269531-2.03125-.9375-2.644531-1.875-1.238281-1.894531-.746094-4.425781 1.109375-5.71875l30.121094-21.589844-.769531-.765624c-1.285157-1.796876-.988282-4.277344.683593-5.71875l31.230469-27.222657c-.175781-1.667969.667969-3.28125 2.136719-4.09375l8.53125-4.863281c1.902343-1.121094 4.347656-.601562 5.632812 1.191406 1.246094 1.808594.953125 4.257813-.683593 5.71875l-6.398438 5.460938 8.53125-4.863282c1.964844-1.140624 4.480469-.539062 5.71875 1.363282 1.246094 1.921875.757812 4.480468-1.109375 5.804687l-7.082031 5.035157 8.960937-5.207032c2.011719-1.132812 4.558594-.496094 5.800781 1.453125 1.210938 1.960938.644532 4.53125-1.28125 5.800781l-23.378906 15.871094 26.28125-15.101562c1.980469-1.171875 4.535156-.523438 5.71875 1.449218 1.210938 1.960938.644532 4.53125-1.28125 5.804688l-40.277344 26.367188 43.691407-25.175782c1.980469-.992187 4.394531-.300781 5.550781 1.589844s.671875 4.351562-1.113281 5.664062l-35.414063 22.699219 20.734375-12.03125c2.027344-1.226562 4.664063-.578125 5.890625 1.449219 1.222656 2.027344.574219 4.664062-1.453125 5.890625l-33.707031 21.671875c1.777344.136719 3.28125 1.359375 3.777344 3.070312.492187 1.710938-.128906 3.550782-1.558594 4.609376l-62.632812 45.398437 3.925781-2.304687c1.972656-1.09375 4.453125-.5 5.71875 1.367187 1.226562 1.859375.816406 4.347656-.941407 5.714844l-39.679687 31.40625v.59375c1.160156 2.078125.4375 4.699219-1.621094 5.890625l-25.601562 15.101562c-.636719.40625-1.378907.613282-2.132813.597656zm0 0" fill="#46ceac"/><path d="m241.179688 327.769531c-1.40625.003907-2.722657-.703125-3.496094-1.878906-.726563-.886719-1.0625-2.03125-.933594-3.171875s.710938-2.179688 1.613281-2.886719l.683594-.511719-1.960937 1.195313c-1.957032 1.070313-4.40625.523437-5.71875-1.28125-1.28125-1.875-.871094-4.425781.9375-5.800781l6.316406-4.949219-8.535156 4.777344c-1.910157 1.195312-4.425782.625-5.628907-1.277344-1.25-1.839844-.878906-4.324219.851563-5.71875l8.105468-6.398437-6.398437 3.667968c-1.957031 1.320313-4.613281.804688-5.929687-1.152344-1.320313-1.957031-.804688-4.609374 1.152343-5.929687l17.066407-12.972656c-.300782-.210938-.558594-.46875-.769532-.765625-1.414062-1.613282-1.414062-4.023438 0-5.632813l19.457032-20.652343c-.355469-1.789063.46875-3.605469 2.046874-4.519532l5.546876-3.246094c1.828124-1.015624 4.125-.585937 5.460937 1.027344 1.378906 1.621094 1.378906 4.003906 0 5.628906l-6.144531 6.488282 8.535156-4.949219c1.921875-1.105469 4.371094-.546875 5.632812 1.277344 1.253907 1.863281.886719 4.378906-.855468 5.804687l-1.960938 1.535156 3.410156-1.964843c1.917969-1.144531 4.398438-.582031 5.632813 1.28125 1.246094 1.839843.875 4.324219-.851563 5.71875l-8.109374 6.398437 10.328124-5.972656c1.953126-1.320312 4.609376-.804688 5.929688 1.152344 1.320312 1.957031.804688 4.609375-1.152344 5.929687l-6.398437 4.949219 8.53125-4.777344c1.964843-1.140625 4.480469-.539062 5.71875 1.363282.726562.953124 1.011719 2.167968.785156 3.34375-.230469 1.171874-.949219 2.195312-1.980469 2.800781l-3.667968 2.816406c1.945312-.058594 3.683593 1.207031 4.226562 3.074219.542969 1.871094-.25 3.871094-1.921875 4.863281l-53.589844 30.890625c-.601562.320312-1.28125.46875-1.964843.425781zm0 0" fill="#35ba9b"/><path d="m461.683594 138.757812c-1.324219.011719-2.570313-.625-3.328125-1.707031-1.496094-1.582031-1.496094-4.054687 0-5.632812l16.125-15.785157-20.90625 12.03125c-1.871094.957032-4.164063.40625-5.398438-1.292968-1.234375-1.703125-1.042969-4.054688.449219-5.535156l18.6875-17.066407-23.292969 13.484375c-1.929687 1.195313-4.460937.671875-5.753906-1.191406-1.296875-1.863281-.90625-4.417969.886719-5.808594l13.144531-10.835937-16.214844 9.300781c-1.84375 1.105469-4.21875.664062-5.546875-1.023438-1.414062-1.609374-1.414062-4.023437 0-5.632812l22.441406-21.164062c-.988281-.289063-1.816406-.964844-2.304687-1.875-.582031-.96875-.746094-2.132813-.457031-3.226563.289062-1.09375 1.007812-2.023437 1.996094-2.578125l20.5625-11.945312c1.871093-1.046876 4.222656-.574219 5.546874 1.109374 1.417969 1.609376 1.417969 4.019532 0 5.632813l-18.089843 17.492187 31.914062-18.429687c1.894531-.976563 4.214844-.402344 5.441407 1.335937 1.226562 1.742188.980468 4.121094-.574219 5.574219l-13.144531 10.921875 15.105468-8.53125c1.890625-1.097656 4.300782-.621094 5.632813 1.109375 1.285156 1.792969.988281 4.273438-.683594 5.714844l-18.601563 17.066406 14.503907-8.53125c1.839843-1.074219 4.191406-.597656 5.464843 1.109375 1.453126 1.59375 1.453126 4.035156 0 5.632813l-27.992187 26.367187c.585937.96875.75 2.132813.460937 3.226563-.289062 1.09375-1.007812 2.023437-1.996093 2.574219l-12.457031 7.167968c-.453126.449219-1.011719.773438-1.621094.941406zm0 0" fill="#35ba9b"/><path d="m196.378906 354.5625c-1.339844-.011719-2.597656-.640625-3.410156-1.703125-1.253906-1.777344-1.035156-4.195313.511719-5.71875l9.300781-8.535156-2.5625 1.539062c-1.789062.988281-4.027344.597657-5.375-.941406-1.363281-1.59375-1.363281-3.949219 0-5.546875l18.6875-22.355469c-1.039062-2.011719-.324219-4.480469 1.621094-5.632812l6.402344-3.667969c1.769531-1.101562 4.082031-.699219 5.375.9375 1.316406 1.582031 1.316406 3.878906 0 5.460938l-10.582032 12.714843 14.933594-8.53125c1.890625-1.027343 4.246094-.523437 5.546875 1.191407 1.316406 1.726562 1.09375 4.171874-.511719 5.632812l-9.300781 8.535156 12.289063-7.167968c2.054687-1.101563 4.613281-.386719 5.800781 1.621093.582031.96875.75 2.132813.460937 3.226563-.289062 1.09375-1.011718 2.023437-1.996094 2.574218l-45.140624 25.601563c-.589844.457031-1.304688.726563-2.050782.765625zm0 0" fill="#457393"/></g><path d="m1.820312 227.84375c0 63.148438-1.8789058 126.71875 0 189.867188.9375 34.132812 24.234376 34.132812 51.199219 33.023437 0 21.847656-5.632812 45.140625 20.054688 51.199219 13.105469 1.367187 26.316406 1.367187 39.421875 0h196.269531c20.648437 0 81.066406 11.351562 95.402344-11.945313 5.886719-9.726562 2.558593-27.988281 2.558593-38.316406v-256l55.894532-51.882813c4.539062 3.898438 8.582031 8.339844 12.03125 13.226563 5.546875 8.535156-1.878906 13.398437-7.851563 18.945313l-37.714843 35.074218c-3.074219 2.8125 8.53125 1.789063 11.261718-.429687 14.082032-13.054688 28.417969-25.597657 42.667969-39.25 5.632813-5.378907 9.558594-9.902344 4.609375-17.75-5.117188-6.523438-10.832031-12.550781-17.070312-18.007813 9.730468-8.53125 19.542968-17.75 29.015624-26.878906 13.226563-12.96875 13.824219-35.328125-4.523437-44.375-26.625-13.226562-50.601563 15.53125-68.265625 32.769531-.917969.351563-1.757812.871094-2.476562 1.535157l-17.066407 15.789062c1.949219-15.492188 1.664063-31.183594-.851562-46.59375-5.207031-20.648438-30.636719-17.066406-48.726563-16.640625.574219-10.066406-.171875-20.164063-2.21875-30.035156-4.949218-20.308594-17.40625-19.03125-34.644531-19.457031-31.746094-.851563-63.660156 0-95.488281 0h-99.753906c-9.65625-.816407-19.359376-.816407-29.015626 0h-2.386718c-2.277344.53125-4.460938 1.394531-6.488282 2.558593l-.425781.429688c-13.652343 7.933593-26.109375 25.683593-36.605469 37.203125l-5.464843 5.375c-13.566407 12.117187-37.203125 28.503906-43.347657 43.523437-4.097656 10.324219 0 30.804688 0 41.382813zm85.332032-212.394531v24.40625c0 11.859375 2.5625 26.792969-1.191406 38.144531-4.609376 14.25-25.601563 8.53125-38.144532 8.53125h-29.355468c.863281-1.925781 1.832031-3.808594 2.902343-5.632812zm291.414062 480.683593c-20.734375 6.398438-54.527344 0-76.03125 0h-205.484375c-30.292969 0-31.65625-19.03125-31.742187-45.398437h119.464844c43.691406 0 91.5625 5.375 135.511718.855469h.425782c2.558593 0 5.207031 0 7.765624-.769532 13.925782-.273437 25.460938-10.890624 26.878907-24.746093.050781-.425781.050781-.855469 0-1.28125 9.132812-57.429688 0-122.878907 0-181.332031l38.828125-36.097657v154.285157c.171875 27.304687 15.785156 124.753906-15.617188 134.484374zm24.234375-307.710937-99.925781 92.753906c-7.933594-8.53125-15.785156-17.066406-23.722656-25.597656-.945313-1.441406-2.128906-2.710937-3.496094-3.753906l-1.367188-1.539063c.425782-.785156.765626-1.617187 1.023438-2.472656 5.546875-15.785156 40.023438-37.121094 52.226562-48.46875l24.574219-22.785156c1.4375-.488282 2.589844-1.578125 3.15625-2.988282l48.042969-44.542968c1.4375-.488282 2.59375-1.578125 3.160156-2.984375l21.160156-19.542969.511719.511719 21.078125 22.699219 1.367188 1.792968c1.167968 1.988282 2.808594 3.660156 4.777344 4.863282l.851562.9375c-.503906.828124-.90625 1.71875-1.191406 2.644531-5.546875 15.875-40.023438 37.207031-52.226563 48.472656zm-181.503906 122.878906 16.214844 17.578125c-3.738281 3.304688-7.671875 6.382813-11.777344 9.214844-3.753906 2.390625-24.40625 16.128906-25.597656 5.71875-.511719-6.058594 8.53125-18.089844 12.03125-22.359375 2.804687-3.589844 5.855469-6.984375 9.128906-10.152344zm26.199219 10.582031-18.261719-19.628906 36.523437-43.433594c9.300782 9.898438 18.515626 19.882813 27.816407 29.867188zm190.632812-226.050781c7.253906-5.714843 13.738282-12.714843 20.480469-19.027343 8.535156-7.9375 20.140625-14.082032 30.636719-4.011719 4.84375 4.808593 7.570312 11.351562 7.570312 18.175781 0 6.828125-2.726562 13.371094-7.570312 18.175781-7.253906 7.679688-15.363282 14.679688-23.296875 21.761719l-30.207031-32.9375c.753906-.757812 1.550781-1.46875 2.386718-2.136719zm-43.859375-17.066406c.851563 15.957031 0 32.085937 0 48.042969l-38.742187 36.011718v-71.507812c0-9.472656 1.023437-20.992188 1.621094-32.597656 16.8125-.597656 36.097656-.769532 37.121093 19.710937zm-219.308593-72.277344h106.070312c22.527344 0 53.332031-8.53125 62.378906 18.859375 2.203125 9.039063 2.980469 18.367188 2.304688 27.648438-1.367188.769531-2.390625 1.707031-2.390625 2.988281v118.015625l-79.359375 73.640625c-.917969.375-1.734375.960937-2.390625 1.707031-14.164063 17.066406-28.414063 34.132813-42.664063 50.773438h-.683594c-8.539062 7.714844-15.953124 16.589844-22.015624 26.367187-4.4375 7.253907-12.460938 19.285157-5.035157 27.050781 7.421875 7.765626 18.515625 2.390626 26.367188-1.023437 11.839843-5.367187 22.6875-12.695313 32.085937-21.675781.753906-.414063 1.378906-1.035156 1.792969-1.789063l53.589844-38.570312c.800781-.59375 1.46875-1.351563 1.960937-2.21875l35.925782-33.367188v136.535157c0 6.738281 1.535156 18.773437 1.109374 29.949218 0 2.390625-.683593 4.695313-1.109374 6.828125-4.351563 19.371094-12.542969 17.066407-28.585938 17.066407h-252.589844c-2.285156.082031-4.53125.664062-6.570312 1.707031-19.710938-1.023438-36.949219-6.570313-41.042969-27.050781-9.132813-46.761719 0-105.046876 0-152.574219 0-54.101563-2.050781-108.632813 0-162.648438.203125-4.328125 1.003906-8.605469 2.386719-12.714843h33.28125c12.289062 0 28.074218 2.304687 39.253906-4.351563 13.566406-8.105469 10.410156-24.234375 10.410156-37.714844v-43.351562c24.234375 3.242187 51.113282-.085938 75.519532-.085938zm0 0" fill="#262626"/></svg>