<svg height="512" viewBox="0 0 60 60" width="512" xmlns="http://www.w3.org/2000/svg"><g id="Page-1" fill="none" fill-rule="evenodd"><g id="081---Dollar-Folder" fill-rule="nonzero"><path id="Path" d="m8.5 49.47c-.21011586-.0001765-.39770446-.1316989-.46949217-.329171s-.01245671-.418758.14849217-.553829l2.838-2.379-5.366 3.1c-.23276821.1379387-.53303341.0656905-.67757699-.1630348-.14454357-.2287253-.08091807-.5309351.14357699-.6819652l5.523-3.807-6.924 4c-.23377341.1287456-.52745054.051198-.66718798-.1761759-.13973743-.2273739-.07626999-.5244122.14418798-.6748241l7.921-5.172-8.632 4.978c-.23424781.1308833-.53004345.0535271-.67022619-.1752769-.14018273-.228804-.07476503-.527467.14822619-.6767231l14.614-9.459-15.043 8.686c-.23571786.1278172-.53029699.0469384-.66770199-.1833224-.13740501-.2302607-.06871185-.5279174.15570199-.6746776l8.32-5.142-8.028 4.635c-.23698876.1350471-.53848394.055235-.67761558-.1793791-.13913163-.2346142-.06455352-.5374465.16761558-.6806209l1-.608-.524.3c-.23219711.1090844-.50927688.0247358-.64130568-.1952262-.1320288-.2199621-.07616155-.504157.12930568-.6577738l23.157-14.465-22.642 13.072c-.23638246.1285498-.53210687.0469768-.6691568-.184581-.13704993-.2315579-.06627089-.5300498.1601568-.675419l7.543-4.571-7.034 4.061c-.23583577.1260453-.52910097.0442222-.66561588-.1857118-.13651491-.2299339-.06795176-.5265795.15561588-.6732882l12.5-7.623-11.99 6.92c-.23628449.1306359-.5336041.0500916-.67163931-.181948s-.06692381-.5317553.16063931-.677052l13.671-8.354-13.16 7.6c-.23803473.1411088-.54539125.0625347-.6865-.1755s-.06253473-.5453912.1755-.6865l14.676-8.992-14.165 8.177c-.23638246.1285498-.53210687.0469768-.6691568-.184581-.13704993-.2315579-.06627089-.5300498.1601568-.675419l7.65-4.645-7.141 4.12c-.23693016.1419372-.54406281.0649301-.68599999-.172-.14193717-.2369302-.06493016-.5440628.17199999-.686l18.117-11.278-17.603 10.163c-.23520866.125628-.52761522.0445694-.66457305-.1842276-.13695782-.228797-.07026696-.5248112.15157305-.6727724l13.333-8.263-12.82 7.401c-.23497088.1292146-.53003872.050062-.66879247-.179405-.13875376-.2294671-.07178369-.5275361.15179247-.675595l15.329-9.659-14.812 8.551c-.23571786.1278172-.53029699.0469384-.66770199-.1833224-.13740501-.2302607-.06871185-.5279174.15570199-.6746776l3.978-2.445-3.466 2c-.23637787.1427656-.54373439.0668779-.6865-.1695s-.06687787-.5437344.1695-.6865l10.255-6.464-9.738 5.622c-.23620749.133071-.53543293.0536509-.67455994-.1790411-.13912702-.2326919-.06746126-.5338687.16155994-.6789589l1.487-.919-.974.562c-.23436107.1288923-.5286543.0505227-.66787555-.1778537-.13922124-.2283764-.07406124-.5258734.14787555-.6751463l9.1-5.842-8.58 4.951c-.23265.1288599-.5254615.0530472-.66634439-.1725252s-.08052968-.5219566.13734439-.6744748l10.865-7.284-10.336 5.967c-.23389628.1269547-.52624912.04845-.66508707-.1785941-.13883796-.227044-.07550149-.5230536.14408707-.6734059l4.457-2.869-3.936 2.268c-.23265.1288599-.5254615.0530472-.66634439-.1725252s-.08052968-.5219566.13734439-.6744748l8.043-5.405-7.514 4.339c-.23610173.1446986-.5448014.0706017-.6895-.1655s-.07060173-.5448014.1655-.6895l3.973-2.592-3.449 1.992c-.23186034.1330617-.52737097.0602043-.67080661-.1653857-.14343565-.22559-.08404925-.5240996.13480661-.6776143l8.3-5.789-7.764 4.488c-.233204.1287421-.52639387.0520483-.66668716-.1743946-.1402933-.226443-.07842312-.5231151.14068716-.6746054l2.771-1.828-2.246 1.3c-.23400272.1389988-.53620161.0652981-.67993859-.1658244-.14373699-.2311225-.07620784-.5347601.15193859-.6831756l2.315-1.55-1.787 1.031c-.22888237.1321893-.52111179.0634037-.667-.157-.14612033-.22077243-.09481925-.51717866.117-.676l4.851-3.633-4.3 2.482c-.23068362.12848205-.52150784.05544038-.66410781-.16679332-.14259996-.22223371-.0878131-.51704248.12510781-.67320668l.734-.522-.2.112c-.22517188.12814755-.51093281.06306634-.65840563-.14994995-.14747281-.21301629-.10780098-.50339711.09140563-.66905005l1.892-1.549-1.32.762c-.20245369.1163469-.45847883.07707387-.61675049-.09460659s-.1766405-.43004808-.04424951-.62239341l1.314-1.9c-.15499454.09852969-.35153099.10415386-.51190641.01464894s-.25877124-.25972968-.25628554-.44337398c.0024857-.18364429.10545276-.35114353.26819195-.43627496l1.928-1.113c.20245369-.1163469.45847883-.07707387.61675049.09460659s.1766405.43004808.04424951.62239341l-1.314 1.9 4.667-2.693c.22517188-.12814755.51093281-.06306634.65840563.14994995.14747281.21301629.10780098.50339711-.09140563.66905005l-1.885 1.545 4.101-2.364c.2309306-.13173121.5245674-.05970825.6683337.16392831.1437664.22363655.0873821.52067301-.1283337.67607169l-.733.52 2.358-1.36c.2290632-.13219787.5214568-.06314799.6671806.15755725.1457237.22070524.094369.51671981-.1171806.67544275l-4.852 3.632 7.74-4.465c.2330829-.13066131.5277074-.05496574.6689423.17186612.1412349.22683187.0791592.52462377-.1409423.67613388l-2.318 1.546 3.634-2.094c.2336556-.13069104.5287926-.05414659.6694787.17363081.140686.22777741.0769932.52595205-.1444787.67636919l-2.759 1.82 3.344-1.93c.2318603-.13306172.527371-.0602043.6708066.16538571.1434357.22559001.0840493.52409963-.1348066.67761429l-8.309 5.788 9.173-5.3c.2341443-.13311196.5316521-.0568382.672871.17250776s.075396.52933917-.148871.67849224l-3.964 2.59 4.361-2.512c.232368-.12564615.5223842-.0488566.6621282.17531617.1397441.22417276.0809951.51837437-.1341282.67168383l-8.046 5.406 8.916-5.153c.2347713-.13363828.5332399-.05663158.6740509.17390914.1408109.23054072.0730402.5312411-.1530509.67909086l-4.455 2.872 5.543-3.2c.2334461-.13529908.5321345-.06097219.6749447.16795606.1428102.22892826.0782242.52987333-.1459447.68004394l-10.867 7.284 13.961-8.057c.2343611-.12889229.5286543-.05052268.6678755.17785371.1392213.22837639.0740613.52587341-.1478755.67514629l-9.1 5.845 11.6-6.7c.2357179-.12781718.530297-.04693838.667702.18332235.137405.23026074.0687118.52791741-.155702.67467765l-1.49.921 3.084-1.777c.2349709-.12921461.5300387-.05006202.6687925.17940502.1387537.22946704.0717837.52753611-.1517925.67559498l-10.242 6.454 12.666-7.309c.2357179-.12781718.530297-.04693838.667702.18332235.137405.23026074.0687118.52791741-.155702.67467765l-3.971 2.442 5.715-3.3c.2349709-.12921461.5300387-.05006202.6687925.17940502.1387537.22946704.0717837.52753611-.1517925.67559498l-15.339 9.662 18.224-10.517c.2352087-.12562801.5276152-.04456942.664573.18422757.1369579.22879699.070267.52481121-.151573.67277243l-13.322 8.252 15.784-9.109c.2361735-.13618181.537908-.05806811.6783318.17560806.1404239.23367616.0677709.53677186-.1633318.68139194l-18.128 11.284 20.375-11.762c.2369888-.13504713.5384839-.05523499.6776156.17937913.1391316.23461413.0645535.53744647-.1676156.68062087l-7.638 4.639 8.083-4.668c.2366474-.13723161.5396453-.05880863.68.176.1406617.23523198.0657315.53985886-.168.683l-14.687 9 14.731-8.5c.2358358-.12604535.529101-.04422219.6656159.18571176.1365149.22993394.0679517.52657952-.1556159.67328824l-13.643 8.332 13.217-7.631c.2369888-.13504713.5384839-.05523499.6776156.17937913.1391316.23461417.0645535.53744647-.1676156.68062087l-12.525 7.64 12.019-6.939c.2359602-.1244074.5280295-.041678.663696.1879935.1356664.2296716.0671501.5253981-.155696.6720065l-7.556 4.579 6.7-3.868c.2361735-.1361818.537908-.0580681.6783318.1756081.1404239.2336761.0677709.5367718-.1633318.6813919l-23.161 14.465 15.684-9.054c.2369888-.1350471.5384839-.055235.6776156.1793791.1391316.2346142.0645535.5374465-.1676156.6806209l-3.911 2.371c.2214262.0055444.4128157.1561087.4703324.3700062s-.0325487.4401446-.2213324.5559938l-8.31 5.135 3.176-1.833c.2338963-.1269547.5262491-.04845.6650871.1785941.1388379.227044.0755015.5230536-.1440871.6734059l-14.612 9.46 7.36-4.252c.2347034-.1364868.5354374-.0607325.6774741.1706544.1420368.2313868.073465.5338394-.1544741.6813456l-7.923 5.171 1.969-1.136c.2324067-.1328499.5282158-.0590851.6710333.1673329s.0819688.5251514-.1380333.6776671l-5.852 4.035c.2215434-.0347269.4391109.0822962.5322564.2862848.0931454.2039886.0390837.4450432-.1322564.5897152l-5.67 4.756c.0523477.2156895-.0437578.4400714-.236.551l-1.394.8c-.07552015.0456395-.16177333.0704804-.25.072z" fill="#2aa1b5"/><path id="Path" d="m6.947 49.47c-.22648015.0004437-.42497561-.1514006-.48381252-.3701051s.0366799-.4496454.23281252-.5628949l.153-.088c.08176754-.0448967.17372245-.0679715.267-.067l2.324.083 49.28-28.451c.2352087-.125628.5276152-.0445694.664573.1842276.1369579.228797.070267.5248112-.151573.6727724l-19.854 12.344 19.341-11.166c.2353357-.1240261.5265799-.04207.6626998.1864836.1361199.2285535.0694507.5236725-.1516998.6715164l-12.231 7.522 11.72-6.768c.2362075-.133071.5354329-.0536509.6745599.1790411.1391271.2326919.0674613.5338687-.1615599.6789589l-14.077 8.753 13.564-7.83c.2362075-.133071.5354329-.0536509.6745599.1790411.1391271.2326919.0674613.5338687-.1615599.6789589l-11.309 7.035 10.796-6.235c.2346058-.1253855.5263122-.0451285.6637604.18262.1374483.2277485.0725112.523243-.1477604.67238l-12.016 7.57 11.5-6.638c.2337734-.1287456.5274505-.051198.667188.1761759.1397374.2273739.07627.5244122-.144188.6748241l-14.734 9.611 14.212-8.2c.2338963-.1269547.5262491-.04845.6650871.1785941.1388379.227044.0755015.5230536-.1440871.6734059l-9.959 6.426 9.438-5.448c.2322377-.1273115.5234633-.0514462.664069.1729923.1406056.2244384.0818101.5195841-.134069.6730077l-11.445 7.748 10.915-6.3c.2318603-.1330617.527371-.0602043.6708066.1653857.1434357.22559.0840493.5240996-.1348066.6776143l-9.474 6.617 8.938-5.16c.2304184-.1322364.5240189-.0611893.6684864.1617642.1444674.2229535.0893536.5199576-.1254864.6762358l-7.246 5.236 6.7-3.87c.2329673-.1327691.5291919-.0581284.6714287.1691822.1422368.2273105.0798406.5263539-.1414287.6778178l-1.438.976.911-.526c.2328603-.1351428.5309189-.0616362.6742423.1662803.1433233.2279164.080443.5283964-.1422423.6797197l-.371.253c.1911732-.0341776.3851349.0434071.5.2.1498756.2088178.1170106.4972517-.076.667l-3.386 2.979 2.657-1.534c.2160865-.1262428.4922254-.073282.6462727.123949.1540472.197231.1385487.4779753-.0362727.657051l-1.51 1.56c.2156169.0219965.3925111.1804032.4380792.3922948.045568.2118916-.0505672.4290143-.2380792.5377052l-2.553 1.473c-.2157055.1230645-.4890446.0691582-.6418764-.1265869-.1528317-.1957451-.1388315-.4739971.0328764-.6534131l1.271-1.313-3.932 2.264c-.2220099.1247109-.5022812.0626525-.6508926-.1441224-.1486115-.2067749-.1180855-.4922068.0708926-.6628776l3.385-2.98-6.559 3.787c-.2321092.1290838-.5246372.0541763-.6661393-.170578-.1415021-.2247542-.0825963-.5209195.1341393-.674422l.046-.032-1.52.877c-.2322377.1273115-.5234633.0514462-.664069-.1729923-.1406056-.2244384-.0818101-.5195841.134069-.6730077l1.44-.976-3.159 1.822c-.2304184.1322364-.5240189.0611893-.6684864-.1617642-.1444674-.2229535-.0893536-.5199576.1254864-.6762358l7.243-5.233-10.516 6.071c-.2314518.1313128-.5252013.0583356-.6682918-.1660259-.1430904-.2243616-.0853808-.5214879.1312918-.6759741l9.474-6.617-12.921 7.459c-.2322377.1273115-.5234633.0514462-.664069-.1729923-.1406056-.2244384-.0818101-.5195841.134069-.6730077l11.446-7.754-14.9 8.6c-.2342478.1308833-.5300435.0535271-.6702262-.1752769s-.074765-.527467.1482262-.6767231l9.961-6.425-12.606 7.277c-.2337734.1287456-.5274505.051198-.667188-.1761759-.1397374-.2273739-.07627-.5244122.144188-.6748241l14.729-9.604-18.115 10.455c-.2349709.1292146-.5300387.050062-.6687925-.179405-.1387537-.2294671-.0717837-.5275361.1517925-.675595l12.014-7.566-14.582 8.421c-.2356087.1297647-.5316571.04988-.6700067-.1807924-.1383496-.2306723-.0694166-.5294607.1560067-.6762076l11.314-7.043-13.682 7.9c-.2356087.1297647-.5316571.04988-.6700067-.1807924-.1383496-.2306723-.0694166-.5294607.1560067-.6762076l14.075-8.753-16.646 9.61c-.2357179.1278172-.530297.0469384-.667702-.1833224-.137405-.2302607-.0687118-.5279174.155702-.6746776l12.223-7.515-14.503 8.373c-.2356087.1297647-.5316571.04988-.6700067-.1807924-.1383496-.2306723-.0694166-.5294607.1560067-.6762076l19.861-12.343-22.873 13.2c-.08163986.0453298-.17362289.0687562-.267.068l-2.324-.083-.024.015c-.07637713.0459562-.16386294.0701618-.253.07z" fill="#4abdd8"/><path id="Path" d="m10.529 46.6c-.2238015.0001026-.4204126-.1485273-.4813425-.363875-.06092992-.2153478.0286636-.4449556.2193425-.562125l18.705-11.525-17.692 10.214c-.2370186.1320316-.5360843.0509486-.6739531-.1827228s-.0642274-.5346559.1659531-.6782772l1.7-1.024-1.193.688c-.2352087.125628-.5276152.0445694-.664573-.1842276-.1369579-.228797-.070267-.5248112.151573-.6727724l18.783-11.618-18.269 10.548c-.2363825.1285498-.5321069.0469768-.6691568-.184581-.1370499-.2315579-.0662709-.5300498.1601568-.675419l1.159-.7-.65.375c-.2355125.13196-.5332497.0531389-.6726204-.1780652-.1393708-.2312042-.0700423-.5312938.1566204-.6779348l19.864-12.49-19.348 11.17c-.2357179.1278172-.530297.0469384-.667702-.1833224-.137405-.2302607-.0687118-.5279174.155702-.6746776l9.64-5.937-9.128 5.27c-.2363779.1427656-.5437344.0668778-.6865-.1695-.1427656-.2363779-.0668779-.5437344.1695-.6865l15.237-9.635-14.717 8.5c-.2342478.1308833-.5300435.0535271-.6702262-.1752769s-.074765-.527467.1482262-.6767231l15.749-10.197-15.23 8.793c-.2362075.133071-.5354329.0536509-.6745599-.1790411-.1391271-.2326919-.0674613-.5338687.1615599-.6789589l1.152-.71-.639.368c-.2343611.1288923-.5286543.0505227-.6678755-.1778537-.1392213-.2283764-.0740613-.5258734.1478755-.6751463l9.123-5.85-8.6 4.967c-.2354116.1379583-.5379577.061708-.6798637-.1713453-.1419059-.2330532-.070765-.5368414.1598637-.6826547l6.618-4.249-6.1 3.521c-.2334461.1352991-.5321345.0609722-.6749447-.1679561-.1428102-.2289282-.0782242-.5298733.1459447-.6800439l8.842-5.94-8.314 4.8c-.2335451.1328438-.5303244.0573638-.6720248-.1709163s-.0776546-.5277351.1450248-.6780837l5.1-3.39-4.573 2.639c-.2299138.1328235-.5235501.0627731-.6687427-.1595365s-.0912979-.5193359.1227427-.6764635l6.942-5.08-6.4 3.692c-.2271002.1265913-.5133226.0580067-.6583864-.1577626-.1450637-.2157693-.100553-.506709.1023864-.6692374l4.939-3.839-4.383 2.531c-.2292016.1303039-.5201978.0602449-.6649792-.1600976s-.0935911-.5152436.1169792-.6739024l1.4-1.039-.849.489c-.2181708.1257356-.4958033.0696093-.648-.131-.1524349-.2008797-.1314278-.4838328.049-.66l2.055-2-1.424.821c-.214156.122774-.4858627.0708854-.6397046-.1221662s-.1437736-.4694853.0237046-.6508338l.772-.829c-.1689294-.0787679-.2800221-.244961-.2882187-.4311715s.0878636-.3615222.2492187-.4548285l1.933-1.116c.214156-.122774.4858627-.0708854.6397046.1221662s.1437736.4694853-.0237046.6508338l-.277.3 1.991-1.156c.2184203-.1276802.4977941-.0720852.6506935.1294872s.1311343.4855915-.0506935.6615128l-2.055 2 4.841-2.791c.2292016-.1303039.5201978-.0602449.6649792.1600976s.0935911.5152436-.1169792.6739024l-1.4 1.039 3.249-1.873c.2271002-.1265913.5133226-.0580067.6583864.1577626.1450637.2157693.100553.506709-.1023864.6692374l-4.939 3.838 8.082-4.665c.2296891-.1296297.5205695-.0585592.6646041.1623819s.0916869.5157667-.1196041.6736181l-6.941 5.08 10.247-5.916c.2327769-.1270897.524286-.0503218.6642741.174934.139988.2252559.0797468.5206233-.1372741.673066l-5.089 3.385 7.338-4.233c.23265-.1288599.5254615-.0530472.6663444.1725252s.0805297.5219566-.1373444.6744748l-8.842 5.943 11.758-6.79c.2347713-.1336383.5332399-.0566316.6740509.1739091.1408109.2305408.0730402.5312411-.1530509.6790909l-6.626 4.247 8.846-5.1c.2343611-.1288923.5286543-.0505227.6678755.1778537.1392213.2283764.0740613.5258734-.1478755.6751463l-9.126 5.847 11.614-6.7c.2362075-.133071.5354329-.0536509.6745599.1790411.1391271.2326919.0674613.5338687-.1615599.6789589l-1.143.705 2.708-1.563c.2342478-.1308833.5300435-.0535271.6702262.1752769s.074765.527467-.1482262.6767231l-15.753 10.192 19.134-11.044c.2349709-.1292146.5300387-.050062.6687925.179405.1387537.2294671.0717837.5275361-.1517925.675595l-15.234 9.631 18.169-10.486c.2353357-.1240261.5265799-.04207.6626998.1864836.1361199.2285535.0694507.5236725-.1516998.6715164l-9.646 5.942 11.777-6.8c.2349709-.1292146.5300387-.050062.6687925.179405.1387537.2294671.0717837.5275361-.1517925.675595l-19.863 12.488 22.836-13.184c.2356011-.1210942.5247591-.0374227.6592887.1907734s.0677372.5217128-.1522887.6692266l-1.157.7 1.729-1c.2357179-.1278172.530297-.0469384.667702.1833224.137405.2302607.0687118.5279174-.155702.6746776l-18.777 11.615 19.176-11.071c.2370186-.1320316.5360843-.0509486.6739531.1827228s.0642274.5346559-.1659531.6782772l-1.742 1.049 1.405-.811c.2372063-.1413849.5441151-.0637063.6855.1735s.0637063.5441151-.1735.6855l-18.693 11.521 18.181-10.5c.2374252-.1242009.5305531-.0391619.6646466.1928199.1340935.2319817.0614797.5284321-.1646466.6721801l-48.441 27.968c-.0760084.0438886-.1622305.0669961-.25.067z" fill="#4abdd8"/><g fill="#1f8765"><path id="Path" d="m38.822 55.14c-.226294-.00001-.4243705-.1520058-.4829405-.3705888-.0585699-.2185831.0369699-.4492542.2329405-.5624112l7.251-4.186c.1549945-.0985297.351531-.1041539.5119064-.0146489.1603754.0895049.2587712.2597296.2562855.4433739s-.1054527.3511436-.2681919.436275l-7.251 4.186c-.0759114.0442382-.1621395.0676923-.25.068z"/><path id="Path" d="m43.446 47.967c-.2056619-.0002363-.3902014-.1263807-.4650945-.3179215-.0748932-.1915408-.0248615-.4094034.1260945-.5490785l1.016-.938c-.2124854.0437314-.4289289-.0545477-.535848-.2433089s-.0799174-.4249338.066848-.5846911l.957-1.043-.551.318c-.211671.1202462-.4791807.0705672-.6335655-.1176588-.1543849-.1882261-.1507683-.4602856.0085655-.6443412l.689-.784-.742.427c-.2025051.1174126-.4593644.078615-.618157-.0933704-.1587926-.1719853-.1770104-.4311186-.043843-.6236296l.972-1.411-1.706.986c-.2095622.1197327-.4747426.0726762-.6303137-.1118499-.1555712-.184526-.157122-.4538447-.0036863-.6401501l.7-.844-1.489.858c-.2060613.1184061-.466996.0754024-.6241634-.1028662-.1571674-.1782685-.1671324-.4425353-.0238366-.6321338l.9-1.18-2.195 1.266c-.2374252.1242009-.5305531.0391619-.6646466-.1928199-.1340935-.2319817-.0614797-.5284321.1646466-.6721801l4.342-2.507c.2056017-.1195564.4669654-.0777382.625.1.1579249.1787882.1675548.4442386.023.634l-.9 1.18 1.758-1.015c.2095622-.1197327.4747426-.0726762.6303137.1118499.1555712.184526.157122.4538447.0036863.6401501l-.7.844 1.206-.7c.2022733-.1165648.4582887-.0776396.6167766.0937764.1584879.1714159.1772595.4296923.0452234.6222236l-.97 1.417 1.456-.841c.211671-.1202462.4791807-.0705672.6335655.1176588.1543849.1882261.1507683.4602856-.0085655.6443412l-.69.786.742-.428c.2134326-.1213489.4833915-.0697812.6370683.1216932.1536769.1914744.1455966.4661956-.0190683.6483068l-.951 1.043.829-.478c.220439-.1262233.5004889-.0670999.6510942.1374575.1506054.2045574.1238973.4895314-.0620942.6625425l-.929.857.564-.325c.1549945-.0985297.351531-.1041539.5119064-.0146489.1603754.0895049.2587712.2597296.2562855.4433739s-.1054527.3511436-.2681919.436275l-4.453 2.572c-.0769906.0450349-.1648134.0682007-.254.067z"/><path id="Path" d="m35.5 59.441c-.189386 0-.3625176-.1070012-.4472136-.2763932s-.066418-.372098.0472136-.5236068l1.013-1.37-1.8 1.039c-.2329673.1327691-.5291919.0581284-.6714287-.1691822-.1422368-.2273105-.0798406-.5263539.1414287-.6778178l.673-.452-.161.092c-.2319831.1309881-.5259285.0570795-.6683699-.1680527-.1424414-.2251321-.0833463-.52241.1343699-.6759473l3.31-2.281-2.8 1.616c-.2279124.1308241-.5182022.0628918-.6643976-.1554793-.1461953-.2183711-.0983971-.512647.1093976-.6735207l1.113-.856-1.8 1.036c-.2197759.1165123-.4917776.0537473-.6382794-.1472845-.1465019-.2010317-.1229447-.4791853.0552794-.6527155l1.616-1.445-2.948 1.7c-.2287194.1310429-.5198877.0620127-.6654353-.1577616-.1455476-.2197742-.0954752-.5147944.1144353-.6742384l.536-.4-1.192.687c-.2083669.1203944-.4729381.0752795-.6296306-.1073652-.1566924-.1826446-.1610497-.4509994-.0103694-.6386348l.807-1-1.584.914c-.2150358.1228992-.4876397.0698481-.6408929-.1247234-.1532532-.1945714-.1409636-.4720174.0288929-.6522766l.314-.33-.676.391c-.1978505.1141437-.4479011.0796962-.607518-.0836931-.159617-.1633892-.1882153-.4141761-.069482-.6093069l1.03-1.691-1.685.973c-.2054918.1189109-.4662705.0769181-.6240467-.1004892-.1577761-.1774073-.1690395-.4413052-.0269533-.6315108l.991-1.33-1.227.708c-.2106861.1215622-.4782863.0738669-.634-.113-.1577751-.1864328-.1577751-.4595672 0-.646l1.02-1.187-1.033.595c-.2148145.122858-.4871855.0700952-.640583-.1240916-.1533976-.1941868-.1416695-.4713733.027583-.6519084l.721-.762-.318.183c-.1974632.1137245-.4468407.0795524-.6064322-.0830991s-.1890217-.412633-.0715678-.6079009l.476-.788c-.1828072.0008626-.3527451-.0939689-.448-.25-.137217-.2391784-.054898-.5442954.184-.682l1.38-.8c.1974632-.1137245.4468407-.0795524.6064322.0830991s.1890217.412633.0715678.6079009l-.406.684 1.6-.926c.2151838-.125925.4902542-.0740804.6448345.1215368.1545804.1956172.1414272.4752214-.0308345.6554632l-.722.762.607-.349c.2108451-.1204916.4777811-.0720607.6328586.1148212.1550774.1868819.1534499.458171-.0038586.6431788l-1.019 1.187.785-.453c.2052485-.117948.4650826-.0757972.6225191.1009864.1574365.1767835.1693242.4397458.0284809.6300136l-.992 1.33 1.282-.739c.1978505-.1141437.4479011-.0796962.607518.0836931.159617.1633892.1882153.4141761.069482.6093069l-1.03 1.691 2-1.152c.2150358-.1228992.4876397-.0698481.6408929.1247234.1532532.1945714.1409636.4720174-.0288929.6522766l-.314.33.887-.512c.2083072-.1191748.4719066-.0735406.6280287.1087241.1561221.1822646.1607271.4497453.0109713.6372759l-.806 1 6.024-3.478c.2287194-.1310429.5198877-.0620127.6654353.1577616.1455476.2197742.0954752.5147944-.1144353.6742384l-.533.4c.2228185-.1224585.5020579-.0582023.648942.149329.146884.2075313.1146365.492248-.074942.661671l-1.615 1.443 4.173-2.409c.2279124-.1308241.5182022-.0628918.6643976.1554793.1461953.2183711.0983971.512647-.1093976.6735207l-1.111.854 7.071-4.082c.2319831-.1309881.5259285-.0570795.6683699.1680527.1424414.2251321.0833463.52241-.1343699.6759473l-3.309 2.28 1.987-1.147c.2334461-.1352991.5321345-.0609722.6749447.1679561.1428102.2289282.0782242.5298733-.1459447.6800439l-8.728 5.868c.0257788.1376677-.0064249.2798705-.089.393l-1.014 1.369.362-.209c.1549945-.0985297.351531-.1041539.5119064-.0146489.1603754.0895049.2587712.2597296.2562855.4433739s-.1054527.3511436-.2681919.436275l-2.445 1.412c-.0734597.043017-.1568766.0661118-.242.067z"/><path id="Path" d="m44.788 32.254c-.1867659.0001028-.3580196-.1038933-.4440587-.2696605-.0860391-.1657673-.0725185-.3656678.0350587-.5183395l1.366-1.938-1.541.889c-.2126491.1227903-.4829898.0729918-.6379285-.1175105-.1549386-.1905024-.1486122-.4653186.0149285-.6484895l.849-.952-.659.38c-.1991965.1152477-.4513319.0796452-.6108298-.0862515-.1594978-.1658967-.1851601-.4192369-.0621702-.6137485l1.129-1.779-1.694.976c-.2109099.1217971-.4788947.0739095-.6345697-.1133946-.1556749-.1873041-.1537451-.4595272.0045697-.6446054l.628-.732-1.142.659c-.2125801.1214168-.481811.0710563-.6361309-.1189903-.1543198-.1900467-.1483392-.4638818.0141309-.6470097l.5-.563-1.177.68c-.2160105.1246636-.4908577.0710795-.6442199-.1255968s-.1383361-.4762947.0352199-.6554032l.33-.339-1.276.736c-.1549945.0985297-.351531.1041539-.5119064.0146489-.1603754-.0895049-.2587712-.2597296-.2562855-.4433739s.1054527-.3511436.2681919-.436275l4.4-2.542c.2160105-.1246636.4908577-.0710795.6442199.1255968s.1383361.4762947-.0352199.6554032l-.329.339.779-.45c.2125801-.1214168.481811-.0710563.6361309.1189903.1543198.1900467.1483392.4638818-.0141309.6470097l-.506.562.947-.546c.2109099-.1217971.4788947-.0739095.6345697.1133946.1556749.1873041.1537451.4595272-.0045697.6446054l-.629.733.918-.529c.1991965-.1152477.4513319-.0796452.6108298.0862515.1594978.1658967.1851601.4192369.0621702.6137485l-1.121 1.781 1.59-.917c.2126491-.1227903.4829898-.0729918.6379285.1175105.1549386.1905024.1486122.4653186-.0149285.6484895l-.849.951.82-.473c.2032855-.1176484.4610547-.0779441.6195147.0954241.15846.1733683.1748892.4336595.0394853.6255759l-1.365 1.938 1.107-.64c.1549945-.0985297.351531-.1041539.5119064-.0146489.1603754.0895049.2587712.2597296.2562855.4433739s-.1054527.3511436-.2681919.436275l-3.075 1.776c-.0760084.0438886-.1622305.0669961-.25.067z"/><path id="Path" d="m34.057 35.7c-.197549-.0000713-.3765356-.11645-.4567478-.2969815s-.0466101-.3913658.0857478-.5380185l1.777-1.965-1.171.675c-.2121584.1214824-.4810525.071733-.6357028-.1176145-.1546503-.1893474-.1497002-.4627602.0117028-.6463855l1.865-2.1-1.257.726c-.2207276.1320893-.5056598.0751513-.6586724-.1316224-.1530126-.2067738-.124171-.4959044.0666724-.6683776l.776-.729-.194.112c-.2198926.1179958-.4931214.0557887-.6402596-.1457705s-.1231296-.4807496.0562596-.6542295l.448-.4c-.2313801.0585921-.4719107-.0545268-.5743493-.27011-.1024385-.2155833-.0382177-.4735106.1533493-.61589l.989-.735-.451.26c-.2187434.1297091-.5000021.0745628-.6535686-.128145s-.1305136-.4883932.0535686-.663855l2.7-2.613-3.159 1.823c-.2374252.1242009-.5305531.0391619-.6646466-.1928199-.1340935-.2319817-.0614797-.5284321.1646466-.6721801l6.674-3.853c.2187434-.1297091.5000021-.0745628.6535686.128145s.1305136.4883932-.0535686.663855l-2.7 2.612 4.459-2.574c.2292016-.1303039.5201978-.0602449.6649792.1600976s.0935911.5152436-.1169792.6739024l-3.94 2.924.017.022c.1504859.2073963.1198265.4949899-.071.666l-.449.4c.2209673-.0551973.4513151.0459117.5602617.2459216.1089465.2000098.0689581.4483726-.0972617.6040784l-.776.729.187-.114c.212437-.1228152.482602-.0733206.6377036.116828.1551017.1901487.1492961.4647486-.0137036.648172l-1.866 2.1 1.25-.721c.2130757-.122757.4837819-.0723545.6383991.1188629.1546171.1912173.1472392.4664769-.0173991.6491371l-1.777 1.967 1.165-.672c.2374252-.1242009.5305531-.0391619.6646466.1928199.1340935.2319817.0614797.5284321-.1646466.6721801l-3.914 2.26c-.0745347.0440436-.1594263.0675096-.246.068z"/><path id="Path" d="m34.056 50.2c-.2086054.000235-.3954351-.1290652-.4687058-.3243795-.0732707-.1953142-.0175829-.415593.1397058-.5526205l.319-.278c-.2040924-.0019449-.3865149-.1277436-.4608728-.3178183-.074358-.1900747-.0257225-.4062641.1228728-.5461817l.772-.726-.184.106c-.2189627.1248229-.4965995.0671571-.6477436-.1345378-.1511442-.2016949-.1285371-.4843546.0527436-.6594622l.859-.816-.27.155c-.2163843.1232964-.4905169.0685506-.6429461-.1284-.1524291-.1969505-.1366764-.476052.0369461-.6546l1.337-1.36-.738.425c-.2257586.1294404-.5130594.0640705-.6605892-.1503047-.1475298-.2143751-.1059565-.5060712.0955892-.6706953l2.928-2.382-2.37 1.368c-.2184203.1276802-.4977941.0720852-.6506935-.1294872s-.1311343-.4855915.0506935-.6615128l2.571-2.495-1.981 1.143c-.2167987.1191224-.4881174.0618073-.638215-.1348206s-.1338516-.473458.038215-.6511794l1.274-1.272-2.179 1.257c-.2233421.1266456-.5063058.0635478-.6546834-.1459871-.1483776-.209535-.1139372-.4973954.0796834-.6660129l1.366-1.17-2.51 1.448c-.1957671.1124908-.4426335.0798244-.6024046-.0797128s-.1927993-.4063555-.0805954-.6022872l1.037-1.8-2.537 1.464c-.2084234.1216379-.4739857.0770528-.6312578-.1059816-.1572721-.1830343-.1613706-.4522821-.0097422-.6400184l.8-1-1.5.863c-.2010454.1148121-.4546164.0765879-.6128826-.0923881s-.179829-.4245036-.0521174-.6176119l.991-1.484-1.649.952c-.2054918.1189109-.4662705.0769181-.6240467-.1004892-.1577761-.1774073-.1690395-.4413052-.0269533-.6315108l1.013-1.361-1.31.756c-.2135054.1227461-.4845965.071745-.6388985-.1201978-.1543021-.1919428-.1458589-.4676604.0198985-.6498022l.831-.912-.758.438c-.2157843.1245835-.4903641.0712785-.6438596-.1249944s-.1390557-.4756061.0338596-.6550056l1.4-1.449-1.126.649c-.2295527.1314921-.521805.0614183-.6667704-.1598726-.1449654-.2212908-.0924688-.5172061.1197704-.6751274l6.582-4.836-5.873 3.39c-.2335451.1328438-.5303244.0573638-.6720248-.1709163s-.0776546-.5277351.1450248-.6780837l.925-.618c-.2261754.0990263-.4907714.0181333-.6229076-.190437s-.0922465-.482365.0939076-.644563l2.8-2.449c-.2082349.0358818-.4170308-.0603632-.525-.242-.1380647-.2391402-.0561341-.5449248.183-.683l4.146-2.392c.222272-.1250569.5030453-.0627806.6515981.1445262.1485528.2073069.1172703.4931974-.0725981.6634738l-2.686 2.354 8.827-5.1c.2335451-.1328438.5303244-.0573638.6720248.1709163s.0776546.5277351-.1450248.6780837l-.891.6.381-.22c.2293391-.1285228.5190351-.0574922.6629121.1625395s.0927858.5139004-.1169121.6724605l-9.593 7.052.013.015c.1534544.1963061.1389547.4756373-.034.655l-1.4 1.449.486-.28c.2132183-.1213577.4829881-.0700899.6368234.1210238.1538354.1911136.146285.465608-.0178234.6479762l-.83.911.612-.353c.2052485-.117948.4650826-.0757972.6225191.1009864.1574365.1767835.1693242.4397458.0284809.6300136l-1.007 1.361 1.41-.813c.2010978-.1158361.4554672-.0780728.6142398.0911892.1587725.169262.1802075.4255244.0517602.6188108l-.991 1.482 1.934-1.116c.2081694-.1205179.4726501-.07573.6295333.1066069.1568831.1823369.1617005.4505398.0114667.6383931l-.8 1 1.847-1.066c.1957671-.1124908.4426335-.0798244.6024046.0797128s.1927993.4063555.0805954.6022872l-1.036 1.8 5.573-3.217c.2237424-.1292278.5090949-.0666972.6582921.1442547.1491972.2109518.1130922.5008356-.0832921.6687453l-1.365 1.169.8-.459c.2167987-.1191224.4881174-.0618073.638215.1348206s.1338516.473458-.038215.6511794l-1.274 1.272 2.179-1.257c.2184203-.1276802.4977941-.0720852.6506935.1294872s.1311343.4855915-.0506935.6615128l-2.571 2.495 4.3-2.483c.2259084-.1319558.5153456-.0674504.6638412.1479469s.1058364.5088509-.0978412.6730531l-3.973 3.232c.1457556.0690017.2492829.2040671.2780433.3627453s-.0207772.3214866-.1330433.4372547l-1.339 1.362.742-.428c.2209688-.1391878.5118365-.0848763.6676883.1246724.1558519.2095487.1241864.5037444-.0726883.6753276l-.859.816.275-.158c.2207276-.1320893.5056598-.0751513.6586724.1316224.1530126.2067738.124171.4959044-.0666724.6683776l-.774.727.191-.11c.2227723-.1294397.5074311-.0684047.6575526.1409889s.1165485.4985799-.0775526.6680111l-.317.276c.2248683.0025593.4203608.1549274.4777527.3723635.057392.2174362-.0374393.4464348-.2317527.5596365l-3.935 2.273c-.0768757.0405527-.1631708.0598828-.25.056z"/><path id="Path" d="m34.06 21.352c-.2040918.0004139-.3879494-.1232568-.4645053-.3124467s-.0304415-.405919.1165053-.5475533l.679-.656-.082.047c-.19117.1124463-.4335684.0855195-.5954002-.06614s-.2044163-.3918024-.1045998-.58986l.511-1.022c-.2235618-.0065531-.4155789-.1607779-.4702066-.3776618-.0546278-.2168838.0414229-.4436659.2352066-.5553382l1.115-.645c.19117-.1124463.4335684-.0855195.5954002.06614s.2044163.3918024.1045998.58986l-.451.9 2.159-1.247c.2187434-.1297091.5000021-.0745628.6535686.128145s.1305136.4883932-.0535686.663855l-.681.659.373-.215c.1549945-.0985297.351531-.1041539.5119064-.0146489.1603754.0895049.2587712.2597296.2562855.4433739s-.1054527.3511436-.2681919.436275l-3.89 2.247c-.0757806.0445497-.1620945.0680271-.25.068z"/></g><path id="Shape" d="m.267 40.885c0 2.547-.338 5.28 1.767 7.184 1.02487455.9090409 2.34125328 1.4212615 3.711 1.444.18763832-.0018888.3707008-.0581623.527-.162h17.94c.815791 1.4989478 1.9926616 2.7706831 3.424 3.7 1.5291837 1.0940518 3.3013955 1.7999851 5.164 2.057.4.026.368-.07.473.153.0405032.2503725.0405032.5056275 0 .756 0 .653-.032 1.315 0 1.967.063 1.32 1.11 1.4 2.187 1.4 1.229 0 3.006.1 3.259-1.482.0912721-.9395799.0959585-1.8855619.014-2.826 3.491-.711 7.128-2.676 8.894-5.711 4.277.107 10.909.875 11.988-4.465.1513399-1.1937742.1868385-2.3993895.106-3.6v-22.834c.128928-1.2042033.0776988-2.4208967-.152-3.61-.589-1.772-2.27-2.207-3.92-2.207h-5.91c.035-1.521.3-3.368-.167-4.793-.593-1.792-2.269-2.369-3.983-2.371-3.686 0-7.372 0-11.058 0-3.218 0-6.495.185-9.709 0-2.084-.119-3.433-2.114-4.822-3.461-1.2169985-1.12743906-2.854605-1.68663062-4.507-1.539-3.732 0-7.469-.059-11.2 0-2.09007186-.09703613-3.87635855 1.49003478-4.026 3.577-.026.551 0 1.11 0 1.662zm37.841 13.6c-.282.041-.832.2-.832.563v2.4c.0481303.321385.0314699.6491517-.049.964-.0345989.0549463-.0593055.1155285-.073.179 0-.011-.024-.041-.177.023-.2688155.0405129-.5421845.0405129-.811 0-.691 0-1.256.077-1.442-.812-.0229897-.2467991-.0229897-.4952009 0-.742v-2.4c0-.106-.209-.166-.274-.176-3.464-.508-7.317-2.5-8.934-5.717-.0017237-.0071706-.0047764-.0139544-.009-.02-.492284-.9718479-.7576129-2.042737-.776-3.132-.013-.8.239-1.181.98-1.236.5906118-.1064943 1.1804973.190283 1.447.728.1178529.4710823.1911752.9521974.219 1.437.118609.4736026.3160293.9238833.584 1.332 1.3463776 1.803544 3.3594829 2.992173 5.589 3.3.349.071 1.174-.106 1.174-.564v-11.146c0-.109-.209-.161-.274-.176-4.115-.918-8.807-3.014-9.61-7.636-.957-5.5 4.122-9.419 9.052-10.142.282-.041.832-.2.832-.563v-2.4c-.0481303-.321385-.0314699-.6491517.049-.964.0345989-.0549463.0593055-.1155285.073-.179 0 .011.024.041.177-.023.2688155-.0405129.5421845-.0405129.811 0 .691 0 1.256-.077 1.442.812.0229897.2467991.0229897.4952009 0 .742v2.4c0 .106.209.166.274.176 4.484.658 9.637 3.789 9.719 8.869.013.8-.239 1.181-.98 1.236-.5906118.1064943-1.1804973-.190283-1.447-.728-.1180074-.471016-.191002-.9521774-.218-1.437-.1194023-.4735002-.3171279-.9237061-.585-1.332-1.3462251-1.803714-3.3594078-2.9923887-5.589-3.3-.349-.071-1.174.106-1.174.564v11.149c0 .116.131.171.309.184 4.107.923 8.774 3.019 9.575 7.628.956 5.504-4.121 9.419-9.052 10.142zm17.108-41.134c.8104642-.0415276 1.6014933.2570299 2.1824047.8237032.5809114.5666734.8990024 1.3500518.8775953 2.1612968.117 3.782 0 7.586 0 11.37v14.684c0 1.6.106 3.169-.889 4.554-1.671 2.325-4.966 1.7-7.474 1.7h-1.9c.5832163-1.2710771.8185642-2.6741924.682-4.066-.47-5.113-5.522-7.506-9.968-8.547v-10.16c1.7584186.4408205 3.2606542 1.5804101 4.159 3.155.686 1.422.148 3.184 2.247 3.35 1.1516738.2298259 2.3430557-.1165408 3.192-.928.973-1.217.154-3.472-.465-4.686-.8181111-1.5499787-2.0205021-2.8639318-3.492-3.816-1.5306354-1.0935833-3.3042692-1.7985066-5.168-2.054-.4-.026-.368.07-.473-.153-.0405032-.2503725-.0405032-.5056275 0-.756 0-.653.032-1.315 0-1.967-.063-1.32-1.11-1.4-2.187-1.4-1.229 0-3.006-.1-3.259 1.482-.091252.9412518-.0959384 1.8888917-.014 2.831-3.359.658-6.69 2.3-8.6 5.225-1.4649489 2.183901-1.7785237 4.9430613-.841 7.4 1.119 2.783 3.751 4.527 6.467 5.538.548.2 1.1.379 1.668.537.209.059 1.314.221 1.319.227.076.091 0 .549 0 .664v9.6c-1.7584186-.4408205-3.2606542-1.5804101-4.159-3.155-.686-1.422-.148-3.184-2.247-3.35-1.1516738-.2298259-2.3430557.1165408-3.192.928-.832 1.041-.352 2.838.191 4.1h-15.336c1.9304022-.8909147 3.1722327-2.8169794 3.187-4.943.022-1.3 0-2.6 0-3.9v-22.057c0-1.631-.276-4.125 1.978-4.392.6761047-.0390007 1.3538953-.0390007 2.03 0h32.668c.3208865.2189128.7431135.2189128 1.064 0h1.936c1.271 0 2.543-.006 3.816 0zm-52.326-11.565c1.038-.59 2.893-.271 4.024-.271h6.267c1.317 0 3.016-.255 4.269.266 1.591.66 2.691 2.483 3.966 3.592 1.1666168.88608259 2.6269829 1.29444156 4.084 1.142h16.861c1.123 0 2.267-.064 3.389 0 2.5.14 2.517 2.407 2.517 4.3v1.839h-32.9c-1.2975911-.1362439-2.6034182.1661841-3.709.859-1.429 1.059-1.383 2.554-1.383 4.117v14.81c0 3.889.122 7.8 0 11.686.067766 2.1972236-1.49652678 4.1073344-3.664 4.474-.10138045-.0791376-.22748148-.1198725-.356-.115-2.52659761-.0604968-4.53854379-2.1347324-4.522-4.662-.017-.687 0-1.378 0-2.065v-33.894c0-1.654-.566-5.099 1.157-6.078z" fill="#262626"/><path id="Shape" d="m34.118 24.859c-2.428.469-5.114 1.612-6.349 3.9-.5127705.9269366-.6299452 2.0215279-.325 3.036.3905624 1.0432885 1.1286461 1.9201602 2.09 2.483 1.1768401.7177822 2.4591393 1.2462244 3.8 1.566.0972545.0433811.2038573.0616067.31.053h.056l.081-.007c.1579521-.0090096.3135115-.0427535.461-.1.0527392-.0201079.1041724-.0434867.154-.07.011-.006.024-.009.035-.015h.006c.0972369-.0474934.179819-.1204007.239-.211.0296732-.0361341.0462391-.0812497.047-.128v-10.366c.001-.2-.516-.158-.605-.141zm-5.378 5.785c-.237-2.6 2.256-4.349 4.536-4.98v9.186c-2.076-.693-4.326-1.898-4.536-4.206z" fill="#262626"/><path id="Shape" d="m42.471 41.741c-1.1997413-.7243241-2.5060812-1.2551618-3.871-1.573-.272-.071-1.319.083-1.319.476v10.361c0 .043.057.066.134.081.1506029.0291455.3053971.0291455.456 0l.063-.014c.07-.013.137-.029.206-.047 2.334-.493 4.911-1.609 6.092-3.793.5119568-.9209.6305824-2.0094434.329-3.019-.3922945-1.039456-1.1302593-1.9123023-2.09-2.472zm-3.747 8.659v-9.277c2.084.7 4.326 1.923 4.536 4.233.24 2.614-2.238 4.408-4.536 5.044z" fill="#262626"/></g></g></svg>