<svg height="512" viewBox="0 0 58 59" width="512" xmlns="http://www.w3.org/2000/svg"><g id="Page-1" fill="none" fill-rule="evenodd"><g id="073---Done-Task"><path id="Path" d="m46 9v24.05l-2.94 25.8c-.3442529.1008464-.7012825.1513695-1.06.15h-38c-2.209139 0-4-1.790861-4-4v-46c0-2.209139 1.790861-4 4-4h38c2.209139 0 4 1.790861 4 4z" fill="#9fc9d3"/><circle id="Oval" cx="18" cy="10" fill="#4482c3" r="2"/><circle id="Oval" cx="8" cy="10" fill="#4482c3" r="2"/><circle id="Oval" cx="38" cy="10" fill="#4482c3" r="2"/><circle id="Oval" cx="28" cy="10" fill="#4482c3" r="2"/><path id="Path" d="m8 10c-.55228475 0-1-.44771525-1-1v-8c0-.55228475.44771525-1 1-1s1 .44771525 1 1v8c0 .55228475-.44771525 1-1 1z" fill="#ecf0f1"/><path id="Path" d="m18 10c-.5522847 0-1-.44771525-1-1v-8c0-.55228475.4477153-1 1-1s1 .44771525 1 1v8c0 .55228475-.4477153 1-1 1z" fill="#ecf0f1"/><path id="Path" d="m28 10c-.5522847 0-1-.44771525-1-1v-8c0-.55228475.4477153-1 1-1s1 .44771525 1 1v8c0 .55228475-.4477153 1-1 1z" fill="#ecf0f1"/><path id="Path" d="m38 10c-.5522847 0-1-.44771525-1-1v-8c0-.55228475.4477153-1 1-1s1 .44771525 1 1v8c0 .55228475-.4477153 1-1 1z" fill="#ecf0f1"/><path id="Path" d="m13 23h-6c-.55228475 0-1-.4477153-1-1s.44771525-1 1-1h6c.5522847 0 1 .4477153 1 1s-.4477153 1-1 1z" fill="#35495e"/><path id="Path" d="m39 23h-22c-.5522847 0-1-.4477153-1-1s.4477153-1 1-1h22c.5522847 0 1 .4477153 1 1s-.4477153 1-1 1z" fill="#35495e"/><path id="Path" d="m39 29h-32c-.55228475 0-1-.4477153-1-1s.44771525-1 1-1h32c.5522847 0 1 .4477153 1 1s-.4477153 1-1 1z" fill="#35495e"/><path id="Path" d="m18 35h-11c-.55228475 0-1-.4477153-1-1s.44771525-1 1-1h11c.5522847 0 1 .4477153 1 1s-.4477153 1-1 1z" fill="#35495e"/><path id="Path" d="m27 41h-20c-.55228475 0-1-.4477153-1-1s.44771525-1 1-1h20c.5522847 0 1 .4477153 1 1s-.4477153 1-1 1z" fill="#35495e"/><circle id="Oval" cx="45" cy="46" fill="#4fba6f" r="13"/><g fill="#84b5cb"><path id="Path" d="m6 17h-1c-.55228475 0-1-.4477153-1-1s.44771525-1 1-1h1c.55228475 0 1 .4477153 1 1s-.44771525 1-1 1z"/><path id="Path" d="m2 16c0 .5522847-.44771525 1-1 1h-1v-2h1c.55228475 0 1 .4477153 1 1z"/><path id="Path" d="m11 17h-1c-.55228475 0-1-.4477153-1-1s.44771525-1 1-1h1c.5522847 0 1 .4477153 1 1s-.4477153 1-1 1z"/><path id="Path" d="m16 17h-1c-.5522847 0-1-.4477153-1-1s.4477153-1 1-1h1c.5522847 0 1 .4477153 1 1s-.4477153 1-1 1z"/><path id="Path" d="m21 17h-1c-.5522847 0-1-.4477153-1-1s.4477153-1 1-1h1c.5522847 0 1 .4477153 1 1s-.4477153 1-1 1z"/><path id="Path" d="m26 17h-1c-.5522847 0-1-.4477153-1-1s.4477153-1 1-1h1c.5522847 0 1 .4477153 1 1s-.4477153 1-1 1z"/><path id="Path" d="m31 17h-1c-.5522847 0-1-.4477153-1-1s.4477153-1 1-1h1c.5522847 0 1 .4477153 1 1s-.4477153 1-1 1z"/><path id="Path" d="m36 17h-1c-.5522847 0-1-.4477153-1-1s.4477153-1 1-1h1c.5522847 0 1 .4477153 1 1s-.4477153 1-1 1z"/><path id="Path" d="m41 17h-1c-.5522847 0-1-.4477153-1-1s.4477153-1 1-1h1c.5522847 0 1 .4477153 1 1s-.4477153 1-1 1z"/><path id="Path" d="m46 15v2h-1c-.5522847 0-1-.4477153-1-1s.4477153-1 1-1z"/></g><path id="Path" d="m42 53c-.530609.0009915-1.039641-.2099652-1.414-.586l-3-3c-.7579444-.7847578-.7471047-2.0321696.0243628-2.8036372.7714676-.7714675 2.0188794-.7823072 2.8036372-.0243628l1.586 1.586 7.586-7.586c.7847578-.7579444 2.0321696-.7471047 2.8036372.0243628.7714675.7714676.7823072 2.0188794.0243628 2.8036372l-9 9c-.374359.3760348-.883391.5869915-1.414.586z" fill="#ecf0f1"/></g></g></svg>