<svg enable-background="new 0 0 36 36" height="512" viewBox="0 0 36 36" width="512" xmlns="http://www.w3.org/2000/svg"><path d="m34.928 20.591c-3.693-5.848-3.199-11.778-4.979-14.596s-7.138-7.714-20.103.473-9.84 17.35-7.882 20.45c9.166 14.515 39.504 4.031 32.964-6.327z" fill="#efefef"/><g fill="#a4afc1"><path d="m4.311 3.967h1v2h-1z" transform="matrix(.707 -.707 .707 .707 -2.103 4.858)"/><path d="m3.634 8.533h2v1h-2z" transform="matrix(.707 -.707 .707 .707 -5.03 5.922)"/><path d="m7.7 4.467h2v1h-2z" transform="matrix(.707 -.707 .707 .707 -.964 7.606)"/></g><path d="m17.25 2.09h1.5v31.82h-1.5z" transform="matrix(.707 -.707 .707 .707 -7.456 18)"/><path d="m15 26.25c0 1.66 1.34 3 3 3s3-1.34 3-3z" fill="#2fdf84"/><path d="m24.25 16v2.788c0 2.196.967 4.28 2.644 5.697l.001.001.005.004c.21.18.35.45.35.76 0 .55-.45 1-1 1h-8-8.5c-.55 0-1-.45-1-1 0-.31.14-.58.35-.76l.005-.004.001-.001c1.677-1.417 2.644-3.502 2.644-5.697v-2.788c0-3.452 2.798-6.25 6.25-6.25s6.25 2.798 6.25 6.25z" fill="#f3f3f1"/><path d="m11 25.25c0-.31.14-.58.35-.76l.005-.004.001-.001c1.677-1.417 2.644-3.502 2.644-5.697v-2.788c0-3.067 2.211-5.613 5.125-6.144-.365-.066-.74-.106-1.125-.106-3.452 0-6.25 2.798-6.25 6.25v2.788c0 2.196-.967 4.28-2.644 5.697l-.001.001-.005.004c-.21.18-.35.45-.35.76 0 .55.45 1 1 1h2.25c-.55 0-1-.45-1-1z" fill="#d5dbe1"/><path d="m18 30c-2.068 0-3.75-1.682-3.75-3.75h1.5c0 1.241 1.009 2.25 2.25 2.25s2.25-1.009 2.25-2.25h1.5c0 2.068-1.682 3.75-3.75 3.75z"/><path d="m26.25 27v-1.5c.136 0 .25-.114.25-.25 0-.07-.027-.122-.055-.156-.014-.01-.028-.021-.042-.033-1.845-1.569-2.904-3.855-2.904-6.271v-2.79c0-1.47-.572-2.851-1.61-3.89s-2.419-1.61-3.889-1.61c-1.91 0-3.653.971-4.663 2.596l-1.274-.792c1.286-2.069 3.506-3.304 5.937-3.304 1.871 0 3.628.728 4.95 2.05s2.05 3.079 2.05 4.95v2.79c0 1.948.841 3.792 2.312 5.074.027.018.052.036.076.057.389.332.612.817.612 1.329 0 .965-.785 1.75-1.75 1.75z"/><path d="m22.75 27h-13c-.965 0-1.75-.785-1.75-1.75 0-.512.223-.997.612-1.33.025-.021.051-.041.079-.059 1.468-1.281 2.309-3.125 2.309-5.071v-2.79c0-.273.012-.546.046-.808l1.487.195c-.026.199-.033.406-.033.613v2.79c0 2.417-1.059 4.702-2.904 6.271-.014.012-.028.023-.042.033-.027.035-.054.086-.054.156 0 .136.114.25.25.25h13z"/><path d="m17.25 6.75h1.5v3h-1.5z"/><path d="m17.25 2.09h1.5v31.82h-1.5z" transform="matrix(.707 -.707 .707 .707 -7.456 18)"/></svg>