<svg id="Capa_1" enable-background="new 0 0 509.875 509.875" height="512" viewBox="0 0 509.875 509.875" width="512" xmlns="http://www.w3.org/2000/svg"><g><g><path d="m502.375 301.344v-92.813h-57.065c-4.824-19.788-12.65-38.413-22.986-55.351l40.393-40.393-65.629-65.629-40.393 40.393c-16.938-10.335-35.563-18.161-55.351-22.986v-57.065h-92.813v57.065c-19.788 4.824-38.413 12.65-55.351 22.986l-40.393-40.393-65.629 65.629 40.393 40.393c-10.335 16.938-18.161 35.563-22.986 55.351h-57.065v92.813h57.065c4.824 19.788 12.65 38.413 22.986 55.351l-40.393 40.393 65.629 65.629 40.393-40.393c16.938 10.335 35.563 18.161 55.351 22.986v57.065h92.813v-57.065c19.788-4.824 38.413-12.65 55.351-22.986l40.393 40.393 65.629-65.629-40.393-40.393c10.335-16.938 18.161-35.563 22.986-55.351zm-247.437 77.344c-68.346 0-123.751-55.405-123.751-123.751s55.405-123.751 123.751-123.751 123.751 55.405 123.751 123.751-55.406 123.751-123.751 123.751z" fill="#a9baca"/><path d="m502.375 301.344v-92.813h-57.065c-4.824-19.788-12.65-38.413-22.985-55.351l40.392-40.393-65.629-65.629-40.392 40.392c-16.938-10.335-35.563-18.161-55.351-22.985v-57.065h-20v72.775l15.263 3.721c17.531 4.274 34.243 11.214 49.672 20.627l13.433 8.196 37.377-37.377 37.345 37.345-37.377 37.377 8.195 13.433c9.413 15.427 16.354 32.139 20.628 49.671l3.721 15.263h52.775v52.813h-52.777l-3.721 15.263c-4.274 17.532-11.215 34.244-20.628 49.671l-8.195 13.433 37.377 37.377-37.345 37.345-37.377-37.377-13.433 8.196c-15.429 9.413-32.141 16.354-49.672 20.627l-15.263 3.721v72.775h20v-57.065c19.788-4.824 38.413-12.65 55.351-22.985l40.392 40.392 65.629-65.629-40.392-40.392c10.335-16.938 18.161-35.563 22.985-55.351h57.067z" fill="#6987a0"/><circle cx="254.938" cy="254.938" fill="#8ae897" r="82.501"/><path d="m254.938 172.437c-3.387 0-6.72.228-10 .625 40.844 4.939 72.501 39.699 72.501 81.876s-31.656 76.937-72.501 81.876c3.28.397 6.613.625 10 .625 45.564 0 82.501-36.937 82.501-82.501s-36.938-82.501-82.501-82.501z" fill="#69bdc6"/></g><g><path d="m308.844 509.875h-107.813v-58.763c-16.308-4.483-31.955-10.98-46.658-19.375l-41.586 41.586-76.235-76.235 41.586-41.586c-8.395-14.703-14.892-30.35-19.375-46.658h-58.763v-107.813h58.764c1.802-6.547 3.94-13.031 6.382-19.341l13.989 5.413c-2.917 7.54-5.368 15.347-7.283 23.205l-1.396 5.724h-55.456v77.813h55.457l1.396 5.724c4.58 18.786 12.016 36.692 22.101 53.221l3.073 5.037-39.262 39.262 55.022 55.022 39.262-39.262 5.037 3.073c16.529 10.085 34.435 17.521 53.221 22.101l5.724 1.396v55.457h77.813v-55.457l5.724-1.396c18.786-4.58 36.692-12.016 53.221-22.101l5.037-3.073 39.262 39.262 55.022-55.022-39.262-39.262 3.073-5.037c10.085-16.529 17.521-34.435 22.101-53.221l1.396-5.724h55.457v-77.813h-55.457l-1.396-5.724c-4.58-18.786-12.016-36.692-22.101-53.221l-3.073-5.037 39.262-39.262-55.022-55.022-39.262 39.262-5.037-3.073c-16.529-10.085-34.435-17.521-53.221-22.101l-5.724-1.396v-55.458h-77.813v55.457l-5.724 1.396c-18.786 4.58-36.692 12.016-53.221 22.101l-5.037 3.073-39.262-39.262-55.022 55.022 39.262 39.262-3.073 5.037c-3.315 5.433-6.385 11.095-9.125 16.829l-13.534-6.468c2.112-4.418 4.404-8.796 6.844-13.072l-41.586-41.587 76.235-76.235 41.586 41.586c14.703-8.395 30.35-14.892 46.658-19.375v-58.764h107.813v58.763c16.308 4.483 31.955 10.98 46.658 19.375l41.586-41.586 76.235 76.235-41.586 41.586c8.395 14.703 14.892 30.35 19.375 46.658h58.763v107.813h-58.763c-4.483 16.308-10.98 31.955-19.375 46.658l41.586 41.586-76.235 76.235-41.586-41.586c-14.703 8.395-30.35 14.892-46.658 19.375v58.763zm-53.906-123.687c-29.835 0-57.953-9.757-81.313-28.215l9.3-11.77c20.685 16.345 45.587 24.985 72.013 24.985 64.101 0 116.251-52.15 116.251-116.251s-52.15-116.251-116.251-116.251-116.251 52.15-116.251 116.251c0 30.846 11.955 59.9 33.661 81.812l-10.656 10.557c-24.508-24.739-38.005-57.543-38.005-92.369 0-72.372 58.879-131.251 131.251-131.251s131.251 58.879 131.251 131.251-58.879 131.251-131.251 131.251z"/><path d="m240.643 299.145-32.005-44.31 12.16-8.783 20.762 28.745 47.864-56.729 11.465 9.673z"/><path d="m254.938 344.938c-49.626 0-90-40.374-90-90s40.374-90 90-90 90.001 40.374 90.001 90c0 6.35-.666 12.692-1.979 18.852l-14.67-3.127c1.094-5.134 1.649-10.424 1.649-15.725 0-41.355-33.645-75-75.001-75s-75 33.645-75 75 33.645 75 75 75c30.438 0 57.643-18.166 69.308-46.28l13.854 5.748c-13.996 33.734-46.64 55.532-83.162 55.532z"/><path d="m162.638 141.574-9.482-11.622c4.047-3.303 8.303-6.444 12.648-9.336l8.312 12.486c-3.943 2.625-7.804 5.476-11.478 8.472zm23.722-15.789-7.057-13.236c4.615-2.46 9.4-4.719 14.223-6.712l5.73 13.862c-4.372 1.807-8.711 3.855-12.896 6.086zm26.324-10.878-4.342-14.358c5.001-1.512 10.137-2.792 15.265-3.806l2.909 14.715c-4.646.918-9.3 2.079-13.832 3.449z" fill="#fff"/></g></g></svg>