<svg id="Capa_1" enable-background="new 0 0 512 512" height="512" viewBox="0 0 512 512" width="512" xmlns="http://www.w3.org/2000/svg"><g><g id="Increase_7_"><g><path d="m121 512h-90v-92h90z" fill="#8cd96b"/></g><g><path d="m241 512h-90v-212h90z" fill="#8cd96b"/></g><g><path d="m361 512h-90v-152h90z" fill="#8cd96b"/></g><g><path d="m481 512h-90v-302h90z" fill="#8cd96b"/></g><g><path d="m69.684 225.006h132.633v29.987h-132.633z" fill="#cfd7e6" transform="matrix(.585 -.811 .811 .585 -138.2 209.831)"/></g><g><path d="m240.998 157.921h30.003v74.157h-30.003z" fill="#cfd7e6" transform="matrix(.447 -.894 .894 .447 -32.9 336.767)"/></g><g><path d="m297.833 120h156.334v29.999h-156.334z" fill="#cfd7e6" transform="matrix(.555 -.832 .832 .555 55.106 372.966)"/></g></g><g><path d="m436 90c-24.814 0-45-20.186-45-45s20.186-45 45-45 45 20.186 45 45-20.186 45-45 45z" fill="#f3f5f9"/></g><g fill="#5ab267"><path d="m436 210h45v302h-45z"/><path d="m316 360h45v152h-45z"/><path d="m196 300h45v212h-45z"/><path d="m76 420h45v92h-45z"/></g><path d="m481 45c0-24.814-20.186-45-45-45v90c24.814 0 45-20.186 45-45z" fill="#e1e6f0"/><g><path d="m316 270c-24.814 0-45-20.186-45-45s20.186-45 45-45 45 20.186 45 45-20.186 45-45 45z" fill="#f3f5f9"/></g><path d="m361 225c0-24.814-20.186-45-45-45v90c24.814 0 45-20.186 45-45z" fill="#e1e6f0"/><g><path d="m196 210c-24.814 0-45-20.186-45-45s20.186-45 45-45 45 20.186 45 45-20.186 45-45 45z" fill="#f3f5f9"/></g><path d="m241 165c0-24.814-20.186-45-45-45v90c24.814 0 45-20.186 45-45z" fill="#e1e6f0"/><g><path d="m76 360c-24.814 0-45-20.186-45-45s20.186-45 45-45 45 20.186 45 45-20.186 45-45 45z" fill="#f3f5f9"/></g><path d="m121 315c0-24.814-20.186-45-45-45v90c24.814 0 45-20.186 45-45z" fill="#e1e6f0"/></g></svg>