<svg id="Capa_1" enable-background="new 0 0 512 512" height="512" viewBox="0 0 512 512" width="512" xmlns="http://www.w3.org/2000/svg"><g><path d="m426.842 442.171h46.593c0 17.267-13.998 31.265-31.265 31.265h-15.328z" fill="#23db9e"/><path d="m85.157 287.062h-46.593c0-17.043 13.816-30.859 30.859-30.859h15.734z" fill="#23db9e"/><path d="m426.842 504.498h-341.685v-496.996h295.092l46.593 46.593z" fill="#e9f1ff"/><path d="m85.157 7.502h30v496.996h-30z" fill="#d7e4f7"/><path d="m380.249 7.502v46.593h46.593z" fill="#d7e4f7"/><path d="m473.436 442.374h-403.802c-17.159 0-31.07-13.911-31.07-31.07v-124.242h403.802c17.159 0 31.07 13.911 31.07 31.07z" fill="#36f595"/><path d="m85.157 411.304v-124.242h-46.593v124.241c0 17.159 13.911 31.07 31.07 31.07h46.593c-17.159.001-31.07-13.91-31.07-31.069z" fill="#23db9e"/><g><path d="m272.349 15h100.399v39.095c0 4.142 3.357 7.5 7.5 7.5h39.091v115.935c0 4.142 3.357 7.5 7.5 7.5s7.5-3.358 7.5-7.5v-123.228c.002-.069.003-.137.003-.206 0-2.172-.923-4.128-2.399-5.498l-46.39-46.4c-1.403-1.405-3.329-2.198-5.303-2.198h-107.9c-4.143 0-7.5 3.358-7.5 7.5s3.357 7.5 7.499 7.5zm115.4 10.609 20.982 20.987h-20.982z"/><path d="m480.94 318.13c0-21.268-17.303-38.57-38.57-38.57h-8.03v-69.34c0-4.142-3.357-7.5-7.5-7.5s-7.5 3.358-7.5 7.5v69.34h-326.68v-264.56h147.01c4.142 0 7.5-3.358 7.5-7.5s-3.358-7.5-7.5-7.5h-154.51c-4.142 0-7.5 3.358-7.5 7.5v241.203h-8.236c-21.052 0-38.197 17.047-38.357 38.063-.004.098-.006.196-.006.295v124.239c0 21.268 17.302 38.57 38.57 38.57h8.03v54.63c0 4.142 3.358 7.5 7.5 7.5h341.68c4.143 0 7.5-3.358 7.5-7.5v-23.564h7.831c21.181 0 38.448-17.076 38.76-38.184.006-.126.01-.253.01-.381v-124.241zm-411.516-54.427h8.234v15.857h-30.358c3.132-9.211 11.867-15.857 22.124-15.857zm23.236 233.297v-47.13h69.34c4.142 0 7.5-3.358 7.5-7.5s-3.358-7.5-7.5-7.5h-92.37c-12.997 0-23.57-10.574-23.57-23.57v-116.738l396.31-.002c12.997 0 23.57 10.573 23.57 23.57v116.541l-271.25.199c-4.142 0-7.5 3.358-7.5 7.5s3.358 7.5 7.5 7.5h224.65v47.13zm349.511-31.064h-7.828v-16.066h30.312c-3.205 9.337-12.074 16.066-22.484 16.066z"/><path d="m124.251 69.626c0 4.142 3.358 7.5 7.5 7.5h124.249c4.143 0 7.5-3.358 7.5-7.5s-3.357-7.5-7.5-7.5h-124.249c-4.142 0-7.5 3.358-7.5 7.5z"/><path d="m380.249 93.189h-248.498c-4.142 0-7.5 3.358-7.5 7.5s3.358 7.5 7.5 7.5h248.498c4.143 0 7.5-3.358 7.5-7.5s-3.358-7.5-7.5-7.5z"/><path d="m380.249 155.313h-248.498c-4.142 0-7.5 3.358-7.5 7.5s3.358 7.5 7.5 7.5h248.498c4.143 0 7.5-3.358 7.5-7.5s-3.358-7.5-7.5-7.5z"/><path d="m380.249 217.438h-248.498c-4.142 0-7.5 3.358-7.5 7.5s3.358 7.5 7.5 7.5h248.498c4.143 0 7.5-3.358 7.5-7.5s-3.358-7.5-7.5-7.5z"/><path d="m380.249 124.251h-248.498c-4.142 0-7.5 3.358-7.5 7.5s3.358 7.5 7.5 7.5h248.498c4.143 0 7.5-3.358 7.5-7.5s-3.358-7.5-7.5-7.5z"/><path d="m380.249 186.375h-248.498c-4.142 0-7.5 3.358-7.5 7.5s3.358 7.5 7.5 7.5h248.498c4.143 0 7.5-3.358 7.5-7.5s-3.358-7.5-7.5-7.5z"/><g><path d="m265.196 361.419 27.379-38.865c2.386-3.386 1.575-8.065-1.812-10.451-3.389-2.385-8.066-1.573-10.45 1.812l-24.285 34.472-24.248-34.468c-2.383-3.388-7.062-4.201-10.45-1.819-3.388 2.383-4.202 7.062-1.819 10.45l27.34 38.863-32.032 45.469c-2.385 3.386-1.641 8.163 1.812 10.451 3.555 2.355 8.555.98 10.451-1.812l28.937-41.076 28.894 41.072c2.211 3.185 6.774 4.171 10.449 1.819 3.489-2.232 4.202-7.062 1.818-10.45z"/><path d="m196.492 310.734h-51.342c-4.142 0-7.5 3.358-7.5 7.5s3.358 7.5 7.5 7.5h18.067v85.467c0 4.142 3.358 7.5 7.5 7.5s7.5-3.358 7.5-7.5v-85.467h18.274c4.142 0 7.5-3.358 7.5-7.5s-3.357-7.5-7.499-7.5z"/><path d="m366.849 310.734h-51.343c-4.143 0-7.5 3.358-7.5 7.5s3.357 7.5 7.5 7.5h18.067v85.467c0 4.142 3.357 7.5 7.5 7.5s7.5-3.358 7.5-7.5v-85.467h18.275c4.143 0 7.5-3.358 7.5-7.5s-3.356-7.5-7.499-7.5z"/></g></g></g></svg>