<svg xmlns="http://www.w3.org/2000/svg" height="512pt" version="1.1" viewBox="0 0 512 512" width="512pt">
<g id="surface1">
<path d="M 512 256 C 512 397.386719 397.386719 512 256 512 C 114.613281 512 0 397.386719 0 256 C 0 114.613281 114.613281 0 256 0 C 397.386719 0 512 114.613281 512 256 Z M 512 256 " style=" stroke:none;fill-rule:nonzero;fill:rgb(29.019608%,47.843137%,100%);fill-opacity:1;" />
<path d="M 512 256 C 512 241.367188 510.753906 227.027344 508.394531 213.066406 L 405.761719 110.433594 L 400.578125 123.191406 L 375.34375 97.953125 L 366.585938 132.566406 L 331.972656 97.953125 L 331.023438 140.375 L 288.605469 97.953125 L 290.667969 143.386719 L 245.234375 97.953125 L 238.339844 134.425781 L 201.867188 97.953125 L 199.566406 139.023438 L 158.496094 97.953125 L 106.238281 385 L 232.117188 510.882812 C 239.984375 511.609375 247.945312 512 256 512 C 397.386719 512 512 397.386719 512 256 Z M 512 256 " style=" stroke:none;fill-rule:nonzero;fill:rgb(15.686275%,39.215686%,94.117647%);fill-opacity:1;" />
<path d="M 405.761719 385 L 106.238281 385 L 106.238281 173.875 L 109.238281 170.433594 L 402.761719 170.433594 L 405.761719 173.875 Z M 405.761719 385 " style=" stroke:none;fill-rule:nonzero;fill:rgb(100%,100%,100%);fill-opacity:1;" />
<path d="M 402.761719 169.433594 L 256 169.433594 L 256 385 L 405.761719 385 L 405.761719 173.875 Z M 402.761719 169.433594 " style=" stroke:none;fill-rule:nonzero;fill:rgb(91.372549%,92.941176%,96.078431%);fill-opacity:1;" />
<path d="M 106.238281 110.433594 L 405.761719 110.433594 L 405.761719 173.875 L 106.238281 173.875 Z M 106.238281 110.433594 " style=" stroke:none;fill-rule:nonzero;fill:rgb(99.607843%,41.568627%,8.627451%);fill-opacity:1;" />
<path d="M 256 110.433594 L 405.761719 110.433594 L 405.761719 173.875 L 256 173.875 Z M 256 110.433594 " style=" stroke:none;fill-rule:nonzero;fill:rgb(94.901961%,27.058824%,0%);fill-opacity:1;" />
<path d="M 136.65625 97.953125 L 158.496094 97.953125 L 158.496094 142.15625 L 136.65625 142.15625 Z M 136.65625 97.953125 " style=" stroke:none;fill-rule:nonzero;fill:rgb(100%,83.137255%,0%);fill-opacity:1;" />
<path d="M 180.027344 97.953125 L 201.867188 97.953125 L 201.867188 142.15625 L 180.027344 142.15625 Z M 180.027344 97.953125 " style=" stroke:none;fill-rule:nonzero;fill:rgb(100%,83.137255%,0%);fill-opacity:1;" />
<path d="M 223.394531 97.953125 L 245.234375 97.953125 L 245.234375 142.15625 L 223.394531 142.15625 Z M 223.394531 97.953125 " style=" stroke:none;fill-rule:nonzero;fill:rgb(100%,83.137255%,0%);fill-opacity:1;" />
<path d="M 266.765625 97.953125 L 288.605469 97.953125 L 288.605469 142.15625 L 266.765625 142.15625 Z M 266.765625 97.953125 " style=" stroke:none;fill-rule:nonzero;fill:rgb(99.215686%,72.941176%,7.058824%);fill-opacity:1;" />
<path d="M 310.132812 97.953125 L 331.972656 97.953125 L 331.972656 142.15625 L 310.132812 142.15625 Z M 310.132812 97.953125 " style=" stroke:none;fill-rule:nonzero;fill:rgb(99.215686%,72.941176%,7.058824%);fill-opacity:1;" />
<path d="M 353.503906 97.953125 L 375.34375 97.953125 L 375.34375 142.15625 L 353.503906 142.15625 Z M 353.503906 97.953125 " style=" stroke:none;fill-rule:nonzero;fill:rgb(99.215686%,72.941176%,7.058824%);fill-opacity:1;" />
<path d="M 219.234375 230.074219 L 137.128906 230.074219 L 137.128906 253.96875 L 166.234375 253.96875 L 166.234375 313.261719 L 190.128906 313.261719 L 190.128906 253.96875 L 219.234375 253.96875 Z M 219.234375 230.074219 " style=" stroke:none;fill-rule:nonzero;fill:rgb(3.529412%,80.784314%,40.392157%);fill-opacity:1;" />
<path d="M 374.871094 231.152344 L 349.136719 231.152344 L 337.496094 251.414062 L 325.851562 231.152344 L 300.117188 231.152344 L 323.710938 272.207031 L 300.117188 313.261719 L 325.851562 313.261719 L 337.496094 293.003906 L 349.136719 313.261719 L 374.871094 313.261719 L 351.28125 272.207031 Z M 374.871094 231.152344 " style=" stroke:none;fill-rule:nonzero;fill:rgb(10.196078%,67.843137%,36.078431%);fill-opacity:1;" />
<path d="M 272.851562 313.261719 L 296.746094 313.261719 L 274.074219 231.15625 L 237.925781 231.15625 L 215.253906 313.261719 L 239.148438 313.261719 L 244.910156 292.394531 L 267.085938 292.394531 Z M 249.515625 275.722656 L 256 252.234375 L 262.484375 275.722656 Z M 249.515625 275.722656 " style=" stroke:none;fill-rule:nonzero;fill:rgb(3.529412%,80.784314%,40.392157%);fill-opacity:1;" />
<path d="M 274.074219 231.152344 L 256 231.152344 L 256 252.234375 L 262.484375 275.722656 L 256 275.722656 L 256 292.394531 L 267.089844 292.394531 L 272.851562 313.261719 L 296.746094 313.261719 Z M 274.074219 231.152344 " style=" stroke:none;fill-rule:nonzero;fill:rgb(10.196078%,67.843137%,36.078431%);fill-opacity:1;" />
</g>
</svg>