<svg id="Layer_1" enable-background="new 0 0 512 512" height="512" viewBox="0 0 512 512" width="512" xmlns="http://www.w3.org/2000/svg"><path d="m456.74 52.961h-248.217c-1.668-2.661-3.448-5.26-5.346-7.786-2.489-3.312-7.191-3.979-10.501-1.49-3.312 2.489-3.978 7.19-1.49 10.501 14.014 18.646 20.873 41.81 19.312 65.223-1.575 23.63-11.675 45.878-28.439 62.647-19.083 19.078-44.138 28.616-69.201 28.613-25.057-.002-50.12-9.54-69.193-28.613-18.485-18.485-28.665-43.06-28.665-69.199s10.18-50.712 28.666-69.193c16.766-16.766 39.009-26.868 62.631-28.445 23.408-1.561 46.569 5.294 65.219 19.308 3.311 2.488 8.013 1.82 10.501-1.491 2.488-3.312 1.821-8.013-1.491-10.501-21.521-16.171-48.238-24.082-75.229-22.282-27.248 1.819-52.903 13.469-72.237 32.804-21.319 21.314-33.06 49.654-33.06 79.8s11.741 58.488 33.059 79.806c6.146 6.146 12.831 11.432 19.903 15.86v248.215c0 30.47 24.785 55.26 55.25 55.26h348.528c30.471 0 55.26-24.79 55.26-55.26v-348.527c0-30.465-24.789-55.25-55.26-55.25zm0 15c22.199 0 40.26 18.056 40.26 40.25v36.61h-275.901c2.332-7.899 3.811-16.081 4.366-24.414 1.207-18.103-1.961-36.078-9.052-52.446zm0 429.038h-348.528c-22.194 0-40.25-18.061-40.25-40.26v-240.335c14.281 6.171 29.588 9.259 44.896 9.259 11.029 0 22.057-1.607 32.704-4.812l16.204 44.17c-8.223 5.693-13.623 15.187-13.623 25.922 0 17.377 14.137 31.514 31.514 31.514s31.514-14.137 31.514-31.514c0-17.376-14.137-31.514-31.514-31.514-1.313 0-2.604.09-3.875.247l-16.178-44.099c11.988-5.439 23.216-13.073 33.061-22.915 9.583-9.586 17.275-20.726 22.82-32.842h281.515v296.918c0 22.2-18.061 40.261-40.26 40.261zm-277.083-222.569c9.105 0 16.514 7.408 16.514 16.514s-7.408 16.514-16.514 16.514-16.514-7.408-16.514-16.514 7.408-16.514 16.514-16.514z"/><path d="m248.205 181.495c-17.376 0-31.514 14.137-31.514 31.514s14.137 31.514 31.514 31.514 31.514-14.137 31.514-31.514-14.137-31.514-31.514-31.514zm0 48.027c-9.105 0-16.514-7.408-16.514-16.514s7.408-16.514 16.514-16.514 16.514 7.408 16.514 16.514-7.408 16.514-16.514 16.514z"/><path d="m316.754 181.495c-17.377 0-31.515 14.137-31.515 31.514s14.138 31.514 31.515 31.514 31.514-14.137 31.514-31.514-14.137-31.514-31.514-31.514zm0 48.027c-9.106 0-16.515-7.408-16.515-16.514s7.408-16.514 16.515-16.514c9.105 0 16.514 7.408 16.514 16.514s-7.409 16.514-16.514 16.514z"/><path d="m385.302 181.495c-17.377 0-31.514 14.137-31.514 31.514s14.137 31.514 31.514 31.514 31.514-14.137 31.514-31.514-14.137-31.514-31.514-31.514zm0 48.027c-9.105 0-16.514-7.408-16.514-16.514s7.408-16.514 16.514-16.514 16.514 7.408 16.514 16.514-7.409 16.514-16.514 16.514z"/><path d="m453.851 181.495c-17.377 0-31.514 14.137-31.514 31.514s14.137 31.514 31.514 31.514 31.514-14.137 31.514-31.514-14.137-31.514-31.514-31.514zm0 48.027c-9.105 0-16.514-7.408-16.514-16.514s7.408-16.514 16.514-16.514 16.514 7.408 16.514 16.514-7.409 16.514-16.514 16.514z"/><path d="m111.108 259.43c-17.376 0-31.514 14.137-31.514 31.514s14.137 31.514 31.514 31.514 31.514-14.137 31.514-31.514-14.137-31.514-31.514-31.514zm0 48.028c-9.105 0-16.514-7.408-16.514-16.514 0-9.105 7.408-16.514 16.514-16.514s16.514 7.408 16.514 16.514c0 9.105-7.408 16.514-16.514 16.514z"/><path d="m248.205 259.43c-17.376 0-31.514 14.137-31.514 31.514s14.137 31.514 31.514 31.514 31.514-14.137 31.514-31.514-14.137-31.514-31.514-31.514zm0 48.028c-9.105 0-16.514-7.408-16.514-16.514 0-9.105 7.408-16.514 16.514-16.514s16.514 7.408 16.514 16.514c0 9.105-7.408 16.514-16.514 16.514z"/><path d="m316.754 259.43c-17.377 0-31.515 14.137-31.515 31.514s14.138 31.514 31.515 31.514 31.514-14.137 31.514-31.514-14.137-31.514-31.514-31.514zm0 48.028c-9.106 0-16.515-7.408-16.515-16.514 0-9.105 7.408-16.514 16.515-16.514 9.105 0 16.514 7.408 16.514 16.514 0 9.105-7.409 16.514-16.514 16.514z"/><path d="m385.302 259.43c-17.377 0-31.514 14.137-31.514 31.514s14.137 31.514 31.514 31.514 31.514-14.137 31.514-31.514c-.001-17.377-14.137-31.514-31.514-31.514zm0 48.028c-9.105 0-16.514-7.408-16.514-16.514 0-9.105 7.408-16.514 16.514-16.514s16.514 7.408 16.514 16.514c-.001 9.105-7.409 16.514-16.514 16.514z"/><path d="m453.851 259.43c-17.377 0-31.514 14.137-31.514 31.514s14.137 31.514 31.514 31.514 31.514-14.137 31.514-31.514c-.001-17.377-14.137-31.514-31.514-31.514zm0 48.028c-9.105 0-16.514-7.408-16.514-16.514 0-9.105 7.408-16.514 16.514-16.514s16.514 7.408 16.514 16.514c-.001 9.105-7.409 16.514-16.514 16.514z"/><path d="m111.108 337.365c-17.376 0-31.514 14.137-31.514 31.514 0 17.376 14.137 31.514 31.514 31.514s31.514-14.137 31.514-31.514-14.137-31.514-31.514-31.514zm0 48.028c-9.105 0-16.514-7.408-16.514-16.514s7.408-16.514 16.514-16.514 16.514 7.408 16.514 16.514-7.408 16.514-16.514 16.514z"/><path d="m179.657 337.365c-17.376 0-31.514 14.137-31.514 31.514 0 17.376 14.137 31.514 31.514 31.514s31.514-14.137 31.514-31.514c-.001-17.377-14.138-31.514-31.514-31.514zm0 48.028c-9.105 0-16.514-7.408-16.514-16.514s7.408-16.514 16.514-16.514 16.514 7.408 16.514 16.514c-.001 9.106-7.409 16.514-16.514 16.514z"/><path d="m248.205 337.365c-17.376 0-31.514 14.137-31.514 31.514 0 17.376 14.137 31.514 31.514 31.514s31.514-14.137 31.514-31.514-14.137-31.514-31.514-31.514zm0 48.028c-9.105 0-16.514-7.408-16.514-16.514s7.408-16.514 16.514-16.514 16.514 7.408 16.514 16.514-7.408 16.514-16.514 16.514z"/><path d="m316.754 337.365c-17.377 0-31.515 14.137-31.515 31.514 0 17.376 14.138 31.514 31.515 31.514s31.514-14.137 31.514-31.514-14.137-31.514-31.514-31.514zm0 48.028c-9.106 0-16.515-7.408-16.515-16.514s7.408-16.514 16.515-16.514c9.105 0 16.514 7.408 16.514 16.514s-7.409 16.514-16.514 16.514z"/><path d="m385.302 337.365c-17.377 0-31.514 14.137-31.514 31.514 0 17.376 14.137 31.514 31.514 31.514s31.514-14.137 31.514-31.514c-.001-17.377-14.137-31.514-31.514-31.514zm0 48.028c-9.105 0-16.514-7.408-16.514-16.514s7.408-16.514 16.514-16.514 16.514 7.408 16.514 16.514c-.001 9.106-7.409 16.514-16.514 16.514z"/><path d="m453.851 337.369c-17.375 0-31.51 14.135-31.51 31.51s14.135 31.51 31.51 31.51c1.525 0 3.075-.115 4.605-.341 4.098-.605 6.929-4.417 6.324-8.515-.605-4.099-4.432-6.925-8.516-6.324-.808.119-1.62.18-2.414.18-9.104 0-16.51-7.406-16.51-16.51s7.406-16.51 16.51-16.51 16.51 7.406 16.51 16.51c0 1.279-.142 2.514-.421 3.67-.972 4.026 1.505 8.079 5.531 9.05 4.027.974 8.079-1.504 9.051-5.531.557-2.307.839-4.726.839-7.19 0-17.373-14.134-31.509-31.509-31.509z"/><path d="m111.108 415.3c-17.376 0-31.514 14.137-31.514 31.514s14.137 31.514 31.514 31.514 31.514-14.137 31.514-31.514-14.137-31.514-31.514-31.514zm0 48.028c-9.105 0-16.514-7.408-16.514-16.514s7.408-16.514 16.514-16.514 16.514 7.408 16.514 16.514-7.408 16.514-16.514 16.514z"/><path d="m179.657 415.3c-17.376 0-31.514 14.137-31.514 31.514s14.137 31.514 31.514 31.514 31.514-14.137 31.514-31.514-14.138-31.514-31.514-31.514zm0 48.028c-9.105 0-16.514-7.408-16.514-16.514s7.408-16.514 16.514-16.514 16.514 7.408 16.514 16.514-7.409 16.514-16.514 16.514z"/><path d="m248.205 415.3c-17.376 0-31.514 14.137-31.514 31.514s14.137 31.514 31.514 31.514 31.514-14.137 31.514-31.514-14.137-31.514-31.514-31.514zm0 48.028c-9.105 0-16.514-7.408-16.514-16.514s7.409-16.514 16.514-16.514 16.514 7.408 16.514 16.514-7.408 16.514-16.514 16.514z"/><path d="m316.754 415.3c-17.377 0-31.515 14.137-31.515 31.514s14.138 31.514 31.515 31.514 31.514-14.137 31.514-31.514-14.137-31.514-31.514-31.514zm0 48.028c-9.106 0-16.515-7.408-16.515-16.514s7.408-16.514 16.515-16.514c9.105 0 16.514 7.408 16.514 16.514s-7.409 16.514-16.514 16.514z"/><path d="m88.482 179.088c-.967 0-1.951-.188-2.899-.586-3.819-1.603-5.616-5.999-4.013-9.818l50.375-120.035c1.603-3.819 5.999-5.615 9.818-4.013 3.819 1.603 5.616 5.999 4.013 9.818l-50.375 120.034c-1.205 2.872-3.988 4.6-6.919 4.6z"/><path d="m78.841 105.188c-16.409 0-29.759-14.968-29.759-33.366s13.35-33.366 29.759-33.366 29.759 14.968 29.759 33.366-13.35 33.366-29.759 33.366zm0-51.731c-8.138 0-14.759 8.239-14.759 18.366s6.621 18.366 14.759 18.366 14.759-8.24 14.759-18.367-6.621-18.365-14.759-18.365z"/><path d="m146.876 187.258c-16.409 0-29.759-14.968-29.759-33.366s13.35-33.366 29.759-33.366 29.759 14.968 29.759 33.366-13.349 33.366-29.759 33.366zm0-51.731c-8.138 0-14.759 8.239-14.759 18.366s6.621 18.366 14.759 18.366 14.759-8.239 14.759-18.366-6.62-18.366-14.759-18.366z"/></svg>