<svg id="Capa_1" enable-background="new 0 0 510 510" height="512" viewBox="0 0 510 510" width="512" xmlns="http://www.w3.org/2000/svg" xmlns:xlink="http://www.w3.org/1999/xlink"><linearGradient id="lg1"><stop offset="0" stop-color="#f9f7f8"/><stop offset="1" stop-color="#e5e1e5"/></linearGradient><linearGradient id="SVGID_1_" gradientUnits="userSpaceOnUse" x1="413.289" x2="449.852" xlink:href="#lg1" y1="46.474" y2="96.578"/><linearGradient id="lg2"><stop offset="0" stop-color="#9b8e99" stop-opacity="0"/><stop offset=".3465" stop-color="#978a95" stop-opacity=".347"/><stop offset=".7135" stop-color="#8a7f88" stop-opacity=".714"/><stop offset="1" stop-color="#7b7179"/></linearGradient><linearGradient id="SVGID_00000057828052551810668390000015629595382094889116_" gradientUnits="userSpaceOnUse" x1="438.511" x2="379.456" xlink:href="#lg2" y1="76.634" y2="12.211"/><linearGradient id="SVGID_00000017478664616848933420000017360160091788160700_" gradientUnits="userSpaceOnUse" x1="428.333" x2="428.333" xlink:href="#lg2" y1="62" y2="113.157"/><linearGradient id="SVGID_00000046315384625350979920000017572894727188597634_" gradientUnits="userSpaceOnUse" x1="460" x2="519.034" xlink:href="#lg2" y1="50.378" y2="50.378"/><linearGradient id="SVGID_00000108990419112249745480000015597957396606504834_" gradientUnits="userSpaceOnUse" x1="129.551" x2="239.056" xlink:href="#lg1" y1="131.289" y2="240.794"/><linearGradient id="SVGID_00000164501297659068268980000014753468045187597242_" gradientUnits="userSpaceOnUse" x1="307.892" x2="429.892" xlink:href="#lg2" y1="234.104" y2="265.104"/><linearGradient id="SVGID_00000182519033549080332530000007714197491240000667_" gradientUnits="userSpaceOnUse" x1="189.314" x2="189.314" xlink:href="#lg2" y1="426" y2="500.813"/><linearGradient id="lg3"><stop offset="0" stop-color="#f89580"/><stop offset="1" stop-color="#c4573a"/></linearGradient><linearGradient id="SVGID_00000070796936432091276280000005923880263401303982_" gradientUnits="userSpaceOnUse" x1="362.723" x2="411.334" xlink:href="#lg3" y1="215.882" y2="238.232"/><linearGradient id="lg4"><stop offset="0" stop-color="#c4573a" stop-opacity="0"/><stop offset=".2421" stop-color="#bf5539" stop-opacity=".242"/><stop offset=".5195" stop-color="#b15036" stop-opacity=".52"/><stop offset=".8132" stop-color="#9b4632" stop-opacity=".813"/><stop offset="1" stop-color="#883f2e"/></linearGradient><linearGradient id="SVGID_00000090271899919123773860000018225167254620574611_" gradientUnits="userSpaceOnUse" x1="412.991" x2="364.379" xlink:href="#lg4" y1="215.892" y2="246.064"/><linearGradient id="SVGID_00000183216072583959726960000018384828667958976404_" gradientUnits="userSpaceOnUse" x1="378.454" x2="415.331" xlink:href="#lg4" y1="218.25" y2="248.423"/><linearGradient id="SVGID_00000111900182088008269450000008194130094120962211_" gradientUnits="userSpaceOnUse" x1="391.352" x2="391.352" xlink:href="#lg4" y1="238.077" y2="271.719"/><linearGradient id="SVGID_00000077288126589760252700000005730569970088991380_" gradientUnits="userSpaceOnUse" x1="351.595" x2="384.561" xlink:href="#lg3" y1="241.834" y2="258.038"/><linearGradient id="SVGID_00000106836104877432722830000007423545706100756894_" gradientUnits="userSpaceOnUse" x1="369.074" x2="383.601" xlink:href="#lg4" y1="240.277" y2="272.126"/><linearGradient id="SVGID_00000180350920096507904330000007519146189736891278_" gradientUnits="userSpaceOnUse" x1="359.314" x2="386.134" xlink:href="#lg4" y1="244.069" y2="261.39"/><linearGradient id="SVGID_00000140003550624541185430000016345221518258890881_" gradientUnits="userSpaceOnUse" x1="336.655" x2="403.705" xlink:href="#lg3" y1="338.157" y2="436.497"/><linearGradient id="SVGID_00000000180681732097776280000005315657163885928099_" gradientUnits="userSpaceOnUse" x1="384.013" x2="384.013" xlink:href="#lg4" y1="316.024" y2="286.883"/><linearGradient id="SVGID_00000021840241108121065750000001219084482874108071_" gradientUnits="userSpaceOnUse" x1="420.235" x2="454.319" xlink:href="#lg4" y1="344.455" y2="285.228"/><linearGradient id="SVGID_00000002359087795653254910000018146494079334892705_" gradientUnits="userSpaceOnUse" x1="346.051" x2="309.732" xlink:href="#lg4" y1="336.817" y2="269.209"/><linearGradient id="SVGID_00000054238080175737847890000011865998531233000124_" gradientUnits="userSpaceOnUse" x1="370.313" x2="298.234" xlink:href="#lg4" y1="385.973" y2="332.892"/><linearGradient id="SVGID_00000078742805577509781560000011003576018354045096_" gradientUnits="userSpaceOnUse" x1="384.013" x2="384.013" xlink:href="#lg4" y1="477.083" y2="504.754"/><linearGradient id="SVGID_00000099660670026159514410000006754927963828192641_" gradientUnits="userSpaceOnUse" x1="467.621" x2="349.621" xlink:href="#lg4" y1="445.004" y2="417.671"/><linearGradient id="lg5"><stop offset="0" stop-color="#fef0ae"/><stop offset="1" stop-color="#fac600"/></linearGradient><linearGradient id="SVGID_00000139270927160233707200000008564874479309831820_" gradientUnits="userSpaceOnUse" x1="384.013" x2="384.013" xlink:href="#lg5" y1="247.638" y2="266.058"/><linearGradient id="SVGID_00000132083097972795965570000008629029596382744461_" gradientUnits="userSpaceOnUse" x1="384.013" x2="384.013" xlink:href="#lg5" y1="267.332" y2="285.752"/><linearGradient id="SVGID_00000117643948198324335250000000210632563919671470_" gradientUnits="userSpaceOnUse" x1="225.989" x2="396.978" xlink:href="#lg5" y1="358.428" y2="529.417"/><linearGradient id="lg6"><stop offset="0" stop-color="#fea613" stop-opacity="0"/><stop offset=".2032" stop-color="#fda215" stop-opacity=".203"/><stop offset=".4052" stop-color="#fb961b" stop-opacity=".405"/><stop offset=".6066" stop-color="#f68225" stop-opacity=".607"/><stop offset=".8066" stop-color="#f06633" stop-opacity=".807"/><stop offset="1" stop-color="#e94444"/></linearGradient><linearGradient id="SVGID_00000090275304578099342250000005147418210527874746_" gradientUnits="userSpaceOnUse" x1="368.39" x2="212.524" xlink:href="#lg6" y1="400.607" y2="400.607"/><linearGradient id="SVGID_00000177473153269808923870000012818572015542736785_" gradientTransform="matrix(0 1 -1 0 693.889 -1022.332)" gradientUnits="userSpaceOnUse" x1="1523.162" x2="1367.296" xlink:href="#lg6" y1="425.722" y2="425.722"/><linearGradient id="SVGID_00000046319899919624972090000003314618601643043215_" gradientTransform="matrix(.707 -.707 .707 .707 346.629 508.394)" gradientUnits="userSpaceOnUse" x1="120.958" x2="-34.907" xlink:href="#lg6" y1="-131.697" y2="-131.697"/><linearGradient id="SVGID_00000106116017612223863620000016517507300065622703_" gradientTransform="matrix(.707 .707 -.707 .707 114.385 -705.158)" gradientUnits="userSpaceOnUse" x1="990.857" x2="834.992" xlink:href="#lg6" y1="673.153" y2="673.153"/><linearGradient id="SVGID_00000048488127691831157040000000922167934071410334_" gradientTransform="matrix(.925 .379 -.379 .925 -3.486 -310.747)" gradientUnits="userSpaceOnUse" x1="621.37" x2="465.504" xlink:href="#lg6" y1="555.182" y2="555.182"/><linearGradient id="SVGID_00000114786398343974582700000005143182707530770602_" gradientTransform="matrix(-.379 .925 -.925 -.379 1026.294 -993.536)" gradientUnits="userSpaceOnUse" x1="1677.736" x2="1521.871" xlink:href="#lg6" y1="172.742" y2="172.742"/><linearGradient id="SVGID_00000129890970179891896690000017258719080626428583_" gradientTransform="matrix(.923 -.386 .386 .923 124.433 291.127)" gradientUnits="userSpaceOnUse" x1="190.541" x2="34.676" xlink:href="#lg6" y1="156.487" y2="156.487"/><linearGradient id="SVGID_00000080175767065351570730000005577914048363043485_" gradientTransform="matrix(.386 .923 -.923 .386 369.792 -919.841)" gradientUnits="userSpaceOnUse" x1="1279.041" x2="1123.176" xlink:href="#lg6" y1="603.571" y2="603.571"/><linearGradient id="SVGID_00000134208372520275042610000005766850149007707286_" gradientUnits="userSpaceOnUse" x1="340.222" x2="176.187" xlink:href="#lg5" y1="472.661" y2="308.627"/><linearGradient id="SVGID_00000086672471070863971370000011916398977027630991_" gradientUnits="userSpaceOnUse" x1="457.696" x2="121.818" xlink:href="#lg6" y1="590.136" y2="254.258"/><linearGradient id="SVGID_00000165944981804558326840000018254431042168798909_" gradientUnits="userSpaceOnUse" x1="65.846" x2="385.346" xlink:href="#lg6" y1="238.735" y2="489.235"/><linearGradient id="SVGID_00000103238994113162997670000003519506590992879032_" gradientUnits="userSpaceOnUse" x1="64.356" x2="383.856" xlink:href="#lg6" y1="240.635" y2="491.135"/><linearGradient id="SVGID_00000145780280334686698290000008765881508182470060_" gradientUnits="userSpaceOnUse" x1="62.831" x2="382.331" xlink:href="#lg6" y1="242.581" y2="493.081"/><linearGradient id="SVGID_00000128477950197585277700000017092562716575203974_" gradientUnits="userSpaceOnUse" x1="268.168" x2="268.168" xlink:href="#lg6" y1="452.457" y2="520.006"/><linearGradient id="lg7"><stop offset="0" stop-color="#5b5555"/><stop offset="1" stop-color="#433f43"/></linearGradient><linearGradient id="SVGID_00000103987681478714779550000006585319378636700061_" gradientUnits="userSpaceOnUse" x1="100.868" x2="171.873" xlink:href="#lg7" y1="99.229" y2="99.229"/><linearGradient id="SVGID_00000019667293707477876940000018186973654286490009_" gradientUnits="userSpaceOnUse" x1="164.989" x2="243.419" xlink:href="#lg7" y1="98.823" y2="98.823"/><linearGradient id="SVGID_00000153668347768482568640000004847093604717263511_" gradientUnits="userSpaceOnUse" x1="245.037" x2="322.521" xlink:href="#lg7" y1="99.228" y2="99.228"/><g><g><g><path d="m498.299 100.718h-151.632v-99.679l113.731-1.001c27.394 0 49.602 22.208 49.602 49.603v39.375c0 6.463-5.239 11.702-11.701 11.702z" fill="url(#SVGID_1_)"/><path d="m498.299 100.718h-151.632v-99.679l113.731-1.001c27.394 0 49.602 22.208 49.602 49.603v39.375c0 6.463-5.239 11.702-11.701 11.702z" fill="url(#SVGID_00000057828052551810668390000015629595382094889116_)"/><path d="m498.299 100.718h-151.632v-99.679l113.731-1.001c27.394 0 49.602 22.208 49.602 49.603v39.375c0 6.463-5.239 11.702-11.701 11.702z" fill="url(#SVGID_00000017478664616848933420000017360160091788160700_)"/><path d="m498.299 100.718h-151.632v-99.679l113.731-1.001c27.394 0 49.602 22.208 49.602 49.603v39.375c0 6.463-5.239 11.702-11.701 11.702z" fill="url(#SVGID_00000046315384625350979920000017572894727188597634_)"/></g><path d="m58.477 94.391v290.17c0 38.368-22.982 71.363-55.928 85.985-1.536.682-2.549 2.177-2.549 3.857 0 2.315 1.877 4.192 4.192 4.192h280.045c52.131 0 94.391-42.26 94.391-94.391v-290.17c.001-51.934 42.101-94.034 94.035-94.034h-319.795c-52.131 0-94.391 42.26-94.391 94.391z" fill="url(#SVGID_00000108990419112249745480000015597957396606504834_)"/><path d="m184 478.595h100.238c52.131 0 94.391-42.26 94.391-94.391v-290.17c0-51.934 42.1-94.034 94.034-94.034h-288.663z" fill="url(#SVGID_00000164501297659068268980000014753468045187597242_)"/><path d="m58.477 301v83.561c0 38.368-22.982 71.363-55.928 85.985-1.536.682-2.549 2.177-2.549 3.857 0 2.315 1.877 4.192 4.192 4.192h280.045c52.131 0 94.391-42.26 94.391-94.391v-83.204z" fill="url(#SVGID_00000182519033549080332530000007714197491240000667_)"/></g><g><g><path d="m411.583 295.264h-40.462l-20.018-106.216c-2.366-12.554 7.263-24.167 20.038-24.167h40.422c12.775 0 22.404 11.613 20.038 24.167z" fill="url(#SVGID_00000070796936432091276280000005923880263401303982_)"/><path d="m404.067 295.264h-25.43l-12.581-106.216c-1.487-12.554 4.565-24.167 12.594-24.167h25.405c8.029 0 14.08 11.613 12.593 24.167z" fill="url(#SVGID_00000090271899919123773860000018225167254620574611_)"/><path d="m404.067 295.264h-25.43l-12.581-106.216c-1.487-12.554 4.565-24.167 12.594-24.167h25.405c8.029 0 14.08 11.613 12.593 24.167z" fill="url(#SVGID_00000183216072583959726960000018384828667958976404_)"/><path d="m355.921 214.61 15.2 80.654h40.462l15.2-80.654z" fill="url(#SVGID_00000111900182088008269450000008194130094120962211_)"/><path d="m383.099 295.264h-25.846l-14.115-64.344c-2.79-12.72 6.895-24.76 19.917-24.76h14.243c13.022 0 22.707 12.04 19.917 24.76z" fill="url(#SVGID_00000077288126589760252700000005730569970088991380_)"/><path d="m383.099 295.264h-25.846l-14.115-64.344c-2.79-12.72 6.895-24.76 19.917-24.76h14.243c13.022 0 22.707 12.04 19.917 24.76z" fill="url(#SVGID_00000106836104877432722830000007423545706100756894_)"/><path d="m378.114 295.264h-15.876l-8.67-64.344c-1.714-12.72 4.235-24.76 12.234-24.76h8.749c7.999 0 13.948 12.04 12.234 24.76z" fill="url(#SVGID_00000180350920096507904330000007519146189736891278_)"/></g><path d="m341.801 290.603-38.116 27.693c-41.283 29.994-56.728 84.313-37.401 131.54 14.893 36.39 50.31 60.164 89.629 60.164h56.199c39.319 0 74.736-23.774 89.628-60.164 19.327-47.227 3.882-101.546-37.401-131.54l-38.116-27.693c-25.169-18.287-59.252-18.287-84.422 0z" fill="url(#SVGID_00000140003550624541185430000016345221518258890881_)"/><path d="m341.801 290.603-38.116 27.693c-8.842 6.424-16.494 13.966-22.878 22.313h206.409c-6.384-8.347-14.036-15.889-22.878-22.313l-38.116-27.693c-25.168-18.287-59.251-18.287-84.421 0z" fill="url(#SVGID_00000000180681732097776280000005315657163885928099_)"/><path d="m354.438 290.603-26.705 27.693c-28.924 29.994-39.746 84.313-26.204 131.54 10.433 36.39 35.247 60.164 62.796 60.164h39.375c27.549 0 52.363-23.774 62.797-60.164 13.541-47.227 2.72-101.546-26.204-131.54l-26.705-27.693c-17.635-18.287-41.515-18.287-59.15 0z" fill="url(#SVGID_00000021840241108121065750000001219084482874108071_)"/><path d="m354.438 290.603-26.705 27.693c-28.924 29.994-39.746 84.313-26.204 131.54 10.433 36.39 35.247 60.164 62.796 60.164h39.375c27.549 0 52.363-23.774 62.797-60.164 13.541-47.227 2.72-101.546-26.204-131.54l-26.705-27.693c-17.635-18.287-41.515-18.287-59.15 0z" fill="url(#SVGID_00000002359087795653254910000018146494079334892705_)"/><path d="m374.094 290.603-8.956 27.693c-9.7 29.994-13.329 84.313-8.788 131.54 3.499 36.39 11.821 60.164 21.06 60.164h13.205c9.239 0 17.561-23.774 21.06-60.164 4.541-47.227.912-101.546-8.788-131.54l-8.956-27.693c-5.914-18.287-13.923-18.287-19.837 0z" fill="url(#SVGID_00000054238080175737847890000011865998531233000124_)"/><path d="m266.285 449.836c14.892 36.39 50.309 60.164 89.628 60.164h56.199c39.319 0 74.736-23.774 89.628-60.164 9.063-22.147 10.48-45.853 5.171-67.879h-245.797c-5.309 22.026-3.892 45.732 5.171 67.879z" fill="url(#SVGID_00000078742805577509781560000011003576018354045096_)"/><path d="m345.5 323.275-87.418 87.418c.329 13.153 2.99 26.405 8.203 39.143 14.892 36.39 50.309 60.164 89.628 60.164h56.199c31.902 0 61.233-15.652 79.119-40.993z" fill="url(#SVGID_00000099660670026159514410000006754927963828192641_)"/><path d="m414.421 267.623h-60.818c-6.046 0-10.948-4.901-10.948-10.948v-2.645c0-6.046 4.901-10.948 10.948-10.948h60.818c6.046 0 10.948 4.901 10.948 10.948v2.645c0 6.047-4.901 10.948-10.948 10.948z" fill="url(#SVGID_00000139270927160233707200000008564874479309831820_)"/><path d="m419.231 287.317h-70.436c-6.437 0-11.655-5.218-11.655-11.655v-1.231c0-6.437 5.218-11.655 11.655-11.655h70.436c6.437 0 11.655 5.218 11.655 11.655v1.231c0 6.437-5.219 11.655-11.655 11.655z" fill="url(#SVGID_00000132083097972795965570000008629029596382744461_)"/></g><g><circle cx="268.168" cy="400.607" fill="url(#SVGID_00000117643948198324335250000000210632563919671470_)" r="109.364"/><g><path d="m377.531 400.607c0-60.4-48.964-109.364-109.364-109.364v218.728c60.401 0 109.364-48.964 109.364-109.364z" fill="url(#SVGID_00000090275304578099342250000005147418210527874746_)"/><path d="m268.168 509.971c60.4 0 109.364-48.964 109.364-109.364h-218.728c0 60.4 48.964 109.364 109.364 109.364z" fill="url(#SVGID_00000177473153269808923870000012818572015542736785_)"/></g><g><path d="m345.5 323.275c-42.709-42.709-111.955-42.709-154.664 0l154.664 154.664c42.709-42.709 42.709-111.954 0-154.664z" fill="url(#SVGID_00000046319899919624972090000003314618601643043215_)"/><path d="m345.5 477.939c42.709-42.709 42.709-111.955 0-154.664l-154.664 154.664c42.709 42.709 111.954 42.71 154.664 0z" fill="url(#SVGID_00000106116017612223863620000016517507300065622703_)"/></g><g><path d="m369.361 442.085c22.907-55.887-3.828-119.763-59.716-142.671l-82.955 202.387c55.888 22.907 119.763-3.829 142.671-59.716z" fill="url(#SVGID_00000048488127691831157040000000922167934071410334_)"/><path d="m226.69 501.801c55.887 22.907 119.763-3.828 142.671-59.716l-202.387-82.955c-22.907 55.887 3.829 119.763 59.716 142.671z" fill="url(#SVGID_00000114786398343974582700000005143182707530770602_)"/></g><g><path d="m369.051 358.382c-23.32-55.716-87.393-81.978-143.109-58.658l84.451 201.767c55.716-23.321 81.979-87.393 58.658-143.109z" fill="url(#SVGID_00000129890970179891896690000017258719080626428583_)"/><path d="m310.393 501.491c55.716-23.32 81.978-87.393 58.658-143.109l-201.767 84.451c23.321 55.716 87.393 81.978 143.109 58.658z" fill="url(#SVGID_00000080175767065351570730000005577914048363043485_)"/></g><circle cx="268.168" cy="400.607" fill="url(#SVGID_00000134208372520275042610000005766850149007707286_)" r="96.564"/><circle cx="268.168" cy="400.607" fill="url(#SVGID_00000086672471070863971370000011916398977027630991_)" r="85.759"/><g><path d="m305.8 393.065c-13.938 0-24.596 5.903-24.596 22.136v23.284c0 16.234 10.659 22.137 24.596 22.137 13.774 0 24.596-5.903 24.596-22.137v-23.284c0-16.233-10.822-22.136-24.596-22.136zm8.199 45.421c0 5.411-3.116 7.871-8.199 7.871s-8.034-2.459-8.034-7.871v-23.284c0-5.411 2.951-7.871 8.034-7.871s8.199 2.46 8.199 7.871z" fill="url(#SVGID_00000165944981804558326840000018254431042168798909_)"/><path d="m305.964 342.232c0-5.247-5.083-8.691-9.675-8.691-2.951 0-5.575 1.312-6.887 4.1l-57.555 118.226c-.492.984-.82 2.132-.82 3.115 0 4.1 3.607 8.691 9.182 8.691 3.115 0 6.231-1.639 7.379-4.099l57.719-118.226c.493-.984.657-2.131.657-3.116z" fill="url(#SVGID_00000103238994113162997670000003519506590992879032_)"/><path d="m255.132 385.686v-23.285c0-16.234-10.823-22.136-24.596-22.136-13.938 0-24.597 5.903-24.597 22.136v23.285c0 16.233 10.659 22.136 24.597 22.136 13.773 0 24.596-5.903 24.596-22.136zm-16.397 0c0 5.411-3.115 7.871-8.198 7.871-5.084 0-8.035-2.46-8.035-7.871v-23.285c0-5.411 2.951-7.871 8.035-7.871 5.083 0 8.198 2.46 8.198 7.871z" fill="url(#SVGID_00000145780280334686698290000008765881508182470060_)"/></g><path d="m376.761 413.596c-6.413 54.282-52.59 96.375-108.594 96.375s-102.181-42.093-108.594-96.375z" fill="url(#SVGID_00000128477950197585277700000017092562716575203974_)"/></g><g><g><g fill="#aa9ea9"><path d="m188.312 206.839h40.988c3.689 0 6.68-2.991 6.68-6.68s-2.991-6.68-6.68-6.68h-40.988c-3.689 0-6.68 2.991-6.68 6.68 0 3.69 2.99 6.68 6.68 6.68z"/><path d="m107.548 206.839h30.282c3.689 0 6.68-2.991 6.68-6.68s-2.991-6.68-6.68-6.68h-30.282c-3.689 0-6.68 2.991-6.68 6.68 0 3.69 2.991 6.68 6.68 6.68z"/><path d="m160.988 206.839h7.571c3.689 0 6.68-2.991 6.68-6.68s-2.991-6.68-6.68-6.68h-7.571c-3.689 0-6.68 2.991-6.68 6.68 0 3.69 2.99 6.68 6.68 6.68z"/><path d="m213.615 234.254c0-3.689-2.991-6.68-6.68-6.68h-68.66c-3.689 0-6.68 2.991-6.68 6.68s2.991 6.68 6.68 6.68h68.66c3.69 0 6.68-2.991 6.68-6.68z"/><path d="m331.9 200.159c0-3.689-2.991-6.68-6.68-6.68h-68.66c-3.689 0-6.68 2.991-6.68 6.68s2.991 6.68 6.68 6.68h68.66c3.689 0 6.68-2.99 6.68-6.68z"/><path d="m107.548 240.934h7.571c3.689 0 6.68-2.99 6.68-6.68 0-3.689-2.991-6.68-6.68-6.68h-7.571c-3.689 0-6.68 2.991-6.68 6.68s2.991 6.68 6.68 6.68z"/><path d="m229.3 266.002h-40.988c-3.689 0-6.68 2.991-6.68 6.68s2.991 6.68 6.68 6.68h40.988c3.689 0 6.68-2.991 6.68-6.68s-2.991-6.68-6.68-6.68z"/><path d="m107.548 279.362h30.282c3.689 0 6.68-2.991 6.68-6.68s-2.991-6.68-6.68-6.68h-30.282c-3.689 0-6.68 2.991-6.68 6.68s2.991 6.68 6.68 6.68z"/><path d="m160.988 266.002c-3.689 0-6.68 2.991-6.68 6.68s2.991 6.68 6.68 6.68h7.571c3.689 0 6.68-2.991 6.68-6.68s-2.991-6.68-6.68-6.68z"/></g><g><path d="m245.535 227.574h-7.571c-3.689 0-6.68 2.991-6.68 6.68s2.991 6.68 6.68 6.68h7.571c3.689 0 6.68-2.99 6.68-6.68 0-3.689-2.991-6.68-6.68-6.68z" fill="#aa9ea9"/></g></g><g><path d="m165.529 49.889c4.454 0 6.344 4.86 6.344 9.315 0 5.129-2.294 9.584-6.344 9.584h-18.629v73.299c0 4.32-5.265 6.48-10.529 6.48s-10.529-2.161-10.529-6.48v-73.298h-18.629c-4.05 0-6.345-4.456-6.345-9.584 0-4.456 1.89-9.315 6.345-9.315h58.316z" fill="url(#SVGID_00000103987681478714779550000006585319378636700061_)"/><path d="m164.989 139.929c0-.405.135-.945.27-1.485l25.109-82.345c1.485-4.725 7.559-7.02 13.769-7.02s12.285 2.295 13.77 7.02l25.243 82.345c.135.54.27 1.08.27 1.485 0 4.994-7.694 8.639-13.499 8.639-3.375 0-6.075-1.08-6.885-3.915l-4.59-16.875h-28.483l-4.59 16.875c-.81 2.835-3.509 3.915-6.884 3.915-5.806 0-13.5-3.645-13.5-8.639zm49.001-28.348-9.854-36.178-9.854 36.178z" fill="url(#SVGID_00000019667293707477876940000018186973654286490009_)"/><path d="m283.779 113.74-19.709 33.478c-.945 1.485-2.835 2.159-4.995 2.159-5.804 0-14.039-4.589-14.039-10.393 0-1.216.404-2.43 1.215-3.78l23.353-36.042-22.409-35.908c-.944-1.485-1.349-2.835-1.349-4.185 0-5.67 7.694-9.99 13.634-9.99 2.97 0 4.994 1.081 6.344 3.511l17.954 31.318 17.954-31.318c1.349-2.43 3.375-3.511 6.344-3.511 5.94 0 13.634 4.32 13.634 9.99 0 1.35-.405 2.7-1.35 4.185l-22.408 35.908 23.353 36.042c.81 1.35 1.215 2.564 1.215 3.78 0 5.804-8.234 10.393-14.039 10.393-2.16 0-4.185-.674-4.995-2.159z" fill="url(#SVGID_00000153668347768482568640000004847093604717263511_)"/></g></g></g></svg>