<svg height="512" viewBox="0 0 58 58" width="512" xmlns="http://www.w3.org/2000/svg"><g id="Page-1" fill="none" fill-rule="evenodd"><g id="026---Tax-Approved" fill-rule="nonzero"><path id="Shape" d="m40 55c0 1.6568542-1.3431458 3-3 3h-34c-1.65685425 0-3-1.3431458-3-3v-52c0-1.65685425 1.34314575-3 3-3h25.59c.2626887-.00064485.5147299.10377223.7.29l10.42 10.42c.1862278.1852701.2906448.4373113.29.7z" fill="#f5efca"/><path id="Shape" d="m39.9 11h-7.9c-1.6568542 0-3-1.34314575-3-3v-7.9z" fill="#e4c05c"/><g fill="#41767f"><path id="Shape" d="m18 6h-13c-.55228475 0-1-.44771525-1-1s.44771525-1 1-1h13c.5522847 0 1 .44771525 1 1s-.4477153 1-1 1z"/><path id="Shape" d="m11 11h-6c-.55228475 0-1-.4477153-1-1 0-.55228475.44771525-1 1-1h6c.5522847 0 1 .44771525 1 1 0 .5522847-.4477153 1-1 1z"/><path id="Shape" d="m29 31h-24c-.55228475 0-1-.4477153-1-1s.44771525-1 1-1h24c.5522847 0 1 .4477153 1 1s-.4477153 1-1 1z"/><path id="Shape" d="m25 36h-20c-.55228475 0-1-.4477153-1-1s.44771525-1 1-1h20c.5522847 0 1 .4477153 1 1s-.4477153 1-1 1z"/><path id="Shape" d="m22 41h-17c-.55228475 0-1-.4477153-1-1s.44771525-1 1-1h17c.5522847 0 1 .4477153 1 1s-.4477153 1-1 1z"/><path id="Shape" d="m12 46h-7c-.55228475 0-1-.4477153-1-1s.44771525-1 1-1h7c.5522847 0 1 .4477153 1 1s-.4477153 1-1 1z"/><path id="Shape" d="m13 15h-8c-.55228475 0-1 .4477153-1 1s.44771525 1 1 1h3v8c0 .5522847.44771525 1 1 1s1-.4477153 1-1v-8h3c.5522847 0 1-.4477153 1-1s-.4477153-1-1-1z"/><path id="Shape" d="m32.2 20.5 2.63-3.945c.1982824-.297245.2229246-.6776931.0646441-.9980332-.1582804-.3203401-.4754371-.5319049-.832-.555s-.6983617.1457882-.8966441.4430332l-2.166 3.255-2.168-3.252c-.306518-.4595009-.9274991-.583518-1.387-.277s-.583518.9274991-.277 1.387l2.632 3.942-2.63 3.945c-.306518.4595009-.1825009 1.080482.277 1.387s1.080482.1825009 1.387-.277l2.166-3.255 2.168 3.252c.1982824.297245.5400812.4661283.8966441.4430332s.6737195-.2346599.832-.555.1336383-.7007882-.0646441-.9980332z"/><path id="Shape" d="m23.594 21.625-.013-.029-2.667-6c-.160402-.3613564-.5186429-.5942858-.914-.5942858s-.753598.2329294-.914.5942858l-2.667 6-.013.029-1.32 2.969c-.1450498.3265407-.104874.70566.1053937.9945472s.5586825.4436536.914.406c.3553175-.0376535.6635565-.2620065.8086063-.5885472l1.069-2.406h4.034l1.069 2.406c.2242276.5047883.8152117.7322276 1.32.508s.7322276-.8152117.508-1.32zm-4.722-.625 1.128-2.538 1.128 2.538z"/></g><circle id="Oval" cx="43" cy="43" fill="#24ae5f" r="15"/><path id="Shape" d="m39 51c-.2651948-.0000566-.5195073-.1054506-.707-.293l-4-4c-.3789722-.3923789-.3735524-1.0160848.0121814-1.4018186s1.0094397-.3911536 1.4018186-.0121814l3.35 3.349 12.3-10.4c.2714041-.2405706.6517876-.3153374.9940542-.1953877s.5927606.4158118.6546147.773175-.0746284.720205-.3566689.9482127l-13 11c-.1817414.1522594-.4119212.2345424-.649.232z" fill="#fff"/></g></g></svg>