<svg id="Layer_3" enable-background="new 0 0 64 64" height="512" viewBox="0 0 64 64" width="512" xmlns="http://www.w3.org/2000/svg"><g><circle cx="54" cy="19" fill="#669e4f" r="8"/><path d="m46 19c0 3.852 2.724 7.067 6.35 7.828 2.528-2.899 4.07-6.68 4.07-10.828 0-1.675-.254-3.291-.718-4.814-.549-.119-1.118-.186-1.702-.186-4.418 0-8 3.582-8 8z" fill="#78b75b"/><path d="m32 40 10.401 2.774c2.998.799 5.69 2.473 7.733 4.808 2.492 2.848 3.866 6.504 3.866 10.289v4.129h-52v-4.129c0-3.785 1.374-7.441 3.866-10.289 2.043-2.335 4.735-4.009 7.733-4.808l10.401-2.774" fill="#e7e4dd"/><path d="m24 35v5l4 2 4-2v-5" fill="#fadfb2"/><path d="m30 48 2 14h-8l2-14z" fill="#a8b0bc"/><path d="m31.091 40.455.909 4.545-2 3h-4l-2-3 .909-4.545 3.091 1.545z" fill="#8892a0"/><g fill="#fadfb2"><path d="m37 21h2c1.105 0 2 .895 2 2 0 1.105-.895 2-2 2h-2"/><path d="m19 21h-2c-1.105 0-2 .895-2 2 0 1.105.895 2 2 2h2"/><path d="m37.002 26.415-.002-7.019c0-2.107-1.106-4.06-2.913-5.144l-2.087-1.252-.649.649c-1.505 1.505-3.547 2.351-5.676 2.351-1.737 0-3.426.563-4.816 1.605l-1.859 1.395v7.401c0 2.919 1.276 5.693 3.492 7.593l1.986 1.702c.982.841 2.233 1.304 3.527 1.304 1.288 0 2.534-.459 3.514-1.294l1.968-1.676c2.231-1.9 3.516-4.684 3.515-7.615z"/></g><path d="m37.001 21v-1.604c0-2.107-1.106-4.06-2.913-5.144l-2.088-1.252-.649.649c-1.505 1.505-3.547 2.351-5.676 2.351-1.737 0-3.426.563-4.816 1.605l-1.859 1.395v1.816l-2.449-4.92c-.884-1.775-.693-3.899.493-5.486 2.542-3.406 6.533-5.41 10.771-5.41 4.502 0 8.706 2.26 11.204 6.022 1.211 1.825 1.292 4.181.209 6.085l-2.215 3.893z" fill="#c18e59"/><g><path d="m12 9.999h-2v-7.999c0-.553.447-1 1-1h7.999v2h-6.999z" fill="#8892a0"/></g><g><path d="m45.999 9.999h-2v-6.999h-6.999v-2h7.999c.553 0 1 .447 1 1z" fill="#8892a0"/></g><g><path d="m18.999 36.999h-7.999c-.553 0-1-.447-1-1v-8h2v7h6.999z" fill="#8892a0"/></g><g><path d="m44.999 36.999h-7.999v-2h6.999v-7h2v8c0 .553-.447 1-1 1z" fill="#8892a0"/></g><g><path d="m52 24c-.033 0-.066-.002-.099-.005-.299-.03-.567-.191-.733-.44l-2.001-3 1.663-1.11 1.324 1.985 6.137-6.138 1.415 1.415-6.999 7c-.188.188-.443.293-.707.293z" fill="#d5cec2"/></g><path d="m52.154 21.43-1.324-1.985-1.663 1.11 2.001 3c.166.249.435.411.733.44.033.003.066.005.099.005.264 0 .519-.104.707-.293l3.03-3.03c.327-1.106.533-2.261.621-3.451z" fill="#e7e4dd"/><g><path d="m11.001 52h1.999v10h-1.999z" fill="#cbc3b6"/></g><g><path d="m43.001 52h1.999v10h-1.999z" fill="#cbc3b6"/></g></g></svg>