<svg height="512" viewBox="0 0 512 512" width="512" xmlns="http://www.w3.org/2000/svg" xmlns:xlink="http://www.w3.org/1999/xlink"><linearGradient id="linear-gradient" gradientUnits="userSpaceOnUse" x1="74.98" x2="437.02" y1="74.98" y2="437.02"><stop offset="0" stop-color="#0fc8ff"/><stop offset="1" stop-color="#4760ff"/></linearGradient><g id="Layer_2" data-name="Layer 2"><g id="fingerprint"><circle id="background" cx="256" cy="256" fill="url(#linear-gradient)" r="256"/><path d="m296.43 394a9.62 9.62 0 0 1 -3.19-.58c-23.63-6-43.37-18.07-58.67-35.79-15.52-18-23.38-40-23.38-65.57a39.83 39.83 0 0 1 13.23-30.3 46.13 46.13 0 0 1 62.31 0 39.83 39.83 0 0 1 13.27 30.3 21.49 21.49 0 0 0 7.83 16.9 27.49 27.49 0 0 0 18.9 7.18 25.92 25.92 0 0 0 18.13-7.14 21.91 21.91 0 0 0 7.57-17c0-25.69-9.29-46.6-28.4-63.94s-42-26-68.46-26-49.45 8.75-68.45 26-28.4 38.25-28.4 63.94a147.93 147.93 0 0 0 1.76 19.87 139.47 139.47 0 0 0 7.46 27.72c1.59 4.07.13 6.79-.88 8.06a12.77 12.77 0 0 1 -2.94 2.66l-.29.2-.32.16a9.7 9.7 0 0 1 -4.38 1 9.86 9.86 0 0 1 -2.21-.25 8.55 8.55 0 0 1 -6.19-5.42l-.06-.13v-.14a193.49 193.49 0 0 1 -7-26.42 147.19 147.19 0 0 1 -2.58-27.35c0-30 11.51-55.9 34.22-77.1s49.61-31.8 80.29-31.8c31.33 0 58.61 10.53 81.1 31.28s34.08 47 34.08 77.62a39.73 39.73 0 0 1 -13 29.94 43.83 43.83 0 0 1 -31 12.13 45.4 45.4 0 0 1 -31.62-12.08c-8.91-8.14-13.43-18.23-13.43-30a22.21 22.21 0 0 0 -7.57-17.3 26.3 26.3 0 0 0 -18.5-7.12 26.87 26.87 0 0 0 -18.69 7.15 22 22 0 0 0 -7.71 17.27c0 21.37 6.52 39.39 19.37 53.57 13.12 14.47 29.72 24.77 49.34 30.62l.18.06a9.38 9.38 0 0 1 5.77 4.5 9.86 9.86 0 0 1 -3.09 11.9 7.71 7.71 0 0 1 -4.4 1.4zm-71.8-2.7a8.31 8.31 0 0 1 -6.38-3.16c-13.07-13.55-23.43-28-30.79-43-7.52-15.28-11.34-33.15-11.34-53.12 0-21.18 7.9-39.27 23.48-53.78s34.3-21.71 56-21.71 40.6 7.3 56.28 21.68 23.84 32.61 23.84 53.81a8.54 8.54 0 0 1 -9 9 9.64 9.64 0 0 1 -6.28-2.14 8.72 8.72 0 0 1 -3-6.85c0-16.34-5.94-29.68-18.15-40.78-12.37-11.25-26.65-16.72-43.65-16.72s-31.2 5.47-43.34 16.71-17.86 24.46-17.86 40.82c0 17.78 3.09 33.07 9.17 45.45 6.21 12.63 15.6 25.49 27.91 38.22a8.41 8.41 0 0 1 2.72 7.27 9.47 9.47 0 0 1 -2.76 5.36 10.88 10.88 0 0 1 -4.38 2.54 7.74 7.74 0 0 1 -2.47.4zm99.09-25.42c-20.78 0-39-7-54.27-20.82-15.39-14-23.2-31.8-23.2-53a9.65 9.65 0 0 1 2.14-6.29 9.24 9.24 0 0 1 13.7 0 9.59 9.59 0 0 1 2.15 6.29c0 16.3 5.8 29.35 17.75 39.89 12.16 10.73 25.81 15.95 41.73 15.95 1.58 0 3.52-.11 5.77-.31s4.79-.52 7.48-.93a10 10 0 0 1 1.86-.18 8.28 8.28 0 0 1 5.39 1.91 9.59 9.59 0 0 1 3.08 4.39l.07.2.05.22a8.9 8.9 0 0 1 -.59 6.23 8.27 8.27 0 0 1 -5.89 4.31 51.49 51.49 0 0 1 -11.56 2c-4.09.13-5.19.14-5.66.14zm-184.88-138.16a9.43 9.43 0 0 1 -4.23-1 7.93 7.93 0 0 1 -4.47-7.23 11.88 11.88 0 0 1 1.27-5.36l.2-.41.27-.37a145.42 145.42 0 0 1 54-45.76 155.73 155.73 0 0 1 69.67-16.14 159.51 159.51 0 0 1 69.79 15.78 144.91 144.91 0 0 1 54.55 45.43l.15.21.13.22a8.72 8.72 0 0 1 -1.17 11.54 9 9 0 0 1 -13.76-1.14l-.09-.11-.08-.12a124.58 124.58 0 0 0 -47.63-39.87 141.56 141.56 0 0 0 -61.88-14 137.09 137.09 0 0 0 -61.32 14.13 130.78 130.78 0 0 0 -47.57 39.8l-.06.08-.07.09a10.71 10.71 0 0 1 -5.36 3.9 8.82 8.82 0 0 1 -2.34.33zm37.71-71.84a7.37 7.37 0 0 1 -3.79-1 10.44 10.44 0 0 1 -3-2.84 8.32 8.32 0 0 1 -1.88-5.51 7.94 7.94 0 0 1 3.53-6.72l.21-.14.22-.12a178.11 178.11 0 0 1 40.84-16.06 173.24 173.24 0 0 1 42.89-5.49 175.85 175.85 0 0 1 43.59 5.47 198.59 198.59 0 0 1 40.51 15.23 8.1 8.1 0 0 1 5.07 6.44 9 9 0 0 1 -1.41 6.18 10.9 10.9 0 0 1 -3.73 3.43 8.11 8.11 0 0 1 -4.1 1.08 9.76 9.76 0 0 1 -3.64-.73l-.2-.08-.2-.1a194.32 194.32 0 0 0 -36.95-13.66 155.93 155.93 0 0 0 -38.94-4.94 162.27 162.27 0 0 0 -38.66 4.68 153.86 153.86 0 0 0 -36 13.88l-.28.15-.3.12a10.1 10.1 0 0 1 -3.78.73z" fill="#fff"/></g></g></svg>