<svg id="Capa_1" enable-background="new 0 0 512 512" height="512" viewBox="0 0 512 512" width="512" xmlns="http://www.w3.org/2000/svg"><g><g><path d="m453.018 339.548h-394.046c-11.734 0-21.246-9.512-21.246-21.246v-289.554c0-11.734 9.512-21.246 21.246-21.246h394.046c11.734 0 21.246 9.512 21.246 21.246v289.554c-.001 11.734-9.513 21.246-21.246 21.246z" fill="#ebebeb"/><path d="m82.401 339.547h-23.43c-11.725 0-21.244-9.51-21.244-21.244v-289.559c0-11.735 9.52-21.244 21.244-21.244h23.43c-11.725 0-21.244 9.51-21.244 21.244v289.558c-.001 11.735 9.519 21.245 21.244 21.245z" fill="#e2e2e2"/><path d="m249.292 64.299h-156.123c-11.952 0-21.642 9.689-21.642 21.642v178.177c0 11.952 9.689 21.642 21.642 21.642h156.124c11.952 0 21.642-9.689 21.642-21.642v-178.177c-.001-11.952-9.69-21.642-21.643-21.642z" fill="#01c0fa"/><g><path d="m171.23 258.638c-40.043 0-72.62-32.578-72.62-72.62v-21.976c0-40.043 32.578-72.62 72.62-72.62s72.62 32.578 72.62 72.62v21.976c.001 40.043-32.577 72.62-72.62 72.62z" fill="#dff6fd"/></g><path d="m131.219 504.5v-248.646c0-20.127 16.315-36.452 36.442-36.452 10.068 0 19.179 4.081 25.775 10.677s10.677 15.706 10.677 25.775v143.282c0-20.127 16.325-36.452 36.452-36.452 10.068 0 19.179 4.081 25.775 10.677s10.677 15.716 10.677 25.775v18.62c0-20.127 16.315-36.452 36.452-36.452 10.068 0 19.179 4.081 25.775 10.677s10.677 15.716 10.677 25.775v23.35c0-16.764 13.591-30.355 30.365-30.355 8.382 0 15.976 3.393 21.464 8.891 5.498 5.498 8.901 13.082 8.901 21.464v63.394" fill="#ffcebf"/><g fill="#ffb09e"><path d="m349.919 441.106v9.64h12.043c5.324 0 9.64-4.316 9.64-9.64 0-8.382 3.403-15.966 8.901-21.464 2.984-2.994 6.596-5.359 10.617-6.885-3.363-1.297-7.015-2.006-10.837-2.006-8.382 0-15.976 3.393-21.464 8.891-5.497 5.498-8.9 13.082-8.9 21.464z"/><path d="m167.661 219.402c6.087 0 11.815 1.487 16.854 4.131-11.635 6.087-19.578 18.281-19.578 32.32v248.647h-33.718v-248.646c0-20.127 16.315-36.452 36.442-36.452z"/><path d="m241.084 362.688c5.89.084 11.431 1.56 16.324 4.127-11.635 6.087-19.578 18.281-19.578 32.32v34.557c0 9.418-7.635 17.053-17.053 17.053h-16.665v-50.921c0-20.333 16.639-37.424 36.972-37.136z"/><path d="m313.987 380.619c5.89.084 11.431 1.56 16.324 4.127-11.635 6.087-19.578 18.281-19.578 32.32v16.627c0 9.418-7.635 17.053-17.053 17.053h-16.665v-32.99c.001-20.334 16.64-37.426 36.972-37.137z"/></g><g><g><path d="m344.969 123.684h-18.227c-8.107 0-14.679-6.572-14.679-14.679v-30.027c0-8.107 6.572-14.679 14.679-14.679h18.227c8.107 0 14.679 6.572 14.679 14.679v30.028c0 8.106-6.572 14.678-14.679 14.678z" fill="#918291"/><path d="m346.098 123.635c-.374.039-.749.049-1.123.049h-18.233c-8.101 0-14.675-6.564-14.675-14.675v-30.029c0-8.101 6.574-14.675 14.675-14.675h18.233c.374 0 .749.01 1.123.049-7.579.572-13.551 6.909-13.551 14.626v30.029c0 7.727 5.972 14.054 13.551 14.626z" fill="#685e68"/><path d="m419.041 123.684h-18.227c-8.107 0-14.679-6.572-14.679-14.679v-30.027c0-8.107 6.572-14.679 14.679-14.679h18.227c8.107 0 14.679 6.572 14.679 14.679v30.028c-.001 8.106-6.572 14.678-14.679 14.678z" fill="#918291"/><path d="m420.17 123.635c-.374.039-.749.049-1.123.049h-18.233c-8.101 0-14.675-6.564-14.675-14.675v-30.029c0-8.101 6.574-14.675 14.675-14.675h18.233c.374 0 .749.01 1.123.049-7.579.572-13.551 6.909-13.551 14.626v30.029c0 7.727 5.972 14.054 13.551 14.626z" fill="#685e68"/></g><g><path d="m344.969 204.722h-18.227c-8.107 0-14.679-6.572-14.679-14.679v-30.028c0-8.107 6.572-14.679 14.679-14.679h18.227c8.107 0 14.679 6.572 14.679 14.679v30.028c0 8.107-6.572 14.679-14.679 14.679z" fill="#918291"/><path d="m346.098 204.673c-.374.039-.749.049-1.123.049h-18.233c-8.101 0-14.675-6.564-14.675-14.675v-30.029c0-8.101 6.574-14.675 14.675-14.675h18.233c.374 0 .749.01 1.123.049-7.579.572-13.551 6.909-13.551 14.626v30.029c0 7.727 5.972 14.054 13.551 14.626z" fill="#685e68"/><path d="m419.041 204.722h-18.227c-8.107 0-14.679-6.572-14.679-14.679v-30.028c0-8.107 6.572-14.679 14.679-14.679h18.227c8.107 0 14.679 6.572 14.679 14.679v30.028c-.001 8.107-6.572 14.679-14.679 14.679z" fill="#918291"/><path d="m420.17 204.673c-.374.039-.749.049-1.123.049h-18.233c-8.101 0-14.675-6.564-14.675-14.675v-30.029c0-8.101 6.574-14.675 14.675-14.675h18.233c.374 0 .749.01 1.123.049-7.579.572-13.551 6.909-13.551 14.626v30.029c0 7.727 5.972 14.054 13.551 14.626z" fill="#685e68"/></g><g><path d="m344.969 285.76h-18.227c-8.107 0-14.679-6.572-14.679-14.679v-30.028c0-8.107 6.572-14.679 14.679-14.679h18.227c8.107 0 14.679 6.572 14.679 14.679v30.028c0 8.107-6.572 14.679-14.679 14.679z" fill="#918291"/><path d="m346.098 285.711c-.374.039-.749.049-1.123.049h-18.233c-8.101 0-14.675-6.564-14.675-14.675v-30.029c0-8.101 6.574-14.675 14.675-14.675h18.233c.374 0 .749.01 1.123.049-7.579.572-13.551 6.909-13.551 14.626v30.029c0 7.727 5.972 14.054 13.551 14.626z" fill="#685e68"/><path d="m419.041 285.76h-18.227c-8.107 0-14.679-6.572-14.679-14.679v-30.028c0-8.107 6.572-14.679 14.679-14.679h18.227c8.107 0 14.679 6.572 14.679 14.679v30.028c-.001 8.107-6.572 14.679-14.679 14.679z" fill="#918291"/><path d="m420.17 285.711c-.374.039-.749.049-1.123.049h-18.233c-8.101 0-14.675-6.564-14.675-14.675v-30.029c0-8.101 6.574-14.675 14.675-14.675h18.233c.374 0 .749.01 1.123.049-7.579.572-13.551 6.909-13.551 14.626v30.029c0 7.727 5.972 14.054 13.551 14.626z" fill="#685e68"/></g></g></g><g><path d="m191.479 186.018v-21.977c0-11.166-9.083-20.249-20.249-20.249s-20.249 9.083-20.249 20.249v21.977c0 11.166 9.083 20.249 20.249 20.249s20.249-9.083 20.249-20.249zm-15 0c0 2.895-2.354 5.249-5.249 5.249s-5.249-2.354-5.249-5.249v-21.977c0-2.895 2.354-5.249 5.249-5.249s5.249 2.354 5.249 5.249z"/><path d="m453.015 0h-32.359c-4.143 0-7.5 3.358-7.5 7.5s3.357 7.5 7.5 7.5h32.359c7.582 0 13.75 6.168 13.75 13.75v289.56c0 7.576-6.168 13.74-13.75 13.74h-241.4v-38.79h37.68c16.068 0 29.141-13.072 29.141-29.14v-178.18c0-16.068-13.072-29.14-29.141-29.14h-156.12c-16.074 0-29.15 13.072-29.15 29.14v127.89c0 4.142 3.358 7.5 7.5 7.5s7.5-3.358 7.5-7.5v-127.89c0-7.797 6.348-14.14 14.15-14.14h156.12c7.797 0 14.141 6.343 14.141 14.14v178.18c0 7.796-6.344 14.14-14.141 14.14h-37.68v-22.41c0-.217-.013-.433-.016-.649 24.64-14.362 39.749-40.425 39.749-69.181v-21.983c0-44.175-35.939-80.114-80.114-80.114-44.181 0-80.124 35.939-80.124 80.114v21.983c0 25.777 12.213 49.604 32.914 64.699-.197 1.685-.309 3.395-.309 5.131v22.41h-30.54c-7.803 0-14.15-6.343-14.15-14.14v-15.29c0-4.142-3.358-7.5-7.5-7.5s-7.5 3.358-7.5 7.5v15.29c0 16.068 13.077 29.14 29.15 29.14h30.54v38.79h-64.74c-7.576 0-13.74-6.164-13.74-13.74v-289.56c0-7.582 6.164-13.75 13.74-13.75h326.68c4.143 0 7.5-3.358 7.5-7.5s-3.357-7.5-7.5-7.5h-326.68c-15.847 0-28.74 12.897-28.74 28.75v289.56c0 15.847 12.893 28.74 28.74 28.74h64.74v157.45c0 4.142 3.358 7.5 7.5 7.5s7.5-3.358 7.5-7.5v-248.65c0-15.963 12.987-28.95 28.95-28.95 7.728 0 14.996 3.013 20.471 8.488 5.468 5.459 8.479 12.727 8.479 20.462v143.228c0 .02-.003.039-.003.058v51.61c0 4.142 3.358 7.5 7.5 7.5s7.5-3.358 7.5-7.5v-51.548c0-.02.003-.039.003-.058 0-15.969 12.987-28.96 28.95-28.96 7.728 0 14.997 3.013 20.467 8.483s8.482 12.742 8.482 20.477l.001 51.606c0 4.142 3.357 7.5 7.5 7.5s7.5-3.358 7.5-7.5v-32.99c0-.004-.001-.008-.001-.012.008-15.961 12.992-28.944 28.95-28.944 7.726 0 15 3.014 20.473 8.479 5.467 5.475 8.478 12.749 8.478 20.48l.004 32.986c0 4.142 3.357 7.5 7.5 7.5s7.5-3.358 7.5-7.5v-9.64c0-.017-.002-.033-.002-.05.029-12.58 10.276-22.806 22.869-22.806 5.987 0 11.636 2.291 15.905 6.452 2.967 2.891 7.715 2.829 10.605-.137 2.892-2.967 2.83-7.715-.137-10.606-7.087-6.905-16.453-10.708-26.374-10.708-8.796 0-16.901 3.014-23.337 8.062-1.357-9.29-5.642-17.867-12.403-24.639-8.314-8.301-19.352-12.873-31.08-12.873-11.987 0-22.868 4.824-30.805 12.634-2.063-6.87-5.807-13.163-11.021-18.377-8.304-8.304-19.339-12.876-31.074-12.876-11.079 0-21.211 4.12-28.95 10.911v-19.042h241.399c15.853 0 28.75-12.893 28.75-28.74v-289.56c.001-15.853-12.897-28.75-28.749-28.75zm-301.641 215.043c-1.793-1.229-3.483-2.604-5.026-4.146-6.644-6.645-10.303-15.479-10.303-24.877v-21.98c0-19.398 15.786-35.18 35.19-35.18 4.142 0 7.5-3.358 7.5-7.5s-3.358-7.5-7.5-7.5c-27.675 0-50.19 22.511-50.19 50.18v21.98c0 13.404 5.219 26.005 14.697 35.484.702.702 1.437 1.369 2.177 2.027-3.675 3.385-6.769 7.387-9.124 11.84-14.343-12.301-22.685-30.161-22.685-49.351v-21.983c0-35.904 29.214-65.114 65.124-65.114 35.904 0 65.114 29.21 65.114 65.114v21.983c0 21.599-10.49 41.333-27.895 53.419-1.856-4.613-4.504-8.9-7.874-12.697 12.925-9.291 20.836-24.31 20.836-40.722v-21.98c0-4.142-3.358-7.5-7.5-7.5s-7.5 3.358-7.5 7.5v21.98c0 13.015-7.108 24.766-18.362 30.883-6.217-3.266-13.169-5.003-20.388-5.003-5.755 0-11.249 1.123-16.291 3.143z"/><path d="m410.646 440.28c-4.143 0-7.5 3.358-7.5 7.5v56.72c0 4.142 3.357 7.5 7.5 7.5s7.5-3.358 7.5-7.5v-56.72c0-4.142-3.358-7.5-7.5-7.5z"/><path d="m367.147 78.978c0-12.229-9.949-22.179-22.179-22.179h-18.227c-12.229 0-22.179 9.949-22.179 22.179v30.027c0 12.229 9.949 22.179 22.179 22.179h18.227c12.229 0 22.179-9.949 22.179-22.179zm-15 30.027c0 3.958-3.221 7.179-7.179 7.179h-18.227c-3.958 0-7.179-3.22-7.179-7.179v-30.027c0-3.958 3.221-7.179 7.179-7.179h18.227c3.958 0 7.179 3.22 7.179 7.179z"/><path d="m441.22 78.978c0-12.229-9.949-22.179-22.179-22.179h-18.228c-12.229 0-22.179 9.949-22.179 22.179v30.027c0 12.229 9.949 22.179 22.179 22.179h18.228c12.229 0 22.179-9.949 22.179-22.179zm-15 30.027c0 3.958-3.221 7.179-7.179 7.179h-18.228c-3.958 0-7.179-3.22-7.179-7.179v-30.027c0-3.958 3.221-7.179 7.179-7.179h18.228c3.958 0 7.179 3.22 7.179 7.179z"/><path d="m367.147 160.016c0-12.229-9.949-22.179-22.179-22.179h-18.227c-12.229 0-22.179 9.949-22.179 22.179v30.027c0 12.229 9.949 22.179 22.179 22.179h18.227c12.229 0 22.179-9.949 22.179-22.179zm-15 30.027c0 3.958-3.221 7.179-7.179 7.179h-18.227c-3.958 0-7.179-3.22-7.179-7.179v-30.027c0-3.958 3.221-7.179 7.179-7.179h18.227c3.958 0 7.179 3.22 7.179 7.179z"/><path d="m441.22 160.016c0-12.229-9.949-22.179-22.179-22.179h-18.228c-12.229 0-22.179 9.949-22.179 22.179v30.027c0 12.229 9.949 22.179 22.179 22.179h18.228c12.229 0 22.179-9.949 22.179-22.179zm-15 30.027c0 3.958-3.221 7.179-7.179 7.179h-18.228c-3.958 0-7.179-3.22-7.179-7.179v-30.027c0-3.958 3.221-7.179 7.179-7.179h18.228c3.958 0 7.179 3.22 7.179 7.179z"/><path d="m344.969 218.875h-18.227c-12.229 0-22.179 9.949-22.179 22.179v30.027c0 12.229 9.949 22.179 22.179 22.179h18.227c12.229 0 22.179-9.949 22.179-22.179v-30.027c-.001-12.229-9.95-22.179-22.179-22.179zm7.178 52.207c0 3.958-3.221 7.179-7.179 7.179h-18.227c-3.958 0-7.179-3.22-7.179-7.179v-30.027c0-3.958 3.221-7.179 7.179-7.179h18.227c3.958 0 7.179 3.22 7.179 7.179z"/><path d="m419.041 218.875h-18.228c-12.229 0-22.179 9.949-22.179 22.179v30.027c0 12.229 9.949 22.179 22.179 22.179h18.228c12.229 0 22.179-9.949 22.179-22.179v-30.027c0-12.229-9.949-22.179-22.179-22.179zm7.179 52.207c0 3.958-3.221 7.179-7.179 7.179h-18.228c-3.958 0-7.179-3.22-7.179-7.179v-30.027c0-3.958 3.221-7.179 7.179-7.179h18.228c3.958 0 7.179 3.22 7.179 7.179z"/></g></g></svg>