<svg id="Layer_1" viewBox="0 0 48 48" xmlns="http://www.w3.org/2000/svg" data-name="Layer 1"><rect fill="#eff3f9" height="38" rx="4" width="38" x="5" y="5"/><circle cx="24" cy="24" fill="#cfe0f3" r="12"/><g fill="#08105e"><path d="m36 25c-.552 0-1-.448-1-1 0-6.065-4.935-11-11-11-3.394 0-6.548 1.537-8.653 4.218-.342.433-.971.509-1.404.169-.435-.341-.51-.97-.169-1.404 2.487-3.167 6.215-4.982 10.227-4.982 7.168 0 13 5.832 13 13 0 .552-.448 1-1 1z"/><path d="m12 25c-.552 0-1-.448-1-1 0-1.439.237-2.857.704-4.215.18-.523.75-.801 1.271-.621.522.18.8.749.621 1.271-.396 1.148-.596 2.348-.596 3.565 0 .552-.448 1-1 1z"/><path d="m29.89 35.46c-.13 0-.263-.026-.391-.08-.508-.216-.745-.803-.529-1.312.324-.763.615-1.559.865-2.365.164-.528.725-.823 1.251-.659.528.164.823.724.659 1.251-.27.871-.584 1.73-.935 2.555-.162.381-.532.609-.921.609z"/><path d="m31.691 29.1c-.049 0-.099-.003-.149-.011-.546-.082-.923-.591-.841-1.137.199-1.329.299-2.658.299-3.952 0-3.86-3.14-7-7-7h-.19c-.552 0-1-.448-1-1s.448-1 1-1h.19c4.962 0 9 4.038 9 9 0 1.393-.108 2.822-.321 4.248-.074.496-.501.852-.988.852z"/><path d="m13.889 31.47c-.205 0-.411-.062-.589-.192-.446-.326-.543-.952-.218-1.397 1.254-1.717 1.917-3.75 1.917-5.88 0-3.177 1.707-6.151 4.454-7.763.475-.281 1.088-.12 1.369.357.279.477.12 1.089-.357 1.369-2.138 1.254-3.466 3.567-3.466 6.037 0 2.557-.796 4.999-2.302 7.06-.196.268-.5.41-.809.41z"/><path d="m24.629 36.98c-.178 0-.359-.047-.522-.148-.471-.289-.618-.904-.329-1.375 2.108-3.435 3.222-7.396 3.222-11.457 0-1.654-1.346-3-3-3s-3 1.346-3 3c0 .389-.011.768-.044 1.146-.047.55-.536.963-1.082.91-.55-.047-.958-.532-.91-1.082.028-.322.036-.644.036-.974 0-2.757 2.243-5 5-5s5 2.243 5 5c0 4.431-1.216 8.754-3.518 12.503-.188.308-.517.477-.853.477z"/><path d="m16.679 34.51c-.15 0-.303-.034-.446-.105-.494-.247-.694-.848-.447-1.342.123-.245.267-.478.43-.69.861-1.138 1.531-2.391 1.989-3.719.18-.522.748-.799 1.271-.619.522.18.799.75.619 1.271-.527 1.527-1.296 2.966-2.288 4.277-.093.123-.17.249-.232.374-.175.351-.528.553-.896.553z"/><path d="m20.209 36.38c-.209 0-.419-.065-.6-.2-.441-.332-.531-.958-.199-1.4 2.349-3.128 3.59-6.855 3.59-10.779 0-.552.448-1 1-1s1 .448 1 1c0 4.36-1.38 8.503-3.99 11.98-.197.262-.497.399-.801.399z"/><path d="m5 14c-.552 0-1-.448-1-1v-4c0-2.757 2.243-5 5-5h4c.552 0 1 .448 1 1s-.448 1-1 1h-4c-1.654 0-3 1.346-3 3v4c0 .552-.448 1-1 1z"/><path d="m43 14c-.552 0-1-.448-1-1v-4c0-1.654-1.346-3-3-3h-4c-.552 0-1-.448-1-1s.448-1 1-1h4c2.757 0 5 2.243 5 5v4c0 .552-.448 1-1 1z"/><path d="m39 44h-4c-.552 0-1-.448-1-1s.448-1 1-1h4c1.654 0 3-1.346 3-3v-4c0-.552.448-1 1-1s1 .448 1 1v4c0 2.757-2.243 5-5 5z"/><path d="m13 44h-4c-2.757 0-5-2.243-5-5v-4c0-.552.448-1 1-1s1 .448 1 1v4c0 1.654 1.346 3 3 3h4c.552 0 1 .448 1 1s-.448 1-1 1z"/></g></svg>