<svg id="Capa_1" enable-background="new 0 0 512 512" viewBox="0 0 512 512" xmlns="http://www.w3.org/2000/svg"><g><g><path d="m385.301 288.325h-18.183v-64.65h18.183c17.853 0 32.325 14.472 32.325 32.325 0 17.853-14.472 32.325-32.325 32.325z" fill="#f6a96c"/><path d="m126.699 288.325h18.183v-64.65h-18.183c-17.853 0-32.325 14.472-32.325 32.325 0 17.853 14.472 32.325 32.325 32.325z" fill="#f6a96c"/><path d="m256 417.626c-66.948 0-121.22-54.272-121.22-121.219v-80.813c0-66.948 54.272-121.219 121.219-121.219 66.948 0 121.219 54.272 121.219 121.219v80.813c.002 66.947-54.27 121.219-121.218 121.219z" fill="#fed2a4"/><path d="m256 94.374c-5.132 0-10.188.322-15.153.941 59.796 7.457 106.067 58.462 106.067 120.278v80.813c0 61.816-46.271 112.821-106.067 120.278 4.964.619 10.02.941 15.152.941 66.948 0 121.219-54.272 121.219-121.219v-80.813c.002-66.947-54.27-121.219-121.218-121.219z" fill="#ffbd86"/><path d="m393.382 17.602v12.122c0 5.579 4.523 10.102 10.102 10.102h68.691v68.691c0 5.579 4.523 10.102 10.102 10.102h12.122c5.579 0 10.102-4.523 10.102-10.102v-80.814c0-11.158-9.045-20.203-20.203-20.203h-80.813c-5.58 0-10.103 4.523-10.103 10.102z" fill="#60b7ff"/><path d="m118.618 17.602v12.122c0 5.579-4.523 10.102-10.102 10.102h-68.691v68.691c0 5.579-4.523 10.102-10.102 10.102h-12.121c-5.579 0-10.102-4.523-10.102-10.102v-80.814c0-11.158 9.045-20.203 20.203-20.203h80.813c5.579 0 10.102 4.523 10.102 10.102z" fill="#8ac9fe"/><path d="m393.382 494.398v-12.122c0-5.579 4.523-10.102 10.102-10.102h68.691v-68.691c0-5.579 4.523-10.102 10.102-10.102h12.122c5.579 0 10.102 4.523 10.102 10.102v80.813c0 11.158-9.045 20.203-20.203 20.203h-80.813c-5.58.001-10.103-4.522-10.103-10.101z" fill="#60b7ff"/><path d="m118.618 494.398v-12.122c0-5.579-4.523-10.102-10.102-10.102h-68.691v-68.691c0-5.579-4.523-10.102-10.102-10.102h-12.121c-5.579 0-10.102 4.523-10.102 10.102v80.813c0 11.158 9.045 20.203 20.203 20.203h80.813c5.579.001 10.102-4.522 10.102-10.101z" fill="#8ac9fe"/><path d="m488.337 244.882c8.926 0 16.163-7.236 16.163-16.163v-42.427c0-8.926-7.236-16.163-16.163-16.163-8.926 0-16.163 7.236-16.163 16.163v5.051h-432.349v-5.051c0-8.926-7.236-16.163-16.163-16.163-8.926 0-16.163 7.236-16.163 16.163v42.427c0 8.926 7.236 16.163 16.163 16.163 8.926 0 16.163-7.236 16.163-16.163v-5.051h432.35v5.051c0 8.927 7.236 16.163 16.162 16.163z" fill="#fd8087"/><circle cx="256" cy="422.677" fill="#a2e62e" r="81.823"/><path d="m308.531 359.957c5.796 11.228 9.089 23.959 9.089 37.465 0 45.19-36.633 81.823-81.823 81.823-20.001 0-38.317-7.186-52.531-19.104 13.594 26.339 41.051 44.359 72.734 44.359 45.19 0 81.823-36.633 81.823-81.823 0-25.189-11.39-47.71-29.292-62.72z" fill="#97d729"/><g><path d="m236.714 411.717 11.429 11.429 27.143-27.143c6.312-6.312 16.545-6.312 22.857 0 6.312 6.312 6.312 16.545 0 22.857l-38.572 38.572c-6.312 6.312-16.545 6.312-22.857 0l-22.857-22.857c-6.312-6.312-6.312-16.545 0-22.857 6.312-6.313 16.545-6.313 22.857-.001z" fill="#eaf6ff"/></g></g><g><path d="m484.297 0h-80.813c-9.705 0-17.602 7.896-17.602 17.602v12.122c0 9.705 7.896 17.602 17.602 17.602h61.191v61.191c0 9.705 7.896 17.602 17.602 17.602h12.122c9.705 0 17.602-7.896 17.602-17.602v-80.814c-.001-15.275-12.429-27.703-27.704-27.703zm12.703 108.517c0 1.435-1.167 2.602-2.602 2.602h-12.122c-1.435 0-2.602-1.167-2.602-2.602v-68.692c0-4.143-3.357-7.5-7.5-7.5h-68.691c-1.435 0-2.602-1.167-2.602-2.602v-12.121c0-1.435 1.167-2.602 2.602-2.602h80.813c7.006 0 12.704 5.698 12.704 12.703z"/><path d="m17.6 126.12h12.12c9.71 0 17.61-7.896 17.61-17.601v-61.189h61.189c9.705 0 17.601-7.9 17.601-17.61v-12.12c0-9.704-7.896-17.6-17.601-17.6h-80.819c-15.274 0-27.7 12.426-27.7 27.7v17.86c0 4.143 3.357 7.5 7.5 7.5s7.5-3.357 7.5-7.5v-17.86c0-7.003 5.697-12.7 12.7-12.7h80.819c1.434 0 2.601 1.166 2.601 2.6v12.12c0 1.439-1.167 2.61-2.601 2.61h-68.689c-4.143 0-7.5 3.357-7.5 7.5v68.689c0 1.434-1.171 2.601-2.61 2.601h-12.12c-1.434 0-2.6-1.167-2.6-2.601v-27.959c0-4.143-3.357-7.5-7.5-7.5s-7.5 3.357-7.5 7.5v27.96c0 9.705 7.896 17.6 17.6 17.6z"/><path d="m494.4 385.88h-12.12c-9.71 0-17.61 7.896-17.61 17.601v61.189h-61.19c-9.705 0-17.601 7.9-17.601 17.61v12.12c0 9.704 7.896 17.6 17.601 17.6h80.82c15.274 0 27.7-12.426 27.7-27.7v-17.86c0-4.143-3.357-7.5-7.5-7.5s-7.5 3.357-7.5 7.5v17.86c0 7.003-5.697 12.7-12.7 12.7h-80.82c-1.434 0-2.601-1.166-2.601-2.6v-12.12c0-1.439 1.167-2.61 2.601-2.61h68.689c4.143 0 7.5-3.357 7.5-7.5v-68.69c0-1.434 1.171-2.601 2.61-2.601h12.12c1.434 0 2.6 1.167 2.6 2.601v27.96c0 4.143 3.357 7.5 7.5 7.5s7.5-3.357 7.5-7.5v-27.96c.001-9.705-7.895-17.6-17.599-17.6z"/><path d="m108.517 464.675h-61.192v-61.191c0-9.705-7.896-17.602-17.602-17.602h-12.121c-9.706 0-17.602 7.896-17.602 17.601v80.813c0 15.276 12.428 27.704 27.703 27.704h80.813c9.705 0 17.602-7.896 17.602-17.602v-12.122c0-9.705-7.896-17.601-17.601-17.601zm2.601 29.723c0 1.435-1.167 2.602-2.602 2.602h-80.813c-7.005 0-12.703-5.698-12.703-12.703v-80.813c0-1.435 1.167-2.602 2.602-2.602h12.122c1.435 0 2.602 1.167 2.602 2.602v68.691c0 4.143 3.357 7.5 7.5 7.5h68.691c1.435 0 2.602 1.167 2.602 2.602v12.121z"/><path d="m488.34 162.63c-6.323 0-12.266 2.46-16.733 6.927-3.89 3.891-6.26 8.892-6.812 14.283h-84.044c-5.672-22.38-17.241-42.768-33.727-59.264-24.316-24.315-56.642-37.706-91.024-37.706-58.911 0-110.417 40.424-124.764 96.97h-84.032c-1.23-11.899-11.32-21.21-23.544-21.21-6.317 0-12.256 2.46-16.723 6.926-4.473 4.472-6.937 10.416-6.937 16.734v42.43c0 13.046 10.614 23.66 23.66 23.66 6.324 0 12.267-2.46 16.733-6.927 3.89-3.891 6.26-8.892 6.812-14.283h48.391c-5.451 6.814-8.722 15.445-8.722 24.83 0 10.641 4.142 20.643 11.661 28.164 7.521 7.52 17.522 11.661 28.164 11.661h.581v.585c0 37.557 16.077 72.644 44.282 97.126-3.162 9.138-4.885 18.941-4.885 29.141 0 49.253 40.07 89.323 89.323 89.323s89.323-40.07 89.323-89.323c0-10.2-1.723-20.003-4.885-29.141 28.205-24.482 44.282-59.568 44.282-97.126v-.585h.581c10.641 0 20.643-4.142 28.164-11.662 7.52-7.521 11.661-17.522 11.661-28.163 0-9.385-3.271-18.016-8.722-24.83h48.392c1.23 11.899 11.32 21.21 23.544 21.21 13.046 0 23.66-10.614 23.66-23.66v-42.43c0-13.046-10.614-23.66-23.66-23.66zm-361.641 118.195c-6.635 0-12.87-2.581-17.557-7.268-4.688-4.688-7.269-10.924-7.269-17.558 0-13.688 11.137-24.825 24.825-24.825h.581v49.65h-.58zm129.301 216.175c-40.982 0-74.323-33.341-74.323-74.323s33.341-74.323 74.323-74.323 74.323 33.341 74.323 74.323-33.341 74.323-74.323 74.323zm77.984-117.833c-15.298-27.31-44.519-45.813-77.984-45.813s-62.687 18.503-77.984 45.813c-22.818-21.442-35.735-51.108-35.735-82.756v-65.24h227.439v65.24c0 31.647-12.918 61.313-35.736 82.756zm68.874-105.61c-4.688 4.688-10.924 7.269-17.558 7.269h-.581v-49.65h.581c13.688 0 24.825 11.137 24.825 24.825.001 6.633-2.58 12.868-7.267 17.556zm94.142-44.837c0 4.775-3.885 8.66-8.66 8.66-4.78 0-8.67-3.885-8.67-8.66v-5.05c0-4.143-3.357-7.5-7.5-7.5h-432.34c-4.143 0-7.5 3.357-7.5 7.5v5.05c0 2.311-.903 4.487-2.544 6.127-1.633 1.634-3.809 2.533-6.126 2.533-4.775 0-8.66-3.885-8.66-8.66v-42.43c0-2.311.903-4.486 2.544-6.126 1.634-1.635 3.806-2.534 6.116-2.534 4.78 0 8.67 3.885 8.67 8.66v5.05c0 4.143 3.357 7.5 7.5 7.5h151.79c4.143 0 7.5-3.357 7.5-7.5s-3.357-7.5-7.5-7.5h-44.833c13.932-48.007 58.457-81.97 109.213-81.97 30.375 0 58.935 11.831 80.415 33.312 13.656 13.664 23.494 30.344 28.801 48.658h-138.596c-4.143 0-7.5 3.357-7.5 7.5s3.357 7.5 7.5 7.5h245.55c4.143 0 7.5-3.357 7.5-7.5v-5.05c0-2.311.903-4.486 2.544-6.126 1.634-1.635 3.81-2.534 6.126-2.534 4.775 0 8.66 3.885 8.66 8.66z"/><path d="m269.982 390.699-21.84 21.841-6.125-6.126c-4.47-4.469-10.412-6.931-16.732-6.931s-12.263 2.462-16.732 6.931c-9.226 9.227-9.226 24.237 0 33.464l22.857 22.857c4.47 4.469 10.412 6.931 16.732 6.931 6.321 0 12.264-2.462 16.732-6.931l38.572-38.571c9.226-9.227 9.226-24.238-.001-33.465-9.226-9.225-24.237-9.223-33.463 0zm22.858 22.858-38.572 38.572c-1.636 1.636-3.811 2.537-6.125 2.537-2.313 0-4.489-.901-6.125-2.538l-22.857-22.857c-3.378-3.377-3.378-8.872 0-12.249 1.636-1.637 3.812-2.538 6.125-2.538 2.314 0 4.489.901 6.125 2.537v.001l11.429 11.429c2.93 2.928 7.678 2.928 10.607 0l27.144-27.144c3.376-3.379 8.872-3.377 12.25 0s3.377 8.873-.001 12.25z"/></g></g><g/><g/><g/><g/><g/><g/><g/><g/><g/><g/><g/><g/><g/><g/><g/></svg>