<svg height="512" viewBox="0 0 64 64" width="512" xmlns="http://www.w3.org/2000/svg" xmlns:xlink="http://www.w3.org/1999/xlink"><linearGradient id="linear-gradient" gradientUnits="userSpaceOnUse" x1="34.85" x2="41" y1="41.77" y2="41.77"><stop offset="0" stop-color="#015bbb"/><stop offset="1" stop-color="#02aff8"/></linearGradient><linearGradient id="linear-gradient-2" x1="23" x2="40.94" xlink:href="#linear-gradient" y1="27.5" y2="27.5"/><linearGradient id="linear-gradient-3" x1="18.59" x2="24.97" xlink:href="#linear-gradient" y1="41.05" y2="41.05"/><linearGradient id="linear-gradient-4" x1="40.81" x2="43.08" xlink:href="#linear-gradient" y1="47.29" y2="47.29"/><linearGradient id="linear-gradient-5" x1="39.39" x2="45" xlink:href="#linear-gradient" y1="32.76" y2="32.76"/><linearGradient id="linear-gradient-6" x1="16.43" x2="38.18" xlink:href="#linear-gradient" y1="29.8" y2="29.8"/><linearGradient id="linear-gradient-10" x1="29.6" x2="36.51" xlink:href="#linear-gradient" y1="45.94" y2="45.94"/><linearGradient id="linear-gradient-11" x1="22.67" x2="37" xlink:href="#linear-gradient" y1="36.33" y2="36.33"/><linearGradient id="linear-gradient-12" gradientUnits="userSpaceOnUse" x1="25.5" x2="28.41" y1="49.01" y2="49.01"><stop offset="0" stop-color="#02aff8"/><stop offset="1" stop-color="#02dbf8"/></linearGradient><linearGradient id="linear-gradient-13" x1="28.15" x2="33" xlink:href="#linear-gradient" y1="38.08" y2="38.08"/><linearGradient id="linear-gradient-14" x1="18.19" x2="49" xlink:href="#linear-gradient" y1="24.5" y2="24.5"/><linearGradient id="linear-gradient-15" x1="15" x2="18.23" xlink:href="#linear-gradient" y1="29.42" y2="29.42"/><g id="finger_print" data-name="finger print"><path d="m35.85 51.53a1 1 0 0 1 -.54-.16 1 1 0 0 1 -.31-1.37 25.54 25.54 0 0 0 4-13.77v-3.23a1 1 0 0 1 2 0v3.22a27.51 27.51 0 0 1 -4.31 14.85 1 1 0 0 1 -.84.46z" fill="url(#linear-gradient)"/><path d="m24 34a1 1 0 0 1 -1-1v-3a9 9 0 0 1 17.93-1.13 1 1 0 0 1 -2 .26 7 7 0 0 0 -13.93.87v3a1 1 0 0 1 -1 1z" fill="url(#linear-gradient-2)"/><path d="m19.59 46.1a1 1 0 0 1 -.71-1.7l1.25-1.26a9.77 9.77 0 0 0 2.87-6.21 1 1 0 0 1 1-.93 1 1 0 0 1 1 1.07 11.77 11.77 0 0 1 -3.42 7.48l-1.28 1.25a1 1 0 0 1 -.71.3z" fill="url(#linear-gradient-3)"/><path d="m41.81 48.65a.91.91 0 0 1 -.39-.08 1 1 0 0 1 -.53-1.31c.09-.21.17-.43.24-.65a1 1 0 1 1 1.9.64c-.09.26-.19.52-.3.79a1 1 0 0 1 -.92.61z" fill="url(#linear-gradient-4)"/><path d="m43 45.09h-.26a1 1 0 0 1 -.74-1.26 29 29 0 0 0 1-7.61v-6.22a10.86 10.86 0 0 0 -3.31-7.85 1 1 0 1 1 1.4-1.44 12.92 12.92 0 0 1 3.91 9.29v6.22a31.3 31.3 0 0 1 -1 8.13 1 1 0 0 1 -1 .74z" fill="url(#linear-gradient-5)"/><path d="m17.43 42.6a1 1 0 0 1 -.71-.29 1 1 0 0 1 0-1.42l.58-.58a5.74 5.74 0 0 0 1.7-4.09v-6.22a13 13 0 0 1 18.61-11.73 1 1 0 1 1 -.86 1.8 11 11 0 0 0 -15.75 9.93v6.22a7.76 7.76 0 0 1 -2.28 5.5l-.58.59a1 1 0 0 1 -.71.29z" fill="url(#linear-gradient-6)"/><path d="m35.85 51.53a1 1 0 0 1 -.54-.16 1 1 0 0 1 -.31-1.37 25.54 25.54 0 0 0 4-13.77v-3.23a1 1 0 0 1 2 0v3.22a27.51 27.51 0 0 1 -4.31 14.85 1 1 0 0 1 -.84.46z" fill="url(#linear-gradient)"/><path d="m24 34a1 1 0 0 1 -1-1v-3a9 9 0 0 1 17.93-1.13 1 1 0 0 1 -2 .26 7 7 0 0 0 -13.93.87v3a1 1 0 0 1 -1 1z" fill="url(#linear-gradient-2)"/><path d="m19.59 46.1a1 1 0 0 1 -.71-1.7l1.25-1.26a9.77 9.77 0 0 0 2.87-6.21 1 1 0 0 1 1-.93 1 1 0 0 1 1 1.07 11.77 11.77 0 0 1 -3.42 7.48l-1.28 1.25a1 1 0 0 1 -.71.3z" fill="url(#linear-gradient-3)"/><path d="m30.6 51.94a1 1 0 0 1 -.76-1.65 21.58 21.58 0 0 0 4.69-9.55 1 1 0 0 1 1.18-.74 1 1 0 0 1 .78 1.19 23.65 23.65 0 0 1 -5.13 10.44 1 1 0 0 1 -.76.31z" fill="url(#linear-gradient-10)"/><path d="m23.67 47.67a1 1 0 0 1 -.71-.29 1 1 0 0 1 .04-1.38 13.65 13.65 0 0 0 4-9.74v-6.26a5 5 0 0 1 10 0v6.22.86a1 1 0 0 1 -2-.16c0-.23 0-.46 0-.7v-6.22a3 3 0 0 0 -6 0v6.22a15.69 15.69 0 0 1 -4.62 11.16 1 1 0 0 1 -.71.29z" fill="url(#linear-gradient-11)"/><path d="m26.5 50.5a1 1 0 0 1 -.71-.29 1 1 0 0 1 0-1.42c.3-.3.59-.6.86-.92a1 1 0 0 1 1.52 1.3c-.31.36-.62.7-1 1a1 1 0 0 1 -.67.33z" fill="url(#linear-gradient-12)"/><path d="m29.15 47.16a1 1 0 0 1 -.85-1.53 17.66 17.66 0 0 0 2.7-9.41v-6.22a1 1 0 0 1 2 0v6.22a19.7 19.7 0 0 1 -3 10.47 1 1 0 0 1 -.85.47z" fill="url(#linear-gradient-13)"/><path d="m48 36a1 1 0 0 1 -1-1v-5a15 15 0 0 0 -27-9 1 1 0 0 1 -1.6-1.2 17 17 0 0 1 30.6 10.2v5a1 1 0 0 1 -1 1z" fill="url(#linear-gradient-14)"/><path d="m16 36a1 1 0 0 1 -1-1v-5a16.86 16.86 0 0 1 1.31-6.54 1 1 0 0 1 1.84.76 15.13 15.13 0 0 0 -1.15 5.78v5a1 1 0 0 1 -1 1z" fill="url(#linear-gradient-15)"/><g fill="#122333"><path d="m7 19a1 1 0 0 1 -1-1v-11a1 1 0 0 1 1-1h11a1 1 0 0 1 0 2h-10v10a1 1 0 0 1 -1 1z"/><path d="m57 19a1 1 0 0 1 -1-1v-10h-10a1 1 0 0 1 0-2h11a1 1 0 0 1 1 1v11a1 1 0 0 1 -1 1z"/><path d="m57 58h-11a1 1 0 0 1 0-2h10v-10a1 1 0 0 1 2 0v11a1 1 0 0 1 -1 1z"/><path d="m18 58h-11a1 1 0 0 1 -1-1v-11a1 1 0 0 1 2 0v10h10a1 1 0 0 1 0 2z"/></g></g></svg>