<svg height="512" viewBox="0 0 256 256" width="512" xmlns="http://www.w3.org/2000/svg"><g id="Layer_13"><g><g><g><g><g><path d="m12.775 186.1c-3.1-.6-5.6-3-6.2-6.1 0-.1-.3-.1-.3 0-.6 3.1-3.1 5.5-6.2 6.1-.1 0-.1.2 0 .3 3.1.6 5.6 3 6.2 6.1 0 .1.3.1.3 0 .6-3.1 3.1-5.5 6.2-6.1.1-.1.1-.3 0-.3z" fill="#fc657e"/></g></g><g><g><path d="m30.68 46.596h2.3v2.3c0 1.8 1.4 3.2 3.2 3.2 1.7 0 3.2-1.4 3.2-3.1v-.1-2.3h2.3c1.8 0 3.2-1.4 3.2-3.2 0-1.7-1.4-3.2-3.1-3.2h-.1-2.3v-2.3c0-1.8-1.4-3.2-3.2-3.2-1.7 0-3.2 1.4-3.2 3.1v.1 2.3h-2.3c-1.8 0-3.2 1.4-3.2 3.2-.1 1.7 1.3 3.2 3.2 3.2-.1 0-.1 0 0 0z" fill="#87d147"/></g></g><g><g><circle cx="252.6" cy="164.15" fill="#70d6f9" r="3.4"/></g></g><g><g><circle cx="109.413" cy="6.65" fill="#f5c84c" r="3.4"/></g></g><g><g><path d="m219.813 220.5c4.5-.8 8-4.3 8.9-8.7 0-.2.4-.2.4 0 .9 4.4 4.4 7.9 8.9 8.7.2 0 .2.3 0 .4-4.5.8-8 4.3-8.9 8.7 0 .2-.4.2-.4 0-.9-4.4-4.4-7.9-8.9-8.7-.2-.1-.2-.4 0-.4z" fill="#f5c84c"/></g></g></g><g><path d="m180.133 233.844h-47.487c-2.566 0-4.645 2.08-4.645 4.645v11.761h56.778v-11.761c-.001-2.565-2.081-4.645-4.646-4.645z" fill="#5290db"/><g><path d="m179.42 233.844v-9.4c0-1.423-1.153-2.576-2.576-2.576h-41.286c-1.423 0-2.576 1.153-2.576 2.576v9.4z" fill="#70d6f9"/></g><g><path d="m233.227 144.361c-2.972-2.357-7.267-1.984-9.789.85-4.491 5.046-8.525 10.481-12.056 16.239l-6.698 10.924-.014.014c.823-1.973.94-3.913-.173-5.621-4.802-7.366-12.614-1.247-21.339 5.324-7.272 5.476-14.989 5.491-21.147 6.976-8.723 2.104-15.682 8.623-18.765 17.049-2.001 5.47-3.973 15.369-4.181 25.752h34.081c-.371-4.697.524-11.657 6.095-13.528.038-.013.077-.026.115-.038l16.291-6.17c10.518-3.503 19.232-11.009 24.253-20.892l4.738-10.425c2.662-5.857 5.965-11.4 9.849-16.529 2.346-3.101 1.788-7.509-1.26-9.925z" fill="#f9d0b4"/></g><g><path d="m182.959 192.609c-.91 0-1.787-.499-2.229-1.365-.628-1.23-.14-2.735 1.091-3.363l4.509-2.3c4.243-2.164 8.004-4.803 11.18-7.847 2.408-2.308 4.082-4.473 4.842-6.262.539-1.271 2.011-1.862 3.277-1.324 1.271.54 1.864 2.007 1.324 3.278-1.036 2.441-3.05 5.105-5.984 7.918-3.528 3.381-7.689 6.306-12.367 8.691l-4.509 2.3c-.364.186-.752.274-1.134.274z"/></g><g><path d="m184.778 252.75c-1.381 0-2.5-1.119-2.5-2.5v-11.761c0-1.183-.963-2.146-2.146-2.146h-47.487c-1.183 0-2.146.962-2.146 2.146v11.761c0 1.381-1.119 2.5-2.5 2.5s-2.5-1.119-2.5-2.5v-11.761c0-3.94 3.206-7.146 7.146-7.146h47.487c3.94 0 7.146 3.206 7.146 7.146v11.761c0 1.381-1.119 2.5-2.5 2.5z"/></g><g><path d="m179.42 236.344h-46.438c-1.381 0-2.5-1.119-2.5-2.5v-9.4c0-2.799 2.277-5.076 5.076-5.076h41.286c2.799 0 5.076 2.277 5.076 5.076v9.4c0 1.381-1.119 2.5-2.5 2.5zm-43.939-5h41.438v-6.9c0-.042-.034-.076-.076-.076h-41.286c-.042 0-.076.034-.076.076z"/></g><g><path d="m173.144 224.368h-34.08c-.672 0-1.315-.271-1.785-.75-.471-.48-.728-1.129-.714-1.8.23-11.497 2.479-21.494 4.333-26.561 3.435-9.387 11.107-16.348 20.526-18.62 1.552-.375 3.138-.65 4.817-.941 5.095-.884 10.362-1.798 15.412-5.602l.538-.405c6.847-5.161 12.769-9.62 18.29-8.648 2.299.403 4.252 1.723 5.813 3.925l2.957-4.822c3.6-5.871 7.745-11.454 12.32-16.595 3.399-3.819 9.201-4.324 13.209-1.146h.001c4.078 3.234 4.84 9.243 1.697 13.393-3.766 4.971-6.984 10.373-9.566 16.054l-4.737 10.425c-.016.033-.031.066-.048.099-5.347 10.521-14.453 18.373-25.644 22.114l-16.244 6.152c-.031.012-.063.023-.095.034l-.134.044c-4.857 1.632-4.497 9.411-4.375 10.954.055.695-.183 1.381-.656 1.894-.472.511-1.138.802-1.835.802zm-31.494-5h28.934c.115-4.301 1.357-11.215 7.858-13.398l16.316-6.176c.032-.012.063-.023.096-.034 9.94-3.311 18.032-10.272 22.791-19.604l4.714-10.375c2.735-6.018 6.145-11.739 10.133-17.004 1.516-2 1.148-4.897-.818-6.457-1.932-1.531-4.729-1.289-6.368.553-4.379 4.921-8.347 10.265-11.793 15.884l-6.698 10.924c-.095.155-.206.299-.332.43-.837.865-2.175 1.02-3.179.36-1.005-.66-1.404-1.935-.941-3.044.765-1.835.389-2.758.04-3.294-1.107-1.699-2.12-2.05-2.785-2.167-3.386-.597-8.995 3.63-14.416 7.716l-.54.407c-6.014 4.529-12.15 5.594-17.564 6.534-1.598.277-3.106.54-4.501.875-7.788 1.879-14.145 7.666-17.003 15.478-1.703 4.65-3.496 13.166-3.944 22.392z"/></g><g><path d="m123.355 233.844h-47.488c-2.566 0-4.646 2.08-4.646 4.645v11.761h56.779v-11.761c0-2.565-2.08-4.645-4.645-4.645z" fill="#5290db"/><g><path d="m76.58 233.844v-9.4c0-1.423 1.153-2.576 2.576-2.576h41.286c1.423 0 2.576 1.153 2.576 2.576v9.4z" fill="#70d6f9"/></g><g><path d="m22.773 144.361c2.972-2.357 7.267-1.984 9.789.85 4.491 5.046 8.525 10.481 12.056 16.239l6.698 10.924.014.014c-.823-1.973-.94-3.913.173-5.621 4.802-7.366 12.614-1.247 21.339 5.324 7.271 5.476 14.989 5.491 21.147 6.976 8.723 2.104 15.682 8.623 18.765 17.049 2.001 5.47 3.973 15.369 4.181 25.752h-34.079c.371-4.697-.524-11.657-6.095-13.528-.038-.013-.077-.026-.115-.038l-16.291-6.17c-10.518-3.503-19.232-11.009-24.253-20.892l-4.738-10.425c-2.662-5.857-5.965-11.4-9.849-16.529-2.348-3.101-1.79-7.509 1.258-9.925z" fill="#f9d0b4"/></g><g><path d="m73.041 192.609c-.382 0-.77-.088-1.134-.273l-4.509-2.3c-4.679-2.386-8.84-5.31-12.368-8.691-2.934-2.812-4.948-5.476-5.985-7.917-.54-1.271.053-2.739 1.324-3.279 1.271-.538 2.739.054 3.279 1.324.76 1.79 2.434 3.955 4.842 6.262 3.175 3.043 6.936 5.683 11.179 7.847l4.509 2.3c1.23.627 1.719 2.133 1.091 3.363-.441.866-1.318 1.364-2.228 1.364z"/></g><g><path d="m128 252.75c-1.381 0-2.5-1.119-2.5-2.5v-11.761c0-1.183-.962-2.146-2.146-2.146h-47.487c-1.183 0-2.146.962-2.146 2.146v11.761c0 1.381-1.119 2.5-2.5 2.5s-2.5-1.119-2.5-2.5v-11.761c0-3.94 3.206-7.146 7.146-7.146h47.487c3.94 0 7.146 3.206 7.146 7.146v11.761c0 1.381-1.119 2.5-2.5 2.5z"/></g><g><path d="m123.019 236.344h-46.439c-1.381 0-2.5-1.119-2.5-2.5v-9.4c0-2.799 2.277-5.076 5.077-5.076h41.286c2.799 0 5.076 2.277 5.076 5.076v9.4c0 1.381-1.12 2.5-2.5 2.5zm-43.939-5h41.439v-6.9c0-.042-.034-.076-.076-.076h-41.287c-.042 0-.077.034-.077.076v6.9z"/></g><g><path d="m116.937 224.368h-34.081c-.697 0-1.363-.291-1.836-.803-.474-.512-.711-1.199-.656-1.894.122-1.542.483-9.321-4.398-10.96-.03-.01-.175-.06-.205-.071l-16.245-6.152c-11.191-3.741-20.297-11.593-25.643-22.115-.016-.032-.032-.065-.047-.098l-4.738-10.425c-2.581-5.678-5.799-11.08-9.566-16.054-3.144-4.15-2.382-10.159 1.698-13.394 4.007-3.178 9.811-2.674 13.21 1.146 4.577 5.144 8.722 10.727 12.32 16.595l2.956 4.821c1.561-2.202 3.514-3.521 5.813-3.924 5.531-.968 11.443 3.487 18.29 8.648l.538.405c5.05 3.803 10.318 4.718 15.412 5.602 1.68.292 3.266.567 4.818.941 9.418 2.272 17.092 9.233 20.527 18.621 1.854 5.068 4.102 15.066 4.333 26.561.014.672-.244 1.32-.714 1.8-.471.479-1.115.75-1.786.75zm-31.521-5h28.934c-.446-9.224-2.24-17.74-3.942-22.393-2.859-7.813-9.216-13.599-17.004-15.478-1.394-.336-2.903-.598-4.5-.875-5.414-.939-11.55-2.004-17.564-6.534l-.54-.407c-5.421-4.086-11.035-8.312-14.417-7.716-.665.117-1.677.468-2.785 2.167-.349.536-.725 1.46.04 3.294.463 1.109.071 2.391-.934 3.051-1.003.661-2.337.513-3.171-.353-.126-.13-.251-.289-.347-.444l-6.698-10.924c-3.444-5.617-7.412-10.961-11.792-15.884-1.638-1.841-4.435-2.084-6.368-.553-1.967 1.56-2.334 4.456-.818 6.457 3.99 5.268 7.399 10.989 10.132 17.004l4.715 10.375c4.757 9.332 12.849 16.293 22.79 19.604.032.011.064.022.095.034l16.246 6.153c.033.011.069.023.071.023 6.5 2.184 7.742 9.097 7.857 13.399z"/></g></g></g></g><g><g><path d="m168.148 159.449h-80.295c-14.728 0-26.778-12.05-26.778-26.778v-80.296c0-14.728 12.05-26.778 26.778-26.778h80.295c14.728 0 26.778 12.05 26.778 26.778v80.295c.001 14.729-12.05 26.779-26.778 26.779z" fill="#87d147"/></g><g><path d="m168.148 161.949h-80.295c-16.144 0-29.278-13.134-29.278-29.278v-80.296c0-16.144 13.134-29.278 29.278-29.278h80.295c16.144 0 29.278 13.134 29.278 29.278v80.295c0 16.144-13.134 29.279-29.278 29.279zm-80.295-133.852c-13.387 0-24.278 10.891-24.278 24.278v80.295c0 13.387 10.891 24.278 24.278 24.278h80.295c13.387 0 24.278-10.891 24.278-24.278v-80.295c0-13.387-10.891-24.278-24.278-24.278z"/></g><g><path d="m179.926 54.875c-1.381 0-2.5-1.119-2.5-2.5 0-5.116-4.162-9.278-9.278-9.278-1.381 0-2.5-1.119-2.5-2.5s1.119-2.5 2.5-2.5c7.873 0 14.278 6.405 14.278 14.278 0 1.381-1.119 2.5-2.5 2.5z"/></g><g><path d="m168.148 146.949c-1.381 0-2.5-1.119-2.5-2.5s1.119-2.5 2.5-2.5c5.116 0 9.278-4.163 9.278-9.279 0-1.381 1.119-2.5 2.5-2.5s2.5 1.119 2.5 2.5c0 7.874-6.405 14.279-14.278 14.279z"/></g><g><path d="m87.853 146.949c-7.873 0-14.278-6.405-14.278-14.279 0-1.381 1.119-2.5 2.5-2.5s2.5 1.119 2.5 2.5c0 5.116 4.162 9.279 9.278 9.279 1.381 0 2.5 1.119 2.5 2.5s-1.12 2.5-2.5 2.5z"/></g><g><path d="m76.074 54.875c-1.381 0-2.5-1.119-2.5-2.5 0-7.873 6.405-14.278 14.278-14.278 1.381 0 2.5 1.119 2.5 2.5s-1.119 2.5-2.5 2.5c-5.116 0-9.278 4.162-9.278 9.278 0 1.381-1.119 2.5-2.5 2.5z"/></g><g><g><path d="m109.358 135.496c-.478 0-.96-.137-1.387-.422-1.148-.768-1.456-2.32-.688-3.468 16.519-24.698 17.784-47.58 17.795-47.809.065-1.378 1.226-2.44 2.613-2.38 1.378.064 2.444 1.231 2.381 2.609-.045.986-1.296 24.438-18.634 50.358-.481.722-1.273 1.112-2.08 1.112z"/></g><g><path d="m121.831 136.963c-.441 0-.889-.117-1.294-.363-1.181-.716-1.557-2.253-.841-3.434 15.409-25.412 16.599-47.91 16.642-48.855.218-4.793-3.516-8.889-8.323-9.131-4.796-.237-8.935 3.479-9.201 8.305-.046.836-1.296 20.718-15.452 42.776-.746 1.163-2.292 1.499-3.454.754-1.162-.746-1.5-2.292-.754-3.454 13.453-20.962 14.625-39.57 14.668-40.352.417-7.566 6.892-13.41 14.446-13.022 7.545.379 13.407 6.817 13.065 14.352-.045.998-1.298 24.73-17.361 51.22-.471.776-1.296 1.204-2.141 1.204z"/></g><g><path d="m94.707 116.556c-.415 0-.835-.104-1.223-.321-1.203-.677-1.63-2.201-.954-3.405 9.146-16.263 10.005-29.683 10.037-30.247.758-13.748 12.533-24.364 26.278-23.653 12.82.644 23.257 11.188 23.755 24.004.107 2.735.827 5.275 2.083 7.347 1.375 2.268 3.205 3.903 5.438 4.86 1.269.544 1.857 2.014 1.313 3.283s-2.014 1.856-3.283 1.313c-3.211-1.376-5.817-3.685-7.744-6.863-1.694-2.795-2.664-6.165-2.804-9.745-.399-10.254-8.751-18.69-19.014-19.206-10.992-.579-20.424 7.93-21.031 18.939-.087 1.535-1.126 15.448-10.67 32.418-.459.817-1.307 1.276-2.181 1.276z"/></g><g><path d="m135.046 136.387c-.398 0-.801-.095-1.177-.296-1.217-.651-1.677-2.166-1.026-3.383 3.035-5.678 5.685-11.609 7.876-17.63.472-1.297 1.907-1.968 3.204-1.494 1.297.472 1.966 1.907 1.494 3.204-2.271 6.242-5.019 12.392-8.165 18.277-.45.843-1.314 1.322-2.206 1.322z"/></g><g><path d="m161.375 85.427c-1.347 0-2.458-1.072-2.498-2.428-.467-16.189-13.517-29.513-29.709-30.333-17.178-.892-31.916 12.362-32.864 29.552-.076 1.379-1.279 2.438-2.634 2.358-1.379-.076-2.435-1.255-2.358-2.634 1.1-19.935 18.188-35.311 38.113-34.27 18.774.95 33.908 16.404 34.45 35.182.04 1.38-1.047 2.531-2.427 2.571-.024.002-.048.002-.073.002z"/></g><g><path d="m147.323 136.965c-.369 0-.743-.082-1.097-.255-1.24-.607-1.754-2.104-1.147-3.344 2.21-4.518 4.212-9.195 5.949-13.901.478-1.295 1.912-1.959 3.211-1.479 1.295.478 1.958 1.916 1.479 3.211-1.795 4.864-3.864 9.698-6.148 14.367-.433.886-1.322 1.401-2.247 1.401z"/></g><g><path d="m156.959 113.386c-.319 0-.643-.061-.956-.191-8.792-3.642-12.601-12.052-12.759-12.409-.56-1.262.011-2.739 1.273-3.298 1.261-.56 2.734.009 3.295 1.267.046.102 3.218 6.969 10.104 9.821 1.276.528 1.881 1.991 1.353 3.266-.398.963-1.329 1.544-2.31 1.544z"/></g></g></g></g></g></svg>