<svg enable-background="new 0 0 512 512" height="512" viewBox="0 0 512 512" width="512" xmlns="http://www.w3.org/2000/svg"><g id="_x33_8_Fingerprint"><g><g fill="#cfe9ff"><path d="m263.823 287.092c-11.003 41.72 25.528 89.452-88.867 193.865-11.329 10.34-25.158-4.419-14.114-14.901 40.369-38.313 82.531-83.122 79.772-138.536-1.092-21.936-.938-64.524 20.751-66.614 36.597-3.528 65.156 132.767-54.568 237.993-6.489 5.703-12.554 5.842-16.834.799-4.278-5.04-3.136-10.744 3.521-16.519 32.362-28.077 56.876-61.56 69.999-102.674 15.458-48.43 7.599-83.526.34-93.413z"/><path d="m380.285 251.73c1.904 7.561-1.076 13.05-7.403 14.473-6.516 1.466-11.11-1.974-13.137-10.638-24.669-105.444-141.996-143.965-176.587-68.437-12.54 27.381-8.35 43.866-23.306 41.177-5.985-1.076-8.984-5.545-7.711-11.19 6.931-30.754 16.816-59.9 46.019-77.479 58.514-35.224 155.102 4.779 182.125 112.094z"/><path d="m358.058 328.807c-1.706 78.653-25.24 126.412-64.202 167.648-10.438 11.047-26.836-2.206-14.402-14.708 19.934-20.042 35.141-43.234 43.88-70.032 16.188-49.64 21.203-99.838 2.033-149.953-18.995-49.657-41.595-50.524-28.616-62.881 11.057-10.528 22.696 9.1 30.879 21.974 20.947 32.958 30.994 68.927 30.428 107.952z"/><path d="m285.557 184.132c.176 8.983-6.31 13.772-13.696 11.249-10.305-3.52-20.666-5.646-31.438-2.851-70.555 18.301-4.045 123.645-114.767 224.574-10.012 9.126-25.836-3.646-13.552-15.443 17.837-17.129 33.837-35.605 45.219-57.83 12.409-24.231 16.822-50.508 20.81-76.974 2.822-18.724 4.314-37.762 11.968-55.444 14.858-34.324 53.19-49.906 87.671-35.708 4.578 1.885 7.618 4.837 7.785 8.427z"/><path d="m83.389 290.24c21.819-23.175 23.259-53.099 28.86-81.802 9.58-49.101 26.975-88.48 74.109-110.233 7.732-3.569 13.802-2.031 16.476 4.007 2.538 5.731.11 10.802-7.482 14.336-36.469 16.977-52.59 48.275-60.769 85.414-4.197 19.057-5.93 38.582-11.205 57.422-4.319 15.427-11.42 29.336-22.254 41.247-12.402 13.634-24.697-2.996-17.735-10.391z"/><path d="m324.753 338.238c-.388 8.594-4.429 13.14-11.008 12.681-22.202-1.547 7.293-43.67-33.445-101.237-9.226-13.038-23.571-19.747-35.34-6.711-22.918 25.387-5.793 60.9-26.23 59.778-6.045-.332-9.651-4.133-9.47-9.866 2.939-92.947 77.242-108.991 108.613-14.06 6.037 18.265 7.748 40.217 6.88 59.415z"/><path d="m330.063 61.549c7.575 3.473 10.119 8.529 7.662 14.338-2.638 6.236-8.467 7.841-16.23 4.39-64.929-28.86-118.362-20.242-168.725 18.186-5.232 3.992-10.546 4.266-14.934-.888-4.459-5.237-3.178-10.612 1.744-14.841 46.812-40.231 116.299-55.197 190.483-21.185z"/><path d="m423.951 374.882c-1.098 6.604-4.61 10.174-11.354 9.705-6.093-.424-9.527-5.46-8.631-12.847 8.33-68.649 6.658-96.222-20.834-171.017-2.838-7.721-1.447-13.175 4.754-15.453 8.819-3.239 13.194 3.093 16.166 12.095 19.18 58.079 33.774 94.103 19.899 177.517z"/><path d="m231.088 106.131c-9.72 1.424-15.342-1.423-16.204-8.331-3.741-29.963 123.705-10.617 168.409 60.676 3.499 5.58 3.139 10.959-2.279 14.87-15.616 11.274-14.634-19.03-60.524-44.78-25.697-14.419-60.24-26.709-89.402-22.435z"/><path d="m440.614 222.341c-6.122 1.276-10.492-1.324-12.184-7.518-28.888-105.738-78.453-109.988-80.871-123.564-1.555-8.729 6.967-16.648 17.435-9.669 46.238 30.829 68.817 72.339 82.677 125.405 1.85 7.084.29 13.814-7.057 15.346z"/><path d="m373.235 436.123c-2.25 5.968-6.665 9.134-13.247 7.117-17.593-5.393 4.874-27.698 11.214-78.424 3.803-30.429-3.547-67.84-3.737-70.16-1.333-16.218 18.482-17.32 20.531-2.963 6.933 48.584 10.776 76.695-14.761 144.43z"/><path d="m232.44 491.85c32.383-31.712 53.609-71.156 65.866-115.548 2.121-7.683 7.178-11.472 13.11-9.315 6.575 2.39 8.512 7.319 6.717 14.148-12.555 47.772-35.302 89.754-70.523 124.685-11.796 11.699-25.871-3.491-15.17-13.97z"/><path d="m280.509 2.474c48.227 6.838 92.045 26.406 127.614 62.904 4.666 4.787 4.954 10.096.733 15.072-16.365 19.29-27.868-43.453-132.254-57.528-6.528-.88-10.371-4.293-10.271-11.003.089-6.077 5.365-9.898 14.178-9.445z"/><path d="m224.851 330.506c-5.384 50.649-38.452 81.807-74.792 121.823-4.605 5.071-9.831 6.516-15.502 1.987-20.072-16.027 60.626-54.166 69.652-124.183 1.004-7.79 4.203-12.799 11.996-11.806 6.803.867 9.241 5.613 8.646 12.179z"/><path d="m63.763 236.457c9.632-39.239 14.518-81.541 40.297-116.644 7.531-10.255 15.443-20.106 24.176-11.128 4.138 4.254 4.294 9.466.33 13.738-24.291 26.171-31.323 59.485-38.828 92.645-2.062 9.11-4.015 18.261-6.57 27.237-1.596 5.605-6.099 8.33-11.825 6.939-5.599-1.36-8.377-5.439-7.58-12.787z"/><path d="m86.845 363.498c-1.819-4.385-.63-8.498 2.976-11.6 4.046-3.481 8.488-6.516 12.417-10.117 29.953-27.454 35.065-69.695 40.958-88.736 4.293-13.872 22.997-7.566 20.134 4.62-5.989 25.488-12.399 50.895-26.141 73.625-11.436 18.916-41.915 52.524-50.344 32.208z"/><path d="m254.795 12.574c-.836 7.227-5.776 9.708-12.754 9.869-34.877.807-69.867 14.125-99.494 35.469-7.213 5.197-12.713 5.04-16.867-.295-4.128-5.301-2.641-11.041 4.465-16.141 33.543-24.077 70.471-38.63 112.182-39.485 7.977-.163 12.6 3.781 12.468 10.583z"/></g><g fill="#9cf"><path d="m174.949 480.938c-11.311 10.359-25.162-4.405-14.089-14.883 26.67-25.32 54.134-53.459 68.898-85.686 7.183.675 14.367 1.468 21.59 2.183-10.597 26.314-32.266 58.144-76.399 98.386z"/><path d="m283.853 384.894c-11.668 36.95-35.402 77.391-77.074 114.023-6.469 5.676-12.541 5.834-16.828.794-4.286-5.04-3.135-10.755 3.532-16.549 31.512-27.345 55.603-59.81 68.938-99.497 7.144.634 14.287 1.11 21.432 1.229z"/><path d="m372.872 266.188c-6.509 1.468-11.113-1.945-13.137-10.636-7.739-33.1-24.606-59.571-45.204-77.987-.119-1.23-.238-2.461-.318-3.731-.436-7.501.278-14.843 1.984-21.987 28.417 20.677 52.586 54.174 64.096 99.894 1.906 7.542-1.071 13.058-7.421 14.447z"/><path d="m355.647 363.86c-7.104 58.539-28.972 97.87-61.794 132.597-10.438 11.033-26.829-2.222-14.407-14.724 19.923-20.043 35.164-43.22 43.895-70.009 3.731-11.51 6.906-23.019 9.287-34.528 8.375-3.295 16.273-7.78 23.019-13.336z"/><path d="m152.049 389.101c-7.461 9.327-16.153 18.693-26.392 28.019-2.421 2.222-5.159 3.135-7.779 3.096 4.524-7.581 10.12-14.486 17.066-20.32 5.239-4.405 10.994-7.977 17.105-10.795z"/><path d="m423.951 374.882c-1.098 6.604-4.61 10.174-11.354 9.705-6.093-.424-9.527-5.46-8.631-12.847 8.33-68.649 6.658-96.222-20.834-171.017-2.838-7.721-1.447-13.175 4.754-15.453 8.819-3.239 13.194 3.093 16.166 12.095 19.18 58.079 33.774 94.103 19.899 177.517z"/><path d="m381.008 173.359c-15.2 10.994-14.685-17.582-57.19-42.863 2.937-6.152 6.39-12.144 10.16-17.979 19.645 11.668 37.426 26.948 49.332 45.958 3.493 5.597 3.135 10.955-2.302 14.884z"/><path d="m440.619 222.333c-6.112 1.27-10.517-1.31-12.184-7.501-27.742-101.482-74.494-109.499-80.328-122 1.31-1.667 2.619-3.334 3.929-5.001 2.341-2.937 4.723-5.834 7.144-8.731 1.826.357 3.77 1.151 5.794 2.5 46.276 30.837 68.818 72.311 82.709 125.413 1.826 7.065.278 13.812-7.064 15.32z"/><path d="m373.235 436.123c-2.25 5.968-6.665 9.134-13.247 7.117-17.593-5.393 4.874-27.698 11.214-78.424 3.803-30.429-3.547-67.84-3.737-70.16-1.333-16.218 18.482-17.32 20.531-2.963 6.933 48.584 10.776 76.695-14.761 144.43z"/><path d="m317.944 381.799c-12.581 47.506-35.282 89.258-70.327 124.024-11.787 11.708-25.876-3.492-15.161-13.97 30.322-29.686 50.84-66.199 63.421-107.157 3.81-.158 7.66-.476 11.47-.952 3.533-.437 7.105-1.072 10.597-1.945z"/><path d="m408.869 80.45c-8.453 9.962-15.637-1.945-34.965-17.78 5-5.04 10.239-9.803 15.835-14.049 6.35 5.12 12.462 10.716 18.375 16.748 4.684 4.802 4.962 10.12.755 15.081z"/><path d="m209.319 379.14c-14.169 25.718-36.037 47.625-59.254 73.184-4.604 5.08-9.842 6.509-15.518 1.984-14.605-11.668 24.289-35.124 49.967-74.057 8.215-.992 16.55-1.31 24.805-1.111z"/></g><g><g><path d="m188.449 500.983c-2.93-3.453-6.345-10.554 3.734-19.305 34.361-29.808 57.065-63.101 69.409-101.777 13.65-42.765 8.837-74.24 3.054-87.282-1.434 8.131-1.368 16.561-1.291 26.061.298 37.277.671 83.666-87.063 163.743-6.55 5.988-14.154 4.628-18.278.202-4.081-4.387-4.889-11.98 1.461-18.007 39.721-37.696 81.87-82.48 79.157-137-2.157-43.304 5.637-67.058 22.541-68.686 9.81-.984 19.228 6.988 25.634 21.797 18.247 42.149 13.015 139.054-78.701 219.662-7.977 7.01-15.114 5.94-19.657.592zm76.976-215.066c8.174 11.131 15.387 46.819-.05 95.192-12.575 39.389-35.665 73.267-70.591 103.568-8.618 7.48-4.622 12.189-3.308 13.74 4.086 4.814 9.263 3.163 14.011-1.008 85.34-75.004 96.801-170.94 77.682-215.108-12.797-29.539-44.508-33.798-40.571 45.122 2.796 56.198-40.029 101.77-80.389 140.07-4.715 4.477-4.044 9.465-1.289 12.426 2.707 2.907 7.835 4.008 12.699-.426 86.424-78.883 86.059-124.292 85.767-160.778-.089-11.267-.174-21.91 2.521-32.13.422-1.607 2.528-2.012 3.518-.668z" fill="#24272b"/></g><g><path d="m357.812 256.02c-14.991-64.086-64.613-101.797-105.884-105.932-30.173-3.011-54.563 10.782-66.965 37.866-4.432 9.678-6.734 17.941-8.585 24.58-3.318 11.902-5.504 19.762-16.877 17.724-3.519-.632-6.265-2.302-7.941-4.829-1.626-2.449-2.093-5.473-1.355-8.751 6.37-28.262 15.776-59.985 46.932-78.744 26.026-15.658 59.497-16.991 91.834-3.663 45.23 18.654 79.217 61.287 93.235 116.974 2.034 8.054-.966 15.11-8.887 16.894-6.849 1.557-13.024-1.525-15.507-12.119zm-114.014-110.316c2.789 0 5.63.143 8.525.434 42.674 4.275 93.939 43.079 109.356 108.975 2.57 10.999 8.736 9.616 10.767 9.155 5.804-1.299 7.36-6.303 5.914-12.054 0 0 0 0-.004 0-13.709-54.454-46.842-96.107-90.902-114.273-31.161-12.86-63.338-11.623-88.272 3.395-29.814 17.949-38.916 48.753-45.106 76.217-.494 2.194-.221 4.159.789 5.682 1.064 1.605 2.909 2.682 5.337 3.116 7.49 1.353 8.833-2.244 12.354-14.883 1.886-6.771 4.236-15.205 8.798-25.165 11.963-26.123 34.442-40.599 62.444-40.599z" fill="#24272b"/></g><g><path d="m273.417 494.057c-.74-2.639-1.12-7.93 4.628-13.709 20.549-20.658 35.153-43.959 43.401-69.248 18.499-56.726 19.158-103.952 2.07-148.628-9.174-23.979-19.03-36.238-25.553-44.35-6.794-8.449-10.538-13.104-2.581-20.681 12.611-11.992 25.254 8.652 33.924 22.348 52.744 83.001 35.193 204.789-34.01 278.031-7.822 8.277-19.466 4.866-21.879-3.763zm24.7-293.74c-10.933 10.408 10.466 12.014 29.103 60.737 17.193 44.947 16.538 94.429-2 151.279-8.445 25.886-23.371 49.71-44.362 70.814-3.209 3.225-4.496 6.721-3.62 9.841 1.552 5.542 9.408 8.215 15.174 2.105 73.509-77.801 82.122-196.73 33.545-273.171-7.324-11.57-18.439-30.54-27.84-21.605z" fill="#24272b"/></g><g><path d="m108.692 418.201c-3.928-4.197-4.821-11.383 2.039-17.972 20.784-19.96 35.027-38.168 44.827-57.303 23.346-45.584 18.3-98.981 32.723-132.299 15.23-35.18 54.875-51.334 90.249-36.754 5.612 2.306 8.813 5.918 9.007 10.166.004.019.004.035.004.054.208 10.438-7.706 16.098-16.321 13.166-8.775-3-19.233-5.682-30.299-2.806-30.894 8.011-34.442 33.607-39.354 69.035-5.833 42.075-13.823 99.704-74.573 155.081-5.766 5.261-13.786 4.464-18.302-.368zm83.231-206.001c-14.385 33.222-8.975 85.955-32.835 132.531-10.005 19.542-24.499 38.087-45.61 58.357-5.238 5.035-4.411 9.705-1.889 12.402 2.92 3.116 8.476 4.031 12.73.147 59.692-54.416 67.246-108.909 73.318-152.697 4.93-35.56 8.823-63.652 42.288-72.333 12.073-3.12 23.241-.295 32.578 2.891 9.98 3.418 17.094-10.777 4.515-15.96-33.396-13.75-70.753 1.53-85.095 34.662z" fill="#24272b"/></g><g><path d="m79.912 298.913c-1.159-3.775-.419-7.43 2.031-10.034 21.333-22.658 22.6-51.307 28.359-80.821 8.157-41.812 23.474-87.77 75.225-111.653 9.626-4.446 16.322-1.323 19.121 5.007 3.037 6.848-.047 13.023-8.459 16.937-63.449 29.536-59.833 102.037-70.901 141.57-4.651 16.615-12.075 30.37-22.696 42.048-8.777 9.648-19.799 6.34-22.68-3.054zm4.922-7.314c-1.446 1.535-1.856 3.775-1.128 6.151 1.907 6.226 9.093 9.087 15.949 1.546 10.195-11.209 17.33-24.441 21.811-40.447 11.04-39.427 7.491-113.587 73.048-144.097 6.438-3 8.627-6.945 6.505-11.736-2.531-5.711-8.159-5.622-13.831-3.008-93.707 43.241-58.212 144.71-102.354 191.591z" fill="#24272b"/></g><g><path d="m313.605 352.898c-11.29-.787-11.379-10.569-11.499-24.103-.163-18.096-.407-45.439-23.425-77.965-8.946-12.639-21.751-18.144-32.246-6.531-11.011 12.201-12.414 26.874-13.542 38.668-1.149 12.03-2.091 22.421-14.271 21.762-7.108-.391-11.561-5.066-11.342-11.91 3.023-95.771 80.577-111.157 112.48-14.619 5.5 16.639 7.976 37.994 6.972 60.125-.381 8.57-4.508 15.154-13.127 14.573zm-31.685-104.362c23.735 33.541 23.987 61.632 24.154 80.224.124 13.976.469 19.666 7.81 20.177 6.236.442 8.599-4.519 8.887-10.79.977-21.662-1.43-42.509-6.779-58.698-30.693-92.871-101.881-77.189-104.748 13.495-.149 4.697 2.62 7.55 7.595 7.825 8.023.384 8.868-5.259 10.104-18.181 1.12-11.72 2.655-27.774 14.546-40.947 12.235-13.546 27.947-7.922 38.431 6.895z" fill="#24272b"/></g><g><path d="m136.326 98.862c-4.909-5.767-4.176-12.356 1.961-17.631 52.166-44.835 124.166-52.861 192.604-21.483 8.422 3.86 11.577 10.023 8.658 16.914-2.767 6.55-9.234 9.705-18.859 5.43-61.733-27.448-114.705-21.739-166.716 17.949-6.18 4.714-12.672 4.663-17.648-1.179zm4.546-14.624c-3.104 2.67-5.887 6.926-1.523 12.05 3.446 4.05 7.44 4.244 12.218.597 53.29-40.661 107.541-46.513 170.735-18.421 5.809 2.573 11.119 2.504 13.592-3.349 2.05-4.841-.19-8.794-6.655-11.763-65.241-29.907-136.077-24.048-188.367 20.886z" fill="#24272b"/></g><g><path d="m412.46 386.567c-7.771-.542-11.421-7.202-10.461-15.069 8.286-68.299 6.709-95.444-20.731-170.088-3.674-10.005-.3-15.712 5.938-18.003 10.035-3.674 15.411 3.28 18.732 13.333 21.018 63.134 33.335 98.142 19.972 178.467-1.349 8.126-6.111 11.844-13.45 11.36zm-23.886-199.431c-5.729 2.093-5.685 7.178-3.577 12.902 27.731 75.438 29.32 102.878 20.941 171.94-.664 5.477 1.293 10.249 6.794 10.627 5.442.415 8.275-2.105 9.263-8.05 13.073-78.585 1.85-111.46-19.824-176.568-2.649-8.019-6.042-13.632-13.597-10.851z" fill="#24272b"/></g><g><path d="m360.753 166.331c-7.333-9.251-18.418-23.231-41.238-36.033-14.918-8.376-53.392-27.32-88.139-22.2-.002 0-.002 0-.002 0-9.229 1.345-17.318-.875-18.46-10.054-.744-5.957 2.88-10.678 10.205-13.286 32.12-11.449 125.297 14.371 161.854 72.663 4.256 6.786 3.236 13.178-2.798 17.534-9.343 6.745-14.208.469-21.422-8.624zm-39.292-39.498c23.499 13.185 34.874 27.537 42.405 37.033 7.755 9.786 10.042 12.166 15.984 7.872 4.302-3.104 4.895-7.213 1.76-12.209-36.924-58.884-130.458-80.538-157.158-71.031-5.546 1.973-8.102 5.023-7.598 9.058.851 6.793 7.198 7.615 13.949 6.612 29.978-4.372 64.861 8.196 90.658 22.665z" fill="#24272b"/></g><g><path d="m426.513 215.347c-20.848-76.314-52.206-99.041-69.054-111.25-16.972-12.3-12.976-21.172-6.659-25.305 4.352-2.849 9.922-2.434 15.294 1.147 42.242 28.165 67.992 67.194 83.495 126.555 2.175 8.334-.161 16.041-8.573 17.786-7.186 1.505-12.518-1.68-14.503-8.933zm-73.538-133.236c-9.522 6.244-.354 13.582 6.814 18.774 17.243 12.495 49.338 35.754 70.554 113.416 1.403 5.124 4.725 7.17 9.864 6.097h.004c6.126-1.28 7.103-6.905 5.542-12.902-15.445-59.136-39.928-96.297-81.86-124.253-3.365-2.244-7.53-3.338-10.918-1.132z" fill="#24272b"/></g><g><path d="m359.408 445.141c-12.983-3.994-7.373-16.978-2.779-30.277 14.411-41.669 17.453-66.903 9.263-117.373-1.809-11.155 3.58-16.993 10.232-17.743 5.976-.643 12.616 3.124 13.836 11.666 6.841 47.935 10.968 76.872-14.871 145.411-2.742 7.273-8.34 10.557-15.681 8.316zm17.162-161.448c-4.611.517-8.166 4.339-6.763 13.162 8.209 50.569 5.376 76.474-9.426 119.307-5.532 16.002-7.887 22.705.19 25.181 5.1 1.562 8.736-.426 10.806-5.918 0-.004 0-.004 0-.004 25.483-67.582 21.406-96.138 14.654-143.449-.839-5.872-5.115-8.787-9.461-8.279z" fill="#24272b"/></g><g><path d="m227.03 503.056c-1.139-4.403.326-9.003 4.023-12.623 30.632-29.998 52.615-68.578 65.339-114.656 2.749-9.957 9.55-12.89 15.701-10.654 5.12 1.86 10.658 6.24 7.957 16.518-13.003 49.482-36.905 91.735-71.043 125.59-8.53 8.457-19.653 4.802-21.977-4.175zm73.192-126.225c-12.918 46.765-35.254 85.941-66.394 116.439-2.692 2.636-3.742 5.755-2.957 8.79 1.492 5.768 8.813 8.832 15.342 2.349 33.626-33.347 57.179-74.992 70-123.776 1.601-6.097-.14-9.841-5.476-11.782-5.439-1.965-8.991 2.442-10.515 7.98z" fill="#24272b"/></g><g><path d="m384.43 74.479c-17.015-15.391-45.494-41.149-108.091-49.594-7.957-1.07-12.104-5.566-11.995-12.995.133-8.675 9.223-12.342 16.445-11.379 51.501 7.302 94.82 28.661 128.757 63.485 5.395 5.531 5.693 11.999.822 17.735-8.237 9.718-16.449 1.331-25.938-7.252zm-116.117-62.531c-.078 5.345 2.639 8.209 8.554 9.007 63.822 8.604 92.871 34.882 110.227 50.579 10.941 9.895 15.113 13.688 20.251 7.631 3.535-4.166 3.318-8.337-.643-12.402-33.289-34.157-75.81-55.121-126.381-62.311-5.92-.287-11.915 1.577-12.008 7.496z" fill="#24272b"/></g><g><path d="m133.32 455.865c-22.924-18.295 59.834-55.48 68.921-125.985 1.291-10.015 6.093-14.581 14.214-13.523 7.333.934 11.114 6.159 10.373 14.329-.002.012-.002.019-.004.031-5.491 51.672-39.569 83.627-75.296 122.947-5.469 6.021-11.936 7.217-18.208 2.201zm80.881-135.694c-3.548 0-6.936 1.775-8.023 10.213-8.986 69.7-87.63 108.608-70.382 122.381 4.418 3.531 8.486 2.969 12.794-1.767 35.485-39.067 68.951-70.555 74.287-120.683.545-6.077-1.719-9.356-6.924-10.019-.581-.074-1.168-.125-1.752-.125zm10.651 10.337h.039z" fill="#24272b"/></g><g><path d="m70.876 251.175c-4.759-1.159-10.197-4.686-9.085-14.929.01-.089.025-.174.047-.26 9.711-39.572 14.611-81.928 40.624-117.346 6.004-8.178 11.507-14.98 18.071-15.433 8.11-.644 18.233 11.143 9.486 20.565-31.133 33.553-34.412 82.055-44.941 119.075-1.856 6.519-7.297 9.984-14.202 8.328zm-5.153-14.375c-.814 7.899 3.079 9.786 6.089 10.515 4.604 1.124 8.137-.961 9.447-5.554 10.724-37.675 13.878-86.235 45.85-120.687 5.903-6.36-1.223-14.215-6.304-13.91-4.858.337-9.937 6.732-15.146 13.825-25.453 34.659-30.409 76.95-39.936 115.811z" fill="#24272b"/></g><g><path d="m85.013 364.258c-2.106-5.073-.826-10.127 3.513-13.864 18.116-15.6 34.181-23.338 49.377-85.061 1.227-4.98 2.285-9.282 3.397-12.871 2.531-8.186 9.589-10.302 15.069-8.821 5.742 1.562 10.641 7.038 8.893 14.48-6.432 27.363-12.854 51.834-26.376 74.197-12.687 20.985-44.481 54.579-53.873 31.94zm60.078-110.626c-1.077 3.48-2.122 7.732-3.335 12.65-14.149 57.473-27.32 67.079-50.641 87.119-2.122 1.825-4.265 4.93-2.436 9.337 7.341 17.696 36.826-15.964 46.811-32.475 13.22-21.867 19.555-46.021 25.908-73.05 1.172-4.992-2.167-8.682-6.069-9.74-4.188-1.142-8.541.676-10.238 6.159z" fill="#24272b"/></g><g><path d="m124.113 58.841c-4.307-5.535-3.993-12.608 4.874-18.976 36.221-25.999 73.281-39.037 113.298-39.858 8.564-.228 14.655 4.257 14.493 12.608-.002.062-.006.128-.014.19-.868 7.503-5.806 11.414-14.677 11.623-33.089.764-68.027 13.228-98.38 35.095-8.88 6.398-15.336 4.777-19.594-.682zm118.253-54.866c-39.188.806-75.517 13.6-111.066 39.114-5.215 3.745-7.972 8.285-4.056 13.309 2.345 3.008 6.067 5.717 14.143-.093 30.996-22.332 66.727-35.064 100.607-35.847 6.912-.159 10.153-2.558 10.817-8.015.072-6.154-4.395-8.629-10.445-8.468z" fill="#24272b"/></g></g></g></g></svg>