<svg enable-background="new 0 0 512 512" viewBox="0 0 512 512" xmlns="http://www.w3.org/2000/svg"><g id="guides"/><g id="icon"><g><path d="m352 32h-192c-26.467 0-48 21.533-48 48v352c0 26.468 21.533 48 48 48h192c26.468 0 48-21.532 48-48v-352c0-26.467-21.532-48-48-48z" fill="#231f20"/><path d="m352 56h-192c-13.2 0-24 10.8-24 24v24h240v-24c0-13.2-10.8-24-24-24z" fill="#2e373f"/><path d="m352 72h-192c-13.2 0-24 10.8-24 24v8h240v-8c0-13.2-10.8-24-24-24z" fill="#7b858e"/><path d="m376 432c0 13.2-10.8 24-24 24h-192c-13.2 0-24-10.8-24-24v-328c0-13.2 10.8-24 24-24h192c13.2 0 24 10.8 24 24z" fill="#55606d"/><path d="m152 128h208v272h-208z" fill="#1c75bc"/><path d="m360 184-208 160v-216h208z" fill="#2485c6"/><g fill="#2e373f"><path d="m256 104h20c2.209 0 4 1.791 4 4s-1.791 4-4 4h-40c-2.209 0-4-1.791-4-4s1.791-4 4-4z"/><path d="m323 420h10v10h-10z"/><path d="m262 430h-12v-6l6-6 6 6z"/><path d="m190 418v12l-12-6z"/></g></g><g style="fill:none;stroke:#fff;stroke-linecap:round;stroke-linejoin:round;stroke-miterlimit:10;stroke-width:5"><path d="m192 232v-20c0-11 9-20 20-20h20"/><path d="m232 320h-20c-11 0-20-9-20-20v-20"/><path d="m320 280v20c0 11-9 20-20 20h-20"/><path d="m280 192h20c11 0 20 9 20 20v20"/><path d="m235 232v14"/><path d="m277 232v14"/><path d="m256 232v28s0 7-7 7"/><path d="m277 280.751c-11.598 9.665-30.402 9.665-42 0"/></g></g></svg>