<svg id="Capa_1" enable-background="new 0 0 512 512" height="512" viewBox="0 0 512 512" width="512" xmlns="http://www.w3.org/2000/svg"><g><path d="m209.406 147.281-15.531 15.531-15.531-15.531v-77.656l15.531-15.531 15.531 15.531z" fill="#dff6fd"/><path d="m116.219 147.281-15.531 15.531-15.532-15.531v-77.656l15.532-15.531 15.531 15.531z" fill="#dff6fd"/><path d="m58.031 473.438h178.5c19.33 0 35-15.67 35-35v-256.157c0-19.33-15.67-35-35-35h-178.5c-19.33 0-35 15.67-35 35v256.156c0 19.33 15.67 35.001 35 35.001z" fill="#e53950"/><g fill="#ca2e43"><path d="m238.181 147.32c2.148 4.536 3.35 9.608 3.35 14.961v239.288c0 28.646-23.222 51.868-51.868 51.868h-161.632c-.553 0-1.103-.013-1.65-.039 5.609 11.845 17.673 20.039 31.65 20.039h178.5c19.33 0 35-15.67 35-35v-256.156c0-18.777-14.786-34.1-33.35-34.961z"/><path d="m209.406 426.844c8.578 0 15.531-6.954 15.531-15.531v-201.907c0-8.578-6.954-15.531-15.531-15.531-8.578 0-15.531 6.954-15.531 15.531v201.906c0 8.578 6.954 15.532 15.531 15.532z"/><path d="m147.281 426.844c8.578 0 15.531-6.954 15.531-15.531v-201.907c0-8.578-6.954-15.531-15.531-15.531-8.578 0-15.531 6.954-15.531 15.531v201.906c0 8.578 6.954 15.532 15.531 15.532z"/><path d="m85.156 426.844c8.578 0 15.531-6.954 15.531-15.531v-201.907c0-8.578-6.954-15.531-15.531-15.531-8.578 0-15.531 6.954-15.531 15.531v201.906c0 8.578 6.954 15.532 15.531 15.532z"/></g><circle cx="224.938" cy="488.969" fill="#0055a3" r="15.531"/><circle cx="69.625" cy="488.969" fill="#0055a3" r="15.531"/><path d="m286.531 504.5h171.906c8.284 0 15-6.716 15-15v-89.781c0-19.33-15.67-35-35-35h-131.906c-19.33 0-35 15.67-35 35v89.781c0 8.284 6.716 15 15 15z" fill="#fd6930"/><path d="m438.438 364.719h-3.369c2.16 4.546 3.369 9.632 3.369 15v58.999c0 25.285-20.497 45.782-45.782 45.782h-121.125v5c0 8.284 6.716 15 15 15h171.906c8.284 0 15-6.716 15-15v-89.781c.001-19.33-15.669-35-34.999-35z" fill="#fd5426"/><path d="m64.094 7.5h166.375c5.523 0 10 4.477 10 10v11.062c0 5.523-4.477 10-10 10h-6.062c-8.284 0-15 6.716-15 15v16.062h-31.062v-21.062c0-5.523-4.477-10-10-10h-42.125c-5.523 0-10 4.477-10 10v21.062h-31.064v-16.062c0-8.284-6.716-15-15-15h-6.062c-5.523 0-10-4.477-10-10v-11.062c0-5.523 4.477-10 10-10z" fill="#0055a3"/><path d="m271.531 287.062h177.438c22.091 0 40-17.909 40-40v-199.562c0-22.091-17.909-40-40-40h-167.438c-5.523 0-10 4.477-10 10z" fill="#01c0fa"/><circle cx="380.25" cy="116.219" fill="#ffc344" r="62.125"/><path d="m323.125 240.469h114.25c2.761 0 5-2.239 5-5v-21.062c0-2.761-2.239-5-5-5h-114.25c-2.761 0-5 2.239-5 5v21.062c0 2.761 2.239 5 5 5z" fill="#ffc344"/><path d="m232.438 411.312v-201.906c0-12.699-10.332-23.031-23.031-23.031s-23.031 10.332-23.031 23.031v201.906c0 12.699 10.332 23.031 23.031 23.031s23.031-10.331 23.031-23.031zm-31.063 0v-201.906c0-4.429 3.603-8.031 8.031-8.031s8.031 3.603 8.031 8.031v201.906c0 4.429-3.603 8.031-8.031 8.031s-8.031-3.602-8.031-8.031z"/><path d="m170.312 411.312v-201.906c0-12.699-10.332-23.031-23.031-23.031s-23.031 10.332-23.031 23.031v201.906c0 12.699 10.332 23.031 23.031 23.031s23.031-10.331 23.031-23.031zm-31.062 0v-201.906c0-4.429 3.603-8.031 8.031-8.031s8.031 3.603 8.031 8.031v201.906c0 4.429-3.603 8.031-8.031 8.031s-8.031-3.602-8.031-8.031z"/><path d="m108.188 411.312v-201.906c0-12.699-10.332-23.031-23.031-23.031s-23.031 10.332-23.031 23.031v201.906c0 12.699 10.332 23.031 23.031 23.031s23.031-10.331 23.031-23.031zm-31.063 0v-201.906c0-4.429 3.603-8.031 8.031-8.031s8.031 3.603 8.031 8.031v201.906c0 4.429-3.603 8.031-8.031 8.031s-8.031-3.602-8.031-8.031z"/><path d="m448.969 0h-167.438c-9.649 0-17.5 7.851-17.5 17.5v132.403c-7.417-6.309-17.022-10.121-27.5-10.121h-19.625v-86.22c0-4.136 3.364-7.5 7.5-7.5h6.062c9.649 0 17.5-7.851 17.5-17.5v-11.062c0-9.649-7.851-17.5-17.5-17.5h-166.374c-9.649 0-17.5 7.851-17.5 17.5v11.062c0 9.649 7.851 17.5 17.5 17.5h6.062c4.136 0 7.5 3.364 7.5 7.5v86.219h-19.625c-23.435 0-42.5 19.065-42.5 42.5v27.125c0 4.143 3.357 7.5 7.5 7.5s7.5-3.357 7.5-7.5v-27.125c0-15.163 12.337-27.5 27.5-27.5h178.5c15.163 0 27.5 12.337 27.5 27.5v256.156c0 15.163-12.337 27.5-27.5 27.5h-178.5c-15.163 0-27.5-12.337-27.5-27.5v-194.031c0-4.143-3.357-7.5-7.5-7.5s-7.5 3.357-7.5 7.5v194.031c0 20.15 14.095 37.069 32.944 41.417-1.21 2.797-1.881 5.879-1.881 9.115 0 12.699 10.332 23.031 23.031 23.031s23.031-10.332 23.031-23.031c0-2.823-.511-5.529-1.445-8.031h112.14c-.934 2.502-1.445 5.208-1.445 8.031 0 12.699 10.332 23.031 23.031 23.031s23.031-10.332 23.031-23.031c0-3.236-.671-6.318-1.881-9.115 6.729-1.552 12.851-4.707 17.944-9.038v18.684c0 12.406 10.094 22.5 22.5 22.5h171.906c12.406 0 22.5-10.094 22.5-22.5v-89.781c0-23.435-19.065-42.5-42.5-42.5h-19.625v-13.562c0-9.649-7.851-17.5-17.5-17.5h-57.656c-9.649 0-17.5 7.851-17.5 17.5v13.562h-19.625c-10.478 0-20.083 3.812-27.5 10.121v-72.778h109.074c4.143 0 7.5-3.357 7.5-7.5s-3.357-7.5-7.5-7.5h-109.074v-262.062c0-1.379 1.121-2.5 2.5-2.5h167.438c17.921 0 32.5 14.579 32.5 32.5v199.562c0 17.921-14.579 32.5-32.5 32.5h-25.863c-4.143 0-7.5 3.357-7.5 7.5s3.357 7.5 7.5 7.5h25.863c26.191 0 47.5-21.309 47.5-47.5v-199.562c0-26.191-21.309-47.5-47.5-47.5zm-325.25 48.562c0-1.379 1.121-2.5 2.5-2.5h42.125c1.379 0 2.5 1.121 2.5 2.5v91.219h-47.125zm62.125 28.563h16.062v62.656h-16.062zm-115.688-46.063h-6.062c-1.379 0-2.5-1.121-2.5-2.5v-11.062c0-1.379 1.121-2.5 2.5-2.5h166.375c1.379 0 2.5 1.121 2.5 2.5v11.062c0 1.379-1.121 2.5-2.5 2.5h-6.062c-12.406 0-22.5 10.094-22.5 22.5v8.562h-16.062v-13.562c0-9.649-7.851-17.5-17.5-17.5h-42.125c-9.649 0-17.5 7.851-17.5 17.5v13.562h-16.064v-8.562c0-12.406-10.094-22.5-22.5-22.5zm22.5 46.063h16.062v62.656h-16.062zm-15 411.844c0 4.429-3.603 8.031-8.031 8.031s-8.031-3.603-8.031-8.031 3.603-8.031 8.031-8.031 8.031 3.602 8.031 8.031zm147.282 8.031c-4.429 0-8.031-3.603-8.031-8.031s3.603-8.031 8.031-8.031 8.031 3.603 8.031 8.031-3.603 8.031-8.031 8.031zm213.5-124.781c15.163 0 27.5 12.337 27.5 27.5v89.781c0 4.136-3.364 7.5-7.5 7.5h-39.625v-124.781zm-97.282-28.563c0-1.379 1.121-2.5 2.5-2.5h57.656c1.379 0 2.5 1.121 2.5 2.5v13.562h-62.656zm-34.625 28.563h19.625v56.131c0 4.143 3.357 7.5 7.5 7.5s7.5-3.357 7.5-7.5v-56.131h62.656v124.781h-62.656v-33.65c0-4.143-3.357-7.5-7.5-7.5s-7.5 3.357-7.5 7.5v33.65h-39.625c-4.136 0-7.5-3.364-7.5-7.5v-89.781c0-15.163 12.337-27.5 27.5-27.5z"/><path d="m380.25 185.844c38.392 0 69.625-31.233 69.625-69.625s-31.233-69.625-69.625-69.625-69.625 31.233-69.625 69.625 31.233 69.625 69.625 69.625zm-54.112-62.125h23.481c.695 15.719 3.575 30.992 8.552 42.462-16.965-7.527-29.411-23.449-32.033-42.462zm54.112-62.125c4.385 0 14.238 16.01 15.631 47.125h-31.263c1.394-31.115 11.247-47.125 15.632-47.125zm15.631 62.125c-1.394 31.115-11.246 47.125-15.631 47.125s-14.238-16.01-15.631-47.125zm6.449 42.462c4.976-11.47 7.856-26.743 8.552-42.462h23.481c-2.623 19.013-15.069 34.935-32.033 42.462zm32.032-57.462h-23.481c-.695-15.719-3.575-30.992-8.552-42.462 16.965 7.526 29.411 23.448 32.033 42.462zm-76.192-42.462c-4.976 11.47-7.856 26.743-8.552 42.462h-23.481c2.623-19.014 15.069-34.936 32.033-42.462z"/><path d="m310.625 235.469c0 6.893 5.607 12.5 12.5 12.5h114.25c6.893 0 12.5-5.607 12.5-12.5v-21.062c0-6.893-5.607-12.5-12.5-12.5h-114.25c-6.893 0-12.5 5.607-12.5 12.5zm15-18.563h109.25v16.062h-109.25z"/></g></svg>