<svg height="512" viewBox="0 0 512 512" width="512" xmlns="http://www.w3.org/2000/svg"><g id="GLYPH"><path d="m49.96436 171.65332a24.00762 24.00762 0 0 0 28.58691 6.38379l228.83154-106.78811a7.99966 7.99966 0 0 0 2.86426-12.247l-2.07666-2.59472a63.68651 63.68651 0 0 0 -81.729-15.58789l-11.19141 6.39545-84.51611-30.73339a8.00451 8.00451 0 0 0 -8.39063 1.86132l-24 24a8.00044 8.00044 0 0 0 1.41651 12.44141l51.9038 32.43945-78.81884 39.41016-28.04493-21.03418a8.00267 8.00267 0 0 0 -10.45654.74316l-16 16a8.0004 8.0004 0 0 0 -.48926 10.77832z"/><path d="m30.496 225.806h27.008v16.001h-27.008z" transform="matrix(.889 -.459 .459 .889 -102.331 46.22)"/><path d="m65.984 186.58h108.032v16.001h-108.032z" transform="matrix(.889 -.459 .459 .889 -75.877 76.709)"/><path d="m190.997 145.29h18.005v16.001h-18.005z" transform="matrix(.889 -.459 .459 .889 -48.029 108.799)"/><path d="m220.49 118.451h63.019v16.001h-63.019z" transform="matrix(.889 -.459 .459 .889 -29.929 129.662)"/><path d="m376.84473 355.57812-8.84473-17.68945-8.84473 17.68945a7.98077 7.98077 0 0 1 -4.36389 3.89942l21.20862 21.20898 20.68628-20.68652h-12.68628a7.99967 7.99967 0 0 1 -7.15527-4.42188z"/><path d="m389.65674 293.65723-8 8a8.00182 8.00182 0 0 1 -11.31348 0l-8-8a25.94094 25.94094 0 0 0 -36.68652 36.68554l13.6571 13.65723h7.74182l13.78907-27.57812a8.00009 8.00009 0 0 1 14.31054 0l13.78907 27.57812h23.74182l13.6571-13.65723a25.94094 25.94094 0 0 0 -36.68652-36.68554z"/><path d="m456 152h-40v-96a40 40 0 0 0 -80 0v96h-40a40.04552 40.04552 0 0 0 -40 40v85.26709a32.10186 32.10186 0 0 0 -3.314-3.895l-15.0293-15.0293-11.31348 11.31446 15.02881 15.02832a16.0194 16.0194 0 0 1 .00049 22.62793l-8.16651 8.166a151.00322 151.00322 0 0 1 -107.48042 44.5205h-21.72559v-21.72559a151.00382 151.00382 0 0 1 44.51953-107.48041l8.167-8.167a15.99829 15.99829 0 0 1 22.62744.001l15.0293 15.0293 11.31348-11.31446-15.02881-15.02832a31.99835 31.99835 0 0 0 -45.25537-.001l-8.16651 8.166a166.9025 166.9025 0 0 0 -49.20606 118.79489v26.41159l-59.71582 59.71537a41.94131 41.94131 0 1 0 59.31348 59.31445l30.05908-30.05859a70.73057 70.73057 0 0 1 50.34326-20.85352 72.18445 72.18445 0 0 1 10.23145.73242 48.00178 48.00178 0 1 0 91.61572 28.69116 39.81775 39.81775 0 0 0 26.15283 9.77271h1.0127a32.00443 32.00443 0 0 0 61.9746 0h34.0254a32.00443 32.00443 0 0 0 61.9746 0h1.0127a40.04552 40.04552 0 0 0 40-40v-240a40.04552 40.04552 0 0 0 -40-40zm-349.65674 290.34277-30.05908 30.0586a25.94094 25.94094 0 0 1 -36.68652-36.68555l59.71634-59.71582h26.41163a166.90312 166.90312 0 0 0 118.7939-49.206l8.167-8.167a32.071 32.071 0 0 0 3.31347-3.89433v97.52856a47.90718 47.90718 0 0 0 -70.00391 6.468 87.17875 87.17875 0 0 0 -79.65283 23.61354zm117.65674 37.65723a31.982 31.982 0 0 1 -30.25659-42.39722 71.00013 71.00013 0 0 1 24.59985 16.05445l11.31348-11.31446a86.69891 86.69891 0 0 0 -26.8689-18.27343 31.99114 31.99114 0 1 1 21.21216 55.93066zm128-424a24 24 0 0 1 48 0v96h-48zm-24 424a16 16 0 1 1 16-16 16.01833 16.01833 0 0 1 -16 16zm96 0a16 16 0 1 1 16-16 16.01833 16.01833 0 0 1 -16 16zm32-120h-36.686l-37.65722 37.65723a8.00063 8.00063 0 0 1 -11.31348 0l-37.6573-37.65723h-36.686v-16h20.686l-2.34278-2.34277a41.94131 41.94131 0 0 1 59.31348-59.31446l2.3433 2.34375 2.34326-2.34375a41.94131 41.94131 0 0 1 59.31348 59.31446l-2.34274 2.34277h20.686z"/></g></svg>