<?xml version="1.0" encoding="UTF-8"?>
<svg xmlns="http://www.w3.org/2000/svg" viewBox="0 0 512 512" width="512" height="512"><g id="GLYPH"><path d="M256,32a227.45279,227.45279,0,0,1,23.18164,1.18457l1.63672-15.916a242.89013,242.89013,0,0,0-66.18848,2.28516l2.74024,15.76367A226.19917,226.19917,0,0,1,256,32Z"/><path d="M124.69482,74.499,115.30518,61.544A239.6931,239.6931,0,0,0,16,256,237.60706,237.60706,0,0,0,40.832,362.42969L55.168,355.32617A221.7567,221.7567,0,0,1,32,256,223.68882,223.68882,0,0,1,124.69482,74.499Z"/><path d="M263.72949,479.86914l.541,15.99024A239.56123,239.56123,0,0,0,330.481,484.21582L325.519,469.00488A223.58,223.58,0,0,1,263.72949,479.86914Z"/><path d="M491.46777,263.7207l-144.187-69.35742a24.02827,24.02827,0,0,0-32.03125,11.22559L272,295.50244V216a40.04552,40.04552,0,0,0-40-40H200V48a32,32,0,0,0-64,0V176H104a40.04552,40.04552,0,0,0-40,40V424a40.067,40.067,0,0,0,26.36963,37.60547A24.00152,24.00152,0,1,0,134.62378,464h66.75244a23.99886,23.99886,0,1,0,44.25415-2.39453,40.148,40.148,0,0,0,25.36621-28.73633L383.9668,487.209a7.99345,7.99345,0,0,0,10.67724-3.74121L495.20947,274.39746A7.99993,7.99993,0,0,0,491.46777,263.7207ZM112,480a8,8,0,1,1,8-8A8.00917,8.00917,0,0,1,112,480Zm16-48H112V248h16Zm48,0H160V248h16Zm8-256H152V48a16,16,0,0,1,32,0Zm24,72h16V432H208Zm16,232a8,8,0,1,1,8-8A8.00917,8.00917,0,0,1,224,480Zm159.69287-10.67676L246.71533,403.43555a8.00069,8.00069,0,0,1-3.74121-10.67774l76.88745-159.84546a23.88317,23.88317,0,0,0,6.613,4.70777L463.4519,303.50781Z"/><path d="M309.68311,309.44043A56,56,0,1,0,384.42285,283.249,55.63288,55.63288,0,0,0,309.68311,309.44043Zm39.5205,49.77734-2.10766,1.63184-.04077-2.665a61.72245,61.72245,0,0,1,3.16333-20.36914l12.92419,6.2168A61.72726,61.72726,0,0,1,349.20361,359.21777Zm39.99366-52.99023a40.1411,40.1411,0,0,1,9.74,37.26807l-14.343-6.89893A77.75226,77.75226,0,0,0,389.23975,309Zm2.80468,51.68652a40.14186,40.14186,0,0,1-35.19507,15.65283l2.19166-1.69677a77.7579,77.7579,0,0,0,18.6604-20.85547Zm-20.90869-49.70312,2.10767-1.63184.04077,2.665a61.7253,61.7253,0,0,1-3.16358,20.37012l-12.92443-6.2168A61.72257,61.72257,0,0,1,371.09326,308.21094ZM360.21191,293.7168c1.08838,0,2.17994.05957,3.27173.1499l-2.1853,1.69189A77.75931,77.75931,0,0,0,342.63745,316.415l-14.32666-6.8916A40.13174,40.13174,0,0,1,360.21191,293.7168ZM335.70227,330.833a77.74948,77.74948,0,0,0-4.64514,27.5957l.04285,2.79883a40.08228,40.08228,0,0,1-9.74622-37.29639Z"/><rect x="314.003" y="373.01693" width="15.99936" height="80.00032" transform="translate(-189.7751 524.15819) rotate(-64.31125)"/><path d="M361.65674,126.34277a25.00157,25.00157,0,0,0-35.31348,0,8.98111,8.98111,0,0,1-12.68652,0l-2-2a56.14947,56.14947,0,0,0-79.31348,0A22.96169,22.96169,0,0,1,216,131.1123v16a38.85754,38.85754,0,0,0,27.65674-11.45507,40.12812,40.12812,0,0,1,56.68652,0l2,2a25.00157,25.00157,0,0,0,35.31348,0,8.97844,8.97844,0,0,1,12.68652,0l14.74512,14.74511A161.33968,161.33968,0,0,0,472.90186,199.8396a223.52575,223.52575,0,0,1,6.57373,40.70435l15.96289-1.0879a237.75475,237.75475,0,0,0-24.84961-91.04687L456.291,155.59082a223.08432,223.08432,0,0,1,11.71752,27.91968,145.40446,145.40446,0,0,1-91.60668-42.42261Z"/><path d="M291.82861,54.82617l133.25,81.43067a23.93027,23.93027,0,0,0,29.48584-3.50782l31.09229-31.09179a8.00063,8.00063,0,0,0,0-11.31446l-16-16a8.00131,8.00131,0,0,0-10.09424-.999L440,86.38477,403.47412,62.03418,422.3999,36.7998a8,8,0,0,0-.74316-10.457l-8-8a7.99983,7.99983,0,0,0-9.23438-1.498L360.3501,38.88086,345.54,29.99414a39.94234,39.94234,0,0,0-48.86377,6.01563l-6.333,6.333a8.00017,8.00017,0,0,0,1.48535,12.4834Z"/></g></svg>
