<svg id="Layer_1" enable-background="new 0 0 512 512" height="512" viewBox="0 0 512 512" width="512" xmlns="http://www.w3.org/2000/svg"><g><g><g><ellipse clip-rule="evenodd" cx="255.822" cy="259.528" fill="#66d4f1" fill-rule="evenodd" rx="187.807" ry="187.807" transform="matrix(.707 -.707 .707 .707 -108.586 256.908)"/></g><g><path clip-rule="evenodd" d="m24.619 332.189h98.741c4.845 0 8.796 3.952 8.796 8.797v130.792c0 4.845-3.951 8.797-8.796 8.797h-98.741c-4.845 0-8.797-3.952-8.797-8.797v-130.792c0-4.845 3.952-8.797 8.797-8.797z" fill="#937661" fill-rule="evenodd"/></g><g clip-rule="evenodd" fill-rule="evenodd"><path d="m358.919 66.316-121.291-30.195c-.492-.123-.958-.057-1.397.196l-27.819 16.061c-.604.348-.947.95-.942 1.646.006.697.359 1.292.968 1.631l86.036 47.867 51.42 2.798z" fill="#cad0d7"/><path d="m184.816 200.034-63.53-51.808c-.479-.391-.722-.935-.691-1.553.031-.617.325-1.136.841-1.477l21.004-13.927c.513-.34 1.101-.41 1.68-.202l62.374 22.48c.54.195 1.083.146 1.581-.141l219.565-126.766c36.53-21.09 108.94 7.654 39.621 47.675l-49.719 28.705c-.439.253-.729.624-.869 1.111l-46.427 161.692c-.14.487-.43.858-.868 1.112l-27.819 16.061c-.603.349-1.296.346-1.897-.007s-.94-.957-.929-1.654l2.088-131.463c.011-.687-.317-1.282-.905-1.639-.587-.357-1.266-.375-1.871-.05-19.235 10.377-130.776 69.271-153.194 51.88-.011-.01-.022-.019-.035-.029z" fill="#e4e8eb"/></g></g><path clip-rule="evenodd" d="m487.853 38.161c-6.673-11.557-37.615-16.436-56.569-5.491l-219.155 126.527c-1.785 1.03-3.933 1.223-5.872.522l-60.438-21.782-12.946 8.583 57.744 47.088c2.147 1.609 15.637 7.628 79.523-20.333 35.058-15.345 67.634-33.254 67.958-33.428 1.053-.584 2.217-.875 3.378-.875 1.252 0 2.5.339 3.61 1.002 2.138 1.289 3.43 3.618 3.391 6.112l-1.985 124.932 18.047-10.418 45.818-159.574c.5-1.741 1.656-3.223 3.227-4.131l50.111-28.93c19.424-11.212 28.458-22.355 24.158-29.804zm-80.185 122.956c17.815 27.33 27.728 58.565 28.961 91.414h-55.209zm-268.377 236.537c23.677 20.017 51.957 33.475 82.069 39.338-14.471-9.51-27.612-25.062-38.528-45.978-2.456-4.71-4.761-9.632-6.919-14.728-12.951 2.837-25.239 6.371-36.622 10.54zm-13.999-56.316c0-.974-.824-1.793-1.798-1.793h-98.74c-.974 0-1.798.819-1.798 1.793v130.795c0 .974.823 1.797 1.798 1.797h98.74c.974 0 1.798-.824 1.798-1.797zm-67.98-15.796h33.624v-21.406c0-2.334-1.897-4.23-4.23-4.23h-25.164c-2.332 0-4.229 1.896-4.229 4.23v21.406zm19.76-39.635c-.932-6.4-1.529-12.879-1.777-19.377h79.1c.673 34.807 6.352 67.99 16.392 96.505-10.948 2.484-21.474 5.468-31.496 8.926v-30.624c0-8.71-7.086-15.796-15.797-15.796h-18.557v-21.406c0-10.051-8.178-18.229-18.231-18.229h-9.634zm171.885-88.868v55.492h-80.562c.375-18.751 2.257-36.976 5.616-54.396l7.841 6.39c.04.038.082.071.126.104 6.782 5.27 21.139 9.533 66.979-7.59zm26.877-10.974c19.859-8.696 38.916-18.187 51.955-24.925 2.164-.395 4.322-.814 6.467-1.257l-1.473 92.647h-69.826v-60.998c4.084-1.674 8.368-3.49 12.877-5.467zm66.436 103.512c-2.314 25.956-7.581 49.944-15.043 70.621-20.377-3.732-42.037-5.845-64.269-6.211v-87.457h69.603l-.265 16.615c-.039 2.522 1.279 4.866 3.452 6.146 1.096.645 2.322.965 3.547.965 1.02-.001 2.032-.236 2.975-.679zm-52.01 147.481c34.793-6.71 66.07-23.415 90.699-47.018-13.696-5.637-28.812-10.267-44.945-13.806-11.72 27.664-27.537 48.891-45.754 60.824zm-100.288-63.525c18.839-3.294 38.752-5.185 58.986-5.538v65.322c-19.974-3.237-38.833-20.262-53.714-48.782-1.848-3.539-3.602-7.218-5.272-11.002zm58.985-107.003v87.461c-22.329.362-43.943 2.466-64.324 6.207-9.922-27.414-15.558-59.661-16.238-93.668zm14.001 166.782v-65.322c20.396.344 40.251 2.212 58.981 5.477-14.767 33.636-35.798 56.053-58.981 59.845zm93.982-152.162 17.046-9.839c1.569-.908 2.728-2.391 3.228-4.132l.188-.649h59.214c-1.651 43.13-18.477 82.431-45.285 112.711-15.157-6.658-32.073-12.098-50.21-16.201 8.417-23.89 13.988-51.69 15.819-81.89zm-281.64-28.619c1.535-39.192 15.869-75.585 39.019-104.839.369 1.426 1.173 2.72 2.34 3.67l45.105 36.783c-4.474 20.488-6.941 42.1-7.369 64.386zm187.658-138.846v-20.601l18.171 10.112zm-70.402 26.215c14.977-31.245 35.181-50.674 56.402-54.156v36.025l-41.011 23.678zm-51.542-15.576-10.448 6.926c-.366-.15-.726-.301-1.092-.456 24.836-24.469 56.663-41.917 92.216-48.801-16.28 10.658-30.917 28.868-42.355 53.144l-32.079-11.561c-2.083-.753-4.397-.475-6.242.748zm80.037-70.573 18.046-10.423 101.816 25.349-45.653 26.36zm249.643 26.341-47.662 27.513-10.384 36.162c24.947 33.682 38.115 73.627 38.115 115.761 0 107.417-87.39 194.809-194.806 194.809-42.227 0-83.111-13.693-116.666-38.802v56.598c0 8.71-7.086 15.797-15.797 15.797h-2.5c.189.739.299 1.506.299 2.301 0 5.134-4.163 9.298-9.3 9.298-5.135 0-9.301-4.164-9.301-9.298 0-.795.111-1.562.298-2.301h-57.732c.188.739.298 1.506.298 2.301 0 5.134-4.163 9.298-9.301 9.298-5.136 0-9.301-4.164-9.301-9.298 0-.795.11-1.562.3-2.301h-2.5c-8.711 0-15.797-7.087-15.797-15.797v-130.795c0-8.71 7.086-15.796 15.797-15.796h18.557v-21.406c0-10.051 8.178-18.229 18.23-18.229h1.386c-1.178-8.715-1.777-17.552-1.777-26.379 0-49.173 18.374-96.129 51.735-132.211 28.311-30.619 65.227-51.112 105.595-58.979l-15.028-8.357c-2.202-1.228-3.575-3.543-3.596-6.061-.02-2.522 1.318-4.861 3.5-6.122l31.189-18.003c1.572-.908 3.432-1.172 5.191-.734l118.638 29.537 65.911-38.054c24.867-14.356 64.481-8.799 75.694 10.616 5.176 8.973 8.258 27.254-29.285 48.932zm-426.338 273.537c3.866 0 7 3.138 7 7.002v92.209c0 3.868-3.134 7.002-7 7.002-3.865 0-6.999-3.134-6.999-7.002v-92.209c-.001-3.864 3.133-7.002 6.999-7.002zm59.537 0c3.866 0 7 3.138 7 7.002v92.209c0 3.868-3.134 7.002-7 7.002s-6.999-3.134-6.999-7.002v-92.209c0-3.864 3.134-7.002 6.999-7.002zm-22.768 7.002v92.209c0 3.868-3.134 7.002-7.002 7.002-3.865 0-6.999-3.134-6.999-7.002v-92.209c0-3.863 3.134-7.002 6.999-7.002 3.868 0 7.002 3.138 7.002 7.002z" fill-rule="evenodd"/></g></svg>