<svg clip-rule="evenodd" fill-rule="evenodd" height="256" image-rendering="optimizeQuality" shape-rendering="geometricPrecision" text-rendering="geometricPrecision" viewBox="0 0 72764 72764" width="256" xmlns="http://www.w3.org/2000/svg"><g id="Layer_x0020_1"><path d="m10639 66454h3649c4173 0 4173-6309 0-6309h-9885c-4173 0-4173-6309 0-6309h9684c4173 0 4173-6310 0-6310h-3478c-4173 0-4173-6309 0-6309h17323 6162 9393c4173 0 4173 6309 0 6309h-1739c-4173 0-4173 6310 0 6310h4741c4174 0 4174 6309 0 6309h-4942c-4173 0-4173 6309 0 6309h1519c4174 0 4174 6309 0 6309h-8972-6162-17293c-4174 0-4174-6309 0-6309z" fill="#ebebeb"/><path d="m29516 41217h32490c4173 0 4173 6309 0 6309h-3240c-4409 0-4799 6310 483 6310h9111c4174 0 4173 6309 0 6309h-13125c-4173 0-4173 6309 0 6309h3176c4173 0 4173 6310 0 6310h-28895l-1740-1c-4174 0-4174-6309 0-6309h1740c4201 0 4376-6309 0-6309h-7430c-4173 0-4174-6309 0-6309h5385c4621 142 5168-6310 0-6310h-3290c-4174 0-4174-6309 0-6309zm36558 25237h-18c-1735 0-3155 1420-3155 3155 0 1735 1420 3154 3155 3154h18c1736 0 3155-1419 3155-3154 0-1735-1419-3155-3155-3155z" fill="#d6d6d6"/><g id="_362885136" fill="none" stroke="#105286" stroke-width="1136.92"><path d="m10665 16640c-609-976-961-2129-961-3364 0-3518 2852-6370 6370-6370 3517 0 6369 2852 6369 6370 0 2513-1456 4686-3570 5722"/><path d="m13101 16640c-334-976-528-2129-528-3364 0-3518 1568-6370 3501-6370s3500 2852 3500 6370c0 1350-231 2603-625 3634"/><path d="m16074 6906v9734"/><path d="m22443 13276h-12738"/></g><path d="m2671 67546 676 675m1842-675-676 676m-1166 1166-676 676m1842-676 676 676" fill="none" stroke="#105286" stroke-width="1136.92"/><circle cx="30077" cy="40379" fill="#fff" r="19295"/><circle cx="30077" cy="40379" fill="#ffd027" r="17862"/><path d="m21402 47769h1441v-2855c-903-901-1783-1732-2030-3066-270-1449-496-4437-526-8083-72-8740 14212-8740 14140 0-30 3646-256 6634-525 8083-248 1334-1129 2165-2031 3066v2855h1441c4352 0 7913 3560 7913 7913v447c-3148 2232-6995 3544-11148 3544-6386 0-12046-3103-15558-7882 1364-2397 3943-4022 6883-4022z" fill="#ffb861"/><path d="m21402 47769c4027 5610 7867 5787 11910 0 4352 0 7913 3560 7913 7913v447c-3148 2232-6995 3544-11148 3544-6386 0-12046-3103-15558-7882 1364-2397 3943-4022 6883-4022z" fill="#53b4ed"/><path d="m20322 35685 76 97s3120-2470 3237-4964c0 0 4754 6611 10752 3203 13-7 25-15 38-22l2-234c72-8740-14212-8740-14140 0 6 663 18 1305 35 1920z" fill="#4d4d4d"/><path d="m14519 51791c1364-2397 3943-4022 6883-4022h1441v-2855c-903-901-1783-1732-2030-3066-270-1449-496-4437-526-8083-72-8740 14212-8740 14140 0-30 3646-256 6634-525 8083-248 1334-1129 2165-2031 3066v2855h1441c4352 0 7913 3560 7913 7913v447" fill="none" stroke="#105286" stroke-width="1136.92"/><path d="m22843 44914s4092 5711 9028 0" fill="none" stroke="#105286" stroke-width="1136.92"/><path d="m25271 59070 868-7112h2457l942 7707c-1469-40-2898-244-4267-595z" fill="#fff"/><path d="m28316 59592-716-6454h-465l-686 6193c612 117 1235 204 1867 261z" fill="#ff576b"/><path d="m28596 51958 942 7707m-4267-595 868-7112" fill="none" stroke="#105286" stroke-width="1136.92"/><path d="m22843 47769 4525 4274-4589 1538-1377-5812z" fill="#fff"/><path d="m22843 47769 4525 4274-4589 1538-1377-5812z" fill="none" stroke="#105286" stroke-width="1136.92"/><path d="m31892 47769-4524 4274 4589 1538 1376-5812z" fill="#fff"/><path d="m31892 47769-4524 4274 4589 1538 1376-5812z" fill="none" stroke="#105286" stroke-width="1136.92"/><path d="m42171 55414c-3308 2664-7515 4259-12094 4259-10656 0-19294-8638-19294-19294 0-1297 128-2563 371-3787m8138-12215c3079-2079 6790-3293 10785-3293 10657 0 19295 8638 19295 19295" fill="none" stroke="#105286" stroke-width="1136.92"/><path d="m13757 18449h1829c780 0 1419 639 1419 1419v13424c0 781-639 1419-1419 1419h-1829c781 0 1420-638 1420-1419v-13424c0-780-639-1419-1420-1419z" fill="#e6e6e6"/><path d="m53370 9964 389 525c336 453 240 1099-213 1435l-842 625 4268 2543c3535-2577 8081-4921 10165-3146 1094 2509-2468 6180-5960 8815l1195 4823 843-626c453-336 1099-240 1435 213l389 525c336 453 241 1099-213 1435l-1748 1297 1663 6708c147 592 102 1144-138 1705l-728 1705-8559-13908-11655 6019 347 2597-1163 862-1588-2973-2384-2382 1162-863 2385 1085 9141-9407-10826-12226 1842-202c607-67 1147 50 1672 363l5937 3538 1749-1297c453-337 1099-241 1435 212z" fill="#fff"/><path d="m42580 8062 10221 11543-10175 10471-2112-961 1481 1480 987 1847-306-2299 12972-6700 8081 13130 38-89c162-379 190-729 91-1129l-1809-7296 2236-1658c50-38 61-113 24-164l-389-524c-37-50-113-61-163-24l-1939 1438-1669-6730 480-362c495-374 981-760 1454-1161 1258-1063 4847-4335 4292-6362-13-9-26-17-40-24-1793-1045-5816 1326-7295 2284-520 337-1031 690-1532 1055l-486 354-5956-3549 1938-1438c50-38 62-113 25-163l-390-525c-37-50-113-61-163-24l-2235 1658-6458-3848c-354-211-697-286-1107-240z" fill="#00dcab"/><path d="m41257 31143-2384-2382 1162-863 2385 1085 9141-9407-10826-12226 1842-202c607-67 1147 50 1672 363l5937 3538 1749-1297c453-337 1099-241 1435 212l389 525c336 453 240 1099-213 1435l-842 625 4268 2543c3535-2577 8081-4921 10165-3146 1094 2509-2468 6180-5960 8815l1195 4823 843-626c453-336 1099-240 1435 213l389 525c336 453 241 1099-213 1435l-1748 1297 1663 6708c147 592 102 1144-138 1705l-728 1705-8559-13908-11655 6019 347 2597-1163 862z" fill="none" stroke="#105286" stroke-width="1136.92"/><path d="m44839 41998h10797v5598c-67-8-135-12-204-12-953 0-1726 773-1726 1727 0 953 773 1726 1726 1726 69 0 137-4 204-12v12702h-10797v-12702c67 8 135 12 204 12 953 0 1726-773 1726-1726 0-954-773-1727-1726-1727-69 0-137 4-204 12z" fill="#e6e6e6"/><path d="m44839 41998h10797v5598c-67-8-135-12-204-12-953 0-1726 773-1726 1727 0 953 773 1726 1726 1726 69 0 137-4 204-12v12702h-10797v-12702c67 8 135 12 204 12 953 0 1726-773 1726-1726 0-954-773-1727-1726-1727-69 0-137 4-204 12z" fill="none" stroke="#105286" stroke-width="1136.92"/><path d="m45975 43134v3469c1123 387 1930 1453 1930 2708 0 1254-807 2320-1930 2707v10573h8525v-10573c-1123-387-1930-1453-1930-2707 0-1255 807-2321 1930-2708v-3469z" fill="#fff"/><rect fill="#fff" height="16262" rx="1419" ry="1580" width="10604" x="4573" y="18449"/><rect fill="none" height="16262" rx="1419" ry="1580" stroke="#105286" stroke-width="1136.92" width="10604" x="4573" y="18449"/><rect fill="#53b4ed" height="13502" rx="38" width="7844" x="5953" y="19829"/><path d="m47245 43907v1909" fill="none" stroke="#105286" stroke-width="1136.92"/><path d="m49290 44861v955" fill="none" stroke="#105286" stroke-width="1136.92"/><path d="m53461 44861v955" fill="none" stroke="#105286" stroke-width="1136.92"/><path d="m47245 53474v8673" fill="none" stroke="#105286" stroke-width="1136.92"/><path d="m49290 57811v4336" fill="none" stroke="#105286" stroke-width="1136.92"/><path d="m53461 60855v1292" fill="none" stroke="#105286" stroke-width="1136.92"/><path d="m53461 57446v1293" fill="none" stroke="#105286" stroke-width="1136.92"/><path d="m49009 49574h-955m4367 0h-955m-751 0h-955" fill="none" stroke="#105286" stroke-width="1136.92"/><path d="m12185 30663h-4621" fill="none" stroke="#fff" stroke-width="1136.92"/><circle cx="9875" cy="25401" fill="#fff" r="2344"/><g stroke="#105286"><path d="m13757 18449h1829c780 0 1419 639 1419 1419v13424c0 781-639 1419-1419 1419h-1829" fill="none" stroke-width="1136.92"/><path d="m40268 11635-4794 3738" fill="none" stroke-width="1136.92"/><path d="m41699 13956-2397 1869" fill="none" stroke-width="1136.92"/><path d="m59323 36112-4794 3738" fill="none" stroke-width="1136.92"/><path d="m57323 34247-2398 1869" fill="none" stroke-width="1136.92"/><path d="m67546 1846 676 676m1842-676-676 676m-1166 1166-676 676m1842-676 676 676" fill="none" stroke-width="1136.92"/><path d="m67546 62912 676 676m1842-676-676 676m-1166 1166-676 676m1842-676 676 676" fill="none" stroke-width="1136.92"/><path d="m67546 43641 676 676m1842-676-676 676m-1166 1166-676 676m1842-676 676 676" fill="none" stroke-width="1136.92"/><circle cx="63864" cy="52472" fill="none" r="1417" stroke-width="1136.92"/><circle cx="54655" cy="4124" fill="none" r="1417" stroke-width="1136.92"/><path d="m35123 1846 676 676m1842-676-676 676m-1166 1166-676 676m1842-676 676 676" fill="none" stroke-width="1136.92"/><path d="m2671 1846 676 676m1842-676-676 676m-1166 1166-676 676m1842-676 676 676" fill="none" stroke-width="1136.92"/><path d="m2671 37531 676 675m1842-675-676 676m-1166 1166-676 676m1842-676 676 676" fill="none" stroke-width="1136.92"/><circle cx="4005" cy="12427" fill="none" r="1417" stroke-width="1136.92"/><circle cx="5199" cy="49605" fill="none" r="1417" stroke-width="1136.92"/><path d="m10885 57143 676 676m1842-676-676 676m-1166 1166-676 676m1842-676 676 676" fill="none" stroke-width="1136.92"/><circle cx="23840" cy="64101" fill="none" r="1417" stroke-width="1136.92"/><path d="m34502 62912 676 676m1842-676-676 676m-1166 1166-676 676m1842-676 676 676" fill="none" stroke-width="1136.92"/><circle cx="24240" cy="4501" fill="none" r="1417" stroke-width="1136.92"/><path d="m27261 14021 676 676m1842-676-676 676m-1166 1166-676 676m1842-676 676 676" fill="none" stroke-width="1136.92"/><circle cx="67952" cy="22373" fill="none" r="1417" stroke-width="1136.92"/><path d="m21272 9742c-1581 406-3342 633-5198 633s-3617-227-5199-633" fill="none" stroke-width="1136.92"/></g></g><g id="Layer_x0020_2" fill="none"><path d="m0 0h72764v72764h-72764z"/><path d="m0 0h72764v72764h-72764z"/></g></svg>