<svg height="512" viewBox="0 0 256 256" width="512" xmlns="http://www.w3.org/2000/svg"><g id="Layer_84"><g><g><g><path d="m57.073 217.64h-29.32c-8.258 0-15.014 6.756-15.014 15.014v17.81c0 1.677 1.36 3.037 3.037 3.037h53.274c1.677 0 3.037-1.359 3.037-3.037v-17.81c0-8.258-6.756-15.014-15.014-15.014z" fill="#70d6f9"/></g></g><g><g><path d="m116.42 217.64h-29.319c-8.258 0-15.014 6.756-15.014 15.014v17.81c0 1.677 1.36 3.037 3.037 3.037h53.274c1.677 0 3.037-1.359 3.037-3.037v-17.81c-.001-8.258-6.757-15.014-15.015-15.014z" fill="#5290db"/></g></g><g><g><path d="m175.767 217.64h-29.32c-8.258 0-15.014 6.756-15.014 15.014v17.81c0 1.677 1.36 3.037 3.037 3.037h53.274c1.677 0 3.037-1.359 3.037-3.037v-17.81c0-8.258-6.756-15.014-15.014-15.014z" fill="#f5c84c"/></g></g><g><g><path d="m143.897 196.868c0-6.318 3.415-11.826 8.49-14.82-1.919-.895-4.046-1.409-6.293-1.409h-29.319c-2.247 0-4.375.514-6.293 1.409 5.075 2.994 8.49 8.501 8.49 14.82 0 9.505-7.705 17.21-17.211 17.21v3.561h14.66c8.258 0 15.014 6.756 15.014 15.014 0-8.258 6.756-15.014 15.014-15.014h14.66v-3.561c-9.507.001-17.212-7.705-17.212-17.21z" fill="#87d147"/></g></g><g><g><path d="m84.55 196.868c0-6.318 3.415-11.826 8.49-14.82-1.919-.895-4.047-1.409-6.293-1.409h-29.32c-2.247 0-4.375.514-6.293 1.409 5.075 2.994 8.49 8.501 8.49 14.82 0 9.505-7.705 17.21-17.211 17.21v3.561h14.66c8.258 0 15.014 6.756 15.014 15.014 0-8.258 6.756-15.014 15.014-15.014h14.66v-3.561c-9.506.001-17.211-7.705-17.211-17.21z" fill="#f98fa6"/></g></g><g><g><path d="m42.413 179.657c-9.505 0-17.211 7.706-17.211 17.211s7.705 17.21 17.211 17.21 17.211-7.706 17.211-17.21c0-9.505-7.706-17.211-17.211-17.211z" fill="#f9d0b4"/></g></g><g><g><path d="m101.76 179.657c-9.505 0-17.211 7.706-17.211 17.211s7.706 17.21 17.211 17.21 17.211-7.706 17.211-17.21c0-9.505-7.706-17.211-17.211-17.211z" fill="#f9d0b4"/></g></g><g><g><path d="m131.434 142.657c-9.505 0-17.211 7.706-17.211 17.211s7.706 17.21 17.211 17.21 17.211-7.706 17.211-17.21c0-9.505-7.706-17.211-17.211-17.211z" fill="#f9d0b4"/></g></g><g><g><path d="m72.087 142.657c-9.505 0-17.211 7.706-17.211 17.211s7.706 17.21 17.211 17.21 17.211-7.706 17.211-17.21c-.001-9.505-7.706-17.211-17.211-17.211z" fill="#f9d0b4"/></g></g><g><g><path d="m161.107 179.657c-9.505 0-17.211 7.706-17.211 17.211s7.705 17.21 17.211 17.21c9.505 0 17.211-7.706 17.211-17.21 0-9.505-7.705-17.211-17.211-17.211z" fill="#f9d0b4"/></g></g><g><g><path d="m135.071 50.5h-9.122c-3.266 0-5.939 2.672-5.939 5.939v9.122c0 3.267 2.672 5.939 5.939 5.939h9.122c3.266 0 5.939-2.672 5.939-5.939v-9.122c0-3.267-2.672-5.939-5.939-5.939z" fill="#f9d0b4"/></g></g><g><g><path d="m240.747 109.035c-.218-3.914-2.956-7.231-6.757-8.188l-12.29-3.094c-6.514-1.64-11.636-4.449-11.57-4.416-2.678-1.32-4.374-4.047-4.374-7.033v-3.694c-3.135 1.641-6.691 2.576-10.458 2.576-3.766 0-7.323-.935-10.457-2.576v3.711c0 2.991-1.707 5.719-4.396 7.027-5.959 2.899-12.499 4.405-19.125 4.405h-20.115c-1.075 0-1.946-.872-1.946-1.946v-26.047c-1.076 1.074-2.558 1.74-4.189 1.74h-9.123c-1.392 0-2.673-.488-3.689-1.298v28.974c0 8.477 6.848 15.361 15.324 15.407l18.946.15c4.281.023 7.739 3.5 7.739 7.78v29.45c0 1.644 1.333 2.977 2.977 2.977h73.524c1.43 0 2.566-1.201 2.486-2.628z" fill="#fca265"/></g></g><g><g><path d="m156.529 19.232-21.019-10.509v25.555l21.019-10.51c1.869-.935 1.869-3.601 0-4.536z" fill="#fc657e"/></g></g><g><g><path d="m130.51 2.5c-2.762 0-5 2.238-5 5v43.022c.145-.011.291-.022.439-.022h9.123c.148 0 .293.012.439.022v-43.022c-.001-2.762-2.239-5-5.001-5z" fill="#d8a380"/></g></g><g><g><path d="m135.072 71.5h-9.123c-.148 0-.293-.012-.439-.022v6.022c0 2.762 2.238 5 5 5s5-2.238 5-5v-6.022c-.145.01-.29.022-.438.022z" fill="#d8a380"/></g></g><g><g><path d="m210.131 93.337c-2.678-1.32-4.374-4.047-4.374-7.033v-3.694c-3.135 1.641-6.691 2.576-10.458 2.576-3.766 0-7.323-.935-10.457-2.576v3.711c0 2.991-1.707 5.719-4.396 7.027-.303.147-.614.275-.92.416 4.092 3.967 9.658 6.422 15.773 6.422 6.095 0 11.645-2.439 15.734-6.384-.595-.295-.919-.473-.902-.465z" fill="#f9d0b4"/></g></g><g><g><path d="m204.58 120.131h-18.561c-1.415 0-2.562 1.147-2.562 2.563v20.033c0 1.416 1.147 2.563 2.562 2.563h18.561c1.415 0 2.562-1.147 2.562-2.563v-20.033c0-1.416-1.147-2.563-2.562-2.563z" fill="#edf4fc"/></g></g><g><g><path d="m204.58 120.131h-18.561c-1.415 0-2.562 1.147-2.562 2.563v7.807h23.686v-7.807c-.001-1.416-1.148-2.563-2.563-2.563z" fill="#70d6f9"/></g></g><g><g><path d="m42.9 148.2c-3.1-.6-5.6-3-6.2-6.1 0-.1-.3-.1-.3 0-.6 3.1-3.1 5.5-6.2 6.1-.1 0-.1.2 0 .3 3.1.6 5.6 3 6.2 6.1 0 .1.3.1.3 0 .6-3.1 3.1-5.5 6.2-6.1.1-.1.1-.3 0-.3z" fill="#87d147"/></g></g><g><g><path d="m222 201.5h-2.4v-2.3c0-1.8-1.4-3.2-3.2-3.2-1.7 0-3.2 1.4-3.2 3.1v2.4h-2.3c-1.8 0-3.2 1.4-3.2 3.2-.1 1.7 1.3 3.2 3.2 3.2h2.3v2.3c0 1.8 1.4 3.2 3.2 3.2 1.7 0 3.2-1.4 3.2-3.1v-2.4h2.3c1.8 0 3.2-1.4 3.2-3.2 0-1.7-1.4-3.2-3.1-3.2z" fill="#70d6f9"/></g></g><g><g><path d="m207.3 229c-1.878 0-3.4 1.522-3.4 3.4s1.522 3.4 3.4 3.4 3.4-1.522 3.4-3.4-1.522-3.4-3.4-3.4z" fill="#f5c84c"/></g></g><g><g><path d="m105.3 0c-1.878 0-3.4 1.522-3.4 3.4s1.522 3.4 3.4 3.4 3.4-1.522 3.4-3.4-1.522-3.4-3.4-3.4z" fill="#fc657e"/></g></g><g><g><path d="m97.9 24.7c-4.5-.8-8-4.3-8.9-8.7 0-.2-.4-.2-.4 0-.9 4.4-4.4 7.9-8.9 8.7-.2 0-.2.3 0 .4 4.5.8 8 4.3 8.9 8.7 0 .2.4.2.4 0 .9-4.4 4.4-7.9 8.9-8.7.2-.1.2-.4 0-.4z" fill="#f5c84c"/></g></g><g><g><path d="m214.756 35.337c-1.484-1.557-3.897-1.7-5.589-.372-2.675 2.1-7.304 4.695-13.842 4.695-6.554 0-11.207-2.608-13.893-4.71-1.69-1.323-4.099-1.175-5.58.379l-.008.008c-2.081 2.183-3.243 5.083-3.243 8.1v19.05c0 12.484 10.214 22.699 22.699 22.699 12.484 0 22.699-10.215 22.699-22.699v-19.05c-.001-3.017-1.162-5.917-3.243-8.1z" fill="#f9d0b4"/></g></g><g><g><path d="m219.455 45.187c-.496 0-.982.042-1.457.115v17.184c0 .512-.023 1.019-.057 1.522.494.08.997.132 1.514.132 5.234 0 9.477-4.243 9.477-9.477s-4.243-9.476-9.477-9.476z" fill="#f9d0b4"/></g></g><g><g><path d="m172.6 62.486v-17.184c-.475-.074-.961-.115-1.457-.115-5.234 0-9.477 4.243-9.477 9.477s4.243 9.477 9.477 9.477c.517 0 1.02-.053 1.514-.132-.033-.504-.057-1.011-.057-1.523z" fill="#f9d0b4"/></g></g><g><g><path d="m217.914 25.824c-.76 0-1.419-.586-1.43-1.346-.174-12.648-14.618-15.024-29.002-12.541-12.195 2.106-21.109 12.681-21.109 25.057v9.49c1.402-.82 3.029-1.297 4.771-1.297.496 0 .982.042 1.457.115v-1.866c0-3.016 1.161-5.917 3.243-8.1l.008-.008c1.481-1.554 3.89-1.702 5.58-.379 2.687 2.102 7.34 4.71 13.893 4.71 6.538 0 11.167-2.596 13.842-4.695 1.692-1.328 4.105-1.185 5.589.372 2.082 2.183 3.243 5.083 3.243 8.1v1.866c.475-.074.961-.115 1.457-.115 1.763 0 3.407.49 4.821 1.328 0-2.648 0-5.369 0-7.792-.001-11.326-4.091-12.899-6.363-12.899z" fill="#5b5d60"/></g></g><g><g><g><path d="m216.565 33.611c-2.372-2.486-6.216-2.752-8.943-.612-2.418 1.898-6.514 4.161-12.298 4.161-5.797 0-9.917-2.272-12.353-4.179-2.723-2.13-6.562-1.863-8.938.63-2.536 2.66-3.933 6.149-3.933 9.825v19.05c0 13.895 11.305 25.199 25.199 25.199s25.198-11.305 25.198-25.199v-19.05c.001-3.675-1.395-7.165-3.932-9.825zm-1.067 28.875c0 11.138-9.061 20.199-20.198 20.199s-20.199-9.062-20.199-20.199v-19.05c0-2.385.906-4.648 2.56-6.382.317-.333.744-.503 1.178-.503.366 0 .738.121 1.052.367 3.056 2.391 8.213 5.241 15.435 5.241 7.213 0 12.349-2.844 15.385-5.229.688-.541 1.651-.484 2.237.131 1.646 1.726 2.552 3.989 2.552 6.374v19.051z"/></g></g></g><g><g><path d="m219.455 42.687c-.315 0-.628.014-.937.038-1.376.111-2.401 1.317-2.291 2.693s1.315 2.393 2.693 2.291c.176-.015.354-.022.534-.022 3.847 0 6.977 3.13 6.977 6.978 0 3.847-3.13 6.977-6.977 6.977-.195 0-.387-.011-.576-.029-1.388-.146-2.6.864-2.737 2.237-.138 1.374.864 2.6 2.237 2.737.355.036.713.055 1.076.055 6.604 0 11.977-5.373 11.977-11.977.001-6.605-5.372-11.978-11.976-11.978z"/></g></g><g><g><path d="m174.542 63.822c-.147-1.371-1.372-2.357-2.753-2.218-.212.022-.427.036-.646.036-3.847 0-6.977-3.13-6.977-6.977 0-3.848 3.13-6.978 6.977-6.978.215 0 .427.012.636.031 1.381.127 2.595-.877 2.726-2.251.132-1.375-.877-2.595-2.251-2.726-.365-.035-.735-.055-1.11-.055-6.604 0-11.977 5.373-11.977 11.978 0 6.604 5.373 11.977 11.977 11.977.398 0 .793-.023 1.181-.065 1.371-.146 2.364-1.379 2.217-2.752z"/></g></g><g><g><path d="m203.386 66.565c-1.058-.886-2.634-.749-3.522.31-.9 1.074-2.522 1.742-4.233 1.742s-3.334-.668-4.234-1.742c-.889-1.06-2.465-1.197-3.522-.31s-1.196 2.464-.31 3.522c1.854 2.21 4.869 3.529 8.066 3.529s6.212-1.319 8.065-3.529c.886-1.058.747-2.634-.31-3.522z"/></g></g><g><g><path d="m205.87 52.662c-1.684 0-3.05 1.365-3.05 3.049 0 1.685 1.365 3.05 3.05 3.05s3.05-1.365 3.05-3.05c0-1.684-1.366-3.049-3.05-3.049z"/></g></g><g><g><path d="m185.389 52.662c-1.684 0-3.05 1.365-3.05 3.049 0 1.685 1.365 3.05 3.05 3.05s3.05-1.365 3.05-3.05c0-1.684-1.366-3.049-3.05-3.049z"/></g></g><g><g><path d="m218.94 23.391c-.292-4.157-1.979-7.542-5.025-10.071-7.359-6.111-19.985-5.031-26.858-3.846-13.434 2.319-23.184 13.894-23.184 27.521v8.986c0 1.381 1.119 2.5 2.5 2.5s2.5-1.119 2.5-2.5v-8.986c0-11.188 8.005-20.689 19.035-22.594 10.25-1.771 18.564-.763 22.813 2.765 2.152 1.787 3.221 4.19 3.264 7.345.027 2.103 1.79 3.813 3.93 3.813 2.418 0 3.861 3.888 3.861 10.399v7.419c0 1.381 1.119 2.5 2.5 2.5s2.5-1.119 2.5-2.5v-7.419c-.001-12.089-4.521-14.9-7.836-15.332z"/></g></g><g><g><path d="m225.598 116.274c-1.381 0-2.5 1.119-2.5 2.5v35.685c0 1.381 1.119 2.5 2.5 2.5s2.5-1.119 2.5-2.5v-35.685c0-1.38-1.119-2.5-2.5-2.5z"/></g></g><g><g><g><path d="m135.071 48h-9.122c-4.653 0-8.438 3.785-8.438 8.438v9.123c0 4.653 3.785 8.438 8.438 8.438h9.122c4.653 0 8.439-3.785 8.439-8.438v-9.123c.001-4.653-3.785-8.438-8.439-8.438zm3.44 17.562c0 1.896-1.543 3.438-3.439 3.438h-9.122c-1.896 0-3.438-1.543-3.438-3.438v-9.123c0-1.896 1.543-3.438 3.438-3.438h9.122c1.896 0 3.439 1.543 3.439 3.438z"/></g></g></g><g><g><path d="m184.842 80.782c-1.381 0-2.5 1.119-2.5 2.5v3.039c0 2.02-1.174 3.895-2.989 4.778-5.586 2.717-11.821 4.153-18.031 4.153h-19.561v-25.123c0-1.381-1.119-2.5-2.5-2.5s-2.5 1.119-2.5 2.5v25.678c0 2.452 1.994 4.446 4.446 4.446h20.114c6.963 0 13.955-1.61 20.219-4.657 3.524-1.715 5.802-5.355 5.802-9.274v-3.039c0-1.382-1.119-2.501-2.5-2.501z"/></g></g><g><g><path d="m243.243 108.896c-.281-5.034-3.755-9.243-8.644-10.475l-12.289-3.093c-5.934-1.493-10.689-4.027-10.946-4.166-.042-.023-.085-.046-.128-.067-1.838-.906-2.979-2.742-2.979-4.791v-3.051c0-1.381-1.119-2.5-2.5-2.5s-2.5 1.119-2.5 2.5v3.051c0 3.921 2.159 7.438 5.644 9.213.688.431 1.787.933 3.597 1.714 1.984.857 5.086 2.064 8.593 2.947l12.289 3.093c2.756.693 4.714 3.066 4.872 5.909l2.52 43.26h-73.524c-.263 0-.477-.214-.477-.477v-29.449c0-5.639-4.587-10.25-10.219-10.281l-18.952-.15c-7.079-.037-12.838-5.827-12.838-12.906v-28.485c0-1.381-1.119-2.5-2.5-2.5s-2.5 1.119-2.5 2.5v28.483c0 9.821 7.99 17.854 17.805 17.906l18.952.15c2.896.016 5.252 2.385 5.252 5.281v29.449c0 3.02 2.457 5.477 5.477 5.477h73.524c1.365 0 2.687-.568 3.625-1.561s1.433-2.343 1.357-3.713z"/></g></g><g><g><path d="m211.771 92.481c-1.331-.346-2.701.452-3.049 1.791l-6.563 25.229c-.347 1.336.454 2.701 1.791 3.049.211.055.422.081.631.081 1.11 0 2.125-.746 2.418-1.872l6.563-25.229c.347-1.336-.454-2.701-1.791-3.049z"/></g></g><g><g><path d="m188.438 119.502-6.563-25.229c-.348-1.337-1.715-2.136-3.049-1.791-1.337.348-2.138 1.713-1.791 3.049l6.563 25.229c.293 1.126 1.308 1.872 2.418 1.872.209 0 .42-.026.631-.081 1.337-.348 2.138-1.713 1.791-3.049z"/></g></g><g><g><g><path d="m42.413 177.157c-10.868 0-19.711 8.843-19.711 19.711s8.843 19.711 19.711 19.711 19.711-8.843 19.711-19.711-8.843-19.711-19.711-19.711zm0 34.422c-8.111 0-14.711-6.6-14.711-14.711s6.6-14.711 14.711-14.711 14.711 6.6 14.711 14.711-6.6 14.711-14.711 14.711z"/></g></g></g><g><g><g><path d="m57.073 215.14h-29.319c-9.657 0-17.515 7.856-17.515 17.514v17.81c0 3.053 2.484 5.537 5.537 5.537h53.274c3.053 0 5.537-2.484 5.537-5.537v-17.81c0-9.658-7.857-17.514-17.514-17.514zm12.514 35.323c0 .296-.241.537-.537.537h-53.274c-.296 0-.537-.241-.537-.537v-17.81c0-6.9 5.614-12.514 12.515-12.514h29.319c6.9 0 12.514 5.613 12.514 12.514z"/></g></g></g><g><g><path d="m59.928 231.965c-1.381 0-2.5 1.119-2.5 2.5v17.616c0 1.381 1.119 2.5 2.5 2.5s2.5-1.119 2.5-2.5v-17.616c0-1.381-1.119-2.5-2.5-2.5z"/></g></g><g><g><path d="m24.898 231.965c-1.381 0-2.5 1.119-2.5 2.5v17.616c0 1.381 1.119 2.5 2.5 2.5s2.5-1.119 2.5-2.5v-17.616c0-1.381-1.119-2.5-2.5-2.5z"/></g></g><g><g><g><path d="m101.761 177.157c-10.868 0-19.711 8.843-19.711 19.711s8.843 19.711 19.711 19.711 19.71-8.843 19.71-19.711-8.842-19.711-19.71-19.711zm0 34.422c-8.111 0-14.711-6.6-14.711-14.711s6.6-14.711 14.711-14.711 14.71 6.6 14.71 14.711-6.599 14.711-14.71 14.711z"/></g></g></g><g><g><g><path d="m116.42 215.14h-29.319c-9.657 0-17.514 7.856-17.514 17.514v17.81c0 3.053 2.483 5.537 5.536 5.537h53.274c3.053 0 5.536-2.484 5.536-5.537v-17.81c.001-9.658-7.856-17.514-17.513-17.514zm12.514 35.323c0 .296-.24.537-.536.537h-53.275c-.296 0-.536-.241-.536-.537v-17.81c0-6.9 5.613-12.514 12.514-12.514h29.319c6.9 0 12.514 5.613 12.514 12.514z"/></g></g></g><g><g><path d="m119.275 231.965c-1.381 0-2.5 1.119-2.5 2.5v17.616c0 1.381 1.119 2.5 2.5 2.5s2.5-1.119 2.5-2.5v-17.616c0-1.381-1.119-2.5-2.5-2.5z"/></g></g><g><g><path d="m84.246 231.965c-1.381 0-2.5 1.119-2.5 2.5v17.616c0 1.381 1.119 2.5 2.5 2.5s2.5-1.119 2.5-2.5v-17.616c0-1.381-1.119-2.5-2.5-2.5z"/></g></g><g><g><g><path d="m131.434 140.157c-10.868 0-19.71 8.843-19.71 19.711s8.842 19.711 19.71 19.711 19.711-8.843 19.711-19.711-8.843-19.711-19.711-19.711zm0 34.422c-8.111 0-14.71-6.6-14.71-14.711s6.599-14.711 14.71-14.711 14.711 6.6 14.711 14.711-6.6 14.711-14.711 14.711z"/></g></g></g><g><g><g><path d="m72.087 140.157c-10.868 0-19.711 8.843-19.711 19.711s8.843 19.711 19.711 19.711 19.711-8.843 19.711-19.711-8.843-19.711-19.711-19.711zm0 34.422c-8.111 0-14.711-6.6-14.711-14.711s6.6-14.711 14.711-14.711 14.711 6.6 14.711 14.711-6.6 14.711-14.711 14.711z"/></g></g></g><g><g><g><path d="m161.107 177.157c-10.868 0-19.711 8.843-19.711 19.711s8.843 19.711 19.711 19.711 19.711-8.843 19.711-19.711-8.842-19.711-19.711-19.711zm0 34.422c-8.111 0-14.711-6.6-14.711-14.711s6.6-14.711 14.711-14.711 14.711 6.6 14.711 14.711-6.599 14.711-14.711 14.711z"/></g></g></g><g><g><g><path d="m175.767 215.14h-29.319c-9.657 0-17.514 7.856-17.514 17.514v17.81c0 3.053 2.484 5.537 5.537 5.537h53.273c3.053 0 5.537-2.484 5.537-5.537v-17.81c0-9.658-7.857-17.514-17.514-17.514zm12.514 35.323c0 .296-.241.537-.537.537h-53.273c-.296 0-.537-.241-.537-.537v-17.81c0-6.9 5.613-12.514 12.514-12.514h29.319c6.9 0 12.515 5.613 12.515 12.514v17.81z"/></g></g></g><g><g><path d="m178.622 231.965c-1.381 0-2.5 1.119-2.5 2.5v17.616c0 1.381 1.119 2.5 2.5 2.5s2.5-1.119 2.5-2.5v-17.616c0-1.381-1.119-2.5-2.5-2.5z"/></g></g><g><g><path d="m143.593 231.965c-1.381 0-2.5 1.119-2.5 2.5v17.616c0 1.381 1.119 2.5 2.5 2.5s2.5-1.119 2.5-2.5v-17.616c0-1.381-1.119-2.5-2.5-2.5z"/></g></g><g><g><path d="m152.817 179.505c-2.153-.906-4.416-1.365-6.724-1.365h-29.319c-2.373 0-4.694.484-6.9 1.44-1.267.549-1.849 2.021-1.3 3.288.409.943 1.329 1.507 2.295 1.507.332 0 .669-.066.993-.207 1.574-.683 3.228-1.028 4.912-1.028h29.319c1.639 0 3.248.328 4.784.975 1.271.534 2.738-.063 3.274-1.335.537-1.273-.061-2.739-1.334-3.275z"/></g></g><g><g><path d="m93.756 179.628c-2.237-.987-4.596-1.488-7.01-1.488h-29.319c-2.376 0-4.701.486-6.91 1.445-1.267.549-1.848 2.021-1.298 3.288.548 1.266 2.021 1.846 3.288 1.298 1.577-.685 3.232-1.031 4.92-1.031h29.319c1.714 0 3.394.357 4.99 1.063.329.145.671.214 1.009.214.96 0 1.876-.557 2.288-1.491.558-1.265-.014-2.74-1.277-3.298z"/></g></g><g><g><path d="m157.647 16.996-20.6-10.3c-1.237-.619-2.736-.117-3.354 1.118-.617 1.235-.116 2.736 1.118 3.354l20.6 10.362-20.582 10.291c-1.234.618-1.735 2.119-1.118 3.354.438.876 1.321 1.383 2.238 1.383.376 0 .757-.086 1.116-.265l20.581-10.291c1.718-.858 2.784-2.584 2.784-4.504s-1.066-3.644-2.783-4.502z"/></g></g><g><g><path d="m130.511 0c-4.136 0-7.5 3.364-7.5 7.5v42.583c0 1.381 1.119 2.5 2.5 2.5s2.5-1.119 2.5-2.5v-42.583c0-1.379 1.121-2.5 2.5-2.5s2.5 1.121 2.5 2.5v42.583c0 1.381 1.119 2.5 2.5 2.5s2.5-1.119 2.5-2.5v-42.583c0-4.136-3.365-7.5-7.5-7.5z"/></g></g><g><g><path d="m135.511 69.71c-1.381 0-2.5 1.119-2.5 2.5v5.29c0 1.379-1.121 2.5-2.5 2.5s-2.5-1.121-2.5-2.5v-5.332c0-1.381-1.119-2.5-2.5-2.5s-2.5 1.119-2.5 2.5v5.332c0 4.136 3.364 7.5 7.5 7.5s7.5-3.364 7.5-7.5v-5.29c0-1.381-1.119-2.5-2.5-2.5z"/></g></g><g><g><path d="m212.497 92.459c-.936-1.014-2.518-1.079-3.533-.143-3.752 3.463-8.605 5.369-13.664 5.369-5.075 0-9.938-1.916-13.692-5.395-1.015-.938-2.595-.877-3.533.135-.938 1.013-.878 2.595.135 3.533 4.682 4.338 10.752 6.727 17.091 6.727 6.319 0 12.376-2.377 17.055-6.693 1.013-.936 1.077-2.518.141-3.533z"/></g></g><g><g><g><path d="m204.58 117.631h-18.562c-2.791 0-5.063 2.271-5.063 5.063v20.033c0 2.791 2.271 5.062 5.063 5.062h18.562c2.791 0 5.063-2.271 5.063-5.062v-20.033c0-2.792-2.272-5.063-5.063-5.063zm0 25.157h-18.562l-.063-.062.063-20.096 18.624.063z"/></g></g></g><g><g><path d="m206.417 128h-22.167c-1.381 0-2.5 1.119-2.5 2.5s1.119 2.5 2.5 2.5h22.167c1.381 0 2.5-1.119 2.5-2.5s-1.119-2.5-2.5-2.5z"/></g></g></g></g></svg>