<svg id="Capa_1" enable-background="new 0 0 512 512" height="512" viewBox="0 0 512 512" width="512" xmlns="http://www.w3.org/2000/svg"><g><g><g><g><path d="m198.888 169.493h123.254v38.195h-123.254z" fill="#627ad1" transform="matrix(.617 -.787 .787 .617 -48.67 277.128)"/></g><path d="m292.079 135.023v16.872l-67.891 86.525 13.309 10.443 76.085-96.968z" fill="#4f66d0"/><path d="m237.497 248.863-30.049-23.578-15.798 20.134c-4.172 5.317-3.244 13.01 2.073 17.182l5.911 4.638c4.607 3.615 11.106 3.546 15.636-.165z" fill="#ffdfcf"/><path d="m207.448 225.285-8.194 10.443 16.74 13.135-11.319 9.268c-3.931 3.22-9.344 3.694-13.717 1.401.725 1.141 1.641 2.188 2.765 3.07l5.911 4.638c4.607 3.615 11.106 3.546 15.636-.165l22.227-18.211z" fill="#ffcebf"/></g><path d="m381.588 139.15v114.25h-99.86v-114.25c0-18.76 15.21-33.97 33.97-33.97h31.91c18.77 0 33.98 15.21 33.98 33.97z" fill="#627ad1"/><path d="m347.612 105.176h-24.484c18.763 0 33.973 15.21 33.973 33.973v114.255h24.484v-114.255c0-18.763-15.21-33.973-33.973-33.973z" fill="#4f66d0"/><g><path d="m381.588 185.86v38.19h-27.35c-17.25 0-32.97-10.17-40.04-25.92l-17.62-39.39c-4.3-9.63.01-20.93 9.64-25.23 2.54-1.13 5.19-1.67 7.79-1.67 7.3 0 14.26 4.21 17.44 11.3l17.61 39.38c.91 2.02 2.95 3.34 5.18 3.34z" fill="#4f66d0"/></g><g><g><path d="m446.082 224.054h-70.336c-17.259 0-32.976-10.175-40.041-25.923l-17.619-39.395c-4.306-9.628.008-20.924 9.636-25.23 9.628-4.306 20.924.008 25.23 9.636l17.611 39.375c.908 2.023 2.946 3.342 5.184 3.342h70.336v38.195z" fill="#627ad1"/></g><path d="m446.082 185.859v38.195h25.593c6.759 0 12.237-5.479 12.237-12.238v-7.513c0-5.856-4.066-10.926-9.782-12.199z" fill="#ffcebf"/><g fill="#4f66d0"><path d="m331.448 143.142 17.611 39.375c.908 2.023 2.946 3.342 5.184 3.342h21.503c-2.238 0-4.276-1.32-5.184-3.342l-17.611-39.375c-4.306-9.628-15.602-13.942-25.23-9.636-1.055.472-2.035 1.042-2.958 1.67 2.828 1.925 5.186 4.614 6.685 7.966z"/><path d="m424.579 185.859h21.503v38.195h-21.503z"/></g></g><path d="m369.432 33.535v33.358c0 21.146-17.14 38.276-38.276 38.276-10.568 0-20.135-4.287-27.067-11.209-6.922-6.922-11.209-16.499-11.209-27.067v-33.358c0-14.385 11.66-26.035 26.045-26.035h24.462c14.385 0 26.045 11.65 26.045 26.035z" fill="#ffdfcf"/><path d="m343.387 7.5h-24.462c-.004 0-.007 0-.011 0 14.38.006 26.034 11.654 26.034 26.035v33.358c0 16.861-10.901 31.157-26.032 36.264 3.845 1.298 7.957 2.012 12.24 2.012 21.137 0 38.276-17.13 38.276-38.276v-33.357c0-14.386-11.66-26.036-26.045-26.036z" fill="#ffcebf"/><g><path d="m381.585 253.404h-99.856c0 21.362 9.226 41.683 25.308 55.744l60.001 52.46c4.68 4.091 8.112 9.419 9.903 15.371l28.527 94.785 52.696-17.218-29.638-98.067c-2.24-7.412-5.03-14.647-8.346-21.644z" fill="#8ac9fe"/><path d="m428.526 356.478c-2.24-7.412-5.03-14.647-8.346-21.644l-38.595-81.43h-24.484l38.595 81.43c3.316 6.997 6.106 14.232 8.346 21.644l29.638 98.067-30.404 9.934 2.192 7.284 52.696-17.218z" fill="#60b7ff"/><path d="m405.468 471.763 7.315 22.387c2.116 6.476 9.081 10.011 15.558 7.895l47.817-15.624c5.853-1.913 7.412-9.462 2.794-13.536l-20.787-18.34z" fill="#7a8c98"/><path d="m478.951 472.885-20.787-18.34-17.867 5.838 14.17 12.502c4.618 4.074 3.059 11.624-2.794 13.536l-30.138 9.893c-2.656.868-5.388.772-7.84-.073 2.793 5.113 8.908 7.679 14.646 5.805l47.817-15.624c5.852-1.913 7.411-9.463 2.793-13.537z" fill="#667580"/></g><g><path d="m281.729 253.404 11.028 100.371c.743 6.76.149 13.6-1.748 20.131l-27.51 94.707h55.438l62.649-215.209z" fill="#c4e2ff"/><path d="m318.938 468.61 62.65-215.21h-24.49l-62.65 215.21z" fill="#b3dafe"/><path d="m263.498 468.612-6.102 24.289c-1.479 5.889 2.974 11.599 9.046 11.599h56.271c6.19 0 10.263-6.456 7.598-12.043l-11.375-23.845z" fill="#7a8c98"/><path d="m322.717 504.5c6.19 0 10.26-6.46 7.59-12.04l-11.37-23.85h-24.49l11.38 23.85c2.66 5.58-1.41 12.04-7.6 12.04z" fill="#667580"/></g><path d="m369.432 33.535v9.577h-76.552v-9.577c0-14.385 11.66-26.035 26.045-26.035h24.462c14.385 0 26.045 11.65 26.045 26.035z" fill="#eaf6ff"/><path d="m343.387 7.5h-24.462c-.004 0-.007 0-.011 0 14.38.006 26.034 11.654 26.034 26.035v9.577h24.484v-9.577c0-14.385-11.66-26.035-26.045-26.035z" fill="#c4e2ff"/><g><path d="m101.192 486.556-58.244-26.123c-12.658-5.677-18.316-20.54-12.639-33.198l46.999-104.788c5.677-12.658 20.54-18.316 33.198-12.639l58.244 26.123z" fill="#b98080"/></g><path d="m110.506 309.808c-11.068-4.964-23.821-1.261-30.646 8.21 6.668-3.664 14.915-4.269 22.392-.915l42.013 18.828-63.457 141.483 20.384 9.142 67.557-150.626z" fill="#ae6c6c"/><circle cx="103.041" cy="477.143" fill="#7a8c98" r="27.357"/><path d="m103.041 449.786c-3.502 0-6.847.666-9.925 1.865 10.2 3.975 17.432 13.886 17.432 25.492 0 11.607-7.231 21.518-17.432 25.492 3.078 1.199 6.423 1.865 9.925 1.865 15.109 0 27.357-12.248 27.357-27.357s-12.248-27.357-27.357-27.357z" fill="#667580"/></g><g><ellipse cx="103.041" cy="477.143" rx="7.483" ry="7.483" transform="matrix(.383 -.924 .924 .383 -377.214 389.746)"/><path d="m471.674 231.554c10.883 0 19.737-8.854 19.737-19.737v-7.514c0-9.439-6.436-17.467-15.652-19.52l-28.048-6.244c-.339-.039-.532-.162-1.701-.18h-56.923v-39.209c0-17.655-11.097-32.76-26.68-38.732 5.669-5.292 10.026-12.075 12.463-19.906 1.231-3.955-.978-8.159-4.933-9.39-3.953-1.231-8.159.979-9.39 4.933-4.023 12.928-15.835 21.613-29.392 21.613-15.543.321-31.078-13.62-30.776-30.776v-16.28h87.504c4.142 0 7.5-3.357 7.5-7.5s-3.358-7.5-7.5-7.5h-10.952v-2.076c.001-18.492-15.047-33.536-33.544-33.536h-24.462c-18.878-.088-34.557 16.357-33.545 35.611h-12.143c-4.142 0-7.5 3.357-7.5 7.5s3.358 7.5 7.5 7.5h12.143v16.281c-.013 12.159 5.298 25.112 14.884 33.777-10.794 4.345-19.355 13.098-23.433 24.025l-75.284 95.955c-.012.015-.021.031-.032.045l-15.766 20.093c-3.254 4.147-4.699 9.314-4.068 14.549.508 4.639 3.762 10.785 8.706 14.179l-25.405 56.504-51.405-23.054c-16.407-7.363-35.749.002-43.113 16.414l-46.998 104.789c-3.569 7.947-3.826 16.809-.725 24.953 3.102 8.145 9.189 14.592 17.136 18.151l28.437 12.763c1.476 17.872 16.482 31.965 34.727 31.965 19.22 0 34.857-15.637 34.857-34.857s-15.637-34.856-34.857-34.856c-14.795 0-27.458 9.27-32.509 22.303l-24.519-11.004c-4.292-1.923-7.579-5.403-9.253-9.802-1.675-4.397-1.536-9.182.392-13.474l47-104.789c3.977-8.867 14.424-12.849 23.288-8.867l11.307 5.071-31.178 68.198c-1.722 3.767-.065 8.217 3.703 9.939 1.011.462 2.07.681 3.114.681 2.845 0 5.565-1.627 6.825-4.384l31.223-68.296 26.404 11.842-35.078 78.215c-1.695 3.779-.005 8.218 3.774 9.913 3.78 1.694 8.217.005 9.912-3.774l66.009-147.024c4.423 1.075 11.457-.094 16.57-4.157l22.227-18.212c.358-.357.429-.3 1.179-1.213l30.799-39.252v39.202c0 5.793.625 11.586 1.848 17.227l9.225 83.965c.639 5.812.135 11.605-1.495 17.22l-33.684 119.262c-1.272 5.063-.161 10.329 3.05 14.446 3.211 4.118 8.047 6.479 13.269 6.479h56.271c5.497 0 10.53-2.775 13.463-7.425 2.933-4.648 3.271-10.386.904-15.348l-10.144-21.264 30.503-104.782 4.663 4.076c3.62 3.163 6.266 7.272 7.654 11.885l35.897 117.336c3.709 9.484 12.73 16.19 25.016 12.695l47.816-15.624c5.339-1.743 9.204-6.068 10.34-11.569s-.701-11.003-4.913-14.72l-19.18-16.922-29.026-96.028c-2.345-7.758-5.29-15.394-8.752-22.692l-37.867-79.905v-20.16h82.586zm-368.633 225.732c10.949 0 19.857 8.907 19.857 19.856s-8.908 19.858-19.857 19.858-19.857-8.908-19.857-19.857 8.908-19.857 19.857-19.857zm373.371-252.983v7.514c0 2.612-2.125 4.737-4.737 4.737h-18.093v-21.341l18.917 4.211c2.304.514 3.913 2.52 3.913 4.879zm-37.83 12.251h-62.836c-14.31 0-27.341-8.437-33.195-21.485l-17.619-39.394c-2.611-5.838.015-12.712 5.852-15.322 4.145-2.292 12.687-.316 15.322 5.852l17.615 39.384c2.119 4.721 6.839 7.771 12.026 7.771h62.836v23.194zm-138.202-183.018c0-10.221 8.319-18.535 18.545-18.535h24.462c10.408-.044 19.479 9.513 18.545 20.611h-61.552zm15.317 79.144h31.91c14.601 0 26.48 11.875 26.48 26.471v32.88l-14.291-31.952c-2.9-6.485-8.153-11.452-14.79-13.987-6.637-2.534-13.864-2.333-20.349.568-13.387 5.987-19.407 21.75-13.42 35.139l17.623 39.402c8.046 17.933 25.675 29.69 45.227 30.322v14.377h-84.86v-106.75c.001-14.595 11.875-26.47 26.47-26.47zm-105.18 148.593c-1.826 1.495-4.396 1.523-6.253.066l-5.912-4.639c-.996-.781-1.627-1.903-1.779-3.159-.151-1.257.195-2.496.977-3.492l11.168-14.234 16.79 13.175zm25.71-22.943-18.25-14.32 56.25-71.695v37.584zm61.984 137.666c2.182-7.512 2.855-15.264 2.001-23.042l-10.114-92.051h81.493l-58.282 200.209h-39.821zm25.279 120.576c-.271.428-.652.428-.777.428h-56.271c-.737 0-1.19-.383-1.44-.703-.25-.321-.511-.854-.331-1.568l4.677-18.616h44.857l9.338 19.574c.053.112.217.457-.053.885zm150.645-17.624c-.054.262-.2.31-.308.345l-47.817 15.624c-1.228.401-2.539.3-3.69-.284-1.152-.585-2.008-1.584-2.409-2.812l-4.985-15.258 41.491-13.557 17.572 15.503c.084.074.201.177.146.439zm-52.787-120.297 27.518 91.039-38.43 12.557-26.316-87.426c-2.201-7.315-6.401-13.836-12.146-18.856l-9.911-8.664 21.205-72.842 30.134 63.586c3.143 6.628 5.817 13.561 7.946 20.606z"/></g></g></svg>