<svg enable-background="new 0 0 512 512" viewBox="0 0 512 512" xmlns="http://www.w3.org/2000/svg"><g id="_x34_6_Journey"><g><path d="m151.318 90.803c.148 28.636-44.551 88.168-57.027 104.23-1.621 2.112-4.765 2.112-6.385 0-12.477-15.963-56.929-75.004-57.028-103.64-.147-33.254 26.672-60.367 59.925-60.515 33.254-.147 60.368 26.672 60.515 59.925z" fill="#8ec545"/><path d="m50.919 91.393c.098 24.658 33.057 71.861 50.2 94.701-2.751 3.684-5.109 6.729-6.828 8.94-1.621 2.112-4.765 2.112-6.385 0-12.477-15.964-56.929-75.005-57.028-103.641-.147-33.254 26.672-60.367 59.925-60.515 3.488 0 6.975.246 10.315.835-28.587 4.765-50.346 29.766-50.199 59.68z" fill="#fff"/><ellipse cx="91.098" cy="92.568" fill="#f2f2f2" rx="29.569" ry="29.569" transform="matrix(.707 -.707 .707 .707 -38.773 91.529)"/><path d="m481.122 375.309c.148 28.636-44.551 88.168-57.027 104.23-1.621 2.112-4.765 2.112-6.385 0-12.476-15.964-56.929-75.004-57.027-103.641-.147-33.254 26.672-60.367 59.925-60.515 33.253-.147 60.367 26.672 60.514 59.926z" fill="#f24c48"/><path d="m380.723 375.898c.098 24.658 33.057 71.861 50.2 94.701-2.751 3.684-5.109 6.729-6.828 8.94-1.621 2.112-4.765 2.112-6.385 0-12.476-15.964-56.929-75.004-57.027-103.641-.147-33.254 26.672-60.367 59.925-60.515 3.488 0 6.975.246 10.315.835-28.587 4.765-50.347 29.766-50.2 59.68z" fill="#fff"/><ellipse cx="420.903" cy="377.073" fill="#f2f2f2" rx="29.569" ry="29.569" transform="matrix(.707 -.707 .707 .707 -143.351 408.065)"/><g fill="#3e3159"><path d="m333.087 370.32h-181.452c-29.655 0-53.783-24.126-53.783-53.783s24.128-53.783 53.783-53.783h223.26c48.782 0 88.468-39.687 88.468-88.471s-39.687-88.471-88.468-88.471h-187.423c-3.731 0-6.754 3.025-6.754 6.754s3.023 6.754 6.754 6.754h187.423c41.333 0 74.961 33.628 74.961 74.963s-33.628 74.963-74.961 74.963h-223.26c-37.103 0-67.291 30.185-67.291 67.291s30.187 67.291 67.291 67.291h181.452c3.731 0 6.754-3.025 6.754-6.754s-3.023-6.754-6.754-6.754z"/><path d="m99.624 199.174c17.623-22.688 58.596-78.665 58.448-108.402-.163-36.815-30.189-66.649-67.003-66.649-.097 0-.2 0-.297 0-36.914.168-66.811 30.357-66.648 67.291.103 29.908 40.918 85.336 58.42 107.725 2.062 2.691 5.18 4.234 8.554 4.234s6.492-1.543 8.526-4.199zm-61.993-107.812c-.13-29.495 23.737-53.599 53.201-53.73h.237c29.389 0 53.365 23.818 53.495 53.203v.004c.106 20.292-27.14 62.995-53.473 97.286-25.1-32.516-53.389-76.296-53.46-96.763z"/><path d="m91.098 56.243c-20.028 0-36.323 16.295-36.323 36.323s16.295 36.323 36.323 36.323 36.323-16.295 36.323-36.323-16.295-36.323-36.323-36.323zm0 59.139c-12.58 0-22.816-10.236-22.816-22.816s10.236-22.816 22.816-22.816 22.816 10.236 22.816 22.816-10.237 22.816-22.816 22.816z"/><path d="m420.889 308.631c-.103 0-.209 0-.31 0-37.006.164-66.815 30.276-66.651 67.291.103 29.886 40.918 85.327 58.424 107.729 2.062 2.687 5.177 4.225 8.55 4.225 3.372 0 6.488-1.539 8.526-4.195 17.623-22.688 58.596-78.665 58.448-108.402-.164-37.107-30.342-66.648-66.987-66.648zm53.48 66.715c.106 20.292-27.142 62.995-53.473 97.286-25.098-32.524-53.39-76.313-53.46-96.763-.132-29.534 23.641-53.603 53.203-53.73h.246c29.033 0 53.351 23.377 53.484 53.203z"/><path d="m420.902 340.751c-20.028 0-36.323 16.295-36.323 36.323s16.295 36.323 36.323 36.323 36.323-16.295 36.323-36.323-16.295-36.323-36.323-36.323zm0 59.138c-12.58 0-22.816-10.236-22.816-22.816s10.236-22.816 22.816-22.816 22.816 10.236 22.816 22.816-10.236 22.816-22.816 22.816z"/></g></g></g><g id="Layer_1"/></svg>