<svg id="icons" height="512" viewBox="0 0 64 64" width="512" xmlns="http://www.w3.org/2000/svg"><path d="m26 19.51h15.22a11.00084 11.00084 0 0 1 -18.44 0z" fill="#5d9cec"/><path d="m59 36.9-2 4.06c-1.87.39-4.19 2.34-10 1.66-.32-.04-.65-.08-1-.14v-.5a7.49419 7.49419 0 0 1 13-5.08z" fill="#ffce54"/><path d="m29 52.8a6.95765 6.95765 0 0 0 6 0v2.69a4.38 4.38 0 0 1 -3 1 4.38 4.38 0 0 1 -3-1z" fill="#d3b1a9"/><path d="m11 43.48a7.97465 7.97465 0 0 1 6 2.71v.3a6.97284 6.97284 0 0 1 -4 6.31 6.95765 6.95765 0 0 1 -6 0 6.97284 6.97284 0 0 1 -4-6.31v-3.01a2.996 2.996 0 0 0 3-3 2.996 2.996 0 0 0 3 3z" fill="#eac6bb"/><path d="m51 55.49a5 5 0 0 0 6 0h3v-.01a2.996 2.996 0 0 1 3 3v3.01h-18v-3.01a2.996 2.996 0 0 1 3-3v.01z" fill="#ac92ec"/><path d="m29 55.49a4.38 4.38 0 0 0 3 1 4.38 4.38 0 0 0 3-1h3v-.01a2.996 2.996 0 0 1 3 3v3.01h-18v-3.01a2.996 2.996 0 0 1 3-3v.01z" fill="#5d9cec"/><path d="m10 53.48a6.87635 6.87635 0 0 0 3-.68v2.68l-3 2-3-2v-2.68a6.87635 6.87635 0 0 0 3 .68z" fill="#d3b1a9"/><path d="m61 41.98v1.38c-1.72-2.25-2.76-2.66-4-2.4l2-4.06a7.43317 7.43317 0 0 1 2 5.08z" fill="#f6bb42"/><path d="m19 58.48v3.01h-18v-3.01a2.996 2.996 0 0 1 3-3v.01h3v-.01l3 2 3-2v.01h3v-.01a2.996 2.996 0 0 1 3 3z" fill="#48cfad"/><path d="m32 16.51h-4a1.99944 1.99944 0 0 0 -2 2v1h-3.22a10.87951 10.87951 0 0 1 -1.78-6 11 11 0 0 1 22 0 10.87951 10.87951 0 0 1 -1.78 6h-3.22v-1a2.00588 2.00588 0 0 0 -2-2z" fill="#87bcf4"/><path d="m6 35.48v5a2.996 2.996 0 0 1 -3 3v-5a2.996 2.996 0 0 1 3-3z" fill="#e9573f"/><path d="m61 46.48v.01a6.97284 6.97284 0 0 1 -4 6.31 6.95765 6.95765 0 0 1 -6 0 6.97284 6.97284 0 0 1 -4-6.31v-3.87c5.81.68 8.13-1.27 10-1.66 1.24-.26 2.28.15 4 2.4z" fill="#eac6bb"/><path d="m28 16.51h8a2.00588 2.00588 0 0 1 2 2v1h-12v-1a1.99944 1.99944 0 0 1 2-2z" fill="#ffce54"/><path d="m27 41.48v.02l-2 2.01v-2.03a7 7 0 0 1 14 0v2.01l-2-1.98-.03-.01a14.396 14.396 0 0 1 -5.03 1 13.14229 13.14229 0 0 1 -4.94-1.02z" fill="#656d78"/><path d="m39 43.49v3a6.97284 6.97284 0 0 1 -4 6.31 6.95765 6.95765 0 0 1 -6 0 6.97284 6.97284 0 0 1 -4-6.31v-2.98l2-2.01v-.02a13.14229 13.14229 0 0 0 4.94 1.02 14.396 14.396 0 0 0 5.03-1l.03.01z" fill="#eac6bb"/><path d="m54 53.48a6.87635 6.87635 0 0 0 3-.68v2.69a5 5 0 0 1 -6 0v-2.69a6.87635 6.87635 0 0 0 3 .68z" fill="#d3b1a9"/><path d="m19 41.48v10a8.00242 8.00242 0 0 0 -8-8h-2a2.996 2.996 0 0 1 -3-3v-5a8.18663 8.18663 0 0 1 5-2 7.9978 7.9978 0 0 1 8 8z" fill="#fc6e51"/><path d="m32 30.48535a.99942.99942 0 0 1 -1-1v-2a1 1 0 1 1 2 0v2a.99942.99942 0 0 1 -1 1z"/><path d="m54 30.48535a.99942.99942 0 0 1 -1-1v-15a1 1 0 1 1 2 0v15a.99942.99942 0 0 1 -1 1z"/><path d="m54 15.48535h-8a1 1 0 0 1 0-2h8a1 1 0 0 1 0 2z"/><path d="m10 30.48535a.99942.99942 0 0 1 -1-1v-15a1 1 0 0 1 2 0v15a.99942.99942 0 0 1 -1 1z"/><path d="m18 15.48535h-8a1 1 0 0 1 0-2h8a1 1 0 0 1 0 2z"/><path d="m47 47.48535a.99942.99942 0 0 1 -1-1v-3.86816a1 1 0 1 1 2 0v3.86816a.99942.99942 0 0 1 -1 1z"/><path d="m61 47.48535a.99942.99942 0 0 1 -1-1v-4.501a1 1 0 0 1 2 0v4.501a.99942.99942 0 0 1 -1 1z"/><path d="m61 42.98438a.99943.99943 0 0 1 -1-1 6.5 6.5 0 0 0 -13 0 1 1 0 0 1 -2 0 8.5 8.5 0 0 1 17 0 .99943.99943 0 0 1 -1 1z"/><path d="m61.001 44.35547a.99944.99944 0 0 1 -.79493-.3916c-1.92968-2.52051-2.456-2.31543-4.41406-1.53809a16.82923 16.82923 0 0 1 -9.94824 1.042.99959.99959 0 0 1 .3125-1.97461 14.91338 14.91338 0 0 0 8.89941-.92675c2.41211-.95606 4.02637-1.36036 6.73829 2.18066a1 1 0 0 1 -.793 1.6084z"/><path d="m56.999 41.96094a.99953.99953 0 0 1 -.89648-1.44043l2-4.07129a.99971.99971 0 1 1 1.79492.88086l-2 4.07129a.99959.99959 0 0 1 -.89844.55957z"/><path d="m45 59.48047a.99943.99943 0 0 1 -1-1 4.00375 4.00375 0 0 1 4-3.999 1 1 0 0 1 0 2 2.00177 2.00177 0 0 0 -2 1.999.99943.99943 0 0 1 -1 1z"/><path d="m51 56.4873h-3a1 1 0 0 1 0-2h3a1 1 0 0 1 0 2z"/><path d="m45 62.48535a.99942.99942 0 0 1 -1-1v-3.00488a1 1 0 0 1 2 0v3.00488a.99942.99942 0 0 1 -1 1z"/><path d="m63 59.48047a.99943.99943 0 0 1 -1-1 2.00177 2.00177 0 0 0 -2-1.999 1 1 0 0 1 0-2 4.00375 4.00375 0 0 1 4 3.999.99943.99943 0 0 1 -1 1z"/><path d="m60 56.4873h-3a1 1 0 0 1 0-2h3a1 1 0 0 1 0 2z"/><path d="m63 62.48535a.99942.99942 0 0 1 -1-1v-3.00488a1 1 0 0 1 2 0v3.00488a.99942.99942 0 0 1 -1 1z"/><path d="m51 56.4873a.99942.99942 0 0 1 -1-1v-2.68359a1 1 0 1 1 2 0v2.68359a.99942.99942 0 0 1 -1 1z"/><path d="m57 56.48047a.99943.99943 0 0 1 -1-1v-2.67676a1 1 0 1 1 2 0v2.67676a.99943.99943 0 0 1 -1 1z"/><path d="m54 54.47754a8.00792 8.00792 0 0 1 -8-7.99707 1 1 0 0 1 2 0 6 6 0 0 0 12 0 1 1 0 0 1 2 0 8.00792 8.00792 0 0 1 -8 7.99707z"/><path d="m25 47.48535a.99942.99942 0 0 1 -1-1v-5.0039a1 1 0 1 1 2 0v5.0039a.99942.99942 0 0 1 -1 1z"/><path d="m39 47.48535a.99942.99942 0 0 1 -1-1v-5.0039a1 1 0 1 1 2 0v5.0039a.99942.99942 0 0 1 -1 1z"/><path d="m23 59.48047a.99943.99943 0 0 1 -1-1 4.00375 4.00375 0 0 1 4-3.999 1 1 0 0 1 0 2 2.00177 2.00177 0 0 0 -2 1.999.99943.99943 0 0 1 -1 1z"/><path d="m29 56.4873h-3a1 1 0 0 1 0-2h3a1 1 0 1 1 0 2z"/><path d="m23 62.48535a.99942.99942 0 0 1 -1-1v-3.00488a1 1 0 0 1 2 0v3.00488a.99942.99942 0 0 1 -1 1z"/><path d="m41 59.48047a.99943.99943 0 0 1 -1-1 2.00177 2.00177 0 0 0 -2-1.999 1 1 0 0 1 0-2 4.00375 4.00375 0 0 1 4 3.999.99943.99943 0 0 1 -1 1z"/><path d="m38 56.4873h-3a1 1 0 0 1 0-2h3a1 1 0 0 1 0 2z"/><path d="m41 62.48535a.99942.99942 0 0 1 -1-1v-3.00488a1 1 0 0 1 2 0v3.00488a.99942.99942 0 0 1 -1 1z"/><path d="m29 56.4873a.99942.99942 0 0 1 -1-1v-2.68359a1 1 0 1 1 2 0v2.68359a.99942.99942 0 0 1 -1 1z"/><path d="m35 56.48047a.99943.99943 0 0 1 -1-1v-2.67676a1 1 0 1 1 2 0v2.67676a.99943.99943 0 0 1 -1 1z"/><path d="m32 54.47754a8.00792 8.00792 0 0 1 -8-7.99707 1 1 0 0 1 2 0 6 6 0 0 0 12 0 1 1 0 0 1 2 0 8.00792 8.00792 0 0 1 -8 7.99707z"/><path d="m39 42.48145a.99943.99943 0 0 1 -1-1 6 6 0 0 0 -12 0 1 1 0 0 1 -2 0 8 8 0 0 1 16 0 .99943.99943 0 0 1 -1 1z"/><path d="m3 47.48535a.99942.99942 0 0 1 -1-1v-8.00488a1 1 0 0 1 2 0v8.00488a.99942.99942 0 0 1 -1 1z"/><path d="m17 47.48535a.99942.99942 0 0 1 -1-1v-.29394a1 1 0 0 1 2 0v.29394a.99942.99942 0 0 1 -1 1z"/><path d="m1 59.48047a.99943.99943 0 0 1 -1-1 4.00375 4.00375 0 0 1 4-3.999 1 1 0 0 1 0 2 2.00177 2.00177 0 0 0 -2 1.999.99943.99943 0 0 1 -1 1z"/><path d="m7 56.4873h-3a1 1 0 0 1 0-2h3a1 1 0 0 1 0 2z"/><path d="m1 62.48535a.99942.99942 0 0 1 -1-1v-3.00488a1 1 0 0 1 2 0v3.00488a.99942.99942 0 0 1 -1 1z"/><path d="m19 59.48047a.99943.99943 0 0 1 -1-1 2.00177 2.00177 0 0 0 -2-1.999 1 1 0 1 1 0-2 4.00375 4.00375 0 0 1 4 3.999.99943.99943 0 0 1 -1 1z"/><path d="m16 56.4873h-3a1 1 0 0 1 0-2h3a1 1 0 1 1 0 2z"/><path d="m19 62.48535a.99942.99942 0 0 1 -1-1v-3.00488a1 1 0 0 1 2 0v3.00488a.99942.99942 0 0 1 -1 1z"/><path d="m7 56.4873a.99942.99942 0 0 1 -1-1v-2.68359a1 1 0 0 1 2 0v2.68359a.99942.99942 0 0 1 -1 1z"/><path d="m13 56.48047a.99943.99943 0 0 1 -1-1v-2.67676a1 1 0 1 1 2 0v2.67676a.99943.99943 0 0 1 -1 1z"/><path d="m10 54.47754a8.00792 8.00792 0 0 1 -8-7.99707 1 1 0 0 1 2 0 6 6 0 0 0 12 0 1 1 0 0 1 2 0 8.00792 8.00792 0 0 1 -8 7.99707z"/><path d="m9.999 58.48047a.99943.99943 0 0 1 -.55371-.168l-3-2a1 1 0 0 1 1.10938-1.66406l3 2a1 1 0 0 1 -.55567 1.832z"/><path d="m10.001 58.48047a1 1 0 0 1 -.55567-1.832l3-2a1 1 0 1 1 1.10938 1.66406l-3 2a.99943.99943 0 0 1 -.55371.16794z"/><path d="m19 42.48047a.99943.99943 0 0 1 -1-1 7.00848 7.00848 0 0 0 -7-7 7.3022 7.3022 0 0 0 -4.374 1.78027 1.00034 1.00034 0 1 1 -1.252-1.56054 9.11489 9.11489 0 0 1 5.626-2.21973 9.00984 9.00984 0 0 1 9 9 .99943.99943 0 0 1 -1 1z"/><path d="m19 52.48047a.99943.99943 0 0 1 -1-1 7.00848 7.00848 0 0 0 -7-7 1 1 0 0 1 0-2 9.00984 9.00984 0 0 1 9 9 .99943.99943 0 0 1 -1 1z"/><path d="m3 44.48047a1 1 0 0 1 0-2 2.0026 2.0026 0 0 0 2-2 1 1 0 0 1 2 0 4.004 4.004 0 0 1 -4 4z"/><path d="m3 39.48047a.99943.99943 0 0 1 -1-1 4.004 4.004 0 0 1 4-4 1 1 0 0 1 0 2 2.0026 2.0026 0 0 0 -2 2 .99943.99943 0 0 1 -1 1z"/><path d="m9 44.48047a4.004 4.004 0 0 1 -4-4 1 1 0 0 1 2 0 2.0026 2.0026 0 0 0 2 2 1 1 0 0 1 0 2z"/><path d="m6 41.48047a.99943.99943 0 0 1 -1-1v-5a1 1 0 0 1 2 0v5a.99943.99943 0 0 1 -1 1z"/><path d="m19 52.48047a.99943.99943 0 0 1 -1-1v-10a1 1 0 0 1 2 0v10a.99943.99943 0 0 1 -1 1z"/><path d="m11 44.48047h-2a1 1 0 0 1 0-2h2a1 1 0 0 1 0 2z"/><path d="m31.93652 43.5a14.05346 14.05346 0 0 1 -5.35547-1.11621 1.00021 1.00021 0 0 1 .83594-1.81738 12.20505 12.20505 0 0 0 4.51953.93359 13.38536 13.38536 0 0 0 4.668-.93359 1.00019 1.00019 0 0 1 .792 1.83691 15.23576 15.23576 0 0 1 -5.46 1.09668z"/><path d="m39 44.48535a1.00169 1.00169 0 0 1 -.7041-.28906l-2-1.98047a1.00059 1.00059 0 1 1 1.4082-1.42182l2 1.98046a1 1 0 0 1 -.7041 1.71089z"/><path d="m25 44.50488a1 1 0 0 1 -.709-1.70508l2-2.00976a.9999.9999 0 1 1 1.418 1.41016l-2 2.00976a.99749.99749 0 0 1 -.709.29492z"/><path d="m32 57.4873a5.30709 5.30709 0 0 1 -3.707-1.293.99994.99994 0 0 1 1.4043-1.42383 3.47669 3.47669 0 0 0 2.3027.71683 3.46254 3.46254 0 0 0 2.30469-.71875 1.00616 1.00616 0 0 1 1.4082.0293.99351.99351 0 0 1 -.00586 1.39649 5.30709 5.30709 0 0 1 -3.70703 1.29296z"/><path d="m54 57.4873a5.30709 5.30709 0 0 1 -3.707-1.293.99994.99994 0 0 1 1.4043-1.42383 4.05581 4.05581 0 0 0 4.60742-.002 1.00616 1.00616 0 0 1 1.4082.0293.99351.99351 0 0 1 -.00586 1.39649 5.30709 5.30709 0 0 1 -3.70706 1.29304z"/><path d="m46 43.48047a.99943.99943 0 0 1 -1-1v-.49609a1 1 0 0 1 2 0v.49609a.99943.99943 0 0 1 -1 1z"/><path d="m31.999 25.51465a12 12 0 1 1 12-12 12.01312 12.01312 0 0 1 -12 12zm0-22a10 10 0 1 0 10 10 10.01177 10.01177 0 0 0 -10-10z"/><path d="m41.21973 20.51465h-18.44141a1 1 0 0 1 0-2h18.44141a1 1 0 0 1 0 2z"/><path d="m25.999 19.51465a.99943.99943 0 0 1 -1-1 3.00328 3.00328 0 0 1 3-3 1 1 0 0 1 0 2 1.00068 1.00068 0 0 0 -1 1 .99942.99942 0 0 1 -1 1z"/><path d="m37.999 19.51465a.99943.99943 0 0 1 -1-1 1.00067 1.00067 0 0 0 -1-1 1 1 0 0 1 0-2 3.00328 3.00328 0 0 1 3 3 .99942.99942 0 0 1 -1 1z"/><path d="m35.999 17.51465h-8a1 1 0 0 1 0-2h8a1 1 0 0 1 0 2z"/><path d="m37.999 20.51465a.99943.99943 0 0 1 -1-1v-1a1 1 0 0 1 2 0v1a.99942.99942 0 0 1 -1 1z"/><path d="m25.999 20.51465a.99943.99943 0 0 1 -1-1v-1a1 1 0 0 1 2 0v1a.99942.99942 0 0 1 -1 1z"/><path d="m31.999 17.51465a.99943.99943 0 0 1 -1-1v-5.97852a1 1 0 0 1 2 0v5.97852a.99942.99942 0 0 1 -1 1z"/><path d="m37.999 11.53613a.99942.99942 0 0 1 -1-1 2 2 0 0 0 -4 0 1 1 0 0 1 -2 0 4 4 0 0 1 8 0 .99942.99942 0 0 1 -1 1z"/><path d="m34.999 12.53613a.99942.99942 0 0 1 -1-1 .5.5 0 0 0 -1 0 1 1 0 0 1 -2 0 2.5 2.5 0 0 1 5 0 .99942.99942 0 0 1 -1 1z"/><path d="m31.999 11.53613a.99942.99942 0 0 1 -1-1 2 2 0 0 0 -4 0 1 1 0 0 1 -2 0 4 4 0 0 1 8 0 .99942.99942 0 0 1 -1 1z"/><path d="m31.999 12.53613a.99942.99942 0 0 1 -1-1 .5.5 0 0 0 -1 0 1 1 0 0 1 -2 0 2.5 2.5 0 0 1 5 0 .99942.99942 0 0 1 -1 1z"/></svg>