<svg id="Capa_1" enable-background="new 0 0 512 512" height="512" viewBox="0 0 512 512" width="512" xmlns="http://www.w3.org/2000/svg"><g><g><g><path d="m125.014 155.617h261.972v214.351h-261.972z" fill="#8d9ca8"/><path d="m366.986 155.617h20v214.351h-20z" fill="#7a8c98"/><path d="m85.941 133.491v65.018c0 12.849 11.963 22.349 24.48 19.443l62.238-14.449c54.832-12.731 111.851-12.731 166.682 0l62.237 14.449c12.517 2.906 24.479-6.595 24.479-19.444v-65.017c0-11.026-8.94-19.962-19.966-19.962h-300.183c-11.025 0-19.967 8.937-19.967 19.962z" fill="#2ed1e2"/><path d="m406.092 113.529h-19.999c11.026 0 19.964 8.938 19.964 19.963v65.015c0 7.987-4.623 14.678-11.127 17.903l6.649 1.542c12.516 2.906 24.479-6.595 24.479-19.444v-65.017c0-11.025-8.94-19.962-19.966-19.962z" fill="#03bed7"/><path d="m314.059 28.84h-91.639c-2.417 0-4.62-1.339-5.779-3.46-5.822-10.653-17.125-17.88-30.121-17.88-16.806 0-30.782 12.086-33.73 28.038-.346 1.873-1.704 3.414-3.521 3.983-13.928 4.367-24.037 17.371-24.037 32.74 0 13.286 7.555 24.801 18.6 30.5 2.079 1.072 3.395 3.208 3.395 5.547v51.774h217.548v-80.524c-.001-28.01-22.706-50.718-50.716-50.718z" fill="#596c76"/><path d="m314.059 28.84h-19.001c28.01 0 50.717 22.707 50.717 50.717v80.526h19v-80.525c-.001-28.01-22.706-50.718-50.716-50.718z" fill="#465a61"/><path d="m398.543 340.672c-7.957-15.665-21.311-27.922-37.6-34.508l-56.016-22.648c-3.421-1.383-5.66-4.705-5.66-8.395v-90.472h-86.534v90.472c0 3.69-2.24 7.013-5.661 8.396l-56.015 22.647c-16.289 6.586-29.643 18.842-37.6 34.508l-62.47 122.996 20.716 15.427 92.72-86.213v103.617h183.153v-103.617l92.72 86.213 20.716-15.428z" fill="#3c87d0"/><path d="m398.543 340.672c-7.957-15.665-21.311-27.922-37.6-34.508l-56.016-22.648c-3.421-1.383-5.66-4.705-5.66-8.395v-90.472h-20v99.472c0 3.69 2.239 7.01 5.66 8.394l56.016 22.649c16.289 6.586 29.645 18.844 37.602 34.509l62.469 122.992-4.238 3.156 3.521 3.274 20.716-15.428z" fill="#0078c8"/><path d="m304.927 283.516c-3.421-1.383-5.66-4.705-5.66-8.395v-90.472h-86.534v90.472c0 3.69-2.24 7.013-5.661 8.396l-4.571 1.845c15.181 10.54 33.617 16.727 53.499 16.727s38.317-6.186 53.498-16.726z" fill="#ffa78f"/><path d="m284.926 292.515 6.526 2.639c6.396-2.611 12.444-5.902 18.046-9.791l-4.571-1.846c-3.421-1.383-5.66-4.705-5.66-8.395v-90.472h-20v99.472c-.001 3.689 2.239 7.01 5.659 8.393z" fill="#f89580"/><path d="m356.341 180.721h-200.682c-11.399 0-20.64-9.24-20.64-20.639s9.241-20.641 20.64-20.641h200.682c11.399 0 20.64 9.242 20.64 20.641s-9.241 20.639-20.64 20.639z" fill="#ffa78f"/><path d="m304.086 63.03h-37.883c-2.606 0-5.007 1.544-5.965 3.967-4.908 12.426-17.025 21.218-31.197 21.218h-36.316c-7.676 0-13.899 6.223-13.899 13.899v81.784c0 35.916 51.498 69.536 77.173 69.536s77.173-33.62 77.173-69.536v-91.781c.001-16.064-13.022-29.087-29.086-29.087z" fill="#ffa78f"/><path d="m304.086 63.03h-19c16.064 0 29.087 13.023 29.087 29.087v91.781c0 31.89-40.598 61.967-67.673 68.31 3.418.801 6.622 1.226 9.5 1.226 25.675 0 77.173-33.62 77.173-69.536v-91.781c0-16.064-13.023-29.087-29.087-29.087z" fill="#f89580"/><path d="m148.06 301.978v189.522c0 2.761 2.239 5 5 5h27.728v-206.391c0-3.4-3.342-5.794-6.561-4.699l-18.916 6.438c-4.336 1.476-7.251 5.549-7.251 10.13z" fill="#fff2e2"/><path d="m363.94 301.977v189.523c0 2.761-2.239 5-5 5h-27.728v-206.392c0-3.4 3.343-5.793 6.561-4.698l18.915 6.437c4.336 1.476 7.252 5.549 7.252 10.13z" fill="#fff2e2"/><path d="m356.688 291.847-18.915-6.437c-3.218-1.095-6.561 1.298-6.561 4.698v21.122l9.731 3.934c8.611 3.482 16.39 8.561 22.997 14.878v-28.065c0-4.581-2.916-8.654-7.252-10.13z" fill="#fedbbd"/><g fill="#ffa78f"><path d="m149.926 376.439-98.939 87.23c-9.666 8.522-10.598 23.265-2.076 32.931s23.27 10.593 32.936 2.071l98.939-87.228z"/><path d="m362.073 376.439 98.939 87.229c9.666 8.522 10.597 23.265 2.076 32.932-8.522 9.666-23.27 10.593-32.936 2.071l-98.939-87.228z"/><path d="m175.988 358.147h-30.739c-4.809 0-8.707 3.898-8.707 8.707v51.411c0 4.809 3.898 8.707 8.707 8.707h30.739c9.012 0 16.317-7.306 16.317-16.317v-36.19c0-9.013-7.305-16.318-16.317-16.318z"/><path d="m336.012 358.147h30.739c4.809 0 8.707 3.898 8.707 8.707v51.411c0 4.809-3.898 8.707-8.707 8.707h-30.739c-9.012 0-16.317-7.306-16.317-16.317v-36.19c0-9.013 7.305-16.318 16.317-16.318z"/></g></g></g><g><path d="m229.851 183.489c-3.025 2.83-3.184 7.576-.355 10.601 6.674 7.136 16.334 11.228 26.503 11.228s19.829-4.092 26.503-11.228c2.83-3.025 2.671-7.771-.355-10.601-3.025-2.83-7.771-2.671-10.601.355-3.848 4.114-9.515 6.474-15.548 6.474s-11.7-2.36-15.548-6.474c-2.828-3.027-7.574-3.184-10.599-.355z"/><path d="m228.882 144.638c0-4.142-3.358-7.5-7.5-7.5s-7.5 3.358-7.5 7.5v7.602c0 4.142 3.358 7.5 7.5 7.5s7.5-3.358 7.5-7.5z"/><path d="m206.655 129.171c2.003 0 4.003-.798 5.479-2.377 2.272-2.429 5.642-3.822 9.248-3.822 3.605 0 6.976 1.393 9.248 3.822 2.83 3.025 7.576 3.183 10.601.354 3.025-2.83 3.184-7.576.354-10.601-5.098-5.45-12.462-8.575-20.204-8.575-7.741 0-15.105 3.126-20.203 8.576-2.83 3.025-2.671 7.771.354 10.601 1.448 1.353 3.287 2.022 5.123 2.022z"/><path d="m290.618 137.138c-4.142 0-7.5 3.358-7.5 7.5v7.602c0 4.142 3.358 7.5 7.5 7.5s7.5-3.358 7.5-7.5v-7.602c0-4.142-3.358-7.5-7.5-7.5z"/><path d="m281.37 126.794c2.272-2.429 5.643-3.822 9.248-3.822 3.606 0 6.976 1.393 9.248 3.822 1.477 1.579 3.476 2.377 5.479 2.377 1.836 0 3.675-.67 5.122-2.023 3.026-2.83 3.184-7.576.355-10.601-5.098-5.45-12.461-8.576-20.204-8.576-7.742 0-15.105 3.126-20.203 8.576-2.83 3.025-2.671 7.771.355 10.601 3.023 2.83 7.77 2.672 10.6-.354z"/><path d="m476.365 479.249c-.487-7.709-3.763-14.807-9.266-20.151l-61.866-121.812c-2.926-5.761-6.55-11.117-10.738-15.978v-97.293c5.423 1.255 7.784 1.971 11.663 1.97 6.125 0 12.102-2.057 17.025-5.966 6.599-5.24 10.384-13.078 10.384-21.503v-65.022c0-15.142-12.324-27.461-27.471-27.461h-33.821v-26.47c0-5.869-.866-11.65-2.573-17.182-1.223-3.958-5.423-6.176-9.379-4.955-3.958 1.222-6.176 5.421-4.955 9.379 1.265 4.098 1.906 8.39 1.906 12.758v52.406c-1.456-.048.877-.009-16.598-.024v-39.825c0-20.175-16.413-36.588-36.588-36.588h-37.884c-5.682 0-10.882 3.501-12.941 8.712-3.953 10.008-13.46 16.474-24.222 16.474h-36.317c-11.8 0-21.4 9.599-21.4 21.399v29.827s-16.288.013-16.598.024v-23.655c0-5.145-2.853-9.822-7.46-12.214-8.97-4.631-14.542-13.765-14.542-23.837 0-11.778 7.55-22.06 18.781-25.583 4.473-1.4 7.788-5.14 8.655-9.775 2.346-12.692 13.431-21.904 26.356-21.904 9.808 0 18.828 5.356 23.541 13.979 2.483 4.541 7.22 7.361 12.36 7.361h91.643c8.354 0 16.462 2.389 23.447 6.907 3.478 2.251 8.122 1.255 10.371-2.223 2.25-3.478 1.255-8.121-2.223-10.371-9.418-6.093-20.343-9.314-31.595-9.314h-91.088c-7.406-13.175-21.328-21.339-36.454-21.339-19.696 0-36.651 13.72-40.831 32.808-16.784 5.877-27.962 21.558-27.962 39.455 0 13.532 6.443 25.975 17.155 33.771h-28.975c-15.147 0-27.471 12.319-27.471 27.461v65.022c0 8.425 3.785 16.263 10.384 21.503 4.925 3.911 10.901 5.967 17.025 5.967 2.083 0 4.183-.238 6.264-.722 1.747-.404 3.551-.822 5.399-1.249v97.293c-4.188 4.86-7.812 10.217-10.738 15.978l-61.867 121.812c-5.503 5.344-8.779 12.442-9.265 20.15-.519 8.218 2.194 16.148 7.645 22.334 6.088 6.895 14.599 10.417 23.15 10.417 7.247 0 14.523-2.532 20.372-7.685l12.471-10.99c3.108-2.739 3.406-7.478.668-10.586-2.738-3.107-7.477-3.406-10.586-.668l-12.47 10.99c-6.551 5.771-16.581 5.139-22.355-1.4-5.786-6.567-5.158-16.558 1.413-22.347l73.094-64.439v13.406c0 8.325 6.312 15.198 14.4 16.1l-27.633 24.361c-3.107 2.739-3.405 7.479-.666 10.586 2.731 3.097 7.469 3.414 10.586.666l14.831-13.075v34.599c0 6.893 5.608 12.5 12.5 12.5h205.888c6.893 0 12.5-5.608 12.5-12.5v-34.591l53.754 47.389c5.848 5.153 13.122 7.684 20.369 7.684 8.551 0 17.066-3.524 23.158-10.423 5.445-6.181 8.158-14.11 7.64-22.328zm-39.776-47.097-53.627-47.277v-18.009c0-7.306-4.862-13.493-11.518-15.51v-30.915c8.564 6.097 15.627 14.21 20.414 23.637zm-291.344-12.665c-.666 0-1.207-.542-1.207-1.207v-51.413c0-.666.542-1.207 1.207-1.207h30.74c4.862 0 8.818 3.956 8.818 8.818v36.192c0 4.862-3.956 8.818-8.818 8.818h-30.74zm56.407-125.678c16.252 10.343 34.953 15.793 54.348 15.793s38.096-5.45 54.348-15.793l13.364 5.401v28.344h-135.424v-28.345zm54.348-32.865c10.107 0 23.038-4.231 35.771-11.378v25.564c0 3.741 1.243 7.25 3.412 10.076-12.075 6.164-25.421 9.395-39.183 9.395s-27.107-3.231-39.182-9.394c2.167-2.826 3.411-6.335 3.411-10.077v-25.564c12.733 7.146 25.664 11.378 35.771 11.378zm100.444 89.715h-17.731c0-33.929 0-22.658 0-56.996l15.569 5.299c1.293.439 2.162 1.656 2.162 3.028zm-183.157-56.643v.05c-.037 6.728 0 49.727 0 56.593h-17.731v-48.668c0-1.372.869-2.589 2.167-3.03l15.564-5.298zm15.001 137.04c6.896-4.177 11.516-11.753 11.516-20.387v-36.192c0-8.635-4.619-16.21-11.516-20.387v-11.536h135.425v11.536c-6.896 4.177-11.516 11.753-11.516 20.387v36.192c0 8.635 4.619 16.21 11.516 20.387v57.962h-135.425zm147.727-11.569c-4.862 0-8.818-3.956-8.818-8.818v-36.192c0-4.862 3.956-8.818 8.818-8.818h30.74c.666 0 1.207.542 1.207 1.207v51.413c0 .666-.542 1.207-1.207 1.207h-30.74zm43.479-111.722c-2.579-1.799-5.267-3.444-8.05-4.932v-.842c0-7.801-4.959-14.726-12.334-17.231l-18.906-6.435c-3.792-1.299-8.004-.682-11.27 1.65-1.419 1.014-2.571 2.312-3.442 3.774l-17.737-7.168c-.597-.243-.983-.813-.983-1.452v-35.481c10.543-8.086 20.302-17.993 26.694-29.703 9.173 2.094 27.95 6.423 46.028 10.601zm-7.22-186.731h33.821c6.876 0 12.471 5.59 12.471 12.46v65.022c0 3.822-1.717 7.378-4.712 9.756s-6.847 3.245-10.578 2.378c-1.799-.416-52.186-12.062-64.176-14.804.713-2.789 1.135-5.347 1.358-7.621h15.885c15.517 0 28.141-12.624 28.141-28.141 0-9.607-4.842-18.101-12.211-23.181v-15.869zm-15.93 25.911c7.246 0 13.141 5.895 13.141 13.141 0 7.245-5.895 13.14-13.141 13.14h-15.668v-26.281zm-163.62-51.226h36.317c16.679 0 31.448-9.858 37.858-25.186h37.189c11.903 0 21.588 9.684 21.588 21.588v91.784c0 29.516-45.541 62.039-69.675 62.039-24.194 0-69.675-32.525-69.675-62.039 0-17.483 0-64.055 0-81.786-.001-3.53 2.869-6.4 6.398-6.4zm-21.4 51.226v26.281h-15.668c-7.246 0-13.141-5.895-13.141-13.14 0-7.246 5.895-13.141 13.141-13.141zm-62.609 63.708c-3.721.868-7.575-.001-10.57-2.379-2.994-2.378-4.712-5.934-4.712-9.756v-65.022c0-6.871 5.594-12.46 12.471-12.46h33.821v15.871c-7.369 5.08-12.211 13.574-12.211 23.181 0 15.517 12.624 28.141 28.141 28.141h15.885c.222 2.274.644 4.832 1.358 7.621-11.989 2.74-62.381 14.386-64.183 14.803zm69.819-.706c6.393 11.709 16.151 21.616 26.694 29.703v35.481c0 .639-.386 1.209-.97 1.446l-17.751 7.173c-.871-1.461-2.023-2.76-3.442-3.774-3.265-2.333-7.477-2.95-11.255-1.656l-18.916 6.439c-7.38 2.506-12.339 9.431-12.339 17.232v.842c-2.783 1.488-5.471 3.134-8.05 4.932v-87.218c18.08-4.177 36.856-8.507 46.029-10.6zm-103.124 222.206 44.731-88.074c4.787-9.426 11.85-17.54 20.414-23.637v30.915c-6.657 2.017-11.518 8.204-11.518 15.51v18.009zm80.146 11.541 10.444-9.207h7.287v54.531h-17.731zm200.888 45.324h-17.731v-54.531h7.277l10.454 9.216zm101.031 2.636c-5.781 6.546-15.813 7.177-22.359 1.408l-66.562-58.681c8.092-.899 14.409-7.773 14.409-16.102v-13.406l73.096 64.441c3.173 2.796 5.068 6.66 5.335 10.879.266 4.221-1.127 8.293-3.919 11.461z"/></g></g></svg>