<svg id="Capa_1" enable-background="new 0 0 512 512" height="512" viewBox="0 0 512 512" width="512" xmlns="http://www.w3.org/2000/svg"><g><g clip-rule="evenodd" fill-rule="evenodd"><path d="m190.377 176.742c0-5.159-2.75-8.362-7.597-9.383l-39.317-8.335c-5.074-1.077-7.597 1.389-7.597 6.152v54.595l54.511-11.565z" fill="#e2dbee"/><path d="m108.398 220.736 109.476-23.216c4.847-1.049 7.597 1.191 7.597 6.152v243.697h-124.698v-217.25c0-4.649 2.608-8.306 7.625-9.383z" fill="#faf7f8"/><path d="m201.206 201.035 16.667-3.515c4.847-1.049 7.597 1.191 7.597 6.152v238.851h-124.697v-24.265h81.015c10.686 0 19.418-8.731 19.418-19.418z" fill="#eee9fb"/><path d="m326.414 110.665 39.317-8.334c4.961-1.049 7.597.992 7.597 6.151v54.596l-54.511-11.565v-31.465c0-4.79 2.664-8.334 7.597-9.383z" fill="#e2dbee"/><path d="m408.421 173.426c0-5.074-2.665-8.306-7.597-9.355l-109.504-23.244c-4.961-1.049-7.597.765-7.597 6.151v300.391h124.697v-273.943z" fill="#faf7f8"/><path d="m408.421 173.426c0-5.074-2.665-8.306-7.597-9.355l-16.696-3.544v238.313c0 10.687-8.731 19.418-19.39 19.418h-81.015v24.265h124.697v-269.097z" fill="#eee9fb"/><path d="m22.054 471.634h467.893c8.023 0 14.57-6.548 14.57-14.57 0-7.994-6.548-14.542-14.57-14.542h-467.893c-7.994 0-14.542 6.548-14.542 14.542 0 8.022 6.548 14.57 14.542 14.57z" fill="#005e80"/><g fill="#9be69d"><path d="m256 406.975c21.459 0 38.949-14.145 38.949-31.522 0-17.376-17.49-31.55-38.949-31.55-21.431 0-38.92 14.174-38.92 31.55 0 17.377 17.489 31.522 38.92 31.522z"/><path d="m71.661 406.975c21.459 0 38.948-14.145 38.948-31.522 0-17.376-17.49-31.55-38.948-31.55-21.431 0-38.92 14.174-38.92 31.55-.001 17.377 17.489 31.522 38.92 31.522z"/><path d="m437.533 406.975c21.43 0 38.92-14.145 38.92-31.522 0-17.376-17.49-31.55-38.92-31.55-21.459 0-38.949 14.174-38.949 31.55 0 17.377 17.49 31.522 38.949 31.522z"/></g><path d="m451.678 346.029c14.514 4.593 24.775 16.045 24.775 29.424 0 17.406-17.434 31.522-38.92 31.522-19.361 0-35.405-11.424-38.439-26.391 4.394 1.361 9.185 2.126 14.173 2.126 21.487 0 38.92-14.116 38.92-31.549.001-1.73-.169-3.459-.509-5.132z" fill="#6fd7a3"/><path d="m270.145 346.029c14.514 4.593 24.804 16.045 24.804 29.424 0 17.406-17.433 31.522-38.949 31.522-19.333 0-35.377-11.424-38.41-26.391 4.394 1.361 9.156 2.126 14.145 2.126 21.516 0 38.949-14.116 38.949-31.549 0-1.73-.199-3.459-.539-5.132z" fill="#6fd7a3"/><path d="m85.806 346.029c14.514 4.593 24.803 16.045 24.803 29.424 0 17.406-17.433 31.522-38.948 31.522-19.333 0-35.405-11.424-38.41-26.391 4.394 1.361 9.156 2.126 14.145 2.126 21.516 0 38.949-14.116 38.949-31.549-.001-1.73-.2-3.459-.539-5.132z" fill="#6fd7a3"/></g><path d="m71.661 351.387c-9.014 0-17.065 2.891-22.819 7.54-5.329 4.309-8.617 10.176-8.617 16.525 0 6.321 3.288 12.19 8.617 16.499 5.754 4.648 13.805 7.54 22.819 7.54 13.379 0 31.437-8.164 31.437-24.039-.001-15.901-18.058-24.065-31.437-24.065zm266.913-311.022c0-4.139 3.345-7.512 7.483-7.512 4.139 0 7.512 3.373 7.512 7.512v56.892l18.199-3.855c4.648-.992 9.042 2.608 9.042 7.313v51.449l28.715 6.094c3.6.539 6.378 3.657 6.378 7.399v175.213c6.463-2.863 13.833-4.479 21.629-4.479 12.501 0 23.897 4.167 32.259 10.942 8.759 7.086 14.173 17.036 14.173 28.119 0 11.056-5.414 21.005-14.173 28.092-6.662 5.386-15.223 9.128-24.775 10.432v21.033h44.93c6.066 0 11.594 2.495 15.591 6.492s6.463 9.496 6.463 15.562c0 6.094-2.466 11.593-6.463 15.59s-9.524 6.492-15.591 6.492h-467.892c-6.066 0-11.594-2.495-15.562-6.492-3.998-3.996-6.492-9.495-6.492-15.589 0-6.066 2.494-11.566 6.491-15.562 3.968-3.997 9.496-6.492 15.562-6.492h42.123v-21.033c-9.553-1.304-18.114-5.046-24.747-10.432-8.788-7.087-14.202-17.036-14.202-28.092 0-11.083 5.414-21.033 14.202-28.119 8.334-6.775 19.729-10.942 32.23-10.942 7.796 0 15.166 1.616 21.629 4.479v-55.419c0-4.138 3.345-7.512 7.483-7.512 4.167 0 7.512 3.374 7.512 7.512v65.963c6.151 6.605 9.808 14.939 9.808 24.038 0 9.071-3.657 17.406-9.808 24.01v35.547h109.702v-37.134c-5.301-6.35-8.419-14.061-8.419-22.423 0-8.39 3.118-16.101 8.419-22.45v-147.857c-36.567 7.767-73.135 15.505-109.702 23.272v23.046c0 4.139-3.345 7.512-7.512 7.512-4.139 0-7.483-3.373-7.483-7.512v-29.112c0-3.77 2.778-6.889 6.378-7.427l28.715-6.095v-51.421c0-4.734 4.394-8.306 9.042-7.342l18.199 3.883v-56.92c0-4.139 3.373-7.484 7.512-7.484s7.484 3.346 7.484 7.484v60.095l20.891 4.422c3.6.539 6.378 3.658 6.378 7.427v25.115l26.022-5.527c4.649-.964 9.071 2.579 9.071 7.342v145.618c6.775-3.26 14.655-5.131 23.018-5.131 7.228 0 14.088 1.389 20.211 3.883v-137.963c0-4.139 3.374-7.484 7.512-7.484s7.483 3.345 7.483 7.484v147.658c7.03 6.832 11.225 15.704 11.225 25.483 0 9.752-4.195 18.625-11.225 25.456v34.101h109.702v-35.547c-6.151-6.604-9.808-14.939-9.808-24.01 0-9.099 3.657-17.433 9.808-24.038v-179.69c-36.567-7.739-73.135-15.506-109.702-23.245v19.872c0 4.138-3.345 7.483-7.483 7.483-4.139 0-7.512-3.345-7.512-7.483v-29.141c0-4.705 4.394-8.305 9.071-7.313l26.023 5.528v-25.144c0-3.771 2.778-6.86 6.378-7.398l20.891-4.451v-60.067zm-12.274 77.982v22.253l12.699 2.693 26.816 5.698v-39.005c-13.18 2.777-26.334 5.584-39.515 8.361zm-182.922 48.304v39.005l39.516-8.363v-22.252c-13.182-2.806-26.335-5.612-39.516-8.39zm229.892 237.291c4.139 0 7.512 3.345 7.512 7.483 0 4.167-3.374 7.512-7.512 7.512h-54.425c-4.139 0-7.484-3.345-7.484-7.512 0-4.138 3.345-7.483 7.484-7.483zm0-215.549c4.139 0 7.512 3.373 7.512 7.512s-3.374 7.484-7.512 7.484h-54.425c-4.139 0-7.484-3.345-7.484-7.484s3.345-7.512 7.484-7.512zm0 35.943c4.139 0 7.512 3.345 7.512 7.484 0 4.138-3.374 7.512-7.512 7.512h-54.425c-4.139 0-7.484-3.374-7.484-7.512 0-4.139 3.345-7.484 7.484-7.484zm0 35.916c4.139 0 7.512 3.345 7.512 7.483 0 4.139-3.374 7.513-7.512 7.513h-54.425c-4.139 0-7.484-3.374-7.484-7.513 0-4.138 3.345-7.483 7.484-7.483zm0 35.915c4.139 0 7.512 3.373 7.512 7.512s-3.374 7.484-7.512 7.484h-54.425c-4.139 0-7.484-3.345-7.484-7.484s3.345-7.512 7.484-7.512zm0 35.916c4.139 0 7.512 3.373 7.512 7.512s-3.374 7.483-7.512 7.483h-54.425c-4.139 0-7.484-3.345-7.484-7.483 0-4.139 3.345-7.512 7.484-7.512zm0 35.943c4.139 0 7.512 3.345 7.512 7.484 0 4.138-3.374 7.512-7.512 7.512h-54.425c-4.139 0-7.484-3.374-7.484-7.512 0-4.139 3.345-7.484 7.484-7.484zm-244.32-116.562c0-4.139 3.374-7.483 7.512-7.483 4.139 0 7.483 3.344 7.483 7.483v8.703c0 4.138-3.345 7.512-7.483 7.512s-7.512-3.373-7.512-7.512zm0 151.287c0-4.139 3.374-7.512 7.512-7.512 4.139 0 7.483 3.373 7.483 7.512v8.674c0 4.167-3.345 7.512-7.483 7.512s-7.512-3.345-7.512-7.512zm53.348 0c0-4.139 3.373-7.512 7.512-7.512s7.512 3.373 7.512 7.512v8.674c0 4.167-3.373 7.512-7.512 7.512s-7.512-3.345-7.512-7.512zm-26.674 0c0-4.139 3.373-7.512 7.512-7.512s7.484 3.373 7.484 7.512v8.674c0 4.167-3.345 7.512-7.484 7.512s-7.512-3.345-7.512-7.512zm-26.674-37.814c0-4.167 3.374-7.512 7.512-7.512 4.139 0 7.483 3.345 7.483 7.512v8.674c0 4.139-3.345 7.512-7.483 7.512s-7.512-3.374-7.512-7.512zm53.348 0c0-4.167 3.373-7.512 7.512-7.512s7.512 3.345 7.512 7.512v8.674c0 4.139-3.373 7.512-7.512 7.512s-7.512-3.374-7.512-7.512zm-26.674 0c0-4.167 3.373-7.512 7.512-7.512s7.484 3.345 7.484 7.512v8.674c0 4.139-3.345 7.512-7.484 7.512s-7.512-3.374-7.512-7.512zm-26.674-37.843c0-4.139 3.374-7.484 7.512-7.484 4.139 0 7.483 3.345 7.483 7.484v8.702c0 4.139-3.345 7.512-7.483 7.512s-7.512-3.373-7.512-7.512zm53.348 0c0-4.139 3.373-7.484 7.512-7.484s7.512 3.345 7.512 7.484v8.702c0 4.139-3.373 7.512-7.512 7.512s-7.512-3.373-7.512-7.512zm-26.674 0c0-4.139 3.373-7.484 7.512-7.484s7.484 3.345 7.484 7.484v8.702c0 4.139-3.345 7.512-7.484 7.512s-7.512-3.373-7.512-7.512zm-26.674-37.815c0-4.139 3.374-7.483 7.512-7.483 4.139 0 7.483 3.345 7.483 7.483v8.702c0 4.139-3.345 7.512-7.483 7.512s-7.512-3.373-7.512-7.512zm53.348 0c0-4.139 3.373-7.483 7.512-7.483s7.512 3.345 7.512 7.483v8.702c0 4.139-3.373 7.512-7.512 7.512s-7.512-3.373-7.512-7.512zm-26.674 0c0-4.139 3.373-7.483 7.512-7.483s7.484 3.345 7.484 7.483v8.702c0 4.139-3.345 7.512-7.484 7.512s-7.512-3.373-7.512-7.512zm26.674-37.815c0-4.139 3.373-7.483 7.512-7.483s7.512 3.344 7.512 7.483v8.703c0 4.138-3.373 7.512-7.512 7.512s-7.512-3.373-7.512-7.512zm-26.674 0c0-4.139 3.373-7.483 7.512-7.483s7.484 3.344 7.484 7.483v8.703c0 4.138-3.345 7.512-7.484 7.512s-7.512-3.373-7.512-7.512zm274.397 162.513c-5.018-.681-9.752-2.041-14.117-3.969v25.002h14.117zm7.512-62.59c-13.379 0-31.437 8.164-31.437 24.066 0 15.875 18.058 24.039 31.437 24.039 9.014 0 17.065-2.892 22.819-7.54 5.329-4.309 8.617-10.177 8.617-16.499.001-15.704-17.659-24.066-31.436-24.066zm-344.243 58.621c-4.337 1.928-9.1 3.288-14.117 3.969v21.033h14.117zm182.921.595c-3.94 1.616-8.221 2.75-12.7 3.374v21.033h12.7zm-27.694 3.374c-5.585-.766-10.829-2.353-15.534-4.621v25.654h15.534zm7.483-62.59c-8.986 0-17.065 2.891-22.819 7.54-4.989 4.054-8.617 9.921-8.617 16.525 0 6.577 3.628 12.445 8.617 16.499 5.755 4.648 13.833 7.54 22.819 7.54 13.464 0 31.436-8.192 31.436-24.039 0-15.873-17.972-24.065-31.436-24.065zm-233.946 112.764h467.893c1.927 0 3.714-.822 4.989-2.098 1.276-1.275 2.069-3.033 2.069-4.989 0-1.928-.794-3.686-2.069-4.961-1.275-1.276-3.062-2.098-4.989-2.098-155.964 0-311.928 0-467.893 0-1.927 0-3.685.822-4.961 2.098-1.304 1.275-2.098 3.033-2.098 4.961 0 1.956.794 3.713 2.098 4.989 1.276 1.275 3.033 2.098 4.961 2.098z"/></g></svg>