<svg id="Layer_5" enable-background="new 0 0 64 64" height="512" viewBox="0 0 64 64" width="512" xmlns="http://www.w3.org/2000/svg"><g><g><path d="m12 19v13h-8v-11z" fill="#ccd1d9"/><path d="m32 21v11h-2-6v-13l6.13 1.53z" fill="#ccd1d9"/><path d="m56 7c0 1.99-1.18 3.71-2.87 4.51-.73-.92-1.86-1.51-3.13-1.51-.77 0-1.49.22-2.1.6l-.03-.04c-.26-1.44-.92-2.75-1.85-3.81l.01-.01c.13-2.64 2.3-4.74 4.97-4.74 2.76 0 5 2.24 5 5z" fill="#fcd770"/><path d="m53.13 11.51c.54.69.87 1.55.87 2.49v1.4.01c-.65.68-1.17 1.58-1.52 2.61-1.09-1.24-2.7-2.02-4.48-2.02-1.77 0-3.37.77-4.47 2h-11.53c-.41 0-.81-.06-1.19-.18-1.63-.51-2.81-2.02-2.81-3.82 0-2.21 1.79-4 4-4 .09 0 .17.02.26.03.88-3.47 4-6.03 7.74-6.03 2.41 0 4.56 1.06 6.02 2.75.93 1.06 1.59 2.37 1.85 3.81l.03.04c.61-.38 1.33-.6 2.1-.6 1.27 0 2.4.59 3.13 1.51z" fill="#e6e9ed"/><path d="m57 28c-1.62 0-3.05-1.08-3.96-2.75.61-.93.96-2.05.96-3.25 0-1.53-.57-2.93-1.52-3.98.35-1.03.87-1.93 1.52-2.61v-.01c.84-.88 1.88-1.4 3-1.4 2.76 0 5 3.13 5 7s-2.24 7-5 7z" fill="#a0d468"/><path d="m48 28c-3.31 0-6-2.69-6-6 0-1.54.58-2.94 1.53-4 1.1-1.23 2.7-2 4.47-2 1.78 0 3.39.78 4.48 2.02.95 1.05 1.52 2.45 1.52 3.98 0 1.2-.35 2.32-.96 3.25-1.06 1.65-2.93 2.75-5.04 2.75z" fill="#8cc152"/><path d="m57 32h5c0 1.36-.09 2.69-.27 4h-20.73c-1.1 0-2 .9-2 2s.9 2 2 2h7c1.1 0 2 .9 2 2s-.9 2-2 2h-4c-1.1 0-2 .9-2 2s.9 2 2 2h13.36c-3.73 5.95-9.52 10.48-16.36 12.62v-.62c0-1.1-.9-2-2-2h-10c-1.1 0-2-.9-2-2s.9-2 2-2h7c1.1 0 2-.9 2-2s-.9-2-2-2h-28c-1.39-1.85-2.56-3.86-3.49-6h19.49c1.1 0 2-.9 2-2s-.9-2-2-2h-10c-1.1 0-2-.9-2-2s.9-2 2-2h18c1.1 0 2-.9 2-2s-.9-2-2-2h16z" fill="#69d6f4"/><g fill="#b4dd7f"><path d="m41 36h20.73c-.58 4.37-2.1 8.44-4.36 12h-.01-13.36c-1.1 0-2-.9-2-2s.9-2 2-2h4c1.1 0 2-.9 2-2s-.9-2-2-2h-7c-1.1 0-2-.9-2-2s.9-2 2-2z"/><path d="m41 60v.62c-2.84.9-5.87 1.38-9 1.38-9.82 0-18.53-4.71-24-12h28c1.1 0 2 .9 2 2s-.9 2-2 2h-7c-1.1 0-2 .9-2 2s.9 2 2 2h10c1.1 0 2 .9 2 2z"/><path d="m32 32c1.1 0 2 .9 2 2s-.9 2-2 2h-18c-1.1 0-2 .9-2 2s.9 2 2 2h10c1.1 0 2 .9 2 2s-.9 2-2 2h-19.49c-1.62-3.68-2.51-7.73-2.51-12h2 8 12 6z"/></g><path d="m24 19v13h-12v-13-7h12z" fill="#dfb28b"/><path d="m12 8h12v4h-12z" fill="#cf9e76"/></g><g><path d="m58 28.88c2.833-.638 5-3.924 5-7.88 0-4.411-2.691-8-6-8-.714 0-1.402.187-2.05.502-.059-.589-.211-1.146-.457-1.656 1.545-1.116 2.507-2.913 2.507-4.846 0-3.309-2.691-6-6-6-2.53 0-4.7 1.58-5.57 3.828-1.52-1.15-3.404-1.828-5.43-1.828-3.851 0-7.235 2.44-8.486 6.023-2.53.246-4.514 2.384-4.514 4.977 0 2.757 2.243 5 5 5h9.685c-.435.911-.685 1.925-.685 3 0 3.519 2.613 6.432 6 6.92v2.08h-14v-10.781l-8-2v-11.219h-14v11.219l-8 2v10.781h-2v1c0 17.093 13.907 31 31 31s31-13.907 31-31v-1h-5zm3-7.88c0 2.736-1.298 5.108-3 5.794v-3.794h-2v3.796c-.672-.268-1.293-.797-1.801-1.555.509-.97.801-2.071.801-3.241 0-1.555-.516-2.988-1.376-4.151.733-1.742 2.016-2.849 3.376-2.849 2.168 0 4 2.748 4 6zm-10-18c2.206 0 4 1.794 4 4 0 1.304-.659 2.518-1.717 3.259-.88-.774-2.021-1.259-3.283-1.259-.504 0-.982.097-1.441.237-.331-1.029-.836-1.97-1.482-2.792.274-1.955 1.923-3.445 3.923-3.445zm-22 11c0-1.652 1.342-2.996 3.004-2.996h.008c.058.008.117.015.176.019l.832.057.206-.808c.788-3.104 3.574-5.272 6.774-5.272 3.209 0 5.952 2.178 6.748 5.234-1.061.917-1.748 2.257-1.748 3.766h2c0-1.654 1.346-3 3-3s3 1.346 3 3v1.044c-.327.389-.615.834-.873 1.315-1.159-.85-2.583-1.359-4.127-1.359-1.902 0-3.627.765-4.89 2h-11.11c-1.654 0-3-1.346-3-3zm14 8c0-2.757 2.243-5 5-5s5 2.243 5 5c0 2.414-1.721 4.434-4 4.899v-5.485l1.707-1.707-1.414-1.414-2.293 2.293v2.546l-1.445-.964-1.109 1.664 2.554 1.703v1.364c-2.279-.465-4-2.485-4-4.899zm6 6.92c1.541-.222 2.922-.94 3.969-1.996.847 1.032 1.89 1.705 3.031 1.955v2.121h-7zm-18-7.139v9.219h-1-5v-10.719zm-18-8.781h10v18h-10zm10-4v2h-10v-2zm-18 12.781 6-1.5v10.719h-6zm25 11.219h2c.551 0 1 .449 1 1s-.449 1-1 1h-18c-1.654 0-3 1.346-3 3s1.346 3 3 3h10c.551 0 1 .449 1 1s-.449 1-1 1h-18.826c-1.277-3.103-2.037-6.471-2.157-10zm-19.886 18h25.886c.551 0 1 .449 1 1s-.449 1-1 1h-7c-1.654 0-3 1.346-3 3s1.346 3 3 3h10c.508 0 .912.386.975.877-2.535.727-5.209 1.123-7.975 1.123-8.728 0-16.565-3.879-21.886-10zm37.886-12h-7c-.551 0-1-.449-1-1s.449-1 1-1h19.563c-.629 3.605-1.928 6.981-3.761 10h-12.802c-.551 0-1-.449-1-1s.449-1 1-1h4c1.654 0 3-1.346 3-3s-1.346-3-3-3zm12.837-4h-19.837c-1.654 0-3 1.346-3 3s1.346 3 3 3h7c.551 0 1 .449 1 1s-.449 1-1 1h-4c-1.654 0-3 1.346-3 3s1.346 3 3 3h11.474c-3.375 4.647-8.09 8.259-13.578 10.258-.333-1.294-1.499-2.258-2.896-2.258h-10c-.551 0-1-.449-1-1s.449-1 1-1h7c1.654 0 3-1.346 3-3s-1.346-3-3-3h-27.474c-.916-1.261-1.735-2.597-2.442-4h17.916c1.654 0 3-1.346 3-3s-1.346-3-3-3h-10c-.551 0-1-.449-1-1s.449-1 1-1h18c1.654 0 3-1.346 3-3 0-.352-.072-.686-.184-1h26.167c-.023.673-.077 1.339-.146 2z"/><path d="m40 7c-2.283 0-4.274 1.542-4.842 3.751l1.937.498c.34-1.324 1.535-2.249 2.905-2.249.527 0 1.046.139 1.5.401l1-1.732c-.756-.438-1.621-.669-2.5-.669z"/><path d="m7 27h2v2h-2z"/><path d="m7 23h2v2h-2z"/><path d="m27 27h2v2h-2z"/><path d="m27 23h2v2h-2z"/><path d="m15 15h2v2h-2z"/><path d="m19 15h2v2h-2z"/><path d="m19 19h2v2h-2z"/><path d="m15 19h2v2h-2z"/><path d="m19 23h2v2h-2z"/><path d="m15 23h2v2h-2z"/><path d="m19 27h2v2h-2z"/><path d="m15 27h2v2h-2z"/></g></g></svg>