<svg clip-rule="evenodd" fill-rule="evenodd" height="1.707in" image-rendering="optimizeQuality" shape-rendering="geometricPrecision" text-rendering="geometricPrecision" viewBox="0 0 1707 1707" width="1.707in" xmlns="http://www.w3.org/2000/svg"><g id="Layer_x0020_1"><path d="m1031 576c-38 0-30-49-30-85h-81v202h673v-202h-81c0 36 9 85-30 85s-30-49-30-85h-391c0 36 9 85-30 85zm-763-40c-147 0-267-120-267-268 0-147 120-267 267-267 148 0 268 120 268 267 0 148-120 268-268 268zm0-475c-114 0-207 93-207 207 0 115 93 208 207 208 115 0 208-93 208-208 0-114-93-207-208-207zm-43 308c-8 0-15-3-21-9l-54-54c-28-28 14-71 42-43l33 33 120-119c28-28 70 14 42 42l-141 141c-5 6-13 9-21 9zm1169 1337h-135c-36 0-32-44-35-81-12-5-24-9-36-15-29 24-57 58-82 33l-96-96c-25-25 9-53 33-82-6-12-11-24-15-36-37-3-81 1-81-35v-135c0-36 44-32 81-35 4-12 9-24 15-36-24-29-58-57-33-82l96-96c25-25 53 9 82 33 12-6 24-11 36-15 3-37-1-81 35-81h135c36 0 32 44 35 81 12 4 24 9 36 15 29-24 57-58 82-33l96 96c25 25-9 53-33 82 6 12 10 24 15 36 37 3 81-1 81 35v135c0 36-44 32-81 35-5 12-9 24-15 36 24 29 58 57 33 82l-96 96c-25 25-53-9-82-33-12 6-24 11-36 15-3 37 1 81-35 81zm-108-60h81c9-99 4-51 86-98 25-14 45 11 71 33l57-57c-64-77-33-39-8-131 7-26 39-23 73-26v-81c-99-9-51-4-98-87-14-24 11-44 33-70l-57-57c-77 63-39 33-131 8-27-7-23-39-26-73h-81c-9 99-4 50-87 98-24 14-44-12-70-33l-57 57c63 77 33 39 8 131-7 26-39 23-73 26v81c99 9 50 4 98 87 14 24-12 44-33 70l57 57c77-64 39-33 131-8 26 7 23 39 26 73zm40-156c-90 0-164-73-164-164 0-90 74-164 164-164 91 0 164 74 164 164 0 91-73 164-164 164zm0-268c-57 0-104 47-104 104 0 58 47 105 104 105 58 0 105-47 105-105 0-57-47-104-105-104zm-910 149-78-76-24 42 63 82zm-114-132v-58c-22-13-42-30-59-49-26-28-114-154-80-250-60-92-17-124-15-199 3-136 169-71 266-123 127-69 278-58 334 108 24 71 27 171 0 218 14 59-13 130-32 169-24 51-51 92-106 126v58l41 70h34c125 0 226 101 226 226v141c0 16-14 30-30 30-283 0-567 0-850 0-17 0-30-14-30-30v-141c0-125 101-226 226-226h34zm60-29v24l94 93 94-93v-24c-61 22-127 22-188 0zm211 85-77 76 38 48 63-82zm-310 74h-36c-92 0-166 74-166 166v111h120v-84c0-39 60-39 60 0v84h185v-192c-17 22-29 44-50 44-9 0-18-5-23-12zm408 277v-84c0-39 60-39 60 0v84h120v-111c0-92-75-166-166-166h-37l-89 117c-12 15-35 16-47 0l-26-32v192zm17-751c-57-74-67-74-152-21-50 31-161-1-234-1-39 0-65 8-80 22-28 41 37 271 234 271 39 0 78-10 112-29 44-25 68-53 94-107 26-56 36-106 26-135zm-127-315c-44 0-90 17-119 33-31 16-54 27-149 32-85 5-85 19-85 39-2 78-34 96-3 150 89-50 263 12 299-11 83-51 136-72 201-2 11-88-19-241-144-241zm1115-89h-23v232c0 16-13 30-30 30h-733c-16 0-30-14-30-30v-232c-17 0-52 4-52-30v-318c0-17 13-30 30-30h254v-82c0-17 14-30 30-30h269c17 0 30 13 30 30v82h255c16 0 30 13 30 30v318c0 17-14 30-30 30zm-808-60h133v-258h-133zm755 0h23v-258h-134v258zm-171-258h-391v258h391zm-300-60h209v-52h-209z"/><path d="m662 1030c26-56 36-106 26-135-57-74-67-74-152-21-50 31-161-1-234-1-39 0-65 8-80 22-28 41 37 271 234 271 39 0 78-10 112-29 44-25 68-53 94-107z" fill="#ffc06d"/><path d="m504 823c83-51 136-72 201-2 11-88-19-241-144-241-44 0-90 17-119 33-31 16-54 27-149 32-85 5-85 19-85 39-2 78-34 96-3 150 89-50 263 12 299-11z" fill="#633"/><path d="m268 476c115 0 208-93 208-208 0-114-93-207-208-207-114 0-207 93-207 207 0 115 93 208 207 208zm-43-107c-8 0-15-3-21-9l-54-54c-28-28 14-71 42-43l33 33 120-119c28-28 70 14 42 42l-141 141c-5 6-13 9-21 9z" fill="#1d81ce"/><g fill="#c06000"><path d="m868 173v258h133v-258z"/><path d="m1061 173v258h391v-258z"/><path d="m1512 173v258h111 23v-258z"/><path d="m1452 491h-391c0 36 9 85-30 85-38 0-30-49-30-85h-81v202h673v-202h-81c0 36 9 85-30 85s-30-49-30-85z"/></g><path d="m1367 1007h-81c-9 99-4 50-87 98-24 14-44-12-70-33l-57 57c63 77 33 39 8 131-7 26-39 23-73 26v81c99 9 50 4 98 87 14 24-12 44-33 70l57 57c77-64 39-33 131-8 26 7 23 39 26 73h81c9-99 4-51 86-98 25-14 45 11 71 33l57-57c-64-77-33-39-8-131 7-26 39-23 73-26v-81c-99-9-51-4-98-87-14-24 11-44 33-70l-57-57c-77 63-39 33-131 8-27-7-23-39-26-73zm-205 319c0-90 74-164 164-164 91 0 164 74 164 164 0 91-73 164-164 164-90 0-164-73-164-164z" fill="#ffa721"/><path d="m851 1535c0-92-75-166-166-166h-37l-89 117c-12 15-35 16-47 0l-26-32v192h185v-84c0-39 60-39 60 0v84h120z" fill="#1d81ce"/><path d="m426 1646v-192c-17 22-29 44-50 44-9 0-18-5-23-12l-90-117h-36c-92 0-166 74-166 166v111h120v-84c0-39 60-39 60 0v84z" fill="#1d81ce"/><path d="m377 1419 39-48-78-76-24 42z" fill="#1d81ce"/><path d="m362 1234 94 93 94-93v-24c-61 22-127 22-188 0z" fill="#ffc06d"/><path d="m573 1295-77 76 38 48 63-82z" fill="#1d81ce"/></g></svg>