<svg id="Layer_1" enable-background="new 0 0 468 468" height="512" viewBox="0 0 468 468" width="512" xmlns="http://www.w3.org/2000/svg"><g><g><g><path d="m456.475 247.424c-4.333-8.608-4.341-18.794-.034-27.416 15.98-31.991 15.654-72.457-4.287-107.242-21.874-38.156-61.426-59.142-100.407-57.43-9.922.436-19.497-4.081-25.505-11.99-19.843-26.122-53.825-43.346-92.418-43.346-38.682 0-72.73 17.303-92.553 43.526-6.003 7.941-15.591 12.48-25.538 12.077-38.87-1.573-78.254 19.404-100.063 57.447-20 34.888-20.27 75.491-4.145 107.527 4.333 8.608 4.341 18.794.034 27.416-15.98 31.991-15.654 72.457 4.287 107.242 21.874 38.156 61.426 59.142 100.407 57.43 9.922-.436 19.497 4.081 25.505 11.99 19.844 26.121 53.826 43.345 92.419 43.345 38.682 0 72.73-17.303 92.553-43.526 6.003-7.941 15.591-12.48 25.538-12.077 38.87 1.573 78.253-19.404 100.062-57.447 20.001-34.888 20.27-75.491 4.145-107.526z" fill="#d9fbff"/></g></g><g><g><g><g><g><g><ellipse cx="224.433" cy="234" fill="#52a4e2" rx="211.977" ry="209.607"/></g></g><g><g><path d="m51.958 214.478c0-74.297 39.095-139.562 98.05-176.787-80.354 29.802-137.551 106.445-137.551 196.309 0 115.763 94.905 209.607 211.977 209.607 41.935 0 81.023-12.044 113.926-32.82-23.158 8.589-48.234 13.298-74.426 13.298-117.071 0-211.976-93.844-211.976-209.607z" fill="#2c98db"/></g></g></g><g><g><path d="m372.07 83.61c-4.301 6.58-15.651 20.586-36.546 25.075-10.411 2.237-104.696 41.035-93.273 48.68 12.931 7.585 12.103 26.358-1.443 32.807-20.291 6.797-21.048 24.799-.723 31.658 9.542 5.92 35.038 25.603 31.396 65.167-.725 33.559 33.266 35.249 46.34 7.465 5.942-12.045 16.09-37.413 12.904-65.19-.654-5.701 2.119-11.412 7.255-14.082 5.317-2.764 13.132-2.905 23.122 7.59 0 0 7.043 12.382 18.652 10.189 7.064-1.334 13.965 2.978 16.312 9.701 1.86 5.328 3.748 11.752 5.055 18.721 1.601 8.537 12.81 10.971 17.921 3.911 5.005-6.914 10.808-13.996 17.057-19.977.202-3.75.31-7.524.31-11.324.001-59.002-24.662-112.3-64.339-150.391z" fill="#b8e288"/></g></g><g><g><path d="m40.672 182.178c9.543 12.182-1.974 31.507 1.875 43.217 2.499 10.622 12.71 17.477 23.724 16.899 18.67-.979 24.969 14.067 27.431 26.54 2.611 9.669-3.262 19.807-4.691 28.847-.707 11.154 5.986 21.443 16.205 26.218 18.49 8.639 30.797 26.942 32.448 39.908 1.095 8.595 11.628 13.538 18.172 7.778 24.372-21.455 26.844-50.968 27.062-63.733.305-9.957-5.545-27.461 8.601-38.582 11.352-8.924 13.888-24.647 4.116-34.17-20.547-21.137-48.968-18.88-65.081-16.632-11.234 1.426-20.64-1.234-30.51-8.02-7.169-5.232-5.382-16.228 2.907-19.461 10.363-2.598 10.662-12.875 13.894-21.13 3.479-6.559 10.423-15.943 21.206-14.44 13.374 1.864 20.64-9.697 24.848-14.192 11.644-14.002-11.226-26.124-19.919-33.085-5.504-4.354-8.681-13.432-10.267-19.478-1.796-6.848-6.735-12.512-13.365-15.172-7.496-3.008-16.852-4.284-25.294-4.749-32.986 25.485-58.136 60.418-71.31 100.681 10.596 3.834 11.918 4.231 17.948 12.756z" fill="#b8e288"/></g><g><path d="m40.672 182.178c9.543 12.182-1.974 31.507 1.875 43.217 1.46 6.206 5.562 11.111 10.91 14.014-.98-8.177-1.499-16.493-1.499-24.931 0-55.668 21.95-106.264 57.754-143.796-5.148-1.074-10.569-1.659-15.662-1.941-33.276 25.73-58.184 60.586-71.326 100.68 10.596 3.835 11.918 4.232 17.948 12.757z" fill="#a1db58"/></g></g></g><g><g><g><path d="m19.217 196.491c-8.223-5.312-14.362-13.22-14.214-22.954.25-16.408 6.006-39.585 35.474-44.252l-2.629 5.953c-1.3 2.944.165 6.192 3.03 7.69 24.802 12.974 102.734 12.083 102.734 12.083 14.517-.701 28.761-4.201 41.957-10.319 14.614-6.775 27.681-16.556 38.143-28.843 3.294-3.868 6.474-7.14 8.872-8.772l24.437-20.208c6.2-5.127 15.426-4.941 21.05.813 6.082 6.223 5.824 16.184-.443 22.086l-16.757 15.78 69.165-18.428c7.172-1.911 14.823 1.978 17.041 9.091 2.254 7.228-1.689 14.783-8.642 17.18l17.669-4.756c6.93-1.865 14.326 1.984 16.306 8.911 2.016 7.055-2.124 14.367-9.147 16.257l-62.719 16.916 43.994-11.842c7.031-1.893 14.537 2.009 16.551 9.036 2.052 7.16-2.147 14.59-9.283 16.511l-41.326 11.124.013.022 23.284-6.267c6.734-1.813 13.655 2.202 15.459 8.966 1.809 6.781-2.211 13.747-8.967 15.541l-69.937 18.568c-14.469 3.841-29.853 2.29-43.248-4.362-4.56-2.264-9.371-3.946-14.321-5.021-5.24-1.137-10.633-1.395-15.982-1.021-23.238 1.623-127.519 6.848-177.564-25.483z" fill="#fcdeca"/></g><g><g><path d="m33.925 156.22c24.501 12.816 86.512 13.813 105.21 13.813 2.182 0 3.775-.013 4.648-.023.184-.002.368-.008.552-.017 16.535-.798 32.531-4.733 47.543-11.693 18.665-7.697 36.693-24.804 49.144-38.824.387-.261.761-.542 1.12-.839l24.269-20.069 12.6-9.819c-.297-.365-.605-.723-.941-1.067-5.623-5.753-14.85-5.94-21.05-.813l-24.437 20.208c-2.398 1.632-5.578 4.904-8.872 8.772-10.462 12.287-23.529 22.067-38.143 28.843-13.196 6.118-27.44 9.618-41.957 10.319 0 0-77.932.891-102.734-12.083-2.865-1.499-4.33-4.746-3.03-7.69l2.629-5.953c-13.46 2.132-21.962 8.129-27.262 15.575l20.448 11.219c.088.049.175.095.263.141z" fill="#f9cdaf"/></g></g></g><g><g><path d="m427.524 294.184c-3.371 10.551-12.315 18.36-23.227 20.267-34.641 6.052-88.437 5.603-88.437 5.603-14.517-.701-28.761-4.201-41.957-10.319-14.614-6.775-27.68-16.556-38.143-28.843-3.294-3.868-6.474-7.14-8.872-8.772l-24.437-20.208c-6.2-5.127-15.427-4.941-21.05.812-6.082 6.223-5.824 16.184.443 22.086l16.756 15.78-69.165-18.428c-7.172-1.911-14.823 1.978-17.041 9.091-2.254 7.228 1.689 14.783 8.642 17.18l-17.669-4.756c-6.93-1.865-14.326 1.984-16.306 8.911-2.016 7.055 2.124 14.367 9.147 16.257l62.719 16.916-43.994-11.842c-7.031-1.893-14.537 2.009-16.551 9.036-2.052 7.16 2.147 14.591 9.283 16.511l41.326 11.124-.013.022-23.284-6.268c-6.734-1.813-13.655 2.202-15.459 8.966-1.809 6.781 2.211 13.747 8.967 15.541l69.937 18.568c14.469 3.841 29.853 2.29 43.248-4.362 4.56-2.264 9.371-3.946 14.321-5.021 5.24-1.137 10.632-1.395 15.982-1.021 23.238 1.622 136.048 6.704 186.094-25.628 8.223-5.312 14.362-13.22 14.214-22.954-.25-16.406-6.006-39.582-35.474-44.249z" fill="#fcdeca"/></g><g><g><path d="m217.328 283.679c24.508 28.833 61.774 52.112 101.429 51.384 12.086 0 56.925-.387 88.12-5.836 16.461-2.875 29.847-14.554 34.935-30.478l.028-.089c-4.005-2.041-8.733-3.592-14.317-4.476-3.371 10.551-12.315 18.36-23.227 20.267-34.641 6.052-88.437 5.603-88.437 5.603-14.517-.701-28.761-4.201-41.957-10.319-18.71-7.417-33.419-24.202-47.015-37.615l-24.437-20.208c-6.2-5.127-15.427-4.941-21.05.812-.733.75-1.369 1.556-1.918 2.401l14.142 8.952z" fill="#f9cdaf"/></g></g></g></g></g><g fill="#333"><path d="m56.216 36.237h-7v-7c0-2.761-2.239-5-5-5s-5 2.239-5 5v7h-7c-2.761 0-5 2.239-5 5s2.239 5 5 5h7v7c0 2.761 2.239 5 5 5s5-2.239 5-5v-7h7c2.761 0 5-2.239 5-5s-2.239-5-5-5z"/><path d="m435.785 418.158h-7v-7c0-2.761-2.238-5-5-5s-5 2.239-5 5v7h-7c-2.762 0-5 2.239-5 5s2.238 5 5 5h7v7c0 2.761 2.238 5 5 5s5-2.239 5-5v-7h7c2.762 0 5-2.239 5-5s-2.238-5-5-5z"/></g></g><path d="m433.839 290.394c4.977-18.156 7.571-37.075 7.571-56.394 0-57.334-22.576-111.234-63.571-151.77-40.979-40.521-95.46-62.837-153.406-62.837s-112.426 22.316-153.405 62.837c-13.059 12.913-24.243 27.184-33.428 42.489-23.858 4.608-37.187 21.836-37.597 48.743-.129 8.526 3.656 16.459 10.78 22.87-2.194 12.313-3.326 24.904-3.326 37.668 0 57.334 22.577 111.234 63.571 151.77 40.979 40.521 95.46 62.837 153.406 62.837 56.33 0 109.381-21.094 149.942-59.494 29.046-3.831 57.569-10.892 77.122-23.524 10.802-6.978 16.661-16.648 16.499-27.229-.389-25.583-12.463-42.41-34.158-47.966zm-61.223-199.086c36.357 36.888 58.794 87.245 58.794 142.692 0 3.058-.081 6.098-.216 9.124-5.361 5.324-10.803 11.788-16.201 19.245-3.12 3.537-7.646 2.575-8.958-1.9-1.187-6.329-2.952-12.872-5.248-19.447-3.195-9.153-12.642-14.727-21.96-12.966-9.035 1.217-13-7.853-14.103-8.723-4.437-4.661-8.587-7.505-12.382-9.092 2.239-3.964 3.028-8.75 1.723-13.259-.7-2.625-1.962-5.001-3.683-6.996 10.866-1.534 18.86-12.723 15.511-23.449-.789-2.753-2.2-5.179-4.046-7.172l2.714-.732c9.542-2.355 15.556-13.071 12.655-22.46-2.693-9.419-12.746-14.965-22.414-12.365l-2.525.68c.694-3.122.6-6.47-.428-9.764-.61-1.957-1.529-3.73-2.668-5.309 11.204-5.048 18.86-12.478 23.435-18.107zm-108.075 147.361c2.374-.362 4.736-.837 7.073-1.458l54.663-14.513c-.602 2.284-.799 4.703-.519 7.142 3.015 26.286-6.487 50.383-12.461 62.492-6.403 13.607-17.39 17.909-24.891 16.148-7.68-1.804-12.132-9.728-11.93-21.208 1.917-21.276-4.201-37.242-11.935-48.603zm-83.775 41.996-50.044-13.334c-9.952-2.651-20.1 2.81-23.101 12.434-1.028 3.294-1.123 6.643-.429 9.764l-2.525-.68c-2.717-.732-5.458-.799-8.064-.338 2.01-6.666 3.888-13.469 1.973-20.805-5.243-26.262-20.598-31.024-32.566-30.404-8.898.47-16.707-5.023-18.595-13.051-.033-.141-.072-.279-.117-.417-.792-2.408-.658-5.61-.197-9.169 42.415 13.736 97.384 14.454 130.168 13.319 5.21 2.487 10.21 5.921 14.762 10.603 1.48 1.598 2.57 3.242 3.34 4.904-6.314-.943-12.908.995-17.546 5.738-9.048 8.837-7.006 24.158 2.941 31.436zm13.603-53.518c.976-.063 1.9-.124 2.76-.184 10.072-.737 18.97 1.236 27.731 5.533 8.756 4.351 18.288 6.663 27.896 6.913 8.354 10.013 15.758 25.273 13.747 47.129-.011.117-.018.233-.021.351-.122 5.633.645 10.421 2.027 14.447-10.987-6.156-20.89-14.176-28.944-23.685-6.77-8.421-24.475-21.407-32.961-28.744-.112-6.346-2.444-12.558-7.449-17.335-1.558-1.601-3.157-3.067-4.786-4.425zm127.937 69.527c6.419-13.011 16.693-39.143 13.388-67.972-.433-3.775 1.413-7.423 4.594-9.076 4.752-2.473 10.417-.378 16.835 6.228 1.815 2.867 10.136 14.564 23.561 12.028 4.498-.85 9.086 1.917 10.663 6.436 2.131 6.103 3.767 12.157 4.861 17.994 1.875 12.598 19.854 16.495 26.887 5.921 2.238-3.092 4.476-5.986 6.706-8.688-1.501 11.859-4.068 23.39-7.545 34.531-3.126 8.083-10.21 13.946-18.82 15.45-33.1 5.783-84.845 5.549-87.438 5.53-2.956-.127-5.906-.393-8.843-.78 6.149-3.83 11.523-9.892 15.151-17.602zm-97.873-267.281c54.412 0 103.977 20.874 140.959 54.933-4.443 5.669-12.831 13.964-25.976 18.135-3.342-1.017-7.018-1.145-10.668-.172l-50.044 13.333 2.351-2.214c8.273-7.467 8.555-21.418.591-29.222-7.324-7.494-19.541-8.009-27.812-1.17-4.917 4.193-26.478 21.305-30.729 26.481-16.204 18.296-35.964 31.756-58.617 37.502.069-.082.144-.17.211-.25 4.268-4.388 7.191-9.892 6.284-15.516-1.313-10.1-12.21-17.855-20.167-23.518-15.485-7.766-10.184-32.349-29.626-38.867-3.879-1.557-8.435-2.769-13.598-3.644 33.275-22.577 73.522-35.811 116.841-35.811zm-182.011 107.865c12.743-24.777 31.653-46.092 53.336-63.399 8.896.624 16.195 2.058 21.709 4.271 15.658 6.928 8.944 28.176 27.552 37.733 6.092 4.335 15.298 10.887 16.049 16.659.78 1.658-1.962 5.844-4.009 7.777-2.963 3.511-6.734 7.958-11.953 9.629-4.471.214-77.44.761-101.91-11.431-.446-.232-.981-.77-.774-1.239zm-10.007-.784c-.425 4.333 1.883 8.656 6.146 10.886 25.625 13.403 101.876 12.692 105.109 12.651 33.607-.777 65.073-18.862 86.544-43.479 4.132-5.002 24.762-21.353 29.994-25.809 4.291-3.55 10.568-3.352 14.287.454 4.076 3.99 3.934 11.134-.295 14.951l-16.756 15.78c-1.667 1.57-2.055 4.071-.941 6.072 1.114 2 3.442 2.988 5.656 2.4l69.164-18.428c4.675-1.249 9.604 1.332 10.981 5.748 1.432 4.591-.983 9.408-5.499 10.964-.096.033-.179.086-.271.125l-49.204 13.245c-2.666.718-4.246 3.461-3.528 6.128.708 2.688 3.533 4.249 6.128 3.528l67.475-18.227c4.418-1.189 8.998 1.257 10.199 5.457.604 2.118.865 7.889-5.642 10.056l-62.72 16.917c-2.666.719-4.244 3.462-3.526 6.128.719 2.666 3.458 4.247 6.128 3.527l43.994-11.842c4.527-1.216 9.213 1.287 10.444 5.585 1.335 4.298-1.405 9.225-5.775 10.305l-41.327 11.124c-3.1.756-4.685 4.634-3.017 7.352 1.132 1.96 3.439 2.915 5.629 2.327l23.284-6.268c3.945-1.15 8.354 1.438 9.328 5.427 1.147 3.963-1.408 8.442-5.419 9.42l-69.938 18.568c-13.31 3.533-27.423 2.11-39.74-4.007-10.175-5.065-21.39-7.447-32.875-6.552-20.539 1.433-125.472 6.98-174.503-24.696-4.517-2.918-12.072-9.224-11.928-18.678.296-19.324 7.824-31.777 22.414-37.139zm192.018 302.133c-114.127 0-206.977-91.786-206.977-204.607 0-10.618.858-21.037 2.455-31.219 5.402 3.182 11.298 5.991 17.572 8.457-.817 5.376-1.258 10.743.245 15.508 3.078 12.63 15.159 21.26 28.804 20.542 7.576-.392 18.116 1.505 22.264 22.516 2.375 8.327-3.54 18.427-4.729 27.266-.762 1.278-1.389 2.657-1.814 4.145-2.903 9.387 3.115 20.104 12.653 22.459l2.716.732c-1.845 1.993-3.257 4.419-4.046 7.172-2.943 9.493 3.14 20.335 12.789 22.716l2.722.732c-1.721 1.995-2.982 4.372-3.683 6.996-2.642 9.132 3.276 19.412 12.515 21.663l69.937 18.568c15.598 4.147 32.24 2.496 46.755-4.716 8.761-4.296 17.662-6.272 27.731-5.533 7.72.539 49.75 3.117 94.59-.959-35.924 29.674-82.133 47.562-132.499 47.562zm221.639-81.417c-51.071 32.992-169.681 25.772-183.033 24.84-11.834-.864-22.531 1.466-32.875 6.552-12.32 6.117-26.434 7.541-39.741 4.007l-69.937-18.568c-4.011-.978-6.567-5.458-5.419-9.42.97-3.99 5.393-6.577 9.328-5.427l23.284 6.268c2.157.579 4.451-.362 5.601-2.278 1.729-2.717.143-6.646-2.988-7.4l-41.327-11.125c-4.371-1.08-7.11-6.006-5.775-10.305 1.232-4.298 5.917-6.804 10.444-5.585l43.959 11.832.035.01c2.669.719 5.41-.861 6.127-3.527.718-2.666-.86-5.409-3.525-6.128l-62.722-16.917c-4.266-1.054-6.938-5.859-5.64-10.056 1.2-4.2 5.774-6.647 10.199-5.457l67.474 18.227c2.595.721 5.419-.84 6.128-3.528.718-2.667-.862-5.41-3.528-6.128l-49.203-13.244c-.093-.038-.176-.092-.272-.125-4.516-1.557-6.931-6.373-5.499-10.964 1.376-4.416 6.3-6.994 10.98-5.749l69.165 18.428c2.21.586 4.542-.399 5.656-2.4s.726-4.502-.941-6.072l-16.756-15.78c-4.229-3.817-4.37-10.961-.295-14.951 3.719-3.805 9.995-4.005 14.288-.455 7.914 7.089 25.295 19.527 32.688 28.369 20.529 24.233 51.941 39.641 83.865 40.92 2.22.014 54.648.382 89.34-5.678 11.292-1.973 20.722-9.281 25.491-19.484 17.828 4.25 27.025 17.224 27.351 38.62.143 9.454-7.412 15.76-11.927 18.678z" fill="#333"/></g></svg>