<svg id="Capa_1" enable-background="new 0 0 512.003 512.003" height="512" viewBox="0 0 512.003 512.003" width="512" xmlns="http://www.w3.org/2000/svg"><g><g><g><g><g><g><g><g><g><g><path d="m291.653 382.665c14.345 6.894 28.693 13.781 43.049 20.651l51.505-57.554c7.519-8.402 6.165-21.455-2.919-28.135-7.442-5.473-17.734-4.837-24.446 1.51z" fill="#f89f8e"/></g><g><path d="m322.951 397.736c14.007 7.556 28.018 15.106 42.038 22.639l54.137-55.085c7.904-8.042 7.161-21.144-1.602-28.241-7.179-5.814-17.489-5.66-24.49.366z" fill="#fdb0a0"/></g><g><circle cx="240.853" cy="207.436" fill="#64b9fc" r="168.737"/><path d="m409.589 207.436c0 93.193-75.548 168.742-168.731 168.742-5.662 0-11.268-.275-16.787-.825 85.311-8.432 151.932-80.396 151.932-167.917 0-87.52-66.622-159.485-151.932-167.917 5.519-.55 11.126-.825 16.787-.825 93.182 0 168.731 75.548 168.731 168.742z" fill="#31a7fb"/><path d="m409.585 207.433c0 35.79-11.14 68.99-30.16 96.3l-49.353-16.436c-4.335-1.444-9.097.234-11.569 4.076l-10.604 16.48c-1.022 1.588-2.472 2.854-4.183 3.652l-28.677 13.373c-3.244 1.513-7.049 1.176-9.977-.882l-35.341-24.843c-3.89-2.734-5.317-7.83-3.412-12.187l5.27-12.054c1.24-2.837 3.725-4.94 6.728-5.693l38.45-9.651c2.795-.702 5.151-2.575 6.465-5.139l13.005-25.383c1.589-3.1 1.449-6.804-.368-9.776l-13.99-22.881c-1.817-2.972-5.049-4.784-8.532-4.784h-11.1c-3.405 0-6.575 1.732-8.415 4.597l-19.385 30.193c-2.416 3.763-7.036 5.464-11.316 4.167l-15.673-4.751c-3.562-1.08-7.429-.092-10.037 2.564l-8.821 8.985c-3.355 3.417-8.661 3.976-12.654 1.334l-19.55-12.937c-1.676-1.109-2.979-2.698-3.739-4.558l-11.467-28.075c-1.188-2.908-.94-6.206.669-8.904l17.578-29.471c2.4-4.023 7.27-5.841 11.719-4.375l29.725 9.798c2.547.84 5.325.621 7.71-.607l46.728-24.07c3.547-1.827 5.669-5.588 5.398-9.569l-1.416-20.791c-.218-3.208-1.967-6.116-4.698-7.814l-10.16-6.315c-4.352-2.705-5.955-8.262-3.712-12.87l18.703-38.421c84.451 9.248 150.161 80.808 150.161 167.718z" fill="#99d53b"/><path d="m409.585 207.433c0 35.79-11.14 68.99-30.16 96.3l-27.61-9.2c15.35-25.42 24.19-55.23 24.19-87.1 0-76.11-50.38-140.45-119.62-161.47l3.04-6.25c84.45 9.25 150.16 80.81 150.16 167.72z" fill="#8dc637"/><path d="m409.591 207.437c0 19.857-3.433 38.904-9.728 56.599-17.385-4.544-50.203-22.029-44.278-62.964 5.024-34.68 27.073-48.972 40.815-54.597.571-.23 1.141-.35 1.692-.37 7.425 19.005 11.499 39.693 11.499 61.332z" fill="#8dc637"/><path d="m173.868 316.891c-6.025-1.701-14.132-1.741-21.799 5.485-5.054 4.764-10.079 11.42-16.694 16.764-20.588-16.504-37.222-37.732-48.252-62.053 9.488-6.376 21.969-10.049 38.093-7.717 34.69 5.024 48.982 27.073 54.597 40.825 1.561 3.824-1.962 7.817-5.945 6.696z" fill="#31a7fb"/><path d="m161.897 131.782c-31.557 7.947-52.445-4.374-63.615-14.633 19.277-30.376 48.001-54.177 82.031-67.258 2.552.31 5.174.66 7.877 1.051 1.391.2 2.762.561 4.064 1.081 5.675 2.262 9.788 7.316 10.779 13.352 2.832 17.134.12 56.008-41.136 66.407z" fill="#31a7fb"/><path d="m469.798 365.051c-5.191-7.641-15.105-10.475-23.55-6.73l-64.908 28.78c-1.844-12.247-12.41-21.637-25.171-21.637h-54.914c-10.812 0-21.553-1.75-31.805-5.182l-46.337-15.512c-8.013-2.682-16.654-2.854-24.767-.493l-30.09 8.758c-10.881 3.167-19.992 10.646-25.219 20.701-6.771 13.025-16.809 24.067-29.131 32.046l-52.458 33.968 64.752 64.752 67.577-51.658 130.336 8.761c7.488.503 14.964-1.143 21.547-4.746l117.506-64.311c9.891-5.413 12.968-18.17 6.632-27.497z" fill="#ffcec0"/><path d="m463.166 392.543-117.506 64.311c-6.581 3.604-14.062 5.252-21.543 4.753l-130.343-8.765-67.574 51.661-20.417-20.417 70.552-53.928c1.353-1.035 3.038-1.541 4.738-1.428l127.699 8.584c7.488.506 14.961-1.149 21.55-4.745l117.505-64.311c4.639-2.539 7.775-6.687 9.15-11.342 5.07.809 9.763 3.642 12.823 8.138 6.332 9.324 3.257 22.086-6.634 27.489z" fill="#fdb0a0"/></g></g></g></g></g></g></g></g><g><g><path d="m58.981 311.248c-4.385-4.257-6.259-10.496-4.882-16.451 3.912-16.922 21.214-51.834 63.324-45.738 34.686 5.021 48.978 27.072 54.596 40.819 1.564 3.827-1.966 7.821-5.945 6.697-6.022-1.701-14.134-1.74-21.801 5.483-14.571 13.727-28.842 43.193-81.948 11.737-1.208-.716-2.335-1.568-3.344-2.547z" fill="#99d53b"/><path d="m166.074 296.577c-6.026-1.699-14.132-1.741-21.803 5.478-14.565 13.735-28.834 43.196-81.944 11.737-1.21-.712-2.341-1.567-3.346-2.549-3.926-3.802-5.825-9.195-5.208-14.554 50.387 28.292 64.354-.214 78.623-13.656 7.662-7.222 15.781-7.187 21.803-5.478 3.972 1.121 7.502-2.873 5.943-6.701-.016-.047-.042-.098-.058-.145 5.932 6.618 9.647 13.574 11.933 19.167 1.568 3.832-1.962 7.826-5.943 6.701z" fill="#8dc637"/></g></g><g><g><path d="m186.974 27.907c5.676 2.267 9.784 7.322 10.779 13.353 2.826 17.136.121 56.007-41.139 66.405-33.985 8.565-55.597-6.384-66.026-16.956-2.904-2.944-1.161-7.981 2.947-8.456 6.216-.72 13.732-3.773 18.071-13.371 8.247-18.241 10.223-50.922 71.306-42.056 1.39.201 2.757.559 4.062 1.081z" fill="#a3e440"/><path d="m156.613 107.661c-26.062 6.576-44.859-.691-56.899-9.208 9.558 2.162 20.918 2.392 34.169-.941 41.256-10.399 43.968-49.272 41.136-66.407-.32-1.912-.951-3.733-1.842-5.395 3.063.25 6.305.61 9.738 1.111 1.391.21 2.752.561 4.063 1.081 5.675 2.272 9.778 7.326 10.769 13.361 2.834 17.135.131 55.999-41.134 66.398z" fill="#8dc637"/></g></g><g><g><path d="m432.765 240.171c-4.257 4.385-10.496 6.259-16.451 4.882-16.922-3.912-51.834-21.214-45.738-63.324 5.021-34.686 27.072-48.978 40.819-54.596 3.827-1.564 7.821 1.966 6.697 5.945-1.701 6.022-1.74 14.134 5.483 21.801 13.727 14.571 43.193 28.842 11.737 81.948-.716 1.208-1.567 2.335-2.547 3.344z" fill="#a3e440"/><path d="m418.095 133.078c-1.699 6.026-1.741 14.132 5.478 21.803 13.735 14.565 43.196 28.834 11.737 81.944-.712 1.21-1.567 2.341-2.549 3.346-3.802 3.926-9.195 5.825-14.554 5.208 28.292-50.387-.214-64.354-13.656-78.623-7.222-7.662-7.187-15.781-5.478-21.803 1.121-3.972-2.873-7.502-6.701-5.943-.047.016-.098.042-.145.058 6.618-5.932 13.574-9.647 19.167-11.933 3.831-1.568 7.825 1.962 6.701 5.943z" fill="#99d53b"/></g></g></g><path d="m476.003 360.837c-7.234-10.648-21.028-14.589-32.795-9.372l-11.53 5.112c.364-2.026.503-4.1.384-6.187-.424-7.472-4.002-14.459-9.817-19.169-7.049-5.71-16.248-7.27-24.482-4.768-1.48-5.817-4.918-11.108-10.032-14.868-1.039-.764-2.125-1.434-3.242-2.033 12.461-17.522 21.664-37.243 27.025-58.009 1.062.303 2.108.584 3.113.817 1.827.422 3.681.628 5.525.628 1.706 0 3.404-.178 5.067-.522 4.95 4.872 10.624 9.573 17.139 13.988 1.289.873 2.752 1.292 4.2 1.292 2.404 0 4.766-1.153 6.216-3.294 2.323-3.429 1.428-8.092-2.002-10.416-4.414-2.991-8.376-6.135-11.95-9.38 1.095-1.224 2.087-2.563 2.944-4.009 30.323-51.193 7.917-71.739-6.908-85.334-2.142-1.963-4.163-3.817-5.823-5.58-4.065-4.314-5.284-9.097-3.724-14.618 1.303-4.613-.113-9.468-3.698-12.67-3.596-3.213-8.598-4.076-13.054-2.256-3.351 1.369-7.272 3.268-11.387 5.84-6.198-11.876-13.731-23.042-22.49-33.257-2.696-3.146-7.432-3.509-10.575-.812-3.145 2.696-3.508 7.431-.812 10.575 8.622 10.054 15.947 21.11 21.844 32.901-9.9 9.597-18.904 23.934-21.985 45.216-.475 3.275-.734 6.558-.771 9.758-.05 4.142 3.269 7.539 7.41 7.588.03.001.061.001.091.001 4.101 0 7.448-3.3 7.497-7.411.03-2.542.238-5.161.619-7.786 3.88-26.801 18.646-40.133 31.871-46.75-1.033 8.771 1.81 17.136 8.246 23.967 2.036 2.161 4.255 4.195 6.604 6.35 13.893 12.74 28.26 25.913 4.142 66.631-.136.229-.29.439-.439.654-17.144-21.287-20.656-44.608-20.944-58.702-.084-4.143-3.515-7.451-7.651-7.345-4.142.084-7.43 3.51-7.345 7.651.3 14.668 3.635 37.993 18.775 60.433-8.667-3.218-18.488-9.095-25.25-17.979-2.508-3.297-7.215-3.936-10.51-1.426-3.296 2.508-3.935 7.214-1.426 10.51 6.43 8.449 14.945 14.751 23.384 19.117-4.247 17.321-11.414 33.88-21.1 48.892l-43.911-14.624c-7.594-2.532-15.917.403-20.247 7.133l-10.605 16.48c-.256.397-.618.714-1.045.913l-28.677 13.372c-.807.38-1.763.294-2.494-.221l-35.342-24.843c-.969-.681-1.327-1.961-.853-3.047l5.27-12.055c.308-.704.937-1.235 1.683-1.423l38.449-9.651c4.891-1.227 9.015-4.504 11.315-8.993l13.004-25.383c2.763-5.388 2.516-11.943-.644-17.108l-13.989-22.881c-3.157-5.165-8.878-8.373-14.931-8.373h-11.1c-5.986 0-11.491 3.008-14.727 8.046l-19.384 30.192c-.603.938-1.767 1.367-2.83 1.042l-15.672-4.75c-6.255-1.899-12.986-.177-17.564 4.486l-8.821 8.985c-.839.852-2.168.992-3.164.333l-19.549-12.936c-.421-.279-.745-.674-.936-1.141l-11.468-28.076c-.295-.723-.232-1.555.168-2.226l17.578-29.471c.604-1.013 1.807-1.464 2.93-1.094l29.725 9.798c4.43 1.46 9.348 1.073 13.492-1.063l46.729-24.069c6.214-3.2 9.921-9.774 9.445-16.746l-1.415-20.791c-.382-5.601-3.455-10.712-8.222-13.674l-10.16-6.315c-1.092-.679-1.49-2.062-.928-3.218l16.36-33.609c27.851 3.931 53.937 15.031 76.446 32.685 1.373 1.077 3.004 1.599 4.624 1.599 2.225 0 4.427-.985 5.906-2.871 2.557-3.26 1.986-7.974-1.272-10.53-31.27-24.526-68.85-37.49-108.677-37.49-12.496 0-24.938 1.315-37.063 3.908-.675-1.727-1.543-3.367-2.576-4.895 2.622-6.435 4.81-13.474 6.411-21.184.843-4.056-1.762-8.026-5.816-8.869-4.062-.849-8.027 1.761-8.869 5.816-1.085 5.221-2.483 10.082-4.123 14.622-1.552-.548-3.169-.955-4.828-1.195-58.881-8.549-69.349 19.993-76.274 38.879-1 2.727-1.945 5.303-2.942 7.509-2.442 5.403-6.4 8.351-12.1 9.011-4.763.552-8.713 3.71-10.309 8.244-1.601 4.549-.495 9.504 2.885 12.929 2.956 2.997 6.86 6.434 11.715 9.678-21.184 29.843-32.346 64.883-32.346 101.783 0 15.757 2.083 31.344 6.182 46.402-13.86 11.342-21.343 27.746-24.007 39.27-.812 3.515-.813 7.127-.099 10.585-4.875 4.952-9.578 10.628-13.995 17.147-2.323 3.429-1.427 8.093 2.002 10.416 1.289.873 2.752 1.292 4.2 1.292 2.404 0 4.766-1.154 6.216-3.294 2.991-4.414 6.135-8.376 9.38-11.951 1.227 1.099 2.568 2.091 4.009 2.944 18.575 11.003 33.113 15.063 44.75 15.062 5.246 0 9.898-.83 14.068-2.217 9.036 8.884 18.97 16.752 29.65 23.487-4.282 3.875-7.891 8.504-10.589 13.695-6.161 11.851-15.343 21.951-26.553 29.211l-52.458 33.97c-3.478 2.251-4.471 6.895-2.219 10.371 1.436 2.218 3.844 3.425 6.302 3.425 1.396 0 2.811-.39 4.069-1.206l52.458-33.97c13.387-8.668 24.352-20.729 31.709-34.882 4.261-8.196 11.791-14.377 20.66-16.958l30.091-8.759c6.68-1.944 13.694-1.806 20.29.404l46.337 15.513c11.041 3.696 22.543 5.57 34.187 5.57h54.914c9.901 0 17.957 8.056 17.957 17.957 0 9.902-8.056 17.958-17.957 17.958h-66.16c-11.861 0-23.723 1.404-35.254 4.176-4.027.967-6.508 5.017-5.541 9.044.969 4.027 5.015 6.506 9.045 5.54 10.385-2.495 21.067-3.76 31.75-3.76h66.16c17.857 0 32.431-14.278 32.933-32.016l60.185-26.687c5.136-2.276 11.151-.557 14.307 4.088 1.861 2.741 2.459 6.023 1.683 9.244-.777 3.22-2.806 5.869-5.712 7.46l-117.509 64.316c-5.341 2.923-11.369 4.257-17.443 3.842l-130.336-8.761c-1.821-.12-3.612.42-5.058 1.525l-67.577 51.658c-3.291 2.515-3.919 7.222-1.403 10.513 1.476 1.932 3.707 2.946 5.964 2.945 1.588 0 3.189-.502 4.549-1.542l65.335-49.943 127.52 8.571c8.926.593 17.799-1.354 25.651-5.65l117.506-64.311c6.565-3.593 11.337-9.826 13.092-17.102s.348-14.997-3.857-21.188zm-63.199-17.959c2.574 2.085 4.096 5.055 4.283 8.362s-.988 6.43-3.311 8.793l-7.672 7.807c-.04.041-.074.085-.113.127l-20.028 8.881c-2.593-5.466-6.646-10.107-11.653-13.422l23.616-20.326c4.257-3.664 10.514-3.757 14.878-.222zm-33.959-19.208c3.882 2.854 5.567 7.722 4.348 12.32l-25.574 22.011c-.481-.021-.963-.037-1.448-.037h-23.653c15.493-9.461 29.549-21.308 41.506-35.091.307-.354.6-.719.904-1.076 1.4.368 2.721.993 3.917 1.873zm-260.406-251.699c1.224-2.706 2.26-5.532 3.357-8.524 6.49-17.697 13.204-35.998 60.037-29.2.263.038.515.101.77.157-13.155 23.957-33.383 36.084-46.305 41.718-3.797 1.655-5.533 6.075-3.878 9.872 1.229 2.821 3.985 4.505 6.879 4.505 1 0 2.018-.201 2.993-.627 13.446-5.861 33.736-17.822 48.719-40.354.234 7.357-.786 16.347-4.219 24.587-5.625 13.507-16.395 22.351-32.011 26.286-26.258 6.618-44.209-1.96-55.364-11.67 8.504-2.384 15.156-8.198 19.022-16.75zm107.055 265.686c-9.506-3.182-19.619-3.383-29.243-.582l-30.091 8.759c-1.708.497-3.378 1.094-5.011 1.77-10.811-6.161-20.87-13.546-29.999-22.028 5.006-3.865 9.091-8.314 12.687-12.235 1.964-2.141 3.818-4.163 5.581-5.823 4.315-4.065 9.1-5.283 14.616-3.726 4.614 1.307 9.468-.11 12.671-3.695 3.213-3.597 4.078-8.6 2.257-13.056-4.938-12.085-15.267-28.558-36.426-38.41-3.756-1.752-8.216-.121-9.965 3.633-1.749 3.755-.122 8.217 3.633 9.965 14.329 6.672 22.396 17.207 26.887 26.124-8.772-1.041-17.129 1.812-23.959 8.247-2.162 2.036-4.196 4.255-6.35 6.604-12.74 13.893-25.911 28.26-66.638 4.137-.227-.134-.435-.287-.648-.435 21.286-17.143 44.608-20.656 58.702-20.945 4.142-.085 7.43-3.511 7.345-7.651-.083-4.09-3.425-7.347-7.495-7.347-.052 0-.104.001-.156.002-14.67.301-37.997 3.637-60.437 18.779 5.449-14.675 18.843-33.416 43.501-33.875 4.142-.077 7.437-3.497 7.359-7.639-.076-4.094-3.419-7.36-7.496-7.36-.048 0-.095 0-.143.001-8.491.158-15.955 1.919-22.486 4.757-3.021-12.444-4.575-25.25-4.575-38.19 0-34.431 10.623-67.086 30.755-94.731 7.53 2.989 16.397 5.008 26.634 5.008 6.581 0 13.729-.833 21.442-2.777 20.165-5.081 34.755-17.207 42.192-35.064 4.632-11.122 5.54-22.077 5.377-29.89 11.383-2.504 23.079-3.782 34.835-3.782 2.343 0 4.677.051 7.001.149l-13.871 28.5c-3.939 8.091-1.146 17.773 6.496 22.523l10.161 6.315c.68.423 1.119 1.153 1.174 1.952l1.415 20.792c.067.996-.462 1.935-1.35 2.393l-46.729 24.069c-.591.304-1.291.36-1.926.151l-29.725-9.798c-7.841-2.587-16.277.562-20.509 7.656l-17.578 29.471c-2.801 4.696-3.238 10.521-1.171 15.582l11.467 28.075c1.335 3.269 3.598 6.026 6.544 7.978l19.55 12.937c6.975 4.614 16.286 3.632 22.145-2.334l8.822-8.985c.653-.667 1.616-.913 2.508-.641l15.674 4.751c7.453 2.254 15.595-.741 19.803-7.293l19.384-30.192c.463-.721 1.249-1.15 2.104-1.15h11.1c.864 0 1.682.458 2.133 1.196l13.99 22.883c.451.737.486 1.673.092 2.442l-13.004 25.383c-.329.642-.919 1.109-1.618 1.285l-38.45 9.651c-5.218 1.311-9.619 5.035-11.774 9.964l-5.269 12.054c-3.321 7.592-.811 16.562 5.969 21.327l35.342 24.842c2.991 2.104 6.524 3.179 10.075 3.179 2.515 0 5.039-.539 7.386-1.634l28.68-13.374c2.998-1.4 5.528-3.609 7.316-6.39l10.604-16.479c.62-.962 1.81-1.38 2.893-1.019l39.507 13.158c-1.469 1.853-2.964 3.686-4.516 5.474-17.283 19.922-39.348 35.427-63.827 44.872-9.204-.236-18.289-1.818-27.036-4.747z"/></g></svg>