<?xml version="1.0"?>
<svg xmlns="http://www.w3.org/2000/svg" id="Filled" viewBox="0 0 512 512" width="512" height="512"><path d="M368,177.846C368,194.5,352.512,208,333.41,208A37.763,37.763,0,0,1,312,201.531,37.769,37.769,0,0,1,290.587,208C271.485,208,256,194.5,256,177.846a28.07,28.07,0,0,1,9.17-20.451,23.649,23.649,0,0,1-5.876-15.446c0-11.617,8.8-21.445,20.893-24.7C283.958,105.01,296.772,96,312,96s28.041,9.01,31.813,21.248c12.1,3.256,20.893,13.084,20.893,24.7a23.654,23.654,0,0,1-5.876,15.446A28.074,28.074,0,0,1,368,177.846Z" style="fill:#6a9c72"/><path d="M488,169.231C488,190.642,468.088,208,443.528,208A48.561,48.561,0,0,1,416,199.683,48.567,48.567,0,0,1,388.469,208C363.91,208,344,190.642,344,169.231c0-10.149,4.473-19.385,11.79-26.294a30.41,30.41,0,0,1-7.555-19.86c0-14.935,11.308-27.572,26.862-31.759C379.946,75.585,396.421,64,416,64s36.053,11.585,40.9,27.318c15.554,4.187,26.862,16.824,26.862,31.759a30.414,30.414,0,0,1-7.554,19.86C483.525,149.846,488,159.082,488,169.231Z" style="fill:#88c791"/><path d="M224,256v32H32V256l78.46-103.6c8.48-11.2,26.6-11.2,35.08,0Z" style="fill:#828c52"/><path d="M264,256v32H128V256l52.08-71.98a19.8,19.8,0,0,1,31.83,0Z" style="fill:#8f9e46"/><path d="M224,256H24c0,128.13,103.87,232,232,232a233.679,233.679,0,0,0,36.11-2.79C403.089,467.859,488,371.849,488,256H224" style="fill:#a3d4f7"/><path d="M292.109,485.209A233.679,233.679,0,0,1,256,488c-128.13,0-232-103.87-232-232H224s8,32,64,56C337.359,333.149,351.569,416.449,292.109,485.209Z" style="fill:#6a9c72"/><path d="M488,256a231.384,231.384,0,0,1-76.21,171.91c-15.97-26.54-19.1-51.08-3.79-91.91,24-64-32-80-32-80Z" style="fill:#6a9c72"/><path d="M152,72a24.006,24.006,0,0,1-24,24,23.725,23.725,0,0,1-12.14-3.31,39.969,39.969,0,0,1-55.72,0A23.725,23.725,0,0,1,48,96a24,24,0,0,1,0-48,23.1,23.1,0,0,1,3.24.22,40.006,40.006,0,0,1,73.52,0A23.1,23.1,0,0,1,128,48,24.006,24.006,0,0,1,152,72Z" style="fill:#a3d4f7"/><path d="M48,104a31.952,31.952,0,0,0,10.823-1.886,48,48,0,0,0,58.354,0A32,32,0,1,0,129.6,40.04a48.01,48.01,0,0,0-83.2,0A32,32,0,0,0,48,104Zm0-48a15.176,15.176,0,0,1,2.121.141,8,8,0,0,0,8.47-4.764,32.006,32.006,0,0,1,58.818,0,8,8,0,0,0,8.47,4.764A15.176,15.176,0,0,1,128,56a16,16,0,0,1,0,32,15.81,15.81,0,0,1-8.061-2.192,8,8,0,0,0-9.655,1.146,31.97,31.97,0,0,1-44.568,0,8,8,0,0,0-9.655-1.146A15.81,15.81,0,0,1,48,88a16,16,0,0,1,0-32Z"/><path d="M240,48c4.3,0,5.795,1.658,6.688,3.28A12.077,12.077,0,0,1,248,56a8,8,0,0,0,16,.082,12.032,12.032,0,0,1,1.312-4.8C266.205,49.658,267.7,48,272,48a8,8,0,0,0,0-16c-7.01,0-12.241,2.274-16,5.621C252.241,34.274,247.01,32,240,32a8,8,0,0,0,0,16Z"/><path d="M200,101.621C196.241,98.274,191.01,96,184,96a8,8,0,0,0,0,16c4.3,0,5.795,1.658,6.688,3.28A12.077,12.077,0,0,1,192,120a8,8,0,0,0,16,.082,12.032,12.032,0,0,1,1.312-4.8c.893-1.622,2.386-3.28,6.688-3.28a8,8,0,0,0,0-16C208.99,96,203.759,98.274,200,101.621Z"/><path d="M256,496A240,240,0,0,0,496,256a8,8,0,0,0-8-8H424V212.645A57.931,57.931,0,0,0,443.529,216C472.462,216,496,195.02,496,169.231a43.218,43.218,0,0,0-9.533-26.916,37.512,37.512,0,0,0,5.3-19.238c0-17.042-11.376-31.949-28.72-38.207C455.682,67.676,436.977,56,416,56s-39.682,11.676-47.045,28.87A44.317,44.317,0,0,0,345.569,103.7C338.06,94.089,325.617,88,312,88c-16.737,0-31.7,9.2-37.909,22.827-13.8,5.266-22.8,17.337-22.8,31.123a30.866,30.866,0,0,0,3.776,14.817A35.26,35.26,0,0,0,248,177.85c0,21.036,19.105,38.15,42.59,38.15A47.171,47.171,0,0,0,304,214.074V248H268.086L218.4,179.327a27.815,27.815,0,0,0-43.589-1.533l-22.888-30.223a30.506,30.506,0,0,0-47.836,0L28.023,248H24a8,8,0,0,0-8,8A240,240,0,0,0,256,496Zm80.276-133.09c-6.326-27.45-22.773-48.686-45.125-58.263-32.245-13.82-47.434-30.316-54.265-40.647H374.713c3.954,1.409,19.373,7.731,26.9,22.819,6.169,12.368,5.8,27.97-1.1,46.372-14.24,37.973-14.058,64.685,1.116,93.023a221.946,221.946,0,0,1-90.174,46.9C335.157,438.145,344.406,398.186,336.276,362.91Zm78.116,51.482c-.18.18-.364.352-.544.531-12.5-25.992-8.852-48.128,1.642-76.114,8.562-22.83,8.675-42.794.336-59.337A57.562,57.562,0,0,0,404.358,264h75.5A222.4,222.4,0,0,1,414.392,414.392Zm-53.11-265.639a8,8,0,0,0,.586-11.017,22.4,22.4,0,0,1-5.633-14.659c0-11,8.416-20.662,20.942-24.034a8,8,0,0,0,5.566-5.368C386.676,80.913,400.353,72,416,72s29.324,8.913,33.257,21.675a8,8,0,0,0,5.566,5.368c12.526,3.372,20.942,13.03,20.942,24.034a22.4,22.4,0,0,1-5.633,14.659,8,8,0,0,0,.586,11.017A28.178,28.178,0,0,1,480,169.231C480,186.2,463.64,200,443.529,200A40.923,40.923,0,0,1,424,195.18v-14.9l20.438-13.625a8,8,0,0,0-8.876-13.312L424,161.052V144a8,8,0,0,0-16,0v17.052l-11.562-7.708a8,8,0,1,0-8.876,13.312L408,180.281v14.9A40.923,40.923,0,0,1,388.471,200C368.36,200,352,186.2,352,169.231A28.178,28.178,0,0,1,361.282,148.753ZM290.59,200c-14.662,0-26.59-9.937-26.59-22.15a20.142,20.142,0,0,1,6.661-14.632,8,8,0,0,0,.592-11.014,15.7,15.7,0,0,1-3.963-10.254c0-7.747,6.019-14.568,14.976-16.974a8,8,0,0,0,5.57-5.372C290.666,110.417,300.6,104,312,104s21.334,6.417,24.164,15.6a7.984,7.984,0,0,0,4.116,4.808,37.518,37.518,0,0,0,5.253,17.9,42.717,42.717,0,0,0,.869,54.836A30.711,30.711,0,0,1,333.41,200,30.248,30.248,0,0,1,320,196.955V160a8,8,0,0,0-16,0v11.056l-4.422-2.211a8,8,0,0,0-7.156,14.31L304,188.944v8.011A30.248,30.248,0,0,1,290.59,200ZM320,214.074A47.171,47.171,0,0,0,333.41,216a46.145,46.145,0,0,0,25.939-7.887A56.763,56.763,0,0,0,388.471,216,57.931,57.931,0,0,0,408,212.645V248H320ZM196,184a11.472,11.472,0,0,1,9.436,4.707L248.336,248H143.662l42.9-59.293A11.472,11.472,0,0,1,196,184Zm-79.158-26.771a14.528,14.528,0,0,1,22.324,0l25.788,34.053L123.914,248H48.094ZM218.539,264c5.243,11.3,21.3,36.063,66.311,55.354,17.607,7.544,30.669,24.729,35.835,47.149,8.189,35.533-4.047,76.917-32.74,111.239A227.273,227.273,0,0,1,256,480,224,224,0,0,1,32.14,264Z"/></svg>
