<svg height="512" viewBox="0 0 64 64" width="512" xmlns="http://www.w3.org/2000/svg"><g id="Layer_24" data-name="Layer 24"><path d="m18.029 25.111h4v12h-4z" fill="#de887b" transform="matrix(.94 -.342 .342 .94 -9.433 8.727)"/><path d="m23.954 12.655a4.985 4.985 0 0 0 -3.354-3.094 4.947 4.947 0 0 0 -4.921-4.193 6.417 6.417 0 0 0 -5.226-.568 6.416 6.416 0 0 0 -3.637 3.793 4.941 4.941 0 0 0 -1.074 6.375 4.973 4.973 0 0 0 2.774 7.623 4.948 4.948 0 0 0 4.92 4.192 6.416 6.416 0 0 0 5.225.569 6.416 6.416 0 0 0 3.639-3.794 4.941 4.941 0 0 0 1.074-6.375 4.982 4.982 0 0 0 .58-4.528z" fill="#6dbc53"/><path d="m20.661 24.352a6.416 6.416 0 0 1 -5.225-.569 4.948 4.948 0 0 1 -4.92-4.192 4.973 4.973 0 0 1 -2.774-7.623 5.038 5.038 0 0 1 -.413-.855 4.934 4.934 0 0 1 .3-4.033 8.274 8.274 0 0 0 -.815 1.513 4.941 4.941 0 0 0 -1.074 6.375 4.973 4.973 0 0 0 2.774 7.623 4.948 4.948 0 0 0 4.92 4.192 6.416 6.416 0 0 0 5.225.569 6.416 6.416 0 0 0 3.641-3.794 5.014 5.014 0 0 0 1.185-1.487 5.841 5.841 0 0 1 -2.824 2.281z" fill="#62a94b"/><path d="m32.411 32.989a5.232 5.232 0 0 0 -.359-.793 5.027 5.027 0 0 0 -4.543-2.486 4.852 4.852 0 0 0 -1.807.413 7.537 7.537 0 0 1 -3.618.7 4.944 4.944 0 0 0 -3.812 1.388 7.535 7.535 0 0 1 -3.224 1.789 4.847 4.847 0 0 0 -1.648.846 5.028 5.028 0 0 0 -1.883 4.824 5.223 5.223 0 0 0 .235.838h-.007l2.394 6.578 20.673-7.524-2.394-6.578z" fill="#62a94b"/><path d="m41.971 25.111h4v12h-4z" fill="#de887b" transform="matrix(-.94 -.342 .342 -.94 74.649 75.384)"/><path d="m40.046 12.655a4.985 4.985 0 0 1 3.354-3.094 4.947 4.947 0 0 1 4.921-4.193 6.417 6.417 0 0 1 5.226-.568 6.416 6.416 0 0 1 3.637 3.794 4.941 4.941 0 0 1 1.074 6.375 4.973 4.973 0 0 1 -2.774 7.623 4.948 4.948 0 0 1 -4.92 4.192 5.949 5.949 0 0 1 -8.864-3.226 4.941 4.941 0 0 1 -1.074-6.375 4.982 4.982 0 0 1 -.58-4.528z" fill="#6dbc53"/><path d="m31.589 32.989a5.232 5.232 0 0 1 .359-.793 5.027 5.027 0 0 1 4.543-2.486 4.852 4.852 0 0 1 1.807.413 7.537 7.537 0 0 0 3.618.7 4.944 4.944 0 0 1 3.812 1.388 7.535 7.535 0 0 0 3.224 1.789 4.847 4.847 0 0 1 1.648.846 5.028 5.028 0 0 1 1.883 4.824 5.223 5.223 0 0 1 -.235.838h.007l-2.394 6.578-20.673-7.521 2.394-6.578z" fill="#62a94b"/><path d="m43.4 9.561a4.972 4.972 0 0 0 -2.774 7.622 5.038 5.038 0 0 0 -.413.855 4.944 4.944 0 0 0 .39 4.2 4.911 4.911 0 0 0 2.3-5.179 4.963 4.963 0 0 0 .541-7.659c-.011.052-.033.106-.044.161z" fill="#62a94b"/><path d="m30 23h4v12h-4z" fill="#de887b"/><path d="m42 13a4.985 4.985 0 0 0 -2.095-4.056 4.945 4.945 0 0 0 -3.19-5.623 6.415 6.415 0 0 0 -4.715-2.321 6.415 6.415 0 0 0 -4.715 2.321 4.945 4.945 0 0 0 -3.185 5.623 4.974 4.974 0 0 0 0 8.112 4.945 4.945 0 0 0 3.19 5.623 6.415 6.415 0 0 0 4.71 2.321 6.415 6.415 0 0 0 4.715-2.321 4.945 4.945 0 0 0 3.19-5.623 4.985 4.985 0 0 0 2.095-4.056z" fill="#6dbc53"/><path d="m30.285 22.679a4.945 4.945 0 0 1 -3.19-5.623 4.974 4.974 0 0 1 0-8.112 4.945 4.945 0 0 1 3.19-5.623 7.033 7.033 0 0 1 3.215-2.1 5.4 5.4 0 0 0 -1.5-.221 6.415 6.415 0 0 0 -4.715 2.321 4.945 4.945 0 0 0 -3.185 5.623 4.974 4.974 0 0 0 0 8.112 4.945 4.945 0 0 0 3.19 5.623 6.415 6.415 0 0 0 4.71 2.321 5.4 5.4 0 0 0 1.5-.222 7.033 7.033 0 0 1 -3.215-2.099z" fill="#62a94b"/><path d="m42.992 35a5.269 5.269 0 0 0 -.065-.869 5.028 5.028 0 0 0 -3.42-3.889 4.839 4.839 0 0 0 -1.838-.23 7.548 7.548 0 0 1 -3.641-.576 4.934 4.934 0 0 0 -4.056 0 7.548 7.548 0 0 1 -3.641.576 4.839 4.839 0 0 0 -1.838.23 5.028 5.028 0 0 0 -3.42 3.889 5.269 5.269 0 0 0 -.065.869h-.008v7h22v-7z" fill="#6dbc53"/><path d="m32 33a31 31 0 0 0 -30.975 30h61.95a31 31 0 0 0 -30.975-30z" fill="#98deea"/><path d="m32 33a31 31 0 0 0 -30.975 30h19.515a3.757 3.757 0 0 0 3.693-4.625l-.012-.047-1.047-3.928a3.5 3.5 0 0 1 3.382-4.4h.944a3.5 3.5 0 0 0 3.5-3.5v-2a3.459 3.459 0 0 1 3.438-3.5 3.5 3.5 0 0 0 3.562-3.5v-3.914a31.134 31.134 0 0 0 -6-.586z" fill="#6dbc53"/><path d="m33.5 33.037q-.745-.037-1.5-.037a31 31 0 0 0 -30.975 30h3a31 31 0 0 1 29.475-29.963z" fill="#62a94b"/><g fill="#6dbc53"><path d="m50.542 39.154a7 7 0 0 0 1.458 13.846h8.984a31.079 31.079 0 0 0 -10.442-13.846z"/><rect height="6" rx="2" width="4" x="30" y="53"/><rect height="4" rx="2" width="4" x="37" y="45"/><path d="m55 57a2 2 0 0 1 2 2v4a0 0 0 0 1 0 0h-4a0 0 0 0 1 0 0v-4a2 2 0 0 1 2-2z"/><path d="m49 63v-2a2 2 0 0 0 -2-2 2 2 0 0 1 -2-2 2 2 0 0 0 -2-2 4 4 0 0 0 -4 4v4z"/><path d="m9 30c0 1.657-2 3-2 3s-2-1.343-2-3 2-3 2-3 2 1.343 2 3z"/><path d="m59 33c0 1.657-2 3-2 3s-2-1.343-2-3 2-3 2-3 2 1.343 2 3z"/></g><path d="m53.39 40.134c.022-.092.06-.193.077-.282a6.04 6.04 0 0 0 -2.254-5.8 5.873 5.873 0 0 0 -1.987-1.018 6.808 6.808 0 0 1 -2.344-1.154l1.185-3.257a8.484 8.484 0 0 0 2.748-.85 6.013 6.013 0 0 0 5.375-3.924c.059-.162.111-.327.155-.5a5.965 5.965 0 0 0 3.064-8.417c.076-.161.143-.321.2-.482a6.012 6.012 0 0 0 -1.594-6.461 7.277 7.277 0 0 0 -4.125-4.129 7.283 7.283 0 0 0 -5.819.514 6.014 6.014 0 0 0 -5.371 3.926c-.059.162-.11.327-.155.5a6.207 6.207 0 0 0 -.891.442 6.017 6.017 0 0 0 -.675-.718c.013-.179.021-.353.021-.524a6.014 6.014 0 0 0 -3.708-5.527 7.282 7.282 0 0 0 -5.292-2.473 7.282 7.282 0 0 0 -5.292 2.473 6.014 6.014 0 0 0 -3.708 5.527c0 .171.008.345.025.521a6.017 6.017 0 0 0 -.675.718 6.207 6.207 0 0 0 -.891-.442c-.045-.172-.1-.337-.155-.5a6.014 6.014 0 0 0 -5.375-3.925 7.279 7.279 0 0 0 -5.819-.512 7.277 7.277 0 0 0 -4.126 4.134 6.013 6.013 0 0 0 -1.594 6.462c.058.161.125.32.2.481a5.965 5.965 0 0 0 3.064 8.417q.066.256.155.5a6.012 6.012 0 0 0 5.375 3.925 8.484 8.484 0 0 0 2.748.85l1.185 3.257a6.824 6.824 0 0 1 -2.345 1.155 5.871 5.871 0 0 0 -1.987 1.017 6.04 6.04 0 0 0 -2.253 5.8c.018.1.053.188.076.284a31.872 31.872 0 0 0 -10.582 22.827 1 1 0 0 0 1 1.031h61.95a1 1 0 0 0 1-1.031 31.87 31.87 0 0 0 -10.586-22.835zm6.133 11.866h-7.523a5.989 5.989 0 0 1 -1.608-11.761 29.8 29.8 0 0 1 9.131 11.761zm-9.536-16.364a4.059 4.059 0 0 1 1.56 2.972 31.763 31.763 0 0 0 -7.607-4.33c-.012-.1-.011-.214-.027-.312a5.775 5.775 0 0 0 -.776-2.038 3.453 3.453 0 0 1 1.892 1 8.445 8.445 0 0 0 3.647 2.032 3.882 3.882 0 0 1 1.311.676zm-17.987-3.636a32.316 32.316 0 0 0 -9.694 1.481 4.064 4.064 0 0 1 2.494-2.287 3.867 3.867 0 0 1 1.461-.185 8.448 8.448 0 0 0 4.123-.662 3.958 3.958 0 0 1 3.234 0 8.438 8.438 0 0 0 4.123.662 3.811 3.811 0 0 1 1.461.185 4.064 4.064 0 0 1 2.493 2.287 32.316 32.316 0 0 0 -9.695-1.481zm-13.221-1.4-.746-2.049a5.713 5.713 0 0 0 1.88-.684l.745 2.048a5.5 5.5 0 0 0 -1.879.685zm5.842-8.529a6.007 6.007 0 0 0 2.087 1.456 8.493 8.493 0 0 0 2.292 1.731v3.473a6.8 6.8 0 0 1 -2.6.283 5.869 5.869 0 0 0 -2.215.276 5.968 5.968 0 0 0 -1.165.532c-.091.008-.178 0-.268 0l-1.185-3.257a8.5 8.5 0 0 0 1.561-2.409 6.265 6.265 0 0 0 1.493-2.085zm14.758 0a6.265 6.265 0 0 0 1.491 2.088 8.486 8.486 0 0 0 1.562 2.41l-1.184 3.251c-.095 0-.187 0-.283 0a6 6 0 0 0 -1.152-.525 5.925 5.925 0 0 0 -2.215-.276 6.767 6.767 0 0 1 -2.6-.283v-3.478a8.493 8.493 0 0 0 2.292-1.731 6.007 6.007 0 0 0 2.089-1.456zm4.933 8.1a5.954 5.954 0 0 0 -.97-.256l.745-2.048a5.713 5.713 0 0 0 1.88.684l-.746 2.049a5.858 5.858 0 0 0 -.909-.429zm-11.312-2.077a5.994 5.994 0 0 0 -2 0v-2.182a5.726 5.726 0 0 0 2 0zm10.672-17.57a1 1 0 0 0 .717-.8 3.917 3.917 0 0 1 .187-.738 4.006 4.006 0 0 1 3.75-2.615 1 1 0 0 0 .461-.115 5.52 5.52 0 0 1 4.418-.514 5.511 5.511 0 0 1 3.054 3.234.99.99 0 0 0 .28.384 3.947 3.947 0 0 1 .86 5.1 1 1 0 0 0 .034 1.075 3.973 3.973 0 0 1 -2.219 6.095 1 1 0 0 0 -.717.8 3.945 3.945 0 0 1 -3.936 3.351 1.015 1.015 0 0 0 -.462.114 5.515 5.515 0 0 1 -4.418.516 5.521 5.521 0 0 1 -3.055-3.235 1 1 0 0 0 -.279-.384 4.067 4.067 0 0 1 -1.454-3.67c0-.018 0-.034 0-.052a5.869 5.869 0 0 0 .107-1.07c0-.171-.008-.345-.025-.521a6.005 6.005 0 0 0 2.025-4.479 5.932 5.932 0 0 0 -.356-2 4.056 4.056 0 0 1 1.028-.476zm-18.994-.767a1 1 0 0 0 .4-1 3.948 3.948 0 0 1 -.078-.757 4.007 4.007 0 0 1 2.629-3.74.993.993 0 0 0 .395-.26 5.512 5.512 0 0 1 3.976-2 5.512 5.512 0 0 1 3.976 2 .993.993 0 0 0 .4.265 4.007 4.007 0 0 1 2.624 3.735 3.948 3.948 0 0 1 -.078.757 1 1 0 0 0 .4 1 3.973 3.973 0 0 1 0 6.486 1 1 0 0 0 -.4 1 3.948 3.948 0 0 1 .078.757 4.007 4.007 0 0 1 -2.629 3.74.993.993 0 0 0 -.4.265 5.512 5.512 0 0 1 -3.971 1.995 5.512 5.512 0 0 1 -3.976-2 .993.993 0 0 0 -.395-.265 4.007 4.007 0 0 1 -2.629-3.735 3.948 3.948 0 0 1 .078-.757 1 1 0 0 0 -.4-1 3.973 3.973 0 0 1 0-6.486zm-11.239 16.026a4.006 4.006 0 0 1 -3.75-2.616 3.963 3.963 0 0 1 -.186-.735 1 1 0 0 0 -.717-.8 3.973 3.973 0 0 1 -2.219-6.095 1 1 0 0 0 .033-1.08 3.947 3.947 0 0 1 .86-5.1.99.99 0 0 0 .28-.384 5.511 5.511 0 0 1 3.06-3.234 5.513 5.513 0 0 1 4.418.514 1 1 0 0 0 .461.115 4.008 4.008 0 0 1 3.751 2.616 3.965 3.965 0 0 1 .186.737 1 1 0 0 0 .717.8 4.056 4.056 0 0 1 1.023.479 5.932 5.932 0 0 0 -.356 2 6.005 6.005 0 0 0 2.025 4.479c-.017.176-.025.35-.025.521a5.869 5.869 0 0 0 .109 1.072c0 .018-.005.034 0 .052a4.067 4.067 0 0 1 -1.454 3.67 1 1 0 0 0 -.279.384 5.521 5.521 0 0 1 -3.055 3.235 5.524 5.524 0 0 1 -4.421-.513 1.015 1.015 0 0 0 -.461-.117zm.573 9.853a3.884 3.884 0 0 1 1.31-.674 8.461 8.461 0 0 0 3.649-2.032 3.9 3.9 0 0 1 1.4-.879 3.861 3.861 0 0 1 .493-.123 5.777 5.777 0 0 0 -.777 2.038c-.017.1-.016.208-.027.312a31.743 31.743 0 0 0 -7.607 4.33 4.062 4.062 0 0 1 1.559-2.972zm17.988-1.636a30.594 30.594 0 0 1 5 .417v3.083a2.481 2.481 0 0 1 -.748 1.783 2.6 2.6 0 0 1 -1.8.716 4.257 4.257 0 0 0 -3.1 1.25 4.586 4.586 0 0 0 -1.352 3.251v2a2.5 2.5 0 0 1 -2.5 2.5h-.944a4.5 4.5 0 0 0 -4.348 5.659l1.058 3.97a2.609 2.609 0 0 1 -.477 2.263 2.825 2.825 0 0 1 -2.249 1.108h-18.465a29.85 29.85 0 0 1 29.925-28zm8 28v-3a3 3 0 0 1 3-3 1 1 0 0 1 1 1 3 3 0 0 0 3 3 1 1 0 0 1 1 1v1zm14 0v-3a1 1 0 0 1 2 0v3zm4 0v-3a3 3 0 0 0 -6 0v3h-2v-1a3 3 0 0 0 -3-3 1 1 0 0 1 -1-1 3 3 0 0 0 -3-3 5.006 5.006 0 0 0 -5 5v3h-13.55a4.615 4.615 0 0 0 .737-3.93l-1.047-3.926a2.5 2.5 0 0 1 2.416-3.144h.944a4.505 4.505 0 0 0 4.5-4.5v-2a2.571 2.571 0 0 1 .764-1.825 2.34 2.34 0 0 1 1.657-.675 4.548 4.548 0 0 0 3.233-1.289 4.469 4.469 0 0 0 1.346-3.211v-2.687a29.8 29.8 0 0 1 9.423 4.031 8 8 0 0 0 3.577 15.156h8.3a30.227 30.227 0 0 1 1.625 8z"/><path d="m32 52a3 3 0 0 0 -3 3v2a3 3 0 0 0 6 0v-2a3 3 0 0 0 -3-3zm1 5a1 1 0 0 1 -2 0v-2a1 1 0 0 1 2 0z"/><path d="m39 44a3 3 0 1 0 3 3 3 3 0 0 0 -3-3zm0 4a1 1 0 1 1 1-1 1 1 0 0 1 -1 1z"/><path d="m7 34a1 1 0 0 0 .558-.17c.25-.168 2.442-1.702 2.442-3.83s-2.192-3.662-2.442-3.83a1 1 0 0 0 -1.116 0c-.25.168-2.442 1.702-2.442 3.83s2.192 3.662 2.442 3.83a1 1 0 0 0 .558.17zm0-5.711a2.756 2.756 0 0 1 1 1.711 2.754 2.754 0 0 1 -1 1.711 2.756 2.756 0 0 1 -1-1.711 2.754 2.754 0 0 1 1-1.711z"/><path d="m57.558 29.17a1 1 0 0 0 -1.116 0c-.25.168-2.442 1.702-2.442 3.83s2.192 3.662 2.442 3.83a1 1 0 0 0 1.116 0c.25-.168 2.442-1.701 2.442-3.83s-2.192-3.662-2.442-3.83zm-.558 5.54a2.764 2.764 0 0 1 -1-1.71 2.754 2.754 0 0 1 1-1.711 2.756 2.756 0 0 1 1 1.711 2.752 2.752 0 0 1 -1 1.71z"/></g></svg>