<?xml version="1.0"?>
<svg xmlns="http://www.w3.org/2000/svg" viewBox="0 0 64 64" width="512" height="512"><g id="_4-hand_holding_plant" data-name="4-hand holding plant"><path d="M55,34,38,44v9L53,43c6-4,6-9,6-9Z" style="fill:#e7cea0"/><path d="M57,38,40,48v9L55,47c6-4,6-9,6-9Z" style="fill:#e7cea0"/><path d="M49,44a5,5,0,0,0-3-4.59c0-.14,0-.27,0-.41,0-3.31-3.13-6-7-6a8,8,0,0,0-2.43.38A7.43,7.43,0,0,0,31,31c-3.87,0-7,2.69-7,6a5.24,5.24,0,0,0,.75,2.69A6,6,0,0,0,21,45c0,3.31,3.13,6,7,6a7.81,7.81,0,0,0,3.92-1A7.27,7.27,0,0,0,38,53a7,7,0,0,0,6.62-4.06A5,5,0,0,0,49,44Z" style="fill:#d89670"/><path d="M13,64l7-7,11.42,4A12,12,0,0,0,42,59.78L57,50c6-4,6-9,6-9H59L42,51,23.77,47.35A2.19,2.19,0,0,1,22,45.2h0A2.19,2.19,0,0,1,24.2,43H39a3,3,0,0,0,3-3h0a3,3,0,0,0-3-3H16.49a6,6,0,0,0-4.25,1.76L0,51V64Z" style="fill:#e7cea0"/><path d="M35,18C16,22,19,1,19,1s7.84,3,11,3c4,0,8,4,8,8A7.5,7.5,0,0,1,35,18Z" style="fill:#95c590"/><path d="M43,7c6-3,9-2,9-2a50.66,50.66,0,0,0-1,8c0,4-4,6-8,6C38,19,37,10,43,7Z" style="fill:#899c69"/><path d="M30.52,19.51a33,33,0,0,0,5-.68,8.35,8.35,0,0,0,2.57-3.06C38.78,18.38,40.64,20,43,20c4.33,0,9-2.19,9-7a50,50,0,0,1,1-7.8,1,1,0,0,0-.66-1.15c-.35-.11-3.58-1-9.77,2.06A8.29,8.29,0,0,0,38.72,10c-1-3.78-4.84-7-8.72-7C27.56,3,21.49.88,19.36.07A1,1,0,0,0,18,.86c-.06.42-1.42,10.46,4.14,15.67A11.79,11.79,0,0,0,30.52,19.51ZM43.45,7.89a16.39,16.39,0,0,1,7.13-2h.24A45.13,45.13,0,0,0,50,13c0,3.44-3.63,5-7,5a2.65,2.65,0,0,1-.71-.09l4.52-6.33a1,1,0,0,0-1.62-1.16l-4.5,6.29A4.71,4.71,0,0,1,40,15.18,6.55,6.55,0,0,1,43.45,7.89ZM19.88,2.39C22.26,3.25,27.45,5,30,5a7.58,7.58,0,0,1,7,7,6.46,6.46,0,0,1-1.91,4.61L26.74,7.33a1,1,0,1,0-1.48,1.34L33,17.32c-4.12.56-7.32-.19-9.52-2.25C19.77,11.57,19.72,5.1,19.88,2.39Z"/><path d="M39,30V20a1,1,0,0,0-2,0V30a1,1,0,0,0,2,0Z"/><path d="M63,40H61.66A8.24,8.24,0,0,0,62,38a1,1,0,0,0-1-1H59.32A9.31,9.31,0,0,0,60,34a1,1,0,0,0-1-1H55a1,1,0,0,0-.51.14l-5,3a1,1,0,0,0,1,1.72L55.28,35h2.57c-.09.43-.6,2-.6,2H57a1,1,0,0,0-.51.14l-5,3a1,1,0,0,0,1,1.72L57.28,39h2.57l-.29,1H59a1,1,0,0,0-.51.14l-16.67,9.8L24,46.37A1.2,1.2,0,0,1,24.2,44H39a4,4,0,0,0,0-8H16.49a7,7,0,0,0-4.95,2L.29,49.29a1,1,0,0,0,1.42,1.42L13,39.46A5,5,0,0,1,16.49,38H39a2,2,0,0,1,0,4H24.2a3.2,3.2,0,0,0-.63,6.33L41.8,52a1,1,0,0,0,.71-.12L59.27,42h2.59c-.33,1.53-1.48,4.54-5.4,7.16L41.41,58.94a11.05,11.05,0,0,1-9.65,1.15l-11.43-4a1,1,0,0,0-1,.23l-6,6a1,1,0,0,0,0,1.42,1,1,0,0,0,1.42,0l5.55-5.56L31.09,62A13.11,13.11,0,0,0,42.5,60.62l15-9.79C63.93,46.58,64,41.23,64,41A1,1,0,0,0,63,40Z"/><path d="M31,30a8.44,8.44,0,0,0-6.83,3.45,1,1,0,0,0,.27,1.38,1,1,0,0,0,1.39-.27,6.51,6.51,0,0,1,10.34,0A1,1,0,0,0,37,35a.94.94,0,0,0,.55-.17,1,1,0,0,0,.28-1.38A8.44,8.44,0,0,0,31,30Z"/><path d="M40,34c3.32,0,5.09,3.42,5.11,3.45A1,1,0,0,0,46,38a.93.93,0,0,0,.45-.11,1,1,0,0,0,.44-1.34C46.8,36.37,44.57,32,40,32a1,1,0,0,0,0,2Z"/><path d="M45.5,40.5a2,2,0,0,1,2,2,1,1,0,0,0,2,0,4,4,0,0,0-4-4,1,1,0,0,0,0,2Z"/></g></svg>
