<svg id="Layer_1_1_" enable-background="new 0 0 64 64" height="512" viewBox="0 0 64 64" width="512" xmlns="http://www.w3.org/2000/svg"><path d="m26 33h12v20h-12z" fill="#a8a8a8"/><path d="m18 38h8v15h-8z" fill="#999"/><path d="m38 38h8v15h-8z" fill="#999"/><path d="m5 61.727c6.42-7.773 16.131-12.727 27-12.727 10.995 0 20.806 5.07 27.223 13" fill="#a7dbfc"/><path d="m49.709 53.819c-3.644 3.539-8.03 6.317-12.909 8.068l22.423.113c-2.644-3.268-5.872-6.039-9.514-8.181z" fill="#90d2fc"/><path d="m11 61 2-2 3 1h3l4-1-1-3h-4l-2.74-2.74c-2.535 1.383-4.873 3.078-6.979 5.021z" fill="#63bc94"/><path d="m41 50.182v3.818l-3 3 1 3 5-1 4 2 9-1 .355-.109c-4.388-4.613-10.016-8.026-16.355-9.709z" fill="#63bc94"/><path d="m42.363 59.327 1.637-.327 4 2 9-1 .355-.109c-2.247-2.363-4.824-4.405-7.652-6.067-2.195 2.132-4.66 3.983-7.34 5.503z" fill="#55a17e"/><path d="m34 29h-4c-1.105 0-2 .895-2 2v2h8v-2c0-1.105-.895-2-2-2z" fill="#dbdbdb"/><path d="m30 45h4v4h-4z" fill="#eaeaea"/><circle cx="32" cy="12" fill="#a7dbfc" r="9"/><path d="m29 11h6v5h-6z" fill="#eaeaea"/><path d="m32 7-5 4h10z" fill="#ff8088"/><circle cx="52" cy="25" fill="#a7dbfc" r="9"/><path d="m54.826 22.033c-.404-1.18-1.51-2.033-2.826-2.033s-2.422.853-2.826 2.033c-1.225.161-2.174 1.198-2.174 2.467 0 1.381 1.119 2.5 2.5 2.5h5c1.381 0 2.5-1.119 2.5-2.5 0-1.269-.949-2.306-2.174-2.467z" fill="#63bc94"/><circle cx="12" cy="25" fill="#a7dbfc" r="9"/><circle cx="12" cy="23" fill="#ffd6a8" r="3"/><path d="m13 26h-2c-2.209 0-4 1.791-4 4v2.482c1.43.958 3.149 1.518 5 1.518s3.57-.56 5-1.518v-2.482c0-2.209-1.791-4-4-4z" fill="#eaeaea"/><path d="m52 35c5.514 0 10-4.486 10-10s-4.486-10-10-10-10 4.486-10 10 4.486 10 10 10zm0-18c4.411 0 8 3.589 8 8s-3.589 8-8 8-8-3.589-8-8 3.589-8 8-8z"/><path d="m32 22c5.514 0 10-4.486 10-10s-4.486-10-10-10-10 4.486-10 10 4.486 10 10 10zm0-18c4.411 0 8 3.589 8 8s-3.589 8-8 8-8-3.589-8-8 3.589-8 8-8z"/><path d="m49.5 28h1.5v3h2v-3h1.5c1.93 0 3.5-1.57 3.5-3.5 0-1.54-1.021-2.88-2.456-3.33-.678-1.318-2.038-2.17-3.544-2.17s-2.866.852-3.544 2.17c-1.435.45-2.456 1.79-2.456 3.33 0 1.93 1.57 3.5 3.5 3.5zm-.195-4.976c.377-.049.692-.308.815-.667.277-.812 1.033-1.357 1.88-1.357s1.603.545 1.88 1.356c.123.359.438.618.815.667.744.099 1.305.734 1.305 1.477 0 .827-.673 1.5-1.5 1.5h-5c-.827 0-1.5-.673-1.5-1.5 0-.743.561-1.378 1.305-1.476z"/><path d="m28 12v4c0 .552.447 1 1 1h6c.553 0 1-.448 1-1v-4h1c.425 0 .803-.268.943-.669s.013-.847-.318-1.112l-5-4c-.365-.292-.885-.292-1.25 0l-5 4c-.331.265-.459.711-.318 1.112s.518.669.943.669zm6 3h-4v-3h4zm-2-6.719 2.149 1.719h-4.299z"/><path d="m29 36h6v2h-6z"/><path d="m29 40h6v2h-6z"/><path d="m41 41h2v2h-2z"/><path d="m41 45h2v2h-2z"/><path d="m21 41h2v2h-2z"/><path d="m21 45h2v2h-2z"/><path d="m37.293 56.293c-.268.268-.361.664-.241 1.023l1 3c.159.479.648.762 1.145.664l4.663-.933 3.693 1.847c.139.07.293.106.447.106.037 0 .073-.002.11-.006l8.926-.992c.483.527.956 1.066 1.409 1.627l1.555-1.258c-3.56-4.4-8.018-7.817-13-10.101v-13.27c0-.552-.447-1-1-1h-7v-4c0-.552-.447-1-1-1h-1v-1c0-1.654-1.346-3-3-3h-1v-2h-2v2h-1c-1.654 0-3 1.346-3 3v1h-1c-.553 0-1 .448-1 1v4h-7c-.553 0-1 .448-1 1v13.272c-4.876 2.235-9.252 5.558-12.771 9.819l1.543 1.273c.784-.949 1.614-1.846 2.483-2.696l2.038 2.038c.195.196.451.294.707.294s.512-.098.707-.293l1.563-1.563 2.413.805c.103.034.21.051.317.051h3c.082 0 .163-.01.242-.03l4-1c.271-.067.5-.245.635-.489.134-.245.16-.533.071-.798l-1-3c-.136-.408-.517-.683-.948-.683h-3.586l-1.478-1.478c4.623-2.287 9.757-3.522 15.064-3.522 2.73 0 5.41.332 8 .955v2.631zm-20 .414c.187.188.441.293.707.293h3.279l.431 1.292-2.833.708h-2.715l-2.846-.949c-.359-.121-.756-.025-1.023.242l-1.293 1.293-1.276-1.276c1.669-1.45 3.471-2.714 5.368-3.804zm7.707-8.012c-2.055.405-4.062.985-6 1.735v-11.43h6zm4-17.695c0-.551.448-1 1-1h4c.552 0 1 .449 1 1v1h-6zm4 17.028c-.333-.009-.665-.028-1-.028s-.667.018-1 .028v-2.028h2zm4 .331c-.663-.092-1.329-.166-2-.221v-3.138c0-.552-.447-1-1-1h-4c-.553 0-1 .448-1 1v3.138c-.671.056-1.337.129-2 .222v-14.36h10zm2 .335v-9.694h6v11.428c-1.938-.749-3.944-1.33-6-1.734zm2.707 6.013c.188-.187.293-.442.293-.707v-2.496c4.918 1.508 9.437 4.123 13.234 7.686l-7.051.783-3.735-1.868c-.199-.1-.425-.131-.644-.086l-4.134.827-.525-1.576z"/><path d="m6 32.981v.019h.026c1.669 1.25 3.733 2 5.974 2s4.305-.75 5.974-2h.026v-.019c2.423-1.827 4-4.719 4-7.981 0-5.514-4.486-10-10-10s-10 4.486-10 10c0 3.262 1.577 6.154 4 7.981zm10-1.063c-1.178.684-2.542 1.082-4 1.082s-2.822-.398-4-1.082v-1.918c0-1.654 1.346-3 3-3h2c1.654 0 3 1.346 3 3zm-6-8.918c0-1.103.897-2 2-2s2 .897 2 2-.897 2-2 2-2-.897-2-2zm2-6c4.411 0 8 3.589 8 8 0 2.021-.759 3.864-2 5.274v-.274c0-2-1.188-3.717-2.889-4.516.547-.685.889-1.541.889-2.484 0-2.206-1.794-4-4-4s-4 1.794-4 4c0 .943.342 1.799.889 2.484-1.701.799-2.889 2.516-2.889 4.516v.274c-1.241-1.41-2-3.253-2-5.274 0-4.411 3.589-8 8-8z"/></svg>