<svg height="400pt" viewBox="0 0 400 400" width="400pt" xmlns="http://www.w3.org/2000/svg"><path d="m328 96c-4.417969 0-8-3.582031-8-8s3.582031-8 8-8c5.230469 0 8-8.304688 8-24 0-4.417969 3.582031-8 8-8s8 3.582031 8 8c0 26.542969-8.078125 40-24 40zm0 0" fill="#0a400c"/><path d="m344 56s0-48 48-48c0 0 0 48-48 48zm0 0" fill="#c0ff4e"/><path d="m344 64c-4.417969 0-8-3.582031-8-8 0-19.367188 11.703125-56 56-56 4.417969 0 8 3.582031 8 8 0 19.367188-11.703125 56-56 56zm38.96875-47.257812c-15.535156 2.613281-27.621094 14.933593-29.9375 30.515624 15.535156-2.613281 27.621094-14.933593 29.9375-30.515624zm0 0" fill="#0a400c"/><path d="m344 56s-48 0-48-48c0 0 48 0 48 48zm0 0" fill="#c0ff4e"/><path d="m344 64c-19.367188 0-56-11.703125-56-56 0-4.417969 3.582031-8 8-8 19.367188 0 56 11.703125 56 56 0 4.417969-3.582031 8-8 8zm-39.257812-46.96875c2.613281 15.535156 14.933593 27.621094 30.515624 29.9375-2.613281-15.535156-14.933593-27.621094-30.515624-29.9375zm0 0" fill="#0a400c"/><path d="m272 48h-32c-4.417969 0-8-3.582031-8-8s3.582031-8 8-8h32c4.417969 0 8 3.582031 8 8s-3.582031 8-8 8zm0 0" fill="#0a400c"/><path d="m272 72h-32c-4.417969 0-8-3.582031-8-8s3.582031-8 8-8h32c4.417969 0 8 3.582031 8 8s-3.582031 8-8 8zm0 0" fill="#0a400c"/><path d="m8 360h384v32h-384zm0 0" fill="#30a064"/><path d="m392 400h-384c-4.417969 0-8-3.582031-8-8v-32c0-4.417969 3.582031-8 8-8h384c4.417969 0 8 3.582031 8 8v32c0 4.417969-3.582031 8-8 8zm-376-16h368v-16h-368zm0 0" fill="#0a400c"/><path d="m168 200h128v-64l-128-16zm0 0" fill="#fffe8c"/><path d="m296 208h-128c-4.417969 0-8-3.582031-8-8v-80c0-2.292969.984375-4.476562 2.707031-5.996094 1.71875-1.519531 4.007813-2.222656 6.285157-1.941406l128 16c4.003906.5 7.007812 3.902344 7.007812 7.9375v64c0 4.417969-3.582031 8-8 8zm-120-16h112v-48.9375l-112-14zm0 0" fill="#0a400c"/><path d="m200 360h-96v-152l96-32zm0 0" fill="#fffe8c"/><g fill="#0a400c"><path d="m200 368h-96c-4.417969 0-8-3.582031-8-8v-152c0-3.445312 2.203125-6.503906 5.472656-7.59375l96-32c2.4375-.8125 5.121094-.402344 7.207032 1.101562 2.085937 1.503907 3.320312 3.921876 3.320312 6.492188v184c0 4.417969-3.582031 8-8 8zm-88-16h80v-164.902344l-80 26.671875zm0 0"/><path d="m136 272c-4.417969 0-8-3.582031-8-8v-32c0-4.417969 3.582031-8 8-8s8 3.582031 8 8v32c0 4.417969-3.582031 8-8 8zm0 0"/><path d="m168 272c-4.417969 0-8-3.582031-8-8v-32c0-4.417969 3.582031-8 8-8s8 3.582031 8 8v32c0 4.417969-3.582031 8-8 8zm0 0"/><path d="m136 336c-4.417969 0-8-3.582031-8-8v-32c0-4.417969 3.582031-8 8-8s8 3.582031 8 8v32c0 4.417969-3.582031 8-8 8zm0 0"/><path d="m168 336c-4.417969 0-8-3.582031-8-8v-32c0-4.417969 3.582031-8 8-8s8 3.582031 8 8v32c0 4.417969-3.582031 8-8 8zm0 0"/></g><path d="m200 200h176v160h-176zm0 0" fill="#c0ff4e"/><path d="m376 368h-176c-4.417969 0-8-3.582031-8-8v-160c0-4.417969 3.582031-8 8-8h176c4.417969 0 8 3.582031 8 8v160c0 4.417969-3.582031 8-8 8zm-168-16h160v-144h-160zm0 0" fill="#0a400c"/><path d="m336 288c-4.417969 0-8-3.582031-8-8 0-16.585938-10.234375-31.449219-25.730469-37.367188-15.492187-5.917968-33.03125-1.660156-44.085937 10.703126-2.957032 3.242187-7.976563 3.496093-11.246094.570312-3.269531-2.929688-3.570312-7.945312-.671875-11.242188 15.476563-17.304687 40.03125-23.261718 61.71875-14.976562s36.015625 29.09375 36.015625 52.3125c0 4.417969-3.582031 8-8 8zm0 0" fill="#0a400c"/><path d="m360.007812 276.785156h-48.015624l24.007812 24zm0 0" fill="#0a400c"/><path d="m288 336c-30.914062-.035156-55.964844-25.085938-56-56 0-4.417969 3.582031-8 8-8s8 3.582031 8 8c0 16.585938 10.234375 31.449219 25.730469 37.367188 15.492187 5.917968 33.03125 1.660156 44.085937-10.703126 1.898438-2.160156 4.808594-3.136718 7.625-2.554687s5.105469 2.628906 5.992188 5.367187c.890625 2.734376.242187 5.734376-1.699219 7.859376-10.628906 11.863281-25.804687 18.652343-41.734375 18.664062zm0 0" fill="#0a400c"/><path d="m215.992188 283.214844h48.015624l-24.007812-24zm0 0" fill="#0a400c"/><path d="m72 360h-48l8-224h32zm0 0" fill="#30a064"/><path d="m72 368h-48c-2.171875 0-4.253906-.882812-5.761719-2.445312-1.507812-1.5625-2.316406-3.671876-2.238281-5.84375l8-224c.15625-4.304688 3.691406-7.714844 8-7.710938h32c4.308594-.003906 7.84375 3.40625 8 7.710938l8 224c.078125 2.171874-.730469 4.28125-2.238281 5.84375-1.507813 1.5625-3.589844 2.445312-5.761719 2.445312zm-39.710938-16h31.421876l-7.429688-208h-16.5625zm0 0" fill="#0a400c"/><path d="m136 80h-8c-17.671875 0-32-14.328125-32-32 0-8.835938-7.164062-16-16-16h-8c-8.835938 0-16 7.164062-16 16v24c0 4.417969-3.582031 8-8 8s-8-3.582031-8-8v-24c0-17.671875 14.328125-32 32-32h8c17.671875 0 32 14.328125 32 32 0 8.835938 7.164062 16 16 16h8c8.835938 0 16-7.164062 16-16v-24c0-4.417969 3.582031-8 8-8s8 3.582031 8 8v24c0 17.671875-14.328125 32-32 32zm0 0" fill="#0a400c"/><path d="m32 104h32v32h-32zm0 0" fill="#30a064"/><path d="m64 144h-32c-4.417969 0-8-3.582031-8-8v-32c0-4.417969 3.582031-8 8-8h32c4.417969 0 8 3.582031 8 8v32c0 4.417969-3.582031 8-8 8zm-24-16h16v-16h-16zm0 0" fill="#0a400c"/><path d="m232 208c-4.417969 0-8-3.582031-8-8v-24c0-4.417969 3.582031-8 8-8s8 3.582031 8 8v24c0 4.417969-3.582031 8-8 8zm0 0" fill="#0a400c"/><path d="m264 208c-4.417969 0-8-3.582031-8-8v-24c0-4.417969 3.582031-8 8-8s8 3.582031 8 8v24c0 4.417969-3.582031 8-8 8zm0 0" fill="#0a400c"/></svg>