<svg height="512" viewBox="0 0 256 256" width="512" xmlns="http://www.w3.org/2000/svg"><g id="Layer_23"><g><g><g><ellipse cx="128.003" cy="19.49" fill="#b598f9" rx="16.99" ry="16.99" transform="matrix(.383 -.924 .924 .383 61.012 130.291)"/></g></g><g><g><ellipse cx="221.972" cy="73.748" fill="#70d6f9" rx="16.99" ry="16.99" transform="matrix(.383 -.924 .924 .383 68.893 250.601)"/></g></g><g><g><ellipse cx="221.972" cy="182.258" fill="#5290db" rx="16.99" ry="16.99" transform="matrix(.707 -.707 .707 .707 -63.862 210.34)"/></g></g><g><g><ellipse cx="34.028" cy="73.748" fill="#fc657e" rx="16.99" ry="16.99" transform="matrix(.987 -.16 .16 .987 -11.374 6.403)"/></g></g><g><g><ellipse cx="128.003" cy="236.51" fill="#b2e26d" rx="16.99" ry="16.99" transform="matrix(.707 -.707 .707 .707 -129.747 159.784)"/></g></g><g><g><ellipse cx="34.028" cy="182.258" fill="#fca265" rx="16.99" ry="16.99" transform="matrix(.973 -.23 .23 .973 -40.964 12.694)"/></g></g><g><g><path d="m176.94 56h-97.88c-3.058 0-5.56 2.502-5.56 5.56v132.88c0 3.058 2.502 5.56 5.56 5.56h97.88c3.058 0 5.56-2.502 5.56-5.56v-132.88c0-3.058-2.502-5.56-5.56-5.56z" fill="#edf4fc"/></g></g><g><g><path d="m176.94 56h-97.88c-3.058 0-5.56 2.502-5.56 5.56v7.44h109v-7.44c0-3.058-2.502-5.56-5.56-5.56z" fill="#5290db"/></g></g><g><g><path d="m165.251 122.269h-7.535c-.411 0-.761-.289-.85-.691-.755-3.407-2.096-6.594-3.915-9.448-.221-.347-.178-.799.113-1.09l5.329-5.329c.34-.34.34-.891 0-1.231l-6.873-6.873c-.34-.34-.891-.34-1.231 0l-5.329 5.329c-.291.291-.743.334-1.09.113-2.854-1.819-6.04-3.16-9.448-3.915-.402-.089-.691-.439-.691-.85v-7.535c0-.481-.39-.87-.87-.87h-9.72c-.481 0-.87.39-.87.87v7.535c0 .411-.289.761-.691.85-3.408.755-6.594 2.096-9.448 3.915-.347.221-.799.178-1.09-.113l-5.329-5.329c-.34-.34-.891-.34-1.231 0l-6.873 6.873c-.34.34-.34.891 0 1.231l5.329 5.329c.291.291.334.743.113 1.09-1.819 2.854-3.16 6.04-3.915 9.448-.089.402-.439.691-.85.691h-7.535c-.481 0-.87.39-.87.87v9.72c0 .481.39.87.87.87h7.535c.411 0 .761.289.85.691.755 3.408 2.096 6.594 3.915 9.448.221.347.178.799-.113 1.09l-5.329 5.329c-.34.34-.34.891 0 1.231l6.873 6.873c.34.34.891.34 1.231 0l5.329-5.329c.291-.291.743-.334 1.09-.113 2.854 1.819 6.04 3.16 9.448 3.915.402.089.691.439.691.85v7.535c0 .481.39.87.87.87h9.72c.481 0 .87-.39.87-.87v-7.535c0-.411.289-.761.691-.85 3.408-.755 6.594-2.096 9.448-3.915.347-.221.799-.178 1.09.113l5.329 5.329c.34.34.891.34 1.231 0l6.873-6.873c.34-.34.34-.891 0-1.231l-5.329-5.329c-.291-.291-.334-.743-.113-1.09 1.819-2.854 3.16-6.04 3.915-9.448.089-.402.439-.691.85-.691h7.535c.481 0 .87-.39.87-.87v-9.72c0-.48-.389-.87-.87-.87z" fill="#f5c84c"/></g></g><g><g><path d="m222.876 35.21c-3.158-.561-5.613-3.017-6.245-6.104 0-.14-.281-.14-.281 0-.631 3.087-3.087 5.543-6.245 6.104-.14 0-.14.211 0 .281 3.158.561 5.613 3.017 6.245 6.104 0 .14.281.14.281 0 .631-3.087 3.087-5.543 6.245-6.104.14-.071.14-.281 0-.281z" fill="#fc657e"/></g></g><g><g><path d="m79.065 8.85c-4.5-.8-8-4.3-8.9-8.7 0-.2-.4-.2-.4 0-.9 4.4-4.4 7.9-8.9 8.7-.2 0-.2.3 0 .4 4.5.8 8 4.3 8.9 8.7 0 .2.4.2.4 0 .9-4.4 4.4-7.9 8.9-8.7.2-.1.2-.4 0-.4z" fill="#f5c84c"/></g></g><g><g><path d="m209.867 232.858h-2.3v-2.3c0-1.7-1.4-3.2-3.2-3.2s-3.2 1.4-3.2 3.2v2.3h-2.3c-1.7 0-3.2 1.4-3.2 3.2s1.4 3.2 3.2 3.2h2.3v2.3c0 1.7 1.4 3.2 3.2 3.2s3.2-1.4 3.2-3.2v-2.3h2.3c1.7 0 3.2-1.4 3.2-3.2s-1.4-3.2-3.2-3.2z" fill="#70d6f9"/></g></g><g><g><path d="m43.267 24.2c-1.878 0-3.4 1.522-3.4 3.4s1.522 3.4 3.4 3.4 3.4-1.522 3.4-3.4-1.522-3.4-3.4-3.4z" fill="#87d147"/></g></g><g><g><path d="m176.267 249.2c-1.878 0-3.4 1.522-3.4 3.4s1.522 3.4 3.4 3.4 3.4-1.522 3.4-3.4-1.522-3.4-3.4-3.4z" fill="#f5c84c"/></g></g><g><g><g><path d="m128.003 0c-10.747 0-19.49 8.743-19.49 19.49s8.743 19.49 19.49 19.49 19.49-8.743 19.49-19.49-8.743-19.49-19.49-19.49zm0 33.98c-7.99 0-14.49-6.5-14.49-14.49s6.5-14.49 14.49-14.49 14.49 6.5 14.49 14.49-6.5 14.49-14.49 14.49z"/></g></g></g><g><g><path d="m134.866 15.921c-.977-.976-2.561-.976-3.535 0l-3.889 3.889-1.768-1.768c-.976-.977-2.56-.977-3.535 0-.977.976-.977 2.559 0 3.535l3.536 3.536c.469.469 1.104.732 1.768.732s1.299-.264 1.768-.732l5.656-5.657c.976-.976.976-2.559-.001-3.535z"/></g></g><g><g><g><path d="m221.973 54.258c-10.747 0-19.49 8.743-19.49 19.49s8.743 19.49 19.49 19.49 19.49-8.743 19.49-19.49-8.743-19.49-19.49-19.49zm0 33.98c-7.99 0-14.49-6.5-14.49-14.49s6.5-14.49 14.49-14.49 14.49 6.5 14.49 14.49-6.5 14.49-14.49 14.49z"/></g></g></g><g><g><path d="m228.836 70.179c-.977-.977-2.559-.977-3.535 0l-3.89 3.889-1.768-1.768c-.977-.977-2.559-.976-3.535 0-.977.977-.977 2.56 0 3.536l3.535 3.536c.469.469 1.104.732 1.768.732s1.299-.263 1.768-.732l5.657-5.657c.976-.977.976-2.56 0-3.536z"/></g></g><g><g><g><path d="m221.973 162.768c-10.747 0-19.49 8.743-19.49 19.49s8.743 19.49 19.49 19.49 19.49-8.743 19.49-19.49-8.743-19.49-19.49-19.49zm0 33.98c-7.99 0-14.49-6.5-14.49-14.49s6.5-14.49 14.49-14.49 14.49 6.5 14.49 14.49-6.5 14.49-14.49 14.49z"/></g></g></g><g><g><path d="m228.836 178.689c-.977-.977-2.559-.977-3.535 0l-3.89 3.889-1.768-1.768c-.977-.977-2.559-.976-3.535 0-.977.977-.977 2.56 0 3.536l3.535 3.536c.469.469 1.104.732 1.768.732s1.299-.263 1.768-.732l5.657-5.657c.976-.977.976-2.56 0-3.536z"/></g></g><g><g><g><path d="m34.028 54.258c-10.747 0-19.49 8.743-19.49 19.49s8.743 19.49 19.49 19.49 19.49-8.743 19.49-19.49-8.743-19.49-19.49-19.49zm0 33.98c-7.99 0-14.49-6.5-14.49-14.49s6.5-14.49 14.49-14.49 14.49 6.5 14.49 14.49-6.5 14.49-14.49 14.49z"/></g></g></g><g><g><path d="m40.892 70.179c-.977-.976-2.559-.976-3.536 0l-3.889 3.889-1.768-1.768c-.976-.977-2.56-.977-3.535 0-.977.976-.977 2.559 0 3.535l3.536 3.536c.469.469 1.104.732 1.768.732s1.299-.264 1.768-.732l5.657-5.657c.975-.976.975-2.559-.001-3.535z"/></g></g><g><g><g><path d="m128.003 217.02c-10.747 0-19.49 8.743-19.49 19.49s8.743 19.49 19.49 19.49 19.49-8.743 19.49-19.49-8.743-19.49-19.49-19.49zm0 33.98c-7.99 0-14.49-6.5-14.49-14.49s6.5-14.49 14.49-14.49 14.49 6.5 14.49 14.49-6.5 14.49-14.49 14.49z"/></g></g></g><g><g><path d="m134.866 232.941c-.977-.976-2.559-.976-3.535 0l-3.889 3.889-1.768-1.768c-.976-.977-2.56-.977-3.535 0-.977.976-.977 2.559 0 3.535l3.536 3.536c.469.469 1.104.732 1.768.732s1.299-.264 1.768-.732l5.656-5.657c.976-.976.976-2.559-.001-3.535z"/></g></g><g><g><g><path d="m34.028 162.768c-10.747 0-19.49 8.743-19.49 19.49s8.743 19.49 19.49 19.49 19.49-8.743 19.49-19.49-8.743-19.49-19.49-19.49zm0 33.98c-7.99 0-14.49-6.5-14.49-14.49s6.5-14.49 14.49-14.49 14.49 6.5 14.49 14.49-6.5 14.49-14.49 14.49z"/></g></g></g><g><g><path d="m40.892 178.688c-.977-.976-2.559-.976-3.536 0l-3.889 3.889-1.768-1.768c-.976-.977-2.56-.977-3.535 0-.977.976-.977 2.559 0 3.535l3.536 3.536c.469.469 1.104.732 1.768.732s1.299-.264 1.768-.732l5.657-5.657c.975-.975.975-2.558-.001-3.535z"/></g></g><g><g><path d="m111.981 19.138c-.231-1.362-1.523-2.281-2.882-2.048-26.44 4.475-50.483 18.362-67.699 39.104-.882 1.063-.735 2.639.327 3.521.467.387 1.033.576 1.595.576.718 0 1.431-.308 1.925-.903 16.453-19.822 39.425-33.093 64.686-37.368 1.361-.231 2.278-1.521 2.048-2.882z"/></g></g><g><g><path d="m214.604 56.192c-17.215-20.74-41.257-34.627-67.696-39.102-1.353-.229-2.651.687-2.882 2.048s.687 2.651 2.048 2.882c25.26 4.276 48.231 17.546 64.683 37.366.494.596 1.207.903 1.925.903.563 0 1.129-.189 1.596-.576 1.061-.882 1.207-2.459.326-3.521z"/></g></g><g><g><path d="m233.515 88.896c-.479-1.295-1.92-1.953-3.213-1.475-1.295.48-1.955 1.919-1.475 3.213 4.43 11.947 6.676 24.519 6.676 37.366 0 12.848-2.247 25.421-6.678 37.371-.48 1.294.18 2.733 1.475 3.213.286.106.58.156.869.156 1.016 0 1.97-.623 2.344-1.631 4.639-12.507 6.99-25.665 6.99-39.109 0-13.442-2.352-26.599-6.988-39.104z"/></g></g><g><g><path d="m214.273 196.292c-1.063-.882-2.637-.737-3.521.327-16.452 19.818-39.423 33.086-64.68 37.362-1.361.23-2.278 1.521-2.048 2.882.206 1.22 1.265 2.083 2.462 2.083.139 0 .279-.012.42-.036 26.437-4.475 50.477-18.36 67.693-39.098.883-1.062.737-2.638-.326-3.52z"/></g></g><g><g><path d="m109.933 233.98c-25.259-4.275-48.23-17.545-64.682-37.364-.881-1.062-2.458-1.208-3.521-.327-1.063.882-1.209 2.458-.327 3.521 17.216 20.739 41.257 34.625 67.696 39.1.141.024.281.036.42.036 1.197 0 2.255-.863 2.462-2.083.23-1.362-.686-2.652-2.048-2.883z"/></g></g><g><g><path d="m27.18 165.368c-4.431-11.949-6.677-24.521-6.677-37.368 0-12.845 2.246-25.416 6.675-37.363.48-1.295-.181-2.733-1.475-3.213-1.295-.48-2.733.181-3.213 1.475-4.636 12.505-6.987 25.661-6.987 39.102 0 13.442 2.351 26.6 6.988 39.106.374 1.008 1.329 1.631 2.345 1.631.289 0 .582-.05.869-.156 1.294-.48 1.955-1.919 1.475-3.214z"/></g></g><g><g><g><path d="m176.94 53.5h-97.88c-4.444 0-8.06 3.616-8.06 8.06v132.88c0 4.444 3.616 8.06 8.06 8.06h97.88c4.444 0 8.06-3.616 8.06-8.06v-132.88c0-4.444-3.615-8.06-8.06-8.06zm3.06 140.94c0 1.688-1.372 3.06-3.06 3.06h-97.88c-1.688 0-3.06-1.373-3.06-3.06v-132.88c0-1.688 1.373-3.06 3.06-3.06h97.88c1.688 0 3.06 1.373 3.06 3.06z"/></g></g></g><g><g><path d="m147.058 126.232-7.513-7.513c-.977-.977-2.559-.977-3.535 0-.977.976-.977 2.559 0 3.535l5.745 5.745-5.745 5.745c-.977.976-.977 2.559 0 3.535.488.488 1.128.732 1.768.732s1.279-.244 1.768-.732l7.513-7.513c.975-.974.975-2.558-.001-3.534z"/></g></g><g><g><path d="m114.246 128 5.745-5.745c.977-.976.977-2.559 0-3.535-.976-.977-2.56-.977-3.535 0l-7.513 7.513c-.977.976-.977 2.559 0 3.535l7.513 7.513c.488.488 1.128.732 1.768.732s1.28-.244 1.768-.732c.977-.976.977-2.559 0-3.535z"/></g></g><g><g><path d="m131.356 116.493c-1.331-.388-2.714.375-3.1 1.7l-5.313 18.214c-.387 1.326.375 2.713 1.7 3.1.234.068.47.101.701.101 1.083 0 2.081-.708 2.399-1.8l5.313-18.214c.386-1.326-.374-2.714-1.7-3.101z"/></g></g><g><g><path d="m181.729 66.5h-107.229c-1.381 0-2.5 1.119-2.5 2.5s1.119 2.5 2.5 2.5h107.229c1.381 0 2.5-1.119 2.5-2.5s-1.12-2.5-2.5-2.5z"/></g></g><g><g><g><path d="m165.251 119.77h-6.253c-.729-2.76-1.822-5.397-3.26-7.868l4.422-4.422c1.314-1.314 1.314-3.452 0-4.766l-6.875-6.876c-1.315-1.311-3.453-1.31-4.765.003l-4.423 4.422c-2.471-1.438-5.108-2.531-7.867-3.26v-6.253c0-1.858-1.512-3.37-3.37-3.37h-9.721c-1.858 0-3.37 1.512-3.37 3.37v6.253c-2.759.73-5.396 1.822-7.868 3.26l-4.422-4.422c-1.314-1.315-3.453-1.314-4.766 0l-6.874 6.874c-1.314 1.314-1.314 3.452 0 4.766l4.422 4.422c-1.438 2.472-2.531 5.109-3.26 7.868h-6.253c-1.858 0-3.37 1.512-3.37 3.37v9.721c0 1.858 1.512 3.37 3.37 3.37h6.253c.73 2.759 1.822 5.396 3.26 7.868l-4.422 4.422c-1.314 1.314-1.314 3.452 0 4.766l6.874 6.874c1.313 1.314 3.452 1.315 4.766 0l4.422-4.422c2.472 1.438 5.109 2.531 7.868 3.26v6.253c0 1.858 1.512 3.37 3.37 3.37h9.721c1.858 0 3.37-1.512 3.37-3.37v-6.253c2.759-.729 5.396-1.822 7.867-3.26l4.423 4.422c1.313 1.313 3.45 1.313 4.767 0l6.873-6.874c1.314-1.314 1.314-3.452 0-4.766l-4.422-4.423c1.438-2.471 2.53-5.107 3.26-7.867h6.253c1.858 0 3.37-1.512 3.37-3.37v-9.721c0-1.86-1.512-3.371-3.37-3.371zm-1.63 11.46h-5.905c-1.593 0-2.946 1.09-3.292 2.651-.68 3.074-1.885 5.982-3.583 8.646-.857 1.348-.67 3.074.455 4.199l4.177 4.177-4.569 4.569-4.177-4.177c-1.126-1.126-2.854-1.313-4.201-.454-2.661 1.696-5.57 2.901-8.646 3.583-1.56.346-2.649 1.7-2.649 3.291v5.906h-6.461v-5.906c0-1.59-1.089-2.943-2.65-3.291-3.074-.681-5.983-1.886-8.645-3.582-1.347-.858-3.075-.672-4.201.454l-4.177 4.177-4.569-4.569 4.177-4.177c1.126-1.125 1.313-2.853.454-4.201-1.696-2.662-2.901-5.571-3.583-8.648-.347-1.559-1.7-2.647-3.291-2.647h-5.906v-6.461h5.906c1.59 0 2.943-1.089 3.291-2.65.681-3.074 1.886-5.983 3.582-8.645.859-1.348.672-3.075-.454-4.201l-4.177-4.177 4.569-4.569 4.177 4.177c1.125 1.126 2.853 1.312 4.201.454 2.662-1.696 5.571-2.901 8.648-3.583 1.559-.347 2.647-1.7 2.647-3.291v-5.906h6.461v5.906c0 1.591 1.09 2.944 2.651 3.291 3.073.681 5.982 1.886 8.643 3.581 1.349.86 3.076.673 4.202-.453l4.177-4.177 4.569 4.569-4.177 4.177c-1.125 1.125-1.313 2.851-.454 4.202 1.697 2.661 2.902 5.569 3.583 8.644.345 1.561 1.698 2.65 3.291 2.65h5.905v6.461z"/></g></g></g></g></g></svg>