<svg id="Layer_5" enable-background="new 0 0 62 62" height="512" viewBox="0 0 62 62" width="512" xmlns="http://www.w3.org/2000/svg"><g><g><g><path d="m50 33c-2.76 0-5-2.24-5-5 0-.04.01-.07.01-.1-.65.13-1.34.14-2.05-.01-1.93-.39-3.49-1.96-3.86-3.89-.07-.34-.1-.68-.1-1.01 0-2.13 1.35-3.95 3.24-4.66-.14-.42-.24-.86-.24-1.33 0-1.54.87-2.88 2.16-3.55.97-.51 1.78-1.32 2.29-2.29.15-.29.34-.56.55-.8.74-.84 1.81-1.36 3-1.36 1.54 0 2.88.87 3.55 2.16.51.97 1.32 1.78 2.29 2.29 1.29.67 2.16 2.01 2.16 3.55 0 .47-.1.91-.25 1.33 2.19.82 3.65 3.11 3.15 5.67-.37 1.93-1.93 3.5-3.86 3.89-.71.15-1.4.14-2.05.01 0 .03.01.06.01.1 0 2.76-2.24 5-5 5z" fill="#a0d468"/></g><g><path d="m42 17c0 .47.1.91.24 1.33-1.89.71-3.24 2.53-3.24 4.66v2.01c-2.76 0-5-2.24-5-5 0-.04.01-.07.01-.1-.65.13-1.34.14-2.05-.01-1.93-.39-3.49-1.96-3.86-3.89-.5-2.56.96-4.85 3.14-5.67-.14-.42-.24-.86-.24-1.33 0-1.54.87-2.88 2.16-3.55.97-.51 1.78-1.32 2.29-2.29.67-1.29 2.01-2.16 3.55-2.16s2.88.87 3.55 2.16c.51.97 1.32 1.78 2.29 2.29 1.29.67 2.16 2.01 2.16 3.55v1.36c-.21.24-.4.51-.55.8-.51.97-1.32 1.78-2.29 2.29-1.29.67-2.16 2.01-2.16 3.55z" fill="#b4dd7f"/></g><g><path d="m54.25 45c-3.88 0-3.88-2-7.76-2-3.87 0-3.87 2-7.75 2-3.87 0-3.87-2-7.75-2-3.87 0-3.87 2-7.75 2-1.25 0-2.1-.21-2.8-.49h-.01c-1.47-.6-2.32-1.51-4.94-1.51-2.64 0-3.48.93-4.97 1.52-.7.28-1.54.48-2.77.48-3.51 0-3.84-1.69-6.75-2v18h60v-17.95c-2.91.31-3.24 1.95-6.75 1.95z" fill="#69d6f4"/></g><g><path d="m61 39v4.05c-2.91.31-3.24 1.95-6.75 1.95-3.88 0-3.88-2-7.76-2-3.87 0-3.87 2-7.75 2-3.87 0-3.87-2-7.75-2-3.87 0-3.87 2-7.75 2-1.25 0-2.1-.21-2.8-.49 1.91-.57 3.65-1.6 5.09-3.04.72-.72 1.3-1.55 1.71-2.47h11.76 11z" fill="#cf9e76"/></g><g><path d="m28 35.5c0 1.12-.22 2.22-.64 3.23-.04.09-.08.18-.12.27-.41.92-.99 1.75-1.71 2.47-1.44 1.44-3.18 2.47-5.09 3.04h-.01c-1.47-.6-2.32-1.51-4.94-1.51-2.64 0-3.48.93-4.97 1.52-.74-.38-1.38-.95-1.82-1.65s-.7-1.53-.7-2.43c0-1.52.76-2.95 2.03-3.79l.97-.65s-1-1-1-3c0-2.52 2.32-4.49 4.94-3.89 1.45.33 2.62 1.5 2.95 2.95.6 2.62-1.37 4.94-3.89 4.94h3.5c1.46 0 2.9-.24 4.27-.69 1.37-.46 2.66-1.13 3.83-2.01.26-.19.58-.3.9-.3.83 0 1.5.67 1.5 1.5z" fill="#e6e9ed"/></g><g><path d="m51.04 51.72.96 1.28-.96 1.28c-1.29 1.71-3.3 2.72-5.44 2.72-1.05 0-2.09-.25-3.03-.72l-4.57-2.28v-2l4.57-2.28c.94-.47 1.98-.72 3.03-.72 1.07 0 2.11.25 3.04.72.93.46 1.76 1.14 2.4 2z" fill="#fcd770"/></g><g><path d="m38 52v2l-2 3c-1.1 0-2.1-.45-2.83-1.17-.72-.73-1.17-1.73-1.17-2.83s.45-2.1 1.17-2.83c.73-.72 1.73-1.17 2.83-1.17z" fill="#fcd770"/></g><g><path d="m15 61h-10c0-2.12 2.05-3.85 4.65-3.99.11-.01.23-.01.35-.01.57 0 1.12.08 1.63.22 1.96.54 3.37 2.03 3.37 3.78z" fill="#aab2bd"/></g><g><path d="m20.1 55.57c1.74.71 2.9 1.98 2.9 3.43 0 .73-.29 1.41-.8 2h-7.2c0-1.75-1.41-3.24-3.37-3.78.98-1.32 3.02-2.22 5.37-2.22 1.14 0 2.2.21 3.1.57z" fill="#ccd1d9"/></g><g><path d="m17 55c-2.35 0-4.39.9-5.37 2.22-.51-.14-1.06-.22-1.63-.22-.12 0-.24 0-.35.01-.62-2.9-1.87-5.63-3.65-8.01h.39c2.26 0 4.36 1.13 5.61 3l2-4 2 4 .88-.88c1.36-1.36 3.2-2.12 5.12-2.12-1.03 2.06-1.67 4.29-1.9 6.57-.9-.36-1.96-.57-3.1-.57z" fill="#b4dd7f"/></g><g><path d="m22 12-.07.05c-2.28 1.51-3.44 4.25-2.93 6.95-.42-.08-.85-.12-1.27-.12-2.26 0-4.41 1.13-5.68 3.05l-.05.07-.05-.07c-1.51-2.28-4.25-3.44-6.95-2.93.08-.42.12-.85.12-1.27 0-2.26-1.13-4.41-3.05-5.68l-.07-.05.07-.05c2.28-1.51 3.44-4.25 2.93-6.95.42.08.85.12 1.27.12 2.26 0 4.41-1.13 5.68-3.05l.05-.07.05.07c1.51 2.28 4.25 3.44 6.95 2.93-.08.42-.12.85-.12 1.27 0 2.26 1.13 4.41 3.05 5.68z" fill="#ffc729"/></g><g><circle cx="12" cy="12" fill="#fcd770" r="5"/></g></g><g><path d="m51 38v-4.091c2.508-.423 4.494-2.401 4.917-4.91.442.014.879-.035 1.318-.125 2.328-.473 4.197-2.355 4.649-4.686.503-2.595-.718-5.156-2.952-6.408.046-.26.068-.519.068-.78 0-1.872-1.032-3.572-2.693-4.438-.793-.412-1.457-1.076-1.87-1.87-.866-1.66-2.566-2.692-4.437-2.692-.718 0-1.409.154-2.039.435-.185-1.644-1.163-3.096-2.655-3.873-.793-.412-1.457-1.076-1.87-1.87-.865-1.66-2.565-2.692-4.436-2.692s-3.571 1.032-4.437 2.693c-.413.793-1.077 1.458-1.87 1.87-1.661.865-2.693 2.565-2.693 4.437 0 .261.022.52.067.781-2.234 1.251-3.455 3.813-2.952 6.409.452 2.33 2.321 4.212 4.649 4.685.44.089.896.13 1.318.125.423 2.508 2.409 4.486 4.917 4.91v12.09h-9.342c.221-.805.343-1.643.343-2.5 0-1.378-1.121-2.5-2.5-2.5-.537 0-1.069.177-1.501.5-2.013 1.51-4.478 2.385-6.99 2.489.881-1.18 1.194-2.685.858-4.154-.418-1.831-1.871-3.284-3.702-3.703-1.527-.348-3.083.001-4.28.957-1.002.798-1.639 1.928-1.823 3.17l-2.378.793.633 1.897 1.829-.61c.117.554.288 1.023.47 1.382l-.14.093c-1.55 1.034-2.476 2.763-2.476 4.626 0 1.325.461 2.567 1.27 3.543-.166.01-.337.017-.523.017-1.685 0-2.479-.422-3.4-.91-.817-.434-1.744-.925-3.241-1.084l-1.106-.118v20.112h62v-24zm1.663-26.383c.601 1.154 1.567 2.12 2.72 2.72.998.519 1.617 1.539 1.617 2.663 0 .318-.062.645-.187.998l-.33.925.919.347c1.865.702 2.9 2.569 2.52 4.539-.301 1.545-1.54 2.793-3.085 3.107-.556.112-1.11.113-1.646.003l-1.235-.254.034 1.261c.002.042.005.083.011.126-.024 1.836-1.296 3.363-3 3.807v-8.292l4.515-2.709-1.029-1.715-3.487 2.091v-2.648l-3.293-3.293-1.414 1.414 2.707 2.707v4.82l-3.485-2.091-1.029 1.715 4.514 2.708v5.292c-1.705-.443-2.977-1.972-3-3.809l.045-1.385-1.235.254c-.538.11-1.093.109-1.646-.003-1.545-.313-2.784-1.562-3.085-3.106-.381-1.971.654-3.837 2.52-4.54l.919-.347-.33-.925c-.126-.352-.188-.679-.188-.997 0-1.124.619-2.144 1.617-2.663 1.152-.6 2.119-1.566 2.72-2.72.519-.997 1.54-1.617 2.663-1.617s2.144.62 2.663 1.617zm-17.663 8.432.045-1.385-1.235.254c-.538.11-1.093.109-1.646-.003-1.545-.313-2.784-1.562-3.085-3.106-.381-1.971.654-3.837 2.52-4.54l.919-.347-.33-.925c-.126-.352-.188-.679-.188-.997 0-1.124.619-2.144 1.617-2.663 1.152-.6 2.119-1.566 2.72-2.72.519-.997 1.54-1.617 2.663-1.617s2.144.62 2.663 1.617c.601 1.154 1.567 2.12 2.72 2.72.998.519 1.617 1.539 1.617 2.663v1.01c-.16.215-.31.44-.437.683-.413.793-1.077 1.458-1.87 1.87-1.661.865-2.693 2.565-2.693 4.437 0 .261.022.52.067.781-.393.22-.741.492-1.067.786v-7.982l-3.293-3.293-1.414 1.414 2.707 2.708v4.82l-3.485-2.091-1.029 1.715 4.514 2.708v5.292c-1.705-.443-2.977-1.972-3-3.809zm5 7.41c.774.695 1.718 1.204 2.765 1.416.44.089.896.128 1.318.125.423 2.508 2.409 4.486 4.917 4.91v4.09h-9zm-31 12.981c0-1.193.593-2.3 1.585-2.962l1.938-1.313-.805-.861c-.029-.031-.718-.785-.718-2.304 0-.918.412-1.774 1.132-2.347.729-.582 1.647-.787 2.588-.57 1.07.244 1.954 1.127 2.198 2.198.214.939.012 1.858-.57 2.588-.574.718-1.43 1.131-2.348 1.131v2h3.5c3.118 0 6.207-1.03 8.698-2.899.31-.231.802.016.802.399 0 1.989-.774 3.86-2.182 5.268-1.218 1.217-2.721 2.123-4.353 2.662-.215-.1-.424-.207-.64-.318-1.008-.522-2.151-1.112-4.331-1.112s-3.324.59-4.333 1.111c-.194.1-.384.196-.576.288-.986-.656-1.585-1.752-1.585-2.959zm12.696 19.56h-5.817c-.31-1.267-1.199-2.358-2.423-3.08.931-.574 2.196-.92 3.544-.92 2.71 0 5 1.374 5 3 0 .342-.103.677-.304 1zm-2.432-5.738c-.708-.167-1.467-.262-2.264-.262-2.315 0-4.439.799-5.731 2.115-.276-.05-.559-.08-.847-.097-.515-2.024-1.314-3.985-2.388-5.78 1.267.377 2.38 1.186 3.134 2.317l.956 1.434 1.876-3.753 1.726 3.452 1.86-1.86c.783-.783 1.738-1.333 2.78-1.613-.511 1.306-.877 2.66-1.102 4.047zm-9.264 3.738c1.736 0 3.202.839 3.754 2h-7.508c.552-1.161 2.018-2 3.754-2zm50 2h-36.154c.091-.328.154-.66.154-1 0-1.67-1.096-3.12-2.807-4.023.27-1.925.829-3.784 1.702-5.53l.723-1.447h-1.618c-2.153 0-4.181.82-5.726 2.313l-2.274-4.549-2.212 4.424c-1.429-1.391-3.353-2.188-5.393-2.188h-2.395l1.2 1.6c1.469 1.958 2.569 4.215 3.216 6.582-2.163.495-3.843 1.971-4.295 3.818h-2.121v-15.78c.52.165.945.39 1.409.637 1.011.536 2.155 1.143 4.338 1.143 2.18 0 3.323-.59 4.332-1.111.923-.477 1.721-.889 3.415-.889 1.693 0 2.491.412 3.414.889 1.009.521 2.154 1.111 4.333 1.111s3.323-.59 4.333-1.111c.924-.477 1.722-.889 3.416-.889s2.492.412 3.416.889c1.01.521 2.155 1.111 4.335 1.111s3.324-.59 4.334-1.111c.924-.477 1.722-.889 3.416-.889 1.695 0 2.494.412 3.419.889 1.01.521 2.153 1.111 4.335 1.111s3.326-.59 4.336-1.111c.468-.241.896-.462 1.419-.623zm0-17.8c-.992.218-1.697.582-2.336.912-.925.476-1.723.888-3.419.888-1.695 0-2.494-.412-3.419-.889-1.01-.521-2.153-1.111-4.335-1.111-2.181 0-3.324.59-4.334 1.111-.924.477-1.721.889-3.416.889s-2.493-.412-3.417-.889c-1.01-.521-2.153-1.111-4.334-1.111s-3.324.59-4.334 1.111c-.779.402-1.474.755-2.687.857.813-.514 1.58-1.103 2.263-1.786.655-.655 1.199-1.391 1.629-2.182h32.139z"/><path d="m45.604 48c-1.203 0-2.408.285-3.485.823l-3.776 1.888-1.808-2.711h-.535c-2.757 0-5 2.243-5 5s2.243 5 5 5h.535l1.807-2.711 3.776 1.888c1.077.538 2.282.823 3.486.823 2.439 0 4.771-1.166 6.234-3.117l1.412-1.883-1.412-1.883c-1.464-1.951-3.795-3.117-6.234-3.117zm-10.111 7.957c-1.414-.241-2.493-1.476-2.493-2.957s1.079-2.716 2.493-2.957l1.507 2.26v1.394zm14.745-2.274c-1.089 1.451-2.821 2.317-4.634 2.317-.895 0-1.79-.211-2.591-.612l-4.013-2.006v-.764l4.013-2.006c.801-.4 1.696-.612 2.591-.612 1.813 0 3.546.866 4.635 2.317l.511.683z"/><circle cx="47" cy="52" r="1"/><circle cx="13" cy="33" r="1"/><path d="m4.018 18.815-.271 1.439 1.439-.271c2.307-.437 4.637.547 5.984 2.575l.88 1.174.829-1.247c1.299-1.955 3.629-2.939 5.936-2.502l1.439.271-.271-1.439c-.435-2.307.548-4.637 2.503-5.937l1.253-.923-1.253-.833c-1.955-1.299-2.938-3.629-2.503-5.937l.271-1.439-1.439.271c-2.31.435-4.637-.547-5.984-2.575l-.88-1.174-.829 1.247c-1.3 1.954-3.63 2.941-5.936 2.502l-1.44-.271.271 1.439c.435 2.307-.548 4.637-2.571 5.982l-1.185.878 1.253.833c1.956 1.3 2.938 3.63 2.504 5.937zm2.099-12.697c2.223.042 4.341-.856 5.877-2.502 1.517 1.638 3.63 2.554 5.889 2.502-.045 2.227.862 4.366 2.496 5.882-1.633 1.516-2.541 3.655-2.496 5.882-2.197-.024-4.341.857-5.877 2.502-1.481-1.599-3.559-2.504-5.732-2.504-.052 0-.104 0-.156.001.043-2.211-.856-4.338-2.502-5.876 1.636-1.516 2.546-3.658 2.501-5.887z"/><path d="m12 18c3.309 0 6-2.691 6-6s-2.691-6-6-6-6 2.691-6 6 2.691 6 6 6zm0-10c2.206 0 4 1.794 4 4s-1.794 4-4 4-4-1.794-4-4 1.794-4 4-4z"/></g></g></svg>