<svg id="Layer_1" enable-background="new 0 0 64 64" height="512" viewBox="0 0 64 64" width="512" xmlns="http://www.w3.org/2000/svg"><g><path d="m23.75 2.84h-4.16c-.24-1.6-1.61-2.84-3.28-2.84-1.84 0-3.34 1.5-3.34 3.33 0 1.84 1.5 3.34 3.34 3.34 1.67 0 3.04-1.24 3.28-2.84h4.16c.54 0 .98.44.98.98v9.93c0 .27.22.49.5.49.27 0 .49-.22.49-.49v-9.93c0-1.09-.88-1.97-1.97-1.97zm-7.44 2.84c-1.3 0-2.35-1.05-2.35-2.35 0-1.29 1.05-2.35 2.35-2.35 1.29 0 2.35 1.06 2.35 2.35 0 1.3-1.06 2.35-2.35 2.35z"/><path d="m18.66 3.33c0 1.3-1.06 2.35-2.35 2.35-1.3 0-2.35-1.05-2.35-2.35 0-1.29 1.05-2.35 2.35-2.35 1.29 0 2.35 1.06 2.35 2.35z" fill="#db6767"/><path d="m47.7 0c-1.67 0-3.05 1.24-3.29 2.84h-4.16c-1.08 0-1.96.88-1.96 1.97v9.93c0 .27.22.49.49.49s.49-.22.49-.49v-9.93c0-.54.44-.98.98-.98h4.16c.24 1.6 1.62 2.84 3.29 2.84 1.84 0 3.33-1.5 3.33-3.34 0-1.83-1.49-3.33-3.33-3.33zm0 5.68c-1.3 0-2.35-1.05-2.35-2.35 0-1.29 1.05-2.35 2.35-2.35 1.29 0 2.35 1.06 2.35 2.35 0 1.3-1.06 2.35-2.35 2.35z"/><path d="m50.05 3.33c0 1.3-1.06 2.35-2.35 2.35-1.3 0-2.35-1.05-2.35-2.35 0-1.29 1.05-2.35 2.35-2.35 1.29 0 2.35 1.06 2.35 2.35z" fill="#db6767"/><path d="m25.23 48.77c-.28 0-.5.22-.5.49v9.93c0 .54-.44.98-.98.98h-4.16c-.24-1.6-1.61-2.84-3.28-2.84-1.84 0-3.34 1.5-3.34 3.34 0 1.83 1.5 3.33 3.34 3.33 1.67 0 3.04-1.24 3.28-2.84h4.16c1.09 0 1.97-.88 1.97-1.97v-9.93c0-.27-.22-.49-.49-.49zm-8.92 14.25c-1.3 0-2.35-1.06-2.35-2.35 0-1.3 1.05-2.35 2.35-2.35 1.29 0 2.35 1.05 2.35 2.35 0 1.29-1.06 2.35-2.35 2.35z"/><path d="m18.66 60.67c0 1.29-1.06 2.35-2.35 2.35-1.3 0-2.35-1.06-2.35-2.35 0-1.3 1.05-2.35 2.35-2.35 1.29 0 2.35 1.05 2.35 2.35z" fill="#db6767"/><path d="m47.7 57.33c-1.67 0-3.05 1.24-3.29 2.84h-4.16c-.54 0-.98-.44-.98-.98v-9.93c0-.27-.22-.49-.49-.49s-.49.22-.49.49v9.93c0 1.09.88 1.97 1.96 1.97h4.16c.24 1.6 1.62 2.84 3.29 2.84 1.84 0 3.33-1.5 3.33-3.33 0-1.84-1.49-3.34-3.33-3.34zm0 5.69c-1.3 0-2.35-1.06-2.35-2.35 0-1.3 1.05-2.35 2.35-2.35 1.29 0 2.35 1.05 2.35 2.35 0 1.29-1.06 2.35-2.35 2.35z"/><circle cx="47.7" cy="60.67" fill="#db6767" r="2.35"/><path d="m60.67 12.97c-1.84 0-3.34 1.5-3.34 3.33 0 1.67 1.24 3.05 2.85 3.29v4.16c0 .54-.44.98-.99.98h-9.93c-.27 0-.49.22-.49.49 0 .28.22.5.49.5h9.93c1.09 0 1.97-.89 1.97-1.97v-4.16c1.6-.24 2.84-1.62 2.84-3.29 0-1.83-1.49-3.33-3.33-3.33zm0 5.68c-1.3 0-2.35-1.05-2.35-2.35 0-1.29 1.05-2.35 2.35-2.35 1.29 0 2.35 1.06 2.35 2.35 0 1.3-1.06 2.35-2.35 2.35z"/><path d="m63.02 16.3c0 1.3-1.06 2.35-2.35 2.35-1.3 0-2.35-1.05-2.35-2.35 0-1.29 1.05-2.35 2.35-2.35 1.29 0 2.35 1.06 2.35 2.35z" fill="#ffcd00"/><path d="m61.16 44.41v-4.16c0-1.08-.88-1.97-1.97-1.97h-9.93c-.27 0-.49.22-.49.5 0 .27.22.49.49.49h9.93c.55 0 .99.44.99.98v4.16c-1.61.24-2.85 1.62-2.85 3.29 0 1.84 1.5 3.33 3.34 3.33s3.33-1.49 3.33-3.33c0-1.67-1.24-3.05-2.84-3.29zm-.49 5.64c-1.3 0-2.35-1.06-2.35-2.35 0-1.3 1.05-2.35 2.35-2.35 1.29 0 2.35 1.05 2.35 2.35 0 1.29-1.06 2.35-2.35 2.35z"/><path d="m63.02 47.7c0 1.29-1.06 2.35-2.35 2.35-1.3 0-2.35-1.06-2.35-2.35 0-1.3 1.05-2.35 2.35-2.35 1.29 0 2.35 1.05 2.35 2.35z" fill="#ffcd00"/><path d="m60.67 28.45c-1.67 0-3.05 1.24-3.29 2.84h-4.27v-2.39c0-.4-.32-.72-.72-.72h-3.23c-.45-2-1.23-3.88-2.33-5.61l2.29-2.29c.28-.28.28-.73 0-1.01l-4.39-4.39c-.27-.27-.74-.27-1.01 0l-2.29 2.29c-1.72-1.1-3.61-1.88-5.61-2.32v-3.24c0-.39-.32-.71-.71-.71h-2.83v-4.28c1.61-.24 2.84-1.62 2.84-3.29 0-1.83-1.49-3.33-3.33-3.33s-3.34 1.5-3.34 3.33c0 1.68 1.24 3.05 2.85 3.29v4.28h-2.4c-.39 0-.71.32-.71.71v3.24c-2 .44-3.89 1.22-5.62 2.32l-2.29-2.29c-.13-.13-.31-.16-.5-.21-.19 0-.37.08-.51.21l-4.38 4.39c-.14.14-.21.32-.21.51s.07.37.2.5l2.29 2.29c-1.1 1.73-1.88 3.61-2.32 5.61h-3.24c-.39 0-.71.32-.71.72v2.39h-4.28c-.24-1.6-1.61-2.84-3.28-2.84-1.84 0-3.34 1.5-3.34 3.34s1.5 3.33 3.34 3.33c1.67 0 3.04-1.24 3.28-2.84h4.28v2.82c0 .4.32.72.71.72h3.24c.44 2 1.22 3.89 2.32 5.61l-2.29 2.29c-.13.13-.2.31-.2.5s.07.37.2.51l4.39 4.39c.28.28.73.28 1.01 0l2.29-2.29c1.73 1.1 3.61 1.88 5.62 2.32v3.24c0 .39.32.71.71.71h2.4v4.28c-1.61.24-2.85 1.61-2.85 3.29 0 1.83 1.5 3.33 3.34 3.33s3.33-1.5 3.33-3.33c0-1.67-1.23-3.05-2.84-3.29v-4.28h2.83c.39 0 .71-.32.71-.71v-3.24c2-.44 3.89-1.22 5.61-2.32l2.29 2.29c.28.28.73.28 1.01 0l4.39-4.39c.28-.28.28-.73 0-1.01l-2.29-2.29c1.1-1.73 1.88-3.61 2.33-5.61h3.23c.4 0 .72-.32.72-.72v-2.82h4.27c.24 1.6 1.62 2.84 3.29 2.84 1.84 0 3.33-1.49 3.33-3.33s-1.49-3.34-3.33-3.34zm-57.33 5.69c-1.3 0-2.35-1.06-2.35-2.35 0-1.3 1.05-2.35 2.35-2.35 1.29 0 2.35 1.05 2.35 2.35 0 1.29-1.06 2.35-2.35 2.35zm26.1-30.81c0-1.29 1.05-2.35 2.35-2.35 1.29 0 2.35 1.06 2.35 2.35 0 1.3-1.05 2.35-2.34 2.35h-.02c-1.29 0-2.34-1.05-2.34-2.35zm4.7 57.34c0 1.29-1.06 2.35-2.35 2.35-1.3 0-2.35-1.06-2.35-2.35 0-1.3 1.05-2.35 2.34-2.35h.02c1.29 0 2.34 1.05 2.34 2.35zm17.98-25.84h-3.19c-.33 0-.62.24-.69.57-.42 2.03-1.22 3.94-2.35 5.68-.19.28-.15.65.09.89l2.25 2.25-4 4.01-2.26-2.26c-.24-.23-.61-.27-.89-.09-1.73 1.14-3.65 1.93-5.68 2.36-.33.06-.57.36-.57.69v3.19h-3.02c-.01 0-.01 0-.02 0s-.01 0-.02 0h-2.6v-3.19c0-.33-.24-.63-.56-.69-2.04-.43-3.95-1.22-5.69-2.36-.28-.18-.65-.14-.89.09l-2.25 2.26-4.01-4.01 2.26-2.25c.23-.24.27-.61.09-.89-1.14-1.74-1.93-3.65-2.35-5.68-.07-.33-.36-.57-.7-.57h-3.19v-5.66h3.19c.34 0 .63-.24.7-.57.42-2.03 1.21-3.94 2.35-5.68.18-.28.14-.65-.09-.89l-2.26-2.25 4.01-4.01 2.25 2.25c.24.24.61.28.89.1 1.74-1.14 3.65-1.93 5.69-2.36.32-.06.56-.36.56-.69v-3.19h2.6.02.02 3.02v3.19c0 .33.24.63.57.69 2.03.43 3.94 1.22 5.68 2.36.28.18.66.14.89-.09l2.26-2.26 4 4.01-2.25 2.25c-.24.24-.28.61-.09.89 1.13 1.74 1.93 3.65 2.35 5.68.07.33.36.57.69.57h3.19zm8.55-.69c-1.3 0-2.35-1.06-2.35-2.35 0-1.3 1.05-2.35 2.35-2.35 1.29 0 2.35 1.05 2.35 2.35 0 1.29-1.06 2.35-2.35 2.35z"/><path d="m34.14 60.67c0 1.29-1.06 2.35-2.35 2.35-1.3 0-2.35-1.06-2.35-2.35 0-1.3 1.05-2.35 2.34-2.35h.02c1.29 0 2.34 1.05 2.34 2.35z" fill="#db6767"/><path d="m63.02 31.79c0 1.29-1.06 2.35-2.35 2.35-1.3 0-2.35-1.06-2.35-2.35 0-1.3 1.05-2.35 2.35-2.35 1.29 0 2.35 1.05 2.35 2.35z" fill="#ffcd00"/><path d="m34.14 3.33c0 1.3-1.05 2.35-2.34 2.35h-.02c-1.29 0-2.34-1.05-2.34-2.35 0-1.29 1.05-2.35 2.35-2.35 1.29 0 2.35 1.06 2.35 2.35z" fill="#db6767"/><path d="m5.69 31.79c0 1.29-1.06 2.35-2.35 2.35-1.3 0-2.35-1.06-2.35-2.35 0-1.3 1.05-2.35 2.35-2.35 1.29 0 2.35 1.05 2.35 2.35z" fill="#ffcd00"/><path d="m48.93 29.17c-.33 0-.62-.24-.69-.57-.42-2.03-1.22-3.94-2.35-5.68-.19-.28-.15-.65.09-.89l2.25-2.25-4-4.01-2.26 2.26c-.23.23-.61.27-.89.09-1.74-1.14-3.65-1.93-5.68-2.36-.33-.06-.57-.36-.57-.69v-3.19h-3.02c-.01 0-.01 0-.02 0s-.01 0-.02 0h-2.6v3.19c0 .33-.24.63-.56.69-2.04.43-3.95 1.22-5.69 2.36-.28.18-.65.14-.89-.1l-2.25-2.25-4.01 4.01 2.26 2.25c.23.24.27.61.09.89-1.14 1.74-1.93 3.65-2.35 5.68-.07.33-.36.57-.7.57h-3.19v5.66h3.19c.34 0 .63.24.7.57.42 2.03 1.21 3.94 2.35 5.68.18.28.14.65-.09.89l-2.26 2.25 4.01 4.01 2.25-2.26c.24-.23.61-.27.89-.09 1.74 1.14 3.65 1.93 5.69 2.36.32.06.56.36.56.69v3.19h2.6.02.02 3.02v-3.19c0-.33.24-.63.57-.69 2.03-.43 3.95-1.22 5.68-2.36.28-.18.65-.14.89.09l2.26 2.26 4-4.01-2.25-2.25c-.24-.24-.28-.61-.09-.89 1.13-1.74 1.93-3.65 2.35-5.68.07-.33.36-.57.69-.57h3.19v-5.66zm-15.49 17.03s0 0-.01 0h-.01c-.47.05-.94.07-1.42.07-7.87 0-14.27-6.4-14.27-14.27 0-2.67.75-5.17 2.04-7.31.02-.07.06-.13.11-.19 1.79-2.87 4.55-5.08 7.84-6.12h.02c.02-.02.04-.01.06-.02 1.33-.41 2.74-.63 4.2-.63 4.58 0 8.66 2.18 11.27 5.54.05.04.09.1.12.16.75.99 1.37 2.07 1.84 3.23.02.04.03.08.04.12.64 1.62 1.01 3.38 1.01 5.22 0 7.38-5.64 13.48-12.84 14.2z" fill="#db6767"/><path d="m14.74 24.73h-9.93c-.54 0-.98-.44-.98-.98v-4.16c1.6-.24 2.84-1.62 2.84-3.29 0-1.83-1.49-3.33-3.33-3.33s-3.34 1.5-3.34 3.33c0 1.67 1.24 3.05 2.84 3.29v4.16c0 1.08.89 1.97 1.97 1.97h9.93c.27 0 .49-.22.49-.5 0-.27-.22-.49-.49-.49zm-11.4-6.08c-1.3 0-2.35-1.05-2.35-2.35 0-1.29 1.05-2.35 2.35-2.35 1.29 0 2.35 1.06 2.35 2.35 0 1.3-1.06 2.35-2.35 2.35z"/><path d="m5.69 16.3c0 1.3-1.06 2.35-2.35 2.35-1.3 0-2.35-1.05-2.35-2.35 0-1.29 1.05-2.35 2.35-2.35 1.29 0 2.35 1.06 2.35 2.35z" fill="#ffcd00"/><path d="m14.74 38.28h-9.93c-1.08 0-1.97.89-1.97 1.97v4.16c-1.6.24-2.84 1.62-2.84 3.29 0 1.84 1.5 3.33 3.34 3.33s3.33-1.49 3.33-3.33c0-1.67-1.24-3.05-2.84-3.29v-4.16c0-.54.44-.98.98-.98h9.93c.27 0 .49-.22.49-.49 0-.28-.22-.5-.49-.5zm-9.05 9.42c0 1.29-1.06 2.35-2.35 2.35-1.3 0-2.35-1.06-2.35-2.35 0-1.3 1.05-2.35 2.35-2.35 1.29 0 2.35 1.05 2.35 2.35z"/><path d="m5.69 47.7c0 1.29-1.06 2.35-2.35 2.35-1.3 0-2.35-1.06-2.35-2.35 0-1.3 1.05-2.35 2.35-2.35 1.29 0 2.35 1.05 2.35 2.35z" fill="#ffcd00"/><path d="m45.27 26.78c-.01-.04-.02-.08-.04-.12-.47-1.16-1.09-2.24-1.84-3.23-.03-.06-.07-.12-.12-.16-2.61-3.36-6.69-5.54-11.27-5.54-1.46 0-2.87.22-4.2.63-.02.01-.04 0-.06.02-.01 0-.01 0-.02 0-3.29 1.04-6.05 3.25-7.84 6.12-.05.06-.09.12-.11.19-1.29 2.14-2.04 4.64-2.04 7.31 0 7.87 6.4 14.27 14.27 14.27.48 0 .95-.02 1.42-.07h.01.01c7.2-.72 12.84-6.82 12.84-14.2 0-1.84-.37-3.6-1.01-5.22zm-13.27-8.07c4.01 0 7.59 1.79 10.03 4.6l-2.65.51c-.73.14-1.4.54-1.88 1.13-.35.43-.84.72-1.33.78-.82.11-1.69.06-2.57-.15-.53-.12-1.01-.47-1.32-.98l-.64-1.05c-.14-.23-.23-.46-.27-.69-.2-1.13-.97-1.79-1.59-2.14-.38-.22-.7-.58-.9-1.03l-.25-.53c1.08-.28 2.21-.45 3.37-.45zm-7.91 23.94c-3.25-2.42-5.38-6.29-5.38-10.65 0-2.46.69-4.75 1.85-6.73l.43-.09c.42-.08 1.04.13 1.28.45.25.33.38.71.38 1.16 0 .33-.1.68-.3 1.1-.31.64-.18 1.39.35 1.97.55.63 1.39.88 2.06.64l.64-.18c.63-.17 1.29.05 1.64.55.86 1.22.94 3.11.18 4.4-.36.62-1.05 1-1.8 1h-1c-.77 0-1.46.49-1.71 1.21l-.23.68c-.24.68-.04 1.45.51 1.95.87.79 1.23 1.63 1.1 2.54zm8.91 2.59c-.33.02-.66.05-1 .05-2.58 0-4.98-.75-7.02-2.03.36-1.41-.08-2.74-1.32-3.87-.27-.24-.36-.59-.25-.91l.23-.67c.12-.33.43-.56.78-.56h1c1.1 0 2.12-.57 2.65-1.48.94-1.6.84-3.95-.23-5.47-.58-.83-1.66-1.21-2.69-.93l-.69.19c-.37.14-.79-.08-1.03-.35-.09-.11-.39-.49-.19-.89.27-.57.39-1.05.39-1.53 0-.66-.19-1.25-.57-1.75-.39-.51-1.11-.82-1.79-.85 1.59-2.17 3.82-3.85 6.41-4.74l.3.65c.3.64.75 1.15 1.31 1.47.43.25.98.7 1.11 1.46.06.35.2.7.4 1.03l.65 1.05c.44.73 1.15 1.26 1.93 1.43.65.15 1.3.23 1.93.23.33 0 .66-.02.99-.06.74-.1 1.44-.5 1.97-1.14.33-.41.79-.69 1.29-.78l3.16-.61c.58.79 1.08 1.63 1.47 2.54-.8.6-2.61 2.32-1.95 5.18.12.66.05 1.13-.21 1.4-.4.43-1.33.54-2.75.34-.73-.1-1.41-.07-2.02.07-2.69.65-3.01 3.1-3.01 4.88 0 .23.02.45.04.69l.05.43c.13 1.14-.09 2.29-.63 3.31-.37.69-.61 1.44-.71 2.22zm1.01-.12c.1-.57.29-1.12.57-1.64.63-1.2.89-2.54.74-3.88l-.05-.42c-.01-.19-.03-.39-.03-.59 0-2.37.67-3.54 2.25-3.92.49-.12 1.05-.13 1.66-.06 1.8.26 2.94.06 3.59-.63.5-.52.65-1.28.46-2.28-.48-2.1.66-3.43 1.36-4.02.46 1.36.73 2.81.73 4.32 0 6.64-4.91 12.15-11.28 13.12z"/><g fill="#3988ca"><path d="m45.29 32c0 6.64-4.91 12.15-11.28 13.12.1-.57.29-1.12.57-1.64.63-1.2.89-2.54.74-3.88l-.05-.42c-.01-.19-.03-.39-.03-.59 0-2.37.67-3.54 2.25-3.92.49-.12 1.05-.13 1.66-.06 1.8.26 2.94.06 3.59-.63.5-.52.65-1.28.46-2.28-.48-2.1.66-3.43 1.36-4.02.46 1.36.73 2.81.73 4.32z"/><path d="m42.03 23.31-2.65.51c-.73.14-1.4.54-1.88 1.13-.35.43-.84.72-1.33.78-.82.11-1.69.06-2.57-.15-.53-.12-1.01-.47-1.32-.98l-.64-1.05c-.14-.23-.23-.46-.27-.69-.2-1.13-.97-1.79-1.59-2.14-.38-.22-.7-.58-.9-1.03l-.25-.53c1.08-.28 2.21-.45 3.37-.45 4.01 0 7.59 1.79 10.03 4.6z"/><path d="m27.22 35.27c-.36.62-1.05 1-1.8 1h-1c-.77 0-1.46.49-1.71 1.21l-.23.68c-.24.68-.04 1.45.51 1.95.87.79 1.23 1.63 1.1 2.54-3.25-2.42-5.38-6.29-5.38-10.65 0-2.46.69-4.75 1.85-6.73l.43-.09c.42-.08 1.04.13 1.28.45.25.33.38.71.38 1.16 0 .33-.1.68-.3 1.1-.31.64-.18 1.39.35 1.97.55.63 1.39.88 2.06.64l.64-.18c.63-.17 1.29.05 1.64.55.86 1.22.94 3.11.18 4.4z"/></g><path d="m42.24 31.9c.12.66.05 1.13-.21 1.4-.4.43-1.33.54-2.75.34-.73-.1-1.41-.07-2.02.07-2.69.65-3.01 3.1-3.01 4.88 0 .23.02.45.04.69l.05.43c.13 1.14-.09 2.29-.63 3.31-.37.69-.61 1.44-.71 2.22-.33.02-.66.05-1 .05-2.58 0-4.98-.75-7.02-2.03.36-1.41-.08-2.74-1.32-3.87-.27-.24-.36-.59-.25-.91l.23-.67c.12-.33.43-.56.78-.56h1c1.1 0 2.12-.57 2.65-1.48.94-1.6.84-3.95-.23-5.47-.58-.83-1.66-1.21-2.69-.93l-.69.19c-.37.14-.79-.08-1.03-.35-.09-.11-.39-.49-.19-.89.27-.57.39-1.05.39-1.53 0-.66-.19-1.25-.57-1.75-.39-.51-1.11-.82-1.79-.85 1.59-2.17 3.82-3.85 6.41-4.74l.3.65c.3.64.75 1.15 1.31 1.47.43.25.98.7 1.11 1.46.06.35.2.7.4 1.03l.65 1.05c.44.73 1.15 1.26 1.93 1.43.65.15 1.3.23 1.93.23.33 0 .66-.02.99-.06.74-.1 1.44-.5 1.97-1.14.33-.41.79-.69 1.29-.78l3.16-.61c.58.79 1.08 1.63 1.47 2.54-.8.6-2.61 2.32-1.95 5.18z" fill="#04c051"/></g></svg>