<svg id="Capa_1" enable-background="new 0 0 512 512" height="512" viewBox="0 0 512 512" width="512" xmlns="http://www.w3.org/2000/svg"><g><g><circle cx="255.914" cy="143.494" fill="#ccf5fc" r="133.494"/></g><g><g><path d="m316.404 448.455h58.594c39.618 0 74.404-24.676 88.115-60.594 3.465-9.075 12.802-14.477 22.347-12.67l.256.048c12.156 2.302 19.263 15.032 14.877 26.6-12.014 31.689-35.528 57.261-65.064 72.191v27.97h-16.217-102.908z" fill="#ffda8f"/></g><g><g id="XMLID_1188_"><path d="m376.809 376.336c16.795 0 30.41 13.615 30.41 30.41v10.482c0 16.795-13.615 30.41-30.41 30.41-16.795 0-30.41-13.615-30.41-30.41v-10.482c0-16.795 13.615-30.41 30.41-30.41z" fill="#ffd0c7"/></g></g><g><g id="XMLID_1186_"><path d="m256 316.863c-16.989 0-30.762 13.773-30.762 30.762v10.603c0 16.989 13.773 30.762 30.762 30.762 16.989 0 30.762-13.773 30.762-30.762v-10.603c0-16.99-13.773-30.762-30.762-30.762z" fill="#ffd0c7"/></g></g><g><path d="m371.899 296.415c-10.849-2.055-21.317 5.075-23.372 15.929-8.41 44.406-47.377 76.637-92.654 76.637s-84.244-32.23-92.654-76.637c-2.056-10.854-12.524-17.985-23.372-15.929-10.853 2.055-17.984 12.52-15.929 23.372 7.964 42.052 35.154 76.435 71.424 94.77v87.443h16.217 96 8.846v-87.452c36.268-18.336 63.46-52.71 71.424-94.761 2.055-10.852-5.077-21.317-15.93-23.372z" fill="#66e0f7"/></g><g><g><path d="m374.224 81.622h-33.175c-14.371 0-28.062 6.121-37.645 16.83-4.443 4.965-6.899 11.394-6.899 18.057 0 14.955 12.123 27.079 27.079 27.079h14.875l10.38 27.434c-7.278 4.81-8.9 13.917-4.807 20.638l18.551 30.46 1.728-.707c15.79-21.927 25.096-48.834 25.096-77.918.001-22.332-5.49-43.377-15.183-61.873z" fill="#a0e5a5"/></g><g><path d="m122.42 143.494c0 2.814.098 5.605.269 8.377h2.041c8.396 0 16.591 2.568 23.487 7.358l6.512 4.524c2.169 1.507 4.747 2.315 7.388 2.315 7.151 0 12.949-5.797 12.949-12.949v-5.327c0-7.827 6.345-14.172 14.172-14.172 4.437 0 8.618-2.078 11.297-5.614l33.248-43.888c8.279-10.928 7.111-26.314-2.723-35.867l-27.971-27.382c-47.451 20.468-80.669 67.664-80.669 122.625z" fill="#a0e5a5"/></g><g><path d="m260.346 275.614-16.741-47.487c-1.269-3.6-4.671-6.008-8.488-6.008h-2.66c-2.549 0-4.979-1.081-6.686-2.975l-10.869-12.062c-5.814-6.452-7.535-15.613-4.458-23.736l3.184-8.406c3.414-9.013 12.047-14.974 21.684-14.974h9.851c9.485 0 18.342 4.74 23.604 12.632 1.669 2.504 4.479 4.008 7.488 4.008h15.026c4.971 0 9 4.029 9 9v28.225c0 2.523-1.059 4.93-2.918 6.634l-3.514 3.221c-1.234 1.131-2.128 2.584-2.582 4.195l-12.895 45.791z" fill="#a0e5a5"/></g></g><g><path d="m195.596 448.455h-58.594c-39.618 0-74.404-24.676-88.116-60.594-3.465-9.075-12.802-14.477-22.347-12.67l-.256.048c-12.156 2.302-19.263 15.032-14.877 26.6 12.014 31.689 35.528 57.261 65.064 72.191v27.97h16.217 102.909z" fill="#ff7d97"/></g><g><g id="XMLID_1031_"><path d="m135.191 376.336c-16.795 0-30.41 13.615-30.41 30.41v10.482c0 16.795 13.615 30.41 30.41 30.41 16.795 0 30.41-13.615 30.41-30.41v-10.482c0-16.795-13.615-30.41-30.41-30.41z" fill="#ffd0c7"/></g></g></g><g><path d="m508.073 380.159c-4.327-7.724-11.798-13.099-20.481-14.742l-.271-.052c-14.225-2.691-28.334 5.267-33.55 18.929-7.192 18.841-20.917 34.075-37.974 43.534.92-3.381 1.42-6.933 1.42-10.601v-10.481c0-20.864-15.896-38.085-36.212-40.191 7.981-13.906 13.664-29.15 16.648-44.907 1.491-7.873-.173-15.856-4.686-22.479s-11.335-11.09-19.207-12.58c-7.876-1.489-15.854.174-22.476 4.685-6.624 4.514-11.093 11.336-12.583 19.209-4.896 25.851-21.383 47.081-43.467 58.746.984-3.503 1.527-7.189 1.527-11.002v-10.604c0-22.477-18.285-40.762-40.762-40.762s-40.762 18.285-40.762 40.762v10.604c0 3.868.555 7.606 1.566 11.154-22.231-11.632-38.842-32.935-43.76-58.899-1.491-7.873-5.96-14.694-12.583-19.208-6.622-4.513-14.604-6.18-22.475-4.685-7.873 1.49-14.695 5.958-19.208 12.58s-6.177 14.605-4.686 22.478c2.986 15.769 8.675 31.024 16.662 44.938-20.201 2.217-35.973 19.379-35.973 40.161v10.481c0 3.668.5 7.22 1.42 10.601-17.057-9.459-30.782-24.693-37.974-43.534-5.215-13.661-19.32-21.629-33.564-18.926l-.241.046c-8.698 1.646-16.169 7.021-20.496 14.745-4.334 7.736-5.016 16.931-1.871 25.226 12.041 31.758 34.79 58.058 64.415 74.647v21.968c0 5.522 4.478 10 10 10h359.059c5.522 0 10-4.478 10-10v-21.968c29.625-16.59 52.374-42.89 64.415-74.647 3.146-8.295 2.464-17.489-1.87-25.226zm-110.855 26.587v10.481c0 11.254-9.155 20.41-20.409 20.41s-20.409-9.156-20.409-20.41v-10.481c0-11.254 9.155-20.409 20.409-20.409s20.409 9.155 20.409 20.409zm-54.775 31.708h-16.039v-17.909c3.413-1.917 6.746-3.98 9.995-6.17v2.853c0 7.781 2.217 15.053 6.044 21.226zm-107.205-90.83c0-11.448 9.313-20.762 20.762-20.762s20.762 9.313 20.762 20.762v10.604c0 11.448-9.313 20.762-20.762 20.762s-20.762-9.313-20.762-20.762zm-99.933-37.19c1.505-2.207 3.778-3.696 6.404-4.193 2.621-.499 5.281.058 7.489 1.562 2.208 1.505 3.698 3.778 4.195 6.402 9.303 49.123 52.402 84.776 102.479 84.776s93.177-35.653 102.479-84.776c.497-2.624 1.986-4.897 4.194-6.401 2.207-1.503 4.871-2.057 7.491-1.562h.001c2.624.497 4.897 1.986 6.402 4.193 1.504 2.207 2.059 4.868 1.562 7.493-7.224 38.144-31.32 70.107-66.11 87.697-3.366 1.701-5.488 5.152-5.488 8.924v77.451h-101.061v-77.443c0-3.771-2.122-7.223-5.489-8.925-12.747-6.443-24.051-14.825-33.623-24.727-.967-1.159-2.001-2.258-3.089-3.302-14.88-16.572-25.109-37.035-29.397-59.678-.498-2.623.057-5.284 1.561-7.491zm40.296 104.124c3.169 2.126 6.418 4.13 9.741 5.997v17.899h-15.785c3.827-6.173 6.043-13.445 6.043-21.227v-2.669zm-60.819-7.812c0-11.254 9.155-20.409 20.409-20.409s20.409 9.155 20.409 20.409v10.481c0 11.254-9.155 20.41-20.409 20.41s-20.409-9.156-20.409-20.41zm-33.801 58.359c-27.837-14.07-49.225-37.798-60.225-66.811-1.428-3.766-.226-6.854.618-8.36.84-1.499 2.836-4.125 6.783-4.873l.241-.046c4.7-.884 9.387 1.806 11.144 6.411 15.306 40.091 54.471 67.027 97.459 67.027h48.34v33.547h-98.87v-17.97c0-3.771-2.122-7.222-5.49-8.925zm410.262-66.81c-11 29.013-32.388 52.74-60.225 66.811-3.367 1.702-5.489 5.153-5.489 8.925v17.969h-99.125v-33.546h48.594c42.988 0 82.153-26.937 97.459-67.027 1.757-4.604 6.437-7.301 11.129-6.414l.271.052c3.933.745 5.929 3.371 6.769 4.87.843 1.505 2.045 4.594.617 8.36z"/><path d="m132.659 195.828c5.231-1.772 8.034-7.449 6.262-12.68-2.196-6.482-3.834-13.123-4.92-19.872 3.008.937 5.873 2.333 8.51 4.164l6.514 4.526c3.863 2.683 8.391 4.101 13.093 4.101 12.653 0 22.948-10.295 22.948-22.949v-5.326c0-2.301 1.872-4.173 4.173-4.173 7.522 0 14.726-3.58 19.268-9.576l33.248-43.887c11.311-14.929 9.709-36.027-3.726-49.079l-16.636-16.16c10.96-3.196 22.543-4.917 34.521-4.917 41.304 0 77.934 20.386 100.366 51.622h-15.23c-17.194 0-33.632 7.349-45.099 20.163-6.091 6.809-9.445 15.589-9.445 24.724 0 20.445 16.633 37.079 37.078 37.079h7.968l5.542 14.645-4.896 7.721c-2.971 4.685-3.022 10.537-.138 15.271l18.899 31.031c-15.182 18.289-35.53 32.14-58.784 39.297l8.642-30.688 3.304-3.028c3.915-3.589 6.161-8.693 6.161-14.006v-28.225c0-10.477-8.523-19-19-19h-14.495c-7.163-10.431-18.944-16.641-31.623-16.641h-9.851c-13.708 0-26.181 8.613-31.035 21.432l-3.185 8.406c-4.424 11.678-1.979 24.695 6.381 33.973l10.869 12.062c3.597 3.991 8.741 6.281 14.114 6.281h1.951l12.167 34.511c-20.274-1.523-39.805-7.986-56.969-18.934-4.658-2.971-10.84-1.603-13.809 3.053-2.971 4.657-1.604 10.839 3.053 13.809 23.007 14.675 49.655 22.431 77.063 22.431 79.123 0 143.494-64.371 143.494-143.494s-64.37-143.495-143.493-143.495-143.494 64.371-143.494 143.494c0 15.769 2.543 31.27 7.56 46.072 1.772 5.232 7.453 8.034 12.679 6.262zm100.243 16.291-10.571-11.731c-3.321-3.687-4.293-8.858-2.535-13.498l3.185-8.407c1.93-5.095 6.885-8.517 12.332-8.517h9.851c6.155 0 11.869 3.058 15.284 8.182 3.532 5.297 9.442 8.459 15.809 8.459h14.025v26.784l-3.19 2.925c-2.607 2.391-4.492 5.453-5.449 8.854l-11.546 40.999c-.794.091-1.589.177-2.387.253l-14.672-41.619c-2.674-7.586-9.875-12.684-17.919-12.684zm130.5-7.881-12.473-20.479 5.729-9.035c1.686-2.656 2.022-5.952.908-8.895l-9.755-25.78c-1.471-3.889-5.195-6.461-9.353-6.461h-14.876c-9.417 0-17.078-7.662-17.078-17.079 0-4.208 1.545-8.253 4.351-11.389 7.677-8.578 18.682-13.498 30.193-13.498h26.919c7.335 15.781 11.439 33.355 11.439 51.872.002 22.067-5.822 42.797-16.004 60.744zm-162.461-171.304 23.152 22.489c6.201 6.024 6.94 15.765 1.72 22.656l-33.248 43.887c-.784 1.035-2.027 1.653-3.326 1.653-13.329 0-24.173 10.844-24.173 24.173v5.326c0 1.626-1.322 2.949-2.948 2.949-.604 0-1.188-.183-1.683-.526l-6.513-4.525c-6.48-4.501-13.797-7.404-21.489-8.567.4-47.914 28.221-89.402 68.508-109.515z"/><circle cx="150.899" cy="225.927" r="10"/></g></g></svg>