<svg id="Layer_1" viewBox="0 0 512 512" xmlns="http://www.w3.org/2000/svg" data-name="Layer 1"><circle cx="251.085" cy="180.28" fill="#004cbd" r="156.404" transform="matrix(.707 -.707 .707 .707 -53.936 230.347)"/><g fill-rule="evenodd"><path d="m226.494 334.754c-74.696-11.798-131.813-76.462-131.813-154.474s57.117-142.676 131.813-154.474c74.695 11.798 131.813 76.462 131.813 154.474s-57.118 142.676-131.813 154.474z" fill="#0062d9"/><path d="m318.564 100.103c26.983-18.958-22.125-44.377-5.683-63.544-18.956-8.162-39.849-12.682-61.797-12.682-38.024 0-72.879 13.569-99.987 36.129 8.801 12.361 19.241 21.475 30.323 21.475 12.028 0 32.632-.373 29.872 16.272-2.688 16.213 19.263 10.815 7.122 40.242-4.587 11.118 14.434 25.486-6.907 37.784-5.428 3.128-60.757 33.747-37.372 40.548 22.001 6.398 14.451-22.056 45.84-1.095 13.207 8.82 23.508.428 27.271-12.666 2.626-9.141 7.196-32.859 17.636-32.546 40.76 1.222 11.998-38.198 4.7-52.011-10.751-20.349 21.519-57.073 28.419-23.234 2.807 13.767 9.244 13.28 20.561 5.329z" fill="#29b933"/><path d="m318.564 100.103c6.2-4.356 8.376-9.054 8.26-13.937-23.872-31.636-59.481-53.912-100.353-60.363-28.388 4.487-54.236 16.611-75.373 34.202 8.801 12.361 19.241 21.475 30.323 21.475 12.028 0 32.632-.373 29.872 16.272-2.688 16.213 19.263 10.815 7.122 40.242-4.587 11.118 14.434 25.486-6.907 37.784-5.428 3.128-60.757 33.747-37.372 40.548 22.001 6.398 14.451-22.056 45.84-1.095 13.207 8.82 23.508.428 27.271-12.666 2.626-9.141 7.196-32.859 17.636-32.546 40.76 1.222 11.998-38.198 4.7-52.011-10.751-20.349 21.519-57.073 28.419-23.234 2.807 13.767 9.244 13.28 20.561 5.329z" fill="#2dd62d"/><path d="m298.911 277.041c-36.613 33.568-14.154-4.005-42.51-4.005-46.969 0-.443 29.6-42.948 30.718-13.617.358-17.731 12.225-18.891 22.405 17.531 6.797 36.591 10.526 56.523 10.526 40.791 0 77.934-15.615 105.779-41.194-11.868-21.854-28.709-45.262-57.953-18.45z" fill="#29b933"/><path d="m298.911 277.041c-36.613 33.568-14.154-4.005-42.51-4.005-46.969 0-.443 29.6-42.948 30.718-13.617.358-17.731 12.225-18.891 22.405 10.164 3.941 20.842 6.85 31.907 8.599 44.032-6.947 81.952-32.267 105.674-67.861-8.932-3.895-19.766-2.202-33.231 10.144z" fill="#2dd62d"/><path d="m96.364 157.311c8.611-.075 18.946 10.526 27.937-5.076 2.575-4.468 27.782-50.017 33.38-30.766 5.267 18.112-18.157 11.897-.901 37.737 7.261 10.873.352 19.353-10.428 22.45-7.525 2.162-27.05 5.924-26.793 14.519.591 19.711-10.364 19.671-21.808 15.067-2.01-10.009-3.07-20.361-3.07-30.962 0-7.804.579-15.471 1.683-22.969z" fill="#2dd62d"/><path d="m333.108 157.472c-35.467 38.449-7.132 98.159 47.425 95.834 7.06-9.915 9.488-19.24 9.3-27.332-.534-22.889-15.842-29.509-33.543-38.25-11.678-5.767-22.34-12.802-23.182-30.252z" fill="#99d100"/><path d="m327.143 164.991c-25.515 37.778 1.633 89.264 51.611 88.36 3.832-7.356 5.223-14.279 5.078-20.477-.534-22.889-15.842-29.509-33.543-38.25-11.538-5.698-22.085-12.636-23.147-29.633z" fill="#a8e304"/><path d="m457.241 115.539c-15.564-49.94-81.443-55.256-106.707-6.846 5.056 11.072 11.918 17.838 19.02 21.72 20.09 10.982 33.477 1.035 49.897-9.923 10.833-7.23 22.257-12.946 37.789-4.951z" fill="#99d100"/><path d="m397.531 75.412c-18.345 1.935-36.307 12.797-46.997 33.281 5.056 11.072 11.918 17.838 19.02 21.72 20.09 10.982 33.477 1.035 49.897-9.923 7.481-4.993 15.246-9.264 24.45-8.794-8.316-21.801-26.682-34.192-46.37-36.283z" fill="#a8e304"/><path d="m431.49 244.008c51.031 11.491 88.575-42.903 59.282-88.988-12.117-1.157-21.407 1.403-28.32 5.612-19.556 11.908-17.635 28.475-16.354 48.174.845 12.996.083 25.748-14.608 35.202z" fill="#99d100"/><path d="m431.49 244.008c3.018.68 5.988 1.121 8.901 1.355 40.877-3.296 66.192-50.191 40.95-90.493-7.652.538-13.892 2.718-18.889 5.761-19.556 11.908-17.635 28.475-16.354 48.174.845 12.996.083 25.748-14.608 35.202z" fill="#a8e304"/><path d="m312.308 417.726c9.087-15.29-2.424-34.659-20.197-33.987-28.09 0-35.436 1.451-61.461-14.055l-28.315-16.869c-17.303-10.309-33.138-14.6-53.193-12.745l-77.955 7.21v115.193c75.067 0 157.224 37.883 236.776 21.405 27.951-5.79 118.916-57.83 135.829-80.061 15.284-20.094-4.449-39.019-27.763-25.56-31.396 18.126-101.023 49.658-130.217 52.53 12.2-1.507 22.001-5.494 26.497-13.061z" fill="#fdb0a0"/><path d="m312.308 417.726c9.087-15.29-2.424-34.659-20.197-33.987-28.09 0-35.436 1.451-61.461-14.055l-28.315-16.869c-17.303-10.309-33.138-14.6-53.193-12.745l-77.955 7.21v95.651c74.398.884 158.177 37.664 236.776 21.384 27.951-5.79 118.916-57.83 135.829-80.061.947-1.245 1.759-2.485 2.444-3.714-5.323-7.222-17.207-9.788-30.207-2.283-31.396 18.126-101.023 49.658-130.217 52.53 12.2-1.507 22.001-5.494 26.497-13.061z" fill="#ffcec0"/><path d="m196.537 397.403c10.657 6.333 33.976 13.185 56.727 15.594 11.452 1.212 22.546 1.365 31.205-.215 29.175-5.321 27.814-18.035 19.601-26.15 10.291 5.889 15.048 19.637 8.239 31.094-3.698 6.223-10.984 10.024-20.242 12.017-1.88.351-3.954.697-6.255 1.044-10.303 1.649-22.596 1.669-34.411.418-25.254-2.674-51.693-10.609-64.183-18.031-12.21-7.258-2.96-23.074 9.319-15.771z" fill="#fdb0a0"/><path d="m11.183 328.091h47.337c9.293 0 16.896 7.602 16.896 16.896v119.781c0 9.292-7.603 16.895-16.896 16.895h-47.337z" fill="#2a93fc"/><path d="m11.183 328.091h47.337c1.674 2.62 2.647 5.728 2.647 9.05v118.14c0 7.22-5.889 13.109-13.109 13.109h-36.875z" fill="#4eb1fc"/><path d="m43.299 460.623c6.968 0 12.651-5.683 12.651-12.651s-5.683-12.651-12.651-12.651-12.651 5.683-12.651 12.651 5.683 12.651 12.651 12.651z" fill="#0062d9"/><path d="m485.672 218.573c-9.443 13.42-24.3 20.913-40.526 20.98 6.994-9.367 7.58-20.344 6.88-31.109l-.15-2.279c-1.237-18.561-2.054-30.825 13.639-40.385 5.273-3.209 11.533-4.867 18.654-4.987-1.688 14.817-6.791 30.762-16.272 43.45-1.984 2.655-1.44 6.414 1.214 8.399 1.078.805 2.338 1.195 3.587 1.195 1.828 0 3.633-.833 4.811-2.409 7.637-10.221 12.88-22.441 15.955-34.883 3.498 14.62.906 29.664-7.791 42.029zm11.049-65.206c.573-16.803-2.867-31.895-9.825-40.457-2.089-2.573-5.867-2.964-8.438-.872-2.573 2.086-2.963 5.869-.874 8.437 4.469 5.498 7.095 15.964 7.222 28.295-9.613.024-18.181 2.289-25.533 6.765-21.908 13.338-20.619 32.704-19.37 51.43l.15 2.255c.895 13.777-.732 22.605-11.868 29.77-2.034 1.311-3.083 3.71-2.662 6.091.422 2.38 2.231 4.274 4.591 4.804 5.02 1.132 10.012 1.686 14.914 1.686 20.15 0 38.668-9.334 50.459-26.098 14.933-21.231 15.352-48.703 1.234-72.107zm-453.592 301.317c-3.672 0-6.659-2.992-6.659-6.659s2.987-6.664 6.659-6.664 6.658 2.993 6.658 6.664-2.985 6.659-6.658 6.659zm0-25.322c-10.288 0-18.659 8.37-18.659 18.663s8.371 18.658 18.659 18.658 18.659-8.37 18.659-18.658-8.371-18.663-18.659-18.663zm395.957-29.158c-16.139 21.216-106.416 72.497-132.352 77.87-46.261 9.58-94.267.159-140.692-8.963-28.054-5.508-56.996-11.189-84.777-12.36v-104.402l68.322-6.317c17.946-1.657 32.778 1.913 49.602 11.931l28.333 16.88c25.307 15.077 34.879 15.029 57.993 14.928 2.063-.01 4.249-.019 6.575-.019.077 0 .152 0 .228-.01 6.134-.231 11.653 2.79 14.798 8.091 3.146 5.291 3.155 11.589.025 16.86-2.467 4.149-7.634 7.18-15.356 9.001-27.502 6.467-76.999-5.021-93.511-15.67-2.788-1.793-6.499-.993-8.295 1.797-1.794 2.78-.992 6.491 1.792 8.293 14.791 9.526 51.617 19.39 81.532 19.39 4.549 0 8.933-.231 13.061-.732l.002.029c31.911-3.137 103.363-36.391 132.715-53.338 10.019-5.792 18.22-4.154 21.902.029 3.581 4.062 2.854 10.471-1.897 16.711zm-369.821 64.618v-119.85c0-6.009-4.892-10.9-10.906-10.9h-41.366v141.66h41.365c6.014 0 10.906-4.891 10.906-10.91zm343.816-91.752c-22.695 13.102-62.099 31.461-93.16 42.491 2.754-7.849 1.923-16.436-2.489-23.857-5.408-9.102-14.912-14.312-25.451-13.95-2.308 0-4.474.01-6.522.019-22.556.101-29.353.13-51.797-13.242l-28.332-16.88c-19.175-11.42-36.174-15.477-56.849-13.569l-67.687 6.259c-2.15-10.418-11.392-18.268-22.435-18.268h-47.365c-3.315 0-6.001 2.679-6.001 5.999v153.658c0 3.31 2.686 5.999 6.001 5.999h47.364c11.294 0 20.696-8.221 22.563-18.976 26.674 1.118 53.996 6.476 82.808 12.138 33.255 6.529 67.291 13.208 101.377 13.208 14.697 0 29.409-1.238 44.061-4.279 29.032-6.009 121.498-58.73 139.469-82.351 8.294-10.9 8.824-23.429 1.351-31.909-6.916-7.859-21.01-11.671-36.906-2.491zm-311.629-208.572c.213.072.424.135.638.207 6.91 2.226 18.473 5.956 27.35-9.449l.454-.79c12.534-22.021 19.326-28.791 22.093-30.849 1.111 4.129.069 5.329-2.326 8.1-6.624 7.652-8.408 15.154 2.07 30.849 1.831 2.737 2.396 5.117 1.681 7.069-.964 2.631-4.245 4.978-8.774 6.283-.956.274-2.118.573-3.407.91-11.189 2.911-28.094 7.315-27.726 19.549.163 5.517-.749 9.536-2.445 10.76-1.365.983-4.271.848-8.101-.347-1.534-8.601-2.336-17.453-2.336-26.483 0-5.339.284-10.611.83-15.81zm48.742-95.694c-23.879 21.616-40.801 50.779-46.98 83.681.87.251 1.722.525 2.562.8 6.532 2.106 9.235 2.978 13.267-4.019l.424-.737c19.645-34.516 28.648-38.419 34.853-37.687 2.496.294 6.992 1.85 9.065 8.977 3.128 10.76-1.553 16.172-4.651 19.747-1.779 2.058-2.405 2.891-2.459 4.154-.069 1.739.817 5.262 5.436 12.182 5.077 7.599 4.416 13.906 2.968 17.863-2.312 6.303-8.408 11.29-16.728 13.685-1.039.299-2.297.626-3.695.993-14.257 3.71-18.089 6.216-18.755 7.681.288 10.158-2.142 16.947-7.426 20.754-2.712 1.952-5.907 2.925-9.639 2.925-.832 0-1.693-.048-2.579-.144 11.907 43.888 43.229 79.865 84.137 98.094 4.563-16.817 16.271-19.79 23.243-19.969 9.94-.26 12.698-2.13 13.425-2.92.823-.901.768-2.848.58-5.942-.265-4.317-.627-10.23 3.876-15.015 4.452-4.737 12.231-6.847 25.226-6.847 16.198 0 20.408 10.346 22.668 15.892.205.511.448 1.103.679 1.619 1.894-.916 6.125-3.686 15.108-11.926 11.442-10.49 22.535-14.938 32.966-13.227 13.483 2.217 22.947 13.873 30.397 26.334 7.855-7.98 14.827-16.822 20.758-26.382-.489.005-.983.029-1.47.029-26.702 0-49.632-14.022-60.356-37.147-10.716-23.11-6.293-49.483 11.546-68.82 1.64-1.778 4.186-2.395 6.458-1.571 2.274.824 3.828 2.935 3.945 5.349.638 13.227 7.467 19.048 19.845 25.163l2.027.997c15.973 7.854 32.451 15.974 34.621 38.665 3.834-13.256 5.895-27.254 5.895-41.725 0-13.762-1.851-27.336-5.5-40.443-3.089.834-6.285 1.32-9.623 1.32-6.044 0-12.547-1.576-19.691-5.484-7.554-4.125-13.797-10.413-18.625-18.725-10.613 6.274-18.364 13.781-20.892 20.398-.914 2.39-3.19 3.86-5.607 3.86-.709 0-1.434-.125-2.138-.395-3.097-1.181-4.648-4.65-3.466-7.744 3.938-10.312 15.288-20.836 30.126-28.734 4.956-8.982 11.433-16.47 18.96-22.209-13.908-16.157-30.764-28.936-49.484-37.812-.742 4.486 2.53 10.211 7.597 18.316 7.19 11.507 18.058 28.898-1.135 42.38-6.242 4.385-13.528 8.51-20.268 5.826-6.428-2.554-8.568-9.705-9.62-14.866-1.242-6.086-3.222-8.606-4.54-8.91-1.618-.371-5.084 1.494-8.321 5.7-4.783 6.211-7.821 15.916-4.373 22.445.841 1.59 2.024 3.609 3.394 5.946 7.57 12.919 19.013 32.435 11.469 45.156-4.043 6.818-12.474 10.09-25.049 9.705-.589-.019-2.487 1.128-4.958 6.515-2.421 5.277-4.222 12.191-5.536 17.241-.441 1.686-.836 3.199-1.195 4.452-2.789 9.705-8.559 16.803-15.83 19.463-1.818.67-4.077 1.185-6.697 1.185-3.894 0-8.591-1.142-13.843-4.65-8.692-5.802-13.266-6.905-15.559-6.818-2.034.082-3.329 1.127-5.839 3.301-4.137 3.58-10.392 8.992-22.785 5.387-7.945-2.313-9.668-7.214-9.988-9.926-.79-6.708 3.626-17.439 45.136-41.065l.903-.516c9.402-5.421 8.087-9.502 5.462-17.631-1.69-5.238-3.608-11.179-1.105-17.241 5.768-13.984 2.92-16.952-1.02-21.062-3.396-3.542-8.047-8.394-6.475-17.877.519-3.132-.234-4.452-.847-5.175-3.503-4.129-15.747-4.12-22.33-4.115h-.777c-10.594 0-21.065-6.298-31.169-18.701zm154.111-29.225c-3.378 10.254 3.191 20.769 8.608 29.437 8.734 13.974 11.181 19.853 2.144 26.204-6.148 4.318-8.385 4.515-8.813 4.515-.052 0-.079-.005-.079 0-.013-.01-1.289-.973-2.34-6.134-2.665-13.059-8.861-17.111-13.594-18.205-6.793-1.576-14.469 2.192-20.534 10.066-7.132 9.266-11.593 23.794-5.475 35.374.964 1.826 2.21 3.951 3.652 6.409 5.011 8.548 15.435 26.334 11.499 32.969-1.602 2.703-6.705 4.062-14.365 3.831-.143 0-.284-.005-.423-.005-13.521 0-18.645 19.67-22.046 32.729-.41 1.576-.779 2.992-1.115 4.163-1.694 5.898-4.843 10.201-8.423 11.512-2.781 1.017-6.061.284-9.749-2.178-20.323-13.569-28.289-9.213-35.914-2.612-3.518 3.041-5.453 4.718-11.582 2.935-.446-.125-.794-.251-1.064-.366 1.38-2.54 7.983-11.131 38.794-28.671l.96-.549c17.812-10.264 13.481-23.689 10.891-31.712-1.16-3.595-2.255-6.987-1.432-8.982 8.082-19.593 2.979-27.235-3.45-33.943-2.829-2.949-3.889-4.053-3.3-7.609 1.231-7.421-1.242-12.196-3.535-14.899-7.1-8.365-21.174-8.341-31.487-8.351h-.77c-8.245 0-16.167-7.252-21.965-14.384 25.388-19.564 57.171-31.22 91.628-31.22 18.516 0 36.509 3.344 53.278 9.676zm103.707 41.744c16.344 1.465 30.264 10.587 38.433 24.604-11.61-1.369-21.41 3.609-30.382 9.599l-1.897 1.267c-15.459 10.355-25.671 17.193-41.791 8.385-5.419-2.968-9.999-7.546-13.663-13.656 13.68-5.946 30.045-9.503 45.779-7.638 3.29.39 6.275-1.961 6.665-5.252.392-3.291-1.96-6.274-5.252-6.664-12.67-1.503-25.874.063-38.188 3.623 10.917-10.341 25.244-15.622 40.296-14.268zm-58.735 127.647c-1.306-3.04-4.834-4.452-7.88-3.146-3.045 1.311-4.453 4.838-3.147 7.883 5.031 11.724 12.986 22.373 22.222 31.254-14.407-4.284-26.136-14.046-32.492-27.756-6.902-14.89-5.963-31.505 2.091-45.59 4.615 10.741 13.831 16.735 23.503 21.515l2.046 1.007c16.696 8.211 27.728 13.637 28.155 32.001.145 6.173-1.532 12.432-4.992 18.663-11.992-8.876-23.258-21.27-29.507-35.832zm-148.041 113.263c2.769-12.201 9.63-12.379 12.316-12.451 10.987-.289 17.963-2.457 21.955-6.809 4.324-4.722 3.968-10.538 3.71-14.779-.192-3.151-.245-5.132.638-6.071.868-.92 4.209-3.06 16.487-3.06 8.126 0 9.566 3.527 11.555 8.418 1.397 3.431 3.307 8.119 8.527 9.29 5.89 1.33 12.572-2.53 26.484-15.28 8.587-7.874 16.299-11.314 22.909-10.23 9.569 1.571 17.396 12.524 23.369 22.913-26.364 22.758-60.682 36.54-98.16 36.54-17.443 0-34.2-3.002-49.791-8.481zm49.791 20.479c58.489 0 109.847-31.08 138.445-77.595 8.734 4.072 17.258 6.346 24.555 6.346 1.687 0 3.309-.12 4.849-.366 3.273-.525 5.5-3.604 4.976-6.876-.523-3.272-3.599-5.508-6.872-4.973-5.564.891-13.272-.81-21.6-4.582 11.529-22.291 18.051-47.58 18.051-74.357 0-15.319-2.131-30.435-6.327-45.007 4.717-2.501 9.252-5.532 13.739-8.539l1.881-1.257c11.484-7.667 19.939-10.664 31.713-4.607 2.151 1.108 4.755.814 6.605-.742 1.852-1.556 2.588-4.067 1.869-6.375-7.828-25.12-28.453-42.134-53.828-44.409-11.959-1.074-23.519 1.224-33.804 6.356-30.975-36.815-75.97-57.829-124.252-57.829-89.55 0-162.404 72.858-162.404 162.409s72.854 162.404 162.404 162.404z" fill="#021047"/></g></svg>