<svg height="512" viewBox="0 0 64 64" width="512" xmlns="http://www.w3.org/2000/svg"><g id="Linear_OK" data-name="Linear OK"><path d="m11 30h42v32h-42z" fill="#debe8b"/><path d="m11 30h42v7h-42z" fill="#231f20" opacity=".1"/><path d="m2 34 30-19 30 19z" fill="#fbb040"/><path d="m2 52h19v10h-19z" fill="#39b54a"/><path d="m43 52h19v10h-19z" fill="#39b54a" transform="matrix(-1 0 0 -1 105 114)"/><path d="m2 58h19v4h-19z" fill="#231f20" opacity=".1"/><path d="m43 58h19v4h-19z" fill="#231f20" opacity=".1" transform="matrix(-1 0 0 -1 105 120)"/><path d="m26 40h12v22h-12z" fill="#d6914c"/><path d="m26 56h12v6h-12z" fill="#797a7a"/><path d="m43.347 18.4c-4.023 4.024-10.928 2.186-10.928 2.186s-1.838-6.9 2.186-10.928 12.385-3.648 12.385-3.648.381 8.362-3.643 12.39z" fill="#88d392"/><path d="m46.99 6.01s.381 8.362-3.643 12.385-10.928 2.186-10.928 2.186z" fill="#39b54a"/><path d="m20.653 14.4c4.023 4.024 10.928 2.186 10.928 2.186s1.838-6.9-2.186-10.928-12.385-3.648-12.385-3.648-.381 8.362 3.643 12.39z" fill="#88d392"/><path d="m17.01 2.01s-.381 8.362 3.643 12.385 10.928 2.186 10.928 2.186z" fill="#39b54a"/><path d="m14 40h8v8h-8z" fill="#fff"/><path d="m18 49a1 1 0 0 1 -1-1v-8a1 1 0 0 1 2 0v8a1 1 0 0 1 -1 1z" fill="#debe8b"/><path d="m22 45h-8a1 1 0 0 1 0-2h8a1 1 0 0 1 0 2z" fill="#debe8b"/><path d="m42 40h8v8h-8z" fill="#fff"/><path d="m46 49a1 1 0 0 1 -1-1v-8a1 1 0 0 1 2 0v8a1 1 0 0 1 -1 1z" fill="#debe8b"/><path d="m50 45h-8a1 1 0 0 1 0-2h8a1 1 0 0 1 0 2z" fill="#debe8b"/><path d="m26 59h12v3h-12z" fill="#6b6b6b"/><g fill="#231f20"><path d="m54 53a1 1 0 0 1 -1-1v-17h-42v17a1 1 0 0 1 -2 0v-18a1 1 0 0 1 1-1h44a1 1 0 0 1 1 1v18a1 1 0 0 1 -1 1z"/><path d="m53 63h-42a1 1 0 0 1 0-2h42a1 1 0 0 1 0 2z"/><path d="m31.861 16.09a1 1 0 0 1 -.541-1.842l.14-.09a1 1 0 0 1 1.042-.023l.121.07a1 1 0 0 1 .362 1.367.988.988 0 0 1 -.919.5.953.953 0 0 1 -.205.018z"/><path d="m62 35h-60a1 1 0 0 1 -.535-1.845l26.89-17.03a1 1 0 1 1 1.07 1.69l-23.977 15.185h53.105l-18.728-11.865a1 1 0 0 1 1.07-1.69l21.64 13.71a1 1 0 0 1 -.535 1.845z"/><path d="m21 63h-19a1 1 0 0 1 -1-1v-10a1 1 0 0 1 1-1h19a1 1 0 0 1 1 1v10a1 1 0 0 1 -1 1zm-18-2h17v-8h-17z"/><path d="m62 63h-19a1 1 0 0 1 -1-1v-10a1 1 0 0 1 1-1h19a1 1 0 0 1 1 1v10a1 1 0 0 1 -1 1zm-18-2h17v-8h-17z"/><path d="m32 31a1 1 0 0 1 -1-1v-15a1 1 0 0 1 2 0v15a1 1 0 0 1 -1 1z"/><path d="m36.082 22.006a16.491 16.491 0 0 1 -3.92-.459 1 1 0 0 1 -.709-.709c-.081-.3-1.936-7.512 2.444-11.893 4.287-4.285 12.78-3.945 13.139-3.934a1 1 0 0 1 .953.953c.016.36.352 8.852-3.934 13.139a11.07 11.07 0 0 1 -7.973 2.903zm-2.822-2.268c1.659.306 6.458.873 9.381-2.05 2.9-2.9 3.31-8.46 3.353-10.682-2.222.043-7.782.453-10.682 3.353-2.935 2.935-2.361 7.723-2.052 9.379z"/><path d="m32.419 21.581a1 1 0 0 1 -.707-1.707l10.581-10.581a1 1 0 0 1 1.414 1.414l-10.581 10.581a1 1 0 0 1 -.707.293z"/><path d="m36 18a1 1 0 0 1 -1-1v-4a1 1 0 0 1 2 0v4a1 1 0 0 1 -1 1z"/><path d="m42 15h-3a1 1 0 0 1 0-2h3a1 1 0 0 1 0 2z"/><path d="m27.918 18.006a11.066 11.066 0 0 1 -7.973-2.9c-4.286-4.29-3.945-12.782-3.934-13.142a1 1 0 0 1 .953-.953c.357-.018 8.853-.351 13.136 3.934 4.38 4.381 2.525 11.589 2.444 11.893a1 1 0 0 1 -.709.709 16.5 16.5 0 0 1 -3.917.459zm-6.559-4.318c2.933 2.934 7.722 2.361 9.379 2.052.306-1.658.873-6.457-2.05-9.381-2.9-2.9-8.46-3.31-10.682-3.353.043 2.222.453 7.782 3.353 10.682z"/><path d="m31.581 17.581a1 1 0 0 1 -.707-.293l-10.581-10.581a1 1 0 0 1 1.414-1.414l10.581 10.581a1 1 0 0 1 -.707 1.707z"/><path d="m28 14a1 1 0 0 1 -1-1v-4a1 1 0 0 1 2 0v4a1 1 0 0 1 -1 1z"/><path d="m25 11h-3a1 1 0 0 1 0-2h3a1 1 0 0 1 0 2z"/><path d="m38 63h-12a1 1 0 0 1 -1-1v-22a1 1 0 0 1 1-1h12a1 1 0 0 1 1 1v22a1 1 0 0 1 -1 1zm-11-2h10v-20h-10z"/><circle cx="35" cy="48" r="1"/><path d="m50 49h-8a1 1 0 0 1 -1-1v-8a1 1 0 0 1 1-1h8a1 1 0 0 1 1 1v8a1 1 0 0 1 -1 1zm-7-2h6v-6h-6z"/><path d="m46 49a1 1 0 0 1 -1-1v-8a1 1 0 0 1 2 0v8a1 1 0 0 1 -1 1z"/><path d="m50 45h-8a1 1 0 0 1 0-2h8a1 1 0 0 1 0 2z"/><path d="m22 49h-8a1 1 0 0 1 -1-1v-8a1 1 0 0 1 1-1h8a1 1 0 0 1 1 1v8a1 1 0 0 1 -1 1zm-7-2h6v-6h-6z"/><path d="m18 49a1 1 0 0 1 -1-1v-8a1 1 0 0 1 2 0v8a1 1 0 0 1 -1 1z"/><path d="m22 45h-8a1 1 0 0 1 0-2h8a1 1 0 0 1 0 2z"/><path d="m38 57h-12a1 1 0 0 1 0-2h12a1 1 0 0 1 0 2z"/><path d="m38 60h-12a1 1 0 0 1 0-2h12a1 1 0 0 1 0 2z"/></g></g></svg>