<svg id="Layer_1" enable-background="new 0 0 512 512" viewBox="0 0 512 512" xmlns="http://www.w3.org/2000/svg"><g><circle cx="256" cy="256" fill="#01c0fa" r="248.5"/><path d="m351.738 26.613c73.455 43.174 122.762 123.022 122.762 214.387 0 137.243-111.257 248.5-248.5 248.5-33.931 0-66.273-6.801-95.738-19.113 36.885 21.68 79.86 34.113 125.738 34.113 137.243 0 248.5-111.257 248.5-248.5 0-103.312-63.045-191.899-152.762-229.387z" fill="#08a9f1"/><g fill="#0055a3"><path d="m85.156 302.594h-21.062c-5.523 0-10-4.477-10-10v-73.188c0-5.523 4.477-10 10-10h21.062l15.532 46.594z"/><path d="m426.844 302.594h21.062c5.523 0 10-4.477 10-10v-73.188c0-5.523-4.477-10-10-10h-21.062l-15.532 46.594z"/><path d="m318.125 162.812-62.125 15.532-62.125-15.531 11.385-22.771c2.541-5.082 7.735-8.292 13.416-8.292h74.646c5.682 0 10.876 3.21 13.416 8.292z"/></g><path d="m323.656 504.5h-135.312c-5.523 0-10-4.477-10-10v-104.25c0-5.523 4.477-10 10-10h135.312c5.523 0 10 4.477 10 10v104.25c0 5.523-4.477 10-10 10z" fill="#ffc344"/><path d="m391.844 162.812h-271.688c-19.33 0-35 15.67-35 35v116.375c0 19.33 15.67 35 35 35h75.346c10.609 0 20.783-4.214 28.284-11.716l14.536-14.536c9.763-9.763 25.592-9.763 35.355 0l14.536 14.536c7.501 7.501 17.676 11.716 28.284 11.716h75.346c19.33 0 35-15.67 35-35v-116.375c.001-19.329-15.669-35-34.999-35z" fill="#c8effe"/><path d="m391.844 162.812h-30c19.33 0 35 15.67 35 35v116.375c0 19.33-15.67 35-35 35h30c19.33 0 35-15.67 35-35v-116.375c0-19.329-15.67-35-35-35z" fill="#99e6fc"/><path d="m287.063 224.938h-62.125c-8.578 0-15.531-6.954-15.531-15.531 0-8.578 6.954-15.531 15.531-15.531h62.125c8.578 0 15.531 6.954 15.531 15.531 0 8.577-6.954 15.531-15.531 15.531z" fill="#01c0fa"/><path d="m512 256c0-141.483-114.497-256-256-256-35.205 0-69.32 7.019-101.385 20.863-3.803 1.642-5.555 6.056-3.913 9.858 1.643 3.804 6.058 5.554 9.858 3.913 11.116-4.799 22.494-8.727 34.089-11.773-20.389 16.055-38.41 40.049-52.654 70.327h-63.885c15.053-16.365 32.542-30.815 52.185-42.848 3.532-2.164 4.642-6.781 2.478-10.313-2.164-3.533-6.782-4.642-10.313-2.478-74.005 45.332-122.46 126.706-122.46 218.451v.005c.002 110.519 70.316 206.221 171.117 241.585 1.464 8.181 8.632 14.41 17.227 14.41h135.312c8.595 0 15.763-6.229 17.227-14.41 100.624-35.302 171.115-130.866 171.117-241.585zm-64.094-54.094h-13.562v-4.094c0-23.435-19.065-42.5-42.5-42.5h-.286c-4.105-16.83-9.153-32.589-15.014-47.125h69.683c30.375 39.002 49.038 87.552 50.658 140.316h-31.479v-29.098c0-9.648-7.85-17.499-17.5-17.499zm-21.062 65.964c-4.142 0-7.5 3.358-7.5 7.5v38.818c0 15.164-12.336 27.5-27.5 27.5h-75.346c-8.681 0-16.842-3.381-22.981-9.519l-14.536-14.536c-12.7-12.701-33.26-12.703-45.962 0l-14.536 14.536c-6.139 6.138-14.3 9.519-22.981 9.519h-75.346c-15.164 0-27.5-12.336-27.5-27.5v-116.376c0-15.164 12.336-27.5 27.5-27.5h271.688c15.164 0 27.5 12.336 27.5 27.5v42.557c0 4.142 3.358 7.5 7.5 7.5s7.5-3.358 7.5-7.5v-23.463h13.562c1.378 0 2.5 1.122 2.5 2.5v73.188c0 1.378-1.122 2.5-2.5 2.5h-13.562v-19.724c0-4.142-3.358-7.5-7.5-7.5zm-238.5 104.88c-9.649 0-17.5 7.851-17.5 17.5v13.564h-19.119c-6.224-14.494-11.533-30.279-15.823-47.126h59.601c12.688 0 24.616-4.941 33.587-13.913l14.536-14.536c1.44-1.44 3.088-2.598 4.875-3.447v47.958zm-17.5 67.152c-4.294-6.588-8.339-13.63-12.118-21.088h12.118zm-93.188-144.808h-13.562c-1.378 0-2.5-1.122-2.5-2.5v-73.188c0-1.378 1.122-2.5 2.5-2.5h13.562zm185.844-279.703c23.407 2.438 45.991 16.268 65.73 40.367 8.873 10.832 16.924 23.397 24.034 37.43h-89.764zm96.767 92.797c6.23 14.503 11.543 30.291 15.831 47.125h-53.338l-9.312-18.625c-3.836-7.672-11.547-12.438-20.125-12.438h-29.823v-16.062zm-66.944 31.062c2.859 0 5.43 1.589 6.708 4.146l5.958 11.917h-99.98l5.958-11.917c1.279-2.557 3.85-4.146 6.708-4.146zm-44.823-15h-29.823c-8.577 0-16.289 4.766-20.125 12.438l-9.312 18.625h-53.338c4.288-16.834 9.601-32.622 15.831-47.125h96.767zm185.038-31.062h-63.532c-14.222-30.229-32.209-54.196-52.558-70.25 45.253 11.94 85.339 36.745 116.09 70.25zm-250.768-37.43c19.74-24.099 42.324-37.929 65.73-40.367v77.797h-89.764c7.11-14.033 15.161-26.598 24.034-37.43zm-117.363 52.43h70.049c-5.861 14.536-10.909 30.295-15.014 47.125h-.286c-23.435 0-42.5 19.065-42.5 42.5v4.094h-13.562c-9.649 0-17.5 7.851-17.5 17.5v29.098h-31.48c1.57-51.949 19.436-100.686 50.293-140.317zm-50.292 155.316h31.478v29.09c0 9.649 7.851 17.5 17.5 17.5h13.562v4.094c0 23.435 19.065 42.5 42.5 42.5h.287c4.077 16.706 9.121 32.48 15.042 47.126h-70.025c-30.52-39.367-48.745-88.132-50.344-140.31zm62.986 155.31h63.941c8.297 17.585 17.96 33.233 28.802 46.539v16.177c-36.208-13.641-67.715-35.365-92.743-62.716zm245.555 78.186h-135.312c-1.378 0-2.5-1.122-2.5-2.5v-104.25c0-1.378 1.122-2.5 2.5-2.5h79.25c4.142 0 7.5-3.358 7.5-7.5s-3.358-7.5-7.5-7.5h-4.094v-47.958c1.787.849 3.434 2.007 4.875 3.447l14.536 14.536c8.972 8.972 20.9 13.913 33.587 13.913h59.601c-4.29 16.847-9.599 32.632-15.823 47.126h-19.119v-13.564c0-9.649-7.851-17.5-17.5-17.5h-21.062c-4.142 0-7.5 3.358-7.5 7.5s3.358 7.5 7.5 7.5h21.062c1.378 0 2.5 1.122 2.5 2.5v104.25c-.001 1.378-1.122 2.5-2.501 2.5zm17.5-78.186h12.118c-3.779 7.458-7.824 14.5-12.118 21.088zm0 62.716v-16.177c10.843-13.306 20.505-28.954 28.802-46.539h63.941c-25.028 27.351-56.535 49.075-92.743 62.716zm105.385-77.716h-70.026c5.921-14.646 10.965-30.421 15.042-47.126h.287c23.435 0 42.5-19.065 42.5-42.5v-4.094h13.562c9.649 0 17.5-7.851 17.5-17.5v-29.09h31.478c-1.598 52.178-19.823 100.943-50.343 140.31z"/><path d="m287.062 186.375h-62.125c-12.7 0-23.031 10.332-23.031 23.031s10.332 23.031 23.031 23.031h62.125c12.7 0 23.031-10.332 23.031-23.031s-10.331-23.031-23.031-23.031zm0 31.063h-62.125c-4.428 0-8.031-3.603-8.031-8.031s3.603-8.031 8.031-8.031h62.125c4.428 0 8.031 3.603 8.031 8.031s-3.602 8.031-8.031 8.031z"/><path d="m242.288 404.037c-4.014-1.003-8.09 1.438-9.095 5.457l-8.255 33.021-8.255-33.021c-1.004-4.019-5.078-6.463-9.095-5.457-4.019 1.004-6.462 5.077-5.457 9.095l15.531 62.125c.834 3.339 3.834 5.681 7.276 5.681s6.441-2.342 7.276-5.681l15.531-62.125c1.005-4.019-1.439-8.091-5.457-9.095z"/><path d="m302.594 418.812c4.142 0 7.5-3.358 7.5-7.5s-3.358-7.5-7.5-7.5h-31.062c-4.142 0-7.5 3.358-7.5 7.5v62.125c0 4.142 3.358 7.5 7.5 7.5h31.062c4.142 0 7.5-3.358 7.5-7.5s-3.358-7.5-7.5-7.5h-23.562v-16.062h8.031c4.142 0 7.5-3.358 7.5-7.5s-3.358-7.5-7.5-7.5h-8.031v-16.062h23.562z"/></g><g/><g/><g/><g/><g/><g/><g/><g/><g/><g/><g/><g/><g/><g/><g/></svg>