<svg id="Capa_1" enable-background="new 0 0 511.908 511.908" height="512" viewBox="0 0 511.908 511.908" width="512" xmlns="http://www.w3.org/2000/svg"><g><g><g><path d="m434.156 309.776c0 107.492-87.215 194.632-194.8 194.632s-194.8-87.14-194.8-194.632c0-95.018 152.211-261.806 187.539-299.237 3.944-4.178 10.578-4.178 14.522 0 35.327 37.431 187.539 204.219 187.539 299.237z" fill="#b3dafe"/><path d="m246.617 10.539c-3.944-4.178-10.578-4.178-14.522 0-2.161 2.29-4.765 5.07-7.739 8.282 45.646 49.292 179.8 201.75 179.8 290.956 0 102.449-79.224 186.411-179.8 194.063 4.951.377 9.953.569 15 .569 107.585 0 194.8-87.14 194.8-194.632 0-95.019-152.212-261.807-187.539-299.238z" fill="#8ac9fe"/><path d="m433.643 323.881c-54.29-23.001-113.126-18.509-265.017 13.25-34.201 7.151-73.33 15.73-116.674 25.943 23.197 81.581 98.317 141.333 187.405 141.333 102.836.001 187.052-79.619 194.286-180.526z" fill="#60b7ff"/><g><circle cx="364.353" cy="143.407" fill="#97d729" r="102.501"/><path d="m364.758 40.775c-5.096 0-10.104.378-15 1.097 49.438 7.258 87.391 49.842 87.391 101.294s-37.954 94.036-87.391 101.294c4.897.719 9.904 1.097 15 1.097 56.549 0 102.391-45.842 102.391-102.391s-45.842-102.391-102.391-102.391z" fill="#8bc727"/><path d="m353.176 187.481c-5.8 0-11.253-2.259-15.353-6.362l-31.311-31.309c-6.359-6.358-6.359-16.667 0-23.025 6.358-6.358 16.668-6.36 23.026 0l23.638 23.637 46.803-46.801c6.358-6.358 16.668-6.358 23.026 0 6.359 6.358 6.359 16.668 0 23.025l-54.477 54.477c-4.102 4.1-9.553 6.358-15.352 6.358z" fill="#f9f7f8"/></g></g></g><path d="m433.643 323.881c-9.545-4.044-19.234-7.234-29.542-9.58-.446 19.533-3.772 38.355-9.57 56.059l23.81 16.335c3.942-9.229 7.942-20.539 10.939-33.721 2.435-10.709 3.726-20.533 4.363-29.093z" fill="#26a6fe"/><path d="m312.087 352.233c-101.846-16.774-154.948-81.922-262.699-74.879-3.104 11.453-4.831 22.344-4.831 32.422 0 107.492 87.215 194.632 194.8 194.632 94.528 0 173.319-67.275 191.055-156.516-48.197 10.763-87.628 9.397-118.325 4.341z" fill="#0593fc"/><path d="m399.221 353.405c-18.75 81.788-89.058 143.923-174.935 150.428 4.974.38 9.999.575 15.07.575 94.528 0 173.319-67.275 191.055-156.516-10.842 2.421-21.236 4.223-31.19 5.513z" fill="#0182fc"/><path d="m394.675 98.316-41.5 41.498-18.334-18.333c-4.491-4.493-10.464-6.967-16.817-6.967s-12.324 2.475-16.814 6.966c-4.492 4.492-6.967 10.464-6.967 16.816s2.475 12.324 6.966 16.816l31.309 31.307c5.516 5.521 12.853 8.562 20.658 8.562 7.804 0 15.139-3.039 20.655-8.556l54.476-54.477c4.492-4.492 6.967-10.464 6.967-16.816 0-6.354-2.475-12.325-6.966-16.815-4.491-4.492-10.464-6.966-16.816-6.966s-12.326 2.474-16.817 6.965zm25.598 16.817c0 2.345-.914 4.551-2.573 6.209l-54.477 54.478c-2.684 2.684-6.252 4.162-10.048 4.162-3.797 0-7.364-1.479-10.049-4.166l-31.312-31.31c-1.658-1.658-2.572-3.863-2.572-6.209s.914-4.551 2.573-6.21c1.658-1.658 3.863-2.572 6.209-2.572s4.551.913 6.21 2.573l23.638 23.637c2.928 2.928 7.678 2.928 10.605 0l46.804-46.801c1.658-1.659 3.863-2.572 6.209-2.572s4.551.913 6.21 2.572c1.66 1.658 2.573 3.863 2.573 6.209zm54.58 27.774c0-26.9-9.813-52.794-27.632-72.909-2.747-3.102-7.487-3.389-10.587-.642-3.101 2.747-3.388 7.486-.642 10.587 15.387 17.371 23.86 39.731 23.86 62.964 0 52.384-42.617 95.001-95 95.001-52.384 0-95.001-42.617-95.001-95.001 0-53.374 41.696-95 95.001-95 16.089 0 31.98 4.093 45.957 11.835 3.626 2.007 8.188.696 10.195-2.926 2.007-3.624.697-8.188-2.926-10.195-16.196-8.972-34.602-13.714-53.227-13.714-25.351 0-48.723 8.625-67.346 23.088-19.974-23.291-36.818-41.475-45.439-50.609-6.786-7.19-18.653-7.174-25.426.001-18.174 19.255-65.043 70.344-107.626 128.754-54.385 74.6-81.961 133.692-81.961 175.636 0 35.977 9.581 71.305 27.708 102.164 2.119 3.607 6.746 4.735 10.266 2.668 3.571-2.098 4.766-6.694 2.668-10.266-16.774-28.558-25.642-61.259-25.642-94.566 0-7.903 1.143-16.362 3.209-25.229 57.684-2.492 99.3 16.513 143.282 36.598 8.176 3.734 16.422 7.496 24.847 11.16l.075.033c26.234 11.406 54.224 21.831 87.4 27.295 15.715 2.588 31.761 3.88 48.076 3.88 20.147 0 40.699-1.98 61.506-5.918-21.205 80.094-94.353 139.312-181.094 139.312-54.53 0-106.251-23.686-141.898-64.983-2.707-3.137-7.443-3.481-10.578-.777-3.136 2.707-3.483 7.442-.777 10.578 38.5 44.603 94.358 70.183 153.254 70.183 112.81 0 202.301-92.087 202.301-202.131 0-20.292-6.54-44.844-19.437-73.049 31.547-19.361 52.634-54.174 52.634-93.822zm-50.917 198.691c-38.115 7.948-75.311 9.053-110.631 3.235-21.896-3.606-41.592-9.565-60.095-16.558 87.672-15.278 132.61-14.991 172.49.475-.438 4.328-1.035 8.61-1.764 12.848zm2.721-31.821c0 1.103-.023 2.201-.042 3.299-45.034-16.17-96.34-14.711-199.159 4.63-7.67-3.358-15.207-6.792-22.679-10.205-44.456-20.302-86.599-39.528-145.22-38.101 31.268-94.716 151.118-225.244 177.991-253.715 1.112-1.179 2.507-1.175 3.613-.002 8.552 9.062 25.294 27.137 45.147 50.296-19.446 19.85-31.457 47.011-31.457 76.928 0 60.654 49.347 110.001 110.001 110.001 15.656 0 30.556-3.295 44.051-9.217 11.775 25.901 17.754 48.114 17.754 66.086z"/></g></svg>