<svg id="Capa_1" enable-background="new 0 0 511.918 511.918" height="512" viewBox="0 0 511.918 511.918" width="512" xmlns="http://www.w3.org/2000/svg"><g><path d="m343.637 286.163-117.882-117.881c-2.221-2.221-2.221-5.822 0-8.043l106.539-106.538c2.221-2.221 5.822-2.221 8.043 0l117.881 117.881c2.221 2.221 2.221 5.822 0 8.043l-106.539 106.538c-2.221 2.221-5.822 2.221-8.042 0z" fill="#ffe07d"/><path d="m458.218 171.582-117.882-117.881c-2.221-2.221-5.822-2.221-8.043 0l-5.979 5.979 50.578 50.578c25.044 25.044 25.044 65.649 0 90.693l-59.235 59.235 25.979 25.979c2.221 2.221 5.822 2.221 8.043 0l106.538-106.539c2.222-2.222 2.222-5.823.001-8.044z" fill="#ffc250"/><path d="m249.738 27.459h34.311v134.761h-34.311z" fill="#e49542" transform="matrix(-.707 -.707 .707 -.707 388.555 350.623)"/><path d="m189.875 130.479-6.775-6.775c-4.727-4.727-4.727-12.391 0-17.118l95.541-95.541c4.727-4.727 12.391-4.727 17.118 0l6.775 6.775c4.727 4.727 4.727 12.391 0 17.118l-95.541 95.541c-4.728 4.727-12.392 4.727-17.118 0z" fill="#e7a561"/><path d="m399.924 177.644h34.311v134.761h-34.311z" fill="#e49542" transform="matrix(.707 .707 -.707 .707 295.418 -223.153)"/><path d="m381.439 322.044 6.775 6.775c4.727 4.727 12.391 4.727 17.118 0l95.541-95.541c4.727-4.727 4.727-12.391 0-17.118l-6.775-6.775c-4.727-4.727-12.391-4.727-17.118 0l-95.541 95.541c-4.727 4.727-4.727 12.391 0 17.118z" fill="#e7a561"/><path d="m250.691 301.873-40.646-40.647c-2.538-2.538-2.538-6.654 0-9.192l13.012-13.012c2.538-2.538 6.654-2.538 9.192 0l40.646 40.646c2.538 2.538 2.538 6.654 0 9.192l-13.012 13.012c-2.538 2.539-6.653 2.539-9.192.001z" fill="#ffe07d"/><path d="m245.919 223.186h45.43v40.197h-45.43z" fill="#e49542" transform="matrix(.707 -.707 .707 .707 -93.347 261.209)"/><path d="m213.077 264.259-193.068 174.199c-16.085 14.513-16.727 39.541-1.408 54.86 15.319 15.319 40.347 14.677 54.86-1.408l174.199-193.068z" fill="#e7a561"/><path d="m501.878 504.413h-271.108c-1.402 0-2.538-1.136-2.538-2.538v-9.715c0-10.42 8.447-18.867 18.867-18.867h238.45c10.42 0 18.867 8.447 18.867 18.867v9.715c0 1.402-1.137 2.538-2.538 2.538z" fill="#e49542"/><path d="m432.161 418.366h-131.674c-24.543 0-44.438 19.896-44.438 44.438v10.49h220.551v-10.49c-.001-24.543-19.896-44.438-44.439-44.438z" fill="#e49542"/><path d="m432.161 418.366h-2.879c4.625 7.011 7.318 15.41 7.318 24.438 0 5.793-4.696 10.49-10.49 10.49h-169.041c-.668 3.064-1.02 6.246-1.02 9.51v10.49h220.551v-10.49c-.001-24.543-19.896-44.438-44.439-44.438z" fill="#e28424"/><path d="m442.498 418.366h-152.348c-7.542 0-13.656-6.114-13.656-13.656 0-7.542 6.114-13.656 13.656-13.656h152.349c7.542 0 13.656 6.114 13.656 13.656-.001 7.542-6.115 13.656-13.657 13.656z" fill="#ffe07d"/><path d="m499.402 204.081c-5.815-5.813-14.401-7.204-21.543-4.174l-14.659-14.658.321-.321c2.491-2.491 3.862-5.803 3.862-9.324 0-3.523-1.372-6.835-3.863-9.325l-76.697-76.699c-2.929-2.928-7.678-2.928-10.606 0-2.929 2.93-2.929 7.678 0 10.607l75.416 75.416c-8.941 8.941-14.329 14.33-103.975 103.975-19.744-19.744 7.809 7.809-115.318-115.317 25.601-25.6 78.715-78.716 103.975-103.976l14.587 14.589c2.929 2.928 7.678 2.928 10.606 0 2.929-2.93 2.929-7.678 0-10.606l-15.87-15.871c-5.142-5.141-13.507-5.142-18.649 0l-.321.321-14.65-14.65c2.988-7.01 1.743-15.624-4.183-21.551l-6.774-6.773c-3.701-3.704-8.624-5.744-13.861-5.744s-10.16 2.04-13.862 5.742l-95.541 95.541c-3.703 3.703-5.742 8.626-5.742 13.862s2.04 10.159 5.742 13.862l6.774 6.773c3.703 3.703 8.626 5.743 13.863 5.743 2.686 0 5.29-.537 7.689-1.56l14.651 14.651-.32.32c-2.491 2.49-3.863 5.802-3.863 9.325 0 3.521 1.372 6.833 3.863 9.325l39.425 39.425-21.517 21.517-.807-.807c-2.644-2.645-6.16-4.102-9.9-4.102s-7.256 1.457-9.899 4.101l-13.011 13.012c-4.671 4.671-5.277 11.683-2.209 16.939l-14.634 13.204c-3.075 2.774-3.319 7.518-.544 10.593 2.776 3.075 7.517 3.319 10.593.544l14.864-13.412 24.507 24.507-169.43 187.78c-11.532 12.783-31.572 13.547-43.988 1.129-12.252-12.251-11.826-32.299 1.129-43.987l146.665-132.331c3.075-2.774 3.319-7.518.544-10.593-2.774-3.073-7.517-3.318-10.593-.544l-146.664 132.331c-19.215 17.338-20.131 47.287-1.687 65.73 18.311 18.314 48.264 17.673 65.731-1.687l169.222-187.553c5.381 3.126 12.371 2.359 16.935-2.204l13.012-13.012c2.644-2.645 4.101-6.16 4.101-9.899s-1.457-7.255-4.101-9.899l-.808-.808 21.517-21.517 39.426 39.426c5.142 5.141 13.507 5.141 18.649 0l.321-.321 14.658 14.658c-3.03 7.141-1.639 15.728 4.174 21.542v.001l6.774 6.774c7.645 7.643 20.08 7.643 27.724 0l95.542-95.542c7.643-7.644 7.643-20.08 0-27.725zm-304.224-78.905-6.775-6.775c-1.799-1.798-1.8-4.711 0-6.51l95.542-95.542c1.801-1.8 4.71-1.8 6.511.001l6.774 6.774c1.799 1.798 1.8 4.711 0 6.51-.822.822-95.441 95.442-95.541 95.542-1.802 1.8-4.711 1.798-6.511 0zm22.546 5.178 84.683-84.684 13.655 13.655-84.683 84.684zm37.564 165.508c-.176-.176-39.131-39.131-39.232-39.231l11.597-11.597c4.968 4.968 33.497 33.496 39.232 39.231zm11.495-32.911-17.817-17.816 21.517-21.517 17.817 17.817zm185.81-67.096 13.655 13.655-84.684 84.684-13.655-13.655zm42.977 32.119-95.542 95.541c-1.794 1.796-4.716 1.796-6.511 0l-6.774-6.773c-1.795-1.796-1.795-4.717 0-6.512l.106-.106c166.494-166.494 3.451-3.45 95.435-95.435 1.796-1.795 4.717-1.794 6.511 0l6.774 6.773c1.796 1.796 1.796 4.717.001 6.512z"/><path d="m248.549 462.804v2.99h-1.45c-14.539 0-26.367 11.828-26.367 26.366v9.715c0 5.535 4.503 10.038 10.038 10.038h271.107c5.535 0 10.038-4.503 10.038-10.038v-9.715c0-14.538-11.828-26.366-26.367-26.366h-1.449v-2.99c0-18.92-10.169-35.509-25.328-44.59 3.048-3.666 4.883-8.375 4.883-13.504 0-11.665-9.49-21.155-21.156-21.155h-152.348c-11.666 0-21.156 9.49-21.156 21.155 0 5.129 1.835 9.837 4.883 13.504-15.16 9.08-25.328 25.67-25.328 44.59zm220.55 0v2.99h-11.671c-4.142 0-7.5 3.357-7.5 7.5s3.358 7.5 7.5 7.5h28.12c6.268 0 11.367 5.099 11.367 11.366v4.753h-261.183v-4.753c0-6.268 5.099-11.366 11.367-11.366h175.33c4.142 0 7.5-3.357 7.5-7.5s-3.358-7.5-7.5-7.5h-158.88v-2.99c0-20.368 16.57-36.938 36.938-36.938h131.674c20.368-.001 36.938 16.57 36.938 36.938zm-178.949-51.939c-3.395 0-6.156-2.762-6.156-6.155s2.761-6.155 6.156-6.155h152.349c3.395 0 6.156 2.762 6.156 6.155s-2.761 6.155-6.156 6.155z"/></g></svg>