<svg id="Capa_1" enable-background="new 0 0 512 512" height="512" viewBox="0 0 512 512" width="512" xmlns="http://www.w3.org/2000/svg"><g><g><g><g><g><path d="m39.567 207.94 18.013 31.2c.536.928 1.526 1.5 2.598 1.5h123.422c1.072 0 2.062-.572 2.598-1.5l18.013-31.2c1.155-2-.289-4.5-2.598-4.5h-159.448c-2.31 0-3.753 2.5-2.598 4.5z" fill="#fed402"/></g><g><g><path d="m307.788 207.94 18.013 31.2c.536.928 1.526 1.5 2.598 1.5h123.423c1.072 0 2.062-.572 2.598-1.5l18.013-31.2c1.155-2-.289-4.5-2.598-4.5h-159.449c-2.309 0-3.752 2.5-2.598 4.5z" fill="#fed402"/></g><g><path d="m39.567 207.94 18.013 31.2c.536.928 1.526 1.5 2.598 1.5h123.422c1.072 0 2.062-.572 2.598-1.5l18.013-31.2c1.155-2-.289-4.5-2.598-4.5h-159.448c-2.31 0-3.753 2.5-2.598 4.5z" fill="#ca6e59"/></g><g><path d="m99.962 239.139-18.013-31.2c-1.155-2 .289-4.5 2.598-4.5h-42.382c-2.309 0-3.753 2.5-2.598 4.5l18.013 31.2c.536.928 1.526 1.5 2.598 1.5h42.382c-1.072 0-2.062-.572-2.598-1.5z" fill="#bb5d4c"/></g><g><path d="m307.788 207.94 18.013 31.2c.536.928 1.526 1.5 2.598 1.5h123.423c1.072 0 2.062-.572 2.598-1.5l18.013-31.2c1.155-2-.289-4.5-2.598-4.5h-159.449c-2.309 0-3.752 2.5-2.598 4.5z" fill="#ca6e59"/></g><g><path d="m373.42 239.139-18.013-31.2c-1.155-2 .289-4.5 2.598-4.5h-47.618c-2.309 0-3.753 2.5-2.598 4.5l18.013 31.2c.536.928 1.526 1.5 2.598 1.5h47.618c-1.072 0-2.063-.572-2.598-1.5z" fill="#bb5d4c"/></g></g></g><path d="m276.033 291.484v-183.361c0-2.761-2.239-5-5-5h-30.067c-2.761 0-5 2.239-5 5v183.362h40.067z" fill="#bb5d4c"/><path d="m252.933 291.484v-183.361c0-2.761 2.239-5 5-5h-16.967c-2.761 0-5 2.239-5 5v183.362h16.967z" fill="#a44f3e"/><g><circle cx="256" cy="35.495" fill="#883f2e" r="27.995"/></g><g><path d="m253.01 35.495c0-10.967 6.309-20.454 15.493-25.047-3.764-1.883-8.008-2.948-12.503-2.948-15.461 0-27.995 12.534-27.995 27.995s12.534 27.995 27.995 27.995c4.495 0 8.739-1.065 12.502-2.948-9.183-4.593-15.492-14.08-15.492-25.047z" fill="#6d3326"/></g></g><g><path d="m302.745 334.457v-22.972c0-11.046-8.954-20-20-20h-53.489c-11.046 0-20 8.954-20 20v22.972z" fill="#883f2e"/><path d="m243 334.457v-22.972c0-11.046 8.954-20 20-20h-33.745c-11.046 0-20 8.954-20 20v22.972z" fill="#6d3326"/><path d="m340.828 380.006v-28.409c0-9.466-7.674-17.14-17.14-17.14h-135.376c-9.466 0-17.14 7.674-17.14 17.14v28.409z" fill="#bb5d4c"/><path d="m213.345 380.006v-28.409c0-9.466 7.674-17.14 17.14-17.14h-42.172c-9.466 0-17.14 7.674-17.14 17.14v28.409z" fill="#a44f3e"/><path d="m104.414 379.006c-14.752 0-26.711 11.959-26.711 26.711v50.751c0 14.752 11.959 26.711 26.711 26.711h10.826v-70.785h54.617v70.785h305.843v-104.173z" fill="#fff3de"/></g></g><g><g><g><path d="m104.414 483.179c-14.752 0-26.711-11.959-26.711-26.711v-50.751c0-14.752 11.959-26.711 26.711-26.711h-38.731c-28.767 0-52.087 23.32-52.087 52.087 0 28.767 23.32 52.087 52.087 52.087h38.731z" fill="#3675bb"/></g><g><path d="m38.897 431.093c0-28.767 23.32-52.087 52.087-52.087h-25.301c-28.767 0-52.087 23.32-52.087 52.087 0 28.767 23.32 52.087 52.087 52.087h25.301c-28.767-.001-52.087-23.321-52.087-52.087z" fill="#2b68b6"/></g><g fill="#ffe5c2"><path d="m115.24 453.909c-7.362-4.756-12.24-13.029-12.24-22.446v-50.751c0-.562.023-1.118.057-1.671-14.122.707-25.354 12.38-25.354 26.677v50.751c0 14.752 11.959 26.711 26.711 26.711h10.826z"/><path d="m169.857 458.174h305.843v25.006h-305.843z"/></g></g><g><g><path d="m169.857 501.495v-89.1h-54.617v89.1c0 2.42 2.717 3.844 4.707 2.467l22.601-15.641 22.601 15.641c1.99 1.377 4.708-.047 4.708-2.467z" fill="#fb2b3a"/></g><g><g><path d="m140.383 412.395h-25.143v89.1c0 2.42 2.717 3.844 4.707 2.467l20.436-14.143z" fill="#e41f2d"/></g></g></g></g><path d="m498.404 475.679h-15.205v-89.173h15.205c4.142 0 7.5-3.358 7.5-7.5s-3.358-7.5-7.5-7.5h-150.076v-19.909c0-13.586-11.053-24.64-24.64-24.64h-13.443v-15.472c0-14.899-11.912-27.06-26.711-27.48v-121.005c0-4.142-3.358-7.5-7.5-7.5s-7.5 3.358-7.5 7.5v120.984h-25.066v-173.361h25.066v17.377c0 4.142 3.358 7.5 7.5 7.5s7.5-3.358 7.5-7.5v-19.877c0-6.893-5.607-12.5-12.5-12.5h-7.534v-25.437c13.562-2.929 24.261-13.628 27.19-27.19h91.92v13.679l-73.334 139.339c-3.307.355-6.3 2.26-7.984 5.175-1.87 3.238-1.87 7.261 0 10.5l18.013 31.198c1.869 3.239 5.354 5.251 9.094 5.251h70.601c4.142 0 7.5-3.358 7.5-7.5s-3.358-7.5-7.5-7.5h-68.002l-12.817-22.2h143.861l-12.817 22.2h-15.225c-4.142 0-7.5 3.358-7.5 7.5s3.358 7.5 7.5 7.5h17.822c3.739 0 7.223-2.011 9.093-5.25l18.014-31.201c1.869-3.238 1.869-7.262-.001-10.5-1.683-2.915-4.677-4.821-7.984-5.175l-73.333-139.337v-13.68h28.074c4.142 0 7.5-3.358 7.5-7.5s-3.358-7.5-7.5-7.5h-134.994c-3.453-15.981-17.692-27.995-34.691-27.995s-31.238 12.014-34.69 27.995h-134.995c-4.142 0-7.5 3.358-7.5 7.5s3.358 7.5 7.5 7.5h28.074v13.679l-73.333 139.34c-3.307.355-6.3 2.26-7.984 5.175-1.87 3.238-1.87 7.261-.001 10.5v.001l18.014 31.201c1.87 3.238 5.354 5.249 9.093 5.249h123.423c3.739 0 7.223-2.011 9.093-5.25l18.013-31.2c1.87-3.238 1.87-7.262 0-10.5-1.682-2.915-4.676-4.821-7.984-5.176l-73.334-139.339v-13.68h91.92c2.93 13.562 13.628 24.261 27.19 27.19v25.437h-7.533c-6.893 0-12.5 5.607-12.5 12.5v175.882c-14.799.42-26.711 12.581-26.711 27.48v15.472h-13.443c-13.586 0-24.64 11.054-24.64 24.64v19.909h-97.989c-32.856 0-59.587 26.73-59.587 59.587 0 32.856 26.73 59.586 59.587 59.586h42.057v10.815c0 3.918 2.156 7.482 5.626 9.301 3.47 1.818 7.627 1.564 10.849-.667l18.334-12.688 18.333 12.688c1.794 1.241 3.878 1.871 5.972 1.871 1.667 0 3.339-.399 4.877-1.205 3.47-1.819 5.626-5.383 5.626-9.301v-10.815h321.047c4.142 0 7.5-3.358 7.5-7.5s-3.358-7.498-7.5-7.498zm-115.793-279.74h-56.344l56.344-107.058zm15-107.058 56.344 107.058h-56.344zm-283.222 0v107.058h-56.344zm66.613 144.258h-118.226l-12.817-22.2h143.861zm4.732-37.2h-56.344v-107.058zm49.771-160.444c0-11.301 9.194-20.495 20.495-20.495s20.495 9.194 20.495 20.495-9.194 20.495-20.495 20.495-20.495-9.194-20.495-20.495zm-18.75 275.989c0-6.893 5.607-12.5 12.5-12.5h53.489c6.893 0 12.5 5.607 12.5 12.5v15.472h-78.489zm-151.072 164.195c-24.585 0-44.587-20.001-44.587-44.587 0-24.585 20.001-44.586 44.587-44.586h10.44c-3.733 5.48-5.919 12.094-5.919 19.211v50.751c0 7.117 2.186 13.731 5.92 19.211zm96.673 17.229-15.54-10.754c-2.568-1.777-5.969-1.778-8.536 0l-15.541 10.754v-73.014h39.617zm305.843-88.013h-162.115c-4.142 0-7.5 3.358-7.5 7.5s3.358 7.5 7.5 7.5h162.116v22.396h-162.116c-4.142 0-7.5 3.358-7.5 7.5s3.358 7.5 7.5 7.5h162.116v18.389h-290.844v-55.785h63.285c4.142 0 7.5-3.358 7.5-7.5s-3.358-7.5-7.5-7.5h-136.227c-4.142 0-7.5 3.358-7.5 7.5s3.358 7.5 7.5 7.5h3.326v55.785h-3.326c-10.593 0-19.211-8.618-19.211-19.211v-50.751c0-10.593 8.618-19.211 19.211-19.211h120.586c4.142 0 7.5-3.358 7.5-7.5s-3.358-7.5-7.5-7.5h-46.328v-19.909c0-5.315 4.324-9.64 9.64-9.64h135.376c5.315 0 9.64 4.325 9.64 9.64v19.909h-73.328c-4.142 0-7.5 3.358-7.5 7.5s3.358 7.5 7.5 7.5h208.199z"/></g></svg>