<svg clip-rule="evenodd" fill-rule="evenodd" height="512" image-rendering="optimizeQuality" shape-rendering="geometricPrecision" text-rendering="geometricPrecision" viewBox="0 0 2666.66 2666.66" width="512" xmlns="http://www.w3.org/2000/svg" xmlns:xodm="http://www.corel.com/coreldraw/odm/2003"><g id="Layer_x0020_1"><circle cx="1333.33" cy="1333.33" fill="#076e6d" r="1333.33"/><g fill="#fff"><path d="m1407.53 776.47c-21.15 0-127-.01-148.37-.01-28.26 0-20-42.99-20-83.63 0-51.93 42.25-94.19 94.19-94.19s94.19 42.25 94.19 94.19c0 40.62 8.26 83.64-20.02 83.64z"/><path d="m1259.14 1867c-11.04 0-20-8.97-20-20v-920.97c0-21.29 26.14-25.36 36.15-12.23 42.14-13.14 152.23-9.07 152.23 12.22v920.97c0 20.62-108.44 26.04-152.22 11.79-3.64 4.98-9.52 8.23-16.16 8.23z"/><path d="m1333.33 973.91c-73.15 0-132.67-59.51-132.67-132.66s59.51-132.67 132.67-132.67c73.17 0 132.68 59.51 132.68 132.67 0 73.15-59.52 132.66-132.68 132.66z"/><path d="m780.31 1710.71c-165.58 0-300.3-134.72-300.3-300.3 0-12.27-2.83-36.5 20-36.5h560.59c22.83 0 20 24.24 20 36.5 0 165.58-134.7 300.3-300.29 300.3z"/><path d="m745.92 1066.47-198.87 341.22c-6.18 10.61-17.51 17.09-29.75 17.09-26.41 0-43.01-28.93-29.71-51.74l260.6-447.11c13.52-28.44 50.74-28.48 64.29.06l260.56 447.06c22.77 39.06-36.56 73.92-59.44 34.66l-198.87-341.22v323.89c0 45.32-68.81 45.3-68.81.02v-323.91z"/><path d="m780.31 933c-83.83 0-83.84-127.37 0-127.37 83.81 0 83.82 127.37 0 127.37z"/><path d="m1886.28 1710.71c-165.58 0-300.3-134.72-300.3-300.3 0-12.27-2.83-36.5 20-36.5h560.59c22.83 0 20 24.24 20 36.5 0 165.58-134.7 300.3-300.29 300.3z"/><path d="m1851.88 1066.47-198.87 341.22c-6.18 10.61-17.51 17.09-29.75 17.09-26.41 0-43.01-28.93-29.71-51.74l260.6-447.11c13.52-28.44 50.74-28.48 64.29.06l260.56 447.06c22.77 39.06-36.56 73.92-59.44 34.66l-198.87-341.22v323.89c0 45.32-68.81 45.3-68.81.02v-323.91z"/><path d="m1886.28 933c-83.83 0-83.84-127.37 0-127.37 83.81 0 83.82 127.37 0 127.37z"/><path d="m1547.79 1967.2c-11.04 0-20-8.97-20-20h-388.91c0 26.33-40 26.32-40 0v-100.2c0-11.04 8.96-20 20-20h428.92c11.04 0 20 8.97 20 20v100.21c0 11.02-8.97 19.99-20.02 19.99z"/><path d="m1591.9 2068.02h-517.13c-11.04 0-20-8.97-20-20v-100.51c0-11.04 8.96-20 20-20h517.13c11.04 0 20 8.97 20 20v100.51c.02 11.04-8.96 20-20 20z"/><path d="m1220.67 877.9h-440.35c-48.29 0-48.29-73.33 0-73.33h440.35c48.29 0 48.29 73.33 0 73.33zm665.69 0h-440.35c-48.29 0-48.28-73.33 0-73.33h440.35c48.29 0 48.29 73.33 0 73.33z"/></g></g></svg>