<svg id="Capa_1" enable-background="new 0 0 512.021 512.021" height="512" viewBox="0 0 512.021 512.021" width="512" xmlns="http://www.w3.org/2000/svg"><g><g><path d="m475.786 178.782c6.044-13.193-3.855-28.192-18.364-28.192-5.757 0-30.806 0-52.682 0-33.608 0-39.15 15-33.106 28.192 8.415 18.361 22.925 38.909 59.447 37.437 19.917-5.128 36.29-19.077 44.705-37.437z" fill="#f7e74b"/><path d="m386.377 178.782c-6.044-13.193 3.855-28.192 18.364-28.192-15.697 0-29.761 0-33.886 0-14.508 0-24.408 15-18.364 28.192 13.656 29.796 46.683 45.651 78.591 37.437-19.917-5.128-36.29-19.077-44.705-37.437z" fill="#ffc140"/><path d="m159.516 178.782c6.044-13.193-3.855-28.192-18.364-28.192-5.757 0-30.806 0-52.682 0-33.608 0-39.151 15-33.106 28.192 8.415 18.361 22.925 38.909 59.447 37.437 19.917-5.128 36.29-19.077 44.705-37.437z" fill="#f7e74b"/><path d="m70.107 178.782c-6.044-13.193 3.855-28.192 18.364-28.192-15.697 0-29.761 0-33.886 0-14.508 0-24.408 15-18.364 28.192 10.703 23.353 34.278 39.578 61.648 39.578 5.851 0 11.527-.747 16.943-2.142-19.917-5.127-36.29-19.076-44.705-37.436z" fill="#ffc140"/><path d="m466.85 60.228c0-8.494-6.546-15.562-15.02-16.215l-157.673-12.128-11.295 3.495v48.694l11.295 4.499c154-11.843 157.611-12.125 157.673-12.13 8.492-.664 15.02-7.747 15.02-16.215z" fill="#df6d2b"/><path d="m271.064 30.108h-15.061v60.649l15.061-.408c8.053-.619 15.741-1.21 23.093-1.776v-56.688z" fill="#c75418"/><path d="m60.177 44.014c-8.474.653-15.02 7.721-15.02 16.215 0 8.483 6.543 15.552 15.02 16.215.609.047 26.715 2.058 157.673 12.13l13.052-4.75v-48.696l-13.052-3.244z" fill="#df6d2b"/><path d="m256.003 90.757v-60.649h-15.06l-23.093 1.776v56.688c7.368.567 15.047 1.157 23.093 1.776z" fill="#c75418"/><path d="m271.064 198.531c0-9.027 0-23.066 0-39.406 0-12.886-30.121-12.887-30.121-.001v39.406c9.77-2.92 20.359-2.918 30.121.001z" fill="#df6d2b"/><path d="m271.064 159.125c0-56.021 0-69.541 0-136.547 0-8.313-6.761-15.06-15.061-15.06-8.313 0-15.06 6.747-15.06 15.06v136.546c9.976-2.009 20.144-2.009 30.121.001z" fill="#f68953"/><path d="m308.675 231.482c-.37.27-18.401 22.949-50.921 22.86l-3.808-.01c-32.147-.088-49.756-22.242-50.614-22.85 1.016-28.4 24.405-50.773 52.671-50.773 28.218.001 51.655 22.327 52.672 50.773z" fill="#6e788a"/><path d="m502.694 504.503c2.291-18.925 2.407-38.305.331-57.369l-207.814-218.162c-6.429-1.021-12.939-1.794-19.522-2.311-108.423 12.32-174.78 75.022-153.942 179.639l71.012 98.202h309.935z" fill="#00d9a5"/><path d="m161.326 321.518c29.174-43.223 68.754-76.522 114.363-94.856-84.214-6.615-164.345 29.404-215.422 94.62l61.48 85.02c9.072-30.962 22.543-59.565 39.569-84.783h.01z" fill="#00c284"/><path d="m503.025 447.134c-57.609 4.749-54.335 4.659-57.792 4.659-21.777 0-40.844-15.371-45.181-37.068-3.765-18.795-18.745-33.293-37.641-36.446l-19.328-3.223c-20.693-3.444-36.446-20.421-38.344-41.315l-9.528-104.768c109.309 17.207 195.616 106.341 207.814 218.161z" fill="#6292e1"/><path d="m201.113 484.232c16.817-20.17 7.55-50.974-17.611-58.514l-39.529-11.857c-8.585-2.577-15.492-8.185-19.847-15.342-46.004 14.373-54.371 84.063-15.516 105.984h84.149c.613-7.179 3.354-14.267 8.354-20.271z" fill="#6292e1"/><path d="m124.126 398.518c-4.586-7.538-6.156-16.451-4.431-25.079 3.464-17.329-6.516-34.518-23.273-40.1l-36.155-12.058h-.01c-42.138 53.785-58.604 119.954-50.944 183.222h99.298c-.587-37.567 5.015-73.276 15.515-105.985z" fill="#1478d7"/><path d="m315.681 225.388c-2.883-21.944-17.389-39.946-37.117-47.849v-80.245l105.23-8.095-9.801 53.89h-3.138c-20.022 0-33.479 20.706-25.183 38.817 12.237 26.7 39.111 43.953 68.466 43.953s56.229-17.253 68.466-43.954c8.306-18.129-5.181-38.816-25.182-38.816h-3.138l-10.637-58.495c8.61-.665 8.41-.64 8.766-.684l.001.01c12.3-.962 21.936-11.369 21.936-23.692 0-12.337-9.639-22.744-21.945-23.692l-78.153-6.014c-4.125-.33-7.735 2.771-8.053 6.902-.318 4.13 2.772 7.735 6.902 8.053l78.152 6.014c4.54.351 8.097 4.188 8.097 8.737 0 4.655-3.743 8.482-8.154 8.741-3.816.299-172.26 13.253-172.632 13.281v-44.042l59.496 4.579c4.103.327 7.734-2.773 8.053-6.902.318-4.13-2.772-7.735-6.902-8.053l-60.646-4.668v-.586c0-12.439-10.121-22.56-22.561-22.56-12.439 0-22.56 10.12-22.56 22.56v.585l-173.843 13.373c-12.306.948-21.944 11.355-21.944 23.692 0 12.323 9.636 22.73 21.945 23.692 3.079.237 5.988.46 8.757.673l-10.637 58.496h-3.138c-20.018 0-33.48 20.704-25.182 38.817 12.236 26.7 39.11 43.953 68.466 43.953 29.354 0 56.229-17.253 68.466-43.954 8.306-18.13-5.181-38.816-25.183-38.816h-3.138l-9.802-53.895 105.231 8.099v80.245c-19.735 7.906-34.243 25.918-37.12 47.872-91.96 21.994-161.481 92.066-186.242 177.63-1.151 3.978 1.141 8.138 5.119 9.289 3.971 1.153 8.137-1.137 9.289-5.119 8.076-27.908 21.014-53.827 38.476-77.124l31.087 10.368c13.143 4.378 21.005 17.926 18.289 31.514-4.327 21.635 8.345 42.732 29.477 49.076l39.531 11.858c19.921 5.97 27.473 30.37 14 46.529-4.31 5.175-7.333 11.157-8.924 17.57h-170.373c-1.752-18.77-1.314-37.744 1.311-56.499.574-4.103-2.286-7.894-6.388-8.468-4.111-.569-7.895 2.285-8.468 6.388-3.113 22.243-3.328 44.778-.64 66.98.456 3.767 3.652 6.599 7.445 6.599h493.381c3.794 0 6.989-2.833 7.445-6.599 15.707-129.711-68.466-249.936-194.456-280.014zm153.286-49.731c-9.8 21.385-31.321 35.203-54.829 35.203-23.507 0-45.028-13.818-54.829-35.202-3.821-8.342 2.618-17.568 11.546-17.568 2.873 0 87.406.001 86.567 0 8.953-.001 15.356 9.253 11.545 17.567zm-29.929-32.568h-49.799l10.017-55.08 29.356-2.258zm55.69 297.211-46.267 3.859c-19.527 1.665-37.199-11.618-41.056-30.908-4.348-21.701-21.934-38.728-43.762-42.369l-19.329-3.224c-17.315-2.882-30.518-17.108-32.107-34.597l-8.637-94.971c101.909 20.322 177.218 102.118 191.158 202.21zm-442.071-380.072c0-4.549 3.557-8.387 8.096-8.737l172.691-13.284v44.043c-13.621-1.048-172.355-13.26-172.682-13.285-4.545-.355-8.105-4.193-8.105-8.737zm100.041 115.429c-9.801 21.385-31.322 35.203-54.829 35.203-23.508 0-45.029-13.818-54.829-35.202-3.818-8.331 2.608-17.568 11.545-17.568h86.567c8.947-.001 15.358 9.246 11.546 17.567zm-79.73-32.568 10.427-57.34c15.698 1.206 24.495 1.883 29.354 2.256l10.018 55.084zm175.475-120.511c0-4.168 3.392-7.56 7.56-7.56 4.169 0 7.561 3.392 7.561 7.56v151.114c-2.478-.307-4.997-.482-7.561-.482-2.563 0-5.083.175-7.56.482 0-41.436 0-82.645 0-151.114zm-5.824 167.625c.266-.061.526-.137.781-.225 4-1.146 8.226-1.769 12.604-1.769s8.604.622 12.603 1.768c.256.089.516.165.783.226 14.939 4.574 26.533 16.629 30.411 31.936-29.111-5.005-58.678-5.009-87.593-.007 3.881-15.303 15.474-27.356 30.411-31.929zm253.339 306.799h-293.806c1.129-2.861 2.707-5.549 4.721-7.968 20.227-24.26 9.124-61.408-21.216-70.5l-39.528-11.857c-13.678-4.105-21.88-17.763-19.079-31.769 4.196-20.991-7.952-41.921-28.255-48.684l-25.824-8.613c53.586-62.643 133.893-93.093 215.305-82.077l8.993 98.884c2.206 24.28 20.539 44.033 44.58 48.034l19.326 3.223c15.723 2.623 28.39 14.889 31.521 30.518 5.369 26.856 29.963 45.229 57.025 42.911l46.605-3.887c1.049 13.699.963 27.662-.368 41.785z"/></g></g></svg>