<svg id="Filled_Expand" viewBox="0 0 64 64" xmlns="http://www.w3.org/2000/svg" data-name="Filled Expand"><g fill="#ffdc78"><path d="m27 39.946h10a4 4 0 0 1 4 4v8a0 0 0 0 1 0 0h-18a0 0 0 0 1 0 0v-8a4 4 0 0 1 4-4z"/><circle cx="32" cy="8.5" r="3.5"/><path d="m15 25.5a7 7 0 0 1 7 7 0 0 0 0 1 0 0h-14a0 0 0 0 1 0 0 7 7 0 0 1 7-7z" transform="matrix(-1 0 0 -1 30 58)"/><path d="m42 25.5h14a0 0 0 0 1 0 0 7 7 0 0 1 -7 7 7 7 0 0 1 -7-7 0 0 0 0 1 0 0z"/></g><path d="m32 56.054h-28v-6l18.324-3.927a8 8 0 0 1 9.676 7.822z" fill="#e2f1fb"/><path d="m32 56.054h28v-6l-18.324-3.927a8 8 0 0 0 -9.676 7.822z" fill="#e2f1fb"/><path d="m2 56.054h60v6h-60z" fill="#96aafa"/><path d="m62 54.5h-.5v-4.5a1.5 1.5 0 0 0 -1.186-1.467l-17.814-3.817v-.716a5.506 5.506 0 0 0 -5.5-5.5h-3.5v-25.23a5.02 5.02 0 0 0 3.27-3.27h9.99l-6.147 14.929a1.491 1.491 0 0 0 -.113.571 8.5 8.5 0 0 0 17 0 1.491 1.491 0 0 0 -.113-.571l-6.147-14.929h1.76a1.5 1.5 0 0 0 0-3h-16.23a5.02 5.02 0 0 0 -3.27-3.27v-1.73a1.5 1.5 0 0 0 -3 0v1.73a5.02 5.02 0 0 0 -3.27 3.27h-16.23a1.5 1.5 0 0 0 0 3h1.76l-6.147 14.929a1.491 1.491 0 0 0 -.113.571 8.5 8.5 0 0 0 17 0 1.491 1.491 0 0 0 -.113-.571l-6.147-14.929h9.99a5.02 5.02 0 0 0 3.27 3.27v25.23h-3.5a5.506 5.506 0 0 0 -5.5 5.5v.716l-17.814 3.817a1.5 1.5 0 0 0 -1.186 1.467v4.5h-.5a1.5 1.5 0 0 0 -1.5 1.5v6a1.5 1.5 0 0 0 1.5 1.5h60a1.5 1.5 0 0 0 1.5-1.5v-6a1.5 1.5 0 0 0 -1.5-1.5zm-13-23.5a5.511 5.511 0 0 1 -5.292-4h10.584a5.511 5.511 0 0 1 -5.292 4zm4.76-7h-9.52l4.76-11.561zm-38.76 7a5.511 5.511 0 0 1 -5.292-4h10.584a5.511 5.511 0 0 1 -5.292 4zm4.76-7h-9.52l4.76-11.561zm21.6 23.54 17.14 3.673v3.287h-25v-.6a6.5 6.5 0 0 1 7.861-6.356zm-11.36-39.04a2 2 0 1 1 2 2 2 2 0 0 1 -2-2zm-5.5 35.5a2.5 2.5 0 0 1 2.5-2.5h10a2.5 2.5 0 0 1 2.5 2.5v.407a9.528 9.528 0 0 0 -7.5 4.36 9.528 9.528 0 0 0 -7.5-4.36zm-19 7.213 17.139-3.673a6.5 6.5 0 0 1 7.861 6.36v.6h-25zm55 9.287h-57v-3h57z"/></svg>