<svg enable-background="new 0 0 64 64" height="64" viewBox="0 0 64 64" width="64" xmlns="http://www.w3.org/2000/svg"><g id="Layer_1"/><g id="Layer_2"/><g id="Layer_3"/><g id="Layer_4"/><g id="Layer_5"/><g id="Layer_6"/><g id="Layer_7"/><g id="Layer_8"/><g id="Layer_9"/><g id="Layer_10"/><g id="Layer_11"/><g id="Layer_12_1_"/><g id="Layer_13"/><g id="Layer_14"/><g id="Layer_15_3_"/><g id="Layer_16"/><g id="Layer_17"/><g id="Layer_18"/><g id="Layer_19"><path d="m56.77 52 1.801-3.82c.149-.31.12-.68-.061-.97-.18-.29-.5-.46-.84-.46h-8v-39.6c0-2.011-1.64-3.65-3.65-3.65h-35.71c-2.01 0-3.64 1.64-3.64 3.65v2.39c-.16-.06-.34-.07-.52-.04-.54.1-.9.63-.8 1.17.02.13.25 1.22 1.32 1.67v3.2c-.16-.06-.34-.07-.52-.04-.54.1-.9.63-.8 1.17.02.13.25 1.22 1.32 1.67v3.2c-.16-.06-.34-.07-.52-.04-.54.1-.9.63-.8 1.17.02.13.25 1.22 1.32 1.67v3.2c-.16-.06-.34-.07-.52-.04-.54.1-.9.63-.8 1.17.02.13.25 1.22 1.32 1.67v3.2c-.16-.06-.34-.07-.52-.04-.54.1-.9.63-.8 1.17.02.13.25 1.22 1.32 1.67v3.2c-.16-.06-.34-.07-.52-.04-.54.1-.9.63-.8 1.17.02.13.25 1.22 1.32 1.67v3.2c-.16-.06-.34-.07-.52-.04-.54.1-.9.63-.8 1.17.02.13.25 1.22 1.32 1.67v3.2c-.16-.06-.34-.07-.52-.04-.54.1-.9.63-.8 1.17.02.13.25 1.22 1.32 1.67v2.51c0 2.011 1.63 3.65 3.64 3.65h35.71c1.87 0 3.431-1.43 3.631-3.25h8.02c.34 0 .66-.17.84-.46.181-.29.21-.66.061-.97zm-48.1-39.71c.49-.19 1.02-.49 1.59-.92.14-.11.25-.24.32-.39v5.18c-.03-.07-.07-.13-.11-.19-.33-.439-.96-.529-1.4-.2-.14.11-.28.2-.4.271zm0 6c.49-.19 1.02-.49 1.59-.92.14-.11.25-.24.32-.39v5.18c-.03-.07-.07-.13-.11-.19-.33-.439-.96-.529-1.4-.2-.14.11-.28.2-.4.271zm0 6c.49-.19 1.02-.49 1.59-.92.14-.11.25-.24.32-.39v5.18c-.03-.07-.07-.13-.11-.19-.33-.439-.96-.529-1.4-.2-.14.11-.28.2-.4.271zm0 6c.49-.19 1.02-.49 1.59-.92.14-.11.25-.24.32-.39v5.18c-.03-.07-.07-.13-.11-.19-.33-.439-.96-.529-1.4-.2-.14.11-.28.2-.4.271zm0 6c.49-.19 1.02-.49 1.59-.92.14-.11.25-.24.32-.39v5.18c-.03-.07-.07-.13-.11-.19-.33-.439-.96-.529-1.4-.2-.14.11-.28.2-.4.271zm0 6c.49-.19 1.02-.49 1.59-.92.14-.11.25-.24.32-.39v5.18c-.03-.07-.07-.13-.11-.19-.33-.439-.96-.529-1.4-.2-.14.11-.28.2-.4.271zm0 6c.49-.19 1.02-.49 1.59-.92.14-.11.25-.24.32-.39v5.18c-.03-.07-.07-.13-.11-.19-.33-.439-.96-.529-1.4-.2-.14.11-.28.2-.4.271zm1.64 10.21c-.9 0-1.64-.74-1.64-1.65v-2.56c.49-.19 1.02-.49 1.59-.92.14-.11.25-.24.32-.39v5.35c0 .06.01.12.02.17zm.27-52.83v4.49c-.03-.07-.07-.13-.11-.19-.33-.439-.96-.529-1.4-.2-.14.11-.28.2-.4.271v-2.891c0-.91.74-1.65 1.64-1.65h.29c-.01.05-.02.11-.02.17zm37.09 51.18c0 .91-.74 1.65-1.65 1.65h-33.46c.02-.05.02-.11.02-.17v-52.66c0-.06 0-.12-.02-.17h33.46c.91 0 1.65.74 1.65 1.65zm7.09-4.42 1.33 2.82h-6.42v-6.5h6.42l-1.33 2.82c-.13.27-.13.59 0 .86z" fill="#010101"/><path d="m47.67 7.15v49.7c0 .91-.74 1.65-1.65 1.65h-33.46c.02-.05.02-.11.02-.17v-52.66c0-.06 0-.12-.02-.17h33.46c.91 0 1.65.74 1.65 1.65z" fill="#a2ddf4"/><g fill="#00a651"><path d="m10.58 16.98v5.18c-.03-.07-.07-.13-.11-.19-.33-.439-.96-.529-1.4-.2-.14.11-.28.2-.4.271v-3.75c.49-.19 1.02-.49 1.59-.92.14-.111.25-.241.32-.391z"/><path d="m10.58 10.98v5.18c-.03-.07-.07-.13-.11-.19-.33-.439-.96-.529-1.4-.2-.14.11-.28.2-.4.271v-3.75c.49-.19 1.02-.49 1.59-.92.14-.111.25-.241.32-.391z"/><path d="m10.6 5.5c-.01.05-.02.11-.02.17v4.49c-.03-.07-.07-.13-.11-.19-.33-.439-.96-.529-1.4-.2-.14.11-.28.2-.4.271v-2.891c0-.91.74-1.65 1.64-1.65z"/><path d="m10.58 28.98v5.18c-.03-.07-.07-.13-.11-.19-.33-.439-.96-.529-1.4-.2-.14.11-.28.2-.4.271v-3.75c.49-.19 1.02-.49 1.59-.92.14-.111.25-.241.32-.391z"/><path d="m10.58 22.98v5.18c-.03-.07-.07-.13-.11-.19-.33-.439-.96-.529-1.4-.2-.14.11-.28.2-.4.271v-3.75c.49-.19 1.02-.49 1.59-.92.14-.111.25-.241.32-.391z"/><path d="m10.58 34.98v5.18c-.03-.07-.07-.13-.11-.19-.33-.439-.96-.529-1.4-.2-.14.11-.28.2-.4.271v-3.75c.49-.19 1.02-.49 1.59-.92.14-.111.25-.241.32-.391z"/><path d="m10.6 58.5h-.29c-.9 0-1.64-.74-1.64-1.65v-2.56c.49-.19 1.02-.49 1.59-.92.14-.11.25-.24.32-.39v5.35c0 .06.01.12.02.17z"/><path d="m10.58 46.98v5.18c-.03-.07-.07-.13-.11-.19-.33-.439-.96-.529-1.4-.2-.14.11-.28.2-.4.271v-3.75c.49-.19 1.02-.49 1.59-.92.14-.111.25-.241.32-.391z"/><path d="m10.58 40.98v5.18c-.03-.07-.07-.13-.11-.19-.33-.439-.96-.529-1.4-.2-.14.11-.28.2-.4.271v-3.75c.49-.19 1.02-.49 1.59-.92.14-.111.25-.241.32-.391z"/><path d="m54.76 52.43 1.33 2.82h-6.42v-6.5h6.42l-1.33 2.82c-.13.27-.13.59 0 .86z"/></g><path d="m43.58 51.11h-8.67c-.561 0-1 .439-1 1v1.64h-9c-.56 0-1 .45-1 1s.44 1 1 1h18.67c.56 0 1-.45 1-1v-2.64c0-.56-.44-1-1-1zm-1 2.64h-6.67v-.64h6.67z"/><path d="m35.91 53.11h6.67v.64h-6.67z" fill="#00a651"/><path d="m45.53 44.38-1.12-1.93c-.19-.33-.54-.51-.9-.5l-3.34-5.79c.061-.08.09-.17.12-.26.07-.261.04-.53-.1-.761l-1.11-1.939c-.28-.48-.89-.641-1.37-.36l-6.94 4c-.23.13-.39.351-.46.61-.07.25-.03.53.1.76l1.11 1.93c.19.32.53.5.87.5h.03l.39.67-7.14 4.12c-.13-.149-.3-.25-.49-.3-.26-.07-.53-.04-.76.101l-10.25 5.909c-.48.28-.64.891-.37 1.37l2.38 4.11c.13.229.35.399.6.46.09.03.18.04.26.04.18 0 .35-.05.5-.13l10.25-5.92c.42-.25.6-.75.44-1.19l7.15-4.12.39.67c-.199.301-.21.7-.02 1.021l1.11 1.939c.14.23.35.4.609.471.09.02.17.029.261.029.17 0 .35-.05.5-.13l6.93-4.01c.48-.28.65-.89.37-1.37zm-12.77-6.11-.12-.199 5.2-3 .12.199zm-15.35 16.48-1.38-2.38 8.52-4.91 1.37 2.38zm9.84-6.61-.56-.979 7.12-4.12.57.99zm10.19-2.82-3.221-5.58 4.271-2.471 3.229 5.58zm.66 2.2-.12-.2 5.199-3 .12.199z" fill="#010101"/><path d="m37.96 35.27-5.2 3-.12-.2 5.2-3z" fill="#c49a6c"/><path d="m43.3 44.52-5.2 3-.12-.2 5.2-3z" fill="#c49a6c"/><path d="m41.72 42.85-4.28 2.47-3.22-5.58 4.27-2.47z" fill="#c49a6c"/><path d="m34.38 44.03-7.13 4.11-.56-.98 7.12-4.12z" fill="#c49a6c"/><path d="m25.92 49.84-8.51 4.91-1.38-2.38 8.52-4.91z" fill="#c49a6c"/><path d="m41.64 14.62c.551 0 1-.44 1-1v-3.04c0-.47-.319-.87-.77-.98l-12.98-2.97c-.15-.04-.3-.04-.45 0l-12.97 2.97c-.46.11-.78.511-.78.98v3.04c0 .56.45 1 1 1h1.8v7.98h-.11c-.55 0-1 .45-1 1v2.851h-.68c-.55 0-1 .45-1 1v3.22c0 .55.45 1 1 1h25.93c.55 0 1-.45 1-1v-3.22c0-.55-.45-1-1-1h-.68v-2.851c0-.55-.45-1-1-1h-.11v-7.98zm-1.01 13.83v1.22h-23.93v-1.22zm-18.63-3.85v1.851h-3.62v-1.851zm-2.51-2v-7.98h1.33v7.98zm3.51 0h-.18v-7.98h3.15v7.98h-.11c-.55 0-1 .45-1 1v2.851h-.86v-2.851c0-.55-.45-1-1-1zm7.48 2v1.851h-3.62v-1.851zm-2.51-2v-7.98h1.33v7.98zm3.51 0h-.18v-7.98h3.21v7.98h-.18c-.55 0-1 .45-1 1v2.851h-.85v-2.851c0-.55-.45-1-1-1zm7.47 2v1.851h-3.62v-1.851zm-2.44-2v-7.98h1.33v7.98zm-19.82-9.98v-1.24l11.98-2.75 11.97 2.75v1.24z" fill="#010101"/><path d="m35.33 24.6h3.62v1.851h-3.62z" fill="#bcbec0"/><path d="m36.51 14.62h1.33v7.979h-1.33z" fill="#bcbec0"/><path d="m27.97 14.62h1.33v7.979h-1.33z" fill="#bcbec0"/><path d="m26.86 24.6h3.62v1.851h-3.62z" fill="#bcbec0"/><path d="m16.7 28.45h23.93v1.22h-23.93z" fill="#bcbec0"/><path d="m18.38 24.6h3.62v1.851h-3.62z" fill="#bcbec0"/><path d="m19.49 14.62h1.33v7.979h-1.33z" fill="#bcbec0"/><path d="m40.64 11.38v1.24h-23.95v-1.24l11.98-2.75z" fill="#bcbec0"/></g><g id="Layer_20"/><g id="Layer_21"/><g id="Layer_22"/><g id="Layer_23"/><g id="Layer_24"/><g id="Layer_25"/><g id="Layer_26"/><g id="Layer_27"/><g id="Layer_28"/><g id="Layer_29"/></svg>