<svg id="Capa_1" enable-background="new 0 0 512 512" height="512" viewBox="0 0 512 512" width="512" xmlns="http://www.w3.org/2000/svg"><g><g><g><g><g><g><g><g><g><g><path d="m326.705 195.611h-141.407l8.775-45.802c2.297-11.987 10.948-21.768 22.566-25.51l39.363-12.68 39.363 12.68c11.617 3.742 20.269 13.523 22.566 25.51z" fill="#5b5555"/><path d="m326.704 195.616h-23.19l-8.77-51.63c-1.76-10.33-7.23-19.2-14.9-24.69l15.52 5c11.62 3.75 20.27 13.53 22.57 25.51z" fill="#444"/><path d="m292.032 123.233-36.03 91.985-36.031-91.985 36.031-11.62z" fill="#efe2dd"/><path d="m269.243 90.954v29.09c0 7.313-5.928 13.241-13.241 13.241-7.313 0-13.241-5.928-13.241-13.241v-29.09z" fill="#ba5d4f"/></g></g><path d="m256.001 18.618c-19.393 0-35.115 15.721-35.115 35.115v15.256c0 17.967 15.721 34.664 35.115 34.664s35.115-16.696 35.115-34.664v-15.257c0-19.393-15.721-35.114-35.115-35.114z" fill="#c86f5c"/><path d="m291.117 53.737v15.252c0 17.97-15.725 34.66-35.113 34.66-3.82 0-7.493-.65-10.939-1.831 14.041-4.795 24.173-18.393 24.173-32.828v-15.253c0-15.577-10.132-28.791-24.173-33.39 3.446-1.122 7.119-1.733 10.939-1.733 19.388 0 35.113 15.725 35.113 35.123z" fill="#ba5d4f"/></g></g></g></g></g></g><g><path d="m187.6 220.691h136.803v164.855h-136.803z" fill="#a34f41"/><path d="m324.402 220.694v164.851h-25.35v-118.227c0-8.7-7.053-15.754-15.754-15.754h-95.697v-30.87z" fill="#873f30"/><path d="m341.628 227.45h-171.253c-5.542 0-10.035-4.493-10.035-10.035v-16.137c0-5.542 4.493-10.035 10.035-10.035h171.254c5.542 0 10.035 4.493 10.035 10.035v16.137c0 5.542-4.493 10.035-10.036 10.035z" fill="#ba5d4f"/><path d="m351.662 201.274v16.14c0 5.54-4.49 10.04-10.03 10.04h-24.96c5.54 0 10.03-4.5 10.03-10.04v-16.14c0-5.54-4.49-10.03-10.03-10.03h24.96c5.54 0 10.03 4.49 10.03 10.03z" fill="#a34f41"/></g><g><g><g><g><g><g><g><g><g><path d="m318.124 484.594h-124.249l9.023-107.375c1.187-14.13 10.749-26.163 24.246-30.51l28.856-9.296 28.856 9.296c13.497 4.348 23.059 16.38 24.246 30.51z" fill="#bcea73"/><path d="m318.122 484.598h-25.772l-9.024-113.382c-.975-12.249-2.592-23.003-12.389-28.987l13.918 4.481c13.496 4.349 23.056 16.378 24.242 30.507z" fill="#a3e440"/></g></g><path d="m256 273.271c-17.04 0-30.854 13.814-30.854 30.854v13.405c0 15.787 13.814 30.458 30.854 30.458s30.854-14.67 30.854-30.458v-13.405c-.001-17.04-13.814-30.854-30.854-30.854z" fill="#d5887a"/><path d="m286.854 304.129v13.401c0 15.789-13.817 30.454-30.852 30.454-3.357 0-6.584-.571-9.612-1.609 12.337-4.213 21.24-16.161 21.24-28.845v-13.401c0-13.687-8.903-25.298-21.24-29.338 3.028-.986 6.255-1.523 9.612-1.523 17.035 0 30.852 13.817 30.852 30.861z" fill="#c86f5c"/></g></g></g></g></g></g><g><g><g><g><g><g><g><g><path d="m442.376 484.594h-124.248l9.023-107.375c1.187-14.13 10.749-26.163 24.246-30.51l28.856-9.296 28.856 9.296c13.497 4.348 23.059 16.38 24.246 30.51z" fill="#fcb44d"/><path d="m442.374 484.598h-25.772l-9.024-113.382c-.975-12.249-2.592-23.003-12.389-28.987l13.918 4.481c13.496 4.349 23.056 16.378 24.242 30.507z" fill="#fb9927"/></g></g><path d="m380.252 273.271c-17.04 0-30.854 13.814-30.854 30.854v13.405c0 15.787 13.814 30.458 30.854 30.458s30.854-14.67 30.854-30.458v-13.405c0-17.04-13.814-30.854-30.854-30.854z" fill="#a34f41"/><path d="m411.107 304.129v13.401c0 15.789-13.817 30.454-30.852 30.454-3.357 0-6.584-.571-9.612-1.609 12.337-4.213 21.24-16.161 21.24-28.845v-13.401c0-13.687-8.903-25.298-21.24-29.338 3.028-.986 6.255-1.523 9.612-1.523 17.035 0 30.852 13.817 30.852 30.861z" fill="#873f30"/></g></g></g></g></g></g><g><g><g><g><g><g><g><g><path d="m193.875 484.594h-124.248l9.023-107.375c1.187-14.13 10.749-26.163 24.246-30.51l28.856-9.296 28.856 9.296c13.497 4.348 23.059 16.38 24.246 30.51z" fill="#27d1b3"/><path d="m193.88 484.598h-25.78l-9.024-113.382c-.975-12.249-2.583-22.995-12.371-28.987l13.9 4.481c13.496 4.349 23.065 16.378 24.251 30.507z" fill="#20b69f"/></g></g><path d="m131.751 273.271c-17.04 0-30.854 13.814-30.854 30.854v13.405c0 15.787 13.814 30.458 30.854 30.458s30.854-14.67 30.854-30.458v-13.405c0-17.04-13.814-30.854-30.854-30.854z" fill="#ffcec0"/><path d="m162.606 304.129v13.401c0 15.789-13.817 30.454-30.852 30.454-3.357 0-6.584-.571-9.612-1.609 12.337-4.213 21.24-16.161 21.24-28.845v-13.401c0-13.687-8.903-25.298-21.24-29.338 3.028-.986 6.255-1.523 9.612-1.523 17.035 0 30.852 13.817 30.852 30.861z" fill="#fdb0a0"/></g></g></g></g></g></g></g><g><g><g><g><g><g><g><g><g><g><path d="m131.75 493.381h-124.248l7.71-40.244c2.018-10.533 9.62-19.127 19.828-22.415l34.586-11.142 34.586 11.142c10.208 3.288 17.81 11.882 19.828 22.415z" fill="#fb3a82"/><path d="m131.749 493.385h-25.376l-7.706-45.365c-1.546-9.077-1.353-16.87-8.092-21.694l13.637 4.393c10.21 3.295 17.81 11.888 19.831 22.415z" fill="#fb1466"/></g></g><path d="m69.626 355.437c-17.04 0-30.854 13.814-30.854 30.854v13.405c0 15.787 13.814 30.458 30.854 30.458s30.854-14.67 30.854-30.458v-13.405c0-17.04-13.814-30.854-30.854-30.854z" fill="#a34f41"/><path d="m100.481 386.295v13.401c0 15.789-13.817 30.454-30.852 30.454-3.357 0-6.584-.571-9.612-1.609 12.337-4.213 21.24-16.161 21.24-28.845v-13.401c0-13.687-8.903-25.298-21.24-29.338 3.028-.986 6.255-1.523 9.612-1.523 17.035 0 30.852 13.817 30.852 30.861z" fill="#873f30"/></g></g></g></g></g></g><g><g><g><g><g><g><g><g><path d="m255.999 493.381h-124.249l7.71-40.244c2.018-10.533 9.62-19.127 19.828-22.415l34.586-11.142 34.586 11.142c10.208 3.288 17.81 11.882 19.828 22.415z" fill="#21c1f8"/><path d="m256 493.385h-25.376l-7.706-45.365c-1.546-9.077-1.353-16.87-8.092-21.694l13.637 4.393c10.21 3.295 17.81 11.888 19.823 22.415z" fill="#1faaee"/></g></g><path d="m193.875 355.437c-17.04 0-30.854 13.814-30.854 30.854v13.405c0 15.787 13.814 30.458 30.854 30.458s30.854-14.67 30.854-30.458v-13.405c-.001-17.04-13.814-30.854-30.854-30.854z" fill="#ffcec0"/><path d="m224.729 386.295v13.401c0 15.789-13.817 30.454-30.852 30.454-3.357 0-6.584-.571-9.612-1.609 12.337-4.213 21.24-16.161 21.24-28.845v-13.401c0-13.687-8.903-25.298-21.24-29.338 3.028-.986 6.255-1.523 9.612-1.523 17.035 0 30.852 13.817 30.852 30.861z" fill="#fdb0a0"/></g></g></g></g></g></g></g><g><g><g><g><g><g><g><g><g><path d="m380.248 493.381h-124.249l7.71-40.244c2.018-10.533 9.62-19.127 19.828-22.415l34.586-11.142 34.586 11.142c10.208 3.288 17.81 11.882 19.828 22.415z" fill="#fc95bb"/><path d="m380.251 493.385h-25.376l-7.715-45.365c-1.538-9.077-1.344-16.87-8.083-21.694l13.637 4.393c10.201 3.295 17.802 11.888 19.823 22.415z" fill="#fc78a8"/></g></g><path d="m318.124 355.437c-17.04 0-30.854 13.814-30.854 30.854v13.405c0 15.787 13.814 30.458 30.854 30.458s30.854-14.67 30.854-30.458v-13.405c-.001-17.04-13.814-30.854-30.854-30.854z" fill="#fdb0a0"/><path d="m348.978 386.295v13.401c0 15.789-13.817 30.454-30.852 30.454-3.357 0-6.584-.571-9.612-1.609 12.337-4.213 21.24-16.161 21.24-28.845v-13.401c0-13.687-8.903-25.298-21.24-29.338 3.028-.986 6.255-1.523 9.612-1.523 17.035 0 30.852 13.817 30.852 30.861z" fill="#f69583"/></g></g></g></g></g></g></g><g><g><g><g><g><g><g><g><g><path d="m504.498 493.381h-124.249l7.71-40.244c2.018-10.533 9.62-19.127 19.828-22.415l34.586-11.142 34.586 11.142c10.208 3.288 17.81 11.882 19.828 22.415z" fill="#f3eae6"/><path d="m504.502 493.385h-25.376l-7.715-45.365c-1.538-9.077-1.344-16.87-8.083-21.694l13.637 4.393c10.201 3.295 17.802 11.888 19.823 22.415z" fill="#e0d3ce"/></g></g><path d="m442.374 355.437c-17.04 0-30.854 13.814-30.854 30.854v13.405c0 15.787 13.814 30.458 30.854 30.458s30.854-14.67 30.854-30.458v-13.405c-.001-17.04-13.814-30.854-30.854-30.854z" fill="#fdb0a0"/><path d="m473.228 386.295v13.401c0 15.789-13.817 30.454-30.852 30.454-3.357 0-6.584-.571-9.612-1.609 12.337-4.213 21.24-16.161 21.24-28.845v-13.401c0-13.687-8.903-25.298-21.24-29.338 3.028-.986 6.255-1.523 9.612-1.523 17.035 0 30.852 13.817 30.852 30.861z" fill="#f69583"/></g></g></g></g></g></g></g></g><g><path d="m383.15 84.631c-12.276-.487-23.847 2.334-33.924 7.617h-23.433c-2.761 0-5 2.239-5 5v23.433c-5.283 10.077-8.104 21.648-7.617 33.924 1.392 35.062 30.03 63.451 65.103 64.541 38.865 1.208 70.619-30.547 69.411-69.412-1.09-35.073-29.479-63.711-64.54-65.103z" fill="#fcb44d"/><path d="m378.283 219.15c-3.48-.11-6.9-.48-10.24-1.12 31.92-5.94 55.92-34.41 54.87-68.3-.99-31.78-24.39-58.27-54.85-64.01 4.86-.91 9.91-1.3 15.09-1.09 35.06 1.39 63.45 30.03 64.54 65.1 1.21 38.87-30.55 70.62-69.41 69.42z" fill="#fb9927"/></g></g><g><path d="m511.865 491.97-7.711-40.245c-2.534-13.229-12.073-24.012-24.894-28.142l-5.871-1.891c4.592-6.254 7.337-13.873 7.337-21.995v-13.405c0-21.148-17.205-38.354-38.354-38.354-4.76 0-9.317.878-13.526 2.47-4.836-4.967-10.782-8.693-17.44-10.837l-.139-.045c4.592-6.254 7.337-13.873 7.337-21.995v-13.405c0-21.148-17.205-38.354-38.354-38.354s-38.354 17.206-38.354 38.354v13.405c0 8.122 2.745 15.741 7.338 21.995l-.139.045c-6.546 2.109-12.402 5.748-17.193 10.589v-115.21h9.726c7.617 0 14.097-4.89 16.512-11.689 6.326 1.986 12.998 3.167 19.905 3.381.809.025 1.614.038 2.418.038 19.981 0 38.67-7.728 52.852-21.91 14.753-14.753 22.521-34.382 21.871-55.27-.354-11.416-3.268-22.349-8.659-32.498-1.942-3.658-6.482-5.046-10.142-3.105-3.658 1.943-5.048 6.484-3.104 10.142 4.305 8.103 6.63 16.826 6.913 25.926.519 16.706-5.69 32.402-17.485 44.197-11.794 11.795-27.518 18.018-44.196 17.485-31.197-.969-56.604-26.157-57.842-57.341-.416-10.484 1.923-20.908 6.765-30.145.563-1.074.857-2.269.857-3.482v-20.931h20.934c1.213 0 2.408-.294 3.482-.858 9.234-4.842 19.66-7.182 30.144-6.765 10.192.404 20.191 3.482 28.916 8.899 3.518 2.185 8.142 1.104 10.328-2.416 2.185-3.519 1.104-8.143-2.416-10.328-10.925-6.783-23.453-10.637-36.232-11.144-12.477-.493-24.884 2.133-36.017 7.611h-21.639c-6.893 0-12.5 5.607-12.5 12.5v21.639c-.879 1.786-1.676 3.608-2.407 5.454-3.91-3.171-8.395-5.626-13.221-7.181l-20.922-6.74v-4.802c12.933-7.335 21.873-21.166 21.873-36.63v-15.255c0-23.498-19.116-42.614-42.614-42.614s-42.615 19.117-42.615 42.614v15.256c0 15.464 8.94 29.295 21.874 36.63v4.802l-20.921 6.74c-14.23 4.584-24.819 16.554-27.632 31.238l-6.772 35.344h-9.56c-9.669 0-17.535 7.866-17.535 17.535v16.137c0 9.669 7.866 17.535 17.535 17.535h9.726v40.782c0 4.142 3.358 7.5 7.5 7.5s7.5-3.358 7.5-7.5v-40.781h74.684c4.143 0 7.5-3.358 7.5-7.5s-3.357-7.5-7.5-7.5h-99.409c-1.398 0-2.535-1.137-2.535-2.535v-16.137c0-1.398 1.137-2.535 2.535-2.535h151.853c6.046 7.485 13.487 13.8 21.934 18.513v.159c0 1.398-1.138 2.535-2.535 2.535h-36.449c-4.143 0-7.5 3.358-7.5 7.5s3.357 7.5 7.5 7.5h11.724v113.018c-4.319.136-8.459.985-12.307 2.44-4.836-4.967-10.782-8.693-17.441-10.838l-.139-.045c4.592-6.254 7.337-13.873 7.337-21.995v-13.405c0-21.148-17.205-38.354-38.354-38.354s-38.354 17.206-38.354 38.354v13.405c0 8.122 2.745 15.741 7.337 21.995l-.14.045c-6.659 2.146-12.604 5.872-17.44 10.839-3.847-1.455-7.986-2.304-12.303-2.44v-36.842c0-4.142-3.358-7.5-7.5-7.5s-7.5 3.358-7.5 7.5v39.033c-4.792-4.842-10.648-8.481-17.194-10.59l-.139-.045c4.592-6.254 7.337-13.873 7.337-21.995v-13.405c0-21.148-17.205-38.354-38.354-38.354s-38.354 17.206-38.354 38.354v13.405c0 8.122 2.745 15.741 7.337 21.995l-.139.045c-6.667 2.148-12.605 5.873-17.439 10.839-4.211-1.593-8.769-2.472-13.531-2.472-21.148 0-38.354 17.206-38.354 38.354v13.405c0 8.122 2.745 15.741 7.338 21.996l-5.87 1.891c-12.821 4.129-22.36 14.913-24.895 28.142l-7.71 40.245c-.779 4.068 1.887 7.998 5.955 8.777.477.091.951.135 1.419.135 3.526 0 6.669-2.499 7.358-6.09l7.71-40.245c1.503-7.844 7.159-14.238 14.761-16.687l14.535-4.683c5.344 2.844 11.395 4.476 17.752 4.476s12.408-1.632 17.752-4.476l14.535 4.683c7.603 2.449 13.258 8.843 14.761 16.687l7.71 40.245c.688 3.592 3.832 6.09 7.358 6.09.468 0 .943-.044 1.419-.135 3.097-.594 5.376-3.014 5.947-5.93.002-.009 7.719-40.27 7.719-40.27 1.502-7.844 7.158-14.238 14.761-16.687l14.535-4.683c5.344 2.844 11.395 4.476 17.752 4.476s12.408-1.632 17.752-4.476l14.535 4.683c7.603 2.449 13.258 8.843 14.761 16.687l7.71 40.245c.688 3.592 3.832 6.09 7.358 6.09.468 0 .943-.044 1.42-.135 3.096-.594 5.375-3.014 5.946-5.929.002-.009 7.719-40.27 7.719-40.27 1.503-7.844 7.159-14.239 14.762-16.688l14.534-4.683c5.344 2.844 11.395 4.476 17.752 4.476s12.408-1.632 17.752-4.476l14.535 4.683c7.603 2.449 13.259 8.843 14.761 16.687l7.71 40.245c.688 3.592 3.831 6.09 7.358 6.09.468 0 .942-.044 1.419-.135 3.093-.593 5.371-3.007 5.945-5.918.003-.013 7.722-40.281 7.722-40.281 1.503-7.844 7.159-14.239 14.762-16.688l14.534-4.682c5.344 2.844 11.395 4.476 17.752 4.476s12.408-1.632 17.752-4.476l14.535 4.683c7.603 2.449 13.259 8.843 14.761 16.687l7.711 40.245c.688 3.592 3.831 6.09 7.358 6.09.468 0 .942-.044 1.419-.135 4.071-.781 6.737-4.711 5.958-8.778zm-260.137-308.228-21.867-55.824 6.255-2.015c2.536 8.59 10.484 14.882 19.885 14.882s17.349-6.292 19.885-14.882l6.255 2.015-21.866 55.824zm-23.341-130.01c0-15.227 12.388-27.614 27.615-27.614s27.614 12.388 27.614 27.614v15.256c0 14.471-12.904 27.164-27.614 27.164s-27.615-12.693-27.615-27.164zm27.615 57.421c1.943 0 3.858-.148 5.741-.412v9.303c0 3.166-2.575 5.742-5.741 5.742s-5.741-2.576-5.741-5.742v-9.303c1.882.264 3.797.412 5.741.412zm-54.563 40.068c1.557-8.127 6.875-14.94 14.206-18.467l19.973 50.989h-40.41zm74.946 32.521 19.964-50.968c4.004 1.933 7.482 4.876 10.033 8.541-.64 4.481-.88 9.029-.699 13.586.408 10.276 2.931 20.022 7.114 28.84h-36.412zm80.513 120.383c0-12.877 10.477-23.354 23.354-23.354s23.354 10.477 23.354 23.354v13.405c0 12.229-10.913 22.958-23.354 22.958s-23.354-10.728-23.354-22.958zm-124.252 0c0-12.877 10.477-23.354 23.354-23.354 12.876 0 23.353 10.477 23.353 23.354v13.405c0 12.229-10.913 22.958-23.353 22.958-12.441 0-23.354-10.728-23.354-22.958zm-124.248 0c0-12.877 10.477-23.354 23.354-23.354s23.354 10.477 23.354 23.354v13.405c0 12.229-10.913 22.958-23.354 22.958s-23.354-10.728-23.354-22.958zm-62.125 95.571v-13.405c0-12.877 10.477-23.354 23.354-23.354s23.354 10.477 23.354 23.354v13.405c0 12.229-10.913 22.958-23.354 22.958s-23.354-10.728-23.354-22.958zm85.478 52.029c-2.535-13.229-12.418-24.012-25.239-28.142l-5.87-1.891c4.592-6.254 7.338-13.873 7.338-21.996v-13.405c0-10.822-4.512-20.604-11.746-27.583 2.641-2.149 5.667-3.798 8.961-4.86l8.804-2.836c5.344 2.844 11.395 4.476 17.752 4.476s12.408-1.632 17.752-4.476l8.804 2.836c3.29 1.06 6.317 2.711 8.959 4.86-7.233 6.98-11.745 16.762-11.745 27.583v13.405c0 8.122 2.745 15.741 7.338 21.996l-5.87 1.891c-12.821 4.13-22.704 14.913-25.238 28.142zm38.77-52.029v-13.405c0-12.877 10.477-23.354 23.354-23.354 12.877 0 23.354 10.477 23.354 23.354v13.405c0 12.229-10.913 22.958-23.354 22.958s-23.354-10.728-23.354-22.958zm85.479 52.029c-2.534-13.229-12.418-24.012-25.239-28.142l-5.87-1.891c4.592-6.254 7.338-13.873 7.338-21.996v-13.405c0-10.821-4.512-20.602-11.744-27.582 2.643-2.15 5.669-3.801 8.96-4.861l8.804-2.836c5.344 2.845 11.395 4.476 17.752 4.476s12.408-1.632 17.752-4.476l8.803 2.836c3.291 1.06 6.317 2.711 8.959 4.861-7.233 6.98-11.745 16.761-11.745 27.583v13.405c0 8.122 2.745 15.741 7.337 21.996l-5.87 1.891c-12.819 4.128-22.702 14.911-25.237 28.141zm38.77-52.029v-13.405c0-12.877 10.477-23.354 23.354-23.354s23.354 10.477 23.354 23.354v13.405c0 12.229-10.913 22.958-23.354 22.958s-23.354-10.728-23.354-22.958zm85.483 52.029c-2.534-13.229-12.422-24.012-25.242-28.142l-5.871-1.891c4.592-6.254 7.337-13.873 7.337-21.995v-13.405c0-10.82-4.511-20.601-11.742-27.58 2.643-2.151 5.67-3.802 8.961-4.863l8.804-2.836c5.344 2.845 11.396 4.476 17.752 4.476 6.357 0 12.408-1.632 17.752-4.476l8.804 2.836c3.29 1.06 6.315 2.71 8.958 4.86-7.233 6.98-11.746 16.762-11.746 27.584v13.405c0 8.122 2.745 15.741 7.338 21.996l-5.87 1.891c-12.82 4.127-22.7 14.91-25.235 28.14zm38.767-52.029v-13.405c0-12.877 10.477-23.354 23.354-23.354s23.354 10.477 23.354 23.354v13.405c0 12.229-10.913 22.958-23.354 22.958s-23.354-10.728-23.354-22.958z"/><path d="m418.708 153.287v-18.776c1.9-1.361 3.142-3.581 3.142-6.096 0-4.142-3.357-7.5-7.5-7.5h-24.266c-.077-4.075-3.399-7.356-7.493-7.356s-7.416 3.281-7.493 7.356h-24.267c-4.143 0-7.5 3.358-7.5 7.5 0 2.515 1.242 4.736 3.143 6.097v18.776h-.075c-4.143 0-7.5 3.358-7.5 7.5s3.357 7.5 7.5 7.5h15.15c4.143 0 7.5-3.358 7.5-7.5s-3.357-7.5-7.5-7.5h-.075v-17.372h13.617v39.282h-8.324c-4.143 0-7.5 3.358-7.5 7.5s3.357 7.5 7.5 7.5h31.647c4.143 0 7.5-3.358 7.5-7.5s-3.357-7.5-7.5-7.5h-8.323v-39.282h13.617v17.372h-.075c-4.143 0-7.5 3.358-7.5 7.5s3.357 7.5 7.5 7.5h15.15c4.143 0 7.5-3.358 7.5-7.5s-3.357-7.5-7.5-7.5h-.075z"/></g></g></svg>