<svg id="Capa_1" enable-background="new 0 0 511.989 511.989" height="512" viewBox="0 0 511.989 511.989" width="512" xmlns="http://www.w3.org/2000/svg"><g><g><path d="m453.46 408.278h-340.588c-7.086 16.731-14.633 54.71.706 71.152 0 0 347.882 1.201 348.824-.211.94-1.412-9.599-64.53-8.942-70.941z" fill="#e3e0e4"/><path d="m469.184 394.556s-82.077-19.257-372.607-10.984c-17.078.486 0 99.882 0 99.882l21.992-8.969c-3.373-20.702-2.183-41.197 4.903-57.928l322.463.001c-.657 6.41-.988 11.166-.988 17.962 0 14.859 1.565 28.635 4.235 39.965l11.337 6.852 8.665-6.852c-2.67-11.33-4.235-25.107-4.235-39.965 0-14.49 1.685-28.798 4.235-39.964z" fill="#c5bec6"/><path d="m83.574 441.724-15.145 27.876c1.507 7.667 3.489 14.419 5.831 19.882l406.965 7.619c13.524 0 15.059-11.059 8.263-22.618h-386.018z" fill="#dc8995"/><path d="m489.488 386.043c8.284 0 5.619-11.87 0-21.487h-316.015l-33.072 20.428z" fill="#dc8995"/><path d="m489.493 364.556h-.005c-.001 8.283-6.716 14.998-15 14.998l-316.012-.001 14.998-14.998h-108.239v69.964c0 12.792 1.166 24.768 3.193 35.081l15.134-15.134c.811 4.982 1.886 9.861 3.207 14.53.917 3.241 3.862 5.488 7.231 5.488h9.47c-8.412-24.912-9.47-57.569 0-79.929l386.019.001c9.818 0 17.434-9.435 14.276-19.732-1.897-6.185-7.802-10.268-14.272-10.268z" fill="#d5717f"/><path d="m489.489 474.484h-.002c-.001 8.283-6.716 14.998-15 14.998h-400.227c4.024 9.386 9.1 15.002 14.622 15.002h400.607c8.284 0 15-6.716 15-15s-6.716-15-15-15z" fill="#d5717f"/><path d="m251.685 242.612 8.824-8.824-54.461-52.804-.191 15.804c-5.477 43.408-42.743 1.709-47.492 47.7l26.119 47.944c71.505-.001 23.788-44.345 67.201-49.82z" fill="#eaab8a"/><path d="m275.048 247.884-14.539-14.097-15.789 1.86c-43.412 5.475-1.711 42.743-47.702 47.492l1.383 14.144h12.76c45.992-4.749 4.29-42.017 47.702-47.492z" fill="#e5936a"/><path d="m47.606 437.112s124.305-129.296 124.388-134.204c1.344-11.8-12.686-23.765-12.686-23.765l-19.431-5.749-127.994 127.995c-5.858 5.858-5.858 15.355 0 21.213l12.323 12.323c8.03 7.242 17.542 8.045 23.4 2.187z" fill="#eaab8a"/><path d="m159.308 279.144 8.802 22.484-133.297 133.297c-2.929 2.929-7.678 2.929-10.607 0l8.84 8.84c5.858 5.858 15.355 5.858 21.213 0l127.995-127.995-13.212-33.747z" fill="#e5936a"/><path d="m197.648 307.467c6.544-6.544 7.16-16.537-4.908-28.605l-35.557-35.557c-6.544-6.544-17.154-6.544-23.698 0s-6.544 17.154 0 23.698l35.557 35.557c11.245 11.244 22.062 11.451 28.606 4.907z" fill="#ffc5ae"/><path d="m212.742 298.864-20.002-20.002c6.544 6.544 6.544 17.154 0 23.698s-17.154 6.544-23.698 0l20.002 20.002c6.544 6.544 17.154 6.544 23.698 0 6.544-6.545 6.544-17.154 0-23.698z" fill="#eaab8a"/><path d="m261.59 62.012-53.826 35.825-29.825 47.826 144.047 144.048 52.54-30.485 31.112-53.166z" fill="#eaab8a"/><path d="m249.589 50.011-61.42 31.091-22.232 52.56 12.002 12.001 83.651-83.651z" fill="#e5936a"/><path d="m363.811 144.633-37.794-37.794-67.043 45.165-36.31 57.984 37.896 37.896 56.313-42.676z" fill="#f3d332"/><path d="m311.015 91.837-59.79 44.323-43.461 58.929 14.9 14.899 103.353-103.149z" fill="#dbb72b"/><path d="m197.754 186.984 108.353-105.177c4.984-4.984 2.647-16.235-3.697-23.327-6.764-1.942-14.35-.256-19.679 5.073l-103.251 103.251c-4.984 4.984-6.773 11.941-5.396 18.355 4.788 6.515 18.341 7.154 23.67 1.825z" fill="#f7e365"/><path d="m311.015 63.553c-2.482-2.482-5.455-4.168-8.606-5.073 1.377 6.414-.412 13.371-5.396 18.355l-103.25 103.252c-5.329 5.329-12.914 7.015-19.679 5.073.781 3.638 2.569 7.102 5.396 9.929 7.81 7.811 20.474 7.81 28.284 0l103.251-103.252c7.811-7.81 7.811-20.473 0-28.284z" fill="#f3d332"/><path d="m278.828 268.061 108.352-105.176c4.984-4.984 2.647-16.235-3.697-23.327-6.764-1.942-14.35-.256-19.679 5.073l-103.251 103.251c-4.984 4.984-6.773 11.941-5.396 18.355 4.788 6.515 18.342 7.153 23.671 1.824z" fill="#f7e365"/><path d="m392.089 144.63c-2.482-2.482-5.455-4.168-8.606-5.073 1.377 6.414-.412 13.371-5.396 18.355l-103.251 103.252c-5.329 5.329-12.914 7.015-19.679 5.073.781 3.638 2.569 7.102 5.396 9.929 7.81 7.811 20.474 7.81 28.284 0l103.251-103.251c7.811-7.811 7.811-20.474.001-28.285z" fill="#f3d332"/><path d="m354.213 317.668 77.241-72c12.016-12.016 17.678-34.399-1.419-53.495-4.985-1.304-10.506-.017-14.413 3.889l-103.634 103.634c-3.906 3.906-5.193 9.428-3.889 14.413 11.098 11.097 34.098 15.575 46.114 3.559z" fill="#ffc5ae"/><path d="m436.836 196.061c-1.952-1.952-4.31-3.238-6.801-3.889 7.114 14.441 4.673 32.396-7.343 44.412l-70.181 70.181c-12.016 12.016-29.971 14.457-44.412 7.343.651 2.49 1.937 4.849 3.889 6.801 15.096 15.096 39.571 15.096 54.667 0l70.181-70.181c15.096-15.095 15.096-39.571 0-54.667z" fill="#eaab8a"/><path d="m142.415 139.501 111.975-114.072c2.262-2.262 1.484-8.471-2.814-12.769-14.784-8.549-34.016-6.506-46.665 6.144l-70.181 70.181c-12.649 12.649-14.693 31.881-6.144 46.665 5.421 5.42 11.566 6.114 13.829 3.851z" fill="#ffc5ae"/><path d="m259.578 40.017c5.858-5.858 5.858-15.355 0-21.213-2.447-2.447-5.142-4.49-8.002-6.144 1.379 2.825.81 6.262-1.452 8.524l-113.013 113.013c-2.262 2.262-5.699 2.832-8.524 1.452 1.654 2.86 3.697 5.555 6.144 8.002 5.858 5.858 15.355 5.858 21.213 0z" fill="#eaab8a"/></g><g><path d="m489.489 466.984h-14.208c-1.851-9.865-2.833-20.95-2.833-32.464 0-11.492.978-22.596 2.828-32.464h14.213c12.407 0 22.5-10.093 22.5-22.5s-10.093-22.5-22.5-22.5h-337.913l30.678-30.678 1.487 1.487c9.458 9.458 24.847 9.458 34.304 0 4.582-4.582 7.104-10.673 7.104-17.152 0-2.873-.498-5.669-1.45-8.291 18.188-5.767 19.136-19.187 19.795-28.557.407-5.789.693-9.771 3.736-12.48-.168 7.255 2.502 14.564 8.026 20.088 5.361 5.361 12.403 8.042 19.445 8.042s14.084-2.681 19.445-8.042l4.497-4.497 12.736 12.736-4.689 4.689c-4.25 4.25-6.59 9.9-6.59 15.91s2.34 11.66 6.59 15.91c8.998 8.998 20.817 13.497 32.637 13.497s23.639-4.499 32.637-13.497l70.181-70.181c8.718-8.718 13.519-20.309 13.519-32.637 0-12.329-4.801-23.919-13.519-32.637-4.25-4.25-9.9-6.59-15.91-6.59s-11.661 2.341-15.91 6.59l-4.688 4.688-12.736-12.736 4.497-4.497c10.723-10.722 10.723-28.169 0-38.892-8.884-8.882-22.38-10.398-32.846-4.562l-43.672-43.671c5.837-10.467 4.322-23.963-4.562-32.847-10.722-10.723-28.169-10.723-38.891 0l-4.497 4.497-12.736-12.736 4.688-4.688c4.25-4.25 6.59-9.9 6.59-15.91s-2.34-11.66-6.59-15.91c-17.996-17.996-47.278-17.996-65.273 0l-70.181 70.181c-17.996 17.996-17.996 47.278 0 65.273 4.25 4.25 9.9 6.59 15.91 6.59s11.661-2.34 15.91-6.59l4.688-4.688 12.735 12.736-4.497 4.497c-5.194 5.194-8.055 12.1-8.055 19.445 0 7.346 2.86 14.251 8.055 19.445 5.194 5.194 12.1 8.055 19.445 8.055.211 0 .421-.011.632-.015-2.709 3.031-6.688 3.316-12.469 3.723-9.416.662-22.917 1.624-28.637 20.067-8.473-2.871-18.223-.962-24.966 5.781-9.457 9.458-9.457 24.846 0 34.304l1.089 1.089-122.688 122.691c-8.773 8.773-8.773 23.047 0 31.82l21.164 21.164c4.386 4.386 10.148 6.58 15.91 6.58 5.233 0 10.455-1.83 14.658-5.449 2.374 32.061 12.16 61.784 30.571 61.784h400.607c12.407 0 22.5-10.093 22.5-22.5s-10.094-22.501-22.501-22.501zm0-94.928c4.136 0 7.5 3.364 7.5 7.5s-3.364 7.5-7.5 7.5l-367.912-.001 14.999-14.999zm-68.556-170.685c1.416-1.417 3.299-2.197 5.303-2.197 2.003 0 3.887.78 5.303 2.197 5.885 5.885 9.125 13.708 9.125 22.03s-3.241 16.146-9.125 22.03l-70.181 70.181c-12.147 12.147-31.913 12.148-44.061 0-1.417-1.417-2.197-3.3-2.197-5.303s.78-3.887 2.197-5.304zm-34.141-51.435c4.874 4.874 4.874 12.804 0 17.678l-57.062 57.062c-2.929 2.929-2.929 7.678 0 10.606 2.929 2.929 7.678 2.929 10.606 0l41.959-41.959 12.736 12.736-73.045 73.045-12.736-12.736 13.181-13.181c2.929-2.929 2.929-7.678 0-10.606-2.929-2.929-7.678-2.929-10.606 0l-28.284 28.284c-4.874 4.874-12.804 4.874-17.678 0s-4.874-12.804 0-17.678l103.251-103.251c4.874-4.874 12.805-4.873 17.678 0zm-210.248-16.274 29.722-29.722c2.929-2.929 2.929-7.678 0-10.606-2.929-2.929-7.678-2.929-10.606 0l-45.017 45.017c-1.417 1.417-3.3 2.197-5.304 2.197-2.003 0-3.887-.78-5.303-2.197-12.147-12.147-12.147-31.913 0-44.061l70.181-70.181c12.147-12.147 31.913-12.148 44.061 0 1.417 1.417 2.197 3.3 2.197 5.303s-.78 3.887-2.197 5.304l-38.616 38.616c-2.929 2.929-2.929 7.678 0 10.606 2.929 2.929 7.678 2.929 10.606 0l23.321-23.321 12.736 12.736-73.045 73.045zm8.239 56.123c-2.361-2.361-3.661-5.5-3.661-8.839s1.3-6.478 3.661-8.839l103.251-103.251c2.437-2.437 5.638-3.655 8.839-3.655s6.402 1.218 8.839 3.655c4.874 4.874 4.874 12.804 0 17.678l-103.251 103.251c-2.361 2.361-5.5 3.661-8.839 3.661s-6.478-1.3-8.839-3.661zm-1.946 37.332c9.075-.639 22.067-1.554 27.98-18.369l14.628 14.628c1.464 1.464 3.384 2.197 5.303 2.197s3.839-.732 5.303-2.197c2.929-2.929 2.929-7.678 0-10.606l-17.682-17.682 92.645-92.645 42.189 42.189-92.645 92.645-4.506-4.506c-2.929-2.929-7.678-2.929-10.606 0-2.929 2.929-2.929 7.678 0 10.606l1.453 1.453c-16.816 5.913-17.731 18.905-18.369 27.98-.662 9.411-1.019 14.478-14.664 16.571l-47.602-47.602c2.095-13.643 7.161-14 16.573-14.662zm-144.487 211.345-21.164-21.164c-2.924-2.924-2.924-7.683 0-10.607l127.994-127.994c2.929-2.929 2.929-7.678 0-10.606l-6.392-6.392c-3.609-3.609-3.609-9.482 0-13.091 1.805-1.805 4.175-2.707 6.546-2.707 2.37 0 4.741.902 6.545 2.707l55.559 55.559c1.749 1.749 2.711 4.073 2.711 6.545 0 2.473-.962 4.797-2.711 6.545-3.609 3.609-9.481 3.609-13.091 0l-29.165-29.165c-2.929-2.929-7.678-2.929-10.606 0-2.929 2.929-2.929 7.678 0 10.606l17.071 17.072-122.691 122.692c-2.925 2.924-7.681 2.924-10.606 0zm451.139 58.522h-400.607c-1.382 0-5.723-3.876-9.616-15.394-4.104-12.143-6.405-28.33-6.52-45.705l17.269-17.268c-1.988 18.737.112 39.792 6.35 58.266 1.029 3.048 3.889 5.101 7.106 5.101h71.882c4.142 0 7.5-3.358 7.5-7.5s-3.358-7.5-7.5-7.5h-66.358c-3.173-11.19-4.728-23.33-4.689-34.929h155.742c4.142 0 7.5-3.358 7.5-7.5s-3.358-7.5-7.5-7.5h-154.747c.727-5.357 1.843-10.42 3.359-15l351.385.001c-1.699 10.061-2.596 21.113-2.596 32.464 0 .826.022 1.642.032 2.464h-114.138c-4.142 0-7.5 3.358-7.5 7.5s3.358 7.5 7.5 7.5h114.832c.432 5.177 1.052 10.203 1.862 15h-254.684c-4.142 0-7.5 3.358-7.5 7.5s3.358 7.5 7.5 7.5h284.137c4.136 0 7.5 3.364 7.5 7.5-.001 4.135-3.365 7.5-7.501 7.5z"/></g></g></svg>