<svg id="Layer_1" enable-background="new 0 0 512 512" height="512" viewBox="0 0 512 512" width="512" xmlns="http://www.w3.org/2000/svg"><g id="XMLID_1509_"><path id="XMLID_1467_" d="m64 462v-412c0-22.091 17.909-40 40-40h344v412h-344c-22.091 0-40 17.909-40 40z" fill="#a0e5a5"/><path id="XMLID_1380_" d="m448 502h-344c-22.091 0-40-17.909-40-40 0-22.091 17.909-40 40-40h344z" fill="#fff"/><path id="XMLID_1626_" d="m64 310.324 112.824-112.824 34.655 34.655-147.479 147.48z" fill="#c68a65"/><path id="XMLID_1639_" d="m156.488 205.923h44.125v49.01h-44.125z" fill="#ddb9a3" transform="matrix(.707 -.707 .707 .707 -110.641 193.745)"/><g id="XMLID_2116_"><path id="XMLID_2117_" d="m216 297.12h172.333v56h-172.333z" fill="#ffcd69"/></g><path id="XMLID_1635_" d="m338.98 223.104-66.207 66.207c-7.999 7.999-20.967 7.999-28.966 0-7.999-7.999-7.999-20.967 0-28.966l66.207-66.207c7.999-7.999 20.967-7.999 28.966 0 7.999 7.999 7.999 20.967 0 28.966z" fill="#ddb9a3"/><path id="XMLID_1634_" d="m214.841 98.965-66.207 66.207c-7.999 7.999-20.967 7.999-28.966 0-7.999-7.999-7.999-20.967 0-28.966l66.207-66.207c7.999-7.999 20.967-7.999 28.966 0 7.999 7.999 7.999 20.967 0 28.966z" fill="#ddb9a3"/><path id="XMLID_1633_" d="m179.582 112.357h99.483v134.595h-99.483z" fill="#c68a65" transform="matrix(.707 -.707 .707 .707 -59.868 214.776)"/><g id="XMLID_788_"><path id="XMLID_791_" d="m448 0h-344c-27.57 0-50 22.43-50 50v412c0 27.57 22.43 50 50 50h344c5.522 0 10-4.478 10-10v-221c0-5.522-4.478-10-10-10s-10 4.478-10 10v131h-334c-11.247 0-21.637 3.735-30 10.027v-38.25l137.479-137.479 18.14 18.14c-1.189 3.287-1.811 6.791-1.811 10.39 0 4.304.894 8.469 2.58 12.292h-14.388c-5.523 0-10 4.478-10 10v56c0 5.522 4.477 10 10 10h172.333c5.522 0 10-4.478 10-10v-56c0-5.522-4.478-10-10-10h-99.227l56.946-56.945v-.001c11.884-11.885 11.884-31.222-.001-43.107-8.618-8.618-21.155-10.98-31.927-7.099l-85.111-85.112c3.881-10.773 1.518-23.309-7.1-31.928-5.758-5.757-13.413-8.928-21.555-8.928s-15.797 3.171-21.554 8.928l-66.208 66.207c-5.757 5.758-8.928 13.412-8.928 21.555s3.171 15.797 8.928 21.554c5.758 5.757 13.413 8.928 21.554 8.928 3.6 0 7.103-.622 10.39-1.811l18.14 18.14-88.68 88.68v-236.181c0-16.542 13.458-30 30-30h334v171c0 5.522 4.478 10 10 10s10-4.478 10-10v-181c0-5.522-4.478-10-10-10zm-69.667 343.12h-152.333v-36h152.333zm-274.333 88.88h334v60h-334c-16.542 0-30-13.458-30-30s13.458-30 30-30zm227.909-230.792c4.086 4.087 4.086 10.737 0 14.824l-66.208 66.208c-1.979 1.979-4.611 3.069-7.411 3.069s-5.432-1.09-7.412-3.07c-1.979-1.979-3.07-4.611-3.07-7.411s1.09-5.432 3.07-7.411l66.208-66.208c2.043-2.044 4.728-3.065 7.411-3.065 2.685 0 5.369 1.022 7.412 3.064zm-205.17-43.107c-1.979-1.979-3.07-4.611-3.07-7.411s1.09-5.433 3.07-7.412l66.208-66.207c1.979-1.98 4.612-3.07 7.412-3.07s5.432 1.09 7.412 3.07c4.084 4.084 4.086 10.726.01 14.813l-66.217 66.217c-1.979 1.98-4.612 3.07-7.412 3.07s-5.433-1.09-7.413-3.07zm90.171-47.063 81.03 81.031-56.203 56.202-81.031-81.03zm-19.573 121.118-17.059 17.059-20.513-20.513 17.059-17.059zm-51.714 10.688 20.513 20.513-92.136 92.135v-41.026z"/><path id="XMLID_911_" d="m400 58h-87.917c-5.522 0-10 4.478-10 10s4.478 10 10 10h87.917c5.522 0 10-4.478 10-10s-4.478-10-10-10z"/><path id="XMLID_912_" d="m400 102h-43.958c-5.522 0-10 4.478-10 10s4.478 10 10 10h43.958c5.522 0 10-4.478 10-10s-4.478-10-10-10z"/><path id="XMLID_913_" d="m448 226c-2.63 0-5.21 1.069-7.07 2.93s-2.93 4.44-2.93 7.07 1.069 5.21 2.93 7.069c1.86 1.86 4.44 2.931 7.07 2.931s5.21-1.07 7.069-2.931c1.861-1.859 2.931-4.439 2.931-7.069s-1.07-5.21-2.931-7.07c-1.859-1.861-4.439-2.93-7.069-2.93z"/></g></g></svg>