<svg id="Capa_1" enable-background="new 0 0 512 512" viewBox="0 0 512 512" xmlns="http://www.w3.org/2000/svg"><g><g><g><g><g><path d="m167.277 363.094c0-18.343 5.595-35.404 15.169-49.565l-35.168-13.188c-10.054 7.518-22.523 11.975-36.014 11.975s-25.961-4.457-36.015-11.975l-45.651 17.12c-13.292 4.984-22.098 17.69-22.098 31.886v43.469c0 5.523 4.477 10 10 10h159.182c-6.013-11.957-9.405-25.45-9.405-39.722z" fill="#fe7d43"/></g><g><path d="m146.754 324.434c10.88 4.08 18.838 13.144 21.746 24.013 2.087-12.51 6.796-24.141 13.549-34.308l-2.433-1.672-32.338-12.127c-9.313 6.964-20.702 11.294-33.053 11.896z" fill="#fd6930"/></g><g><g><circle cx="111.263" cy="252.055" fill="#c96e59" r="61.395"/></g><g><path d="m111.263 190.659c-5.475 0-10.778.726-15.829 2.071 26.234 6.983 45.566 30.892 45.566 59.325s-19.332 52.342-45.566 59.325c5.051 1.344 10.355 2.071 15.829 2.071 33.908 0 61.395-27.488 61.395-61.395s-27.487-61.397-61.395-61.397z" fill="#bb5d4c"/></g></g></g><g><g><path d="m482.403 317.46-45.651-17.12c-10.054 7.518-22.523 11.975-36.014 11.975s-25.961-4.457-36.015-11.975l-35.168 13.189c9.573 14.161 15.168 31.222 15.168 49.565 0 14.272-3.392 27.765-9.405 39.723h159.182c5.523 0 10-4.477 10-10v-43.469c0-14.196-8.806-26.903-22.097-31.888z" fill="#528fd8"/></g><g><g><path d="m482.403 317.46-45.651-17.12c-8.801 6.581-19.453 10.816-31.021 11.77l37.754 14.158c13.828 5.186 22.988 18.405 22.988 33.173v43.375h28.027c5.523 0 10-4.477 10-10v-43.469c0-14.195-8.806-26.902-22.097-31.887z" fill="#0573ce"/></g></g><g><g><circle cx="400.737" cy="252.055" fill="#ffcebf" r="61.395"/></g><g><path d="m400.737 190.659c-5.379 0-10.594.697-15.566 1.996 26.369 6.892 45.829 30.871 45.829 59.4s-19.46 52.508-45.829 59.399c4.972 1.299 10.187 1.996 15.566 1.996 33.908 0 61.395-27.488 61.395-61.395s-27.488-61.396-61.395-61.396z" fill="#ffb09e"/></g></g></g></g><g><g><circle cx="256" cy="363.093" fill="#0ed2b3" r="89.723"/></g><g><path d="m256 273.37c-9.093 0-17.868 1.357-26.138 3.872 36.802 11.191 63.585 45.391 63.585 85.851s-26.783 74.66-63.585 85.851c8.271 2.515 17.046 3.872 26.138 3.872 49.553 0 89.723-40.17 89.723-89.723s-40.17-89.723-89.723-89.723z" fill="#0ab69f"/></g></g><g><g><path d="m147.544 134.979c-2.691 0-4.803 2.368-4.443 5.034 2.458 18.182 18.039 32.198 36.895 32.198s34.437-14.016 36.895-32.198c.36-2.667-1.752-5.034-4.443-5.034z" fill="#d8aa5e"/></g><g><g><path d="m299.552 134.979c-2.691 0-4.803 2.368-4.443 5.034 2.458 18.182 18.039 32.198 36.895 32.198s34.437-14.016 36.895-32.198c.36-2.667-1.751-5.034-4.443-5.034z" fill="#d8aa5e"/></g><g><path d="m364.456 134.979h-26.069c2.691 0 4.803 2.368 4.443 5.034-1.86 13.759-11.238 25.127-23.861 29.846 4.057 1.517 8.448 2.352 13.034 2.352 18.855 0 34.437-14.016 36.895-32.198.361-2.667-1.75-5.034-4.442-5.034z" fill="#c99c56"/></g><g><path d="m212.448 134.979h-26.068c2.691 0 4.803 2.368 4.443 5.034-1.86 13.759-11.238 25.127-23.861 29.846 4.057 1.517 8.448 2.352 13.034 2.352 18.855 0 34.437-14.016 36.895-32.198.36-2.667-1.752-5.034-4.443-5.034z" fill="#c99c56"/></g></g></g></g><g><path d="m98.183 250.919v-10.672c0-4.143-3.358-7.5-7.5-7.5s-7.5 3.357-7.5 7.5v10.672c0 4.143 3.358 7.5 7.5 7.5s7.5-3.357 7.5-7.5z"/><path d="m139.344 250.919v-10.672c0-4.143-3.358-7.5-7.5-7.5s-7.5 3.357-7.5 7.5v10.672c0 4.143 3.358 7.5 7.5 7.5s7.5-3.357 7.5-7.5z"/><path d="m485.036 310.438-33.052-12.395c10.964-12.205 17.649-28.328 17.649-45.988 0-35.454-26.922-64.729-61.396-68.48v-79.575c0-6.893-5.607-12.5-12.5-12.5h-26.737c-4.142 0-7.5 3.357-7.5 7.5s3.358 7.5 7.5 7.5h24.237v77.075c-34.473 3.75-61.396 33.025-61.396 68.48 0 17.659 6.685 33.782 17.648 45.987l-16.241 6.091c-17.781-23.242-45.791-38.263-77.248-38.263-31.051 0-59.302 14.823-77.257 38.26l-16.233-6.088c10.964-12.205 17.648-28.328 17.648-45.988 0-35.454-26.922-64.729-61.395-68.48v-77.074h23.237c4.142 0 7.5-3.357 7.5-7.5s-3.358-7.5-7.5-7.5h-25.737c-6.893 0-12.5 5.607-12.5 12.5v79.588c-27.17 3.025-50.646 22.248-58.54 48.832-1.179 3.971 1.084 8.146 5.055 9.324 3.971 1.182 8.146-1.084 9.325-5.055 6.736-22.686 27.98-38.53 51.66-38.53 29.718 0 53.895 24.178 53.895 53.896s-24.177 53.896-53.895 53.896c-23.68 0-44.924-15.845-51.66-38.53-1.179-3.971-5.354-6.235-9.325-5.055-3.971 1.179-6.234 5.354-5.055 9.324 2.96 9.969 8.112 18.905 14.827 26.34l-33.086 12.408c-16.128 6.048-26.964 21.685-26.964 38.91v43.469c0 9.649 7.851 17.5 17.5 17.5h153.517c16.797 30.128 49.02 50 84.983 50 36.481 0 68.328-20.201 84.957-50h81.043c4.142 0 7.5-3.357 7.5-7.5s-3.358-7.5-7.5-7.5h-74.273c3.555-10.089 5.496-20.933 5.496-32.223 0-16.659-4.214-32.351-11.628-46.071l20.758-7.785c10.976 7.392 24.184 11.712 38.384 11.712 14.199 0 27.407-4.32 38.383-11.712l40.648 15.244c10.307 3.866 17.232 13.859 17.232 24.866v43.469c0 1.379-1.122 2.5-2.5 2.5h-37.5c-4.142 0-7.5 3.357-7.5 7.5s3.358 7.5 7.5 7.5h37.5c9.649 0 17.5-7.851 17.5-17.5v-43.469c0-17.225-10.836-32.862-26.964-38.91zm-229.036 134.878c-39.152 0-73.072-27.832-80.654-66.178-.803-4.063-4.754-6.713-8.812-5.902-4.063.804-6.707 4.749-5.903 8.812.901 4.557 2.131 8.982 3.635 13.268h-146.766c-1.378 0-2.5-1.121-2.5-2.5v-43.469c0-11.007 6.925-21 17.231-24.865l40.743-15.28c11.105 7.452 24.364 11.747 38.289 11.747 14.199 0 27.407-4.32 38.383-11.712l20.743 7.779c-4.505 8.344-7.846 17.446-9.759 27.121-.804 4.063 1.839 8.009 5.903 8.812 4.059.812 8.009-1.838 8.812-5.902 7.582-38.347 41.502-66.179 80.654-66.179 45.338 0 82.223 36.886 82.223 82.224s-36.884 82.224-82.222 82.224zm90.841-193.261c0-29.718 24.177-53.896 53.896-53.896s53.896 24.178 53.896 53.896-24.177 53.896-53.896 53.896-53.896-24.179-53.896-53.896z"/><path d="m380.156 232.747c-4.142 0-7.5 3.357-7.5 7.5v10.672c0 4.143 3.358 7.5 7.5 7.5s7.5-3.357 7.5-7.5v-10.672c0-4.143-3.358-7.5-7.5-7.5z"/><path d="m421.317 232.747c-4.142 0-7.5 3.357-7.5 7.5v10.672c0 4.143 3.358 7.5 7.5 7.5s7.5-3.357 7.5-7.5v-10.672c0-4.143-3.358-7.5-7.5-7.5z"/><path d="m292.014 333.158-46.395 49.046-25.738-26.12c-2.908-2.952-7.657-2.987-10.606-.078-2.95 2.907-2.985 7.655-.078 10.605l31.191 31.653c1.411 1.432 3.335 2.236 5.342 2.236h.077c2.035-.021 3.974-.868 5.372-2.346l51.733-54.688c2.846-3.01 2.714-7.756-.295-10.603-3.011-2.847-7.759-2.713-10.603.295z"/><path d="m168.628 77.085-22.201 50.453c-3.045.285-5.883 1.719-7.916 4.043-2.266 2.594-3.302 6.032-2.843 9.436 2.982 22.059 22.039 38.693 44.328 38.693s41.345-16.635 44.328-38.694c.459-3.402-.577-6.841-2.843-9.435-2.032-2.325-4.871-3.758-7.916-4.043l-22.075-50.166h57.01v123.944h-37.627c-4.142 0-7.5 3.357-7.5 7.5s3.358 7.5 7.5 7.5h90.255c4.142 0 7.5-3.357 7.5-7.5s-3.358-7.5-7.5-7.5h-37.628v-123.944h57.01l-22.075 50.167c-3.045.285-5.884 1.718-7.916 4.043-2.266 2.594-3.302 6.032-2.843 9.436 2.982 22.059 22.039 38.693 44.328 38.693s41.346-16.635 44.328-38.694c.459-3.402-.577-6.841-2.843-9.435-2.032-2.325-4.871-3.758-7.916-4.043l-22.201-50.453c3.152-.887 5.466-3.777 5.466-7.213 0-4.143-3.358-7.5-7.5-7.5h-77.838v-3.188c0-4.143-3.358-7.5-7.5-7.5s-7.5 3.357-7.5 7.5v3.188h-77.838c-4.142 0-7.5 3.357-7.5 7.5 0 3.436 2.314 6.325 5.466 7.212zm163.376 87.626c-13.621 0-25.425-9.34-28.779-22.232h57.559c-3.355 12.892-15.159 22.232-28.78 22.232zm-17.155-37.232 17.155-38.985 17.155 38.985zm-134.853 37.232c-13.621 0-25.426-9.34-28.78-22.232h57.559c-3.354 12.892-15.158 22.232-28.779 22.232zm-17.155-37.232 17.155-38.985 17.155 38.985z"/></g></g><g/><g/><g/><g/><g/><g/><g/><g/><g/><g/><g/><g/><g/><g/><g/></svg>