<?xml version="1.0" encoding="iso-8859-1"?>
<!-- Generator: Adobe Illustrator 19.0.0, SVG Export Plug-In . SVG Version: 6.00 Build 0)  -->
<svg version="1.1" id="Capa_1" xmlns="http://www.w3.org/2000/svg" xmlns:xlink="http://www.w3.org/1999/xlink" x="0px" y="0px"
	 viewBox="0 0 512.002 512.002" style="enable-background:new 0 0 512.002 512.002;" xml:space="preserve">
<circle style="fill:#A0E070;" cx="409.475" cy="88.114" r="31.998"/>
<circle style="fill:#F75857;" cx="424.974" cy="470" r="31.998"/>
<circle style="fill:#FFC44D;" cx="42.098" cy="447.981" r="31.998"/>
<circle style="fill:#A0E070;" cx="90.005" cy="71.625" r="31.998"/>
<circle style="fill:#006AB2;" cx="469.801" cy="167.199" r="31.998"/>
<circle style="fill:#52E7EF;" cx="240.995" cy="255.993" r="31.998"/>
<circle style="fill:#CCDBDD;" cx="230.416" cy="421.933" r="80.025"/>
<path style="fill:#A0E070;" d="M287.382,472.552c0-11.98-8.538-22.259-20.316-24.455l-14.49-2.703l-44.382,0.01l-14.435,2.692
	c-11.777,2.197-20.316,12.475-20.316,24.455v5.57c14.512,14.712,34.672,23.839,56.969,23.839s42.457-9.126,56.969-23.839V472.552z"
	/>
<path style="fill:#FFBC8F;" d="M230.414,384.065L230.414,384.065c-14.982,0-27.128,12.145-27.128,27.128v17.653
	c0,14.982,12.145,27.128,27.128,27.128l0,0c14.982,0,27.128-12.145,27.128-27.128v-17.653
	C257.541,396.211,245.396,384.065,230.414,384.065z"/>
<circle style="fill:#CCDBDD;" cx="421.694" cy="318.289" r="80.025"/>
<path style="fill:#52E7EF;" d="M478.662,368.907c0-11.98-8.538-22.259-20.316-24.455l-14.49-2.703l-44.382,0.01l-14.435,2.692
	c-11.777,2.197-20.316,12.475-20.316,24.455v5.57c14.512,14.712,34.672,23.839,56.969,23.839s42.457-9.126,56.969-23.839V368.907z"
	/>
<path style="fill:#FFBC8F;" d="M421.694,280.421L421.694,280.421c-14.982,0-27.128,12.145-27.128,27.128v17.653
	c0,14.982,12.145,27.128,27.128,27.128l0,0c14.982,0,27.128-12.145,27.128-27.128v-17.653
	C448.822,292.566,436.676,280.421,421.694,280.421z"/>
<circle style="fill:#CCDBDD;" cx="255.994" cy="90.034" r="80.025"/>
<path style="fill:#FFC44D;" d="M312.963,139.961c0-11.98-8.538-22.259-20.316-24.455l-14.49-2.703l-44.382,0.01l-14.435,2.692
	c-11.777,2.197-20.316,12.475-20.316,24.455v5.57c14.512,14.712,34.672,23.839,56.969,23.839c22.298,0,42.457-9.126,56.969-23.839
	V139.961z"/>
<path style="fill:#FFBC8F;" d="M255.993,51.475L255.993,51.475c-14.982,0-27.128,12.145-27.128,27.128v17.653
	c0,14.982,12.145,27.128,27.128,27.128l0,0c14.982,0,27.128-12.145,27.128-27.128V78.603
	C283.122,63.621,270.977,51.475,255.993,51.475z"/>
<circle style="fill:#CCDBDD;" cx="90.005" cy="249.734" r="80.025"/>
<path style="fill:#F75857;" d="M146.978,300.349c0-11.98-8.538-22.259-20.316-24.455l-14.49-2.703l-44.382,0.01l-14.435,2.692
	c-11.777,2.197-20.316,12.475-20.316,24.455v5.57c14.512,14.712,34.672,23.839,56.969,23.839s42.457-9.126,56.969-23.839V300.349z"
	/>
<path style="fill:#FFBC8F;" d="M90.009,211.863L90.009,211.863c-14.982,0-27.128,12.145-27.128,27.128v17.653
	c0,14.982,12.145,27.128,27.128,27.128l0,0c14.982,0,27.128-12.145,27.128-27.128v-17.653
	C117.137,224.009,104.991,211.863,90.009,211.863z"/>
<path d="M255.995,160.019c-5.522,0-9.999,4.515-9.999,10.036c0,5.522,4.478,9.999,9.999,9.999s9.999-4.478,9.999-9.999v-0.073
	C265.995,164.46,261.518,160.019,255.995,160.019z"/>
<path d="M449.231,384.512c-5.087,2.15-7.467,8.018-5.315,13.103c2.15,5.086,8.017,7.467,13.103,5.315
	c33.392-14.12,54.967-46.668,54.967-82.92c0-36.862-22.281-68.613-54.079-82.508l9.046-28.413c0.941,0.063,1.887,0.107,2.844,0.107
	c23.158,0,41.997-18.84,41.997-41.997s-18.84-41.997-41.997-41.997c-23.158,0-41.997,18.84-41.997,41.997
	c0,15.139,8.053,28.429,20.099,35.821l-9.098,28.578c-5.448-1.033-11.064-1.581-16.808-1.581c-15.616,0-30.314,4.001-43.128,11.027
	l-61.364-85.32c15.946-14.909,26.114-35.313,28.114-57.61h23.078c4.499,18.344,21.074,31.998,40.785,31.998
	c23.158,0,41.997-18.84,41.997-41.997s-18.84-41.997-41.997-41.997c-19.712,0-36.287,13.654-40.785,31.998h-23.484
	C339.375,34.087,301.595,0,255.998,0c-49.623,0-89.994,40.371-89.994,89.995c0,18.541,5.596,36.349,16.182,51.497
	c0.586,0.839,1.189,1.662,1.8,2.478l-37.708,35.83c-13.011-10.452-28.975-17.368-46.425-19.276l0.327-48.149
	c18.257-4.561,31.824-21.095,31.824-40.744c0-23.158-18.84-41.997-41.997-41.997S48.01,48.473,48.01,71.63
	c0,19.774,13.739,36.388,32.17,40.824l-0.327,48.104c-44.858,5.062-79.838,43.228-79.838,89.418
	c0,18.541,5.596,36.349,16.182,51.497c10.339,14.796,24.675,26.034,41.456,32.503c1.183,0.456,2.398,0.672,3.595,0.672
	c4.015,0,7.803-2.436,9.332-6.406c1.986-5.153-0.581-10.94-5.734-12.927c-8.177-3.152-15.53-7.79-21.81-13.521v-1.165
	c0-7.162,5.11-13.312,12.149-14.626l9.665-1.803c6.62,6.11,15.457,9.851,25.154,9.851s18.535-3.741,25.154-9.85l9.666,1.803
	c7.04,1.313,12.148,7.465,12.148,14.626v1.283c-0.721,0.651-1.455,1.289-2.204,1.911c-0.138,0.101-0.278,0.194-0.412,0.303
	c-0.101,0.082-0.188,0.173-0.285,0.257c-5.027,4.067-10.664,7.489-16.827,10.094c-5.087,2.15-7.467,8.017-5.315,13.103
	c2.149,5.085,8.012,7.467,13.103,5.315c4.894-2.069,9.524-4.545,13.88-7.359l26.553,32.568
	c-16.416,16.312-26.596,38.893-26.596,63.809c0,5.435,0.494,10.804,1.441,16.064H82.888c-4.499-18.344-21.074-31.998-40.785-31.998
	c-23.158,0-41.997,18.84-41.997,41.997s18.84,41.997,41.997,41.997c19.712,0,36.287-13.654,40.785-31.998h63.506
	c2.356,5.378,5.245,10.545,8.66,15.434c10.339,14.796,24.675,26.034,41.456,32.503c1.183,0.456,2.398,0.672,3.595,0.672
	c4.015,0,7.802-2.436,9.332-6.406c1.986-5.153-0.581-10.94-5.734-12.927c-8.177-3.152-15.53-7.789-21.81-13.521v-1.166
	c0-7.162,5.11-13.312,12.149-14.625l9.666-1.803c6.621,6.11,15.457,9.85,25.154,9.85s18.534-3.741,25.154-9.85l9.666,1.803
	c7.04,1.313,12.149,7.464,12.149,14.625v1.283c-5.721,5.17-12.353,9.447-19.729,12.567c-5.087,2.15-7.467,8.017-5.315,13.103
	c2.15,5.086,8.013,7.469,13.103,5.315c23.905-10.108,41.75-29.664,49.963-53.259l69.129,17.891c-0.002,0.18-0.014,0.357-0.014,0.538
	c0,23.158,18.84,41.997,41.997,41.997s41.997-18.84,41.997-41.997s-18.84-41.997-41.997-41.997c-15.962,0-29.871,8.952-36.975,22.1
	l-69.702-18.039c0.376-3.343,0.569-6.731,0.569-10.151c0-12.194-2.443-23.827-6.857-34.443l34.626-18.271
	c0.507,0.774,1.017,1.547,1.548,2.307c10.34,14.796,24.675,26.034,41.456,32.503c1.183,0.456,2.398,0.672,3.595,0.672
	c4.015,0,7.803-2.436,9.332-6.406c1.986-5.153-0.581-10.94-5.734-12.927c-8.177-3.152-15.53-7.79-21.81-13.522v-1.166
	c0-7.162,5.11-13.312,12.149-14.625l9.665-1.803c6.62,6.11,15.457,9.851,25.154,9.851c9.697,0,18.535-3.741,25.154-9.85l9.666,1.803
	c7.04,1.313,12.148,7.464,12.148,14.625v1.283C463.24,377.115,456.607,381.392,449.231,384.512z M469.799,145.202
	c12.13,0,21.999,9.868,21.999,21.999c0,12.13-9.868,21.999-21.999,21.999c-12.13,0-21.999-9.868-21.999-21.999
	C447.8,155.07,457.668,145.202,469.799,145.202z M42.104,469.977c-12.13,0-21.999-9.868-21.999-21.999
	c0-12.13,9.868-21.999,21.999-21.999s21.999,9.868,21.999,21.999C64.103,460.108,54.234,469.977,42.104,469.977z M424.971,448.004
	c12.13,0,21.999,9.868,21.999,21.999c0,12.13-9.868,21.999-21.999,21.999c-12.13,0-21.999-9.868-21.999-21.999
	C402.972,457.872,412.84,448.004,424.971,448.004z M409.477,66.116c12.13,0,21.999,9.868,21.999,21.999s-9.868,21.999-21.999,21.999
	s-21.999-9.868-21.999-21.999S397.347,66.116,409.477,66.116z M255.998,19.999c37.448,0,68.118,29.561,69.908,66.574
	c-0.078,0.504-0.131,1.016-0.131,1.542c0,0.706,0.075,1.394,0.214,2.059c-0.029,11.576-2.89,22.659-8.048,32.461
	c-5.007-8.287-13.387-14.394-23.458-16.272l-2.46-0.459c0.714-2.872,1.1-5.873,1.1-8.962V79.288
	c0-20.473-16.655-37.128-37.128-37.128c-20.472,0-37.127,16.655-37.127,37.128v17.653c0,3.09,0.386,6.091,1.101,8.962l-2.46,0.459
	c-10.028,1.87-18.38,7.931-23.394,16.164c-5.207-9.865-8.112-20.997-8.112-32.532C186.003,51.399,217.404,19.999,255.998,19.999z
	 M238.868,96.941V79.288c0-9.444,7.684-17.129,17.128-17.129c9.444,0,17.129,7.685,17.129,17.129v17.653
	c0,9.444-7.685,17.129-17.129,17.129C246.551,114.07,238.868,106.386,238.868,96.941z M68.008,71.63
	c0-12.13,9.868-21.999,21.999-21.999s21.999,9.868,21.999,21.999s-9.868,21.999-21.999,21.999S68.008,83.761,68.008,71.63z
	 M90.006,274.052c-9.444,0-17.129-7.685-17.129-17.129v-17.653c0-9.444,7.685-17.129,17.129-17.129s17.129,7.685,17.129,17.129
	v17.653C107.135,266.369,99.452,274.052,90.006,274.052z M128.493,266.344l-2.459-0.459c0.714-2.872,1.1-5.872,1.1-8.961v-17.653
	c0-20.473-16.655-37.128-37.128-37.128s-37.128,16.655-37.128,37.128v17.653c0,3.09,0.386,6.09,1.1,8.961l-2.458,0.458
	c-10.028,1.87-18.38,7.931-23.394,16.164c-5.207-9.865-8.112-20.997-8.112-32.531c0-38.596,31.399-69.995,69.994-69.995
	c38.597,0,69.996,31.4,69.996,69.995c0,1.65-0.063,3.288-0.176,4.916c-0.017,0.156-0.022,0.316-0.032,0.474
	c-0.74,9.685-3.465,18.929-7.844,27.249C146.945,274.329,138.566,268.222,128.493,266.344z M228.865,445.989
	c-9.444,0-17.129-7.683-17.129-17.128v-17.653c0-9.444,7.684-17.129,17.129-17.129s17.129,7.685,17.129,17.129v17.653
	C245.994,438.306,238.311,445.989,228.865,445.989z M267.353,438.282l-2.459-0.459c0.714-2.872,1.1-5.872,1.1-8.961v-17.653
	c0-20.473-16.655-37.128-37.128-37.128s-37.128,16.655-37.128,37.128v17.653c0,3.09,0.386,6.09,1.1,8.961l-2.458,0.458
	c-10.028,1.87-18.38,7.931-23.394,16.164c-5.207-9.865-8.112-20.997-8.112-32.531c0-38.595,31.399-69.995,69.994-69.995
	c38.597,0,69.997,31.4,69.997,69.995c0,11.64-2.867,22.787-8.052,32.639C285.805,446.266,277.424,440.16,267.353,438.282z
	 M302.318,369.97c-16.318-23.007-43.16-38.05-73.451-38.05c-17.526,0-33.894,5.041-47.74,13.741l-26.724-32.777
	c12.467-12.754,20.96-29.045,24.166-46.895h21.629c1.798,7.395,5.586,14.179,11.104,19.696c7.932,7.933,18.478,12.302,29.696,12.302
	c11.218,0,21.765-4.369,29.695-12.301c7.934-7.932,12.302-18.478,12.302-29.696c0-11.218-4.369-21.765-12.301-29.695
	c-7.932-7.933-18.478-12.302-29.696-12.302c-11.218,0-21.765,4.369-29.695,12.301c-5.519,5.518-9.307,12.302-11.105,19.697h-20.289
	c-0.859-19.612-8.023-37.613-19.514-52.023l37.277-35.42c7.677,6.542,16.425,11.766,25.968,15.445
	c1.183,0.456,2.398,0.672,3.595,0.672c4.015,0,7.802-2.436,9.332-6.406c1.986-5.153-0.581-10.94-5.734-12.927
	c-8.176-3.152-15.529-7.789-21.809-13.521v-1.167c0-7.162,5.109-13.312,12.148-14.625l9.666-1.803
	c6.62,6.11,15.457,9.85,25.153,9.85c9.697,0,18.534-3.741,25.154-9.85l9.666,1.803c7.04,1.313,12.148,7.464,12.148,14.625v1.283
	c-1.472,1.33-3.007,2.597-4.597,3.804c-0.084,0.057-0.171,0.104-0.253,0.163c-0.164,0.118-0.314,0.248-0.469,0.374
	c-4.398,3.251-9.216,6.029-14.409,8.224c-5.087,2.15-7.467,8.018-5.315,13.103c2.149,5.086,8.018,7.469,13.103,5.315
	c3.625-1.533,7.101-3.295,10.434-5.243l61.044,84.875c-18.693,16.503-30.505,40.628-30.505,67.466
	c0,10.824,1.921,21.394,5.615,31.335L302.318,369.97z M219.001,255.99c0-5.876,2.289-11.399,6.444-15.556
	c4.155-4.154,9.679-6.443,15.555-6.443s11.399,2.289,15.555,6.443c0,0.001,0,0.001,0,0.001c4.155,4.155,6.444,9.679,6.444,15.555
	c0,5.876-2.289,11.399-6.444,15.556c-4.155,4.154-9.679,6.443-15.555,6.443s-11.399-2.289-15.556-6.444
	C221.29,267.39,219.001,261.866,219.001,255.99z M421.99,344.087c-9.444,0-17.129-7.685-17.129-17.129v-17.653
	c0-9.444,7.684-17.129,17.129-17.129c9.444,0,17.129,7.684,17.129,17.129v17.653C439.119,336.403,431.434,344.087,421.99,344.087z
	 M460.476,336.378l-2.459-0.459c0.714-2.872,1.1-5.872,1.1-8.961v-17.653c0-20.473-16.655-37.128-37.128-37.128
	c-20.473,0-37.128,16.655-37.128,37.128v17.653c0,3.09,0.386,6.09,1.1,8.961l-2.458,0.458c-10.028,1.87-18.38,7.931-23.395,16.164
	c-5.207-9.865-8.112-20.997-8.112-32.531c0-38.596,31.4-69.995,69.996-69.995s69.995,31.4,69.995,69.995
	c0,11.64-2.867,22.787-8.052,32.639C478.929,344.364,470.55,338.256,460.476,336.378z"/>
<path d="M411.99,400.072c0,5.522,4.478,9.999,9.999,9.999c5.522,0,9.999-4.478,9.999-9.999v-0.073c0-5.522-4.478-9.963-9.999-9.963
	C416.468,390.036,411.99,394.55,411.99,400.072z"/>
<path d="M228.865,491.939c-5.522,0-9.999,4.514-9.999,10.035s4.478,9.999,9.999,9.999c5.522,0,9.999-4.478,9.999-9.999v-0.073
	C238.865,496.379,234.388,491.939,228.865,491.939z"/>
<path d="M100.006,330.038v-0.073c0-5.522-4.478-9.963-9.999-9.963c-5.522,0-9.999,4.515-9.999,10.036
	c0,5.522,4.478,9.999,9.999,9.999C95.528,340.037,100.006,335.559,100.006,330.038z"/>
<g>
</g>
<g>
</g>
<g>
</g>
<g>
</g>
<g>
</g>
<g>
</g>
<g>
</g>
<g>
</g>
<g>
</g>
<g>
</g>
<g>
</g>
<g>
</g>
<g>
</g>
<g>
</g>
<g>
</g>
</svg>
