<svg id="Layer_1_1_" enable-background="new 0 0 64 64" height="512" viewBox="0 0 64 64" width="512" xmlns="http://www.w3.org/2000/svg"><path d="m26 22h12v20h-12z" fill="#a8a8a8"/><path d="m18 27h8v15h-8z" fill="#999"/><path d="m38 27h8v15h-8z" fill="#999"/><path d="m32 38c-13.062 0-24.175 8.348-28.293 20h56.586c-4.118-11.652-15.231-20-28.293-20z" fill="#a7dbfc"/><path d="m51.965 45.635c-4.005 5.999-10.113 10.471-17.272 12.365h25.6c-1.699-4.807-4.602-9.037-8.328-12.365z" fill="#90d2fc"/><path d="m34 18h-4c-1.105 0-2 .895-2 2v2h8v-2c0-1.105-.895-2-2-2z" fill="#dbdbdb"/><path d="m30 34h4v4h-4z" fill="#eaeaea"/><path d="m40 47 3-2 3 1 4.712-.942c-3.104-2.682-6.78-4.713-10.823-5.891l-1.889 2.833h-2l-2 2 2 3z" fill="#63bc94"/><path d="m12 46h5l2 1h3l3-2-1-3-2-2h-.823c-3.52 1.382-6.699 3.437-9.392 6z" fill="#63bc94"/><path d="m32 63v-2c0-2.209-1.791-4-4-4h-2c-2.209 0-4 1.791-4 4v2" fill="#eaeaea"/><path d="m22 63v-2c0-2.209-1.791-4-4-4h-2c-2.209 0-4 1.791-4 4v2" fill="#a8a8a8"/><path d="m12 63v-2c0-2.209-1.791-4-4-4h-2c-2.209 0-4 1.791-4 4v2" fill="#eaeaea"/><path d="m42 63v-2c0-2.209-1.791-4-4-4h-2c-2.209 0-4 1.791-4 4v2" fill="#a8a8a8"/><path d="m52 63v-2c0-2.209-1.791-4-4-4h-2c-2.209 0-4 1.791-4 4v2" fill="#eaeaea"/><path d="m62 63v-2c0-2.209-1.791-4-4-4h-2c-2.209 0-4 1.791-4 4v2" fill="#a8a8a8"/><g fill="#ffd6a8"><circle cx="27" cy="54" r="3"/><circle cx="17" cy="54" r="3"/><circle cx="7" cy="54" r="3"/><circle cx="37" cy="54" r="3"/><circle cx="47" cy="54" r="3"/><circle cx="57" cy="54" r="3"/></g><path d="m52.804 13.804c-2.734 2.734-8.485 1.414-8.485 1.414s-1.319-5.752 1.414-8.485 8.485-1.414 8.485-1.414 1.319 5.751-1.414 8.485z" fill="#63bc94"/><path d="m7.733 18.267c-2.734-2.734-1.414-8.485-1.414-8.485s5.752-1.319 8.485 1.414 1.414 8.485 1.414 8.485-5.752 1.32-8.485-1.414z" fill="#63bc94"/><path d="m43.344 15.441c.085.374.377.666.751.751.121.028 1.538.343 3.326.343 1.998 0 4.459-.394 6.09-2.025 3.089-3.09 1.741-9.159 1.682-9.416-.085-.374-.377-.666-.751-.751-.255-.059-6.326-1.407-9.416 1.682-3.09 3.09-1.741 9.16-1.682 9.416zm8.753-2.344c-1.519 1.518-4.277 1.535-6.009 1.369l7.435-6.692c.08 1.803-.159 4.055-1.426 5.323zm-5.658-5.658c1.514-1.513 4.257-1.535 5.99-1.371l-7.417 6.675c-.077-1.799.164-4.04 1.427-5.304z"/><path d="m60.11 56.484c.548-.685.89-1.541.89-2.484 0-2.206-1.794-4-4-4-.167 0-.327.029-.489.049-2.528-3.685-5.784-6.694-9.511-8.891v-14.158c0-.552-.448-1-1-1h-7v-4c0-.552-.448-1-1-1h-1v-1c0-1.654-1.346-3-3-3h-1v-2h-2v2h-1c-1.654 0-3 1.346-3 3v1h-1c-.552 0-1 .448-1 1v4h-7c-.552 0-1 .448-1 1v13.894c-3.904 2.209-7.314 5.298-9.941 9.112-.02 0-.039-.006-.059-.006-2.206 0-4 1.794-4 4 0 .943.342 1.799.89 2.484-1.702.799-2.89 2.516-2.89 4.516v2h2v-2c0-1.654 1.346-3 3-3h2c1.654 0 3 1.346 3 3v2h2v-2c0-1.654 1.346-3 3-3h2c1.654 0 3 1.346 3 3v2h2v-2c0-1.654 1.346-3 3-3h2c1.654 0 3 1.346 3 3v2h2v-2c0-1.654 1.346-3 3-3h2c1.654 0 3 1.346 3 3v2h2v-2c0-1.654 1.346-3 3-3h2c1.654 0 3 1.346 3 3v2h2v-2c0-1.654 1.346-3 3-3h2c1.654 0 3 1.346 3 3v2h2v-2c0-2-1.188-3.717-2.89-4.516zm-21.11-28.484h6v12.079c-1.91-.938-3.917-1.681-6-2.196zm-.168 14.555 1.484-2.225c2.917.932 5.65 2.346 8.107 4.166l-2.358.472-2.748-.916c-.292-.096-.614-.055-.871.117l-2.749 1.831h-3.162l-1.249-1.873 1.128-1.127h1.586c.334 0 .646-.167.832-.445zm-9.832-22.555c0-.551.449-1 1-1h4c.551 0 1 .449 1 1v1h-6zm-2 3h10v14.465c-.661-.116-1.328-.208-2-.28v-3.185c0-.552-.448-1-1-1h-4c-.552 0-1 .448-1 1v3.142c-.672.062-1.338.146-2 .252zm6 12v2.038c-.409-.016-.818-.038-1.229-.038-.258 0-.513.017-.771.024v-2.024zm-14-7h6v9.782c-2.077.48-4.088 1.17-6 2.07zm2.524 12.938 1.602 1.602.684 2.052-2.113 1.408h-2.461l-1.789-.895c-.138-.069-.292-.105-.447-.105h-2.548c2.15-1.694 4.531-3.064 7.072-4.062zm-14.524 15.062c-1.103 0-2-.897-2-2s.897-2 2-2 2 .897 2 2-.897 2-2 2zm10 0c-1.103 0-2-.897-2-2s.897-2 2-2 2 .897 2 2-.897 2-2 2zm10 0c-1.103 0-2-.897-2-2s.897-2 2-2 2 .897 2 2-.897 2-2 2zm10 0c-1.103 0-2-.897-2-2s.897-2 2-2 2 .897 2 2-.897 2-2 2zm10 0c-1.103 0-2-.897-2-2s.897-2 2-2 2 .897 2 2-.897 2-2 2zm6-2c0 .943.342 1.799.89 2.484-.752.353-1.398.887-1.89 1.547-.492-.66-1.137-1.194-1.89-1.547.548-.685.89-1.541.89-2.484 0-2.206-1.794-4-4-4s-4 1.794-4 4c0 .943.342 1.799.89 2.484-.752.353-1.398.887-1.89 1.547-.492-.66-1.137-1.194-1.89-1.547.548-.685.89-1.541.89-2.484 0-2.206-1.794-4-4-4s-4 1.794-4 4c0 .943.342 1.799.89 2.484-.752.353-1.398.887-1.89 1.547-.492-.66-1.137-1.194-1.89-1.547.548-.685.89-1.541.89-2.484 0-2.206-1.794-4-4-4s-4 1.794-4 4c0 .943.342 1.799.89 2.484-.752.353-1.398.887-1.89 1.547-.492-.66-1.137-1.194-1.89-1.547.548-.685.89-1.541.89-2.484 0-2.206-1.794-4-4-4s-4 1.794-4 4c0 .943.342 1.799.89 2.484-.752.353-1.398.887-1.89 1.547-.492-.66-1.137-1.194-1.89-1.547.548-.685.89-1.541.89-2.484 0-1.439-.771-2.692-1.914-3.397.939-1.298 1.977-2.501 3.102-3.603h4.577l1.789.895c.137.069.291.105.446.105h3c.197 0 .391-.059.555-.168l3-2c.375-.25.537-.72.394-1.148l-1-3c-.049-.147-.132-.281-.242-.391l-1.079-1.079c2.605-.79 5.342-1.214 8.143-1.214 2.223 0 4.404.27 6.513.773l-.819 1.227h-1.465c-.265 0-.52.105-.707.293l-2 2c-.337.337-.39.865-.125 1.262l2 3c.186.278.498.445.832.445h4c.197 0 .391-.059.555-.168l2.593-1.729 2.536.845c.165.055.342.065.513.032l4.241-.848c1.545 1.384 2.941 2.953 4.169 4.683-.97.732-1.607 1.881-1.607 3.185zm4 2c-1.103 0-2-.897-2-2s.897-2 2-2 2 .897 2 2-.897 2-2 2z"/><path d="m29 25h6v2h-6z"/><path d="m29 29h6v2h-6z"/><path d="m21 30h2v2h-2z"/><path d="m21 34h2v2h-2z"/><path d="m41 30h2v2h-2z"/><path d="m41 34h2v2h-2z"/><path d="m13.116 21c1.787 0 3.205-.315 3.326-.343.374-.085.666-.377.751-.751.059-.257 1.408-6.326-1.682-9.416-3.089-3.09-9.16-1.741-9.416-1.682-.374.085-.666.377-.751.751-.059.257-1.408 6.326 1.682 9.416 1.63 1.63 4.091 2.025 6.09 2.025zm.981-9.097c1.327 1.327 1.506 3.605 1.42 5.315l-7.427-6.691c1.877-.173 4.57-.06 6.007 1.376zm-7.078.352 7.418 6.683c-1.877.171-4.563.057-5.997-1.377-1.325-1.325-1.506-3.597-1.421-5.306z"/><path d="m8.362 21.827c-.24 1.367-.362 2.771-.362 4.173 0 5.337 1.714 10.389 4.958 14.609l1.586-1.219c-2.973-3.868-4.544-8.498-4.544-13.39 0-1.286.111-2.574.332-3.827z"/><path d="m50.194 41.652c3.744-4.347 5.806-9.906 5.806-15.652 0-3.259-.642-6.418-1.908-9.392l-1.84.783c1.16 2.725 1.748 5.621 1.748 8.609 0 5.267-1.89 10.362-5.322 14.348z"/><path d="m32 4c3.677 0 7.315.925 10.521 2.674l.958-1.756c-3.499-1.909-7.468-2.918-11.479-2.918-5.997 0-11.737 2.224-16.166 6.261l1.348 1.478c4.059-3.701 9.321-5.739 14.818-5.739z"/></svg>