<svg id="Layer_1" enable-background="new 0 0 512 512" viewBox="0 0 512 512" xmlns="http://www.w3.org/2000/svg"><g clip-rule="evenodd" fill-rule="evenodd"><g><g><path d="m472.396 127.508c16.902 0 30.604 13.701 30.604 30.604 0 16.902-13.702 30.604-30.604 30.604s-30.604-13.702-30.604-30.604c.001-16.903 13.702-30.604 30.604-30.604zm-432.793 0c16.902 0 30.604 13.701 30.604 30.604 0 16.902-13.701 30.604-30.604 30.604-16.902-.001-30.603-13.702-30.603-30.605 0-16.902 13.701-30.603 30.603-30.603zm216.397-118.508c16.902 0 30.604 13.702 30.604 30.604s-13.702 30.604-30.604 30.604-30.604-13.701-30.604-30.604c0-16.902 13.702-30.604 30.604-30.604z" fill="#64b5f6"/><path d="m472.396 127.508c10.867 0 20.41 5.665 25.84 14.201-4.592-2.752-9.964-4.335-15.707-4.335-16.902 0-30.604 13.702-30.604 30.604 0 6.035 1.748 11.661 4.763 16.402-8.923-5.347-14.897-15.11-14.897-26.269.002-16.902 13.703-30.603 30.605-30.603zm-432.793 0c10.867 0 20.41 5.665 25.84 14.201-4.592-2.752-9.964-4.335-15.707-4.335-16.902 0-30.604 13.702-30.604 30.604 0 6.035 1.748 11.661 4.763 16.402-8.922-5.346-14.895-15.109-14.895-26.269 0-16.902 13.701-30.603 30.603-30.603zm216.397-118.508c10.867 0 20.41 5.665 25.84 14.201-4.592-2.752-9.964-4.335-15.707-4.335-16.902 0-30.604 13.701-30.604 30.604 0 6.035 1.748 11.661 4.763 16.402-8.923-5.347-14.897-15.11-14.897-26.269.001-16.901 13.703-30.603 30.605-30.603z" fill="#42a5f5"/></g><g><path d="m9.02 466.322c3.92-52.252 47.9-93.792 101.111-93.792s97.19 41.54 101.11 93.792c.31 4.128-2.914 7.602-7.053 7.602h-188.114c-4.14 0-7.363-3.473-7.054-7.602z" fill="#64b5f6"/><path d="m98.816 373.169c3.717-.418 7.491-.639 11.314-.639 53.211 0 97.19 41.54 101.11 93.792.31 4.128-2.914 7.602-7.053 7.602h-22.629c4.14 0 7.363-3.474 7.053-7.602-3.637-48.497-41.786-87.76-89.795-93.153z" fill="#42a5f5"/><circle cx="110.131" cy="312.437" fill="#ffd6bd" r="54.8"/><path d="m68.576 348.161c10.05 11.68 24.938 19.077 41.555 19.077 30.265 0 54.801-24.535 54.801-54.801 0-19.437-10.121-36.51-25.379-46.239 8.254 9.593 13.245 22.075 13.245 35.723 0 30.266-24.535 54.801-54.801 54.801-10.828 0-20.921-3.141-29.421-8.561z" fill="#f9c6aa"/></g><g><path d="m300.758 466.322c3.92-52.252 47.9-93.792 101.111-93.792s97.19 41.54 101.11 93.792c.31 4.128-2.914 7.602-7.053 7.602h-188.115c-4.139 0-7.363-3.473-7.053-7.602z" fill="#ffda2d"/><path d="m390.554 373.169c3.717-.418 7.491-.639 11.315-.639 53.211 0 97.19 41.54 101.11 93.792.31 4.128-2.914 7.602-7.053 7.602h-22.629c4.14 0 7.363-3.474 7.053-7.602-3.639-48.497-41.788-87.76-89.796-93.153z" fill="#ffc700"/><circle cx="401.868" cy="312.437" fill="#ffd6bd" r="54.8"/><path d="m360.313 348.161c10.05 11.68 24.938 19.077 41.555 19.077 30.266 0 54.801-24.535 54.801-54.801 0-19.437-10.121-36.51-25.379-46.239 8.254 9.593 13.245 22.075 13.245 35.723 0 30.266-24.535 54.801-54.801 54.801-10.828 0-20.921-3.141-29.421-8.561z" fill="#f9c6aa"/></g><g><path d="m140.952 494.35c4.46-59.455 54.502-106.721 115.048-106.721s110.587 47.266 115.047 106.721c.353 4.697-3.315 8.65-8.026 8.65h-214.043c-4.71 0-8.378-3.952-8.026-8.65z" fill="#72d561"/><path d="m243.126 388.356c4.229-.475 8.523-.727 12.874-.727 60.545 0 110.587 47.266 115.047 106.721.353 4.697-3.315 8.65-8.026 8.65h-25.748c4.71 0 8.378-3.953 8.025-8.65-4.139-55.182-47.547-99.857-102.172-105.994z" fill="#3cbe52"/><circle cx="256" cy="319.254" fill="#ffd6bd" r="62.354"/><path d="m208.717 359.902c11.435 13.29 28.375 21.707 47.282 21.707 34.437 0 62.354-27.917 62.354-62.354 0-22.116-11.516-41.542-28.877-52.612 9.392 10.916 15.071 25.118 15.071 40.647 0 34.437-27.917 62.354-62.354 62.354-12.32-.001-23.805-3.576-33.476-9.742z" fill="#f9c6aa"/></g><g><path d="m237.959 166.021-17.631-.001c-3.899.002-6.286-4.492-3.791-7.72l35.672-46.163c1.921-2.485 5.662-2.485 7.582 0l35.673 46.162c2.495 3.229.107 7.723-3.794 7.721h-17.63v62.796c0 2.434-1.985 4.42-4.42 4.42l-27.241-.001c-2.434 0-4.42-1.985-4.42-4.419z" fill="#72d561"/><path d="m274.039 166.02v62.796c0 2.434-1.985 4.42-4.42 4.42h-10.532c2.43-.006 4.409-1.989 4.409-4.42v-62.796zm-23.311-51.967 34.192 44.246c2.495 3.229.107 7.723-3.794 7.721h10.543c3.901.002 6.289-4.492 3.794-7.721l-35.673-46.162c-1.92-2.485-5.661-2.485-7.582 0z" fill="#3cbe52"/></g><g><path d="m362.999 181.564-13.299-.001c-2.941.001-4.742-3.388-2.859-5.823l26.906-34.82c1.449-1.874 4.271-1.874 5.719 0l26.907 34.819c1.882 2.436.081 5.825-2.862 5.824h-13.298v47.366c0 1.836-1.498 3.334-3.334 3.334h-20.547c-1.836 0-3.334-1.497-3.334-3.333v-47.366z" fill="#ffda2d"/><path d="m390.213 181.563v47.366c0 1.836-1.498 3.334-3.334 3.334h-7.944c1.833-.005 3.326-1.5 3.326-3.334v-47.366zm-17.583-39.197 25.79 33.374c1.882 2.436.081 5.825-2.862 5.824h7.952c2.942.002 4.743-3.388 2.862-5.824l-26.907-34.819c-1.448-1.874-4.27-1.874-5.719 0z" fill="#ffc700"/></g><g><path d="m121.786 181.564-13.299-.001c-2.941.001-4.742-3.388-2.86-5.823l26.907-34.82c1.449-1.874 4.271-1.874 5.719 0l26.907 34.819c1.882 2.436.081 5.825-2.862 5.824h-13.298v47.366c0 1.836-1.497 3.334-3.334 3.334h-20.547c-1.836 0-3.334-1.497-3.334-3.333v-47.366z" fill="#64b5f6"/><path d="m149.001 181.563v47.366c0 1.836-1.497 3.334-3.334 3.334h-7.944c1.833-.005 3.326-1.5 3.326-3.334v-47.366zm-17.584-39.197 25.79 33.374c1.882 2.436.081 5.825-2.862 5.824h7.952c2.942.002 4.743-3.388 2.862-5.824l-26.907-34.819c-1.448-1.874-4.27-1.874-5.719 0z" fill="#42a5f5"/></g></g><path d="m376.601 150.302 17.979 23.261h-4.372c-2.117 0-4.16.84-5.66 2.339-1.5 1.5-2.339 3.537-2.339 5.66v42.698h-11.22v-42.698c0-4.419-3.58-7.999-7.989-7.999h-4.368zm-26.911 39.26h.009 5.292v39.368c0 6.249 5.089 11.329 11.338 11.329h20.554c6.249 0 11.324-5.079 11.324-11.329v-39.368h5.292.009c4.462 0 8.461-2.495 10.442-6.509 1.962-3.995 1.481-8.674-1.25-12.206l-26.912-34.821c-2.207-2.867-5.561-4.514-9.178-4.514-.009 0-.009 0-.009 0-3.622 0-6.971 1.646-9.192 4.514l-26.898 34.821c-2.74 3.533-3.212 8.211-1.25 12.206 1.972 4.014 5.971 6.509 10.429 6.509zm-214.301-39.26 17.97 23.261h-4.358c-4.419 0-7.999 3.58-7.999 7.999v42.698h-11.22v-42.698c0-4.419-3.58-7.999-7.999-7.999h-4.363zm-21.61 78.628c0 6.249 5.094 11.329 11.343 11.329h20.54c6.249 0 11.338-5.079 11.338-11.329v-39.368h5.292.009c4.457 0 8.457-2.495 10.428-6.509 1.971-3.995 1.49-8.674-1.236-12.206l-26.912-34.821c-2.221-2.867-5.561-4.514-9.193-4.514-3.617 0-6.966 1.646-9.187 4.514l-26.911 34.821c-2.731 3.533-3.212 8.211-1.24 12.206 1.971 4.014 5.971 6.509 10.433 6.509h5.297v39.368zm142.223-108.619 29.129 37.708h-11.088c-4.424 0-8.004 3.58-8.004 7.999v59.21h-20.078v-59.21c0-4.419-3.58-7.999-7.999-7.999h-11.102zm-35.679 53.705h.009 9.626v54.796c0 6.843 5.57 12.418 12.423 12.418h27.237c6.839 0 12.423-5.575 12.423-12.418v-54.796h9.617.01c4.924 0 9.324-2.75 11.494-7.174 2.16-4.396 1.636-9.546-1.373-13.437l-35.67-46.165c-2.438-3.16-6.127-4.971-10.117-4.971-3.995 0-7.683 1.811-10.131 4.971l-35.67 46.165c-3 3.891-3.528 9.041-1.373 13.437 2.175 4.425 6.585 7.174 11.495 7.174zm153.307 291.905c-7.178-22.601-20.71-42.363-38.411-57.253 17.569-17.97 41.439-28.138 66.643-28.138 48.259 0 88.938 37.43 93.06 85.391zm-224.7 29.067 214.093.009c-4.132-55.739-51.164-99.37-107.021-99.37-55.861 0-102.893 43.632-107.072 99.323zm-131.857-29.067c4.117-47.961 44.797-85.391 93.055-85.391 25.2 0 49.074 10.169 66.643 28.138-17.701 14.89-31.232 34.652-38.411 57.253zm46.259-153.482c0-25.808 20.988-46.806 46.797-46.806 25.804 0 46.801 20.998 46.801 46.806 0 25.799-20.998 46.801-46.801 46.801-25.809 0-46.797-21.002-46.797-46.801zm192.67 61.167c-29.982 0-54.361-24.379-54.361-54.348 0-29.968 24.379-54.357 54.361-54.357 29.968 0 54.348 24.388 54.348 54.357s-24.38 54.348-54.348 54.348zm-194.113-184.006 27.411 63.6c6.518-2.301 13.532-3.565 20.828-3.565 34.632 0 62.804 28.171 62.804 62.804 0 24.342-13.942 45.48-34.241 55.899 19.361 5.263 37.038 15.824 51.07 30.77 11.239-7.207 23.691-12.65 36.93-15.918-24.2-11.131-41.047-35.6-41.047-63.931 0-38.797 31.558-70.36 70.359-70.36 38.788 0 70.35 31.562 70.35 70.36 0 28.332-16.852 52.801-41.052 63.931 13.239 3.268 25.69 8.711 36.929 15.918 14.041-14.947 31.709-25.507 51.07-30.77-20.299-10.419-34.241-31.557-34.241-55.899 0-34.633 28.181-62.804 62.804-62.804 7.296 0 14.31 1.264 20.828 3.565l27.421-63.601c-9.871-6.999-16.319-18.503-16.319-31.492 0-3.863.576-7.593 1.637-11.121l-150.18-82.24c-7.079 8.23-17.569 13.461-29.247 13.461-11.692 0-22.181-5.23-29.26-13.461l-150.181 82.24c1.071 3.528 1.637 7.259 1.637 11.121-.001 12.99-6.448 24.493-16.31 31.493zm-44.887-31.492c0-12.461 10.14-22.601 22.596-22.601 12.461 0 22.601 10.14 22.601 22.601 0 12.465-10.14 22.606-22.601 22.606-12.456 0-22.596-10.141-22.596-22.606zm239-141.111c12.456 0 22.596 10.14 22.596 22.606 0 12.461-10.14 22.601-22.596 22.601-12.47 0-22.61-10.14-22.61-22.601 0-12.465 10.14-22.606 22.61-22.606zm216.39 118.51c12.47 0 22.606 10.14 22.606 22.601 0 12.465-10.135 22.606-22.606 22.606-12.461 0-22.601-10.14-22.601-22.606 0-12.461 10.14-22.601 22.601-22.601zm-23.724 176.932c0 25.799-20.998 46.801-46.806 46.801-25.803 0-46.801-21.002-46.801-46.801 0-25.808 20.998-46.806 46.801-46.806 25.809 0 46.806 20.998 46.806 46.806zm-18.266 55.908c20.318-10.409 34.27-31.557 34.27-55.909 0-21.62-10.989-40.726-27.671-52.027l27.789-64.455c2.462.495 5 .759 7.603.759 21.29 0 38.609-17.318 38.609-38.608 0-21.285-17.319-38.604-38.609-38.604-11.692 0-22.172 5.23-29.251 13.465l-150.182-82.243c1.061-3.523 1.641-7.259 1.641-11.121 0-21.285-17.319-38.604-38.599-38.604-21.294 0-38.613 17.319-38.613 38.604 0 3.863.58 7.593 1.641 11.121l-150.171 82.244c-7.089-8.235-17.569-13.465-29.261-13.465-21.29 0-38.599 17.319-38.599 38.604 0 21.29 17.309 38.608 38.599 38.608 2.604 0 5.141-.264 7.603-.759l27.789 64.455c-16.682 11.301-27.657 30.407-27.657 52.027 0 24.351 13.937 45.5 34.256 55.909-43.641 11.923-77.029 50.442-80.547 97.37-.311 4.179 1.127 8.344 3.971 11.39 2.835 3.061 6.867 4.811 11.055 4.811h118.373c-.679 3.891-1.17 7.829-1.471 11.829-.33 4.452 1.212 8.872 4.231 12.131 3.018 3.25 7.31 5.122 11.782 5.122h214.041c4.457 0 8.749-1.873 11.767-5.122 3.019-3.259 4.561-7.678 4.231-12.131-.302-3.999-.788-7.938-1.472-11.829h118.373c4.188 0 8.216-1.75 11.06-4.811 2.839-3.061 4.287-7.211 3.967-11.39-3.52-46.928-36.907-85.447-80.548-97.371z"/></g></svg>