<svg id="_x33_0" enable-background="new 0 0 62 62" height="512" viewBox="0 0 62 62" width="512" xmlns="http://www.w3.org/2000/svg"><g><g><g><path d="m53 41v5c0 .55-.45 1-1 1h-2c-.55 0-1-.45-1-1v-4.35-.65z" fill="#969faa"/></g><g><path d="m53 33v8h-4-2c-1.1 0-2-.9-2-2v-4c0-1.1.9-2 2-2h5.64z" fill="#ff826e"/></g><g><path d="m61 32.72v8.56c0 .95-.77 1.72-1.72 1.72-.19 0-.37-.03-.54-.09l-5.74-1.91v-8l5.74-1.91c.17-.06.35-.09.54-.09.95 0 1.72.77 1.72 1.72z" fill="#e6e9ed"/></g><g><path d="m61 12v6c0 .55-.45 1-1 1h-3v2.59c0 .78-.63 1.41-1.41 1.41-.38 0-.74-.15-1-.41l-3.59-3.59h-.4-4.6c-.55 0-1-.45-1-1v-5.97-.03c0-.55.45-1 1-1h14c.55 0 1 .45 1 1z" fill="#e6e9ed"/></g><g><path d="m16.56 12.4c.29.81.44 1.69.44 2.6 0 4.14-3.14 7.54-7.16 7.96-.28.03-.56.04-.84.04-4.42 0-8-3.58-8-8s3.58-8 8-8c3.51 0 6.49 2.26 7.56 5.4z" fill="#e6e9ed"/></g><g><path d="m12 15-5 3v-6z" fill="#ff826e"/></g><g><path d="m10 36 4.71 4.71c-.19.18-.43.29-.71.29h-1.44-10.56c-.28 0-.52-.11-.71-.29l4.71-4.71.29.29c.46.46 1.07.71 1.71.71s1.25-.25 1.71-.71z" fill="#d3a06c"/></g><g><path d="m15 32v8c0 .28-.11.52-.29.71l-4.71-4.71 4.71-4.71c.18.19.29.43.29.71z" fill="#dfb28b"/></g><g><path d="m6 36-4.71 4.71c-.18-.19-.29-.43-.29-.71v-8c0-.28.11-.52.29-.71z" fill="#dfb28b"/></g><g><path d="m14.71 31.29-4.71 4.71-.29.29c-.46.46-1.07.71-1.71.71s-1.25-.25-1.71-.71l-.29-.29-4.71-4.71c.19-.18.43-.29.71-.29h7.09 4.91c.28 0 .52.11.71.29z" fill="#cf9e76"/></g><g><path d="m15.92 45.01 4.08-.01v14 .03h-19v-14z" fill="#fcd770"/></g><g><path d="m38.06 10.32c-.54.17-.98.58-1.2 1.11-.22.52-.2 1.12.05 1.63l.45.89-1.41 1.41-.89-.45c-.27-.13-.57-.2-.87-.2-.26 0-.52.05-.76.15-.53.22-.94.66-1.11 1.2l-.31.94h-1.01-1.01l-.31-.94c-.17-.54-.58-.98-1.11-1.2-.52-.22-1.12-.2-1.63.05l-.89.45-1.41-1.41.45-.89c.13-.27.2-.57.2-.87 0-.26-.05-.52-.15-.76-.22-.53-.66-.94-1.2-1.11l-.94-.31v-1.51-.51l.94-.31c.54-.17.98-.58 1.2-1.11.22-.52.2-1.12-.05-1.63l-.45-.89 1.41-1.41.89.45c.27.13.57.2.87.2.26 0 .52-.05.76-.15.53-.22.94-.66 1.11-1.2l.31-.94h2.02l.31.94c.17.54.58.98 1.11 1.2.52.22 1.12.2 1.63-.05l.89-.45 1.41 1.41-.45.89c-.13.27-.2.57-.2.87 0 .26.05.52.15.76.22.53.66.94 1.2 1.11l.94.31v.51 1.51zm-5.06-1.32c0-1.1-.9-2-2-2s-2 .9-2 2 .9 2 2 2 2-.9 2-2z" fill="#fcd770"/></g><g><path d="m40.96 48.62c.03.12.04.25.04.38 0 .55-.22 1.05-.59 1.41-.36.37-.86.59-1.41.59l-6 .03v-4l6-.03c.97 0 1.78.7 1.96 1.62z" fill="#f0d0b4"/></g><g><path d="m37.18 55.01-4.18.02v-4l6-.03c1.1 0 2 .9 2 2 0 .55-.22 1.05-.59 1.41-.36.37-.86.59-1.41.59l-1.8.01s-.01 0-.02 0z" fill="#f0d0b4"/></g><g><path d="m37.2 55.01c1.01.1 1.8.96 1.8 1.99 0 .55-.22 1.05-.59 1.41-.36.37-.86.59-1.41.59h-4v-3.97l4.18-.02z" fill="#f0d0b4"/></g><g><path d="m34 45c1.31 0 2.42-.83 2.82-2h.01 2.17c.55 0 1.05.22 1.41.59.37.36.59.86.59 1.41 0 1.1-.9 2-2 2l-6 .03v-2-.03z" fill="#f0d0b4"/></g><g><path d="m28.99 45.02.01.01v14h-9v-.03-14c1.23-2.45 3.73-4 6.47-4h4.53 5c.55 0 1 .45 1 1 0 .35-.06.69-.18 1-.4 1.17-1.51 2-2.82 2h-1-4c0 .01-.01.01-.01.02z" fill="#f0d0b4"/></g><g><path d="m33 59v1c0 .55-.45 1-1 1h-2c-.55 0-1-.45-1-1v-.97-14l-.01-.01c0-.01.01-.01.01-.02h4v.03 2 4 4z" fill="#969faa"/></g><g><path d="m31 17c6.63 0 12 5.37 12 12s-5.37 12-12 12-12-5.37-12-12 5.37-12 12-12z" fill="#ccd1d9"/></g><g><circle cx="31" cy="29" fill="#69d6f4" r="8"/></g></g><g><path d="m31 20c-4.963 0-9 4.037-9 9s4.037 9 9 9 9-4.037 9-9-4.037-9-9-9zm0 16c-3.859 0-7-3.141-7-7s3.141-7 7-7 7 3.141 7 7-3.141 7-7 7z"/><path d="m6 10.233v9.533l7.943-4.766zm2 3.534 2.057 1.233-2.057 1.233z"/><path d="m48 14h2v2h-2z"/><path d="m52 14h2v2h-2z"/><path d="m56 14h2v2h-2z"/><path d="m55.586 24c1.331 0 2.414-1.083 2.414-2.414v-1.586h2c1.103 0 2-.897 2-2v-6c0-1.103-.897-2-2-2h-14c-.513 0-.978.2-1.332.519-1.45-1.073-3.012-1.967-4.668-2.672v-.576l-1.628-.535c-.266-.088-.48-.287-.589-.547-.108-.258-.099-.549.026-.8l.764-1.539-2.423-2.423-1.541.763c-.25.125-.539.134-.799.026-.259-.108-.458-.323-.545-.588l-.536-1.628h-3.459l-.535 1.628c-.088.266-.287.48-.547.589-.259.107-.548.1-.8-.026l-1.538-.764-2.423 2.423.764 1.541c.125.249.135.54.026.799s-.323.458-.588.545l-1.629.536v.578c-1.801.767-3.49 1.757-5.043 2.958-1.511-2.855-4.508-4.807-7.957-4.807-4.963 0-9 4.037-9 9 0 4.814 3.801 8.745 8.558 8.978-.366 1.642-.558 3.324-.558 5.022 0 .334.031.666.045 1h-6.045c-1.103 0-2 .897-2 2v8c0 1.103.897 2 2 2h10.036c.479.697.993 1.369 1.546 2.01l-13.582.021v15.998h28.003c.016 1.089.904 1.971 1.997 1.971h2c1.103 0 2-.897 2-2h3c1.654 0 3-1.346 3-3 0-.395-.081-.77-.22-1.116 1.275-.346 2.22-1.501 2.22-2.884 0-.771-.301-1.468-.78-2 .437-.484.713-1.107.76-1.797 2.25-1.226 4.292-2.822 6.021-4.716v1.513c0 1.103.897 2 2 2h2c1.103 0 2-.897 2-2v-3.612l4.422 1.475c.277.09.565.137.856.137 1.5 0 2.721-1.221 2.721-2.721v-8.559c0-1.5-1.221-2.721-2.721-2.721-.291 0-.579.047-.86.14l-4.591 1.53c.102-.884.172-1.774.172-2.669 0-2.244-.318-4.425-.939-6.525l.818.818c.449.449 1.071.707 1.707.707zm-9.586-12h14l.002 6h-4.002v3.586c0 .338-.468.531-.707.293l-3.879-3.879h-5.414zm-22-3.282.255-.084c.817-.27 1.476-.88 1.808-1.674s.302-1.691-.081-2.46l-.125-.252.392-.392.25.125c.771.383 1.668.414 2.461.081.795-.332 1.405-.99 1.676-1.809l.082-.253h.564l.084.255c.27.817.88 1.476 1.674 1.808.793.332 1.69.301 2.46-.081l.252-.125.392.392-.125.25c-.383.771-.413 1.668-.081 2.461.332.795.99 1.405 1.809 1.676l.253.082v.564l-.255.084c-.817.27-1.476.88-1.808 1.674s-.302 1.691.081 2.46l.125.252-.392.392-.25-.125c-.77-.382-1.668-.413-2.461-.081-.795.332-1.405.99-1.676 1.809l-.082.251c-.184 0-.383 0-.566 0l-.083-.252c-.27-.817-.88-1.476-1.674-1.808-.793-.332-1.691-.301-2.46.081l-.252.125-.392-.392.125-.25c.383-.771.413-1.668.081-2.461-.332-.795-.99-1.405-1.809-1.676l-.252-.083zm10 39.306 5-.024c.552 0 1 .448 1 1s-.448 1-1.005 1l-4.995.024zm4.995-2.024-4.995.024v-.024c1.474 0 2.75-.81 3.444-2h1.556c.552 0 1 .448 1 1s-.448 1-1.005 1zm-2.995-4c0 1.103-.897 2-2 2h-5.618l-.276.553c-.549 1.097-1.456 2.004-2.553 2.553l.895 1.789c.562-.281 1.077-.643 1.553-1.051v10.186h-7v-12.785c1.094-2.008 3.17-3.245 5.471-3.245zm-5-2c-6.065 0-11-4.935-11-11s4.935-11 11-11 11 4.935 11 11-4.935 11-11 11zm-29-25c0-3.859 3.141-7 7-7s7 3.141 7 7-3.141 7-7 7-7-3.141-7-7zm2.586 21-2.586 2.586v-5.171zm1.454 1.374c.571.402 1.247.626 1.96.626s1.389-.224 1.96-.626l2.626 2.626h-9.172zm7.962 1.214-2.588-2.588 2.586-2.588zm-5.002-3.002c-.535.533-1.465.533-2 0l-3.587-3.586h9.171zm5.47 6.352c.875-.212 1.53-.998 1.53-1.938v-8c0-1.103-.897-2-2-2h-3.955c-.016-.334-.045-.666-.045-1 0-1.75.227-3.48.651-5.159 4.176-.778 7.349-4.443 7.349-8.841 0-.773-.108-1.519-.292-2.236 1.324-1.086 2.758-2.003 4.292-2.732v.697l1.628.535c.266.088.48.287.589.547.108.258.099.549-.026.8l-.764 1.539 2.423 2.423 1.541-.764c.248-.126.539-.135.799-.026.205.086.354.25.458.441-6.048 1.112-10.648 6.412-10.648 12.776 0 4.805 2.627 8.999 6.513 11.249-2.117.513-3.939 1.846-5.082 3.752l-3.109.005c-.662-.648-1.281-1.339-1.852-2.068zm-12.47 4.089 17-.026v12.028h-17zm28 13.973v-14h2v14zm7-2h-3v-1.976l3.047-.015c.529.027.953.456.953.991 0 .552-.448 1-1 1zm1.995-4-1.903.009c-.031-.001-.061-.009-.092-.009v.01l-3 .015v-2l5-.025c.552 0 1 .448 1 1s-.448 1-1.005 1zm2.418-6.766c-.06-.082-.125-.159-.193-.234.48-.532.78-1.229.78-2 0-1.654-1.346-3-3-3h-1c0-.646-.313-1.216-.791-1.582 4.042-2.207 6.791-6.497 6.791-11.418 0-6.364-4.6-11.664-10.648-12.776.105-.191.254-.355.459-.441.258-.108.548-.099.8.026l1.539.764 2.423-2.423-.764-1.541c-.125-.249-.135-.54-.026-.799s.323-.458.588-.545l1.629-.536v-.702c1.421.675 2.758 1.514 4 2.496v5.477c0 1.103.897 2 2 2h3.97c1.341 2.819 2.03 5.842 2.03 9 0 1.008-.092 2.01-.234 3h-4.766c-1.654 0-3 1.346-3 3v4c0 1.654 1.346 3 3 3h.489c-1.671 2.115-3.744 3.897-6.076 5.234zm5.587-7.234c-.552 0-1-.448-1-1v-4c0-.552.448-1 1-1h5v6zm3 6v-4h2v4zm9.049-13.962c.459-.16.951.209.951.683v8.559c0 .474-.507.83-.948.685l-5.052-1.686v-6.559z"/><path d="m31 12c1.654 0 3-1.346 3-3s-1.346-3-3-3-3 1.346-3 3 1.346 3 3 3zm0-4c.552 0 1 .448 1 1s-.448 1-1 1-1-.448-1-1 .448-1 1-1z"/></g></g></svg>