<?xml version="1.0" encoding="UTF-8"?>
<svg xmlns="http://www.w3.org/2000/svg" id="Filled_Expand" data-name="Filled Expand" viewBox="0 0 64 64" width="512" height="512"><defs><style>.cls-1{fill:#b47864;}.cls-2{fill:#678efa;}.cls-3{fill:#5878f5;}.cls-4{fill:#58efc7;}.cls-5{fill:#f0b0a1;}.cls-6{fill:#f8c3b8;}.cls-7{fill:#ffdc6e;}.cls-8{fill:#f04678;}.cls-9{fill:#54deb9;}</style></defs><path class="cls-1" d="M52,49H49a4,4,0,0,1-4-4V44a5,5,0,0,1,5-5h2"/><path class="cls-1" d="M51,39h6.032A1.468,1.468,0,0,1,58.5,40.468h0a1.465,1.465,0,0,1-.34.94L56,44H51"/><circle class="cls-2" cx="32" cy="18" r="17"/><path class="cls-3" d="M42.416,4.584A16.982,16.982,0,0,1,18.584,28.416,16.987,16.987,0,1,0,42.416,4.584Z"/><path class="cls-4" d="M36,31V27l-2-4-5,1-2-2,2-3-3-4,3.875-4.083V8.083l-4.064-5.9A16.994,16.994,0,0,0,15,18c0,.529.032,1.051.079,1.568L19,18l4,3-2,4,2,3-2.873,2.155a16.913,16.913,0,0,0,17.4,3.907Z"/><path class="cls-4" d="M49,18a16.9,16.9,0,0,0-3.117-9.79L41,11l2,3v3l-3,3-.917,2.958,5.081,6.905A16.935,16.935,0,0,0,49,18Z"/><path class="cls-2" d="M18.506,55.287,14,54H10L5.494,55.287a4,4,0,0,0-2.861,3.281L2,63H22l-.633-4.432A4,4,0,0,0,18.506,55.287Z"/><path class="cls-1" d="M12,49H9a4,4,0,0,1-4-4V44a5,5,0,0,1,5-5h2"/><path class="cls-5" d="M12,51h0a2,2,0,0,1,2,2v3a0,0,0,0,1,0,0H10a0,0,0,0,1,0,0V53A2,2,0,0,1,12,51Z" transform="translate(24 107) rotate(180)"/><path class="cls-6" d="M12,52h0a4,4,0,0,1-4-4V46a2,2,0,0,1,2-2h6v4A4,4,0,0,1,12,52Z"/><path class="cls-1" d="M11,39h5a2.5,2.5,0,0,1,2.5,2.5h0A2.5,2.5,0,0,1,16,44H11"/><path class="cls-7" d="M39,48.764V46a7,7,0,0,0-7-7h0a7,7,0,0,0-7,7v2.764A3.618,3.618,0,0,1,23,52h0a3,3,0,0,0,3,3H38a3,3,0,0,0,3-3h0A3.618,3.618,0,0,1,39,48.764Z"/><path class="cls-8" d="M38.506,55.287,34,54H30l-4.506,1.287a4,4,0,0,0-2.861,3.281L22,63H42l-.633-4.432A4,4,0,0,0,38.506,55.287Z"/><path class="cls-5" d="M32,51h0a2,2,0,0,1,2,2v3a0,0,0,0,1,0,0H30a0,0,0,0,1,0,0V53A2,2,0,0,1,32,51Z" transform="translate(64 107) rotate(180)"/><path class="cls-6" d="M32,52h0a4,4,0,0,1-4-4v-.764a2,2,0,0,1,1.106-1.789L32,44l2.894,1.447A2,2,0,0,1,36,47.236V48A4,4,0,0,1,32,52Z"/><path class="cls-4" d="M58.506,55.287,54,54H50l-4.506,1.287a4,4,0,0,0-2.861,3.281L42,63H62l-.633-4.432A4,4,0,0,0,58.506,55.287Z"/><path class="cls-5" d="M52,51h0a2,2,0,0,1,2,2v3a0,0,0,0,1,0,0H50a0,0,0,0,1,0,0V53A2,2,0,0,1,52,51Z" transform="translate(104 107) rotate(180)"/><path class="cls-6" d="M52,52h0a4,4,0,0,1-4-4V46a2,2,0,0,1,2-2h6v4A4,4,0,0,1,52,52Z"/><path class="cls-9" d="M20.624,29.782l-.5.373a16.913,16.913,0,0,0,17.4,3.907L36,31v-.52a16.9,16.9,0,0,1-15.376-.7Z"/><path class="cls-9" d="M49,18a16.9,16.9,0,0,0-3.117-9.79l-1.06.606A16.895,16.895,0,0,1,41.6,26.381l2.562,3.482A16.935,16.935,0,0,0,49,18Z"/><path d="M32,36A18,18,0,1,0,14,18,18.021,18.021,0,0,0,32,36ZM45.559,9.547a15.9,15.9,0,0,1-1.317,18.734l-4.055-5.51.7-2.239,2.825-2.825A1,1,0,0,0,44,17V14a1.006,1.006,0,0,0-.168-.555l-1.405-2.108ZM32,2A15.975,15.975,0,0,1,44.4,7.906l-3.9,2.226h0a1,1,0,0,0-.336,1.423h0L42,14.3v2.283l-2.707,2.707a1,1,0,0,0-.248.411l-.917,2.958a1,1,0,0,0,.149.889l4.555,6.19a16.024,16.024,0,0,1-4.807,3.072L37,30.764V27a1,1,0,0,0-.1-.447l-2-4A.993.993,0,0,0,33.8,22.02l-4.475.894-1.042-1.041,1.545-2.318A1,1,0,0,0,29.8,18.4l-2.493-3.324L30.6,11.605a1,1,0,0,0,.274-.688V8.083a1.008,1.008,0,0,0-.176-.567L27.376,2.687A15.947,15.947,0,0,1,32,2ZM16,18A16.012,16.012,0,0,1,25.45,3.418l3.425,4.976v2.124l-3.6,3.794A1,1,0,0,0,25.2,15.6l2.575,3.434-1.607,2.411a1,1,0,0,0,.125,1.262l2,2a1,1,0,0,0,.9.273l4.251-.85L35,27.236V31a1,1,0,0,0,.1.447l1,2a15.817,15.817,0,0,1-14.4-3.221L23.6,28.8a1,1,0,0,0,.232-1.355l-1.678-2.517L23.9,21.447A1,1,0,0,0,23.6,20.2l-4-3a1,1,0,0,0-.971-.129L16.006,18.12C16.006,18.08,16,18.041,16,18Zm2.85,1.137L21.732,21.3l-1.627,3.254a1,1,0,0,0,.063,1l1.476,2.213-1.4,1.049a15.927,15.927,0,0,1-4.074-8.608Z"/><path d="M62.358,58.427a5,5,0,0,0-3.578-4.1L55,53.245V51.974A4.977,4.977,0,0,0,57,48V44.362l1.926-2.312a2.468,2.468,0,0,0-1.9-4.05H50a6.006,6.006,0,0,0-6,6v1a4.957,4.957,0,0,0,3.313,4.685A5.041,5.041,0,0,0,49,51.975v1.27l-3.782,1.081a4.993,4.993,0,0,0-3.226,2.87,5.031,5.031,0,0,0-1.568-2.036A3.981,3.981,0,0,0,42,52a1,1,0,0,0-.553-.9A2.6,2.6,0,0,1,40,48.764V46a8,8,0,0,0-16,0v2.764a2.6,2.6,0,0,1-1.447,2.341A1,1,0,0,0,22,52a3.982,3.982,0,0,0,1.577,3.161,5.026,5.026,0,0,0-1.57,2.037,4.99,4.99,0,0,0-3.227-2.873L15,53.245V51.974A4.977,4.977,0,0,0,17,48V44.837A3.49,3.49,0,0,0,16,38H10a6.006,6.006,0,0,0-6,6v1a4.956,4.956,0,0,0,3.313,4.684A5.043,5.043,0,0,0,9,51.975v1.27l-3.78,1.08a5,5,0,0,0-3.576,4.1L1.01,62.859A1,1,0,0,0,2,64H62a1,1,0,0,0,.993-1.145ZM15,48a3,3,0,0,1-6,0V46a1,1,0,0,1,1-1h5Zm-2,4.9V54a1,1,0,0,1-2,0V52.886A4.918,4.918,0,0,0,12,53,5,5,0,0,0,13,52.9ZM7,46v1.234A2.979,2.979,0,0,1,6,45V44a4,4,0,0,1,4-4h6a1.5,1.5,0,0,1,0,3H10A3,3,0,0,0,7,46ZM3.153,62l.47-3.291a3,3,0,0,1,2.145-2.46l3.511-1a2.988,2.988,0,0,0,5.442,0l3.511,1a3,3,0,0,1,2.145,2.46L20.847,62ZM26,48.764V46a6,6,0,0,1,12,0v2.764a4.585,4.585,0,0,0,1.932,3.757A2.005,2.005,0,0,1,38,54h-.358L35,53.245V51.974A4.977,4.977,0,0,0,37,48v-.764a2.985,2.985,0,0,0-1.658-2.683l-2.895-1.448a1,1,0,0,0-.894,0l-2.895,1.448A2.985,2.985,0,0,0,27,47.236V48a4.977,4.977,0,0,0,2,3.974v1.271L26.358,54H26a2.005,2.005,0,0,1-1.932-1.479A4.588,4.588,0,0,0,26,48.764ZM32,51a3,3,0,0,1-3-3v-.764a.993.993,0,0,1,.553-.894L32,45.118l2.447,1.224a.993.993,0,0,1,.553.894V48A3,3,0,0,1,32,51Zm1,1.9V54a1,1,0,0,1-2,0V52.9a5,5,0,0,0,2,0ZM23.153,62l.47-3.291a3,3,0,0,1,2.145-2.46l3.511-1a2.988,2.988,0,0,0,5.442,0l3.511,1a3,3,0,0,1,2.145,2.46L40.847,62ZM55,48a3,3,0,0,1-6,0V46a1,1,0,0,1,1-1h5Zm-2,4.9V54a1,1,0,0,1-2,0V52.886A4.918,4.918,0,0,0,52,53,5,5,0,0,0,53,52.9ZM47,46v1.234A2.979,2.979,0,0,1,46,45V44a4,4,0,0,1,4-4h7.031a.469.469,0,0,1,.36.769L55.531,43H50A3,3,0,0,0,47,46ZM43.153,62l.47-3.291a3,3,0,0,1,2.145-2.46l3.511-1a2.988,2.988,0,0,0,5.442,0l3.51,1a3,3,0,0,1,2.146,2.46L60.847,62Z"/></svg>
