<svg id="Capa_1" enable-background="new 0 0 512 512" height="512" viewBox="0 0 512 512" width="512" xmlns="http://www.w3.org/2000/svg"><g><g><circle cx="400.453" cy="111.547" fill="#dff6fd" r="104.047"/><path d="m434.036 210.052c-16.662-64.523-67.565-115.426-132.088-132.088-3.591 10.536-5.542 21.832-5.542 33.583 0 57.463 46.583 104.047 104.047 104.047 11.752-.001 23.047-1.951 33.583-5.542z" fill="#c8effe"/><g><g><circle cx="400.453" cy="72.15" fill="#fed2a4" r="32.325"/></g><g><path d="m445.911 159.024h-101.017v-22.224c0-17.853 14.472-32.325 32.325-32.325h46.467c17.853 0 32.325 14.472 32.325 32.325v12.122c.001 5.58-4.521 10.102-10.1 10.102z" fill="#fe93bb"/><path d="m363.986 107.31c-11.252 5.057-19.091 16.355-19.091 29.491v22.224h67.238c-12.581-20.183-28.971-37.75-48.147-51.715z" fill="#fe76a8"/></g></g></g><g><circle cx="111.547" cy="111.547" fill="#dff6fd" r="104.047"/><path d="m77.964 210.052c10.536 3.591 21.832 5.542 33.583 5.542 57.463 0 104.047-46.583 104.047-104.047 0-11.752-1.951-23.047-5.542-33.583-64.523 16.662-115.426 67.565-132.088 132.088z" fill="#c8effe"/><g><g><circle cx="111.547" cy="72.15" fill="#fed2a4" r="32.325"/></g><g><path d="m167.106 159.024h-101.017c-5.579 0-10.102-4.523-10.102-10.102v-12.122c0-17.853 14.472-32.325 32.325-32.325h46.467c17.853 0 32.325 14.472 32.325 32.325v22.224z" fill="#ffe177"/><path d="m99.867 159.024h67.238v-22.224c0-13.136-7.84-24.433-19.091-29.491-19.175 13.966-35.566 31.533-48.147 51.715z" fill="#ffd15b"/></g></g></g><g><circle cx="400.453" cy="400.453" fill="#dff6fd" r="104.047"/><path d="m434.036 301.948c-10.536-3.591-21.832-5.542-33.583-5.542-57.463 0-104.047 46.583-104.047 104.047 0 11.752 1.951 23.047 5.542 33.583 64.523-16.662 115.426-67.565 132.088-132.088z" fill="#c8effe"/><g><g><circle cx="400.453" cy="361.057" fill="#fed2a4" r="32.325"/><path d="m400.453 328.732c-17.853 0-32.325 14.473-32.325 32.325 0 11.561 6.073 21.698 15.199 27.412 15.524-14.927 28.451-32.533 37.997-52.088-5.632-4.769-12.913-7.649-20.871-7.649z" fill="#ffbd86"/></g><g><path d="m445.911 447.931h-90.915c-5.579 0-10.102-4.523-10.102-10.102v-12.122c0-17.853 14.472-32.325 32.325-32.325h46.467c17.853 0 32.325 14.473 32.325 32.325v12.122c.001 5.579-4.521 10.102-10.1 10.102z" fill="#99e6fc"/></g></g></g><g><circle cx="111.547" cy="400.453" fill="#dff6fd" r="104.047"/><g><g><circle cx="111.547" cy="361.057" fill="#fed2a4" r="32.325"/><path d="m143.872 361.057c0-17.853-14.473-32.325-32.325-32.325-7.958 0-15.239 2.881-20.871 7.649 9.546 19.555 22.473 37.161 37.997 52.088 9.126-5.714 15.199-15.851 15.199-27.412z" fill="#ffbd86"/></g><g><path d="m157.004 447.931h-90.915c-5.579 0-10.102-4.523-10.102-10.102v-12.122c0-17.853 14.472-32.325 32.325-32.325h46.467c17.853 0 32.325 14.473 32.325 32.325v12.122c.002 5.579-4.521 10.102-10.1 10.102z" fill="#fea95c"/></g></g></g><circle cx="256" cy="256" fill="#7bacdf" r="151.524"/><path d="m341.027 130.567c16.466 24.244 26.091 53.51 26.091 85.027 0 83.685-67.84 151.524-151.524 151.524-31.516 0-60.782-9.625-85.027-26.091 27.257 40.132 73.264 66.498 125.433 66.498 83.685 0 151.524-67.84 151.524-151.524 0-52.17-26.366-98.177-66.497-125.434z" fill="#5f99d7"/><g><circle cx="256" cy="197.411" fill="#fed2a4" r="43.437"/><path d="m272.647 157.284c2.13 5.128 3.311 10.749 3.311 16.647 0 23.99-19.447 43.437-43.437 43.437-5.898 0-11.519-1.181-16.647-3.311 6.532 15.727 22.035 26.79 40.126 26.79 23.99 0 43.437-19.447 43.437-43.437 0-18.091-11.063-33.594-26.79-40.126z" fill="#ffbd86"/><path d="m326.711 337.823h-141.422c-5.579 0-10.102-4.523-10.102-10.102v-46.467c0-22.316 18.091-40.406 40.406-40.406h80.813c22.316 0 40.407 18.091 40.407 40.406v46.467c0 5.58-4.523 10.102-10.102 10.102z" fill="#bbec6c"/><path d="m296.406 240.848h-30.305c22.316 0 40.406 18.091 40.406 40.406v56.569h20.203c5.579 0 10.102-4.523 10.102-10.102v-46.467c.001-22.316-18.09-40.406-40.406-40.406z" fill="#a2e62e"/></g><g><path d="m411.472 289.457c2.32-10.792 3.553-21.982 3.553-33.457 0-11.476-1.233-22.668-3.553-33.46 25.916-2.528 49.936-13.936 68.425-32.688 20.702-20.998 32.103-48.806 32.103-78.302 0-23.298-7.104-45.614-20.546-64.534-2.398-3.376-7.079-4.169-10.458-1.771-3.377 2.399-4.169 7.081-1.771 10.458 11.629 16.368 17.775 35.679 17.775 55.847 0 25.529-9.868 49.598-27.785 67.771-16.581 16.817-38.301 26.811-61.659 28.5-4.722-14.821-11.56-28.705-20.161-41.295h58.515c9.705 0 17.602-7.896 17.602-17.602v-12.122c0-19.459-14.032-35.692-32.506-39.139 5.784-6.915 9.273-15.812 9.273-25.511 0-21.959-17.865-39.825-39.825-39.825s-39.825 17.866-39.825 39.825c0 9.692 3.484 18.584 9.261 25.497-13.263 2.451-24.267 11.441-29.391 23.695-11.241-7.079-23.424-12.791-36.318-16.899 1.689-23.359 11.683-45.078 28.5-61.658 18.172-17.919 42.24-27.787 67.769-27.787 20.168 0 39.479 6.146 55.846 17.774 3.379 2.4 8.059 1.605 10.458-1.771 2.398-3.376 1.606-8.059-1.771-10.458-18.919-13.441-41.234-20.545-64.533-20.545-29.496 0-57.305 11.401-78.303 32.104-18.751 18.488-30.16 42.509-32.688 68.424-10.792-2.32-21.984-3.553-33.46-3.553-11.475 0-22.666 1.233-33.457 3.553-2.528-25.916-13.937-49.936-32.689-68.424-20.999-20.703-48.809-32.104-78.306-32.104-61.507 0-111.547 50.04-111.547 111.547 0 29.498 11.401 57.307 32.104 78.307 18.488 18.753 42.508 30.162 68.424 32.689-2.32 10.792-3.553 21.982-3.553 33.457 0 11.476 1.233 22.668 3.553 33.46-25.916 2.528-49.936 13.936-68.425 32.688-20.702 20.998-32.103 48.806-32.103 78.302 0 23.292 7.107 45.613 20.555 64.552 1.462 2.06 3.774 3.159 6.122 3.159 1.501 0 3.018-.45 4.335-1.385 3.378-2.398 4.172-7.08 1.773-10.457-11.635-16.388-17.785-35.707-17.785-55.869 0-25.53 9.868-49.598 27.785-67.771 16.581-16.817 38.301-26.811 61.659-28.5 1.861 5.84 4.044 11.538 6.541 17.066-21.701.303-39.263 18.04-39.263 39.811 0 9.699 3.489 18.596 9.273 25.511-18.474 3.447-32.506 19.681-32.506 39.139v12.122c0 9.706 7.896 17.602 17.602 17.602h90.914c9.705 0 17.602-7.896 17.602-17.602v-12.122c0-19.459-14.032-35.692-32.506-39.139 3.129-3.741 5.578-8.064 7.173-12.779 16.685 15.132 36.59 26.771 58.547 33.767-1.689 23.359-11.683 45.078-28.5 61.658-18.174 17.919-42.242 27.787-67.771 27.787-20.161 0-39.48-6.15-55.868-17.785-3.377-2.399-8.061-1.604-10.457 1.773-2.398 3.377-1.604 8.059 1.773 10.457 18.94 13.448 41.261 20.555 64.552 20.555 29.496 0 57.305-11.401 78.303-32.104 18.751-18.488 30.16-42.509 32.687-68.424 10.793 2.32 21.984 3.553 33.46 3.553 11.475 0 22.666-1.233 33.457-3.553 2.528 25.916 13.937 49.936 32.689 68.424 21 20.703 48.81 32.104 78.307 32.104 61.507 0 111.547-50.04 111.547-111.547 0-29.498-11.401-57.307-32.104-78.307-18.489-18.752-42.508-30.161-68.424-32.689zm-11.019 46.775c13.688 0 24.825 11.137 24.825 24.825s-11.137 24.825-24.825 24.825-24.825-11.137-24.825-24.825c0-.138.008-.276.011-.414 6.272-7.162 11.912-14.89 16.834-23.096 2.56-.869 5.234-1.315 7.98-1.315zm-23.233 64.65h46.467c13.688 0 24.825 11.137 24.825 24.825v12.122c0 1.435-1.167 2.602-2.602 2.602h-90.914c-1.435 0-2.602-1.167-2.602-2.602v-12.122c.001-13.688 11.137-24.825 24.826-24.825zm23.233-353.557c13.688 0 24.825 11.137 24.825 24.825s-11.137 24.825-24.825 24.825-24.825-11.137-24.825-24.825 11.137-24.825 24.825-24.825zm-23.233 64.651h46.467c13.688 0 24.825 11.137 24.825 24.825v12.122c0 1.435-1.167 2.602-2.602 2.602h-70.122c-6.796-7.782-14.337-14.895-22.509-21.234 2.862-10.67 12.532-18.315 23.941-18.315zm-334.434 67.346c-17.918-18.174-27.786-42.244-27.786-67.775 0-53.236 43.311-96.547 96.547-96.547 25.531 0 49.601 9.868 67.775 27.786 16.818 16.58 26.812 38.299 28.501 61.657-12.895 4.108-25.079 9.82-36.321 16.9-5.124-12.254-16.129-21.244-29.391-23.695 5.777-6.913 9.261-15.805 9.261-25.497 0-21.959-17.865-39.825-39.825-39.825s-39.825 17.865-39.825 39.824c0 9.699 3.489 18.596 9.273 25.511-18.474 3.447-32.506 19.681-32.506 39.139v12.122c0 9.706 7.896 17.602 17.602 17.602h58.515c-8.602 12.592-15.44 26.477-20.162 41.299-23.359-1.689-45.078-11.683-61.658-28.501zm93.426-27.798h-70.122c-1.435 0-2.602-1.167-2.602-2.602v-12.122c0-13.688 11.137-24.825 24.825-24.825h46.467c11.408 0 21.078 7.645 23.941 18.315-8.172 6.339-15.713 13.452-22.509 21.234zm-24.665-54.548c-13.688 0-24.825-11.137-24.825-24.825s11.137-24.825 24.825-24.825 24.825 11.137 24.825 24.825-11.137 24.825-24.825 24.825zm0 239.256c2.746 0 5.42.446 7.981 1.315 4.922 8.206 10.562 15.934 16.834 23.096.002.137.011.276.011.414 0 13.688-11.137 24.825-24.825 24.825s-24.825-11.137-24.825-24.825 11.135-24.825 24.824-24.825zm48.058 89.476v12.122c0 1.435-1.167 2.602-2.602 2.602h-90.913c-1.435 0-2.602-1.167-2.602-2.602v-12.122c0-13.688 11.137-24.825 24.825-24.825h46.467c13.689-.001 24.825 11.136 24.825 24.825zm-47.629-169.708c0-79.416 64.609-144.024 144.024-144.024s144.024 64.608 144.024 144.024-64.609 144.024-144.024 144.024-144.024-64.608-144.024-144.024zm288.477 241c-25.531 0-49.601-9.868-67.775-27.786-16.818-16.58-26.812-38.299-28.501-61.657 21.959-6.996 41.865-18.635 58.551-33.768 1.596 4.715 4.045 9.038 7.173 12.779-18.474 3.447-32.506 19.681-32.506 39.139v12.122c0 9.706 7.896 17.602 17.602 17.602h90.914c9.705 0 17.602-7.896 17.602-17.602v-12.122c0-19.459-14.032-35.692-32.506-39.139 5.784-6.915 9.273-15.812 9.273-25.511 0-21.771-17.562-39.508-39.263-39.811 2.497-5.529 4.681-11.228 6.542-17.069 23.357 1.689 45.077 11.683 61.657 28.501 17.916 18.174 27.784 42.244 27.784 67.775 0 53.236-43.311 96.547-96.547 96.547z"/><path d="m296.41 233.35h-4.351c9.188-9.219 14.877-21.927 14.877-35.939 0-28.087-22.85-50.937-50.937-50.937s-50.937 22.85-50.937 50.937c0 14.013 5.689 26.721 14.877 35.939h-4.351c-26.412 0-47.899 21.488-47.899 47.9v46.47c0 9.705 7.896 17.6 17.6 17.6h53.21c4.143 0 7.5-3.358 7.5-7.5s-3.357-7.5-7.5-7.5h-17.427v-23.916c0-1.989-.79-3.897-2.197-5.304l-6.213-6.212c-2.928-2.929-7.677-2.928-10.606 0-2.929 2.929-2.929 7.678.001 10.607l4.016 4.016v20.809h-20.783c-1.434 0-2.6-1.166-2.6-2.6v-46.47c0-18.141 14.759-32.9 32.899-32.9h80.82c18.141 0 32.899 14.759 32.899 32.9v46.47c0 1.434-1.166 2.6-2.6 2.6h-20.783v-20.809l4.016-4.016c2.93-2.929 2.93-7.678.001-10.607-2.929-2.928-7.678-2.929-10.606 0l-6.213 6.212c-1.407 1.407-2.197 3.314-2.197 5.304v23.916h-17.426c-4.143 0-7.5 3.358-7.5 7.5s3.357 7.5 7.5 7.5h53.21c9.704 0 17.6-7.895 17.6-17.6v-46.47c0-26.412-21.488-47.9-47.9-47.9zm-40.41-71.876c19.815 0 35.937 16.121 35.937 35.937s-16.122 35.937-35.937 35.937-35.937-16.121-35.937-35.937 16.122-35.937 35.937-35.937z"/></g></g></svg>