<svg id="Layer_1" enable-background="new 0 0 511.904 511.904" viewBox="0 0 511.904 511.904" xmlns="http://www.w3.org/2000/svg"><g><g><path d="m438.373 145.452v65.41h-28.74v16.49h-110.07v-81.9c0-22.37 24.18-39.5 39.26-48 6.85-3.87 11.82-5.96 11.82-5.96h36.65s51.08 21.45 51.08 53.96z" fill="#fff"/><path d="m358.943 145.392c0-19.37-8.59-35.29-20.12-47.94-15.08 8.5-39.26 25.63-39.26 48v81.9h34.46v110.505l-7.347 23.342v8.193h25v-8.193l7.347-23.342z" fill="#e3e9ee"/><path d="m409.637 210.857h28.731v28.655h-28.731z" fill="#ffdba9"/><path d="m334.023 337.857-7.347 23.342v8.193h90.308v-8.193l-7.347-23.342z" fill="#fff"/><path d="m334.023 227.356h75.614v110.501h-75.614z" fill="#fff"/><path d="m369.468 100.669c-15.837 0-28.675-12.838-28.675-28.675v-13.928c0-15.837 12.838-28.675 28.675-28.675 15.837 0 28.675 12.838 28.675 28.675v13.928c0 15.837-12.838 28.675-28.675 28.675z" fill="#ffdba9"/><path d="m212.318 227.356h-110.072v-16.498h-28.732v-65.405c0-32.51 51.08-53.96 51.08-53.96l36.642.003s51.081 21.451 51.081 53.957v81.903z" fill="#fff"/><path d="m73.514 210.857h28.731v28.655h-28.731z" fill="#ffb87e"/><path d="m185.203 361.202v8.19h-90.3v-8.19l7.34-23.34h75.62z" fill="#fff"/><path d="m102.246 227.356h75.614v110.501h-75.614z" fill="#fff"/><path d="m142.414 100.669c15.837 0 28.675-12.838 28.675-28.675v-13.928c0-15.837-12.838-28.675-28.675-28.675-15.837 0-28.675 12.838-28.675 28.675v13.928c.001 15.837 12.839 28.675 28.675 28.675z" fill="#ffdba9"/><path d="m138.74 71.994v-13.928c0-11.355 6.601-21.167 16.175-25.812-3.778-1.833-8.019-2.863-12.5-2.863-15.837 0-28.675 12.838-28.675 28.675v13.928c0 15.837 12.838 28.675 28.675 28.675 4.481 0 8.722-1.03 12.5-2.863-9.574-4.644-16.175-14.457-16.175-25.812z" fill="#ffb87e"/><path d="m365.794 71.994v-13.928c0-11.355 6.601-21.167 16.175-25.812-3.778-1.833-8.019-2.863-12.5-2.863-15.837 0-28.675 12.838-28.675 28.675v13.928c0 15.837 12.838 28.675 28.675 28.675 4.481 0 8.722-1.03 12.5-2.863-9.574-4.644-16.175-14.457-16.175-25.812z" fill="#ffb87e"/><path d="m73.514 145.452v65.405h28.731v-106.845c-13.74 9.469-28.731 23.827-28.731 41.44z" fill="#e3e9ee"/><g><path d="m333.943 251.392v-24.07h-35.26v56.07c16.568-.003 35.26-15.433 35.26-32z" fill="#ffdba9"/><path d="m177.943 227.322v24.07c0 16.569 18.167 32 34.735 32h.005v-56.07z" fill="#ffdba9"/><path d="m212.679 239.804h86l.529-12.481h34.735v-81.931c0-39.677-62.349-62.198-62.349-62.198h-31.302s-62.349 22.521-62.349 62.198v81.931h34.735v12.481z" fill="#fb8065"/><path d="m212.679 239.804h86v152.588h-86z" fill="#84b9f9"/><path d="m259.88 83.194h-19.588s-62.349 22.521-62.349 62.198v81.931h25v-77.931c0-30.276 38.631-55.801 56.937-66.198z" fill="#e25735"/><path d="m212.679 392.392-8.967 20v10h37.232c8.284 0 15-6.716 15-15 0 8.284 6.716 15 15 15h37.232v-10l-9.496-20z" fill="#fb8065"/><path d="m255.943 94.392c-19.33 0-35-15.67-35-35v-17c0-19.33 15.67-35 35-35 19.33 0 35 15.67 35 35v17c0 19.33-15.67 35-35 35z" fill="#ffdba9"/><path d="m245.943 59.392v-17c0-14.925 9.345-27.659 22.5-32.693-3.883-1.486-8.094-2.307-12.5-2.307-19.33 0-35 15.67-35 35v17c0 19.33 15.67 35 35 35 4.406 0 8.617-.822 12.5-2.307-13.155-5.034-22.5-17.769-22.5-32.693z" fill="#ffb87e"/><path d="m212.679 239.804h25v152.588h-25z" fill="#2f94f6"/><path d="m237.679 392.392h-25l-8.968 20v10h25v-10z" fill="#e25735"/></g><path d="m142.303 369.392h-47.4v-8.19l7.34-23.34h40.06z" fill="#e3e9ee"/><g><path d="m447.103 306.331c-11.919-6.165-26.573-2.174-33.721 9.182 0 0-24.683 45.769-35.665 56.751-16.489 16.489-63.58 35.165-41.701 96.216v43.333h84.51v-43.333s77.112-92.871 82.942-131.245c5.42-35.678-37.395-139.423-37.395-139.423-25.922 0-29.862 19.874-26.507 41.917 2.648 17.398 13.319 70.682 13.319 70.682z" fill="#ffdba9"/></g><path d="m102.246 227.356h25v110.501h-25z" fill="#e3e9ee"/><path d="m64.829 306.331c11.919-6.165 26.573-2.174 33.721 9.182 0 0 24.683 45.769 35.665 56.751 16.489 16.489 63.58 35.165 41.701 96.216v43.333h-84.51v-43.333s-77.112-92.871-82.942-131.245c-5.42-35.678 37.395-139.423 37.395-139.423 25.922 0 29.862 19.874 26.507 41.917-2.648 17.398-13.319 70.682-13.319 70.682z" fill="#ffdba9"/><g fill="#ffb87e"><path d="m33.463 334.287c-4.285-28.682 21.573-100.613 32.594-129.488-4.319-4.371-10.812-6.987-20.198-6.987 0 0-42.816 103.744-37.395 139.423 5.83 38.374 82.942 131.245 82.942 131.245v43.333h25v-44.064c0-.001-77.112-94.44-82.943-133.462z"/><path d="m358.938 465.578c-2.59-46.979 15.284-52.3 28.048-64.34 17.044-16.077 58.36-90.857 59.25-95.33-11.755-5.541-25.878-1.479-32.854 9.605 0 0-24.683 45.769-35.665 56.751-16.489 16.489-63.58 35.165-41.701 96.216v43.333h23.315c.134-16.251.155-36.279-.393-46.235z"/><path d="m439.567 239.73c2.648 17.397 13.319 70.682 13.319 70.682l-.01-.007c.002.003.007.004.007.008 7.25 6.76 10.01 17.23 6.96 26.73.73.63 1.52.9 2.39.72 28.269-5.852 1.094-98.437-11.445-136.734-12.12 6.544-13.756 21.95-11.221 38.601z"/></g></g><g><path d="m15.878 336.107c-1.089-7.186-.416-22.669 8.979-55.63l-14.426-4.111c-8.25 28.944-11.319 49.222-9.383 61.992 5.641 37.133 71.007 118.343 82.855 132.814v40.64h15v-46.038c-21.889-26.318-77.932-98.607-83.025-129.667z"/><path d="m473.006 194.951-1.818-4.406c-9.21-.815-18.641-.01-25.314 4.652v-49.744c0-27.203-28.516-46.665-45.134-55.69 5.412-10.331 5.784-22.658 4.903-32.073-.097-9.521-3.85-18.458-10.593-25.201-13.867-14.573-39.693-13.733-52.175.949-9.851 11.262-10.667 27.319-9.578 38.936.064 6.184 1.687 12 4.495 17.075-5.53 2.973-12.547 7.188-19.437 12.54-9.05-7.907-19.248-14.054-27.624-18.386 8.262-12.859 8.87-29.302 7.711-41.585-.096-11.211-4.508-21.737-12.445-29.676-16.269-17.116-46.64-16.118-61.269 1.077-11.656 13.327-12.59 32.489-11.282 46.351.077 8.867 2.89 17.09 7.625 23.878-8.359 4.33-18.518 10.461-27.538 18.342-6.889-5.352-13.906-9.566-19.437-12.54 2.807-5.075 4.431-10.892 4.495-17.075 7.601-63.529-69.067-65.687-72.346-14.683-.881 9.415-.509 21.742 4.903 32.073-16.618 9.026-45.134 28.487-45.134 55.69v49.709c-6.657-4.632-16.079-5.429-25.265-4.616-2.851 7.116-13.245 31.421-25.962 71.253l14.312 4.488c8.157-26.014 17.76-50.766 21.778-60.856 31.845 3.87 2.946 79.396.759 101.84-9.377 10.455-11.022 26.932-3.617 38.979 0 0 33.782 57.042 33.782 57.042l12.906-7.644-33.782-57.042c-2.596-4.383-3.252-9.494-1.847-14.391 1.373-4.79 4.528-8.708 8.899-11.067 16.925-6.686 23.618 2.466 36.953 28.123 6.467 12.344 13.729 26.599 24.725 36.947 46.262 35.407 45.591 41.762 41.866 77.029-1.495 14.156-3.356 31.773-3.108 56.64l15-.149c-.24-24.001 1.57-41.142 3.025-54.915 3.859-36.536 3.467-49.073-34.242-79.931h40.51v-16.845l-7.346-23.342v-56.499c5.708 4.831 12.592 8.387 19.814 9.89v100.692l-8.967 20v19.104h44.731c5.757 0 11.017-2.173 15-5.743 3.983 3.57 9.243 5.743 15 5.743h44.731v-19.19l-9.496-20v-100.635c7.13-1.519 14.324-5.078 20.344-10.057v56.692l-7.346 23.342v16.845h40.527c-37.65 30.512-38.072 43.912-34.177 80.48 1.46 13.706 3.277 30.764 2.989 54.348l14.998.184c.3-24.473-1.569-42.021-3.071-56.121-3.746-35.166-4.526-42.483 41.285-77.037 10.992-9.994 18.338-24.341 24.898-36.858 13.666-26.245 20.472-35.595 37.298-28.755 4.387 2.358 7.552 6.283 8.93 11.083 1.404 4.897.748 10.007-1.848 14.391l-33.782 57.042 12.906 7.644 33.782-57.042c7.407-12.048 5.759-28.537-3.624-38.988-2.18-22.417-31.096-97.98.787-101.833 12.688 31.603 38.956 104.528 34.983 130.676-2.55 16.779-22.006 50.076-54.784 93.755l11.998 9.003c35.23-46.948 54.615-80.763 57.616-100.505 5.674-37.311-36.095-139.093-37.876-143.407zm-96.037 135.406v-76.484h-15v76.484h-20.446v-95.502h60.568l.045 84.067c-2.208 3.605-4.31 7.455-6.407 11.435zm40.113-112h13.791v13.655h-13.784zm13.791-72.905v57.905h-13.799l-.032-60.006-15 .008.041 76.496h-60.639v-74.463c0-12.497-5.13-23.37-12.564-32.571 7.11-5.334 14.345-9.358 19.081-11.759 12.117 9.417 30.876 9.202 42.831.402 19.398 9.929 40.081 26.536 40.081 43.988zm-76.709-102.141c12.895-13.678 37.045-4.16 36.514 15.485 5.5 46.032-41.826 41.203-42.385 13.199-1.257-12.206.709-22.96 5.871-28.684zm-118.146-20.019c16.272-17.56 47.536-5.888 47.424 19.101 7.585 58.152-53.529 54.667-55 17-1.57-15.389 1.004-28.762 7.576-36.101zm-3.613 71.468c13.729 9.605 33.945 9.145 47.337.127 14.963 7.237 46.7 25.543 46.7 50.506v74.431h-20.265v-59.431h-15v71.912h-71v-71.912h-15v59.431h-19.735v-74.431c.001-25.109 32.112-43.485 46.963-50.633zm58.773 290.132h-27.735v-103.5h-15v103.5h-28.265v-137.588h71zm-141.26-54.535v-76.484h-15v76.484h-18.76c-2.101-4.003-4.2-7.88-6.408-11.508l.045-83.994h60.569v95.502zm-68.905-112h13.791l-.007 13.655h-13.784zm40.195-159.562c-.399-11.735 9.274-21.976 21.076-21.903 18.564.807 22.841 15.437 21.344 34.372.282 11.883-9.147 21.853-21.078 21.904-18.563-.806-22.838-15.439-21.342-34.373zm-.112 42.67c11.921 8.798 30.757 9.007 42.831-.402 4.735 2.401 11.97 6.425 19.081 11.759-7.435 9.201-12.564 20.074-12.564 32.571v74.463h-60.64l.041-76.496-15-.008-.032 60.006h-13.8v-57.905c0-17.453 20.683-34.06 40.083-43.988zm-52.286 195.721c3.874-16.196 8.428-32.608 10.677-50.174h15.301l-.029 54.525c-7.572-5.251-16.265-6.703-25.949-4.351zm55.285 48.171h10.823v16.501c-4.055-4.983-7.563-10.641-10.823-16.501zm25.823 16.535v-16.534h22.444l5.203 16.534zm35.525-110.5v-16.569h19.735v39.748c-10.424-3.561-19.735-13.742-19.735-23.179zm55.5 163.5h-29.731v-.896l6.324-14.104h30.908v7.5c-.001 4.135-3.365 7.5-7.501 7.5zm59.732 0h-29.731c-4.136 0-7.5-3.364-7.5-7.5v-7.5h30.494l6.737 14.19zm5.503-140.267v-39.802h20.265v16.569c0 9.482-9.579 19.719-20.265 23.233zm33.347 70.732h22.444v16.534h-27.647zm37.506 16.535h-.063v-16.534h10.825c-3.274 5.918-6.767 11.616-10.762 16.534zm40.095-60.276-.029-54.604h15.343c2.247 17.554 6.791 33.941 10.663 50.123-9.635-2.373-18.337-.88-25.977 4.481z"/><path d="m414.754 463.69-1.73 2.083v46.038h15v-40.645c2.778-3.401 8.673-10.691 16.014-20.188l-11.867-9.174c-10.071 13.028-17.345 21.8-17.417 21.886z"/></g><g fill="#fff"><path d="m233.443 125.27h15v15h-15z"/><path d="m263.443 125.27h15v15h-15z"/></g></g><g/><g/><g/><g/><g/><g/><g/><g/><g/><g/><g/><g/><g/><g/><g/></svg>