<svg id="Layer_1" enable-background="new 0 0 66 66" viewBox="0 0 66 66" xmlns="http://www.w3.org/2000/svg"><g><g><path d="m54.49 37.43c-3.27 2.79-7.19 4.84-11.28 6.18-5.59 1.83-11.53 2.42-17.42 2.43-1.48 0-3.08-.11-4.59-.43-2.96-.63-5.2-3.06-5.76-6.03l-1.29-6.97-.83-4.49-1.18-6.38 39.04-6.72 3.09-.53 1.58 8.73 1.27 6.99c.47 2.7-.53 5.44-2.63 7.22z" fill="#95cbfc"/></g><g><path d="m54.49 37.43c-3.27 2.79-7.19 4.84-11.28 6.18-5.59 1.83-11.53 2.42-17.42 2.43-1.48 0-3.08-.11-4.59-.43-2.96-.63-5.2-3.06-5.76-6.03l-1.29-6.97.02-.02c.56 2.98 2.8 5.4 5.76 6.03 1.52.32 3.11.43 4.6.43 5.89-.01 11.83-.6 17.42-2.43 4.09-1.34 8.01-3.39 11.28-6.18 2.09-1.78 3.1-4.52 2.61-7.22l1.27 6.99c.48 2.7-.52 5.44-2.62 7.22z" fill="#3d68f8"/></g><g opacity=".1"><path d="m54.49 37.43c-3.27 2.79-7.19 4.84-11.28 6.18-5.59 1.83-11.53 2.42-17.42 2.43-1.48 0-3.08-.11-4.59-.43-2.96-.63-5.2-3.06-5.76-6.03l-1.29-6.97-.83-4.49c1.21 1.17 2.39 2.5 3.78 3.36 2.33 1.45 5.23 1.55 7.97 1.6 3.03.05 6.06.11 9.1.17 2.64.05 5.37.08 7.79-.96 2.64-1.14 4.62-3.45 6.02-5.96 1.96-3.52 2.91-7.34 3.21-11.3l3.09-.53 1.58 8.73 1.27 6.99c.46 2.69-.54 5.43-2.64 7.21z" fill="#1e1d26"/></g><g><path d="m25.74 46.75c-1.74 0-3.32-.15-4.69-.44-3.22-.69-5.7-3.28-6.32-6.6l-3.3-17.84c-.07-.39.19-.77.58-.84s.77.19.84.58l3.3 17.84c.51 2.75 2.56 4.89 5.2 5.46 1.29.27 2.76.41 4.44.41 6.7-.01 12.33-.79 17.2-2.39 4.2-1.38 8.02-3.47 11.04-6.04 1.9-1.62 2.81-4.12 2.37-6.54l-2.85-15.73c-.07-.39.19-.77.58-.84s.77.19.84.58l2.85 15.73c.53 2.92-.56 5.95-2.85 7.89-3.17 2.7-7.15 4.88-11.53 6.32-5.02 1.65-10.79 2.45-17.65 2.46-.02-.01-.04-.01-.05-.01z" fill="#1e1d26"/></g><g fill="#1e1d26"><path d="m36.92 26.05 24.42-14.86c.64-.39.46-1.36-.28-1.49l-29.49-5.27c-1.14-.2-2.31.02-3.3.62l-24.42 14.86c-.64.39-.46 1.36.28 1.49l29.49 5.26c1.14.21 2.31-.01 3.3-.61z"/><path d="m34.45 27.46c-.32 0-.64-.03-.96-.09l-29.49-5.26c-.63-.11-1.11-.59-1.23-1.22s.16-1.26.71-1.59l24.42-14.86c1.14-.69 2.49-.95 3.8-.71l29.49 5.26c.63.11 1.12.59 1.24 1.23.12.63-.16 1.26-.71 1.59l-24.43 14.85c-.86.53-1.84.8-2.84.8zm-3.71-22.38c-.73 0-1.46.2-2.09.59l-24.43 14.86c-.02.01-.05.03-.04.09s.05.07.07.07l29.49 5.26c.97.17 1.96-.01 2.8-.52l24.42-14.86c.02-.01.05-.03.04-.09s-.05-.07-.07-.07l-29.49-5.27c-.23-.04-.47-.06-.7-.06z"/></g><g><path d="m24.47 39.76c-1.75 0-3.33-.15-4.7-.44-3.22-.69-5.7-3.28-6.32-6.6-.07-.39.18-.77.58-.84.39-.07.77.18.84.58.51 2.75 2.56 4.9 5.2 5.46 1.29.27 2.78.4 4.44.41 6.7-.01 12.33-.79 17.2-2.39 4.2-1.38 8.02-3.47 11.04-6.04 1.9-1.62 2.81-4.12 2.37-6.54-.07-.39.19-.77.58-.84s.77.19.84.58c.53 2.92-.56 5.95-2.85 7.89-3.17 2.7-7.15 4.88-11.53 6.32-5.02 1.65-10.79 2.45-17.65 2.46 0-.01-.02-.01-.04-.01z" fill="#1e1d26"/></g><g><path d="m6.16 36.99c.52 4.86-.85 9.89-3.72 13.84-.31.42-.16 1.01.29 1.27 1.36.78 2.81 1.81 4.17 2.58.42.24.95.08 1.19-.34 3-5.13 3.56-11.74 1.03-17.11" fill="#95cbfc"/></g><g><path d="m7.32 55.5c-.26 0-.53-.06-.77-.2-.72-.41-1.47-.89-2.19-1.35-.66-.42-1.34-.86-1.98-1.23-.4-.23-.68-.62-.77-1.06s0-.89.27-1.25c2.77-3.81 4.08-8.68 3.58-13.34-.04-.4.24-.75.64-.79.39-.05.75.24.79.64.53 5.01-.87 10.24-3.85 14.34-.04.02-.04.06-.04.1.01.03.02.08.08.11.67.39 1.37.83 2.04 1.27.71.45 1.44.92 2.12 1.31.07.04.17.01.22-.07 2.99-5.11 3.37-11.41 1-16.44-.17-.36-.02-.79.34-.96s.79-.02.96.34c2.57 5.45 2.16 12.26-1.06 17.78-.29.51-.83.8-1.38.8z" fill="#1e1d26"/></g><g><path d="m6.59 39.06c1.72.66 3.89-.22 4.61-1.91s-.19-3.91-1.92-4.54c-4.04-1.49-7.26 4.69-2.69 6.45z" fill="#3d68f8"/></g><g><path d="m61.22 9.95-24.42 14.86c-.99.6-2.16.82-3.3.62l-29.5-5.26c-.73-.13-.92-1.1-.28-1.49l12.82-7.8 11.6-7.06c.99-.6 2.16-.82 3.3-.62l8.92 1.59 20.58 3.67c.73.13.92 1.1.28 1.49z" fill="#95cbfc"/></g><g><path d="m34.33 26.22c-.32 0-.64-.03-.96-.09l-29.49-5.26c-.63-.11-1.12-.59-1.24-1.23-.12-.63.16-1.26.71-1.59l24.42-14.85c1.14-.69 2.49-.94 3.8-.71l29.49 5.26c.63.11 1.12.59 1.24 1.23s-.16 1.26-.71 1.59l-24.42 14.85c-.86.53-1.84.8-2.84.8zm-3.72-22.38c-.73 0-1.46.2-2.09.59l-24.42 14.86c-.02.01-.05.03-.04.09s.05.07.07.07l29.49 5.26c.97.17 1.96-.01 2.8-.52l24.42-14.86c.02-.01.05-.03.04-.09s-.05-.07-.07-.07l-29.49-5.27c-.24-.04-.47-.06-.71-.06z" fill="#1e1d26"/></g><g><path d="m7.7 33.1c-.38 0-.7-.3-.72-.69-.13-2.92-.14-4.34-.14-5.71 0-1.35 0-2.76-.14-5.64-.02-.34.2-.64.53-.73 3.6-.99 7.26-2.17 10.79-3.31 3.55-1.15 7.22-2.33 10.85-3.33.38-.11.78.12.88.5.11.38-.12.78-.5.88-3.6.99-7.26 2.17-10.79 3.31-3.37 1.09-6.85 2.21-10.3 3.18.11 2.54.11 3.85.11 5.13 0 1.35 0 2.76.14 5.64.02.4-.29.73-.69.75 0 .02-.01.02-.02.02z" fill="#1e1d26"/></g><g><path d="m7.8 40c-.5 0-1-.09-1.47-.27-2.62-1.01-3.1-3.29-2.42-5.1.78-2.06 3.09-3.64 5.62-2.7.99.37 1.82 1.18 2.27 2.23.46 1.08.48 2.27.06 3.27-.67 1.57-2.36 2.57-4.06 2.57zm.22-6.9c-1.3 0-2.34.94-2.76 2.05s-.22 2.55 1.59 3.24c1.37.53 3.12-.2 3.69-1.52.27-.64.25-1.42-.05-2.13-.3-.69-.83-1.22-1.45-1.45-.36-.13-.7-.19-1.02-.19z" fill="#1e1d26"/></g><g><path d="m29.85 16.14c.77.64 1.89.92 2.99.86 1.37-.07 2.77-.69 3.48-1.73 1.7-2.49-1.57-4.44-4.17-4.22-2.72.24-4.26 3.47-2.3 5.09z" fill="#3d68f8"/></g><g><path d="m32.56 17.73c-1.23 0-2.37-.37-3.17-1.03-1.03-.85-1.39-2.14-.98-3.46.5-1.59 1.97-2.76 3.67-2.91 2.04-.18 4.2.77 5.04 2.2.58.98.5 2.1-.21 3.14-.8 1.18-2.35 1.96-4.04 2.05-.1.01-.2.01-.31.01zm-2.25-2.14c.59.49 1.52.75 2.49.7 1.23-.06 2.38-.62 2.92-1.42.4-.58.45-1.11.16-1.61-.56-.95-2.2-1.61-3.67-1.49-1.3.11-2.15 1.04-2.42 1.9-.14.44-.26 1.27.52 1.92z" fill="#1e1d26"/></g><g><path d="m61.77 55.77c-.64.9-1.69 1.41-2.79 1.37-5.8-.18-11.68-.35-17.46-.53-6.58 1.93-13.86 4.21-20.44 6.14l-1.34-10.74-1.08-8.57c6.27.15 12.52.09 18.79.24l19.33-5.89c.55-.17 1.12-.19 1.66-.07.94.21 1.78.81 2.25 1.71 1.29 2.47 2.51 5 2.89 7.71.42 2.98-.09 6.23-1.81 8.63z" fill="#ffc94d"/></g><g><path d="m14.34 45.39c-.92 1.33-1.11 3.04-1.08 4.66.06 3.04.8 6.07 2.14 8.8.58 1.17 1.29 2.31 2.32 3.1 1.04.79 2.45 1.18 3.67.73 1.15-.42 1.95-1.51 2.34-2.67s.41-2.41.44-3.63c.05-2.38.09-4.8-.57-7.09-.62-2.16-2.05-4.31-4.06-5.42-1.68-.93-4.17.04-5.2 1.52z" fill="#fff"/></g><g><path d="m21.07 63.48c-.31 0-.6-.2-.69-.52-.11-.38.11-.78.49-.89 3.29-.96 6.81-2.03 10.21-3.07 3.41-1.04 6.94-2.11 10.23-3.08.07-.02.15-.03.22-.03 3.11.1 6.25.19 9.39.28 2.7.08 5.39.16 8.07.24.88.03 1.69-.37 2.19-1.07 1.5-2.09 2.12-5.05 1.68-8.1-.38-2.64-1.6-5.14-2.82-7.48-.58-1.11-1.87-1.65-3.06-1.29l-19.33 5.89c-.07.02-.15.03-.23.03-3.13-.07-6.31-.1-9.38-.12-3.08-.02-6.26-.04-9.41-.12-.4-.01-.71-.34-.7-.74s.33-.72.74-.7c3.13.07 6.31.1 9.38.12 3.04.02 6.19.04 9.29.12l19.22-5.86c1.86-.57 3.86.27 4.76 2 1.28 2.45 2.56 5.08 2.97 7.94.49 3.42-.22 6.76-1.93 9.15-.78 1.09-2.06 1.71-3.4 1.67-2.68-.08-5.37-.16-8.07-.24-3.1-.09-6.2-.18-9.28-.28-3.26.96-6.74 2.01-10.11 3.04-3.41 1.04-6.93 2.11-10.22 3.07-.07.03-.14.04-.21.04z" fill="#1e1d26"/></g><g><path d="m40.79 42.23c2.43 4.49 3.4 9.76 2.72 14.83l-6.49 1.16c.8-2.49.62-5.2-.05-7.73-.67-2.52-1.82-4.89-2.95-7.24z" fill="#fff"/></g><g><path d="m20.3 63.6c-1.03 0-2.1-.37-3.01-1.07-1.25-.95-2.01-2.29-2.53-3.35-1.39-2.82-2.16-5.97-2.22-9.11-.03-1.39.07-3.44 1.21-5.08 1.21-1.75 4.1-2.87 6.14-1.75 2.02 1.12 3.67 3.31 4.41 5.85.7 2.42.65 4.9.6 7.31-.02 1.2-.05 2.57-.47 3.85-.5 1.52-1.52 2.66-2.77 3.12-.44.15-.9.23-1.36.23zm-5.37-17.8c-.69.99-.99 2.34-.95 4.24.06 2.93.77 5.87 2.07 8.5.67 1.37 1.33 2.25 2.11 2.85.94.72 2.09.96 2.99.63.83-.3 1.54-1.14 1.9-2.22.35-1.07.38-2.27.4-3.42.05-2.3.09-4.67-.54-6.88-.63-2.19-2.02-4.06-3.72-4.99-1.35-.75-3.43.1-4.26 1.29z" fill="#1e1d26"/></g><g><path d="m22.6 62.44c-.17 0-.34-.06-.47-.18-3.03-2.63-4.69-6.67-4.33-10.56.02-.23.15-.43.34-.55s.43-.14.64-.06c1.73.67 3.44.34 4.57-.88.27-.29.73-.31 1.02-.04s.31.73.04 1.02c-1.32 1.42-3.25 1.97-5.21 1.53-.01 3.15 1.43 6.32 3.89 8.45.3.26.33.72.07 1.02-.15.17-.35.25-.56.25z" fill="#1e1d26"/></g><g><path d="m23.87 50.71c.66 4.7.38 8.5-1.27 11.01-2.81-2.44-4.43-6.24-4.09-9.95 1.92.74 3.97.44 5.36-1.06z" fill="#1e1d26"/></g><g><path d="m37.03 58.94c-.21 0-.4-.09-.54-.25-.17-.19-.22-.45-.14-.69.67-2.1.65-4.63-.06-7.32-.66-2.47-1.8-4.83-2.9-7.11-.1-.21-.1-.45.01-.65s.3-.34.53-.38l6.77-1.02c.3-.04.6.1.74.37 2.5 4.63 3.5 10.05 2.81 15.27-.04.31-.28.56-.59.61l-6.49 1.16c-.05.01-.1.01-.14.01zm-1.93-15.12c.99 2.07 1.97 4.22 2.58 6.49.66 2.5.78 4.89.34 7l4.85-.87c.51-4.59-.36-9.32-2.47-13.42z" fill="#1e1d26"/></g><g><path d="m49.06 11.35c-.05 0-.09-.01-.14-.02l-8.31-1.99c-.32-.08-.52-.4-.44-.72s.4-.52.72-.44l8.31 1.99c.32.08.52.4.44.72-.07.28-.31.46-.58.46z" fill="#fff"/></g><g><path d="m51.96 12.51c-.09 0-.18-.02-.27-.06l-.37-.19c-.3-.15-.42-.51-.27-.8.15-.3.51-.42.8-.27l.37.19c.3.15.42.51.27.8-.1.21-.31.33-.53.33z" fill="#fff"/></g><g><path d="m27.47 35.16c-1.6 0-3.2-.15-4.78-.45-.86-.16-1.86-.4-2.74-.91-.99-.58-1.7-1.46-1.94-2.41-.08-.32.12-.65.44-.73s.65.12.73.44c.16.64.66 1.25 1.38 1.66.72.42 1.56.62 2.36.77 1.85.35 3.74.49 5.62.4.33 0 .61.24.63.57.01.33-.24.61-.57.63-.38.02-.75.03-1.13.03z" fill="#fff"/></g><g><path d="m33.04 34.87h-.56c-.33 0-.6-.27-.6-.6s.27-.6.6-.6h.56c.33 0 .6.27.6.6s-.27.6-.6.6z" fill="#fff"/></g><g opacity=".1"><path d="m61.77 55.77c-.64.9-1.69 1.41-2.79 1.37-5.8-.18-11.68-.35-17.46-.53-6.58 1.93-13.86 4.21-20.44 6.14l-1.34-10.74c.78.51 1.6.95 2.47 1.3 4.36 1.77 9.56 1.32 13.54-1.18 1.61-1 3.07-2.33 4.91-2.81 2.13-.56 4.38.13 6.59.04 4.96-.2 9.01-4.47 10.56-9.19.27-.81.48-1.63.64-2.46.94.21 1.78.81 2.25 1.71 1.29 2.47 2.51 5 2.89 7.71.41 2.99-.1 6.24-1.82 8.64z" fill="#1e1d26"/></g><g opacity=".1"><path d="m61.22 9.95-24.42 14.86c-.99.6-2.16.82-3.3.62l-29.5-5.26c-.73-.13-.92-1.1-.28-1.49l12.82-7.8c3.43 1.75 6.85 3.5 10.28 5.25 3.21 1.64 6.92 3.32 10.3 2.04 3.55-1.34 5.26-5.68 4.63-9.42-.24-1.4-.73-2.72-1.39-3.96l20.58 3.67c.73.13.92 1.1.28 1.49z" fill="#1e1d26"/></g><g><path d="m52.81 53.53c-.12 0-.24 0-.36 0-.33 0-.6-.28-.59-.61 0-.33.27-.59.61-.59 1.09.01 2.19-.04 3.27-.15.57-.06 1.15-.14 1.57-.43.62-.43.8-1.27.77-1.92-.04-.83-.38-1.65-.71-2.44-.13-.31.02-.66.33-.78s.66.02.78.33c.35.85.74 1.81.79 2.84.06 1.23-.43 2.36-1.28 2.96-.65.46-1.45.57-2.14.64-1 .1-2.02.15-3.04.15z" fill="#fff"/></g><g><path d="m49.76 53.5c-.03 0-.07 0-.1-.01l-.48-.08c-.33-.05-.55-.36-.49-.69.05-.33.36-.55.69-.49l.48.08c.33.05.55.36.49.69-.04.29-.3.5-.59.5z" fill="#fff"/></g></g></svg>