<svg id="Layer_1" viewBox="0 0 512 512" xmlns="http://www.w3.org/2000/svg" data-name="Layer 1"><path d="m423.373 318.49c-9.752-5.414-22.451-5.556-31.805.4l-67.947 43.31c-12.954 8.249-17.234 20.664-20.069 34.809l-14.825 74.211 104.91 24.067c5.187-20.041 11.254-57.941 25.994-71.944 81.042-76.989 59.726-65.508 63.864-196.327 1.219-38.126-36.822-38.438-42.746-8.617z" fill="#fdc8a2" fill-rule="evenodd"/><path d="m325.75 398.075h41.182v141.982h-41.182z" fill="#57a3ff" transform="matrix(.224 -.975 .975 .224 -188.314 701.701)"/><path d="m88.629 318.49c9.751-5.414 22.451-5.556 31.777.4l67.974 43.31c12.926 8.249 17.235 20.664 20.07 34.809l14.825 74.211-104.91 24.067c-5.216-20.041-11.254-57.941-25.994-71.944-81.042-76.989-59.726-65.508-63.865-196.327-1.218-38.126 36.823-38.438 42.747-8.617z" fill="#fdc8a2" fill-rule="evenodd"/><path d="m94.669 448.475h141.955v41.182h-141.955z" fill="#57a3ff" transform="matrix(.975 -.224 .224 .975 -100.731 48.942)"/><g fill-rule="evenodd"><path d="m173.017 268.26a85.422 85.422 0 0 0 10.544 25.455l-4.875 8.164-5.925 9.949a104.976 104.976 0 0 0 20.212 20.211l9.949-5.952 8.164-4.876a85.144 85.144 0 0 0 25.455 10.573l2.324 9.216 2.835 11.225a103.58 103.58 0 0 0 28.6 0l2.836-11.225 2.3-9.213a84.832 84.832 0 0 0 25.455-10.573l8.193 4.876 9.949 5.952a105 105 0 0 0 20.211-20.211l-5.952-9.949-4.876-8.164a85.155 85.155 0 0 0 10.573-25.455l9.184-2.325 11.254-2.834a103.58 103.58 0 0 0 0-28.6l-11.254-2.834-9.213-2.325a84.349 84.349 0 0 0 -10.544-25.455l4.876-8.164 5.952-9.949a105 105 0 0 0 -20.211-20.211l-9.949 5.952-8.193 4.876a84.832 84.832 0 0 0 -25.455-10.573l-2.3-9.213-2.836-11.23a103.58 103.58 0 0 0 -28.6 0l-2.835 11.222-2.324 9.213a85.144 85.144 0 0 0 -25.455 10.573l-8.164-4.876-9.949-5.952a104.976 104.976 0 0 0 -20.212 20.211l5.925 9.949 4.875 8.164a85.12 85.12 0 0 0 -10.544 25.455l-9.213 2.325-11.254 2.838a106.56 106.56 0 0 0 0 28.6l11.254 2.834z" fill="#ffba57"/><path d="m204.481 248.786a51.52 51.52 0 1 0 51.506-51.506 51.53 51.53 0 0 0 -51.506 51.506z" fill="#eaf6ff"/><path d="m340.005 118.505a57.8 57.8 0 0 0 7.172 17.292l-3.316 5.556-4.026 6.775a71.659 71.659 0 0 0 13.748 13.719l6.747-4.025 5.556-3.317a57.941 57.941 0 0 0 17.32 7.172l1.559 6.265 1.927 7.653a72.823 72.823 0 0 0 19.446 0l1.927-7.653 1.588-6.265a57.774 57.774 0 0 0 17.291-7.172l5.556 3.317 6.775 4.025a71.659 71.659 0 0 0 13.748-13.719l-4.054-6.775-3.316-5.556a57.8 57.8 0 0 0 7.172-17.292l6.264-1.587 7.654-1.927a72.934 72.934 0 0 0 0-19.446l-7.654-1.928-6.264-1.559a57.677 57.677 0 0 0 -7.172-17.32l3.316-5.555 4.054-6.747a71.02 71.02 0 0 0 -13.748-13.748l-6.775 4.026-5.556 3.316a57.8 57.8 0 0 0 -17.291-7.172l-1.588-6.264-1.927-7.626a69.852 69.852 0 0 0 -19.446 0l-1.927 7.626-1.559 6.264a57.967 57.967 0 0 0 -17.32 7.172l-5.556-3.316-6.747-4.026a71.02 71.02 0 0 0 -13.748 13.748l4.026 6.747 3.316 5.555a57.677 57.677 0 0 0 -7.172 17.32l-6.264 1.559-7.625 1.928a69.751 69.751 0 0 0 0 19.446l7.625 1.927z" fill="#57a3ff"/><path d="m365.829 105.268a30.586 30.586 0 1 0 30.586-30.586 30.583 30.583 0 0 0 -30.586 30.586z" fill="#eaf6ff"/><path d="m59.149 118.505a57.828 57.828 0 0 0 7.2 17.292l-3.317 5.556-4.053 6.775a71.6 71.6 0 0 0 13.748 13.719l6.774-4.025 5.528-3.317a57.952 57.952 0 0 0 17.32 7.172l1.587 6.265 1.928 7.653a72.607 72.607 0 0 0 19.417 0l1.927-7.653 1.588-6.265a57.474 57.474 0 0 0 17.291-7.172l5.556 3.317 6.775 4.025a71.631 71.631 0 0 0 13.748-13.719l-4.053-6.775-3.313-5.553a57.079 57.079 0 0 0 7.172-17.292l6.264-1.587 7.654-1.927a72.823 72.823 0 0 0 0-19.446l-7.654-1.928-6.264-1.559a56.967 56.967 0 0 0 -7.172-17.32l3.317-5.555 4.053-6.747a70.992 70.992 0 0 0 -13.748-13.748l-6.775 4.026-5.556 3.316a57.5 57.5 0 0 0 -17.291-7.175l-1.588-6.264-1.927-7.626a69.645 69.645 0 0 0 -19.417 0l-1.928 7.626-1.587 6.264a57.978 57.978 0 0 0 -17.32 7.172l-5.533-3.316-6.774-4.026a70.964 70.964 0 0 0 -13.747 13.748l4.053 6.747 3.288 5.555a58.4 58.4 0 0 0 -7.171 17.32l-6.236 1.559-7.654 1.928a69.852 69.852 0 0 0 0 19.446l7.654 1.927z" fill="#fa4655"/><path d="m85 105.268a30.572 30.572 0 1 0 30.557-30.586 30.577 30.577 0 0 0 -30.557 30.586z" fill="#eaf6ff"/><path d="m255.987 28.505a15.01 15.01 0 1 1 -15 15.024 15.014 15.014 0 0 1 15-15.024z" fill="#ffba57"/><path d="m195.24 6.991a15.024 15.024 0 1 1 -15.023 15.023 15.013 15.013 0 0 1 15.023-15.023z" fill="#ffba57"/><path d="m316.761 6.991a15.024 15.024 0 1 1 -15.023 15.023 15.007 15.007 0 0 1 15.023-15.023z" fill="#ffba57"/><path d="m111.306 490.723-6.604-28.8-12.841 2.948 9.212 40.138 138.359-31.748-2.579-11.338-14.769 3.401-105.165 24.123z" fill="#4e93e6"/><path d="m104.928 416.172c-81.014-77.018-59.7-65.509-63.864-196.328-.312-10.2 2.183-17.688 6.094-22.62-10.091 1.134-19.275 10.743-18.652 29.792 4.139 130.819-17.177 119.338 63.865 196.327 8.022 7.625 13.464 22.337 17.6 37.361l13.663-3.118c-4.28-16.413-9.95-33.109-18.709-41.414z" fill="#fcb079"/><path d="m285.581 464.134 6.576-28.63-10.404-2.381-9.212 40.138 138.387 31.748 2.636-11.537-18.453-4.223-105.165-24.123z" fill="#4e93e6"/><path d="m407.045 416.172c81.042-77.018 59.726-65.509 63.865-196.328.311-10.2-2.155-17.688-6.1-22.62 10.091 1.134 19.276 10.743 18.68 29.792-4.138 130.819 17.178 119.338-63.864 196.327-8.022 7.625-13.465 22.337-17.6 37.361l-13.663-3.118c4.252-16.413 9.949-33.109 18.68-41.414z" fill="#fcb079"/><path d="m165.164 263.1a103.58 103.58 0 0 1 0-28.6l11.254-2.834 9.213-2.325a84.377 84.377 0 0 1 10.545-25.455l-4.876-8.164-5.953-9.949a105.184 105.184 0 0 1 14.882-15.873l-7.256-4.337a104.976 104.976 0 0 0 -20.212 20.211l5.925 9.949 4.875 8.164a85.12 85.12 0 0 0 -10.544 25.455l-9.213 2.325-11.254 2.833a106.56 106.56 0 0 0 0 28.6l11.254 2.834 9.213 2.325a85.422 85.422 0 0 0 10.544 25.455l-4.875 8.164-5.925 9.949a104.976 104.976 0 0 0 20.212 20.211l7.256-4.337a105.184 105.184 0 0 1 -14.882-15.874l5.953-9.949 4.876-8.164a84.674 84.674 0 0 1 -10.545-25.455l-9.213-2.325z" fill="#e6a74e"/><path d="m238.865 156.6-2.324 9.213a83.092 83.092 0 0 0 -8.362 2.438 81.376 81.376 0 0 0 -10.6 4.478l6.123 3.657c1.445-.907 2.948-1.786 4.479-2.608a84.611 84.611 0 0 1 20.976-7.965l.68-2.75 1.644-6.463 2.835-11.225c2.636-.369 5.3-.624 7.994-.794-2.1-.141-4.195-.2-6.321-.2-2.353 0-4.677.085-7 .226-2.438.171-4.876.426-7.285.766z" fill="#e6a74e"/><path d="m249.155 331.784a84.832 84.832 0 0 1 -25.455-10.573l-6.123 3.657a85.161 85.161 0 0 0 18.964 6.916l2.324 9.216 2.835 11.225a103.361 103.361 0 0 0 14.287.992c2.126 0 4.223-.057 6.321-.2-2.693-.17-5.358-.426-7.994-.794l-2.835-11.223z" fill="#e6a74e"/><path d="m262.081 299.951a51.51 51.51 0 0 1 0-102.3 48.219 48.219 0 0 0 -6.094-.369 51.52 51.52 0 0 0 0 103.04 48.219 48.219 0 0 0 6.094-.369z" fill="#d3dde6"/><path d="m375.892 56.03a57.806 57.806 0 0 1 17.292-7.172l1.587-6.264 1.927-7.626c1.559-.226 3.147-.4 4.734-.51-1.672-.113-3.316-.17-5.017-.17a68.956 68.956 0 0 0 -9.723.68l-1.927 7.626-1.559 6.264a57.116 57.116 0 0 0 -12.133 4.309zm17.32 105.647a57.641 57.641 0 0 1 -17.32-7.172l-4.819 2.864a57.168 57.168 0 0 0 12.133 4.308l1.559 6.265 1.927 7.653a73.248 73.248 0 0 0 9.723.652c1.7 0 3.345-.056 5.017-.17-1.587-.113-3.175-.283-4.734-.482l-1.927-7.653zm-43.37-99.241a69.636 69.636 0 0 1 9.524-10.289l-5.783-3.459a71.02 71.02 0 0 0 -13.748 13.748l4.026 6.747 3.316 5.555a57.677 57.677 0 0 0 -7.172 17.32l-6.264 1.559-7.625 1.928a69.751 69.751 0 0 0 0 19.446l7.625 1.927 6.264 1.587a57.8 57.8 0 0 0 7.172 17.292l-3.316 5.556-4.026 6.775a71.659 71.659 0 0 0 13.748 13.719l5.783-3.458a70.958 70.958 0 0 1 -9.524-10.261l4.025-6.775 3.317-5.556a57.769 57.769 0 0 1 -7.172-17.292l-6.265-1.587-7.653-1.927a72.823 72.823 0 0 1 0-19.446l7.653-1.928 6.265-1.559a57.652 57.652 0 0 1 7.172-17.32l-3.317-5.555z" fill="#4e93e6"/><path d="m401.149 135.485a30.581 30.581 0 0 1 0-60.435 32.755 32.755 0 0 0 -4.734-.368 30.586 30.586 0 0 0 0 61.172 32.613 32.613 0 0 0 4.734-.369z" fill="#d3dde6"/><path d="m120.292 135.485a30.581 30.581 0 0 1 0-60.435 32.755 32.755 0 0 0 -4.734-.368 30.586 30.586 0 0 0 0 61.172 32.613 32.613 0 0 0 4.734-.369z" fill="#d3dde6"/><path d="m95.036 56.03a57.661 57.661 0 0 1 17.319-7.172l1.559-6.264 1.928-7.626c1.559-.226 3.146-.4 4.734-.51-1.673-.113-3.317-.17-5.018-.17a68.546 68.546 0 0 0 -9.694.68l-1.928 7.626-1.587 6.264a56.308 56.308 0 0 0 -12.1 4.309zm17.319 105.647a57.635 57.635 0 0 1 -17.319-7.172l-4.791 2.864a56.359 56.359 0 0 0 12.1 4.308l1.587 6.265 1.928 7.653a72.812 72.812 0 0 0 9.694.652c1.7 0 3.345-.056 5.018-.17-1.588-.113-3.175-.283-4.734-.482l-1.928-7.653zm-43.37-99.241a69.744 69.744 0 0 1 9.524-10.289l-5.782-3.459a70.964 70.964 0 0 0 -13.748 13.748l4.053 6.747 3.288 5.555a58.4 58.4 0 0 0 -7.171 17.32l-6.236 1.559-7.654 1.928a69.852 69.852 0 0 0 0 19.446l7.654 1.927 6.236 1.587a57.828 57.828 0 0 0 7.2 17.292l-3.317 5.556-4.053 6.775a71.6 71.6 0 0 0 13.748 13.719l5.782-3.458a71.071 71.071 0 0 1 -9.524-10.261l4.025-6.775 3.317-5.556a57.8 57.8 0 0 1 -7.172-17.292l-6.264-1.587-7.625-1.927a69.751 69.751 0 0 1 0-19.446l7.625-1.928 6.264-1.559a57.677 57.677 0 0 1 7.172-17.32l-3.317-5.555z" fill="#dd404d"/><path d="m188.692 22.014a15.034 15.034 0 0 1 10.772-14.428 15.82 15.82 0 0 0 -4.224-.6 15.024 15.024 0 0 0 0 30.047c.283 0 .539-.029.822-.029a13.552 13.552 0 0 0 3.4-.595 14.328 14.328 0 0 1 -3.685-1.644 14.963 14.963 0 0 1 -7.087-12.756z" fill="#e6a74e"/><path d="m249.438 43.529a15.035 15.035 0 0 1 10.772-14.429 14.761 14.761 0 0 0 -4.223-.6 15.01 15.01 0 0 0 0 30.02h.822a16.455 16.455 0 0 0 3.4-.6 15.389 15.389 0 0 1 -3.685-1.644 15.029 15.029 0 0 1 -7.087-12.756z" fill="#e6a74e"/><path d="m310.185 22.014a15.06 15.06 0 0 1 10.8-14.428 16.148 16.148 0 0 0 -4.224-.6 15.024 15.024 0 0 0 0 30.047c.256 0 .539-.029.794-.029a13.778 13.778 0 0 0 3.43-.595 14.116 14.116 0 0 1 -3.714-1.644 15.027 15.027 0 0 1 -7.086-12.756z" fill="#e6a74e"/></g><path d="m465.642 190.289c-12.848-1.455-27.89 7.264-31.746 26.764l-.03.159-15.927 91.588a37.9 37.9 0 0 0 -30.119 4.2l-67.979 43.316c-15.4 9.83-20.238 24.715-23.17 39.341l-6.439 32.243-6.9-1.583a7.005 7.005 0 0 0 -8.39 5.257l-9.213 40.111a7 7 0 0 0 5.259 8.392l138.39 31.748a7 7 0 0 0 8.391-5.261l9.183-40.111a7 7 0 0 0 -5.26-8.387l-10.87-2.494c4.227-13.527 8.714-22.446 13.648-27.135 64.885-61.686 66.37-68.317 65.608-136.408-.188-16.841-.423-37.8.431-64.778.734-23.498-11.961-35.494-24.867-36.962zm-53.9 279.857-6.058 26.461-124.737-28.616 6.078-26.462 7 1.605c.1.024.194.054.3.074.027.006.055.007.082.012zm64.772-243.339c-.863 27.275-.627 48.4-.436 65.376.709 63.362.751 67.155-61.254 126.1-6.893 6.551-12.572 17.5-17.684 34.145l-93.252-21.4 6.512-32.628c2.76-13.771 6.561-23.641 16.967-30.282l67.971-43.311c6.952-4.424 16.843-4.5 24.618-.183 6.239 3.467 10.4 9.909 10.594 16.414.118 3.917-1.121 9.465-7.7 13.654l-45.836 29.2a7 7 0 1 0 7.523 11.811l45.838-29.2c9.321-5.939 14.484-15.375 14.168-25.886a33.53 33.53 0 0 0 -13.508-25.42l16.606-95.5c2.232-11.141 9.925-16.232 16.413-15.491 7.972.903 12.86 9.777 12.459 22.601zm-239.456 204.764a7 7 0 0 0 -8.391-5.257l-6.9 1.583-6.441-32.247c-2.93-14.621-7.764-29.507-23.173-39.339l-67.979-43.317a37.9 37.9 0 0 0 -30.115-4.19l-15.924-91.592c-.01-.053-.02-.106-.031-.159-3.856-19.5-18.883-28.226-31.747-26.764-12.906 1.468-25.6 13.465-24.867 36.962.854 26.994.617 47.963.427 64.812-.768 68.068.716 74.7 65.613 136.371 4.934 4.689 9.42 13.608 13.647 27.135l-10.87 2.494a7 7 0 0 0 -5.26 8.387l9.184 40.111a7 7 0 0 0 8.391 5.261l138.39-31.748a7 7 0 0 0 5.259-8.392zm-139.88-13.287c-62.015-58.935-61.972-62.726-61.258-126.064.192-16.982.43-38.117-.433-65.41-.4-12.827 4.487-21.7 12.452-22.607 6.479-.743 14.181 4.35 16.414 15.492l16.605 95.5a33.53 33.53 0 0 0 -13.508 25.42c-.316 10.511 4.847 19.947 14.167 25.886l45.808 29.2a7 7 0 0 0 7.528-11.809l-45.809-29.2c-6.576-4.19-7.815-9.738-7.7-13.655.2-6.5 4.355-12.947 10.594-16.414 7.773-4.315 17.665-4.241 24.614.18l67.971 43.312c10.412 6.644 14.212 16.513 16.97 30.279l6.518 32.635-93.253 21.4c-5.109-16.647-10.788-27.594-17.68-34.145zm9.14 78.323-6.059-26.461 117.341-26.926c.027-.005.055-.006.082-.012.1-.02.2-.05.295-.074l7-1.605 6.078 26.462zm208.19-247.807a58.508 58.508 0 1 0 -58.508 58.536 58.576 58.576 0 0 0 58.508-58.536zm-58.508 44.533a44.519 44.519 0 1 1 44.5-44.533 44.568 44.568 0 0 1 -44.5 44.533zm140.43-150.465a37.589 37.589 0 1 0 -37.588-37.588 37.632 37.632 0 0 0 37.588 37.588zm0-61.173a23.585 23.585 0 1 1 -23.584 23.585 23.61 23.61 0 0 1 23.584-23.585zm-280.859 61.173a37.589 37.589 0 1 0 -37.589-37.588 37.631 37.631 0 0 0 37.589 37.588zm0-61.173a23.585 23.585 0 1 1 -23.585 23.585 23.61 23.61 0 0 1 23.585-23.585zm218.266-15.659 5.243 8.786a64.548 64.548 0 0 0 -4.748 11.449l-9.94 2.5a7 7 0 0 0 -5.23 5.861 79.807 79.807 0 0 0 0 21.3 7 7 0 0 0 5.23 5.861l9.94 2.5a64.5 64.5 0 0 0 4.748 11.448l-5.243 8.788a7 7 0 0 0 .423 7.8 77.644 77.644 0 0 0 15.079 15.111 7 7 0 0 0 7.807.441l8.826-5.25a64.718 64.718 0 0 0 11.44 4.751l2.5 9.937a7 7 0 0 0 5.862 5.23 79.807 79.807 0 0 0 21.3 0 7 7 0 0 0 5.861-5.23l2.5-9.939a64.6 64.6 0 0 0 11.449-4.749l8.786 5.243a7 7 0 0 0 7.8-.423 76.972 76.972 0 0 0 15.13-15.124 7 7 0 0 0 .422-7.8l-5.243-8.788a64.53 64.53 0 0 0 4.749-11.448l9.917-2.5a7 7 0 0 0 5.215-5.8 76.7 76.7 0 0 0 0-21.428 7 7 0 0 0 -5.215-5.8l-9.915-2.508a64.674 64.674 0 0 0 -4.751-11.44l5.243-8.785a7 7 0 0 0 -.422-7.8 76.972 76.972 0 0 0 -15.122-15.12 7 7 0 0 0 -7.8-.423l-8.786 5.243a64.583 64.583 0 0 0 -11.449-4.749l-2.5-9.939a7 7 0 0 0 -5.858-5.23 80.254 80.254 0 0 0 -21.307 0 7 7 0 0 0 -5.859 5.23l-2.506 9.937a64.674 64.674 0 0 0 -11.44 4.751l-8.826-5.25a7 7 0 0 0 -7.807.441 77.644 77.644 0 0 0 -15.08 15.111 7 7 0 0 0 -.423 7.804zm7.874 32.829a7 7 0 0 0 5.13-5.214 50.676 50.676 0 0 1 6.305-15.219 7 7 0 0 0 .057-7.271l-4.834-8.1a63.811 63.811 0 0 1 5.832-5.843l8.111 4.834a7 7 0 0 0 7.271-.052 50.74 50.74 0 0 1 15.2-6.308 7 7 0 0 0 5.2-5.1l2.316-9.158a65.576 65.576 0 0 1 8.27 0l2.28 9.128a7 7 0 0 0 5.214 5.13 50.672 50.672 0 0 1 15.215 6.308 7 7 0 0 0 7.271.056l8.1-4.834a63.058 63.058 0 0 1 5.843 5.843l-4.834 8.1a7 7 0 0 0 .057 7.271 50.787 50.787 0 0 1 6.308 15.2 7 7 0 0 0 5.1 5.2l9.154 2.318c.089 1.366.134 2.747.134 4.133s-.045 2.766-.134 4.132l-9.126 2.284a7 7 0 0 0 -5.129 5.213 50.713 50.713 0 0 1 -6.307 15.218 7 7 0 0 0 -.057 7.271l4.834 8.1a63.182 63.182 0 0 1 -5.843 5.843l-8.1-4.834a7 7 0 0 0 -7.271.056 50.7 50.7 0 0 1 -15.22 6.307 7 7 0 0 0 -5.212 5.13l-2.281 9.127a65.576 65.576 0 0 1 -8.27 0l-2.316-9.157a7 7 0 0 0 -5.2-5.1 50.744 50.744 0 0 1 -15.2-6.308 7 7 0 0 0 -7.271-.056l-8.111 4.834a63.938 63.938 0 0 1 -5.832-5.843l4.834-8.1a7 7 0 0 0 -.057-7.271 50.666 50.666 0 0 1 -6.305-15.218 7 7 0 0 0 -5.129-5.213l-9.129-2.282q-.131-2.074-.131-4.134t.131-4.135zm-64.634 255.082 4.141-16.416a91.682 91.682 0 0 0 19.661-8.163l14.541 8.694a7.008 7.008 0 0 0 7.826-.429 112.04 112.04 0 0 0 21.588-21.56 7 7 0 0 0 .429-7.825l-8.695-14.541a91.051 91.051 0 0 0 8.144-19.661l16.435-4.143a7 7 0 0 0 5.231-5.864 113.484 113.484 0 0 0 0-30.451 7 7 0 0 0 -5.231-5.866l-16.435-4.141a91.071 91.071 0 0 0 -8.144-19.661l8.7-14.541a7 7 0 0 0 -.431-7.826 112.076 112.076 0 0 0 -21.59-21.553 7 7 0 0 0 -7.827-.431l-14.541 8.7c-1.011-.566-2.036-1.1-3.067-1.631v-97.838l14.555-25.191a22.081 22.081 0 1 0 -12.118-7.009l-15.5 26.829a7 7 0 0 0 -.94 3.5v93.948q-1.287-.408-2.587-.778l-4.146-16.42a7 7 0 0 0 -5.822-5.221c-2.736-.382-5.49-.65-8.251-.825v-73.241a22.025 22.025 0 1 0 -14 0v73.239c-2.761.175-5.514.443-8.25.825a7 7 0 0 0 -5.822 5.22l-4.152 16.424q-1.316.374-2.615.788v-93.961a7.006 7.006 0 0 0 -.938-3.5l-15.486-26.844a21.906 21.906 0 1 0 -12.111 7.029l14.531 25.188v97.841c-1.022.522-2.037 1.056-3.039 1.617l-14.54-8.695a7 7 0 0 0 -7.826.429 112.04 112.04 0 0 0 -21.588 21.56 7 7 0 0 0 -.43 7.825l8.7 14.541a91.009 91.009 0 0 0 -8.144 19.661l-16.435 4.141a7 7 0 0 0 -5.231 5.865 113.5 113.5 0 0 0 0 30.453 7 7 0 0 0 5.23 5.863l16.437 4.144a91.493 91.493 0 0 0 8.145 19.655l-8.7 14.546a7 7 0 0 0 .43 7.825 111.984 111.984 0 0 0 21.588 21.56 7.006 7.006 0 0 0 7.826.429l14.54-8.694a91.618 91.618 0 0 0 19.662 8.163l4.142 16.416a7 7 0 0 0 5.823 5.225 110.368 110.368 0 0 0 30.5 0 7 7 0 0 0 5.827-5.223zm39.671-339.947a8.022 8.022 0 1 1 -8.023 8.022 8.032 8.032 0 0 1 8.023-8.022zm-121.495 16.047a8.022 8.022 0 1 1 7.994-8.021 8.031 8.031 0 0 1 -7.994 8.021zm52.726 13.494a8.021 8.021 0 1 1 8.021 7.993 8.031 8.031 0 0 1 -8.021-7.993zm20.68 286.539-3.979 15.755a96.592 96.592 0 0 1 -17.359 0l-3.978-15.754a7.006 7.006 0 0 0 -5.185-5.1 77.776 77.776 0 0 1 -23.358-9.7 7 7 0 0 0 -7.291-.067l-13.959 8.341a97.916 97.916 0 0 1 -12.305-12.281l8.34-13.956a7 7 0 0 0 -.062-7.282 77.605 77.605 0 0 1 -9.674-23.351 7.006 7.006 0 0 0 -5.107-5.2l-15.755-3.972c-.257-2.927-.385-5.842-.385-8.712s.128-5.763.384-8.685l15.756-3.973a7 7 0 0 0 5.107-5.2 77.154 77.154 0 0 1 9.669-23.342 7 7 0 0 0 .067-7.292l-8.34-13.954a98.066 98.066 0 0 1 12.305-12.285l13.959 8.343a7 7 0 0 0 7.291-.068 77.807 77.807 0 0 1 23.359-9.7 7.006 7.006 0 0 0 5.185-5.1l3.974-15.748a96.474 96.474 0 0 1 17.365 0l3.974 15.749a7.006 7.006 0 0 0 5.185 5.1 77.845 77.845 0 0 1 23.36 9.7 6.994 6.994 0 0 0 7.29.067l13.958-8.342a98.141 98.141 0 0 1 12.306 12.283l-8.34 13.955a7 7 0 0 0 .067 7.29 77.208 77.208 0 0 1 9.669 23.343 7 7 0 0 0 5.106 5.2l15.756 3.973c.257 2.925.385 5.832.385 8.685s-.128 5.782-.385 8.712l-15.755 3.972a7.006 7.006 0 0 0 -5.107 5.2 77.146 77.146 0 0 1 -9.669 23.342 7.005 7.005 0 0 0 -.068 7.291l8.341 13.955a97.865 97.865 0 0 1 -12.306 12.282l-13.957-8.341a7 7 0 0 0 -7.292.067 77.8 77.8 0 0 1 -23.358 9.7 7 7 0 0 0 -5.184 5.1zm-225.105-208.289 9.917 2.5a64.543 64.543 0 0 0 4.749 11.448l-5.243 8.788a7 7 0 0 0 .423 7.8 76.962 76.962 0 0 0 15.122 15.123 7 7 0 0 0 7.8.423l8.786-5.243a64.562 64.562 0 0 0 11.45 4.749l2.5 9.938a7 7 0 0 0 5.861 5.231 79.814 79.814 0 0 0 21.3 0 7 7 0 0 0 5.861-5.23l2.506-9.938a64.7 64.7 0 0 0 11.439-4.75l8.826 5.25a7.007 7.007 0 0 0 7.807-.441 77.644 77.644 0 0 0 15.079-15.111 7 7 0 0 0 .423-7.8l-5.243-8.788a64.543 64.543 0 0 0 4.749-11.448l9.939-2.5a7 7 0 0 0 5.23-5.861 79.7 79.7 0 0 0 0-21.3 7 7 0 0 0 -5.23-5.86l-9.938-2.507a64.683 64.683 0 0 0 -4.75-11.44l5.243-8.785a7 7 0 0 0 -.423-7.8 77.644 77.644 0 0 0 -15.079-15.111 7 7 0 0 0 -7.807-.441l-8.826 5.25a64.665 64.665 0 0 0 -11.439-4.751l-2.506-9.937a7 7 0 0 0 -5.859-5.23 80.262 80.262 0 0 0 -21.308 0 7 7 0 0 0 -5.859 5.231l-2.5 9.938a64.549 64.549 0 0 0 -11.45 4.749l-8.786-5.243a7 7 0 0 0 -7.8.423 76.962 76.962 0 0 0 -15.118 15.115 7 7 0 0 0 -.423 7.8l5.243 8.786a64.627 64.627 0 0 0 -4.749 11.449l-9.917 2.5a7 7 0 0 0 -5.216 5.8 76.873 76.873 0 0 0 0 21.424 7.005 7.005 0 0 0 5.216 5.8zm8.172-20.644 9.124-2.282a7 7 0 0 0 5.13-5.213 50.727 50.727 0 0 1 6.307-15.22 7 7 0 0 0 .057-7.271l-4.834-8.1a63.182 63.182 0 0 1 5.843-5.843l8.1 4.834a7 7 0 0 0 7.27-.052 50.687 50.687 0 0 1 15.218-6.307 7 7 0 0 0 5.213-5.129l2.282-9.129a65.576 65.576 0 0 1 8.27 0l2.315 9.157a7 7 0 0 0 5.2 5.1 50.74 50.74 0 0 1 15.196 6.308 7 7 0 0 0 7.271.056l8.111-4.834a63.685 63.685 0 0 1 5.832 5.843l-4.834 8.1a7 7 0 0 0 .057 7.271 50.8 50.8 0 0 1 6.307 15.2 7 7 0 0 0 5.1 5.2l9.157 2.316c.087 1.384.131 2.765.131 4.135s-.044 2.751-.132 4.134l-9.128 2.282a7 7 0 0 0 -5.129 5.212 50.7 50.7 0 0 1 -6.306 15.219 7 7 0 0 0 -.057 7.271l4.834 8.1a63.811 63.811 0 0 1 -5.832 5.843l-8.111-4.834a7 7 0 0 0 -7.271.056 50.744 50.744 0 0 1 -15.2 6.308 7 7 0 0 0 -5.2 5.1l-2.315 9.156a65.576 65.576 0 0 1 -8.27 0l-2.278-9.134a7 7 0 0 0 -5.212-5.129 50.706 50.706 0 0 1 -15.219-6.307 7 7 0 0 0 -7.27-.056l-8.1 4.834a63.069 63.069 0 0 1 -5.843-5.842l4.834-8.1a7 7 0 0 0 -.057-7.271 50.732 50.732 0 0 1 -6.307-15.219 7 7 0 0 0 -5.129-5.212l-9.125-2.284c-.089-1.367-.134-2.747-.134-4.132s.045-2.768.134-4.135z"/></svg>