<svg id="Layer_1" enable-background="new 0 0 492 492" viewBox="0 0 492 492" xmlns="http://www.w3.org/2000/svg"><g><g><path d="m113.07 461.78v-70.85h-18.95-22.93c-6.64 0-12.08 5.43-12.08 12.08v46.7c0 6.64 5.43 12.08 12.08 12.08h41.88z" fill="#2392cf"/></g><g><path d="m113.07 390.93v70.85h177.72v-70.85h-154.8z" fill="#27a2db"/></g><g><path d="m290.79 390.93v70.85h41.88c6.64 0 12.08-5.43 12.08-12.08v-46.7c0-6.64-5.43-12.08-12.08-12.08h-18.95-22.93z" fill="#2392cf"/></g><g><path d="m313.71 320.08v70.85h18.95 22.92c6.64 0 12.08-5.43 12.08-12.08v-46.7c0-6.64-5.43-12.08-12.08-12.08h-41.87z" fill="#fcbf58"/></g><g><path d="m313.71 390.93v-70.85h-92.16-41.87-43.69v70.85h154.8z" fill="#fcd462"/></g><g><path d="m135.99 390.93v-70.85h-18.33-8.75-14.79c-6.64 0-12.08 5.43-12.08 12.08v46.7c0 6.64 5.43 12.08 12.08 12.08h18.95 22.92z" fill="#fcbf58"/></g><g><path clip-rule="evenodd" d="m167.6 308c0 6.64 5.43 12.08 12.08 12.08h41.88v-70.85h-20.6-8.75-12.53c-6.64 0-12.08 5.43-12.08 12.08z" fill="#66b47d" fill-rule="evenodd"/></g><g><path clip-rule="evenodd" d="m221.55 249.23v70.85h92.16 41.88 43.69v-70.85z" fill="#71c285" fill-rule="evenodd"/></g><g><path clip-rule="evenodd" d="m399.28 249.23v70.85h41.88c6.64 0 12.08-5.43 12.08-12.08v-46.7c0-6.64-5.43-12.08-12.08-12.08h-41.88z" fill="#66b47d" fill-rule="evenodd"/></g><g><path d="m210.61 239.57v-46.18-18.41c0-5.32-4.34-9.66-9.66-9.66h-36.52c-5.32 0-9.66-4.34-9.66-9.66v-7.85c0-5.32 4.34-9.66 9.66-9.66h40.6c3.55 0 6.59-1.76 8.36-4.83l20.3-35.16c2.66-4.61 1.07-10.53-3.54-13.19l-7.58-4.38c-4.61-2.66-10.53-1.07-13.19 3.53l-12.2 21.13c-1.77 3.07-4.82 4.83-8.36 4.83h-34.05-24.17-28.59c-1.89 0-3.5.46-5.11 1.46l-53.05 33.04c-3.62 2.25-5.3 6.41-4.26 10.54l15.95 63.78c.81 3.25 3.01 5.66 6.17 6.77s6.39.6 9.05-1.43l4.29-3.27c2.76-2.1 4.12-5.24 3.75-8.7l-5.05-47.75c-.41-3.88 1.4-7.43 4.78-9.38l6.23-3.6c3.07-1.77 6.59-1.77 9.66 0s4.83 4.82 4.83 8.36v33.46 117.03c0 5.32 4.34 9.66 9.66 9.66h8.75c5.32 0 9.66-4.34 9.66-9.66v-107.34c0-5.32 4.34-9.66 9.66-9.66h17.81 18.11c5.32 0 9.66 4.34 9.66 9.66v36.52c0 5.32 4.34 9.66 9.66 9.66h8.75c5.31 0 9.64-4.34 9.64-9.66z" fill="#27a2db"/></g><g><path clip-rule="evenodd" d="m314.42 190.26c2.7 1.38 5.53 2.55 8.45 3.51v23.46h36.4v-23.46c2.93-.95 5.75-2.13 8.45-3.51l16.59 16.59 25.74-25.74-16.59-16.59c1.38-2.7 2.55-5.53 3.51-8.46h23.46v-36.4h-23.46c-.95-2.93-2.13-5.75-3.51-8.45l16.59-16.59-25.74-25.74-16.59 16.59c-2.7-1.38-5.53-2.55-8.45-3.51v-23.45h-36.4v23.46c-2.93.95-5.75 2.13-8.45 3.51l-16.59-16.59-25.74 25.74 16.59 16.59c-1.38 2.7-2.55 5.53-3.51 8.46h-23.46v36.4h23.46c.95 2.93 2.13 5.75 3.51 8.45l-16.59 16.59 25.74 25.74zm61.26-52.39c0 19.11-15.49 34.61-34.61 34.61-19.11 0-34.61-15.49-34.61-34.61 0-19.11 15.49-34.61 34.61-34.61s34.61 15.49 34.61 34.61z" fill="#c4ced3" fill-rule="evenodd"/></g><g><ellipse cx="341.07" cy="137.87" fill="#fff" rx="34.61" ry="34.61" transform="matrix(.987 -.16 .16 .987 -17.679 56.414)"/></g><g><circle cx="130.6" cy="70.9" fill="#f9c5b8" r="39.2"/></g><g><g><path d="m332.67 466.58h-261.48c-9.31 0-16.88-7.57-16.88-16.88v-46.7c0-9.31 7.57-16.88 16.88-16.88h22.92c2.65 0 4.8 2.15 4.8 4.8s-2.15 4.8-4.8 4.8h-22.92c-4.01 0-7.28 3.26-7.28 7.28v46.7c0 4.01 3.26 7.28 7.28 7.28h261.48c4.01 0 7.28-3.26 7.28-7.28v-46.7c0-4.01-3.26-7.28-7.28-7.28-2.65 0-4.8-2.15-4.8-4.8s2.15-4.8 4.8-4.8c9.31 0 16.88 7.57 16.88 16.88v46.7c-.01 9.31-7.58 16.88-16.88 16.88z"/></g><g><g><path d="m113.07 466.58c-2.65 0-4.8-2.15-4.8-4.8v-70.85c0-2.65 2.15-4.8 4.8-4.8s4.8 2.15 4.8 4.8v70.85c0 2.65-2.15 4.8-4.8 4.8z"/></g><g><path d="m290.79 466.58c-2.65 0-4.8-2.15-4.8-4.8v-70.85c0-2.65 2.15-4.8 4.8-4.8s4.8 2.15 4.8 4.8v70.85c0 2.65-2.15 4.8-4.8 4.8z"/></g></g><g><g><path d="m181.05 422.34h-37.6c-2.65 0-4.8-2.15-4.8-4.8s2.15-4.8 4.8-4.8h37.6c2.65 0 4.8 2.15 4.8 4.8s-2.15 4.8-4.8 4.8z"/></g><g><path d="m260.41 422.34h-37.6c-2.65 0-4.8-2.15-4.8-4.8s2.15-4.8 4.8-4.8h37.6c2.65 0 4.8 2.15 4.8 4.8s-2.15 4.8-4.8 4.8z"/></g></g><g><g><path d="m181.05 439.97h-37.6c-2.65 0-4.8-2.15-4.8-4.8s2.15-4.8 4.8-4.8h37.6c2.65 0 4.8 2.15 4.8 4.8s-2.15 4.8-4.8 4.8z"/></g><g><path d="m260.41 439.97h-37.6c-2.65 0-4.8-2.15-4.8-4.8s2.15-4.8 4.8-4.8h37.6c2.65 0 4.8 2.15 4.8 4.8s-2.15 4.8-4.8 4.8z"/></g></g><g><path d="m355.59 395.73h-261.47c-9.31 0-16.88-7.57-16.88-16.88v-46.7c0-9.31 7.57-16.88 16.88-16.88h261.48c9.31 0 16.88 7.57 16.88 16.88v46.7c-.01 9.31-7.58 16.88-16.89 16.88zm-261.47-70.85c-4.01 0-7.28 3.26-7.28 7.28v46.7c0 4.01 3.26 7.28 7.28 7.28h261.48c4.01 0 7.28-3.26 7.28-7.28v-46.7c0-4.01-3.26-7.28-7.28-7.28z"/></g><g><g><path d="m135.99 395.73c-2.65 0-4.8-2.15-4.8-4.8v-70.85c0-2.65 2.15-4.8 4.8-4.8s4.8 2.15 4.8 4.8v70.85c0 2.65-2.15 4.8-4.8 4.8z"/></g><g><path d="m313.71 395.73c-2.65 0-4.8-2.15-4.8-4.8v-70.85c0-2.65 2.15-4.8 4.8-4.8s4.8 2.15 4.8 4.8v70.85c0 2.65-2.14 4.8-4.8 4.8z"/></g></g><g><g><path d="m203.98 369.12h-37.6c-2.65 0-4.8-2.15-4.8-4.8s2.15-4.8 4.8-4.8h37.6c2.65 0 4.8 2.15 4.8 4.8s-2.15 4.8-4.8 4.8z"/></g><g><path d="m283.33 369.12h-37.6c-2.65 0-4.8-2.15-4.8-4.8s2.15-4.8 4.8-4.8h37.6c2.65 0 4.8 2.15 4.8 4.8s-2.14 4.8-4.8 4.8z"/></g></g><g><g><path d="m203.98 351.49h-37.6c-2.65 0-4.8-2.15-4.8-4.8s2.15-4.8 4.8-4.8h37.6c2.65 0 4.8 2.15 4.8 4.8s-2.15 4.8-4.8 4.8z"/></g><g><path d="m283.33 351.49h-37.6c-2.65 0-4.8-2.15-4.8-4.8s2.15-4.8 4.8-4.8h37.6c2.65 0 4.8 2.15 4.8 4.8s-2.14 4.8-4.8 4.8z"/></g></g><g><path d="m441.15 324.88h-85.56c-2.65 0-4.8-2.15-4.8-4.8s2.15-4.8 4.8-4.8h85.56c4.01 0 7.28-3.26 7.28-7.28v-46.7c0-4.01-3.26-7.28-7.28-7.28h-261.47c-4.01 0-7.28 3.26-7.28 7.28v46.7c0 4.01 3.26 7.28 7.28 7.28 2.65 0 4.8 2.15 4.8 4.8s-2.15 4.8-4.8 4.8c-9.31 0-16.88-7.57-16.88-16.88v-46.7c0-9.31 7.57-16.88 16.88-16.88h261.48c9.31 0 16.88 7.57 16.88 16.88v46.7c-.01 9.31-7.58 16.88-16.89 16.88z"/></g><g><g><path d="m221.55 324.88c-2.65 0-4.8-2.15-4.8-4.8v-70.85c0-2.65 2.15-4.8 4.8-4.8s4.8 2.15 4.8 4.8v70.85c0 2.65-2.15 4.8-4.8 4.8z"/></g><g><path d="m399.28 324.88c-2.65 0-4.8-2.15-4.8-4.8v-70.85c0-2.65 2.15-4.8 4.8-4.8s4.8 2.15 4.8 4.8v70.85c0 2.65-2.15 4.8-4.8 4.8z"/></g></g><g><g><path d="m289.54 280.63h-37.6c-2.65 0-4.8-2.15-4.8-4.8s2.15-4.8 4.8-4.8h37.6c2.65 0 4.8 2.15 4.8 4.8s-2.15 4.8-4.8 4.8z"/></g><g><path d="m368.9 280.63h-37.6c-2.65 0-4.8-2.15-4.8-4.8s2.15-4.8 4.8-4.8h37.6c2.65 0 4.8 2.15 4.8 4.8s-2.15 4.8-4.8 4.8z"/></g></g><g><g><path d="m289.54 298.27h-37.6c-2.65 0-4.8-2.15-4.8-4.8s2.15-4.8 4.8-4.8h37.6c2.65 0 4.8 2.15 4.8 4.8s-2.15 4.8-4.8 4.8z"/></g><g><path d="m368.9 298.27h-37.6c-2.65 0-4.8-2.15-4.8-4.8s2.15-4.8 4.8-4.8h37.6c2.65 0 4.8 2.15 4.8 4.8s-2.15 4.8-4.8 4.8z"/></g></g><g><path d="m117.66 324.88c-1.95 0-3.62-1.16-4.38-2.83-.75 1.67-2.43 2.83-4.38 2.83-7.97 0-14.46-6.49-14.46-14.46v-150.49c0-1.83-.84-3.29-2.43-4.21s-3.27-.92-4.86 0l-6.23 3.6c-1.74 1-2.61 2.72-2.4 4.72l5.05 47.75c.54 5.14-1.5 9.89-5.62 13.02l-4.29 3.27c-3.94 3-8.88 3.78-13.55 2.14s-8.04-5.33-9.24-10.13l-15.93-63.79c-1.53-6.11 1.04-12.45 6.38-15.78l53.05-33.04c2.36-1.47 4.86-2.19 7.64-2.19h86.82c1.83 0 3.29-.84 4.21-2.43l12.2-21.13c3.99-6.9 12.84-9.28 19.75-5.29l7.58 4.38c6.9 3.99 9.28 12.85 5.29 19.75l-20.3 35.16c-2.61 4.53-7.29 7.23-12.52 7.23h-40.6c-2.68 0-4.86 2.18-4.86 4.86v7.85c0 2.68 2.18 4.86 4.86 4.86h36.52c7.97 0 14.46 6.49 14.46 14.46v64.59c0 7.97-6.49 14.46-14.46 14.46-1.95 0-3.62-1.16-4.38-2.83-.75 1.67-2.43 2.83-4.38 2.83-7.97 0-14.46-6.49-14.46-14.46v-36.52c0-2.68-2.18-4.86-4.86-4.86h-35.92c-2.68 0-4.86 2.18-4.86 4.86v107.37c.02 7.96-6.47 14.45-14.44 14.45zm-28.07-179.43c2.48 0 4.97.65 7.23 1.96 4.53 2.61 7.23 7.29 7.23 12.52v150.49c0 2.68 2.18 4.86 4.86 4.86 1.95 0 3.62 1.16 4.38 2.83.75-1.67 2.43-2.83 4.38-2.83 2.68 0 4.86-2.18 4.86-4.86v-107.37c0-7.97 6.49-14.46 14.46-14.46h35.92c7.97 0 14.46 6.49 14.46 14.46v36.52c0 2.68 2.18 4.86 4.86 4.86 1.95 0 3.62 1.16 4.38 2.83.75-1.67 2.43-2.83 4.38-2.83 2.68 0 4.86-2.18 4.86-4.86v-64.59c0-2.68-2.18-4.86-4.86-4.86h-36.52c-7.97 0-14.46-6.49-14.46-14.46v-7.85c0-7.97 6.49-14.46 14.46-14.46h40.6c1.83 0 3.29-.84 4.21-2.43l20.3-35.16c1.34-2.32.54-5.3-1.78-6.64l-7.58-4.38c-2.32-1.34-5.3-.54-6.64 1.78l-12.2 21.13c-2.61 4.53-7.29 7.23-12.52 7.23h-86.82c-.99 0-1.73.21-2.57.73l-53.05 33.04c-1.85 1.15-2.67 3.19-2.14 5.3l15.95 63.78c.42 1.68 1.47 2.83 3.1 3.41 1.64.57 3.17.33 4.55-.72l4.29-3.27c1.42-1.08 2.08-2.6 1.89-4.37l-5.05-47.75c-.61-5.76 2.13-11.14 7.15-14.04l6.23-3.6c2.24-1.29 4.72-1.94 7.2-1.94z"/></g><g><path d="m130.6 114.89c-24.26 0-44-19.74-44-44s19.74-44 44-44 44 19.74 44 44-19.74 44-44 44zm0-78.39c-18.97 0-34.4 15.43-34.4 34.4s15.43 34.4 34.4 34.4 34.4-15.43 34.4-34.4-15.43-34.4-34.4-34.4z"/></g><g><path d="m341.08 177.27c-21.73 0-39.41-17.68-39.41-39.41s17.68-39.41 39.41-39.41 39.41 17.68 39.41 39.41c-.01 21.73-17.69 39.41-39.41 39.41zm0-69.21c-16.44 0-29.81 13.37-29.81 29.81s13.37 29.81 29.81 29.81 29.81-13.37 29.81-29.81c-.01-16.44-13.38-29.81-29.81-29.81z"/></g><g><path d="m359.27 222.02h-36.4c-2.65 0-4.8-2.15-4.8-4.8v-20.08c-.89-.35-1.78-.71-2.66-1.1l-14.2 14.2c-1.87 1.88-4.91 1.88-6.79 0l-25.72-25.74c-1.87-1.87-1.87-4.91 0-6.79l14.2-14.2c-.39-.88-.75-1.76-1.1-2.65h-20.08c-2.65 0-4.8-2.15-4.8-4.8v-36.4c0-2.65 2.15-4.8 4.8-4.8h20.08c.35-.89.71-1.78 1.1-2.65l-14.2-14.2c-1.87-1.87-1.87-4.91 0-6.79l25.74-25.74c.9-.9 2.12-1.41 3.39-1.41s2.49.51 3.39 1.41l14.2 14.2c.88-.39 1.76-.75 2.65-1.1v-20.07c0-2.65 2.15-4.8 4.8-4.8h36.4c2.65 0 4.8 2.15 4.8 4.8v20.08c.89.35 1.78.71 2.65 1.1l14.2-14.2c1.88-1.88 4.91-1.88 6.79 0l25.74 25.74c.9.9 1.41 2.12 1.41 3.39s-.51 2.49-1.41 3.39l-14.2 14.2c.39.88.75 1.76 1.1 2.65h20.08c2.65 0 4.8 2.15 4.8 4.8v36.4c0 2.65-2.15 4.8-4.8 4.8h-20.08c-.35.89-.71 1.78-1.1 2.65l14.2 14.2c1.87 1.87 1.87 4.91 0 6.79l-25.74 25.74c-.9.9-2.12 1.41-3.39 1.41s-2.49-.51-3.39-1.41l-14.2-14.2c-.88.39-1.76.75-2.65 1.1v20.08c-.01 2.65-2.16 4.8-4.81 4.8zm-31.59-9.6h26.8v-18.66c0-2.08 1.34-3.92 3.32-4.56 2.65-.86 5.26-1.95 7.76-3.22 1.85-.94 4.1-.59 5.57.88l13.2 13.2 18.95-18.95-13.2-13.2c-1.47-1.47-1.83-3.72-.88-5.57 1.27-2.5 2.36-5.11 3.22-7.76.64-1.98 2.49-3.31 4.56-3.31h18.66v-26.8h-18.66c-2.08 0-3.92-1.34-4.56-3.31-.86-2.65-1.95-5.26-3.22-7.76-.94-1.85-.59-4.1.88-5.57l13.2-13.2-18.95-18.95-13.2 13.2c-1.47 1.47-3.72 1.83-5.58.88-2.5-1.27-5.11-2.36-7.76-3.22-1.98-.64-3.31-2.49-3.31-4.56v-18.67h-26.8v18.66c0 2.08-1.34 3.92-3.31 4.56-2.65.86-5.26 1.95-7.76 3.22-1.85.94-4.1.59-5.57-.88l-13.2-13.2-18.95 18.95 13.2 13.2c1.47 1.47 1.83 3.72.88 5.57-1.27 2.49-2.35 5.11-3.22 7.76-.64 1.98-2.49 3.31-4.56 3.31h-18.66v26.8h18.66c2.08 0 3.92 1.34 4.56 3.31.86 2.65 1.95 5.26 3.22 7.76.94 1.85.59 4.1-.88 5.57l-13.2 13.2 18.95 18.95 13.2-13.2c1.47-1.47 3.72-1.83 5.58-.88 2.49 1.27 5.1 2.35 7.76 3.22 1.98.64 3.31 2.49 3.31 4.56v18.67z"/></g></g></g></svg>