<svg id="Layer_1" enable-background="new 0 0 512 512" viewBox="0 0 512 512" xmlns="http://www.w3.org/2000/svg"><g clip-rule="evenodd" fill-rule="evenodd"><g><g><path d="m362.133 503.002h-284.518c-7.607 0-13.815-6.206-13.815-13.815v-295.995c0-3.805 1.356-7.079 4.046-9.769l63.537-63.538c2.69-2.69 5.964-4.047 9.769-4.047h220.98c7.609 0 13.815 6.209 13.815 13.815v359.533c.001 7.607-6.211 13.816-13.814 13.816z" fill="#72d561"/><path d="m362.133 503.002h-284.52c-7.606 0-13.815-6.206-13.815-13.816h284.522c7.604 0 13.816-6.209 13.816-13.815l-.002-359.535c7.609 0 13.815 6.209 13.815 13.815v359.535c-.001 7.607-6.213 13.816-13.816 13.816z" fill="#3cbe52"/></g><g><path d="m331.004 471.874h-284.519c-7.606 0-13.815-6.206-13.815-13.815v-295.997c0-3.805 1.356-7.079 4.047-9.769l63.537-63.538c2.69-2.69 5.964-4.046 9.769-4.046h220.982c7.609 0 13.815 6.209 13.815 13.815v359.535c0 7.606-6.212 13.815-13.816 13.815z" fill="#ffda2d"/><path d="m331.004 471.874h-284.519c-7.606 0-13.815-6.206-13.815-13.815v-6.938h277.582c7.604 0 13.815-6.209 13.815-13.815v-352.598h6.938c7.609 0 13.815 6.209 13.815 13.815v359.535c0 7.607-6.212 13.816-13.816 13.816z" fill="#ffc700"/><path d="m78.861 110.147 21.392-21.393c2.69-2.69 5.964-4.046 9.769-4.046h4.654v59.157c0 6.871-5.605 12.474-12.474 12.474h-57.959c.67-1.467 1.804-2.659 2.849-4.047z" fill="#ffc700"/><path d="m83.62 373.455h48.901c2.41 0 4.382 1.972 4.382 4.382v48.901c0 2.41-1.972 4.382-4.382 4.382h-48.901c-2.41 0-4.382-1.972-4.382-4.382v-48.901c0-2.41 1.972-4.382 4.382-4.382zm0-247.994h48.901c2.41 0 4.382 1.972 4.382 4.382v48.901c0 2.41-1.972 4.382-4.382 4.382h-48.901c-2.41 0-4.382-1.972-4.382-4.382v-48.901c0-2.411 1.972-4.382 4.382-4.382zm0 82.664h48.901c2.41 0 4.382 1.972 4.382 4.382v48.901c0 2.411-1.972 4.382-4.382 4.382h-48.901c-2.41 0-4.382-1.972-4.382-4.382v-48.901c0-2.41 1.972-4.382 4.382-4.382zm0 82.665h48.901c2.41 0 4.382 1.972 4.382 4.382v48.901c0 2.41-1.972 4.382-4.382 4.382h-48.901c-2.41 0-4.382-1.972-4.382-4.382v-48.901c0-2.41 1.972-4.382 4.382-4.382z" fill="#64b5f6"/><path d="m83.62 373.455h48.901c2.41 0 4.382 1.972 4.382 4.382v5.995h-42.906c-2.41 0-4.382 1.972-4.382 4.382v42.907h-5.995c-2.41 0-4.382-1.972-4.382-4.382v-48.901c0-2.411 1.972-4.383 4.382-4.383zm0-247.994h48.901c2.41 0 4.382 1.972 4.382 4.382v5.994h-42.906c-2.41 0-4.382 1.972-4.382 4.382v42.907h-5.995c-2.41 0-4.382-1.972-4.382-4.382v-48.901c0-2.411 1.972-4.382 4.382-4.382zm0 82.664h48.901c2.41 0 4.382 1.972 4.382 4.382v5.994h-42.906c-2.41 0-4.382 1.972-4.382 4.382v42.907h-5.995c-2.41 0-4.382-1.972-4.382-4.382v-48.901c0-2.41 1.972-4.382 4.382-4.382zm0 82.665h48.901c2.41 0 4.382 1.972 4.382 4.382v5.994h-42.906c-2.41 0-4.382 1.972-4.382 4.382v42.907h-5.995c-2.41 0-4.382-1.972-4.382-4.382v-48.901c0-2.41 1.972-4.382 4.382-4.382z" fill="#42a5f5"/><path d="m79.238 156.339h22.964c6.869 0 12.474-5.603 12.474-12.474v-18.404h-31.056c-2.41 0-4.382 1.972-4.382 4.382z" fill="#42a5f5"/><path d="m79.238 156.339h10.377v-16.12c0-2.41 1.972-4.382 4.382-4.382h20.68v-10.376h-31.057c-2.41 0-4.382 1.972-4.382 4.382z" fill="#2d90f1"/><path d="m115.944 394.953c3.223-3.242 8.465-3.256 11.706-.032s3.256 8.465.032 11.706l-13.975 14.106c-3.201 3.22-8.394 3.255-11.64.096l-7.796-7.598c-3.277-3.188-3.35-8.429-.162-11.706s8.429-3.349 11.706-.162l1.923 1.874zm0-82.664c3.223-3.241 8.465-3.256 11.706-.033 3.241 3.224 3.256 8.465.032 11.706l-13.975 14.106c-3.201 3.22-8.394 3.255-11.64.096l-7.796-7.598c-3.277-3.188-3.35-8.429-.162-11.706s8.429-3.35 11.706-.162l1.922 1.874zm0-165.33c3.223-3.241 8.465-3.256 11.706-.032 3.241 3.223 3.256 8.465.032 11.706l-13.975 14.106c-3.201 3.219-8.394 3.255-11.64.096l-7.796-7.598c-3.277-3.188-3.35-8.429-.162-11.706s8.429-3.35 11.706-.162l1.922 1.874zm0 82.664c3.223-3.241 8.465-3.256 11.706-.032 3.241 3.223 3.256 8.464.032 11.706l-13.975 14.106c-3.201 3.22-8.394 3.255-11.64.096l-7.796-7.598c-3.277-3.188-3.35-8.429-.162-11.706s8.429-3.35 11.706-.162l1.922 1.874z" fill="#42a5f5"/><path d="m100.253 88.754-63.537 63.538c-1.229 1.229-2.179 2.579-2.849 4.047h57.959c6.869 0 12.474-5.603 12.474-12.474v-57.96c-1.468.67-2.818 1.62-4.047 2.849z" fill="#eff4f7"/></g><g><path d="m442.799 128.214-38.989 67.531c-1.376 2.383-3.84 3.683-6.585 3.472l-78.2-6.025c-18.187-1.401-33.262-10.104-43.568-25.154l-44.315-64.709c-1.555-2.271-1.661-5.055-.285-7.439l35.701-61.836z" fill="#82a3ad"/><path d="m442.799 128.214-38.989 67.531c-1.376 2.384-3.84 3.684-6.585 3.472l-78.2-6.025c-18.187-1.401-33.262-10.104-43.568-25.154l-7.359-10.746c10.307 15.05 25.381 23.753 43.568 25.154l78.2 6.025c2.745.211 5.209-1.089 6.585-3.472l35.982-62.323z" fill="#688d97"/><path d="m230.693 9.009 155.947 12.014c1.445.111 3.486 1.457 4.536 2.992l87.534 127.815c1.051 1.534.729 2.698-.716 2.587l-155.948-12.014c-1.444-.111-3.486-1.457-4.536-2.992l-87.533-127.815c-1.051-1.534-.729-2.698.716-2.587z" fill="#b4d2d7"/><path d="m230.693 9.009 13.096 1.009 80.535 117.594c1.051 1.535 3.092 2.881 4.536 2.992l142.852 11.005 7 10.221c1.051 1.534.728 2.698-.716 2.587l-155.948-12.014c-1.444-.111-3.486-1.457-4.536-2.992l-87.535-127.815c-1.051-1.534-.728-2.698.716-2.587z" fill="#9bb9c3"/><path d="m433.491 212.834 6.486 21.041c.289.939.186 1.856-.305 2.706l-15.695 27.185c-.938 1.625-3.028 2.184-4.652 1.246l-27.952-16.138c-1.625-.938-2.185-3.028-1.247-4.652l15.695-27.185c.491-.851 1.233-1.399 2.191-1.617l21.465-4.904c1.743-.397 3.487.61 4.014 2.318z" fill="#ffda2d"/><path d="m433.491 212.834 6.486 21.041c.289.939.186 1.856-.305 2.706l-15.695 27.185c-.938 1.625-3.028 2.184-4.652 1.246l-5.899-3.406c1.624.938 3.714.378 4.652-1.247l15.695-27.185c.491-.851.595-1.767.305-2.706l-6.048-19.622 1.448-.331c1.742-.396 3.486.611 4.013 2.319z" fill="#ffc700"/></g></g><path d="m451.841 160.42-17.62-1.359-23.479 40.679c-2.712 4.7-7.593 7.491-12.942 7.491-.392 0-.788-.011-1.189-.04l-12.659-.98v32.709l15.687-27.169c1.113-1.931 2.971-3.311 5.141-3.801l22.601-5.159zm-20.102 73.889-12.39 21.471-19.998-11.541 12.4-21.471 15.347-3.51zm-63.79 254.881v-284.211l-15.13-1.17v254.25c0 12.02-9.791 21.81-21.818 21.81h-259.201v9.321c0 3.2 2.608 5.809 5.82 5.809h284.509c3.212 0 5.82-2.609 5.82-5.809zm-321.457-25.32c-3.212 0-5.82-2.61-5.82-5.811v-293.719h30.567v14.4c0 6.83 5.551 12.39 12.381 12.39h48.9c6.829 0 12.381-5.56 12.381-12.39v-48.9c0-6.82-5.551-12.38-12.381-12.38h-20.22v-24.751h111.199c-2.438 4.869-2.07 10.59 1.052 15.141l14.437 21.08h-64.238c-4.41 0-7.999 3.58-7.999 7.999s3.589 8 7.999 8h75.189l12.819 18.729h-88.008c-4.41 0-7.999 3.582-7.999 8.001 0 4.41 3.589 8 7.999 8h99.677c11.319 12.739 26.35 20.149 43.981 21.5l18.413 1.42v255.48c0 3.2-2.613 5.811-5.82 5.811zm5.499-315.531h39.839c2.457 0 4.467-2.01 4.467-4.481v-39.838zm35.246 26.79h41.665v-41.67h-16.602v9.131l.971-.98c3.108-3.139 8.178-3.16 11.32-.05 3.141 3.11 3.16 8.171.047 11.31l-13.97 14.111c-1.566 1.579-3.627 2.369-5.688 2.369-2.009 0-4.033-.761-5.58-2.281l-3.283-3.189c-1.387.289-2.816.46-4.287.46h-4.594v10.789zm150.874-75.8 19.328-33.479 53.47 78.079c2.033 2.961 6.079 6.1 10.531 6.45l95.098 7.321-19.337 33.488-77.562-5.981c-15.691-1.208-28.69-8.709-37.58-21.699zm5.999-81.272 79.75 116.463 110.482 8.509-84.344-54.6c-3.707-2.401-4.768-7.361-2.368-11.071 2.401-3.7 7.348-4.77 11.06-2.36l103.672 67.101-77.533-113.189zm-14.008-1.07-.023-.009c.009-.001.009.009.023.009zm256.027 140.962c-1.618 2.801-4.617 4.47-7.971 4.47-.259 0-.519-.009-.778-.03l-7.862-.61-28.289 49.01 6.829 22.151c.66 2.119.401 4.42-.717 6.349l-18.139 31.419c-1.061 1.841-2.811 3.182-4.863 3.731-.679.18-1.368.271-2.07.271-1.387 0-2.769-.361-4-1.071l-33.85-19.54c-.16-.1-.321-.21-.467-.31v235.4c0 12.02-9.791 21.81-21.823 21.81h-284.509c-12.032 0-21.823-9.79-21.823-21.81v-9.321h-9.306c-12.032 0-21.823-9.79-21.823-21.81v-296c0-5.91 2.212-11.249 6.391-15.43l63.54-63.53c4.179-4.18 9.508-6.391 15.418-6.391h122.684l14.715-25.5-24.035-35.09c-2.372-3.462-2.669-7.438-.821-10.649 1.75-3.019 5.089-4.721 8.749-4.438l155.949 12.017c4.452.34 8.489 3.481 10.522 6.452l87.528 127.809c2.373 3.452 2.675 7.432.821 10.641zm-386.728 174.451-7.801-7.6c-3.16-3.08-3.231-8.142-.141-11.31 3.08-3.16 8.15-3.229 11.31-.14l2.113 2.06 8.391-8.469c3.108-3.141 8.178-3.161 11.32-.061 3.141 3.11 3.16 8.18.047 11.319l-13.97 14.101c-1.566 1.579-3.627 2.37-5.688 2.37-2.011 0-4.034-.75-5.581-2.27zm198.849-86.081c4.419 0 7.999 3.58 7.999 8s-3.58 8.001-7.999 8.001h-123.5c-4.419 0-7.999-3.581-7.999-8.001s3.58-8 7.999-8zm-123.5-18.72c-4.419 0-7.999-3.589-7.999-7.999 0-4.42 3.58-8 7.999-8h82.188c4.419 0 7.999 3.58 7.999 8 0 4.411-3.58 7.999-7.999 7.999zm0 82.661c-4.419 0-7.999-3.582-7.999-8.001s3.58-7.999 7.999-7.999h82.188c4.419 0 7.999 3.58 7.999 7.999s-3.58 8.001-7.999 8.001zm123.5 18.72c4.419 0 7.999 3.589 7.999 8 0 4.42-3.58 8-7.999 8h-123.5c-4.419 0-7.999-3.58-7.999-8 0-4.41 3.58-8 7.999-8zm-169.348-112.861v41.671h-41.665v-41.671zm15.998-3.608v48.9c0 6.819-5.551 12.379-12.381 12.379h-48.9c-6.829 0-12.381-5.56-12.381-12.379v-48.9c0-6.832 5.551-12.392 12.381-12.392h48.9c6.83-.001 12.381 5.56 12.381 12.392zm-45.499 37.228-7.801-7.599c-3.16-3.08-3.231-8.151-.141-11.31 3.08-3.169 8.15-3.23 11.31-.15l2.113 2.06 8.391-8.47c3.108-3.13 8.178-3.16 11.32-.051 3.141 3.112 3.16 8.18.047 11.321l-13.97 14.1c-1.566 1.58-3.627 2.369-5.688 2.369-2.011 0-4.034-.759-5.581-2.27zm29.501 49.051v41.66h-41.665v-41.66zm15.998-3.62v48.899c0 6.83-5.551 12.381-12.381 12.381h-48.9c-6.829 0-12.381-5.551-12.381-12.381v-48.899c0-6.83 5.551-12.381 12.381-12.381h48.9c6.83 0 12.381 5.551 12.381 12.381zm-15.998 86.279v41.671h-41.665v-41.671zm15.998-3.609v48.9c0 6.82-5.551 12.381-12.381 12.381h-48.9c-6.829 0-12.381-5.56-12.381-12.381v-48.9c0-6.83 5.551-12.39 12.381-12.39h48.9c6.83 0 12.381 5.56 12.381 12.39zm-45.499 37.23-7.801-7.6c-3.16-3.092-3.231-8.151-.141-11.31 3.08-3.171 8.15-3.232 11.31-.151l2.113 2.06 8.391-8.469c3.108-3.14 8.178-3.16 11.32-.05 3.141 3.11 3.16 8.169.047 11.31l-13.97 14.109c-1.566 1.58-3.627 2.371-5.688 2.371-2.011 0-4.034-.761-5.581-2.27zm75.349-22.15c-4.41 0-7.999-3.58-7.999-8 0-4.411 3.589-7.999 7.999-7.999h82.188c4.419 0 7.999 3.589 7.999 7.999 0 4.42-3.58 8-7.999 8zm131.499 26.73c0 4.42-3.58 7.999-7.999 7.999h-123.5c-4.41 0-7.999-3.58-7.999-7.999s3.589-8.001 7.999-8.001h123.5c4.419 0 7.999 3.581 7.999 8.001z"/></g></svg>