<svg height="512" viewBox="0 0 512 512" width="512" xmlns="http://www.w3.org/2000/svg"><g id="Layer_2"><g><g><path d="m187.418 504.476h215.583v-159.446c26.288 1.398 65.38-76.522 65.38-123.999 0-113.116-68.66-213.507-189.786-213.507-115.093 0-220.92 41.589-242.09 140.263-6.873 32.033-3.699 64.157 7.56 93.767l-34.003 65.202c-7.164 17.419 5.644 36.535 24.479 36.535h19.389l-.727 86.503c1.257 19.414 11.924 36.988 28.567 47.063 13.77 8.336 30.33 10.738 45.901 6.658l59.747-15.654z" fill="#ffcebf"/><g><path d="m105.003 476.857c-16.643-10.075-27.31-27.649-28.567-47.063l.727-86.503h-19.389c-18.835 0-31.642-19.116-24.479-36.535l34.003-65.202c-11.259-29.61-14.432-61.734-7.56-93.767 20.31-94.662 118.533-136.78 228.104-140.049-3.05-.132-6.126-.215-9.246-.215-115.093 0-220.92 41.589-242.09 140.263-6.873 32.033-3.699 64.157 7.56 93.767l-34.003 65.202c-7.164 17.419 5.644 36.535 24.479 36.535h19.388l-.727 86.503c1.257 19.414 11.924 36.988 28.567 47.063 12.747 7.717 27.884 10.337 42.416 7.449-6.714-1.338-13.211-3.833-19.183-7.448z" fill="#ffb09e"/></g><path d="m265.834 232.594h67.802v131.443h-67.802z" fill="#ca4336" transform="matrix(.907 -.422 .422 .907 -97.924 154.438)"/><path d="m348.61 314.427h-14.937c-37.843 0-68.522-30.678-68.522-68.522v-36.986h151.98v36.986c.001 37.843-30.677 68.522-68.521 68.522z" fill="#ca4336"/><path d="m387.797 88.796c-39.799-39.799-90.325-53.001-153.63-53.001-63.141 0-119.048 28.924-153.362 73.36-31.465 40.746-3.481 96.79 47.809 102.622-.36 2.241-.554 4.537-.554 6.879 0 23.757 19.259 43.017 43.017 43.017h181.943c27.017 0 62.143-13.739 69.68-39.684 14.098-48.53-13.82-112.11-34.903-133.193z" fill="#e15f4f"/><path d="m151.367 218.656c0-2.342.194-4.639.554-6.879-51.29-5.832-79.274-61.876-47.809-102.622 32.601-42.217 84.698-70.413 143.965-73.126-4.57-.152-9.201-.235-13.911-.235-63.141 0-119.048 28.924-153.362 73.36-31.465 40.746-3.481 96.79 47.809 102.622-.36 2.241-.554 4.537-.554 6.879 0 23.757 19.259 43.017 43.017 43.017h23.309c-23.758.001-43.018-19.258-43.018-43.016z" fill="#ca4336"/></g><circle cx="395.898" cy="116.054" fill="#fff" r="108.056"/><path d="m311.151 116.054c0-55.74 42.206-101.616 96.402-107.429-3.829-.411-7.716-.627-11.654-.627-59.678 0-108.056 48.378-108.056 108.056s48.378 108.056 108.056 108.056c3.938 0 7.825-.216 11.654-.627-54.197-5.813-96.402-51.69-96.402-107.429z" fill="#cdcdc6"/><path d="m458.094 91.378h-37.52v-37.52h-49.352v37.52h-37.52v49.351h37.52v37.52h49.352v-37.52h37.52z" fill="#68c0e0"/><g><path d="m279.696 160.568c-2.15-1.733-5.298-1.396-7.031.755-1.733 2.15-1.395 5.298.755 7.03 5.713 4.604 8.379 13.062 6.339 20.109-.768 2.652.76 5.425 3.413 6.192.464.135.932.198 1.393.198 2.169 0 4.167-1.423 4.8-3.611 3.162-10.923-.814-23.536-9.669-30.673z"/><path d="m258.434 87.142c.631 0 1.273-.12 1.893-.374 10.401-4.26 17.025-15.858 15.409-26.98-.397-2.732-2.937-4.622-5.667-4.229-2.732.397-4.626 2.935-4.229 5.667.96 6.604-3.126 13.76-9.303 16.289-2.555 1.047-3.778 3.967-2.732 6.521.793 1.935 2.659 3.106 4.629 3.106z"/><path d="m162.77 98.336c1.222 0 2.446-.445 3.41-1.345 12.956-12.089 31.836-17.649 49.275-14.507 2.717.49 5.318-1.317 5.807-4.035.489-2.717-1.317-5.317-4.035-5.807-20.479-3.69-42.654 2.84-57.87 17.038-2.019 1.884-2.128 5.048-.245 7.066.986 1.057 2.32 1.59 3.658 1.59z"/><path d="m187.864 117.4c2.415-1.34 3.286-4.383 1.946-6.798-1.339-2.415-4.383-3.287-6.798-1.946-6.382 3.54-14.33 4.285-21.26 1.988-6.929-2.296-12.86-7.638-15.867-14.289-1.137-2.517-4.099-3.635-6.615-2.498-2.517 1.138-3.634 4.1-2.497 6.615 4.137 9.154 12.299 16.506 21.834 19.664 3.658 1.212 7.521 1.809 11.391 1.809 6.218 0 12.452-1.541 17.866-4.545z"/><path d="m117.278 127.201c-6.072-.827-12.77.154-19.906 2.915-2.575.996-3.855 3.892-2.859 6.467.997 2.576 3.893 3.855 6.467 2.859 5.541-2.145 10.569-2.931 14.948-2.333 4.843.66 8.988 3.134 11.088 6.616 2.054 3.407 1.838 8.079-.491 10.636-1.86 2.042-1.712 5.204.329 7.063.958.873 2.164 1.304 3.366 1.304 1.358 0 2.711-.55 3.698-1.633 5.315-5.836 6.015-15.312 1.663-22.533-3.648-6.049-10.49-10.296-18.303-11.361z"/><path d="m217.692 147.497c-13.695 7.956-32.348 7.208-45.361-1.816-2.269-1.574-5.384-1.011-6.958 1.259-1.573 2.27-1.01 5.385 1.26 6.958 8.775 6.086 19.334 9.164 29.896 9.164 9.109 0 18.221-2.291 26.186-6.918 2.388-1.387 3.199-4.447 1.813-6.835s-4.446-3.198-6.836-1.812z"/><path d="m256.649 126.669c-5.191-6.224-13.511-9.723-22.233-9.353-7.433.313-15.077 3.415-21.524 8.736-2.129 1.758-2.431 4.91-.673 7.039 1.757 2.13 4.908 2.431 7.039.674 4.776-3.943 10.309-6.236 15.578-6.458 5.553-.215 10.972 1.976 14.135 5.768 3.197 3.833 3.963 9.515 1.822 13.511-1.304 2.434-.388 5.464 2.046 6.769.751.402 1.56.594 2.357.594 1.784 0 3.51-.957 4.412-2.64 4.051-7.562 2.834-17.695-2.959-24.64z"/><path d="m254.64 104.105c3.255 2.384 7.245 3.564 11.237 3.564 4.392 0 8.787-1.43 12.207-4.261 2.127-1.761 2.424-4.912.664-7.04-1.761-2.126-4.913-2.426-7.04-.663-3.005 2.487-8.012 2.637-11.159.331-2.227-1.631-5.355-1.148-6.988 1.08-1.633 2.229-1.149 5.358 1.079 6.989z"/><path d="m230.174 236.037c-4.004 1.214-8.987-.91-10.881-4.643-1.895-3.73-.67-9.008 2.674-11.524 2.207-1.66 2.649-4.795.989-7.001-1.661-2.207-4.794-2.649-7.002-.989-7.216 5.43-9.667 15.99-5.579 24.042 3.272 6.445 10.314 10.457 17.426 10.457 1.773 0 3.551-.25 5.276-.773 2.643-.802 4.135-3.594 3.333-6.236-.802-2.643-3.595-4.137-6.236-3.333z"/><path d="m248.094 219.627c-2.74-.312-5.22 1.662-5.53 4.407-.311 2.743 1.663 5.22 4.406 5.53 5.145.581 10.018 4.37 11.849 9.213.757 2 2.658 3.231 4.678 3.231.588 0 1.186-.104 1.768-.324 2.583-.978 3.885-3.863 2.908-6.446-3.154-8.336-11.223-14.609-20.079-15.611z"/><path d="m508.954 116.054c0-62.339-50.717-113.056-113.056-113.056-17.58 0-34.235 4.035-49.089 11.225-20.955-7.731-43.817-11.699-68.213-11.699-61.569 0-116.406 11.652-158.583 33.698-23.041 12.043-42.148 27.128-56.788 44.835-15.696 18.983-26.33 41.081-31.608 65.681-6.679 31.13-4.26 63.747 6.985 94.479l-32.973 63.226c-.069.134-.133.271-.19.41-4 9.727-2.894 20.748 2.96 29.485 5.854 8.736 15.626 13.952 26.143 13.952h14.347l-.685 81.461c-.001.122.002.243.01.365 1.362 21.032 12.939 40.104 30.968 51.017 14.841 8.982 32.977 11.615 49.757 7.218l53.48-14.013v30.138c0 2.762 2.239 5 5 5h215.583c2.761 0 5-2.238 5-5v-154.909c5.371-1.188 11.017-4.568 16.85-10.099 24.945-23.653 48.53-81.212 48.53-118.438 0-7.389-.293-14.703-.861-21.928 22.387-20.669 36.433-50.247 36.433-83.048zm-10 0c0 56.825-46.231 103.056-103.056 103.056s-103.056-46.23-103.056-103.056 46.23-103.056 103.056-103.056 103.056 46.231 103.056 103.056zm-235.79 150.619c8.985 30.455 37.182 52.754 70.509 52.754h7.775l10.121 21.731-52.398 24.404-46.057-98.89h10.05zm85.446 42.754h-14.937c-27.755 0-51.395-17.898-60.02-42.754h79.366c14.939 0 31.128-3.885 44.416-10.658 5.595-2.852 10.497-6.115 14.686-9.72-.21 34.846-28.615 63.132-63.511 63.132zm4.411-52.754h-181.945c-20.962 0-38.017-17.054-38.017-38.017 0-1.936.156-3.901.458-5.849 1.938-7.53 8.685-12.776 16.476-12.776h103.817c2.761 0 5-2.238 5-5s-2.239-5-5-5h-103.817c-10.909 0-20.534 6.476-24.766 16.206-21.665-3.762-39.896-17.777-48.151-37.304-2.126-5.029-3.496-10.158-4.138-15.292 5.282 3.037 11.394 4.644 17.494 4.644 5.035 0 10.059-1.091 14.594-3.364 2.469-1.237 3.467-4.242 2.229-6.711-1.237-2.469-4.244-3.466-6.71-2.229-8.881 4.454-20.907 2.229-27.699-5.016 1.126-10.126 5.127-19.963 11.916-28.754 5.27-6.825 11.089-13.282 17.375-19.314 5.884 3.28 10.239 9.49 11.123 16.153.333 2.515 2.481 4.344 4.95 4.344.219 0 .441-.015.664-.044 2.737-.363 4.662-2.877 4.299-5.614-1.163-8.764-6.186-16.751-13.352-21.8 9.162-7.836 19.158-14.817 29.796-20.78l3.436 7.729c.828 1.863 2.656 2.97 4.572 2.97.678 0 1.368-.139 2.028-.432 2.523-1.122 3.66-4.077 2.538-6.601l-3.701-8.324c.128-.063.253-.131.382-.193 11.627-5.683 23.927-10.165 36.614-13.397l6.899 11.341c.941 1.548 2.588 2.402 4.276 2.402.885 0 1.782-.235 2.594-.729 2.359-1.436 3.108-4.511 1.673-6.87l-5.158-8.478c12.587-2.497 25.473-3.777 38.397-3.777 4.271 0 8.445.07 12.547.197-3.017 4.65-4.27 10.453-2.901 15.954.566 2.274 2.605 3.794 4.848 3.794.399 0 .806-.048 1.211-.148 2.68-.667 4.312-3.38 3.645-6.06-1.233-4.958 2.087-10.855 6.966-12.373.341-.106.66-.248.96-.415 15.882 1.155 30.438 3.387 43.866 6.742-14.105 18.862-22.466 42.257-22.466 67.567 0 36.993 17.86 69.893 45.41 90.531-.638.638-1.122 1.445-1.342 2.389-1.2 5.151-3.501 10.02-6.656 14.078-5.824 7.493-14.927 12.635-24.351 13.755-2.742.325-4.701 2.813-4.375 5.555.302 2.542 2.461 4.41 4.958 4.41.197 0 .396-.011.596-.035 12.202-1.45 23.524-7.846 31.066-17.548 3.847-4.95 6.683-10.826 8.261-17.037 17.291 10.743 37.675 16.958 59.487 16.958 6.459 0 12.791-.552 18.957-1.598-8.95 15.282-32.218 29.16-61.833 29.16zm110.36-35.642c0 34.379-22.493 89.45-45.411 111.181-5.623 5.332-10.714 8.038-14.703 7.825-1.372-.075-2.71.421-3.706 1.365s-1.56 2.256-1.56 3.628v154.446h-205.583v-28.77l53.817-17.521c1.591-.519 2.818-1.799 3.268-3.411l9.064-32.474c.742-2.659-.812-5.417-3.472-6.16-2.659-.738-5.418.812-6.16 3.473l-8.344 29.893-66.914 21.785-47.275 12.386c-14.18 3.716-29.504 1.493-42.044-6.099-15.183-9.19-24.951-25.229-26.155-42.93l.726-86.316c.011-1.333-.511-2.616-1.45-3.563s-2.217-1.479-3.55-1.479h-19.388c-7.281 0-13.782-3.47-17.835-9.519-4.013-5.989-4.774-13.236-2.101-19.915l33.894-64.992c.66-1.266.748-2.754.24-4.089-11.231-29.539-13.771-60.986-7.345-90.941 9.659-45.019 37.668-79.926 83.251-103.751 40.753-21.302 93.988-32.561 153.95-32.561 19.984 0 38.872 2.81 56.444 8.29-8.373 5.369-15.994 11.812-22.669 19.132-22.692-6.19-48.464-9.15-78.204-9.15-31.202 0-62.215 7.098-89.687 20.524-26.619 13.012-50.006 31.954-67.633 54.782-15.049 19.488-18.407 44.434-8.981 66.728 9.533 22.55 30.437 38.76 55.267 43.2-.049.879-.073 1.756-.073 2.629 0 26.477 21.54 48.017 48.017 48.017h71.008l50.134 107.645c.56 1.202 1.575 2.132 2.82 2.586.554.202 1.134.303 1.712.303.723 0 1.443-.156 2.111-.468l61.463-28.626c1.202-.56 2.133-1.574 2.587-2.82.454-1.245.395-2.621-.165-3.823l-10.312-22.142c38.77-1.996 69.697-34.165 69.697-73.422v-10.897c2.115-3.253 3.757-6.687 4.931-10.269 13.106-3.764 25.241-9.841 35.939-17.756.243 4.646.38 9.328.38 14.046z"/><path d="m333.702 145.729h32.52v32.52c0 2.762 2.239 5 5 5h49.352c2.761 0 5-2.238 5-5v-32.52h32.52c2.761 0 5-2.238 5-5v-49.351c0-2.762-2.239-5-5-5h-32.52v-32.52c0-2.762-2.239-5-5-5h-49.352c-2.761 0-5 2.238-5 5v32.52h-32.52c-2.761 0-5 2.238-5 5v49.352c0 2.761 2.239 4.999 5 4.999zm5-49.351h32.52c2.761 0 5-2.238 5-5v-32.52h39.352v32.52c0 2.762 2.239 5 5 5h32.52v39.352h-32.52c-2.761 0-5 2.238-5 5v32.52h-39.352v-32.52c0-2.762-2.239-5-5-5h-32.52z"/></g></g></g></svg>