<svg clip-rule="evenodd" fill-rule="evenodd" height="256" image-rendering="optimizeQuality" shape-rendering="geometricPrecision" text-rendering="geometricPrecision" viewBox="0 0 31797 31797" width="256" xmlns="http://www.w3.org/2000/svg"><g id="Layer_x0020_1"><path d="m4649 29040h1595c1823 0 1823-2758 0-2758h-4320c-1823 0-1823-2757 0-2757h4232c1823 0 1824-2757 0-2757h-1520c-1824 0-1824-2757 0-2757h7570 2692 4105c1824 0 1824 2757 0 2757h-760c-1823 0-1823 2757 0 2757h2072c1824 0 1824 2757 0 2757h-2159c-1824 0-1824 2758 0 2758h663c1824 0 1824 2757 0 2757h-3921-2692-7557c-1824 0-1824-2757 0-2757z" fill="#e4ffff"/><path d="m12898 18011h14198c1824 0 1823 2757 0 2757h-1416c-1927 0-2097 2757 211 2757h3982c1823 0 1823 2758 0 2758h-5736c-1824 0-1824 2757 0 2757h1388c1824 0 1823 2757 0 2757h-12627-760c-1824 0-1824-2757 0-2757h760c1836 0 1912-2758 0-2758h-3247c-1823 0-1824-2757 0-2757h2353c2020 63 2259-2757 0-2757h-1437c-1824 0-1824-2757 0-2757zm15976 11029h-9c-758 0-1378 620-1378 1378 0 758 620 1379 1378 1379h9c758 0 1378-621 1378-1379 0-758-620-1378-1378-1378z" fill="#cbeeff"/><rect fill="#ccf5ff" height="23798" rx="985" ry="952" width="17757" x="6074" y="5056"/><path d="m20373 5056h2474c541 0 984 443 984 984v2662m0 7793v2285m0 5528v3561c0 542-443 985-984 985h-15788c-542 0-985-443-985-985v-2900m0-7535v-11394c0-541 443-984 985-984h2404" fill="none" stroke="#001850" stroke-width="496.82"/><path d="m7189 6170h15528v21569h-15528z" fill="#fff"/><path d="m11220 3694h1248c406 0 739-324 749-730 54-2134 3417-2134 3471 0 10 406 343 730 749 730h1248c413 0 749 337 749 750v1864h-8963v-1864c0-413 336-750 749-750z" fill="#fff"/><path d="m11220 3694h1248c406 0 739-324 749-730 54-2134 3417-2134 3471 0 10 406 343 730 749 730h1248c413 0 749 337 749 750v1864h-8963v-1864c0-413 336-750 749-750z" fill="none" stroke="#001850" stroke-width="496.82"/><path d="m11297 4520v962h7312v-962h-1172c-854 0-1553-682-1574-1535-7-257-93-473-308-622-173-120-394-174-602-174-501 0-897 265-910 796-22 853-721 1535-1575 1535z" fill="#0cf"/><path d="m9305 16095h9940" fill="none" stroke="#001850" stroke-linejoin="round" stroke-width="496.82"/><path d="m9305 17796h9940" fill="none" stroke="#001850" stroke-linejoin="round" stroke-width="496.82"/><path d="m14851 25693h3008" fill="none" stroke="#001850" stroke-linejoin="round" stroke-width="496.82"/><path d="m10272 19497h8973" fill="none" stroke="#001850" stroke-linejoin="round" stroke-width="496.82"/><path d="m26799 17600 1044 1130-5452 5039-1963 1180-412-446 1331-1864z" fill="#00a3e0"/><path d="m0 0h1925v10930h-1925z" fill="#fff" transform="matrix(.341 .369 .081 -.075 26992.6 17809.8)"/><path d="m27383 19155 427 494c137 159 123 394-24 530l-2415 2232" fill="none" stroke="#001850" stroke-width="496.82"/><path d="m20222 24726-758 701" fill="none" stroke="#001850" stroke-linecap="round" stroke-linejoin="round" stroke-width="496.82"/><path d="m26799 17600 1044 1130-5452 5039-1963 1180-412-446 1331-1864z" fill="none" stroke="#001850" stroke-width="496.82"/><path d="m26993 17810 656 710 733-676c83-78 88-209 11-292l-376-408c-77-83-209-88-292-11z" fill="none" stroke="#001850" stroke-width="496.82"/><path d="m0 0h1925v10930h-1925z" fill="#0cf" transform="matrix(.087 .094 .03 -.028 27506.2 17825.7)"/><path d="m10132 8564c616 0 1155 328 1452 818 298-490 836-818 1452-818 937 0 1697 760 1697 1697 0 411-147 788-390 1082l-2759 2953-2759-2953c-243-294-389-671-389-1082 0-937 759-1697 1696-1697z" fill="#fff"/><path d="m13045 12847-1461 1564-2759-2953c-243-294-389-671-389-1082 0-937 759-1697 1696-1697 616 0 1155 328 1452 818 298-490 836-818 1452-818 937 0 1697 760 1697 1697" fill="none" stroke="#001850" stroke-width="496.82"/><path d="m9276 11064 2308 2470 2308-2470c158-196 242-436 242-688 0-607-492-1098-1098-1098-386 0-741 201-940 530l-512 843-512-843c-199-329-554-530-940-530-606 0-1098 491-1098 1098 0 252 85 492 242 688z" fill="#002985"/><path d="m10272 21198h4950" fill="none" stroke="#001850" stroke-linejoin="round" stroke-width="496.82"/><path d="m19667 11720h-1986l-830-1044-914 2089-770-1045h-2979" fill="none" stroke="#001850" stroke-width="496.82"/><circle cx="6074" cy="21214" fill="#fff" r="2811"/><circle cx="6074" cy="21214" fill="none" r="2811" stroke="#001850" stroke-width="496.82"/><circle cx="6074" cy="21214" fill="#0cf" r="1946"/><g id="_578039152" fill="none" stroke="#fff" stroke-width="496.82"><path d="m5563 21976c118 268 342 356 592 314 483-80 626-793 79-1002l-319-135c-548-210-405-923 79-1003 249-41 473 46 591 314"/><path d="m6074 19599v545"/><path d="m6074 22284v545"/></g><circle cx="23990" cy="12554" fill="#fff" r="2811"/><circle cx="23990" cy="12554" fill="none" r="2811" stroke="#001850" stroke-width="496.82"/><circle cx="23990" cy="12554" fill="#53b4ed" r="1946"/><g fill="none" stroke-width="496.82"><path d="m25031 11501-1185 1801-993-622" stroke="#fff"/><path d="m1396 1437 295 295m805-295-295 295m-510 510-295 295m805-295 295 295" stroke="#001850"/><path d="m28972 1437 296 295m805-295-296 295m-509 510-296 295m805-295 296 295" stroke="#001850"/><path d="m28972 14195 296 295m805-295-296 295m-509 510-296 295m805-295 296 295" stroke="#001850"/><circle r="710" stroke="#001850" transform="matrix(.506 -.555 .555 .506 27838.7 7239.08)"/><circle r="710" stroke="#001850" transform="matrix(.506 -.555 .555 .506 8462.63 2798.89)"/><circle r="710" stroke="#001850" transform="matrix(.506 -.555 .555 .506 3414.55 12228.8)"/><path d="m1396 17285 295 295m805-295-295 295m-510 510-295 295m805-295 295 295" stroke="#001850"/><path d="m1396 29509 295 295m805-295-295 295m-510 510-295 295m805-295 295 295" stroke="#001850"/><path d="m26768 27211 295 295m805-295-295 295m-510 510-295 295m805-295 295 295" stroke="#001850"/><circle r="710" stroke="#001850" transform="matrix(.506 -.555 .555 .506 30119 21570)"/><path d="m20058 1437 296 295m805-295-296 295m-509 510-296 295m805-295 296 295" stroke="#001850"/></g></g><g id="Layer_x0020_2"><path d="m0 0h31797v31797h-31797z" fill="none"/></g></svg>