<svg id="Capa_1" enable-background="new 0 0 511.991 511.991" height="512" viewBox="0 0 511.991 511.991" width="512" xmlns="http://www.w3.org/2000/svg"><g><g><path d="m476.315 157.128c-12.806-82.317-78.874-122.259-153.429-137.873.009.005 1.869 4.486-.136-.334-5.378-1.137-12.335-3.087-19.442-4.092-34.851-4.781-74.987-9.22-111.518.605-5.855 1.575-11.701 3.412-17.527 5.535.029-.005.058-.009.086-.014-9.074 3.44-16.979 6.689-27.292 12.476-41.465 23.296-70.511 62.149-74.026 116.037-1.193 18.292-9.078 27.131-10.859 34.78-2.164 9.292 7.716 18.834 11.661 28.014 1.652 3.845 1.382 8.277-.668 11.926-8.13 14.473-18.333 24.317-30.538 33.713-7.111 5.474-12.537 10.367-12.518 18.891.022 9.942 6.247 16.437 19.606 20.546 22.393 6.887 1.504 23.107-4.069 27.055-1.173.831-2.02 2.055-2.352 3.454-.549 2.315-.386 5.853 3.79 9.182 5.401 4.306 8.871 7.882 10.626 9.842.759.848.641 2.14-.23 2.873-5.049 4.244-6.183 8.584-6.01 11.931.166 3.223 2.354 5.986 5.412 7.019 2.322.784 5.406 2.05 8.086 3.905 2.55 1.765 4.12 5.953 2.352 9.113-3.281 5.864-7.754 12.888-4.703 25.281 4.703 19.107 20.735 26.176 36.818 28.808 11.284 1.847 34.65-2.069 58.426-5.291 41.988-5.69 61.283 28.971 73.655 58.799l-.002.001c.562 2.135 1.602 4.218 2.999 6.123 4.719 6.435 18.73 7.266 26.994 4.844l138.213-36.766c11.58-2.98 18.01-15.34 13.85-26.56-11.991-32.302-24.879-77.415-9.084-95.653.757-.835.148-.192 1.757-1.811 46.739-42.298 64.574-70.522 69.732-113.934 0 .001-5.61-.014 0 .001 2.039-21.063 3.905-44.305.34-68.426z" fill="#fed2a4"/><path d="m433.61 318.072c10.06-10.581 21.301-23.376 29.811-38.638 15.271-26.059 18.312-58.717 18.524-90.674-.147-17.384-1.317-34.67-6.899-53.015-9.079-30.415-28.482-58.159-55.911-78.665.003.003.005.007.008.01-28.092-21.364-62.846-35.249-98.288-42.67.01 0 .02.01.02.02-5.37-1.14-13.7-2.66-20.81-3.66-37.44-5.14-77.24-5.2-116.4 7.02 31.29-5.99 62.59-5.11 92.4-1.02 7.11 1 15.44 2.52 20.81 3.66 0-.01-.01-.02-.02-.02 74.55 15.61 146.08 59.79 158.89 142.11 1.59 10.78 2.2 21.64 2.2 32.23 0 13.12-.93 25.84-2.06 37.49-3.077 25.846-10.275 46.127-25.461 67.231-7.954 8.972-17.591 18.462-29.299 29.059-.603.572-1.183 1.072-3.02 3.1-16.35 18.87-14.04 55.65 7.04 112.45.71 1.89.14 3.46-.26 4.23-.4.75-1.34 2.09-3.26 2.58l-167.11 44.53c3.82 5.21 10.32 9.1 17.04 9.1 1.58 0 3.17-.21 4.74-.67l149.07-38.43c11.58-2.98 18.01-15.34 13.85-26.56-11.99-32.3-25.57-79.16-9.78-97.4.1-.12.21-.23.31-.35 4.504-4.703 4.034-2.952 23.865-23.048z" fill="#ffbd86"/><g><path d="m298.72 292.826-3.767-40.379 98.383 15.568c.165 3.35-1.984 12.538-2.723 15.993-.709 3.315 2.3 7.016.824 9.932-7.188 14.212-22.707 23.144-39.135 21.416-10.319-1.086-19.191-6.019-25.453-13.164-.474-.54-1.182-.79-1.891-.677-3.01.482-6.146.506-9.32.003-5.267-.833-13.536-4.475-16.918-8.692z" fill="#dc4955"/><path d="m394.746 284.57c-.71 3.31-1.83 6.45-3.31 9.37-6.32 1.7-12.88 2.58-19.5 2.58 0 0 0 0-.01 0-3.97 0-7.99-.32-11.94-.95-9.87-1.56-19.19-4.99-27.56-10.08-9.33 5.99-20.24 9.26-31.56 9.26h-.24c-.74-.62-5.142-1.665-5.672-2.324l-13.487-52.916 114.17 29.62c.159 3.35-.151 11.98-.891 15.44z" fill="#d82f3c"/><path d="m285.998 257.292 24.444 81.155c1.557 5.066-2.735 10.01-7.97 9.181l-20.481-3.82c-5.553-.88-10.243-4.598-12.365-9.804l-3.628-4.606-27.812-68.952z" fill="#df646e"/><path d="m305.136 348.83-24.45-3.87c-5.55-.88-10.24-4.6-12.37-9.81l-2.32-5.75 27.21 5.14c2.94.56 5.43-2.2 4.57-5.07l-21.29-71.55 12-.79 24.62 82.52c1.56 5.06-2.73 10.01-7.97 9.18z" fill="#dc4955"/><path d="m433.506 158.83c3.627-22.393-6.504-44.811-27.158-53.128-2.55-1.027-5.216-1.842-7.983-2.421-1.766-.369-3.19-1.643-3.742-3.36-5.451-16.946-20.013-30.281-38.797-33.256-13.108-2.076-25.822 1.28-35.85 8.402-2.221 1.577-5.273 1.137-6.891-1.055-8.665-11.74-21.767-20.214-37.317-22.677-19.943-3.159-39.113 4.329-51.727 18.256-1.435 1.584-3.698 2.142-5.654 1.281-3.374-1.485-6.991-2.568-10.803-3.172-22.544-3.571-43.78 10.728-49.316 32.411-.46 1.802-1.862 3.193-3.669 3.631-19.677 4.767-35.541 20.914-38.906 42.16-1.696 10.709.035 21.166 4.371 30.268.735 1.543.611 3.341-.298 4.788-3.696 5.881-6.104 12.728-6.744 20.222-1.901 22.235 13.1 42.801 34.857 47.768 14.116 3.223 27.976-.481 38.29-8.71 1.238-.987 2.424-2.04 3.554-3.153l.063.011c2.319 15.373 13.882 26.466 30.056 29.028 4.928.781 9.78.536 14.344-.57 4.333 5.725 11.242 8.256 18.894 9.468 9.622 1.524 20.144-.374 26.448-6.873 4.737 3.175 9.421 4.794 15.424 5.745 14.507 2.298 27.942-1.054 36.8-11.487l.038.007c1.888 1.812 3.903 3.501 6.034 5.051 7.666 5.577 17.886 6.3 28.022 7.556 29.739 3.685 52.656-14.334 58.723-43.681 3.031-14.662.273-27.708-6.638-39.573-1.14-1.957-.886-4.431.718-6.03 7.053-7.029 13.181-16.32 14.857-26.907z" fill="#df646e"/><path d="m422.636 185.45c-1.6 1.6-1.86 4.07-.72 6.03 6.91 11.86 9.68 26.25 6.64 40.91-6.06 29.35-34.03 49.37-63.77 45.69-10.13-1.26-19.29-5.03-26.95-10.63 2.67.73 5.42 1.27 8.25 1.62 30.17 3.74 58.54-16.58 64.7-46.35 3.07-14.87.27-29.47-6.74-41.5-1.16-1.99-.9-4.5.73-6.12 7.15-7.13 12.2-16.5 13.9-27.24 2.59-16-3.17-31.89-14.12-42.84 21.69 7.73 35.52 30.53 31.78 53.57-1.67 10.59-6.65 19.83-13.7 26.86z" fill="#dc4955"/><g><path d="m328.763 268.016c-9.804 6.629-22.018 9.61-34.464 7.639-4.998-.792-9.752-2.329-14.195-4.585-6.242 4.597-13.809 7.086-21.556 7.086-1.879 0-3.768-.146-5.651-.444-7.714-1.223-14.71-4.836-20.119-10.321-4.193.555-8.438.496-12.671-.173-20.658-3.272-36.036-20.797-37.165-41.188-11.239-5.156-18.49-16.732-17.831-29.503l14.98.774c-.394 7.609 4.698 14.39 12.107 16.12 3.613.845 6.065 4.204 5.769 7.903-1.208 15.061 9.548 28.712 24.486 31.078 3.827.605 7.666.455 11.405-.451 2.908-.706 5.945.383 7.746 2.763 3.34 4.412 8.183 7.318 13.638 8.183 6.836 1.079 13.796-1.246 18.628-6.228 2.523-2.601 6.548-3.024 9.559-1.007 3.998 2.68 8.445 4.422 13.218 5.179 15.852 2.517 34.091-1.831 39.327-16.99z" fill="#dc4955"/></g></g><path d="m287.144 229.834c-4.207 4.201-11.022 4.201-15.229 0l-5.011-3.003-47.428-47.359c-2.813-2.79-9.905-10.643-9.905-24.67.001-20.936 16.972-37.908 37.908-37.908 11.788-.153 23.563 6.186 30.43 15.425.817 1.099 2.431 1.098 3.243-.004 6.892-9.354 17.917-15.422 30.435-15.422 6.643 0 12.889 1.795 18.32 4.915 11.665 6.702 15.887 21.475 15.897 35.744.008 11.307-6.741 21.929-11.362 22.723-5.225.898.056-.056 0 0z" fill="#dc4955"/><path d="m349.486 155.6c.01 11.3-6.71 20.27-9.82 23.78-.05.06-.1.11-.16.17l-52.36 52.28c-4.21 4.21-11.02 4.21-15.23 0l-5.01-5 58.6-59.28c.06-.06.11-.11.16-.17 3.11-3.51 9.83-12.48 9.82-23.78-.01-8.42-2.75-16.33-7.4-22.77 12.66 6.37 21.39 19.77 21.4 34.77z" fill="#d82f3c"/></g><g><path d="m419.462 416.577c-1.247-3.95-5.459-6.143-9.408-4.898-3.951 1.246-6.144 5.458-4.898 9.408 2.038 6.464 4.401 13.325 7.023 20.395 1.27 3.421 1.039 7.081-.647 10.308-1.678 3.211-4.534 5.477-8.043 6.381l-149.07 38.426c-6.109 1.576-12.503-1.64-14.872-7.478-8.895-21.909-29.716-73.222-82.692-66.039-3.715.503-7.42 1.023-11.07 1.536-18.062 2.537-36.737 5.159-45.136 3.785-17.798-2.914-27.568-10.285-30.747-23.199-2.042-8.198.488-14.178 3.967-19.827 3.919-7.008.648-15.288-4.628-18.939-3.53-2.444-7.465-4.033-10.333-4.976-.076-1.622.69-4.083 4.57-6.88 1.645-1.187 2.739-2.988 3.033-4.994.295-2.007-.235-4.047-1.47-5.655.051-.466-6.86-7.403-14.357-13.884 6.214-4.415 18.073-14.412 16.533-25.468-.645-4.625-3.821-10.879-15.295-14.408-12.559-3.862-14.3-8.72-14.311-13.394-.011-4.767 2.819-7.716 9.593-12.931 10.707-8.242 22.941-18.963 32.502-35.983 3.191-5.682 3.572-12.62 1.02-18.563-1.513-3.52-3.614-6.848-5.646-10.065-3.122-4.945-6.351-10.06-5.6-13.284.409-1.756 1.515-4.093 2.795-6.8 3.104-6.559 7.354-15.542 8.244-29.193.324-4.981.888-9.925 1.675-14.692.674-4.087-2.093-7.946-6.18-8.621-4.089-.667-7.946 2.094-8.621 6.18-.866 5.251-1.485 10.688-1.843 16.157-.704 10.798-3.961 17.682-6.834 23.755-1.58 3.34-3.073 6.494-3.846 9.813-2.173 9.332 2.979 17.494 7.525 24.694 1.802 2.853 3.503 5.547 4.549 7.98.721 1.679.603 3.657-.316 5.294-6.641 11.821-14.919 20.932-28.574 31.443-6.161 4.743-15.471 11.911-15.442 24.85.03 13.307 8.408 22.626 24.901 27.698 3.202.984 4.433 1.943 4.813 2.31-.459 2.51-6.238 8.38-12.036 12.162-.817.53-1.524 1.215-2.08 2.015-3.333 4.799-4.964 14.592 4.202 21.901 2.499 1.992 4.542 3.81 6.15 5.339-6.771 8.718-5.024 18.409-1.438 23.667 2.774 3.767 7.312 2.955 13.341 6.705-3.256 5.708-8.654 15.284-5.128 30.181 4.662 18.941 19.092 30.521 42.889 34.416 10.65 1.743 28.722-.795 49.645-3.733 3.628-.51 7.309-1.026 10.999-1.527 36.412-4.926 53.614 24.392 66.779 56.817 4.297 10.588 14.64 17.232 25.66 17.231 2.271 0 4.572-.282 6.854-.87l149.07-38.426c7.563-1.949 13.975-7.037 17.593-13.957 3.626-6.937 4.143-15.128 1.417-22.474-2.536-6.838-4.818-13.462-6.781-19.689z"/><path d="m410.332 41.712c-41.454-26.509-98.439-41.712-156.345-41.712-38.87 0-75.469 8.399-105.837 24.291-32.6 17.058-56.943 42.368-70.4 73.194-1.657 3.797.077 8.218 3.873 9.875 3.797 1.653 8.217-.077 9.875-3.873 23.826-54.581 86.087-88.487 162.489-88.487 55.119 0 109.159 14.342 148.264 39.349 47.188 30.176 72.13 75.169 72.13 130.116 0 68.1-8.952 96.001-68.215 149.634-10.63 9.619-13.786 26.663-9.646 52.105.599 3.681 3.781 6.297 7.394 6.297.399 0 .806-.032 1.213-.099 4.089-.665 6.863-4.519 6.198-8.606-3.166-19.466-1.47-32.806 4.906-38.576 62.577-56.632 73.15-89.809 73.15-160.755-.001-60.32-27.336-109.684-79.049-142.753z"/><path d="m149.784 256.949c2.712.43 5.438.641 8.15.641 9.836 0 19.505-2.785 27.847-7.949 5.955 13.175 18.226 23.185 33.325 25.577 4.233.669 8.478.728 12.671.173 1.853 1.879 3.903 3.52 6.093 4.938l23.503 57.653c3.093 7.589 10.042 13.1 18.138 14.382l24.453 3.873c.78.124 1.559.185 2.33.185 4.21 0 8.217-1.805 11.039-5.055 3.34-3.848 4.439-9.052 2.943-13.922l-8.724-28.39c2.28.412 4.689.619 9.127.454 6.864 6.893 15.751 11.455 25.432 12.988 2.443.388 4.886.578 7.313.578 9.656 0 19.04-3.03 27.003-8.816 9.965-7.239 16.513-17.925 18.438-30.087.22-1.389.366-2.79.46-4.192 3.82-1.777 7.498-3.934 10.982-6.466 14.136-10.27 23.426-25.43 26.158-42.687 2.275-14.361-.26-28.873-7.15-41.502 7.615-8.16 12.671-18.451 14.431-29.563 2.351-14.84-1.219-29.707-10.05-41.862-7.962-10.959-19.341-18.531-32.391-21.641-6.789-19.439-23.718-33.742-44.309-37.003-13.848-2.197-27.802.829-39.378 8.341-8.413-10.56-19.875-18.243-32.97-21.971-3.984-1.14-8.133 1.175-9.267 5.159-1.135 3.983 1.176 8.133 5.159 9.267 12.105 3.447 22.402 11.301 28.994 22.114 1.154 1.894 3.088 3.179 5.28 3.511 2.201.335 4.421-.323 6.084-1.789 9.265-8.168 21.565-11.744 33.751-9.817 16.279 2.579 29.438 14.57 33.523 30.549.747 2.923 3.173 5.113 6.157 5.56l.31.04c10.883 1.725 20.442 7.583 26.919 16.497s9.095 19.817 7.371 30.699c-1.539 9.714-6.516 18.574-14.012 24.949-2.917 2.48-3.497 6.759-1.347 9.927 7.221 10.637 10.09 23.488 8.078 36.188-2.106 13.3-9.267 24.983-20.16 32.898-10.895 7.915-24.222 11.114-37.519 9.008-8.08-1.28-15.601-4.448-22.072-9.242 1.736-2.868 3.2-5.95 4.334-9.23 1.353-3.915-.725-8.186-4.64-9.538-3.916-1.352-8.186.726-9.538 4.64-5.236 15.159-20.56 24.341-36.411 21.824-4.772-.757-9.22-2.499-13.218-5.179-3.011-2.018-7.035-1.594-9.559 1.007-4.832 4.981-11.792 7.307-18.628 6.228-5.455-.864-10.298-3.771-13.638-8.183-1.801-2.38-4.838-3.469-7.746-2.763-3.739.906-7.578 1.057-11.405.451-14.938-2.366-25.694-16.018-24.486-31.078.297-3.699-2.155-7.059-5.769-7.903-7.409-1.73-12.501-8.511-12.107-16.12.259-5.019 2.811-9.498 7-12.29 3.447-2.298 4.379-6.954 2.082-10.4-2.297-3.447-6.954-4.377-10.4-2.082-8.056 5.369-13.162 14.34-13.662 23.998-.659 12.761 6.581 24.328 17.806 29.49-8.32 6.873-18.993 9.826-29.786 8.118-20.506-3.248-34.547-22.574-31.3-43.079.928-5.851 3.144-11.247 6.586-16.04 1.679-2.337 1.872-5.429.497-7.957-4.683-8.614-6.347-18.291-4.813-27.984 2.94-18.562 17.343-33.264 35.839-36.586 3.077-.553 5.489-2.957 6.052-6.033 3.517-19.242 22.097-32.404 41.42-29.347 4.087.646 8 1.972 11.63 3.938 3.201 1.734 7.185.919 9.447-1.933 5.938-7.483 13.844-13.097 22.861-16.233 3.912-1.361 5.979-5.637 4.619-9.549-1.362-3.91-5.633-5.976-9.549-4.619-9.817 3.416-18.62 9.093-25.753 16.565-3.505-1.392-7.156-2.392-10.909-2.985-13.328-2.111-26.733 1.026-37.738 8.841-9.595 6.813-16.44 16.516-19.631 27.687-22.389 6.014-39.429 24.711-43.103 47.908-1.816 11.47-.288 22.925 4.418 33.397-3.391 5.703-5.635 11.934-6.688 18.583-4.536 28.676 15.098 55.699 43.773 60.241zm222.216 29.073c3.835 0 7.637-.349 11.376-1.015-1.829 6.879-5.926 12.875-11.764 17.116-6.723 4.884-14.94 6.86-23.152 5.559-7.487-1.187-14.271-5.061-19.102-10.909-1.76-2.131-4.551-3.123-7.258-2.577-2.511.505-5.081.556-7.636.151-3.021-.479-5.895-1.599-8.43-3.252l-2.132-6.937c10.559-.664 20.47-4.794 28.296-11.532 8.574 6.554 18.62 10.865 29.43 12.577 3.465.548 6.929.819 10.372.819zm-92.896-6.952c2.744 1.393 5.607 2.51 8.573 3.349l18.105 58.919-23.923-3.789c-2.943-.467-5.47-2.47-6.594-5.229l-18.837-46.208c6.739.317 15.81-2.008 22.676-7.042z"/><path d="m325.816 182.621c-2.931 2.927-2.935 7.675-.007 10.606 2.927 2.932 7.676 2.933 10.606.007 10.246-10.489 18.9-16.673 20.571-37.644-.018-25.474-20.384-46.197-45.399-46.197-12.229 0-23.652 4.846-32.058 13.309-8.405-8.463-19.825-13.309-32.051-13.309-25.036 0-45.406 20.37-45.407 45.407-.001 11.756 4.191 22.128 12.104 29.979l52.439 52.361c3.561 3.557 8.237 5.333 12.914 5.333 4.676 0 9.354-1.777 12.914-5.332l19.123-19.095c2.931-2.927 2.935-7.676.008-10.607-2.928-2.931-7.676-2.935-10.607-.008l-19.123 19.096c-1.275 1.273-3.354 1.274-4.629-.001l-52.457-52.379c-5.029-4.989-7.688-11.679-7.687-19.346.001-16.767 13.642-30.408 30.407-30.408 10.482 0 20.088 5.342 25.694 14.29 1.371 2.188 3.772 3.518 6.355 3.518s4.983-1.329 6.355-3.518c5.607-8.948 15.216-14.29 25.703-14.29 16.467 0 30.388 14.291 30.399 31.207-.788 13.838-8.817 19.44-16.167 27.021z"/></g></g></svg>