<svg id="Layer_1" height="512" viewBox="0 0 512 512" width="512" xmlns="http://www.w3.org/2000/svg" data-name="Layer 1"><path d="m162.27 190.67c27.392 0 50.941 18.709 61.334 45.512.861 2.221.595 4.522-.752 6.488-1.346 1.966-3.395 3.046-5.778 3.046h-109.608c-2.383 0-4.432-1.08-5.778-3.046s-1.613-4.267-.751-6.488c10.393-26.803 33.942-45.512 61.333-45.512z" fill="#f9ac00" fill-rule="evenodd"/><path d="m170.37 191.224c23.874 3.275 43.881 20.837 53.234 44.957.861 2.221.595 4.522-.752 6.488-1.346 1.966-3.395 3.046-5.778 3.046h-93.408c-2.383 0-4.432-1.08-5.778-3.046s-1.613-4.267-.752-6.488c9.352-24.12 29.36-41.682 53.234-44.957z" fill="#fdc72e" fill-rule="evenodd"/><circle cx="162.27" cy="160.762" fill="#f9c795" r="29.907" transform="matrix(.973 -.23 .23 .973 -32.595 41.583)"/><path d="m168.57 131.522c13.492 2.893 23.608 14.884 23.608 29.24s-10.116 26.347-23.608 29.24c-13.492-2.893-23.607-14.885-23.607-29.24s10.116-26.347 23.607-29.24z" fill="#fdd7ad" fill-rule="evenodd"/><path d="m98.765 275.475c8.06-6.274 20.806-6.698 33.057 6.597 19.507 21.169 26.868 28.259 48.563 47.711 13.855 12.422 15.254 31.445 15.254 50.053 0 31.436 2.458 47.74 8.166 78.653h-92.009c3.91-43.069-5.806-58.441-26.138-80.825-19.109-21.04-22.928-22.221-32.201-50.909l-37.365-129.938c-9.452-32.87 27.236-36.827 35.338-10.565 9.786 31.706 31.301 80.064 41.435 96.337 1.237-2.592 3.163-4.984 5.9-7.114z" fill="#fdd7ad" fill-rule="evenodd"/><path d="m98.765 275.475c6.405-4.986 15.768-6.276 25.492.075-5.032.067-9.916 2.081-13.375 4.773-3.117 2.42-4.681 5.208-4.914 8.762-1.099 16.702 25.118 43.293 37.717 56.062 2.137 2.165 3.973 4.035 5.481 5.622 2.669 2.834 2.539 7.294-.295 9.975-2.834 2.669-7.305 2.544-9.975-.295-1.388-1.468-3.185-3.293-5.259-5.396-20.93-21.219-43.152-45.645-41.752-66.898.13-1.921.448-3.774.98-5.566 1.237-2.592 3.163-4.984 5.9-7.114zm27.832 183.014.777-12.156c1.23-38.057-10.717-54.34-28.711-74.13-2.612-2.885-4.942-5.389-7.033-7.645-13.024-14.021-16.123-17.371-23.644-40.59l-39.352-133.926c-2.766-9.618-.896-16.668 4.891-18.391 1.888-.562 4.643-.445 7.523.482-13.287-8.308-32.025.1-24.957 24.684l37.364 129.937c9.274 28.688 13.093 29.869 32.201 50.909 20.332 22.385 30.048 37.757 26.138 80.825h14.801z" fill="#e6b17c" fill-rule="evenodd"/><path d="m102.049 454.069h109.987c4.661 0 8.446 3.784 8.446 8.446v30.02c0 4.661-3.784 8.446-8.446 8.446h-109.987c-4.661 0-8.445-3.784-8.445-8.445v-30.02c0-4.661 3.784-8.446 8.446-8.446z" fill="#2a92fa"/><g fill-rule="evenodd"><path d="m126.88 500.98h-24.831c-4.645 0-8.446-3.8-8.446-8.446v-30.02c0-4.645 3.8-8.446 8.446-8.446h24.831v46.911z" fill="#0e82f5"/><path d="m256.002 29.447c-65.229-59.671-156.298 36.151 0 132.283 156.298-96.132 65.229-191.954 0-132.283z" fill="#f0414a"/><path d="m256.002 29.447c-6.528-5.971-13.314-10.361-20.085-13.374-52.837-12.517-90.234 60.95 29.654 139.546 142.838-94.013 54.277-184.578-9.569-126.172z" fill="#fb545c"/><path d="m349.734 190.67c27.392 0 50.941 18.709 61.334 45.512.861 2.221.595 4.522-.751 6.488s-3.395 3.046-5.778 3.046h-109.609c-2.383 0-4.432-1.08-5.778-3.046s-1.613-4.267-.751-6.488c10.393-26.803 33.942-45.512 61.334-45.512z" fill="#3bd97d"/><path d="m357.834 191.224c23.874 3.275 43.881 20.837 53.234 44.957.861 2.221.595 4.522-.751 6.488s-3.395 3.046-5.778 3.046h-93.409c-2.383 0-4.432-1.08-5.778-3.046s-1.613-4.267-.752-6.488c9.352-24.12 29.36-41.682 53.234-44.957z" fill="#4fe88e"/></g><circle cx="349.734" cy="160.762" fill="#f9c795" r="29.907" transform="matrix(.993 -.122 .122 .993 -17.022 43.936)"/><path d="m356.034 131.522c13.492 2.893 23.607 14.884 23.607 29.24s-10.116 26.347-23.607 29.24c-13.492-2.893-23.607-14.885-23.607-29.24s10.116-26.347 23.607-29.24z" fill="#fdd7ad" fill-rule="evenodd"/><path d="m256.002 208.942c31.015 0 57.62 21.468 68.986 52.058.824 2.218.535 4.494-.815 6.436s-3.385 3.006-5.75 3.006h-124.841c-2.366 0-4.4-1.064-5.75-3.006-1.35-1.941-1.639-4.219-.815-6.436 11.366-30.591 37.971-52.058 68.985-52.058z" fill="#0e82f5" fill-rule="evenodd"/><path d="m265.002 209.555c27.093 3.695 49.737 23.86 59.986 51.446.824 2.218.535 4.494-.815 6.436s-3.385 3.006-5.75 3.006h-106.841c-2.366 0-4.4-1.064-5.75-3.006-1.35-1.941-1.639-4.219-.815-6.436 10.249-27.586 32.892-47.75 59.985-51.446z" fill="#2a92fa" fill-rule="evenodd"/><circle cx="256.002" cy="175.528" fill="#f9c795" r="33.414" transform="matrix(.973 -.23 .23 .973 -33.48 63.513)"/><path d="m263.802 143.031c14.691 3.514 25.614 16.729 25.614 32.497s-10.923 28.983-25.614 32.497c-14.691-3.513-25.614-16.729-25.614-32.497s10.923-28.983 25.614-32.497z" fill="#fdd7ad" fill-rule="evenodd"/><path d="m413.239 275.475c-8.06-6.274-20.805-6.698-33.057 6.597-19.507 21.169-26.868 28.259-48.563 47.711-13.855 12.422-15.254 31.445-15.254 50.053 0 31.436-2.458 47.74-8.166 78.653h92.009c-3.91-43.069 5.806-58.441 26.138-80.825 19.109-21.04 22.928-22.221 32.201-50.909l37.364-129.937c9.452-32.87-27.236-36.827-35.338-10.565-9.786 31.706-31.301 80.064-41.435 96.337-1.237-2.592-3.163-4.984-5.9-7.114z" fill="#fdd7ad" fill-rule="evenodd"/><path d="m413.239 275.475c-6.405-4.986-15.768-6.276-25.492.075 5.032.067 9.916 2.081 13.375 4.773 3.117 2.42 4.681 5.208 4.914 8.762 1.099 16.702-25.118 43.293-37.717 56.062-2.137 2.165-3.973 4.035-5.481 5.622-2.669 2.834-2.539 7.294.295 9.975 2.834 2.669 7.305 2.544 9.975-.295 1.388-1.468 3.185-3.293 5.259-5.396 20.93-21.219 43.152-45.645 41.752-66.898-.13-1.921-.448-3.774-.98-5.566-1.237-2.592-3.163-4.984-5.9-7.114zm-27.832 183.014-.777-12.156c-1.23-38.057 10.717-54.34 28.711-74.13 2.613-2.885 4.942-5.389 7.033-7.645 13.024-14.021 16.123-17.371 23.644-40.59l39.351-133.925c2.766-9.618.895-16.668-4.891-18.391-1.888-.562-4.643-.445-7.524.482 13.287-8.308 32.026.1 24.957 24.684l-37.364 129.937c-9.274 28.688-13.093 29.869-32.201 50.909-20.332 22.385-30.048 37.757-26.138 80.825z" fill="#e6b17c" fill-rule="evenodd"/><path d="m299.968 454.069h109.987c4.661 0 8.445 3.784 8.445 8.445v30.02c0 4.661-3.784 8.445-8.445 8.445h-109.987c-4.661 0-8.445-3.784-8.445-8.445v-30.02c0-4.661 3.784-8.446 8.446-8.446z" fill="#2a92fa"/><path d="m385.124 500.98h24.831c4.645 0 8.445-3.8 8.445-8.446v-30.02c0-4.645-3.8-8.446-8.445-8.446h-24.831v46.911z" fill="#0e82f5" fill-rule="evenodd"/><path d="m105.601 237.991c9.957-25.705 32.208-42.315 56.666-42.315 18.132 0 35.484 9.302 47.214 25.093-6.802 5.496-12.833 12.217-17.853 19.948h-84.167c-.728 0-1.243-.265-1.648-.872-.414-.602-.482-1.17-.212-1.854zm195.916-231.973h-5.19c-13.686.648-27.767 6.417-40.325 16.808-12.561-10.391-26.643-16.16-40.33-16.808h-5.19c-5.092.248-10.094 1.229-14.904 2.968-16.576 5.988-27.94 20.266-30.397 38.187-4.36 31.809 18.566 68.704 63.059 101.852-6.59 6.898-10.651 16.234-10.651 26.505 0 13.185 6.682 24.838 16.832 31.761-5.872 1.85-11.489 4.442-16.769 7.703-9.172-12.424-21.403-21.408-34.95-25.951 8.758-6.349 14.476-16.654 14.476-28.278 0-19.245-15.656-34.906-34.911-34.906s-34.906 15.661-34.906 34.906c0 11.61 5.699 21.909 14.452 28.258-20.035 6.701-36.891 23.046-45.543 45.355-1.45 3.748-.978 7.804 1.291 11.118 2.269 3.319 5.877 5.222 9.9 5.222h78.517c-1.329 2.755-2.558 5.602-3.647 8.546-1.392 3.734-.882 7.756 1.388 11.027 2.283 3.276 5.872 5.155 9.861 5.155h124.841c3.989 0 7.578-1.879 9.861-5.155 2.269-3.271 2.78-7.293 1.387-11.027-1.089-2.943-2.317-5.79-3.647-8.546h78.517c4.022 0 7.631-1.903 9.9-5.222s2.741-7.371 1.291-11.118c-8.652-22.309-25.498-38.654-45.543-45.355 8.753-6.349 14.452-16.649 14.452-28.258 0-19.245-15.661-34.906-34.906-34.906s-34.911 15.661-34.911 34.906c0 11.624 5.718 21.928 14.481 28.278-13.551 4.543-25.782 13.527-34.945 25.951-5.289-3.261-10.906-5.853-16.779-7.703 10.16-6.923 16.832-18.576 16.832-31.761 0-10.271-4.061-19.606-10.651-26.505 44.493-33.148 67.418-70.043 63.058-101.852-2.457-17.921-13.816-32.199-30.397-38.187-4.81-1.739-9.812-2.719-14.904-2.968zm-164.155 154.746c0-13.734 11.171-24.905 24.905-24.905s24.915 11.171 24.915 24.905-11.181 24.905-24.915 24.905-24.905-11.171-24.905-24.905zm182.937 101.983c-11.017-29.646-36.25-48.804-64.297-48.804s-53.284 19.158-64.301 48.804c-.25.674-.183 1.243.236 1.84.414.593.92.858 1.643.858h124.841c.732 0 1.228-.265 1.652-.858.41-.593.477-1.161.226-1.84zm-92.709-87.218c0-15.666 12.742-28.413 28.412-28.413s28.408 12.747 28.408 28.413-12.742 28.417-28.408 28.417-28.412-12.747-28.412-28.417zm-52.499-126.999c1.97-14.38 10.68-25.368 23.889-30.142 16.841-6.084 36.9-.573 53.65 14.751 1.908 1.749 4.832 1.749 6.749 0 16.74-15.324 36.799-20.84 53.641-14.751 13.209 4.774 21.919 15.762 23.889 30.142 1.874 13.604-.477 49.715-61.218 94.029-5.762-3.454-12.501-5.444-19.688-5.444s-13.932 1.99-19.693 5.444c-60.742-44.315-63.088-80.425-61.218-94.029zm174.642 147.145c24.457 0 46.709 16.61 56.666 42.315.27.684.202 1.252-.212 1.854-.404.607-.915.872-1.648.872h-84.168c-5.02-7.732-11.051-14.452-17.853-19.948 11.73-15.791 29.082-25.093 47.214-25.093zm-24.915-34.911c0-13.734 11.181-24.905 24.915-24.905s24.906 11.171 24.906 24.905-11.167 24.905-24.906 24.905-24.915-11.171-24.915-24.905zm166.284 34.67-37.344 129.841c-7.645 23.672-11.147 27.434-24.096 41.386-2.091 2.25-4.413 4.75-7.009 7.616-18.58 20.454-29.872 35.918-28.095 74.794h-79.548c4.48-25.247 6.369-41.381 6.369-69.263 0-17.27 1.05-35.075 13.59-46.318 21.254-19.048 28.822-26.254 48.901-48.038 8.912-9.668 18.744-11.928 26.303-6.041 3.569 2.775 5.429 6.128 5.699 10.247 1.161 17.626-25.488 44.652-38.302 57.639-2.115 2.153-3.955 4.017-5.439 5.583-1.888 2.009-1.797 5.174.212 7.067 2.009 1.898 5.169 1.807 7.067-.202 1.402-1.488 3.204-3.314 5.285-5.424 20.618-20.907 42.499-44.916 41.159-65.318-.13-2.095-.52-4.085-1.141-5.974 10.901-18.575 31.24-64.831 40.639-95.301 3.363-10.901 12.54-15.276 19.472-13.214 6.98 2.081 9.389 10.097 6.282 20.922zm-77.703 267.082v30.021c0 1.869-1.58 3.444-3.449 3.444h-109.979c-1.898 0-3.449-1.547-3.449-3.444v-30.021c0-1.898 1.551-3.444 3.449-3.444h109.979c1.869 0 3.449 1.58 3.449 3.444zm74.273-297.589c10.367 3.093 18.417 14.572 13.041 33.273l-37.363 129.918c-.01.053-.029.106-.048.154-8.353 25.85-12.881 30.725-26.312 45.191-2.066 2.231-4.36 4.702-6.937 7.539-18.46 20.32-27.15 33.924-25.479 68.069h5.376c7.423 0 13.45 6.031 13.45 13.445v30.021c0 7.414-6.026 13.445-13.45 13.445h-109.979c-7.419 0-13.45-6.031-13.45-13.445v-30.021c0-7.414 6.031-13.445 13.45-13.445h4.88c4.601-25.667 6.532-41.501 6.532-69.263 0-18.677 1.306-39.772 16.918-53.766 20.96-18.792 28.432-25.898 48.216-47.369 15.102-16.388 30.874-14.095 39.805-7.153.809.636 1.566 1.291 2.289 1.98 10.969-20.209 28.639-61.05 37.18-88.715 5.198-16.827 20.29-23.311 31.881-19.857zm-272.193 327.61c0 1.869-1.58 3.444-3.449 3.444h-109.979c-1.898 0-3.449-1.547-3.449-3.444v-30.021c0-1.864 1.58-3.444 3.449-3.444h109.979c1.869 0 3.449 1.58 3.449 3.444zm-126.131-118.26c18.055 19.867 29.843 35.98 28.094 74.794h79.548c-4.48-25.247-6.368-41.337-6.368-69.263 0-17.27-1.05-35.079-13.59-46.318-21.254-19.048-28.832-26.254-48.901-48.038-8.912-9.668-18.739-11.928-26.302-6.041-3.57 2.775-5.429 6.128-5.699 10.247-1.161 17.626 25.488 44.652 38.302 57.639 2.115 2.153 3.955 4.017 5.439 5.583 1.889 2.009 1.797 5.174-.212 7.067-2.009 1.898-5.169 1.807-7.067-.202-1.402-1.488-3.204-3.314-5.285-5.429-20.618-20.902-42.498-44.912-41.159-65.313.13-2.095.52-4.085 1.142-5.974-10.849-18.494-31.313-65.072-40.639-95.296-3.363-10.906-12.539-15.285-19.471-13.219-6.98 2.081-9.389 10.097-6.282 20.922l37.344 129.841c7.645 23.677 11.138 27.434 24.096 41.386 2.091 2.25 4.413 4.75 7.009 7.616zm122.682 74.794h-4.88c-4.601-25.667-6.532-41.458-6.532-69.263 0-18.677-1.305-39.772-16.918-53.766-20.96-18.792-28.432-25.903-48.207-47.369-15.112-16.388-30.893-14.095-39.815-7.153-.809.636-1.566 1.291-2.279 1.975-10.959-20.204-28.73-61.281-37.19-88.711-5.198-16.827-20.29-23.311-31.876-19.857-10.372 3.093-18.421 14.572-13.045 33.273l37.363 129.918c.01.053.029.106.048.154 8.353 25.85 12.882 30.725 26.312 45.191 2.072 2.226 4.36 4.702 6.937 7.539 18.47 20.334 27.15 33.914 25.484 68.069h-5.381c-7.424 0-13.45 6.031-13.45 13.445v30.021c0 7.414 6.027 13.445 13.45 13.445h109.979c7.418 0 13.45-6.031 13.45-13.445v-30.021c0-7.414-6.031-13.445-13.45-13.445z" fill-rule="evenodd"/></svg>