<svg enable-background="new 0 0 256 256" height="512" viewBox="0 0 256 256" width="512" xmlns="http://www.w3.org/2000/svg"><g id="Layer_26"><g><g><path d="m164.768 44.484c-5.287-4.123-13.075-9.145-22.373-12.003-1.397-.429-2.883.14-3.716 1.341-2.347 3.381-6.25 5.597-10.678 5.597-4.427 0-8.331-2.216-10.677-5.597-.833-1.201-2.319-1.771-3.716-1.341-9.3 2.859-17.09 7.883-22.377 12.007-1.11.865-1.394 2.42-.648 3.613 1.713 2.741 4.74 7.583 6.562 10.499.807 1.292 2.514 1.669 3.796.845 3.196-2.056 6.244-3.392 8.223-4.146 1.097-.418 2.267.398 2.267 1.572v18.165c0 2.109 1.71 3.819 3.819 3.819.91 0 26.419 0 25.506 0 2.109 0 3.819-1.71 3.819-3.819v-18.164c0-1.174 1.171-1.99 2.267-1.572 1.977.754 5.023 2.088 8.217 4.142 1.284.826 2.998.444 3.807-.851l6.551-10.482c.747-1.196.463-2.757-.649-3.625z" fill="#fc8c48"/></g><g><circle cx="128" cy="15.086" fill="#f9d0b4" r="12.586"/></g><g><path d="m90.584 48.103c-5.426 3.742-9.862 8.327-12.905 13.57-1.628 2.806-.674 6.4 2.131 8.029 2.806 1.627 6.399.674 8.029-2.131 2.08-3.584 5.17-6.786 8.985-9.485-1.841-2.944-4.624-7.396-6.24-9.983z" fill="#f9d0b4"/></g><g><path d="m178.322 61.674c-3.043-5.243-7.479-9.827-12.903-13.569-.001.002-.001.003-.003.005l-6.236 9.978c3.814 2.698 6.903 5.9 8.982 9.483 1.632 2.811 5.228 3.756 8.029 2.131 2.805-1.628 3.759-5.223 2.131-8.028z" fill="#f9d0b4"/></g><g><path d="m164.768 211.516c-5.287 4.123-13.075 9.145-22.373 12.003-1.397.429-2.883-.14-3.716-1.341-2.347-3.381-6.25-5.597-10.678-5.597-4.427 0-8.331 2.216-10.677 5.597-.833 1.201-2.319 1.771-3.716 1.341-9.3-2.859-17.09-7.883-22.377-12.007-1.11-.865-1.394-2.42-.648-3.613 1.713-2.741 4.74-7.583 6.562-10.499.807-1.292 2.514-1.669 3.796-.845 3.196 2.056 6.244 3.392 8.223 4.146 1.097.418 2.267-.398 2.267-1.572v-18.165c0-2.109 1.71-3.819 3.819-3.819.91 0 26.419 0 25.506 0 2.109 0 3.819 1.71 3.819 3.819v18.165c0 1.174 1.171 1.99 2.267 1.572 1.977-.754 5.023-2.088 8.217-4.142 1.284-.826 2.998-.444 3.807.851l6.551 10.482c.747 1.195.463 2.756-.649 3.624z" fill="#87d147"/></g><g><circle cx="128" cy="240.914" fill="#f9d0b4" r="12.586"/></g><g><path d="m90.584 207.897c-5.426-3.742-9.862-8.327-12.905-13.57-1.628-2.806-.674-6.4 2.131-8.029 2.806-1.627 6.399-.674 8.029 2.131 2.08 3.584 5.17 6.786 8.985 9.485-1.841 2.944-4.624 7.396-6.24 9.983z" fill="#f9d0b4"/></g><g><path d="m178.322 194.326c-3.043 5.243-7.479 9.827-12.903 13.569-.001-.002-.001-.003-.003-.005l-6.236-9.978c3.814-2.698 6.903-5.9 8.982-9.483 1.632-2.811 5.228-3.756 8.029-2.131 2.805 1.628 3.759 5.223 2.131 8.028z" fill="#f9d0b4"/></g><g><path d="m44.484 91.232c-4.123 5.287-9.145 13.075-12.003 22.373-.429 1.397.14 2.883 1.341 3.716 3.381 2.347 5.597 6.25 5.597 10.678 0 4.427-2.216 8.331-5.597 10.677-1.201.833-1.771 2.319-1.341 3.717 2.859 9.3 7.883 17.09 12.007 22.377.865 1.11 2.42 1.394 3.613.648 2.741-1.713 7.583-4.74 10.499-6.562 1.292-.807 1.669-2.514.845-3.796-2.056-3.196-3.392-6.244-4.146-8.223-.418-1.097.398-2.267 1.572-2.267h18.165c2.109 0 3.819-1.71 3.819-3.819 0-.91 0-26.419 0-25.506 0-2.109-1.71-3.819-3.819-3.819h-18.164c-1.174 0-1.99-1.171-1.572-2.267.754-1.977 2.088-5.023 4.142-8.217.826-1.284.444-2.998-.851-3.807l-10.481-6.551c-1.197-.748-2.758-.464-3.626.648z" fill="#f5c84c"/></g><g><circle cx="15.086" cy="128" fill="#f9d0b4" r="12.586"/></g><g><path d="m48.103 165.416c3.742 5.426 8.327 9.862 13.57 12.905 2.806 1.628 6.4.674 8.029-2.131 1.627-2.806.674-6.399-2.131-8.029-3.584-2.08-6.786-5.17-9.485-8.985-2.944 1.841-7.396 4.624-9.983 6.24z" fill="#f9d0b4"/></g><g><path d="m61.674 77.678c-5.243 3.043-9.827 7.479-13.569 12.903.002.001.003.001.005.003l9.978 6.236c2.698-3.813 5.9-6.903 9.483-8.982 2.811-1.632 3.756-5.228 2.131-8.029-1.628-2.805-5.223-3.759-8.028-2.131z" fill="#f9d0b4"/></g><g><path d="m211.516 91.232c4.123 5.287 9.145 13.075 12.003 22.373.429 1.397-.14 2.883-1.341 3.716-3.381 2.347-5.597 6.25-5.597 10.678 0 4.427 2.216 8.331 5.597 10.677 1.201.833 1.771 2.319 1.341 3.717-2.859 9.3-7.883 17.09-12.007 22.377-.865 1.11-2.42 1.394-3.613.648-2.741-1.713-7.583-4.74-10.499-6.562-1.292-.807-1.669-2.514-.845-3.796 2.056-3.196 3.392-6.244 4.146-8.223.418-1.097-.398-2.267-1.572-2.267h-18.165c-2.109 0-3.819-1.71-3.819-3.819 0-.91 0-26.419 0-25.506 0-2.109 1.71-3.819 3.819-3.819h18.165c1.174 0 1.99-1.171 1.572-2.267-.754-1.977-2.088-5.023-4.142-8.217-.826-1.284-.444-2.998.851-3.807l10.482-6.551c1.195-.748 2.756-.464 3.624.648z" fill="#fc657e"/></g><g><circle cx="240.914" cy="128" fill="#f9d0b4" r="12.586"/></g><g><circle cx="128" cy="128" fill="#70d6f9" r="34.543"/></g><g><path d="m207.897 165.416c-3.742 5.426-8.327 9.862-13.57 12.905-2.806 1.628-6.4.674-8.029-2.131-1.627-2.806-.674-6.399 2.131-8.029 3.584-2.08 6.786-5.17 9.485-8.985 2.944 1.841 7.396 4.624 9.983 6.24z" fill="#f9d0b4"/></g><g><path d="m194.326 77.678c5.243 3.043 9.827 7.479 13.569 12.903-.002.001-.003.001-.005.003l-9.978 6.236c-2.698-3.813-5.9-6.903-9.483-8.982-2.811-1.632-3.756-5.228-2.131-8.029 1.628-2.805 5.223-3.759 8.028-2.131z" fill="#f9d0b4"/></g><g><path d="m144.851 122.005h-9.406c-.801 0-1.45-.649-1.45-1.45v-9.406c0-.801-.649-1.45-1.45-1.45h-9.09c-.801 0-1.45.649-1.45 1.45v9.406c0 .801-.649 1.45-1.45 1.45h-9.406c-.801 0-1.45.649-1.45 1.45v9.09c0 .801.649 1.45 1.45 1.45h9.406c.801 0 1.45.649 1.45 1.45v9.406c0 .801.649 1.45 1.45 1.45h9.09c.801 0 1.45-.649 1.45-1.45v-9.406c0-.801.649-1.45 1.45-1.45h9.406c.801 0 1.45-.649 1.45-1.45v-9.09c.001-.801-.649-1.45-1.45-1.45z" fill="#dae6f1"/></g><g><path d="m140.778 81.356h-25.529c-3.484 0-6.319-2.835-6.319-6.319v-16.953c-1.809.751-4.176 1.881-6.637 3.464-1.188.764-2.601 1.016-3.979.707-1.375-.308-2.543-1.136-3.289-2.33l-6.563-10.499c-1.425-2.281-.896-5.251 1.231-6.91 5.115-3.99 13.289-9.385 23.179-12.425 2.416-.741 5.033.183 6.505 2.306 1.966 2.832 5.189 4.522 8.624 4.522s6.658-1.691 8.624-4.522c1.474-2.123 4.09-3.047 6.505-2.306 9.887 3.039 18.06 8.432 23.175 12.421 2.129 1.661 2.658 4.637 1.231 6.921l-6.551 10.483c-.749 1.197-1.919 2.026-3.297 2.334-1.382.307-2.794.057-3.982-.706-2.456-1.58-4.823-2.71-6.632-3.461v16.953c0 3.463-2.8 6.284-6.254 6.319-.014.001-.028.001-.042.001zm-31.022-28.665c.833 0 1.659.25 2.364.735 1.133.781 1.81 2.069 1.81 3.446v18.165c0 .728.592 1.319 1.319 1.319h25.505c.728 0 1.319-.592 1.319-1.319v-18.165c0-1.377.677-2.665 1.81-3.446 1.129-.777 2.568-.95 3.848-.462 2.101.801 5.312 2.21 8.678 4.375.056.036.118.047.185.032.065-.014.115-.05.15-.105l6.551-10.482c.067-.108.04-.247-.066-.33-4.784-3.731-12.409-8.77-21.569-11.584-.328-.101-.702.051-.928.377-2.899 4.177-7.659 6.671-12.731 6.671s-9.831-2.494-12.731-6.671c-.227-.327-.601-.48-.928-.377-9.163 2.816-16.789 7.856-21.574 11.588-.103.081-.13.213-.066.316l6.563 10.5c.013.021.05.08.142.101.066.017.125.003.181-.033 3.374-2.169 6.585-3.579 8.685-4.379.479-.182.982-.272 1.483-.272z"/></g><g><path d="m128 30.172c-8.319 0-15.086-6.768-15.086-15.086s6.767-15.086 15.086-15.086c8.318 0 15.086 6.768 15.086 15.086 0 8.319-6.768 15.086-15.086 15.086zm0-25.172c-5.562 0-10.086 4.525-10.086 10.086s4.524 10.086 10.086 10.086 10.086-4.524 10.086-10.086-4.524-10.086-10.086-10.086z"/></g><g><path d="m82.743 72.993c-1.425 0-2.868-.363-4.188-1.128-3.994-2.318-5.357-7.453-3.039-11.446 3.104-5.347 7.548-10.081 13.212-14.069 1.129-.794 2.688-.524 3.483.604s.524 2.688-.604 3.483c-5.069 3.57-9.028 7.773-11.767 12.491-.452.779-.574 1.688-.343 2.559s.788 1.6 1.567 2.052c1.609.934 3.678.383 4.611-1.225 2.11-3.635 5.163-6.938 9.072-9.815 1.111-.818 2.676-.581 3.496.532.818 1.112.58 2.677-.532 3.496-3.353 2.468-5.948 5.26-7.711 8.298-1.552 2.674-4.368 4.168-7.257 4.168z"/></g><g><path d="m173.256 72.994c-2.89 0-5.704-1.495-7.256-4.168-1.778-3.063-4.398-5.873-7.788-8.354-1.114-.815-1.356-2.38-.541-3.494s2.38-1.355 3.494-.541c3.95 2.891 7.032 6.214 9.159 9.878.934 1.61 3.003 2.16 4.611 1.225.779-.453 1.336-1.181 1.567-2.052s.109-1.78-.343-2.559c-2.699-4.649-6.586-8.801-11.553-12.34-1.125-.801-1.387-2.362-.585-3.487.801-1.125 2.363-1.386 3.487-.585 5.551 3.955 9.917 8.632 12.976 13.902 2.318 3.993.955 9.128-3.039 11.445-1.319.766-2.763 1.13-4.189 1.13z"/></g><g><path d="m141.446 226.163c-1.876 0-3.687-.925-4.821-2.559-1.966-2.832-5.189-4.523-8.624-4.523-3.434 0-6.658 1.69-8.624 4.522-1.473 2.122-4.088 3.048-6.505 2.305-9.89-3.04-18.063-8.435-23.179-12.425-2.127-1.658-2.656-4.628-1.231-6.909l6.563-10.5c.746-1.194 1.914-2.021 3.289-2.33s2.791-.058 3.979.707c2.461 1.583 4.829 2.713 6.637 3.464v-16.953c0-3.484 2.835-6.319 6.319-6.319h25.529.041c3.455.035 6.254 2.856 6.254 6.319v16.953c1.809-.751 4.176-1.881 6.631-3.461 1.189-.765 2.604-1.017 3.982-.707 1.378.309 2.549 1.138 3.297 2.334l6.552 10.482c1.427 2.286.898 5.261-1.231 6.922-5.115 3.99-13.288 9.383-23.176 12.421-.555.174-1.121.257-1.682.257zm-13.445-12.082c5.072 0 9.832 2.494 12.731 6.672.227.326.598.477.928.377 9.161-2.815 16.786-7.854 21.57-11.584.106-.083.133-.222.066-.331l-6.551-10.481c-.035-.056-.085-.091-.15-.105-.067-.016-.128-.004-.185.033-3.366 2.165-6.577 3.574-8.678 4.375-1.28.489-2.718.316-3.848-.462-1.133-.781-1.81-2.069-1.81-3.446v-18.165c0-.728-.592-1.319-1.319-1.319h-25.505c-.728 0-1.319.592-1.319 1.319v18.165c0 1.377-.677 2.665-1.81 3.446-1.129.778-2.567.95-3.848.462-2.099-.8-5.311-2.209-8.684-4.379-.056-.036-.117-.049-.181-.033-.092.021-.129.08-.142.1l-6.563 10.5c-.064.103-.037.236.065.316 4.785 3.733 12.412 8.773 21.574 11.589.33.104.702-.05.929-.377 2.899-4.179 7.658-6.672 12.73-6.672zm36.767-2.565h.01z"/></g><g><path d="m128 256c-8.319 0-15.086-6.768-15.086-15.086s6.768-15.086 15.086-15.086 15.086 6.768 15.086 15.086-6.768 15.086-15.086 15.086zm0-25.172c-5.562 0-10.086 4.524-10.086 10.086s4.524 10.086 10.086 10.086 10.086-4.525 10.086-10.086-4.524-10.086-10.086-10.086z"/></g><g><path d="m89.856 209.887c-.504 0-1.012-.151-1.453-.467-5.51-3.942-9.846-8.598-12.888-13.839-2.318-3.993-.955-9.128 3.039-11.445 3.991-2.317 9.127-.953 11.445 3.038 1.725 2.971 4.246 5.708 7.494 8.137 1.106.827 1.332 2.393.505 3.499s-2.394 1.332-3.499.505c-3.79-2.834-6.759-6.074-8.824-9.63-.935-1.609-3.002-2.159-4.612-1.224-.779.452-1.335 1.181-1.566 2.052s-.109 1.78.343 2.559c2.684 4.624 6.543 8.756 11.473 12.283 1.123.803 1.382 2.365.579 3.488-.488.681-1.256 1.044-2.036 1.044z"/></g><g><path d="m166.079 209.934c-.781 0-1.549-.364-2.038-1.048-.801-1.124-.54-2.686.584-3.487 4.958-3.536 8.839-7.683 11.534-12.327.452-.779.574-1.688.343-2.559s-.788-1.6-1.567-2.052c-1.609-.933-3.677-.384-4.611 1.224-2.076 3.577-5.066 6.833-8.887 9.678-1.107.823-2.673.595-3.499-.512-.824-1.107-.595-2.674.512-3.499 3.275-2.438 5.814-5.189 7.549-8.177 2.317-3.993 7.451-5.357 11.445-3.039 3.993 2.317 5.356 7.452 3.039 11.445-3.055 5.263-7.414 9.936-12.955 13.888-.439.314-.946.465-1.449.465z"/></g><g><path d="m46.655 168.336c-1.566 0-3.106-.705-4.139-2.029-3.99-5.115-9.385-13.289-12.425-23.179-.744-2.418.183-5.032 2.306-6.505 2.832-1.966 4.522-5.189 4.522-8.624s-1.691-6.658-4.522-8.624c-2.123-1.473-3.049-4.087-2.306-6.505 3.039-9.887 8.432-18.06 12.421-23.175 1.661-2.129 4.636-2.66 6.921-1.231l10.483 6.551c1.197.749 2.026 1.919 2.334 3.297.309 1.379.058 2.793-.706 3.982-1.58 2.456-2.71 4.823-3.461 6.632h16.953c3.463 0 6.284 2.8 6.319 6.254v.041 25.529c0 3.484-2.835 6.319-6.319 6.319h-16.952c.751 1.809 1.881 4.176 3.464 6.637.765 1.188 1.016 2.602.707 3.979-.308 1.375-1.136 2.543-2.33 3.289l-10.499 6.563c-.861.539-1.821.799-2.771.799zm-.2-75.566c-3.731 4.784-8.77 12.409-11.584 21.569-.101.329.051.702.377.928 4.177 2.899 6.671 7.659 6.671 12.731s-2.494 9.831-6.671 12.731c-.327.227-.479.6-.377.928 2.816 9.163 7.856 16.789 11.588 21.574.08.103.213.13.316.066l10.5-6.563c.021-.013.08-.05.101-.142.015-.064.003-.125-.033-.181-2.169-3.374-3.579-6.585-4.379-8.685-.488-1.279-.316-2.718.462-3.847.781-1.133 2.069-1.81 3.446-1.81h18.165c.728 0 1.319-.592 1.319-1.319v-25.505c0-.728-.592-1.319-1.319-1.319h-18.165c-1.377 0-2.665-.677-3.446-1.81-.778-1.129-.95-2.568-.462-3.848.801-2.101 2.21-5.312 4.375-8.678.036-.056.047-.119.032-.185-.014-.065-.05-.115-.105-.15l-10.482-6.551c-.108-.068-.246-.041-.329.066z"/></g><g><path d="m15.086 143.086c-8.318 0-15.086-6.767-15.086-15.086 0-8.318 6.768-15.086 15.086-15.086s15.086 6.768 15.086 15.086c0 8.319-6.767 15.086-15.086 15.086zm0-25.172c-5.561 0-10.086 4.524-10.086 10.086s4.525 10.086 10.086 10.086 10.086-4.524 10.086-10.086-4.524-10.086-10.086-10.086z"/></g><g><path d="m64.608 181.614c-1.426 0-2.87-.364-4.189-1.13-5.272-3.06-9.952-7.429-13.91-12.986-.801-1.125-.538-2.686.586-3.487 1.125-.8 2.686-.539 3.487.586 3.541 4.972 7.694 8.862 12.346 11.562.779.453 1.688.575 2.559.343.871-.231 1.6-.788 2.052-1.567.933-1.608.384-3.677-1.225-4.611-3.608-2.095-6.889-5.118-9.751-8.986-.821-1.11-.587-2.675.523-3.497 1.109-.82 2.676-.587 3.497.523 2.454 3.316 5.227 5.885 8.242 7.636 3.992 2.318 5.355 7.452 3.039 11.445-1.551 2.674-4.366 4.169-7.256 4.169z"/></g><g><path d="m58.626 98.575c-.519 0-1.042-.161-1.49-.494-1.108-.824-1.338-2.39-.515-3.498 2.848-3.83 6.109-6.827 9.693-8.908 1.609-.934 2.158-3.002 1.225-4.611-.453-.779-1.181-1.336-2.052-1.567-.871-.232-1.779-.109-2.559.343-4.61 2.676-8.733 6.522-12.254 11.433-.805 1.122-2.365 1.38-3.489.575-1.122-.805-1.379-2.367-.575-3.489 3.936-5.489 8.582-9.81 13.808-12.843 3.994-2.317 9.128-.955 11.445 3.039 2.318 3.994.955 9.128-3.039 11.445-2.994 1.738-5.75 4.284-8.191 7.567-.489.66-1.243 1.008-2.007 1.008z"/></g><g><path d="m209.345 168.336c-.95 0-1.91-.26-2.771-.798l-10.5-6.563c-1.194-.746-2.021-1.914-2.33-3.289-.309-1.377-.058-2.791.707-3.979 1.583-2.461 2.713-4.829 3.464-6.637h-16.953c-3.484 0-6.319-2.835-6.319-6.319v-25.529c0-.014 0-.027 0-.041.035-3.455 2.856-6.254 6.319-6.254h16.953c-.751-1.809-1.881-4.176-3.461-6.631-.765-1.189-1.015-2.604-.707-3.982.309-1.378 1.138-2.549 2.334-3.297l10.482-6.552c2.286-1.428 5.262-.899 6.922 1.231 3.99 5.115 9.383 13.288 12.421 23.176.744 2.417-.183 5.031-2.305 6.504-2.832 1.966-4.523 5.189-4.523 8.624 0 3.434 1.69 6.658 4.522 8.624 2.122 1.473 3.049 4.087 2.305 6.505-3.04 9.89-8.435 18.063-12.425 23.179-1.029 1.323-2.569 2.028-4.135 2.028zm-29.701-53.09v25.505c0 .728.592 1.319 1.319 1.319h18.165c1.377 0 2.665.677 3.446 1.81.778 1.129.95 2.568.462 3.848-.8 2.099-2.209 5.311-4.379 8.684-.036.056-.047.117-.033.181.021.092.08.129.1.142l10.5 6.563c.102.064.235.038.316-.065 3.733-4.785 8.773-12.412 11.589-21.574.101-.329-.05-.702-.377-.929-4.178-2.9-6.671-7.659-6.671-12.731s2.494-9.832 6.672-12.731c.326-.227.478-.6.377-.928-2.815-9.161-7.854-16.786-11.584-21.57-.083-.106-.223-.134-.331-.066l-10.481 6.551c-.056.035-.091.085-.105.15-.015.066-.004.128.033.185 2.165 3.366 3.574 6.577 4.375 8.678.488 1.28.316 2.719-.462 3.848-.781 1.133-2.069 1.81-3.446 1.81h-18.165c-.729 0-1.32.592-1.32 1.32z"/></g><g><path d="m240.914 143.086c-8.318 0-15.086-6.768-15.086-15.086s6.768-15.086 15.086-15.086c8.319 0 15.086 6.768 15.086 15.086 0 8.319-6.768 15.086-15.086 15.086zm0-25.172c-5.562 0-10.086 4.524-10.086 10.086s4.524 10.086 10.086 10.086 10.086-4.524 10.086-10.086-4.525-10.086-10.086-10.086z"/></g><g><path d="m128 165.043c-20.426 0-37.043-16.617-37.043-37.043s16.617-37.043 37.043-37.043 37.043 16.617 37.043 37.043-16.617 37.043-37.043 37.043zm0-69.086c-17.668 0-32.043 14.375-32.043 32.043s14.375 32.043 32.043 32.043 32.043-14.375 32.043-32.043-14.375-32.043-32.043-32.043z"/></g><g><path d="m191.392 181.614c-2.89 0-5.704-1.495-7.256-4.168-2.316-3.993-.953-9.127 3.038-11.445 3.104-1.802 5.948-4.467 8.452-7.922.811-1.118 2.375-1.368 3.491-.557 1.118.81 1.367 2.374.557 3.491-2.917 4.024-6.277 7.157-9.989 9.312-1.608.934-2.158 3.003-1.224 4.612.452.779 1.181 1.335 2.052 1.566.869.231 1.779.109 2.559-.343 4.718-2.739 8.921-6.697 12.491-11.766.795-1.129 2.355-1.399 3.483-.604 1.129.795 1.399 2.354.604 3.483-3.988 5.663-8.722 10.108-14.069 13.211-1.319.766-2.764 1.13-4.189 1.13z"/></g><g><path d="m197.406 98.62c-.765 0-1.52-.35-2.01-1.011-2.449-3.303-5.215-5.863-8.222-7.608-3.993-2.317-5.356-7.452-3.038-11.445 2.318-3.994 7.454-5.356 11.445-3.039 5.252 3.048 9.917 7.396 13.864 12.922.803 1.124.542 2.685-.581 3.487-1.124.803-2.685.542-3.487-.581-3.532-4.944-7.672-8.815-12.306-11.504-.78-.452-1.69-.575-2.559-.343-.871.231-1.6.788-2.052 1.567-.934 1.609-.385 3.678 1.224 4.611 3.599 2.089 6.872 5.102 9.729 8.955.822 1.109.59 2.675-.52 3.497-.447.331-.969.492-1.487.492z"/></g><g><g><g><path d="m85.8 27.85c-4.5-.8-8-4.3-8.9-8.7 0-.2-.4-.2-.4 0-.9 4.4-4.4 7.9-8.9 8.7-.2 0-.2.3 0 .4 4.5.8 8 4.3 8.9 8.7 0 .2.4.2.4 0 .9-4.4 4.4-7.9 8.9-8.7.2-.1.2-.4 0-.4z" fill="#70d6f9"/></g></g></g><g><g><g><path d="m68.8 208.85c-4.5-.8-8-4.3-8.9-8.7 0-.2-.4-.2-.4 0-.9 4.4-4.4 7.9-8.9 8.7-.2 0-.2.3 0 .4 4.5.8 8 4.3 8.9 8.7 0 .2.4.2.4 0 .9-4.4 4.4-7.9 8.9-8.7.2-.1.2-.4 0-.4z" fill="#fc657e"/></g></g></g><g><g><g><path d="m213.7 197.5h-2.3v-2.3c0-1.7-1.4-3.2-3.2-3.2s-3.2 1.4-3.2 3.2v2.3h-2.3c-1.7 0-3.2 1.4-3.2 3.2s1.4 3.2 3.2 3.2h2.3v2.3c0 1.7 1.4 3.2 3.2 3.2s3.2-1.4 3.2-3.2v-2.3h2.3c1.7 0 3.2-1.4 3.2-3.2s-1.4-3.2-3.2-3.2z" fill="#70d6f9"/></g></g></g><g><g><g><circle cx="59.8" cy="48.4" fill="#87d147" r="3.4"/></g></g></g><g><g><g><circle cx="216.8" cy="70.4" fill="#fc657e" r="3.4"/></g></g></g><g><path d="m132.545 148.802h-9.091c-2.178 0-3.95-1.772-3.95-3.95v-8.356h-8.356c-2.178 0-3.95-1.772-3.95-3.95v-9.091c0-2.178 1.772-3.95 3.95-3.95h8.356v-8.356c0-2.178 1.772-3.95 3.95-3.95h9.091c2.178 0 3.95 1.772 3.95 3.95v8.356h8.356c2.178 0 3.95 1.772 3.95 3.95v9.091c0 2.178-1.772 3.95-3.95 3.95h-8.356v8.356c.001 2.178-1.771 3.95-3.95 3.95zm-8.041-5h6.991v-8.356c0-2.178 1.772-3.95 3.95-3.95h8.356v-6.991h-8.356c-2.178 0-3.95-1.772-3.95-3.95v-8.356h-6.991v8.356c0 2.178-1.772 3.95-3.95 3.95h-8.356v6.991h8.356c2.178 0 3.95 1.772 3.95 3.95zm20.348-19.298h.01z"/></g></g></g></svg>