<svg clip-rule="evenodd" fill-rule="evenodd" stroke-linejoin="round" stroke-miterlimit="2" viewBox="0 0 510 510" xmlns="http://www.w3.org/2000/svg"><g id="Artboard221"><g><g><g><path d="m396.713 184.85c44.265 0 80.383-36.118 80.383-80.383 0-44.266-36.118-80.384-80.383-80.384s-80.383 36.118-80.383 80.384c0 44.265 36.118 80.383 80.383 80.383z" fill="#d8ecfe"/><path d="m391.213 184.663c41.719-2.843 74.883-37.779 74.883-80.196 0-42.418-33.164-77.353-74.883-80.197 1.818-.124 3.652-.187 5.5-.187 44.265 0 80.383 36.118 80.383 80.384 0 44.265-36.118 80.383-80.383 80.383-1.848 0-3.682-.063-5.5-.187z" fill="#c4e2ff"/></g><g><path d="m113.308 184.85c44.281 0 80.396-36.114 80.396-80.395 0-44.291-36.115-80.405-80.396-80.405-44.29 0-80.404 36.114-80.404 80.405 0 44.281 36.114 80.395 80.404 80.395z" fill="#fe646f"/><path d="m113.308 24.05c-1.462 0-2.905.038-4.349.114 42.391 2.26 76.065 37.339 76.065 80.291 0 42.942-33.674 78.021-76.065 80.281 1.444.076 2.887.114 4.349.114 44.405 0 80.396-35.991 80.396-80.395 0-44.405-35.991-80.405-80.396-80.405z" fill="#fd4755"/><path d="m121.874 55.274h-17.141c-3.352 0-6.077 2.725-6.077 6.077v28.451h-28.451c-3.352 0-6.087 2.726-6.087 6.078v17.15c0 3.343 2.735 6.078 6.087 6.078h28.451v28.45c0 3.343 2.725 6.078 6.077 6.078h17.141c3.352 0 6.087-2.735 6.087-6.078v-28.45h28.451c3.343 0 6.077-2.735 6.077-6.078v-17.15c0-3.352-2.734-6.078-6.077-6.078h-28.451v-28.451c0-3.352-2.735-6.077-6.087-6.077z" fill="#eceff1"/><path d="m113.413 55.274h-8.68c-3.352 0-6.077 2.725-6.077 6.077v28.451h8.679v-28.451c0-3.352 2.735-6.077 6.078-6.077zm-34.529 34.528h-8.679c-3.352 0-6.087 2.726-6.087 6.078v17.15c0 3.343 2.735 6.078 6.087 6.078h8.679c-3.342 0-6.077-2.735-6.077-6.078v-17.15c0-3.352 2.735-6.078 6.077-6.078zm19.772 29.306v28.45c0 3.343 2.725 6.078 6.077 6.078h8.68c-3.343 0-6.078-2.735-6.078-6.078v-28.45z" fill="#d1d1d6"/></g><g><path d="m395.743 152.338c-17.222-10.118-48.907-33.332-49.329-56.498-.469-25.794 28.517-37.487 50.328-15.313 21.805-22.174 50.791-10.487 50.327 15.307-.422 23.166-32.107 46.386-49.329 56.504-.636.368-1.367.368-1.997 0z" fill="#fe646f"/><path d="m395.743 152.338c-.416-.244-.844-.499-1.278-.761 17.459-10.486 47.634-33.136 48.044-55.743.28-15.45-10.01-25.835-22.987-26.917 15.039-1.231 27.856 9.701 27.547 26.917-.422 23.166-32.107 46.386-49.329 56.504-.636.368-1.367.368-1.997 0zm-26.335-83.421c9.119-.827 19.469 3.382 27.334 11.61-.767.683-1.528 1.402-2.277 2.169-7.253-7.371-17.573-13.167-25.057-13.779z" fill="#fd4755"/></g><g><path d="m255.017 348.243c-44.286 0-80.4-36.115-80.4-80.4s36.114-80.4 80.4-80.4c44.285 0 80.412 36.115 80.412 80.4s-36.127 80.4-80.412 80.4z" fill="#ffc338"/><path d="m325.828 267.843c0-42.793-33.428-77.776-75.599-80.263 1.579-.087 3.183-.137 4.788-.137 44.409 0 80.412 35.99 80.412 80.4s-36.003 80.4-80.412 80.4c-1.605 0-3.209-.05-4.788-.137 42.171-2.487 75.599-37.47 75.599-80.263z" fill="#f5b829"/></g><g><path d="m296.182 447.661 18.475-69.368c3.468-13.018 8.464-24.786 20.463-30.907 13.376-6.826 36.906-16.287 56.762-30.075 8.268-4.219 18.413-1.859 23.054 6.179 4.641 8.039 2.553 16.666-6.176 23.055l6.822-4.939c7.816-5.66 13.082-12.771 15.545-22.104l17.633-66.822c13.707-51.943 47.939-27.353 43.745-9.72l-29.446 123.82c-2.71 11.387-9.409 20.113-19.547 25.965l-70.478 40.69-8.7 32.47c-1.674 6.242-8.13 9.97-14.372 8.297l-45.477-12.186c-6.237-1.671-9.964-8.116-8.303-14.355z" fill="#f6dccd"/><path d="m416.564 327.122c2.24 6.934-.379 13.988-7.804 19.423-11.513 6.698-23.076 13.324-34.611 19.984-3.089 1.783-7.04.725-8.824-2.365s-.726-7.04 2.365-8.824z" fill="#f1cbbc"/><path d="m296.182 447.661 18.475-69.368c3.468-13.018 8.464-24.786 20.463-30.907 7.157-3.652 17.22-8.058 28.071-13.478l-35.959 134.203-22.747-6.095c-6.237-1.671-9.964-8.116-8.303-14.355z" fill="#f1cbbc"/><path d="m285.442 433.086 96.381 26.715c4.66 1.291 7.416 6.161 6.124 10.822l-5.143 18.553c-1.292 4.66-6.161 7.416-10.822 6.124l-96.38-26.714c-4.66-1.292-7.416-6.161-6.124-10.822l5.142-18.553c1.292-4.66 6.162-7.416 10.822-6.125z" fill="#d1d1d6"/><path d="m346.049 457.053 17.059 4.729 16.87 4.676c4.65 1.288 7.404 6.14 6.131 10.792l1.838-6.627c1.292-4.661-1.464-9.531-6.124-10.822l-16.927-4.692-33.987-9.42-34.025-9.431-11.442-3.171c-4.037-1.12-8.231.799-10.12 4.362l19.811 5.491 33.986 9.42 16.927 4.692z" fill="#b1b1b5"/></g><g><path d="m213.818 447.028-18.475-69.367c-3.468-13.018-8.464-24.787-20.463-30.908-13.376-6.826-36.906-16.286-56.762-30.074-8.268-4.22-18.413-1.86-23.054 6.178-4.641 8.039-2.553 16.666 6.176 23.055l-6.822-4.938c-7.816-5.661-13.082-12.772-15.545-22.104l-17.633-66.823c-13.707-51.943-47.939-27.353-43.745-9.72l29.446 123.821c2.71 11.387 9.409 20.112 19.547 25.964l70.478 40.69 8.7 32.47c1.674 6.242 8.13 9.97 14.372 8.297l45.477-12.186c6.237-1.671 9.964-8.116 8.303-14.355z" fill="#f6dccd"/><path d="m93.436 326.489c-2.24 6.934.379 13.988 7.804 19.423 11.513 6.698 23.076 13.324 34.611 19.984 3.089 1.784 7.04.725 8.824-2.364 1.784-3.091.726-7.041-2.365-8.824z" fill="#f1cbbc"/><path d="m213.818 447.028-18.475-69.367c-3.468-13.018-8.464-24.787-20.463-30.908-7.157-3.652-17.22-8.058-28.071-13.477l35.959 134.202 22.747-6.095c6.237-1.671 9.964-8.116 8.303-14.355z" fill="#f1cbbc"/><path d="m224.558 432.453-96.381 26.715c-4.66 1.291-7.416 6.162-6.124 10.822l5.143 18.553c1.292 4.66 6.161 7.416 10.822 6.124l96.38-26.714c4.66-1.292 7.416-6.161 6.124-10.821l-5.142-18.554c-1.292-4.659-6.162-7.416-10.822-6.125z" fill="#d1d1d6"/><path d="m163.951 456.42-17.059 4.729-16.87 4.676c-4.65 1.288-7.404 6.141-6.131 10.793l-1.838-6.628c-1.292-4.66 1.464-9.531 6.124-10.822l16.927-4.691 33.987-9.421 34.025-9.431 11.442-3.171c4.037-1.119 8.231.799 10.12 4.363l-19.811 5.49-33.986 9.42-16.927 4.692z" fill="#b1b1b5"/></g></g><path d="m376.401 448.913c4.67 1.295 7.482 2.075 7.48 2.075 9.097 2.457 14.294 11.729 11.851 20.834-.004.016-.008.032-.013.048l-5.15 18.729c-2.446 8.892-11.985 14.264-20.877 11.818l-.017-.004s-97.507-27.04-97.49-27.036c-8.923-2.453-14.322-11.786-11.687-20.928l5.136-18.677c2.455-8.927 11.833-14.273 20.76-11.819l.017.005s2.138.593 5.782 1.603l12.636-47.546c4.121-15.523 10.538-29.056 24.82-36.341 13.24-6.792 36.748-16.181 56.431-29.878.317-.221.65-.419.996-.592 12.233-6.116 26.941-2.439 33.907 9.285.036.061.072.123.107.185.183.328.359.657.529.986.363-.985.682-2.006.956-3.063.003-.015.007-.029.011-.043l17.908-67.537c6.724-25.573 18.774-35.132 28.96-37.148 9.076-1.797 17.835 1.859 23.789 8.133 6.022 6.346 8.929 15.222 7.081 23.076-.002.008-.004.016-.006.024 0 0-29.846 125.117-29.846 125.117-3.218 13.819-11.283 24.317-23.571 31.438l-.016.01-68.397 39.42zm-68.729-19.059c15.73 4.362 37.131 10.297 53.25 14.767l2.905-10.896c.55-2.063 1.9-3.823 3.75-4.889l71.275-41.08c8.302-4.813 13.811-11.862 15.981-21.203.004-.015.007-.031.011-.046 0 0 29.845-125.114 29.848-125.128.669-2.889-.886-5.986-3.101-8.319-6.941-7.314-18.582-4.516-25.565 22.053l-.004.017s-17.906 67.526-17.906 67.526c-2.952 11.36-9.216 19.955-18.757 26.83l-.015.011s-6.202 4.446-6.204 4.448c-.079.057-.16.112-.241.166-.003.002-.006.004-.008.006-11.62 7.705-23.469 13.765-36.155 20.997-3.851 2.195-8.76.851-10.955-3-2.196-3.851-.852-8.759 2.999-10.955 12.264-6.991 23.739-12.834 34.975-20.258 4.406-3.52 5.722-7.973 3.354-12.314-2.573-4.198-7.901-5.242-12.398-3.229-20.234 13.957-44.172 23.652-57.734 30.61l-.02.01c-10.059 5.126-13.701 15.23-16.603 26.159zm-25.538 9.587-.013-.003c-.433-.111-.88.16-.999.593l-5.15 18.729c-.012.042-.024.084-.036.126-.126.429.09.888.508 1.003l.017.005s97.492 27.035 97.505 27.039c.468.121.986-.126 1.115-.593 0 0 5.14-18.69 5.147-18.719.111-.476-.065-1-.538-1.127-.022-.005-.043-.011-.065-.017zm3.418 9.698c1.99-2.693 5.853-3.278 8.545-1.288 2.575 1.99 3.16 5.853 1.171 8.545-1.99 2.692-5.736 3.161-8.428 1.171-2.693-1.99-3.278-5.736-1.288-8.428zm-152.069-.226-2.087-7.826-68.397-39.42c-.017-.01-.034-.02-.051-.03-12.124-7.107-20.181-17.578-23.526-31.374-.003-.012-.005-.024-.008-.036l-29.732-125.132-.004-.017c-1.848-7.852 1.047-16.724 7.05-23.068 5.943-6.279 14.691-9.94 23.769-8.141 10.177 2.016 22.232 11.573 29.009 37.145l.003.011 17.792 67.541c.003.01.006.02.008.031.285 1.097.62 2.155 1.004 3.175.204-.393.418-.785.643-1.176.006-.011.012-.021.018-.032 6.825-11.773 21.76-15.482 33.875-9.339.324.164.638.351.937.558 19.799 13.699 43.193 23.089 56.546 29.881.011.005.022.011.033.017 14.146 7.279 20.687 20.815 24.806 36.332l12.63 47.518 5.672-1.573.017-.005c8.844-2.431 18.173 2.797 20.826 11.641.017.059.035.118.051.178l5.15 18.729c.005.016.009.032.014.048 2.441 9.101-2.953 18.387-11.815 20.824l-97.507 27.04-.017.004c-8.916 2.452-18.283-2.879-20.751-11.787l-5.264-18.715c-.008-.031-.017-.062-.025-.093-2.442-9.102 2.952-18.387 11.815-20.824zm68.838-19.089-12.674-47.687c-2.903-10.933-6.657-21.032-16.616-26.165-13.691-6.962-37.521-16.66-57.872-30.625-4.429-2.015-9.814-.975-12.286 3.27-2.458 4.315-1.065 8.764 3.268 12.289 11.346 7.42 22.819 13.263 35.08 20.253 3.851 2.196 5.195 7.104 2.999 10.955-2.195 3.851-7.104 5.195-10.955 3-12.673-7.225-24.512-13.277-36.238-20.975-.004-.003-.007-.005-.011-.007-.112-.074-.222-.151-.331-.23-.001-.001-.004-.003-.009-.007-.268-.195-6.06-4.428-6.06-4.428-9.524-6.87-15.902-15.468-18.85-26.816l-17.788-67.526c-7.045-26.579-18.658-29.391-25.583-22.073-2.213 2.339-3.762 5.448-3.082 8.343 0 0 29.723 125.097 29.723 125.097 2.274 9.366 7.786 16.445 16.014 21.275l71.257 41.069c1.85 1.066 3.2 2.826 3.75 4.889l2.905 10.896zm25.43 9.617-97.492 27.036-.017.004c-.478.132-.702.662-.582 1.154l5.248 18.66c.004.015.008.03.012.045.121.437.574.709 1.012.589l97.491-27.035.017-.005c.483-.132.707-.673.578-1.169 0 0-5.103-18.557-5.108-18.571-.175-.491-.658-.845-1.159-.708zm-3.419 9.698c1.99 2.692 1.522 6.438-1.17 8.428-2.693 1.99-6.438 1.521-8.428-1.171-2.107-2.692-1.522-6.555 1.17-8.545s6.438-1.405 8.428 1.288zm30.668-92.929c-48.671 0-88.383-39.713-88.383-88.384 0-48.67 39.712-88.383 88.383-88.383s88.383 39.713 88.383 88.383c0 48.671-39.712 88.384-88.383 88.384zm0-16c39.86 0 72.383-32.524 72.383-72.384s-32.523-72.383-72.383-72.383-72.383 32.523-72.383 72.383 32.523 72.384 72.383 72.384zm-8-119.682v-4.497c0-4.416 3.585-8 8-8s8 3.584 8 8v4.408c9.774 2.112 18.811 8.341 23.467 19.416 1.711 4.07-.205 8.764-4.275 10.475s-8.764-.204-10.475-4.275c-4.301-10.23-15.764-12.301-23.994-9.061-4.717 1.857-8.519 5.647-8.252 11.187.212 4.321 3.025 6.777 6.357 8.406 3.249 1.589 7.006 2.476 10.542 3.059 14.576 2.384 30.574 9.034 32.69 26.365l.001.01c2.046 16.946-11.673 26.732-26.061 29.321v4.28c0 4.415-3.585 8-8 8s-8-3.585-8-8v-4.396c-12.221-2.461-22.776-10.455-26.012-23.454-1.066-4.285 1.546-8.629 5.831-9.696 4.284-1.067 8.629 1.546 9.695 5.83 2.153 8.649 10.914 12.326 19.363 12.127 4.557-.107 9.632-1.236 13.369-3.812 2.609-1.799 4.386-4.489 3.931-8.276-.6-4.899-3.955-7.581-7.836-9.341-3.615-1.64-7.717-2.541-11.555-3.168l-.008-.002c-14.26-2.348-29.46-9.521-30.288-26.475l-.001-.004c-.626-12.966 7.333-22.503 18.373-26.849 1.654-.651 3.375-1.179 5.138-1.578zm149.713-27.678c-48.671 0-88.383-39.712-88.383-88.383s39.712-88.384 88.383-88.384 88.383 39.713 88.383 88.384-39.712 88.383-88.383 88.383zm0-16c39.86 0 72.383-32.523 72.383-72.383s-32.523-72.384-72.383-72.384-72.383 32.524-72.383 72.384 32.523 72.383 72.383 72.383zm-5.085-17.689c-10.895-6.408-27.242-17.824-38.703-31.174-8.559-9.969-14.31-21.086-14.51-32.027v-.002c-.304-16.847 9.264-28.93 22.218-33.342 10.617-3.617 23.927-2.095 36.072 7.23 12.144-9.313 25.455-10.836 36.075-7.223 12.962 4.409 22.535 16.486 22.231 33.335v.002c-.2 10.941-5.951 22.058-14.51 32.027-11.461 13.35-27.808 24.766-38.699 31.172-3.215 1.914-6.958 1.915-10.174.002zm5.085-15.618c9.578-5.927 22.412-15.22 31.648-25.978 5.928-6.904 10.513-14.32 10.652-21.896.161-8.921-4.524-15.564-11.386-17.899-7.513-2.555-16.963-.036-25.222 8.358-1.504 1.53-3.559 2.391-5.704 2.39-2.146 0-4.201-.862-5.704-2.392-8.256-8.401-17.699-10.922-25.205-8.365-6.86 2.337-11.54 8.986-11.379 17.908.139 7.576 4.724 14.992 10.652 21.896 9.236 10.758 22.07 20.051 31.648 25.978zm-283.413 49.307c-48.693 0-88.396-39.705-88.396-88.37 0-48.693 39.703-88.397 88.396-88.397 48.665 0 88.37 39.703 88.37 88.397 0 48.665-39.704 88.37-88.37 88.37zm0-16c39.854 0 72.37-32.516 72.37-72.37 0-39.879-32.515-72.397-72.37-72.397-39.879 0-72.396 32.517-72.396 72.397 0 39.855 32.518 72.37 72.396 72.37zm-13.558-122.222h27.09c4.418 0 8 3.582 8 8v20.294h20.293c4.419 0 8 3.582 8 8v27.089c0 4.419-3.581 8-8 8h-20.293v20.294c0 4.418-3.582 8-8 8h-27.09c-4.418 0-8-3.582-8-8v-20.294h-20.293c-4.419 0-8-3.581-8-8v-27.089c0-4.418 3.581-8 8-8h20.293v-20.294c0-4.418 3.582-8 8-8zm8 16v20.294c0 4.418-3.581 8-8 8h-20.293v11.089h20.293c4.419 0 8 3.582 8 8v20.294h11.09v-20.294c0-4.418 3.581-8 8-8h20.293v-11.089h-20.293c-4.419 0-8-3.582-8-8v-20.294zm139.258-55.642c0-4.415 3.585-8 8-8s8 3.585 8 8v24.048c0 4.416-3.585 8-8 8s-8-3.584-8-8zm47.932 31.932c4.416 0 8 3.585 8 8 0 4.416-3.584 8-8 8h-24.048c-4.415 0-8-3.584-8-8 0-4.415 3.585-8 8-8zm-31.932 47.933c0 4.415-3.585 8-8 8s-8-3.585-8-8v-24.049c0-4.415 3.585-8 8-8s8 3.585 8 8zm-47.932-31.933c-4.416 0-8-3.584-8-8 0-4.415 3.584-8 8-8h24.048c4.415 0 8 3.585 8 8 0 4.416-3.585 8-8 8z"/></g></g></svg>