<svg id="Layer_31" height="512" viewBox="0 0 519.1 500.2" width="512" xmlns="http://www.w3.org/2000/svg"><g><g><g><g><path d="m6 498.4v-161.7c0-3.6 1.2-7.1 3.4-10l34.7-38v121.1c0 8.4 6.8 15.2 15.2 15.2h98.7c-.9 5-2.1 9.7-3.5 14.2-9.1 28.4-35.7 32.4-35.7 32.4v26.8" fill="#efcdb1"/><path d="m124.8 498.4h-12v-31.9l5.1-.8c.9-.1 23.1-4 30.9-28.3.6-2 1.2-4.1 1.8-6.3h-91.3c-11.7 0-21.2-9.5-21.2-21.2v-105.6l-24.1 26.3c-1.3 1.8-2.1 3.9-2.1 6.1v161.7h-11.9v-161.7c0-4.9 1.6-9.6 4.7-13.6l.3-.4 45.1-49.4v136.5c0 5.1 4.1 9.2 9.2 9.2h106l-1.4 7.1c-1 5.4-2.3 10.4-3.7 14.9-7.6 24-26.3 32.5-35.4 35.3z"/></g><g><path d="m482.8 105.1v304.9c0 8.4-6.8 15.2-15.2 15.2h-408.3c-8.4 0-15.2-6.8-15.2-15.2v-304.9c0-8.4 6.8-15.2 15.2-15.2h408.2c8.5 0 15.3 6.8 15.3 15.2z" fill="#3860af"/><g><path d="m467.6 431.1h-408.3c-11.7 0-21.2-9.5-21.2-21.2v-304.8c0-11.7 9.5-21.2 21.2-21.2h408.2c11.7 0 21.2 9.5 21.2 21.2v304.9c.1 11.6-9.4 21.1-21.1 21.1zm-408.3-335.2c-5.1 0-9.2 4.1-9.2 9.2v304.9c0 5.1 4.1 9.2 9.2 9.2h408.2c5.1 0 9.2-4.1 9.2-9.2v-304.9c0-5.1-4.1-9.2-9.2-9.2z"/></g><g><path d="m70 113.6h385.1v255.7h-385.1z" fill="#d1d3d4"/><path d="m455.1 375.3h-385.1c-3.3 0-6-2.7-6-6v-255.7c0-3.3 2.7-6 6-6h385.1c3.3 0 6 2.7 6 6v255.7c0 3.3-2.6 6-6 6zm-379.1-12h373.1v-243.7h-373.1z"/></g><g><path d="m229.7 392h34.9v12h-34.9z"/></g><g><path d="m338 285c-11.1-10.1-68.8-62.7-68.8-62.7-17.2-15.7-18.5-41.1-2.9-58.2l.7-.8c16.7-18.4 46.5-20.3 65.8-4.4 0 0 3.1 2.6 5.2 4.3 2.1-1.7 5.2-4.3 5.2-4.3 19.4-16 49.1-14 65.8 4.4l.7.8c15.6 17.1 14.3 42.5-2.9 58.2 0 .1-57.7 52.6-68.8 62.7z" fill="#bc041f"/><path d="m338 293.1-72.9-66.3c-9.5-8.7-15.1-20.3-15.7-32.7s3.8-24.5 12.4-34l.7-.8c18.9-20.8 52.2-23 74.1-5l1.4 1.1 1.4-1.1c21.9-18.1 55.1-15.8 74.1 5l.7.8c8.6 9.5 13 21.5 12.4 34-.6 12.4-6.2 24-15.7 32.7zm-35.8-138.8c-11.5 0-23 4.4-30.8 13.1l-.7.8c-6.5 7.1-9.7 16.1-9.3 25.3.5 9.2 4.7 17.9 11.8 24.4l64.8 59 64.8-59c7.2-6.5 11.4-15.2 11.8-24.4.5-9.2-2.8-18.2-9.3-25.3l-.7-.8c-14.4-15.9-40.8-17.6-57.6-3.8l-9 7.4-9-7.4c-7.6-6.2-17.2-9.3-26.8-9.3z"/></g><g><g><path d="m332 185.5h12v56h-12z"/></g><g><path d="m310 207.5h56v12h-56z"/></g></g></g><g><path d="m50.4 469.5c9.9-4.5 26.8-11 35.6-39.7 5.1-16.8.5-41.8.5-41.8l30.2-42.2c5.7-7.6 3.8-18.4-4.3-24.1-8.1-5.7-19.3-4.3-25.3 3.1l-38.4 44.8s-15.2 5.5-22.1 24" fill="#efcdb1"/><path d="m52.9 475-5-10.9 1.5-.7c9.8-4.5 23.3-10.5 30.9-35.3 4.7-15.2.4-38.7.3-38.9l-.5-2.5 31.7-44.4c1.7-2.3 2.4-5.1 2-7.9-.5-3.1-2.2-5.8-4.9-7.7-5.5-3.9-13.2-3-17.1 2l-.1.1-39.5 46-1.5.5c-.5.2-12.7 5-18.5 20.5l-11.2-4.2c6.5-17.4 19.5-24.8 24.1-26.9l37.5-43.7c8-9.9 22.6-11.7 33.3-4.2 5.4 3.8 8.9 9.3 9.9 15.6 1 6-.5 12-4.2 16.9l-28.7 40.2c1.1 7.1 3.5 27.2-1.1 42.1-9.2 30-26.9 38-37.5 42.8z"/></g></g><g><g><path d="m364.4 500.2v-19.7l-74.4-53s-12.2-10.2-7.5-18.9c9.7-17.7 30.2-8.9 30.2-8.9l51.8 25.9-1.6-117.6c-.1-8.5 6.8-15.4 15.2-15.4h8c8.4 0 15.2 6.8 15.2 15.2l.4 60.1 83.6 1.1c15.5.2 27.9 12.8 27.9 28.3v102.9" fill="#efcdb1"/><path d="m519.1 500.2h-12v-102.9c0-12.1-9.9-22.1-22-22.3l-89.5-1.2-.4-65.9c0-5.1-4.1-9.3-9.2-9.3h-8c-2.5 0-4.8 1-6.6 2.7s-2.7 4.1-2.7 6.6l1.8 127.5-60.4-30.3c-2.1-.8-15.8-5.8-22.4 6.3-1.7 3.2 3.7 9.3 5.9 11.3l76.7 54.6v22.8h-12v-16.6l-72.1-51.3-.2-.1c-5.9-5-14.5-16.1-8.9-26.3 9.7-17.8 29-15.3 37.8-11.6l.3.2 42.9 21.5-1.5-107.8c-.1-5.7 2.1-11.1 6.1-15.2s9.4-6.3 15.1-6.3h8c11.7 0 21.2 9.5 21.2 21.2l.3 54.1 77.7 1c18.7.2 33.8 15.6 33.8 34.3v103z"/></g><g><path d="m395.6 368.3h12v31.5h-12z"/></g><g><path d="m434 368.3h12v31.5h-12z"/></g><g><path d="m470.6 368.3h12v31.5h-12z"/></g></g><g><g><path d="m380.3 69.9-7.3-9.5c13-10.1 30.8-10.2 43.2-.4l-7.5 9.4c-8-6.4-19.7-6.2-28.4.5z"/></g><g><path d="m364.8 50.1-8.4-8.6c10.7-10.4 24.7-16.2 39.3-16.3 14.7-.1 28.4 5.5 38.4 15.9l-8.6 8.4c-7.7-8-18.3-12.3-29.7-12.2-11.5 0-22.5 4.5-31 12.8z"/></g><g><path d="m345.4 32.8-8.4-8.6c15.9-15.4 36.6-24 58.3-24.2h.7c21.5 0 41.4 8.3 56.1 23.5l-8.6 8.4c-12.4-12.9-29.3-19.9-47.5-19.9-.2 0-.4 0-.6 0-18.6.2-36.4 7.5-50 20.8z"/></g></g></g><g><g><circle cx="250.7" cy="277.8" fill="#5abde0" r="15.9"/><path d="m250.7 299.7c-12.1 0-21.9-9.8-21.9-21.9s9.8-21.9 21.9-21.9 21.9 9.8 21.9 21.9-9.9 21.9-21.9 21.9zm0-31.7c-5.4 0-9.9 4.4-9.9 9.9s4.4 9.9 9.9 9.9 9.9-4.4 9.9-9.9-4.5-9.9-9.9-9.9z"/></g><g><path d="m186.6 353.8h-19.9c-13.9 0-25.2-11.3-25.2-25.2v-63h12v63c0 7.3 5.9 13.2 13.2 13.2h19.9c7.3 0 13.2-5.9 13.2-13.2v-92.8c0-13.9 11.3-25.2 25.2-25.2h6.5c13.9 0 25.2 11.3 25.2 25.2v26.2h-12v-26.2c0-7.3-5.9-13.2-13.2-13.2h-6.5c-7.3 0-13.2 5.9-13.2 13.2v92.8c0 13.9-11.3 25.2-25.2 25.2z"/></g><g><path d="m132.5 265.6c-.8 0-1.6-.2-2.4-.5-.6-.2-14.2-6.1-22.6-18-23.9-33.7-16.6-85.6-16.3-87.8.4-2.9 2.9-5.1 5.9-5.1l18.7-.2.1 12-13.4.1c-1.1 13.3-2.4 49.9 14.7 74 5.2 7.3 13.5 11.9 16.5 13.4l29.6-.5c2.8-1.4 11.3-6 16.6-13.4 17.1-24.1 15.8-60.7 14.7-74l-15.7-.2.2-12 21 .3c2.9 0 5.4 2.2 5.9 5.1.3 2.2 7.6 54.1-16.3 87.8-8.4 11.8-22 17.7-22.6 18-.7.3-1.5.5-2.2.5l-32.2.6c-.1-.1-.2-.1-.2-.1z"/></g></g></g></svg>