<svg id="Layer_1" enable-background="new 0 0 512 512" viewBox="0 0 512 512" xmlns="http://www.w3.org/2000/svg"><g><path d="m504.3 435.1-22.4-102c-2.2-9.9-9.4-17.8-19.1-21 0-1.7.2-74.6-.4-73.8 0-21.8-11.1-42.8-28.8-54.6 0 0 0 0-.1 0v-.1c-15.6-10.5-35.4-12.7-52.9-7.2v-111.5c0-9.3-7.7-17-17.1-17h-224.9c-9.4 0-17 7.6-17 17v34.5c-53.6-21.8-115.6 20.9-114.5 78.9 0 46.6 37.9 84.5 84.5 84.5h30v184.4c0 9.3 7.6 16.9 17 16.9h224.9c1.9 0 3.8-.4 5.6-1h112.7c14.2.4 25.9-14.2 22.5-28zm-89.1-147.4c-23.5 19.1-52-12.6-50.9-37v-11.1c13.6-2.3 33.1-11.5 44.2-18.1 6.8 9 16.2 15.1 25.5 20.9 3.1 16.8-4.5 35.5-18.8 45.3zm.5 17.5-16.2 9.4-16.2-9.4 1-4.9c9.4 5.1 21.2 5.3 30.5-.1zm-40.8-11.2-1.4 7c-5.1-1-10.2 1.2-14.7 2.9-1.3.5-10.4 3.7-11.9 4.3v-65.9c2.4-.2 4.7-.5 7.1-.8-1.5 20 4.7 39.9 20.9 52.5zm-7.2 17.7c2.1 3.8 7.8 13.9 10 17.9l-10.3 2.3-1.6-19.5zm64.3-10.6c-.7-.1-1.5-.2-2.2-.3-.1 0-.7.1-.8-.1-1 .1-2.5 0-3.5.3l-1.5-7.2c14.3-11.3 21.8-29.2 20.8-47.4 2.5.6 5 1.4 7.5 2.1v59.8c-.1-.1-12.2-4.4-12.2-4.5-2-.5-6-2.3-8.1-2.7zm1.4 11.4-1.6 19.4-10.3-2.3 9.9-17.8c.3.1 1.7.5 2 .7zm-4.8-111.5c1.3-1.7 2.4-3.5 3.6-5.3 12.1 10.1 19.5 25.7 19.7 42-13.9-3.4-26.3-11.5-35.2-22.5 4.4-4.3 8.6-9.1 11.9-14.2zm-21.5-16.5c5.7.8 11.3 2.6 16.5 5.3-15.3 27-47.1 38.6-76.5 42 1.8-29.3 31.3-52 60-47.3zm-275.1-119.6c0-3.6 3-6.6 6.6-6.6h224.9c3.7 0 6.7 3 6.7 6.6v115.8c-.3.2-.6.4-.8.5-2.6 1.3-5 3.1-7.4 4.7v-111.4c0-2.9-2.3-5.2-5.2-5.2h-61.9c-1.6 0-3.1.8-4.1 2l-6.5 8.4c-.9 1.2-2.3 1.9-3.7 1.9h-59.1c-1.3 0-2.8-.7-3.7-1.9l-6.5-8.4c-1-1.2-2.5-2-4.1-2h-61.8c-2.9 0-5.2 2.3-5.2 5.2v34.7c-2.6-1.9-5.4-3.6-8.3-5.1v-39.2zm-40.4 187.5c-40.8 0-74.1-33.3-74.1-74.1-.4-64.1 77.9-98.3 124.5-54.4 31.2 27.8 31.6 80.4.3 108.3-2.4 2.2-2.1 6.5.8 8.2 0 0 19.1 11.9 19.1 11.9h-70.6zm47 201.3c-3.7 0-6.6-2.9-6.6-6.5v-184.5h8.3v151.5c0 5.6 4.6 10.1 10.2 10.1h146.5c-.8 4.4-2.8 11-2.9 15.4-.1 5 1.6 9.9 4.5 14zm12-39.4v-151.6h29.6c5 .1 7.1-7 2.8-9.6 0 0-28.9-18.1-28.9-18.1 30.5-32.1 28.9-86.9-3.4-117.1v-38.2h54.1c4.2 5.7 9 12.6 16.9 12.3h59.1c7.7.4 12.7-6.7 16.8-12.3h54.1v116.1c-9.6 11.3-15 25.6-15 40.6v75.5c-9.7 3-17.5 11.3-19.5 21.1 0 0-17.7 81-17.7 81zm217.9 38.4c-.1.1-51.5 0-51.5 0-7.8.2-14.2-7.7-12.3-15.4 2.3-10.4 19.7-89.9 22.4-102.1 1.6-8.1 8.7-12.5 16.2-14.7.2.1 12.2-4.5 12.4-4.5l1.9 22.7c.2 2.4 2 4.4 4.5 4.7 0 .7 18.3-4 19-4 2.7 25 9.4 87.6 12.1 113.3zm22.3-120.2c.4-1.1-7.8-14.5-8.3-15.7l14.6 8.5c1.3.4 2.6.8 3.9.3 4.3-1.9 11.8-6.8 15.9-9-.1.1-7.8 13.9-7.8 14-.4.6-.6 1.3-.6 2l-8.8 82.4zm100.8 115.5c-2.4 3-6 4.7-9.9 4.7h-75.7c2.6-24.3 9.6-89.9 12.1-113.3.8 0 18.9 4.7 19 4 2.4-.2 4.3-2.3 4.5-4.7 0 0 1.9-22.5 1.9-22.5.1 0 12.2 4.5 12.4 4.5 7.3 2 14.3 6.7 15.8 14.6 0 0 22.4 102.1 22.4 102.1.9 3.7 0 7.5-2.5 10.6z" fill="#231f20"/><g fill="#945740"><path d="m451.9 237.7c-13.9-3.4-26.3-11.5-35.2-22.5 6.1-5.8 11.1-12.4 15.5-19.5 12.1 10.1 19.5 25.7 19.7 42z"/><path d="m452.4 248.6v59.8c-.1-.1-12.2-4.4-12.2-4.5-3-1-7.2-3-10.3-3-.1 0-.7.1-.8-.1-1 .1-2.5 0-3.5.3l-1.5-7.2c14.3-11.3 21.8-29.2 20.8-47.4 2.4.7 4.9 1.4 7.5 2.1z"/><path d="m423.6 189.8c-15.3 27-47.1 38.6-76.5 42 2.1-36.1 45.1-59.5 76.5-42z"/><path d="m374.9 294-1.4 7c-5.1-1-10.2 1.2-14.7 2.9-1.3.5-10.4 3.7-11.9 4.3v-65.9c2.4-.2 4.7-.5 7.1-.8-1.5 20 4.7 39.9 20.9 52.5z"/></g><path d="m491.6 448c-2.4 3-6 4.7-9.9 4.7h-75.7c2.6-24.3 9.6-89.9 12.1-113.3.8 0 18.9 4.7 19 4 2.4-.2 4.3-2.3 4.5-4.7 0 0 1.9-22.5 1.9-22.5.1 0 12.2 4.5 12.4 4.5 7.3 2 14.3 6.7 15.8 14.6 0 0 22.4 102.1 22.4 102.1.9 3.7 0 7.5-2.5 10.6z" fill="#d5dcf8"/><path d="m433.4 312.5-1.6 19.4-10.3-2.3 9.9-17.8c.3.1 1.7.5 2 .7z" fill="#d5dcf8"/><path d="m377.7 329.5-10.3 2.3-1.6-19.5 1.9-.7c2.1 3.9 7.8 14 10 17.9z" fill="#d5dcf8"/><path d="m393.2 452.7c-15.8 0-59.9 0-76.2 0-3.8 0-7.4-1.7-9.8-4.7-4.2-4.5-2.6-11.2-1.2-16.6 0-.1 2.5-11.1 2.4-11.2 0 0 18.7-85.1 18.7-85.1.2-1.1.7-2.4 1.3-3.7 2.5-6.1 9-9.3 15-10.9 0 0 12.2-4.5 12.2-4.5l1.9 22.7c.2 2.4 2 4.4 4.5 4.7 0 .7 18.3-4 19-4 2.8 25 9.5 87.6 12.2 113.3z" fill="#d5dcf8"/><path d="m416.9 316.5c-.1.1-7.8 13.9-7.8 14-.4.6-.6 1.3-.6 2l-8.8 82.4-8.8-82.4c.3-1.1-7.8-14.5-8.3-15.7l14.6 8.5c1.3.4 2.6.8 3.9.3 4.2-2 11.7-6.9 15.8-9.1z" fill="#44569b"/><path d="m415.7 305.2-16.2 9.4-16.2-9.4 1-4.9c9.4 5.1 21.2 5.3 30.5-.1z" fill="#f6c9af"/><path d="m434.5 250.7c0 17.7-10.6 34.2-27 41.4-22.7 8.3-43.9-20.6-43.1-41.4v-11.1c13.6-2.3 33.1-11.5 44.2-18.1 6.8 9 16.2 15.1 25.5 20.9 1.3 1.8.4 6.1.4 8.3z" fill="#f6c9af"/><path d="m140.6 236.5c-.2-1.6.5-3.2 1.6-4.3 31.3-27.9 30.9-80.5-.3-108.3-46.5-43.9-124.8-9.7-124.4 54.4 0 40.8 33.3 74.1 74.1 74.1h70.5l-19.1-12c-1.3-.9-2.2-2.3-2.4-3.9zm-16.4-42.4h-13v13c0 9.9-8.1 18-18 18s-18-8.1-18-18v-13h-13c-10 0-18-8.1-18-18 0-10 8-18 18-18h13v-13c0-9.9 8.1-18 18-18s18 8.1 18 18v13h13c23.7.6 23.7 35.4 0 36z" fill="#78e7dc"/><path d="m298.5 453.7h-159.9c-3.7 0-6.6-2.9-6.6-6.5v-184.5h8.3v151.5c0 5.6 4.6 10.1 10.2 10.1h146.5c-.8 4.4-2.8 11-2.9 15.4-.1 5.1 1.5 10 4.4 14z" fill="#66aff1"/><path d="m370.2 64.9v115.8c-.3.2-.6.4-.8.5-2.6 1.3-5 3.1-7.4 4.7v-111.4c0-2.9-2.3-5.2-5.2-5.2h-61.9c-1.6 0-3.1.8-4.1 2l-6.5 8.4c-.9 1.2-2.3 1.9-3.7 1.9h-59.1c-1.3 0-2.8-.7-3.7-1.9l-6.5-8.4c-1-1.2-2.5-2-4.1-2h-61.8c-2.9 0-5.2 2.3-5.2 5.2v34.7c-2.6-1.9-5.4-3.6-8.3-5.1v-39.2c0-3.6 3-6.6 6.6-6.6h224.9c3.7 0 6.8 2.9 6.8 6.6z" fill="#66aff1"/><path d="m297.4 79.7c-4.1 5.6-9.1 12.7-16.8 12.3h-59.1c-7.8.4-12.7-6.6-16.9-12.3h-54.1v38.3c32.3 30.2 33.9 85 3.4 117.1l28.9 18.1c4.4 2.6 2.3 9.7-2.8 9.6h-29.6v151.5l148.6-.3 17.7-81c2-9.8 9.8-18 19.5-21.1v-75.5c0-15 5.4-29.4 15-40.6v-116.1zm-86.8 42.8c10.7-11 29.5-11.4 40.4-.7 17.7-17.4 49.6-3.6 48.9 21.3 0 7.7-3 15-8.5 20.5l-36.7 36.7c-1.9 2.1-5.4 2.1-7.4 0 0 0-36.7-36.7-36.7-36.7-11.2-11.3-11.2-29.7 0-41.1zm77.3 267h-114.1c-2.9 0-5.2-2.3-5.2-5.2s2.3-5.2 5.2-5.2h10.2v-20.7c0-2.9 2.3-5.2 5.2-5.2h17c2.9 0 5.2 2.3 5.2 5.2v20.7h5.3v-38.6c0-2.9 2.3-5.2 5.2-5.2h17c2.9 0 5.2 2.3 5.2 5.2v38.6h5.3v-54.7c0-2.9 2.3-5.2 5.2-5.2h17.1c2.9 0 5.2 2.3 5.2 5.2v54.7h10.9c6.9.1 6.9 10.4.1 10.4zm30.4-140.7h-42.1c-4.5.3-6.4-6.7-8.4-9.5l-4.5 9.8c-.8 1.8-2.5 3-4.5 3-2.2.1-3.8-1-4.8-2.8l-6.5-12.2-6.4 19.9c-1.1 3.8-6.5 4.9-8.9 1.7 0 0-8.7-10.5-8.7-10.5h-39.6c-6.8 0-6.8-10.4 0-10.4h42c3.5-.3 6.2 4.9 8.2 7l7.2-22.5c1.2-4.3 7.6-4.9 9.5-.9 0 0 7.4 13.9 7.4 13.9l4.4-9.5c.8-1.8 2.5-3 4.5-3 2-.1 3.8.9 4.7 2.6l7.3 13.1h39.1c6.9.1 6.9 10.2.1 10.3z" fill="#eaeffe"/><path d="m291.4 122.5c-10.6-11-29.5-11.3-40.4-.7-28.3-25-66.3 14.2-40.4 41.8 0 0 36.7 36.7 36.7 36.7 2 2.1 5.4 2.1 7.4 0 0 0 36.7-36.7 36.7-36.7 11.3-10.8 11.3-30.2 0-41.1zm-7.3 33.8-33 33.1-33.1-33.1c-18.1-20.7 12.4-45.1 29.4-23.4 2 2 5.4 2 7.4-.1 17.1-21.3 47.5 2.9 29.3 23.5z" fill="#231f20"/><path d="m289.6 143.1c0 5-1.9 9.7-5.5 13.2l-33 33.1-33.1-33.1c-18.1-20.7 12.4-45.1 29.4-23.4 2 2 5.4 2 7.4-.1 11.1-14.6 34.4-8.7 34.8 10.3z" fill="#f44a7e"/><path d="m323.5 243.6c0 2.9-2.3 5.2-5.2 5.2h-42.1c-4.5.3-6.4-6.7-8.4-9.5l-4.5 9.8c-.8 1.8-2.5 3-4.5 3-2.2.1-3.8-1-4.8-2.8l-6.5-12.2-6.4 19.9c-1.1 3.8-6.5 4.9-8.9 1.7 0 0-8.7-10.5-8.7-10.5h-39.6c-6.8 0-6.8-10.4 0-10.4h42c3.5-.3 6.2 4.9 8.2 7l7.2-22.5c1.2-4.3 7.6-4.9 9.5-.9 0 0 7.4 13.9 7.4 13.9l4.4-9.5c.8-1.8 2.5-3 4.5-3 2-.1 3.8.9 4.7 2.6l7.3 13.1h39.1c2.9 0 5.3 2.3 5.3 5.1z" fill="#231f20"/><path d="m124.2 158.1h-13v-13c0-9.9-8.1-18-18-18s-18 8.1-18 18v13h-13c-10 0-18 8-18 18 0 9.9 8 18 18 18h13v13c0 9.9 8.1 18 18 18s18-8.1 18-18v-13h13c23.7-.6 23.7-35.5 0-36zm0 25.6h-18.2c-2.9 0-5.2 2.3-5.2 5.2v18.2c-.2 10-15.1 10-15.3 0v-18.2c0-2.9-2.3-5.2-5.2-5.2h-18.1c-4.3 0-7.6-3.4-7.6-7.6s3.4-7.6 7.6-7.6c27.5-.2 23 3.9 23.4-23.4 0-4.2 3.4-7.6 7.6-7.6s7.6 3.4 7.6 7.6v18.2c0 2.9 2.3 5.2 5.2 5.2h18.2c10 .1 10 15 0 15.2z" fill="#231f20"/><path d="m131.8 176.1c0 4.2-3.4 7.6-7.6 7.6-27.5.3-23-4-23.4 23.4 0 4.2-3.4 7.6-7.6 7.6s-7.6-3.4-7.6-7.6c-.3-27.5 4-23-23.4-23.4-4.3 0-7.6-3.4-7.6-7.6s3.4-7.6 7.6-7.6c27.5-.2 23 3.9 23.4-23.4 0-4.2 3.4-7.6 7.6-7.6s7.6 3.4 7.6 7.6c.3 27.5-4 23.1 23.4 23.4 4.2 0 7.6 3.4 7.6 7.6z" fill="#f44a7e"/><path d="m287.9 379.1h-10.9v-54.7c0-2.9-2.3-5.2-5.2-5.2h-17.1c-2.9 0-5.2 2.3-5.2 5.2v54.7h-5.3v-38.6c0-2.9-2.3-5.2-5.2-5.2h-17c-2.9 0-5.2 2.3-5.2 5.2v38.6h-5.3v-20.7c0-2.9-2.3-5.2-5.2-5.2h-17c-2.9 0-5.2 2.3-5.2 5.2v20.7h-10.2c-6.8.1-6.8 10.2 0 10.4h114.1c6.7-.1 6.8-10.2-.1-10.4zm-86.8 0h-6.6v-15.5h6.6zm32.7 0h-6.6v-33.4h6.6zm32.8 0h-6.7v-49.5h6.7z" fill="#231f20"/><path d="m259.9 329.6h6.7v49.5h-6.7z" fill="#f44a7e"/><path d="m227.2 345.8h6.6v33.4h-6.6z" fill="#f44a7e"/><path d="m194.4 363.6h6.6v15.5h-6.6z" fill="#f44a7e"/></g></svg>