<svg id="LineExpandedColor" enable-background="new 0 0 64 64" height="512" viewBox="0 0 64 64" width="512" xmlns="http://www.w3.org/2000/svg"><path d="m41.864 13.136c-1.194 1.194-1.864 2.812-1.864 4.5 0 3.515 2.849 6.364 6.364 6.364 1.688 0 3.307-.67 4.5-1.864l4.136-4.136-9-9z" fill="#0acfcf"/><path d="m54.636 3c-1.688 0-3.307.67-4.5 1.864l-4.136 4.136 9 9 4.136-4.136c1.194-1.194 1.864-2.812 1.864-4.5 0-3.515-2.849-6.364-6.364-6.364z" fill="#618bf2"/><circle cx="23" cy="7" fill="#0acfcf" r="4"/><path d="m25 50h-8v9h7 3c.552 0 1-.448 1-1v-6z" fill="#09c1c4"/><path d="m25 50-2.447-4.894c-.339-.678-1.032-1.106-1.789-1.106h-3.764v6z" fill="#d7e3f9"/><path d="m17 44h-12c-1.105 0-2 .895-2 2v13h5 9v-9z" fill="#0acfcf"/><circle cx="10" cy="59" fill="#3162a8" r="2"/><circle cx="22" cy="59" fill="#3162a8" r="2"/><circle cx="52" cy="44" fill="#ffbb4d" r="5"/><path d="m52 49c-4.971 0-9 4.029-9 9v3h18v-3c0-4.971-4.029-9-9-9z" fill="#ffbb4d"/><g fill="#362d44"><path d="m46.364 25c1.967 0 3.816-.766 5.207-2.157l8.271-8.271c1.392-1.391 2.158-3.241 2.158-5.208 0-4.06-3.304-7.364-7.364-7.364-1.967 0-3.816.766-5.207 2.157l-8.271 8.271c-1.392 1.391-2.158 3.241-2.158 5.208 0 4.06 3.304 7.364 7.364 7.364zm4.479-19.429c.999-.999 2.381-1.571 3.793-1.571 2.958 0 5.364 2.406 5.364 5.364 0 1.412-.572 2.794-1.571 3.793l-3.429 3.429-7.586-7.586zm-8.272 8.272 3.429-3.429 7.586 7.586-3.429 3.429c-.999.999-2.381 1.571-3.793 1.571-2.958 0-5.364-2.406-5.364-5.364 0-1.412.572-2.794 1.571-3.793z"/><path d="m7 13.91v5.59c0 1.93 1.57 3.5 3.5 3.5s3.5-1.57 3.5-3.5v-2c0-.827.673-1.5 1.5-1.5s1.5.673 1.5 1.5v2c0 1.93 1.57 3.5 3.5 3.5s3.5-1.57 3.5-3.5v-7.601c2.279-.465 4-2.484 4-4.899 0-2.757-2.243-5-5-5s-5 2.243-5 5c0 2.414 1.721 4.434 4 4.899v7.601c0 .827-.673 1.5-1.5 1.5s-1.5-.673-1.5-1.5v-2c0-1.93-1.57-3.5-3.5-3.5s-3.5 1.57-3.5 3.5v2c0 .827-.673 1.5-1.5 1.5s-1.5-.673-1.5-1.5v-5.59c2.833-.478 5-2.942 5-5.91v-5c0-.553-.447-1-1-1h-2v2h1v4c0 2.206-1.794 4-4 4s-4-1.794-4-4v-4h1v-2h-2c-.553 0-1 .447-1 1v5c0 2.967 2.167 5.431 5 5.91zm13-6.91c0-1.654 1.346-3 3-3s3 1.346 3 3-1.346 3-3 3-3-1.346-3-3z"/><path d="m28.555 51.168-2.779-1.853-2.328-4.657c-.512-1.022-1.541-1.658-2.684-1.658h-15.764c-1.654 0-3 1.346-3 3v13c0 .553.447 1 1 1h4.184c.414 1.161 1.514 2 2.816 2s2.402-.839 2.816-2h6.369c.414 1.161 1.514 2 2.816 2s2.402-.839 2.816-2h2.183c1.103 0 2-.897 2-2v-6c0-.334-.167-.646-.445-.832zm-6.897-5.615 1.724 3.447h-5.382v-4h2.764c.382 0 .724.212.894.553zm-17.658.447c0-.552.448-1 1-1h11v5 8h-3.184c-.414-1.161-1.514-2-2.816-2s-2.402.839-2.816 2h-3.184zm6 14c-.552 0-1-.448-1-1s.448-1 1-1 1 .448 1 1-.448 1-1 1zm12 0c-.552 0-1-.448-1-1s.448-1 1-1 1 .448 1 1-.448 1-1 1zm5-2h-2.184c-.414-1.161-1.514-2-2.816-2s-2.402.839-2.816 2h-1.184v-7h6.697l2.303 1.535z"/><path d="m8 53h2v-2h2v-2h-2v-2h-2v2h-2v2h2z"/><path d="m55.696 48.717c1.4-1.1 2.304-2.803 2.304-4.717 0-3.309-2.691-6-6-6s-6 2.691-6 6c0 1.914.904 3.617 2.304 4.717-3.688 1.474-6.304 5.076-6.304 9.283v3c0 .553.447 1 1 1h18c.553 0 1-.447 1-1v-3c0-4.207-2.616-7.809-6.304-9.283zm-7.696-4.717c0-2.206 1.794-4 4-4s4 1.794 4 4-1.794 4-4 4-4-1.794-4-4zm12 16h-16v-2c0-4.411 3.589-8 8-8s8 3.589 8 8z"/><path d="m33.105 26.447 1.789-.895-1.193-2.386c4.152.798 7.299 4.453 7.299 8.834 0 4.963-4.037 9-9 9s-9-4.037-9-9c0-2.37.914-4.607 2.573-6.301l-1.428-1.4c-2.028 2.07-3.145 4.805-3.145 7.701 0 6.065 4.935 11 11 11s11-4.935 11-11c0-4.933-3.265-9.118-7.747-10.508l1.194-.597-.895-1.789-4 2c-.494.247-.694.848-.447 1.342z"/><path d="m32.707 32.707c.188-.187.293-.441.293-.707v-5h-2v4.586l-2.707 2.707 1.414 1.414z"/><path d="m8.02 24.906-1.918-.564c-.188.635-.353 1.281-.491 1.921l1.955.424c.127-.593.281-1.192.454-1.781z"/><path d="m5.012 31.18 2 .061c.019-.615.059-1.232.121-1.833l-1.99-.205c-.067.648-.111 1.314-.131 1.977z"/><path d="m8.398 40.266c-.201-.575-.384-1.165-.542-1.753l-1.932.52c.171.636.368 1.273.587 1.896z"/><path d="m7.289 35.818c-.092-.598-.162-1.212-.211-1.825l-1.994.158c.053.661.13 1.324.229 1.97z"/><path d="m38.911 56.033.551 1.922c.58-.166 1.153-.352 1.718-.556l-.68-1.881c-.521.189-1.052.361-1.589.515z"/><path d="m34.818 56.842.221 1.988c.602-.067 1.197-.154 1.787-.261l-.355-1.969c-.545.099-1.096.18-1.653.242z"/><path d="m32 57c-.455 0-.908-.012-1.356-.036l-.109 1.996c.484.026.973.04 1.473.04h.002l.327-.003-.018-2z"/><path d="m54.312 20.71c.309.608.596 1.24.855 1.877l1.854-.754c-.28-.688-.591-1.369-.925-2.027z"/><path d="m58.569 27.173c-.133-.733-.297-1.465-.486-2.173l-1.932.518c.175.655.327 1.333.451 2.013z"/><path d="m58.7 36.041-1.979-.295c-.101.677-.232 1.357-.39 2.023l1.945.461c.172-.719.315-1.456.424-2.189z"/><path d="m59 32c0-.508-.015-1.011-.042-1.511l-1.996.109c.025.464.038.931.038 1.402 0 .222-.003.443-.009.664l2 .051c.006-.238.009-.476.009-.715z"/><path d="m44.248 7.93c-.564-.286-1.139-.554-1.725-.803l-.781 1.842c.543.229 1.076.478 1.598.744z"/><path d="m39.839 6.155c-.604-.183-1.224-.347-1.84-.486l-.441 1.951c.575.13 1.144.28 1.703.449z"/><path d="m35.187 5.187c-.625-.074-1.258-.126-1.895-.156l-.096 1.998c.591.028 1.177.076 1.757.145z"/><path d="m30.553 7.041-.115-1.996c-.636.036-1.268.095-1.892.174l.252 1.984c.579-.073 1.164-.128 1.755-.162z"/></g></svg>