<svg id="Capa_1" enable-background="new 0 0 512 512" height="512" viewBox="0 0 512 512" width="512" xmlns="http://www.w3.org/2000/svg"><g><g><path d="m102.862 385.094c-1.171-12.969-11.837-23.355-24.83-24.216-5.309-.352-10.312.847-14.604 3.186-3.359 1.831-7.349 1.831-10.708 0-4.292-2.339-9.295-3.538-14.604-3.186-12.992.861-23.658 11.246-24.83 24.214-.971 10.749 4.42 20.327 12.834 25.408 2.947 1.78 5.013 4.798 5.247 8.233.171 2.505.699 5.039 1.625 7.542 4.426 11.971 16.999 19.22 29.574 17.039 12.67-2.197 21.4-12.688 22.21-24.561.235-3.445 2.305-6.472 5.261-8.259 8.408-5.082 13.795-14.657 12.825-25.4z" fill="#aad880"/></g><g><g><path d="m102.862 385.094c-1.171-12.969-11.837-23.355-24.83-24.216-4.903-.325-9.538.686-13.6 2.683 8.166 4.021 14.074 12.081 14.927 21.533.97 10.744-4.417 20.318-12.824 25.401-2.955 1.786-5.026 4.813-5.261 8.259-.643 9.429-6.292 17.969-14.931 22.193 4.915 2.408 10.566 3.349 16.224 2.368 12.67-2.197 21.4-12.688 22.21-24.561.235-3.445 2.305-6.472 5.261-8.259 8.407-5.083 13.794-14.658 12.824-25.401z" fill="#80cb8e"/></g></g><g><path d="m383.238 503.635c7.545-2.824 11.993-10.889 10.378-18.781-.66-3.225-2.195-6.013-4.294-8.19-1.643-1.704-2.297-4.084-1.755-6.388.692-2.944.587-6.125-.492-9.234-2.643-7.61-10.586-12.271-18.514-10.844-6.572 1.182-11.402 5.968-13.055 11.82-.579 2.05-2.041 3.777-4.051 4.479-1.466.512-2.891 1.243-4.233 2.205-6.416 4.602-8.68 13.291-5.319 20.435 3.387 7.199 11.076 10.687 18.292 9.225 2.094-.424 4.239.315 5.789 1.785 4.409 4.183 11.004 5.828 17.254 3.488z" fill="#f4dd45"/></g><g><path d="m393.616 484.854c-.66-3.225-2.195-6.013-4.294-8.19-1.643-1.704-2.297-4.084-1.755-6.388.692-2.944.587-6.125-.492-9.234-2.643-7.61-10.586-12.271-18.514-10.844-2.951.531-5.547 1.793-7.666 3.548 2.288 1.877 4.099 4.365 5.117 7.297 1.08 3.109 1.185 6.29.492 9.234-.542 2.304.112 4.684 1.755 6.388 2.099 2.177 3.634 4.965 4.294 8.19 1.244 6.076-1.116 12.245-5.707 16.055 4.38 3.612 10.537 4.917 16.392 2.726 7.545-2.824 11.993-10.889 10.378-18.782z" fill="#eab14d"/></g><g><path d="m498.109 206.289-8.068-13.573c-1.713-2.882-2.049-6.345-1.067-9.55.789-2.575 1.216-5.309 1.216-8.143 0-10.537-5.858-19.701-14.493-24.425-2.92-1.597-5.114-4.253-5.934-7.479l-3.229-12.692c-1.102-4.331-7.254-4.331-8.356 0l-3.229 12.692c-.82 3.225-3.014 5.881-5.934 7.479-8.635 4.724-14.493 13.888-14.493 24.425 0 2.834.426 5.568 1.216 8.143.983 3.206.647 6.668-1.067 9.55l-8.068 13.573c-2.283 3.841 2.067 8.192 5.908 5.908l14.763-8.775c2.566-1.525 5.628-2.048 8.53-1.346 2.101.508 4.294.779 6.551.779s4.45-.27 6.551-.779c2.902-.702 5.963-.18 8.53 1.346l14.763 8.775c3.843 2.283 8.193-2.067 5.91-5.908z" fill="#bed8fb"/></g><g><g><path d="m498.109 206.289-8.068-13.573c-1.713-2.882-2.049-6.345-1.067-9.55.789-2.575 1.216-5.309 1.216-8.143 0-10.537-5.858-19.701-14.493-24.425-2.92-1.597-5.114-4.253-5.934-7.479l-3.229-12.692c-1.102-4.331-7.254-4.331-8.356 0l-3.229 12.692c-.555 2.181-1.749 4.092-3.36 5.601 1.064 2.446 2.948 4.46 5.329 5.763 8.635 4.724 14.493 13.888 14.493 24.425 0 2.834-.426 5.568-1.216 8.143-.983 3.206-.647 6.668 1.067 9.55l3.334 5.609c.988.279 1.945.68 2.84 1.212l14.763 8.775c3.843 2.283 8.193-2.067 5.91-5.908z" fill="#9dc6fb"/></g></g><g><circle cx="388.461" cy="80.41" fill="#c8ea73" r="53.852"/></g><g><path d="m415.467 33.827c7.075 9.114 11.298 20.552 11.298 32.983 0 29.741-24.11 53.852-53.852 53.852-9.845 0-19.065-2.655-27.006-7.269 9.852 12.692 25.243 20.869 42.554 20.869 29.741 0 53.852-24.11 53.852-53.852-.001-19.896-10.799-37.259-26.846-46.583z" fill="#aad880"/></g><g><circle cx="244.762" cy="255.739" fill="#fff9e2" r="211.506"/></g><g><path d="m380.101 93.208c30.574 36.677 48.975 83.857 48.975 135.339 0 116.812-94.695 211.506-211.506 211.506-51.482 0-98.662-18.401-135.339-48.975 38.798 46.542 97.202 76.167 162.531 76.167 116.812 0 211.506-94.695 211.506-211.506 0-65.329-29.625-123.733-76.167-162.531z" fill="#f9efaf"/></g><g><path d="m270.912 118.437-20.607-16.049c-3.26-2.539-7.827-2.539-11.087 0l-20.607 16.049c-26.283 20.469-60.796 27.073-92.779 17.751l-17.457-5.088c-2.887-.841-5.773 1.324-5.773 4.331v100.052c0 58.198 28.071 112.823 75.39 146.705l60.467 43.297c3.769 2.698 8.837 2.698 12.606 0l60.467-43.297c47.319-33.882 75.39-88.507 75.39-146.705v-100.051c0-3.007-2.886-5.172-5.773-4.331l-17.457 5.088c-31.984 9.321-66.497 2.717-92.78-17.752z" fill="#e28086"/></g><g><path d="m381.149 131.101-17.458 5.088c-4.94 1.44-9.94 2.497-14.961 3.184v77.654c0 58.198-28.071 112.823-75.39 146.705l-60.563 43.365 25.681 18.389c3.769 2.699 8.837 2.699 12.606 0l60.467-43.297c47.319-33.882 75.39-88.507 75.39-146.705v-100.052c.001-3.007-2.886-5.173-5.772-4.331z" fill="#dd636e"/></g><g><path d="m381.149 131.101-17.458 5.088c-31.983 9.321-66.496 2.718-92.779-17.751l-20.607-16.049c-1.956-1.523-4.381-2.125-6.713-1.821v326.871c2.588.281 5.255-.365 7.473-1.953l60.467-43.297c47.319-33.882 75.39-88.507 75.39-146.705v-100.052c0-3.007-2.887-5.173-5.773-4.331z" fill="#dd636e"/></g><g><path d="m305.454 226.287h-32.471c-1.936 0-3.506-1.57-3.506-3.506v-32.471c0-2.905-2.355-5.259-5.259-5.259h-41.251c-2.905 0-5.259 2.355-5.259 5.259v32.471c0 1.936-1.57 3.506-3.506 3.506h-32.472c-2.905 0-5.259 2.355-5.259 5.259v41.251c0 2.905 2.355 5.259 5.259 5.259h32.471c1.936 0 3.506 1.57 3.506 3.506v32.471c0 2.905 2.355 5.259 5.259 5.259h41.251c2.905 0 5.259-2.355 5.259-5.259v-32.471c0-1.936 1.57-3.506 3.506-3.506h32.471c2.905 0 5.259-2.355 5.259-5.259v-41.251c.001-2.904-2.354-5.259-5.258-5.259z" fill="#efecef"/></g><g><path d="m305.454 226.287h-32.471c-1.936 0-3.506-1.57-3.506-3.506v-32.471c0-2.905-2.355-5.259-5.259-5.259h-20.626v134.243h20.626c2.905 0 5.259-2.355 5.259-5.259v-32.471c0-1.936 1.57-3.506 3.506-3.506h32.471c2.905 0 5.259-2.355 5.259-5.259v-41.251c0-2.906-2.354-5.261-5.259-5.261z" fill="#e2d8ec"/></g><g><g><path d="m381.149 131.101-17.458 5.088c-4.94 1.44-9.94 2.497-14.961 3.184v77.654c0 58.198-28.071 112.823-75.39 146.705l-29.749 21.301v42.406c2.588.281 5.255-.365 7.473-1.953l60.467-43.297c47.319-33.882 75.39-88.507 75.39-146.705v-100.052c.001-3.007-2.886-5.173-5.772-4.331z" fill="#da4a54"/></g></g><g><path d="m88.453 85.613c6.19-6.19 8.854-14.569 7.994-22.644-.361-3.389 1.093-6.739 3.741-8.885.87-.705 1.673-1.532 2.389-2.483 3.778-5.024 3.652-12.15-.302-17.036-5.289-6.535-14.901-6.909-20.686-1.125-.436.436-.836.894-1.201 1.37-2.016 2.631-5.357 3.796-8.653 3.445-8.075-.86-16.455 1.805-22.644 7.994-6.195 6.195-8.856 14.584-7.988 22.665.31 2.884-.676 5.804-2.781 7.799-.845.8-1.612 1.733-2.275 2.807-3.115 5.054-2.643 11.689 1.185 16.227 5.326 6.316 14.781 6.615 20.499.898.012-.012.024-.025.037-.037 2.122-2.138 5.027-3.331 8.022-3.01 8.081.87 16.469-1.79 22.663-7.985z" fill="#f4dd45"/></g><g><path d="m102.275 34.565c-2.983-3.686-7.341-5.41-11.613-5.177.271 3.312-.619 6.709-2.696 9.471-.715.951-1.519 1.778-2.389 2.483-2.648 2.146-4.102 5.496-3.741 8.885.86 8.075-1.805 16.455-7.994 22.644-6.195 6.195-14.582 8.855-22.664 7.988-2.995-.322-5.9.872-8.022 3.01-.012.012-.024.025-.037.037-2.521 2.521-5.769 3.869-9.069 4.05.23 2.813 1.296 5.558 3.182 7.793 5.326 6.316 14.782 6.615 20.499.898.012-.012.024-.025.037-.037 2.122-2.138 5.027-3.331 8.022-3.01 8.081.868 16.469-1.793 22.664-7.988 6.19-6.19 8.854-14.569 7.994-22.644-.361-3.389 1.093-6.739 3.741-8.885.87-.705 1.673-1.532 2.389-2.483 3.777-5.023 3.652-12.15-.303-17.035z" fill="#eab14d"/></g><g><circle cx="141.128" cy="25.485" fill="#c8ea73" r="18.2"/></g><g><circle cx="127.948" cy="476.963" fill="#bed8fb" r="18.2"/></g><g><path d="m146.166 8.007c.461 1.601.722 3.288.722 5.038 0 10.051-8.148 18.2-18.2 18.2-1.75 0-3.436-.261-5.038-.722 2.187 7.598 9.176 13.162 17.478 13.162 10.051 0 18.2-8.148 18.2-18.2 0-8.302-5.564-15.291-13.162-17.478z" fill="#aad880"/></g><g><path d="m132.985 459.485c.461 1.602.722 3.288.722 5.038 0 10.051-8.148 18.2-18.2 18.2-1.75 0-3.436-.261-5.038-.722 2.187 7.598 9.176 13.162 17.478 13.162 10.051 0 18.2-8.148 18.2-18.2 0-8.302-5.564-15.291-13.162-17.478z" fill="#9dc6fb"/></g><g><circle cx="462.357" cy="250.229" fill="#bed8fb" r="18.2"/></g><g><path d="m467.395 232.751c.461 1.602.722 3.288.722 5.038 0 10.051-8.148 18.2-18.2 18.2-1.75 0-3.436-.261-5.038-.722 2.187 7.598 9.176 13.162 17.478 13.162 10.051 0 18.2-8.148 18.2-18.2 0-8.302-5.564-15.291-13.162-17.478z" fill="#9dc6fb"/></g><g><path d="m394.703 471.751c.983-4.339.725-8.864-.747-13.098-3.806-10.961-15.28-17.673-26.687-15.625-8.996 1.618-16.141 8.032-18.706 16.768-12.875 4.632-19.261 20.119-13.254 32.445 4.632 9.846 15.209 15.276 25.834 13.359 6.693 6.245 16.21 8.038 24.647 4.86 10.856-4.062 17.288-15.698 14.961-27.064-.896-4.395-2.986-8.417-6.048-11.645zm-14.019 25.06c-3.377 1.266-7.086.516-9.687-1.949-2.663-2.526-6.125-3.902-9.625-3.902-4.986.963-10.576.313-12.877-4.924-2.328-4.801.286-10.996 5.36-12.66 4.178-1.458 7.417-4.964 8.662-9.378.974-3.45 3.784-5.99 7.333-6.628 6.322-1.302 12.255 5.015 10.624 11.241-1.11 4.721.237 9.622 3.603 13.112 4.582 4.519 2.701 12.968-3.393 15.088z"/><path d="m504.372 202.566-8.067-13.572c-.628-1.056-.761-2.402-.364-3.694 1.019-3.326 1.536-6.784 1.536-10.278 0-12.839-7.005-24.647-18.282-30.817-1.227-.671-2.068-1.695-2.371-2.883l-3.228-12.691c-2.455-11.453-20.023-11.45-22.478 0l-3.228 12.69c-.303 1.189-1.144 2.213-2.371 2.884-3.222 1.763-6.154 4.042-8.675 6.707-3.898-7.132-8.195-14.052-12.879-20.727 15.948-11.403 25.634-29.962 25.634-49.775 0-33.712-27.426-61.137-61.137-61.137-24.097 0-46.015 14.505-55.768 36.086-27.461-12.053-57.343-18.412-87.931-18.412-93.581 0-176.793 59.453-207.064 147.941-1.303 3.807.728 7.95 4.535 9.252 3.808 1.299 7.949-.729 9.252-4.536 28.253-82.593 105.925-138.085 193.276-138.085 103.225 0 189.623 76.313 202.564 178.147-6.333 4.641-10.455 12.128-10.455 20.563 0 8.891 4.58 16.729 11.501 21.29-.991 12.943-3.2 25.779-6.604 38.222-2.617 9.058 11.643 13.031 14.055 3.844 3.377-12.348 5.649-25.056 6.813-37.878 13.924-.151 25.207-11.52 25.207-25.479 0-14.052-11.433-25.485-25.486-25.485-.333 0-.663.012-.993.025-.707-4.986-1.585-9.931-2.63-14.829 3.972.407 8.026.154 11.887-.781.993-.242 2.125-.051 3.095.527l14.763 8.775c9.783 6.364 22.273-6.055 15.893-15.894zm-31.101 47.662c0 6.018-4.896 10.914-10.914 10.914s-10.914-4.896-10.914-10.914c0-6.017 4.896-10.913 10.914-10.913s10.914 4.896 10.914 10.913zm-81.895-156.892c-13.904-12.56-29.22-23.168-45.548-31.678 7.351-16.619 24.152-27.813 42.633-27.813 25.676 0 46.566 20.889 46.566 46.566 0 15.213-7.515 29.439-19.841 38.109-7.215-8.948-15.165-17.375-23.81-25.184zm89.784 103.823c-4.273-2.54-9.232-3.31-13.967-2.163-4.082 1.169-8.257.246-12.322-.416-2.89-9.941-6.472-19.646-10.727-29.043 1.876-3.582 4.814-6.603 8.369-8.548 5.216-2.823 8.716-7.801 9.844-13.433 1.127 5.632 4.628 10.61 9.844 13.432 6.602 3.612 10.704 10.523 10.704 18.034 0 2.046-.302 4.068-.896 6.008-2.239 6.68.04 13.441 3.862 18.93z"/><path d="m441.197 334.641c-3.678-1.63-7.982.032-9.612 3.711-32.717 73.874-106.05 121.608-186.823 121.608-112.608 0-204.22-91.613-204.22-204.22 0-12.063 1.059-24.148 3.148-35.921.703-3.963-1.939-7.744-5.901-8.447-3.965-.698-7.743 1.939-8.446 5.902-2.237 12.611-3.372 25.552-3.372 38.466 0 35.055 8.198 68.847 23.67 99.201-3.861-1.147-7.921-1.606-12.006-1.333-16.528 1.096-30.115 14.349-31.604 30.829-1.186 13.128 5.07 25.505 16.325 32.301 1.013.612 1.681 1.566 1.745 2.491.222 3.258.915 6.478 2.06 9.573 5.63 15.436 21.833 24.526 37.652 21.691 15.553-2.697 27.163-15.545 28.234-31.244.064-.936.739-1.901 1.759-2.519.562-.34 1.113-.7 1.656-1.072 40.651 38.016 93.37 58.874 149.301 58.874 86.534 0 165.096-51.137 200.146-130.278 1.629-3.68-.033-7.984-3.712-9.613zm-363.688 83.616c-.613 8.98-7.269 16.332-16.187 17.878-9.064 1.575-18.303-3.754-21.496-12.389-.662-1.789-1.062-3.643-1.189-5.509-.387-5.675-3.658-10.899-8.75-13.974-6.444-3.891-10.024-10.986-9.344-18.517.85-9.408 8.612-16.974 18.055-17.6 3.729-.248 7.404.553 10.636 2.315 3.236 1.764 6.887 2.477 10.48 2.158 7.299 11.506 15.736 22.389 25.23 32.528-4.334 3.144-7.083 7.938-7.435 13.11z"/><path d="m173.75 388.112 60.467 43.299c3.153 2.257 6.848 3.386 10.544 3.386 3.695 0 7.391-1.129 10.545-3.387l60.467-43.298c49.113-35.166 78.434-92.223 78.434-152.629v-100.052c0-3.748-1.72-7.188-4.718-9.436-2.999-2.248-6.777-2.939-10.379-1.889l-17.458 5.088c-29.648 8.641-61.896 2.47-86.263-16.505l-20.607-16.048c-5.9-4.595-14.141-4.596-20.04 0l-20.607 16.048c-24.366 18.976-56.615 25.143-86.264 16.505l-17.457-5.088c-3.597-1.048-7.382-.36-10.379 1.889-2.999 2.249-4.718 5.688-4.718 9.436v100.052c-.001 60.405 29.32 117.463 78.433 152.629zm99.233-154.539h30.444v37.198h-30.444c-5.951 0-10.792 4.841-10.792 10.792v30.445h-37.198v-30.445c0-5.951-4.841-10.792-10.792-10.792h-30.445v-37.198h30.445c5.95 0 10.792-4.841 10.792-10.792v-30.445h37.198v30.445c0 5.951 4.841 10.792 10.792 10.792zm-163.095-94.443 13.906 4.053c34.128 9.949 71.248 2.846 99.295-18.998l13.218-10.294v63.873h-13.34c-6.917 0-12.545 5.627-12.545 12.545v28.692h-28.692c-6.917 0-12.545 5.627-12.545 12.545v41.251c0 6.917 5.628 12.544 12.545 12.544h28.692v28.692c0 6.918 5.627 12.545 12.545 12.545h13.34v15.903c0 4.024 3.262 7.286 7.286 7.286s7.286-3.262 7.286-7.286v-15.903h13.34c6.918 0 12.545-5.627 12.545-12.545v-28.692h28.691c6.918 0 12.545-5.627 12.545-12.544v-41.251c0-6.918-5.627-12.545-12.545-12.545h-28.691v-28.692c0-6.918-5.627-12.545-12.545-12.545h-13.34v-65.696l15.558 12.116c28.047 21.843 65.165 28.943 99.294 18.998l13.906-4.053v96.353c0 55.717-27.045 108.345-72.346 140.782l-55.243 39.556v-41.069c0-4.024-3.262-7.286-7.286-7.286s-7.286 3.261-7.286 7.286v41.07l-55.243-39.557c-45.3-32.437-72.346-85.065-72.346-140.782v-96.352z"/><path d="m46.991 107.989c5.903.252 11.71-2.005 15.949-6.247.639-.643 1.391-.967 2.072-.897 10.62 1.138 21.046-2.533 28.593-10.079 7.541-7.541 11.218-17.953 10.088-28.567-.022-2.762 3.5-3.918 4.708-6.219 5.743-7.638 5.549-18.572-.462-25.998-7.506-9.706-23.025-10.546-31.504-1.69-1.324 1.107-1.765 3.015-3.928 2.72-10.614-1.134-21.027 2.547-28.567 10.088-7.548 7.548-11.221 17.969-10.079 28.595-.137 2.52-3.077 3.692-4.015 6.006-4.736 7.685-3.989 17.86 1.818 24.746 3.829 4.541 9.416 7.29 15.327 7.542zm-4.74-24.646c3.959-4.069 6.896-9.213 6.097-15.206-.668-6.22 1.48-12.32 5.895-16.735 4.402-4.42 10.578-6.569 16.721-5.902 6.027.642 11.713-1.698 15.205-6.256 5.853-7.647 16.924 3.112 9.433 9.178-4.628 3.75-7.021 9.476-6.399 15.317.662 6.215-1.489 12.31-5.901 16.721-4.415 4.416-10.515 6.559-16.734 5.896-5.106-.545-10.198 1.319-13.987 5.139-5.247 5.551-14.494-1.725-10.33-8.152z"/><path d="m141.128 50.97c14.052 0 25.485-11.433 25.485-25.486s-11.433-25.484-25.485-25.484-25.485 11.432-25.485 25.485 11.433 25.485 25.485 25.485zm0-36.399c6.018 0 10.914 4.896 10.914 10.913 0 6.018-4.896 10.914-10.914 10.914s-10.914-4.896-10.914-10.914c0-6.017 4.896-10.913 10.914-10.913z"/><path d="m127.947 451.477c-14.052 0-25.485 11.433-25.485 25.486 0 14.052 11.433 25.486 25.485 25.486 14.053 0 25.486-11.433 25.486-25.486s-11.433-25.486-25.486-25.486zm0 36.4c-6.018 0-10.914-4.896-10.914-10.914s4.896-10.914 10.914-10.914 10.914 4.896 10.914 10.914-4.895 10.914-10.914 10.914z"/><circle cx="85.646" cy="468.099" r="8.863"/><circle cx="34.051" cy="128.818" r="8.863"/></g></g></svg>