<svg id="Line" enable-background="new 0 0 496 497.434" height="512" viewBox="0 0 496 497.434" width="512" xmlns="http://www.w3.org/2000/svg"><g><g><g><path d="m104 56v112h-104v-128h104z" fill="#f0d0b4"/></g><g><path d="m472 40c8.84 0 16 7.16 16 16 0 4.42-1.79 8.42-4.68 11.32-2.9 2.89-6.9 4.68-11.32 4.68h-80v-16-.03c11.51-.44 21.52-6.72 27.16-15.97z" fill="#f0d0b4"/></g><g><path d="m472 72c8.84 0 16 7.16 16 16 0 4.42-1.79 8.42-4.68 11.32-2.9 2.89-6.9 4.68-11.32 4.68h-80v-32z" fill="#f0d0b4"/></g><g><path d="m483.32 108.68c2.89 2.9 4.68 6.9 4.68 11.32 0 8.84-7.16 16-16 16h-16-64v-32h80c4.42 0 8.42 1.79 11.32 4.68z" fill="#f0d0b4"/></g><g><path d="m392 56v16 32 32h64c4.42 0 8.42 1.79 11.32 4.68 2.89 2.9 4.68 6.9 4.68 11.32s-1.79 8.42-4.68 11.32c-2.9 2.89-6.9 4.68-11.32 4.68h-192v-112c9.81-19.61 29.85-32 51.78-32h42.75c8.31 0 16.51-1.23 24.38-3.61 7.86-2.38 15.37-5.91 22.28-10.52 1.83-1.22 3.99-1.87 6.19-1.87 1.48 0 2.93.3 4.27.85 1.34.56 2.57 1.37 3.62 2.42 1.51 1.51 2.7 3.3 3.5 5.24.81 1.94 1.23 4.04 1.23 6.18 0 6.34-1.77 12.27-4.84 17.31-5.64 9.25-15.65 15.53-27.16 15.97z" fill="#f0d0b4"/></g><g><path d="m264 56v112c0 8.84-7.16 16-16 16h-128c-8.84 0-16-7.16-16-16v-112c0 26.51 21.49 48 48 48h64c26.51 0 48-21.49 48-48z" fill="#aab2bd"/></g><g><path d="m264 40v16c0 26.51-21.49 48-48 48h-64c-26.51 0-48-21.49-48-48v-16c0-8.84 7.16-16 16-16h128c8.84 0 16 7.16 16 16z" fill="#969faa"/></g><g><path d="m488 392v80c0 8.84-7.16 16-16 16h-160c-8.84 0-16-7.16-16-16v-80z" fill="#aab2bd"/></g><g><path d="m488 216v176h-192v-176c0-8.84 7.16-16 16-16h160c8.84 0 16 7.16 16 16z" fill="#ccd1d9"/></g><g><path d="m328 296v-64h128v128h-128z" fill="#69d6f4"/></g><g><path d="m456 432v16c0 4.42-3.58 8-8 8h-48c-4.42 0-8-3.58-8-8v-16c0-4.42 3.58-8 8-8h48c4.42 0 8 3.58 8 8z" fill="#fcd770"/></g><g><circle cx="344" cy="440" fill="#fcd770" r="16"/></g><g><path d="m264 365.33c0 26.55-13.67 51.22-36.18 65.28l-91.82 57.39-91.82-57.39c-11.26-7.03-20.3-16.71-26.53-27.96-6.23-11.24-9.65-24.05-9.65-37.32 0-19.15 7.76-36.48 20.31-49.02 12.54-12.55 29.87-20.31 49.02-20.31 21.83 0 42.38 10.27 55.47 27.73l3.2 4.27 3.2-4.27c6.54-8.73 14.96-15.66 24.46-20.41s20.1-7.32 31.01-7.32c19.15 0 36.48 7.76 49.02 20.31 12.55 12.54 20.31 29.87 20.31 49.02z" fill="#ff826e"/></g></g><g><path d="m489.869 72c3.809-4.249 6.131-9.858 6.131-16 0-13.234-10.767-24-24-24h-41.071c.692-2.994 1.071-6.107 1.071-9.308 0-6.453-2.513-12.519-7.075-17.08-3.618-3.619-8.429-5.612-13.547-5.612-3.796 0-7.472 1.113-10.626 3.218-12.544 8.362-27.143 12.782-42.218 12.782h-42.757c-16.964 0-32.765 6.373-44.7 17.426-2.866-10.046-12.123-17.426-23.077-17.426h-128c-10.429 0-19.321 6.689-22.624 16h-97.376v16h96v112h-96v16h97.376c3.303 9.311 12.195 16 22.624 16h56v112h34.234l23.702 71.108 17.335-86.676 7.785 15.568h28.944v168c0 13.234 10.767 24 24 24h160c13.233 0 24-10.766 24-24v-256c0-13.234-10.767-24-24-24h-160c-13.233 0-24 10.766-24 24v72h-19.056l-24.216-48.433-14.665 73.324-8.297-24.891h-29.766v-96h56c10.429 0 19.321-6.689 22.624-16h185.376c13.233 0 24-10.767 24-24 0-3.124-.606-6.106-1.697-8.846 10.185-2.776 17.697-12.102 17.697-23.154 0-6.142-2.322-11.751-6.131-16 3.809-4.249 6.131-9.858 6.131-16s-2.322-11.751-6.131-16zm-17.869 408h-160c-4.411 0-8-3.589-8-8v-72h176v72c0 4.411-3.589 8-8 8zm-160-272h160c4.411 0 8 3.589 8 8v168h-176v-168c0-4.411 3.589-8 8-8zm88-128h72c4.411 0 8 3.589 8 8s-3.589 8-8 8h-72zm72-32c4.411 0 8 3.589 8 8s-3.589 8-8 8h-72v-1.071c9.394-2.173 17.568-7.554 23.305-14.929zm-360-8c0-4.411 3.589-8 8-8h128c4.411 0 8 3.589 8 8v16c0 22.056-17.944 40-40 40h-64c-22.056 0-40-17.944-40-40zm8 136c-4.411 0-8-3.589-8-8v-72.862c10.172 10.395 24.342 16.862 40 16.862h24v64zm128 0h-56v-64h24c15.658 0 29.828-6.467 40-16.862v72.862c0 4.411-3.589 8-8 8zm208-16h-184v-102.038c8.759-16.061 25.368-25.962 43.777-25.962h42.757c18.245 0 35.912-5.349 51.095-15.471 1.218-.813 2.943-.643 3.982.396 1.54 1.541 2.389 3.588 2.389 5.767 0 13.955-11.353 25.308-25.308 25.308h-36.458l-1.824 5.47c-4.217 12.652-14.288 22.723-26.94 26.94l5.061 15.179c15.536-5.179 28.245-16.777 34.92-31.589h18.549v80h72c4.411 0 8 3.589 8 8s-3.589 8-8 8zm16-32h-72v-16h72c4.411 0 8 3.589 8 8s-3.589 8-8 8z"/><path d="m342.111 112h-6.111v16h6.111c7.984 0 15.162 4.437 18.733 11.578l14.311-7.156c-6.299-12.597-18.961-20.422-33.044-20.422z"/><circle cx="120" cy="232" r="8"/><circle cx="152" cy="232" r="8"/><circle cx="88" cy="232" r="8"/><path d="m344 416c-13.233 0-24 10.766-24 24s10.767 24 24 24 24-10.766 24-24-10.767-24-24-24zm0 32c-4.411 0-8-3.589-8-8s3.589-8 8-8 8 3.589 8 8-3.589 8-8 8z"/><path d="m448 416h-48c-8.822 0-16 7.178-16 16v16c0 8.822 7.178 16 16 16h48c8.822 0 16-7.178 16-16v-16c0-8.822-7.178-16-16-16zm-48 16h16v16h-16zm48 16h-16v-16h16l.01 16s-.003 0-.01 0z"/><path d="m464 224h-144v144h144zm-16 128h-112v-48h11.056l12.944 25.889 16-32 3.056 6.111h52.944v-16h-43.056l-12.944-25.889-16 32-3.056-6.111h-20.944v-48h112z"/><circle cx="392" cy="328" r="8"/><circle cx="424" cy="328" r="8"/><path d="m250.261 339.388c3.809 8.146 5.739 16.875 5.739 25.945 0 23.94-12.12 45.808-32.422 58.496l-87.578 54.737-87.578-54.737c-20.302-12.688-32.422-34.556-32.422-58.496 0-33.819 27.514-61.333 61.333-61.333 19.203 0 37.545 9.171 49.067 24.534l9.6 12.799 9.601-12.799c4.997-6.664 11.188-12.153 18.399-16.316l-8-13.856c-7.612 4.395-14.322 9.961-20.004 16.587-14.595-16.96-36.161-26.949-58.663-26.949-42.642 0-77.333 34.692-77.333 77.333 0 29.493 14.932 56.433 39.941 72.064l96.059 60.037 96.059-60.037c25.009-15.631 39.941-42.571 39.941-72.064 0-11.43-2.438-22.439-7.245-32.722z"/></g></g></svg>