<svg id="Capa_1" enable-background="new 0 0 512 512" height="512" viewBox="0 0 512 512" width="512" xmlns="http://www.w3.org/2000/svg"><g><g><g><path d="m105.93 160.542v-30.442c0-67.71 54.89-122.6 122.6-122.6h11.066l22.165 2.217c35.151 0 59.859 26.279 59.859 61.43l-81.976 2.502c-32.716.033-59.206 26.591-59.154 59.307l-10.792 37.606z" fill="#fb6572"/></g><g fill="#fb4a59"><path d="m296.535 71.17v-.02c0-35.15-28.5-63.65-63.65-63.65h30c35.15 0 63.65 28.5 63.65 63.65l-8.785.006z"/><path d="m326.535 71.15-11.058 4.143-18.942-4.123"/></g><path d="m357.485 170.988c0 20.932-7.205 40.181-19.269 55.404 0 0-7.534-2.492-8.645-1.24-16.354 18.418-34.793 35.111-61.36 35.111-49.305 0-89.275-39.97-89.275-89.275s39.97-89.275 89.275-89.275c40.934 0 69.838 26.81 80.372 64.38.961 3.427 7.316 7.676 7.865 11.256.681 4.447 1.037 9.002 1.037 13.639z" fill="#fb4a59"/><path d="m312.313 170.307c12.247 16.963 21.003 35.943 25.904 56.083-16.35 20.64-41.631 33.87-70.001 33.87-48.91 0-88.63-39.32-89.26-88.07-.02-.4-.02-.8-.02-1.2 0-26.55 11.59-50.4 29.99-66.75 15.77-14.02 36.54-22.53 59.29-22.53 44.66 0 81.663 32.8 88.232 75.64h-37.426c-6.664 0-10.61 7.554-6.709 12.957z" fill="#eb4156"/><path d="m169.719 151.858v-21.095c0-32.872 26.563-59.616 59.213-59.616h116.298v64.202h-111.744z" fill="#62dbfb"/><path d="m176.589 123.163h-.334c-72.542 0-131.349 57.882-131.349 129.283 0 19.079 2.606 37.56 7.489 55.114 24.548 88.256 106.614 153.116 204.07 153.116 8.48 0 16.683-1.165 24.453-3.343 48.289-13.53 72.909-66.175 53.489-111.746-7.293-17.114-27.636-34.079-27.613-78.224.041-77.841-50.769-135.388-128.84-144.194-.454-.004-.909-.006-1.365-.006z" fill="#fb6572"/><path d="m341.021 380.609c.367-11.63-1.728-23.548-6.616-35.019-7.29-17.12-13.64-36.6-13.62-80.74.04-77.84-63.92-140.96-142.83-141.68 61.41 16.22 106.72 71.31 106.69 136.83-.02 44.15 6.33 63.63 13.62 80.74 5.41 12.694 7.398 25.937 6.413 38.731 12.083.593 24.284 1.288 36.343 1.138z" fill="#fb4a59"/><g><path d="m45.342 141.52v-105.894h63.767v101.339z" fill="#62dbfb"/></g><path d="m92.286 104.181-26.437 12.697c-18.434 8.854-33.465 23.498-42.795 41.696-13.156 25.658-13.76 55.945-1.639 82.108l12.901 27.858 18.927 25.129c60.949-84.642 109.553-50.86 109.553-122.659l-.259-19.153c-.323-23.858-9.619-41.187-32.588-47.647-3.512-.988-10.443-5.191-10.443-5.191-9.308-.675-18.697 1.068-27.22 5.162z" fill="#fb4a59"/><path d="m169.715 171.16c0 71.79-56.37 51.75-117.32 136.4l-18.08-39.02c53.79-59.76 99.76-49.71 99.76-114.54l-.26-19.15c-.19-13.65-5.5-26.29-14.31-35.83 3.59.25 7.17.88 10.68 1.86 22.97 6.46 38.95 27.27 39.27 51.12z" fill="#eb4156"/><ellipse cx="345.105" cy="103.303" fill="#99e6fc" rx="27.355" ry="32.158"/><ellipse cx="77.226" cy="34.855" fill="#99e6fc" rx="31.884" ry="27.355"/><path d="m215.963 476.281 124.479-203.518c.271-.443.556-.869.854-1.279 9.269-6.703 23.902-5.548 30.863 5.833l119.953 198.282c7.031 11.495 4.274 26.706-8.426 28.677-.952.148-1.935.225-2.945.225h-248.958c-14.485-.001-23.377-15.864-15.82-28.22z" fill="#fef48b"/><path d="m484.313 504.291-143.017-232.807c7.63-10.53 24.447-10.082 31.417 1.298l124.48 203.52c7.02 11.499-.18 26.029-12.88 27.989z" fill="#fee45a"/><g fill="#6e6f80"><path d="m342.812 344.121v60.153c0 7.428 6.022 13.45 13.45 13.45 7.428 0 13.45-6.022 13.45-13.45v-60.153c0-7.428-6.022-13.45-13.45-13.45-7.428 0-13.45 6.022-13.45 13.45z"/><path d="m342.262 459.724c0 7.732 6.268 14 14 14 7.732 0 14-6.268 14-14 0-7.732-6.268-14-14-14-7.732 0-14 6.268-14 14z"/></g></g><g><path d="m502.964 472.367-47.67-77.94c-2.162-3.534-6.78-4.646-10.312-2.485-3.534 2.161-4.646 6.778-2.485 10.311l47.668 77.937c2.113 3.459 2.19 7.636.208 11.171-1.981 3.531-5.58 5.639-9.628 5.639h-248.96c-4.054 0-7.656-2.109-9.637-5.642-1.98-3.533-1.9-7.707.215-11.164l124.48-203.521c2.052-3.354 5.483-5.277 9.416-5.278h.003c3.936 0 7.372 1.925 9.426 5.278l58.02 94.87c2.161 3.534 6.775 4.645 10.312 2.485 3.533-2.161 4.646-6.778 2.485-10.312l-58.022-94.875c-4.774-7.795-13.08-12.447-22.22-12.447-.002 0-.006 0-.008 0-9.138.002-17.438 4.657-22.207 12.452l-5.561 9.091c-.136-4.16-.204-8.507-.201-13.085.002-5.756-.35-11.499-1.021-17.199 23.679-18.274 37.721-46.676 37.721-76.666 0-10.896-1.788-21.521-5.309-31.673 11.96-6.29 20.283-20.062 20.283-36.012-.003-21.901-15.673-39.696-34.939-39.655h-11.388c-3.784-35.663-34.199-63.647-70.747-63.647h-34.36c-19.762 0-38.737 4.322-56.399 12.846-3.73 1.8-5.295 6.284-3.495 10.014 1.801 3.73 6.283 5.297 10.015 3.495 15.611-7.535 32.393-11.355 49.878-11.355h34.36c28.3 0 51.93 21.264 55.632 48.647h-89.586c-31.466 0-57.896 22.037-64.887 51.571-7.883-10.181-18.918-17.924-31.828-21.555-4.001-1.126-8.077-1.819-12.165-2.117 6.288-17.703 16.841-33.629 30.862-46.44 3.059-2.794 3.272-7.538.479-10.596-2.794-3.058-7.537-3.271-10.596-.478-9.557 8.732-17.676 18.755-24.188 29.72.001-.809-.001-28.145 0-28.898.001-19.218-17.667-34.854-39.383-34.854s-39.383 15.636-39.383 34.854v92.131c-8.709 8.039-16.032 17.576-21.462 28.167-14.309 27.905-14.954 60.229-1.77 88.683l30.744 66.358c9.62 34.168 27.921 65.805 52.968 91.52 1.471 1.509 3.421 2.267 5.374 2.267 1.886 0 3.774-.708 5.232-2.127 2.967-2.89 3.029-7.639.14-10.605-22.604-23.206-39.284-51.585-48.43-82.254 20.124-27.167 39.665-42.796 56.738-54.519 3.536 14.899 8.114 26.015 13.395 34.782 15.209 27.401.309 54.104-.335 55.232-2.082 3.581-.867 8.171 2.714 10.254 1.186.689 2.482 1.018 3.763 1.018 2.584 0 5.099-1.337 6.49-3.731.578-.995 9.776-17.194 9.167-38.576 3.094 2.475 6.254 4.819 9.443 7.181 16.877 12.499 34.328 25.424 49.826 64.811 1.162 2.953 3.989 4.756 6.981 4.756.913 0 1.843-.168 2.744-.523 3.854-1.517 5.75-5.871 4.233-9.725-4.29-10.902-8.769-20.001-13.353-27.727 6.183 1.521 11.981 2.081 17.155 2.081 13.538 0 22.812-3.812 23.562-4.131 3.798-1.614 5.56-5.985 3.966-9.791-1.595-3.807-5.982-5.604-9.797-4.029-1.168.481-28.822 11.467-57.186-12.236-6.537-6.154-13.015-10.956-19.204-15.54-10.406-7.707-19.572-14.501-27.002-26.528-6.008-10.082-9.69-19.989-13.168-36.465 22.054-14.378 40.101-26.426 45.077-56.454 33.436 10.365 71.856 57.913 79.629 92.102.791 3.48 3.883 5.839 7.307 5.839.551 0 1.11-.061 1.67-.188 4.039-.918 6.568-4.937 5.65-8.976-3.547-15.602-12.273-33.181-23.975-49.466 6.55 1.076 12.681 1.375 17.439 1.375 5.403 0 9.038-.381 9.512-.434 4.113-.457 7.074-4.158 6.623-8.271-.451-4.114-4.148-7.087-8.268-6.638-.322.035-31.901 3.261-46.943-11.168-14.695-14.237-31.256-25.209-47.314-29.377l.044-43.26c38.06.176 74.595 16.081 100.325 43.713 1.478 1.586 3.481 2.389 5.491 2.389 1.83 0 3.664-.666 5.109-2.011 3.031-2.823 3.2-7.568.378-10.6-7.472-8.024-15.77-15.148-24.697-21.31 3.747.121 81.231.11 81.231.11 3.271 8.953 4.927 18.362 4.927 28.029 0 22.641-9.477 44.21-25.769 59.566-3.01-12.574-7.65-24.748-13.857-36.126-1.982-3.636-6.536-4.977-10.176-2.993-3.636 1.983-4.976 6.539-2.992 10.175 10.537 19.319 16.103 41.185 16.094 63.233-.01 13.252.541 24.767 1.681 35.198l-92.003 150.422c-31.877-5.187-62.383-17.939-88.36-37.002-3.337-2.45-8.032-1.73-10.484 1.609-2.45 3.339-1.729 8.033 1.609 10.483 26.247 19.261 56.799 32.519 88.829 38.653l-4.99 8.158c-4.985 8.151-5.173 17.993-.502 26.326s13.164 13.306 22.72 13.306h248.96c9.548 0 18.038-4.972 22.71-13.301 4.674-8.332 4.491-18.175-.491-26.332zm-138.004-369.064c0 13.136-8.289 24.618-18.75 24.618-11.451 0-20.856-10.604-20.96-24.618 0-13.564 8.865-24.603 19.778-24.655 11.004-.044 19.926 11.03 19.932 24.655zm-287.735-88.303c13.445 0 24.384 8.907 24.384 19.854 0 10.948-10.938 19.855-24.384 19.855s-24.384-8.907-24.384-19.855c.001-10.947 10.939-19.854 24.384-19.854zm-24.383 47.195c6.712 4.699 15.181 7.514 24.384 7.514s17.672-2.816 24.384-7.514v30.802c-4.307 1.01-8.524 2.48-12.57 4.423l-26.437 12.697c-3.358 1.613-6.61 3.427-9.76 5.4v-53.322zm69.071 171.261c-19.36 12.62-43.021 28.043-67.969 59.597l-25.724-55.524c-11.229-24.235-10.679-51.766 1.508-75.533 8.53-16.639 22.512-30.261 39.368-38.357l26.438-12.697c6.315-3.033 13.174-4.572 20.066-4.572 4.211 0 8.437.574 12.557 1.733 19.627 5.52 33.528 23.614 33.805 44.002l.258 19.102c-.015 35.982-14.33 45.316-40.307 62.249zm57.517-117.759c6.429-21.413 26.184-37.05 49.501-37.05h88.903c-4.741 6.775-7.585 15.342-7.585 24.655 0 9.264 2.814 17.789 7.51 24.546-.03.004-81.206-.008-81.245.004-17.908-7.58-37.29-11.786-57.084-12.155z"/><path d="m356.262 425.224c11.552 0 20.95-9.398 20.95-20.95v-60.153c0-11.552-9.398-20.95-20.95-20.95s-20.949 9.398-20.949 20.95v60.153c-.001 11.552 9.397 20.95 20.949 20.95zm-5.95-81.103c0-3.281 2.669-5.95 5.949-5.95 3.281 0 5.95 2.669 5.95 5.95v60.153c0 3.281-2.669 5.95-5.95 5.95-3.28 0-5.949-2.669-5.949-5.95z"/><path d="m356.262 481.224c11.855 0 21.5-9.645 21.5-21.5s-9.645-21.5-21.5-21.5-21.5 9.645-21.5 21.5 9.644 21.5 21.5 21.5zm0-28c3.584 0 6.5 2.916 6.5 6.5s-2.916 6.5-6.5 6.5-6.5-2.916-6.5-6.5 2.916-6.5 6.5-6.5z"/></g></g></svg>