<svg id="Layer_1" enable-background="new 0 0 512 512" viewBox="0 0 512 512" xmlns="http://www.w3.org/2000/svg"><g><g><g><path d="m379.1 35.9c-48.9-1.7-100.9-8.3-149.1-18.9-40.1 8.8-82.9 14.9-123.8 17.5l-10.7 68.6c-22.7 147.5 28.5 293.5 135.5 391.1 27.4-14 52.8-31 75.8-50.2-20.1-20-3.5-32.6 14.6-12.8 5.3-4.9 10.7-10 15.6-15.2-61.9-59.7 5-159 83.5-124.5 21.8-50.4 33.6-105.6 33.6-162.7v-93.3c-22.5 1.1-47.6 1.5-75 .4zm17.2 226.2c-9.2 2.6-27.4-1.5-26.7-9 0-5.4 8.6-9.7 19.3-9.7 16-.8 30.4 12.9 7.4 18.7z" fill="#a3e72e"/></g></g><g><g><path d="m231 494.2c-.3.2-.6.3-.9.5-136.3-69.2-224.3-210.6-224.2-365.9v-93.3c29.4 1.5 63.1 1.6 100.4-.9l-10.7 68.6c-22.8 147.4 28.4 293.4 135.4 391z" fill="#80cf00"/></g></g><g><g><path d="m231 457.2c-.3.2-.6.3-.9.5-116.3-65.5-191-193.4-189.9-327v-58.1c19.8.2 39.7-.3 59.6-1.4-24.7 141.4 25 289.1 131.2 386z" fill="#f2f1eb"/></g></g><g><g><path d="m419.9 72.6v58.1c0 39.7-6.1 78.5-17.9 115.3-8.5-5-32.6-2.4-32.4 7.1-.7 7.5 17.5 11.7 26.7 9-2.7 7.7-5.8 15.1-9.1 22.5-51.6 0-88.7 56-69 103.5-25.5 27.2-55 50.5-87.2 69-106.2-96.8-155.9-244.5-131.2-385.9 44.5-2.5 88.4-8.4 130.3-17.2 60.6 12.8 126.9 19.4 189.8 18.6z" fill="#f9f9f7"/></g></g><g><g><path d="m310.9 194.6h-56.9v-56.8h-50.3v56.8h-56.9v50.4h56.9v56.8h50.3v-56.8h56.9z" fill="#ff7a7a"/></g></g><g><g><path d="m464.9 360.6c0 42-34 76-76 76-100.8-4-100.7-147.9 0-151.9 42-.1 76 33.9 76 75.9z" fill="#ff7a7a"/></g></g><g><g><g><g><path d="m319.9 435.4c-4.9.2-7.7-6.4-4-9.7 0 0 25.8-25.8 25.8-25.8 5.3-5.3 13.3 2.8 8.1 8.1 0 0-25.8 25.8-25.8 25.8-1.2 1-2.6 1.6-4.1 1.6z" fill="#f72c2c"/></g></g></g><g><g><g><path d="m432.2 323c-4.9.2-7.7-6.4-4-9.7 0 0 25.8-25.8 25.8-25.8 5.3-5.3 13.3 2.8 8.1 8.1 0 0-25.8 25.8-25.8 25.8-1.1 1.1-2.6 1.6-4.1 1.6z" fill="#f72c2c"/></g></g></g><g><g><g><path d="m327.8 366.3h-36.5c-7.5 0-7.5-11.4 0-11.4h36.5c7.4 0 7.5 11.4 0 11.4z" fill="#f72c2c"/></g></g></g><g><g><g><path d="m486.7 366.3h-36.5c-7.5 0-7.5-11.4 0-11.4h36.5c7.4 0 7.4 11.4 0 11.4z" fill="#f72c2c"/></g></g></g><g><g><g><path d="m345.7 323c-1.5 0-2.9-.6-4-1.7l-25.8-25.8c-5.3-5.3 2.8-13.3 8.1-8.1 0 0 25.8 25.8 25.8 25.8 3.6 3.5.8 10-4.1 9.8z" fill="#f72c2c"/></g></g></g><g><g><g><path d="m458 435.4c-1.5 0-2.9-.6-4-1.7l-25.8-25.8c-5.3-5.3 2.8-13.3 8.1-8.1 0 0 25.8 25.8 25.8 25.8 3.6 3.4.8 9.9-4.1 9.8z" fill="#f72c2c"/></g></g></g><g><g><g><path d="m388.9 305.1c-3.2 0-5.7-2.6-5.7-5.7v-36.5c0-3.2 2.6-5.7 5.7-5.7 3.2 0 5.7 2.6 5.7 5.7v36.5c.1 3.1-2.5 5.7-5.7 5.7z" fill="#f72c2c"/></g></g></g><g><g><g><path d="m388.9 464c-3.2 0-5.7-2.6-5.7-5.7v-36.5c0-3.2 2.6-5.7 5.7-5.7 3.2 0 5.7 2.6 5.7 5.7v36.5c.1 3.1-2.5 5.7-5.7 5.7z" fill="#f72c2c"/></g></g></g></g><g><g><g><path d="m326.7 450.2c-9.4 8.8-36.2-18.3-27.4-27.4 8.8-8.8 36.2 17.8 27.4 27.4z" fill="#ff7a7a"/></g></g><g><g><path d="m451.2 270.9c-8.8 9.3 18.1 36.2 27.4 27.4 8.8-9.3-18.1-36.2-27.4-27.4z" fill="#ff7a7a"/></g></g><g><g><path d="m281.5 341.2c12.8.3 12.8 38.4 0 38.7-12.8-.3-12.8-38.4 0-38.7z" fill="#ff7a7a"/></g></g><g><g><path d="m496.4 341.2c-12.8.3-12.8 38.4 0 38.7 12.8-.3 12.8-38.4 0-38.7z" fill="#ff7a7a"/></g></g><g><g><path d="m326.7 270.9c8.8 9.3-18.1 36.2-27.4 27.4-8.8-9.3 18.1-36.2 27.4-27.4z" fill="#ff7a7a"/></g></g><g><g><path d="m478.6 422.8c-9.3-8.8-36.2 18.1-27.4 27.4 9.3 8.8 36.2-18.1 27.4-27.4z" fill="#ff7a7a"/></g></g><g><g><path d="m408.3 253.1c-.3 12.8-38.4 12.8-38.7 0 .3-12.8 38.4-12.8 38.7 0z" fill="#ff7a7a"/></g></g><g><g><path d="m408.3 468c-.3-12.8-38.4-12.8-38.7 0 .3 12.8 38.4 12.8 38.7 0z" fill="#ff7a7a"/></g></g></g><g><g><path d="m369.6 347.7c-.2 13.6-20.4 13.6-20.6 0 .2-13.5 20.4-13.5 20.6 0z" fill="#f72c2c"/></g></g><g><g><path d="m432.2 344.1c-.6 21.7-32.4 21.7-32.9 0 .6-21.7 32.4-21.7 32.9 0z" fill="#f72c2c"/></g></g><g><g><path d="m400.4 393.5c-.5 17.9-26.7 17.9-27.1 0 .4-17.9 26.7-17.9 27.1 0z" fill="#f72c2c"/></g></g><g><g><path d="m310.9 188.9h-51.1v-51.1c0-3.2-2.6-5.7-5.7-5.7h-50.4c-3.2 0-5.7 2.6-5.7 5.7v51.1h-51.1c-3.2 0-5.7 2.6-5.7 5.7v50.4c0 3.2 2.6 5.7 5.7 5.7h51.1v51.1c0 3.2 2.6 5.7 5.7 5.7h50.4c3.2 0 5.7-2.6 5.7-5.7v-51.1h51.1c3.2 0 5.7-2.6 5.7-5.7v-50.4c0-3.1-2.5-5.7-5.7-5.7zm-5.7 50.4h-51.1c-3.2 0-5.7 2.6-5.7 5.7v51.1h-39v-51.1c0-3.2-2.6-5.7-5.7-5.7h-51.1v-39h51.1c3.2 0 5.7-2.6 5.7-5.7v-51.1h39v51.1c0 3.2 2.6 5.7 5.7 5.7h51.1z" fill="#231f20"/></g></g><g><g><path d="m496.5 335.6c-7.6 0-13.6 8-15.1 19.4h-11c-1.3-18.2-8.5-34.8-19.8-47.8l7.8-7.8c25.2 18.2 37.5-6.8 17.5-25.6-18.9-20.1-44-7.4-25.6 17.5l-7.8 7.8c-4.5-3.9-9.4-7.4-14.6-10.3 21.2-50.9 32-104.7 32-160v-93.3c.1-3.2-2.8-5.9-6-5.7-39.3 2-79.5 1.1-119.3-2.4-31.3-2.1-74.1-10.2-105.8-15.9-30.8 6.9-72.6 13.3-103.2 15.9-39.8 3.6-80 4.4-119.4 2.4-1.6-.1-3.1.5-4.2 1.6s-1.8 2.6-1.8 4.1v93.3c-1.5 154.3 89.5 302 227.3 371 1.6.8 3.5.8 5.2 0 26.3-13.4 51.1-29.7 74.1-48.4 17.4 14.2 36.6 1.8 22.3-19.5 2.8-2.7 5.6-5.3 8.4-8 12.7 10.3 28.5 16.9 45.8 18.1v11c-29.3 4.2-23.2 31 5.7 30.5 28.9.5 35-26.4 5.7-30.5v-11c18.2-1.3 34.8-8.5 47.8-19.8l7.8 7.8c-11 12.4-7.4 32.4 11.7 26.6 13.1-4.1 31.6-24.7 20.7-37.7-5.4-5.4-15.3-3.9-24.4 3.1l-7.8-7.8c11.3-13 18.6-29.6 19.8-47.8h11c1.5 11.3 7.5 19.3 15.1 19.3 20.5-.1 20.5-50.1.1-50.1zm-41.1-60.5c1.5-.4 6.8 1 12.5 6.7 6 6 7.2 11.5 6.9 12.4-1.1.5-6.8-.7-12.6-6.7-5.7-5.6-7.1-11-6.8-12.4zm-225.3 213.3c-132.6-67.7-219.8-210.5-218.4-359.5v-87.3c72.3 3.1 146.9-3 218.5-18.6 30.7 6.9 73.3 13.3 103.5 15.8 38.3 3.5 77 4.4 114.9 2.7v87.3c0 53.6-10.4 105.8-30.9 155.2-7-2.5-14.3-4.2-21.8-4.9 1.8-4.2 3.4-8.3 4.9-12.3 11.6-2.9 18.8-15.1 8.1-23.5 11.2-36.3 16.9-74.2 16.9-112.7v-57.9c-.4-7.5-8.7-5.4-13.9-5.7-60.9.5-124.2-7.4-182.8-18.6-32 6.7-65.9 11.9-100.2 14.9-29 2.6-58.7 4.2-88.4 3.6-1.6 0-3 .6-4.1 1.6-1.1 1.1-1.7 2.5-1.7 4.1v58.1c-1.2 135.5 74.8 265.6 192.8 331.9 1.8 1 3.9 1 5.6 0 30.6-17.4 58.9-39.1 83.6-64.5 3.1 5.7 6.6 11.1 10.9 15.9l-7.8 7.8c-20.7-16.1-37.3 1.3-21.1 21.6-21.4 17.4-44.4 32.4-68.6 45zm172.5-235.2c-4.4 5.4-23 5.1-27.2.2 1.9-4.5 22.1-6.3 27.2-.2zm-4.2-14.4c-11.1-3-30.9.3-33.9 11.2-3 11 9.6 17.4 18.8 18.3v10.9c-17.5 1.3-34.5 8.3-47.8 19.9l-7.8-7.8c18.6-26.4-7.9-36.8-25.6-17.6-19.9 18.8-7.6 43.9 17.5 25.6l7.8 7.8c-11.5 13.1-18.7 30.3-19.8 47.8h-10.9c-4.2-29.3-31-23.2-30.5 5.7-.5 28.9 26.3 35 30.5 5.7h10.9c.5 7 2 13.9 4.1 20.6-24.1 25.2-51.6 46.9-81.6 64.3-112.9-64.9-185.3-190-184.2-320.4v-52.3c61.6.1 125.1-6.1 184.2-18.6 59 12.4 123 18.7 184.1 18.6.9 52.5.7 110.4-15.8 160.3zm-82.5 48.7c-5.9 5.9-11.5 7.2-12.4 6.9-1.7-5.7 12.5-20.5 19.1-19.4.4 1.5-1 6.9-6.7 12.5zm-30.3 73.2c0 8.4-3 13.1-3.9 13.6-5.4-2.9-5.5-23.8-.2-27.2 1.4.7 4.2 5.7 4.1 13.6zm37.1 85.5c-5 1.3-19.8-11.6-19.4-19.1 8-.9 20.4 13.7 19.4 19.1zm79.9 21.9c-.8 1.3-5.5 4-13.6 4-8.4 0-13.2-3-13.7-3.9.4-1.2 5.3-4.2 13.7-4.2 8 0 12.8 2.8 13.6 4.1zm71.5-41.1h.5c.3 1.5-1.1 6.8-6.7 12.5-6 6-11.5 7.1-12.4 6.9-.5-1.2.7-6.7 6.6-12.6 5.1-5.2 10.1-6.9 12-6.8zm-31.6-20.9c-3.7-3.3-8.7-11.4-14.3-6.2-5.3 5.6 2.9 10.5 6.2 14.3-10.9 9.3-24.6 15.2-39.7 16.5v-8.8c0-3.2-2.6-5.7-5.7-5.7s-5.7 2.6-5.7 5.7v8.8c-15.1-1.2-28.8-7.2-39.7-16.5 3.3-3.7 11.4-8.7 6.2-14.3-5.6-5.3-10.5 2.9-14.3 6.2-9.4-11.1-15.4-25.1-16.5-39.7h8.8c3.2 0 5.7-2.6 5.7-5.7 0-3.2-2.6-5.7-5.7-5.7h-8.8c1-14.6 7.2-28.7 16.6-39.6 3.7 3.3 8.6 11.3 14.2 6.1 5.2-5.6-2.8-10.5-6.1-14.2 10.8-9.2 24.8-15.5 39.6-16.5v8.7c0 3.2 2.6 5.7 5.7 5.7s5.7-2.6 5.7-5.7v-8.8c14.5 1.1 28.7 7 39.7 16.5-3.3 3.8-11.4 8.7-6.2 14.3 5.6 5.3 10.5-2.9 14.3-6.2 9.3 10.9 15.2 24.6 16.5 39.7h-8.8c-3.2 0-5.7 2.6-5.7 5.7 0 3.2 2.6 5.7 5.7 5.7h8.8c-1.2 15-7.2 28.8-16.5 39.7zm54.1-31.8c-1.2-.4-4.3-5.3-4.2-13.7 0-8 2.7-12.8 4-13.6 1.3.8 4 5.5 4 13.6.1 8.5-2.9 13.2-3.8 13.7z" fill="#231f20"/></g></g><g><g><path d="m375.4 347.8c-.6-21.1-31.5-21.1-32.1 0 .6 21.1 31.5 21.1 32.1 0zm-16 4.6c-6 0-6-9.2 0-9.2s6 9.2 0 9.2z" fill="#231f20"/></g></g><g><g><path d="m415.8 322c-29.3.9-29.3 43.4 0 44.4 29.4-1 29.3-43.5 0-44.4zm0 32.9c-14.1-.3-14.1-21.3 0-21.5 14.2.3 14.2 21.3 0 21.5z" fill="#231f20"/></g></g><g><g><path d="m386.9 374.3c-25.4.7-25.4 37.9 0 38.5 25.4-.7 25.4-37.9 0-38.5zm0 27.1c-10.3-.2-10.3-15.5 0-15.7 10.3.2 10.3 15.5 0 15.7z" fill="#231f20"/></g></g></g></svg>