<?xml version="1.0" encoding="UTF-8"?>
<svg xmlns="http://www.w3.org/2000/svg" id="Layer_1" data-name="Layer 1" viewBox="0 0 64 64" width="512" height="512"><path d="M2,63C2,47.5,22,47.5,22,32S2,16.5,2,1H22C22,16.5,2,16.5,2,32S22,47.5,22,63Z" fill="#ffc44d"/><path d="M22,1c0,7.75-5,11.62-10,15.5-.82-.63-1.63-1.26-2.42-1.92.2-.15.39-.3.58-.45C14.9,10.45,19,7.28,19,1Z" fill="#e6b045"/><path d="M13.84,45.13c.19.15.38.3.58.45-.79.66-1.6,1.29-2.42,1.92C7,43.62,2,39.75,2,32S7,20.38,12,16.5c.82.63,1.63,1.26,2.42,1.92-.2.15-.39.3-.58.45C9.1,22.55,5,25.72,5,32S9.1,41.45,13.84,45.13Z" fill="#e6b045"/><path d="M22,63H19c0-6.28-4.1-9.45-8.84-13.13-.19-.15-.38-.3-.58-.45.79-.66,1.6-1.29,2.42-1.92C17,51.38,22,55.25,22,63Z" fill="#e6b045"/><rect x="16" y="22" width="25" height="20" rx="1" fill="#3186f2"/><circle cx="32" cy="7" r="2.5" fill="#e65c5e"/><circle cx="55.5" cy="15" r="2.5" fill="#e65c5e"/><circle cx="32" cy="57" r="2.5" fill="#e65c5e"/><circle cx="55.5" cy="49" r="2.5" fill="#e65c5e"/><circle cx="59.5" cy="32" r="2.5" fill="#e65c5e"/><path d="M8.769,46.217c.467-.368.933-.731,1.393-1.088l.224-.174C6.355,41.688,3,38.151,3,32c0-7.26,4.669-10.878,9.613-14.709C17.719,13.333,23,9.24,23,1H21c0,7.26-4.669,10.878-9.613,14.709C6.281,19.667,1,23.76,1,32,1,38.825,4.624,42.8,8.769,46.217Z"/><path d="M15.231,48.783c-.467.368-.933.731-1.393,1.088l-.224.174C17.645,53.312,21,56.849,21,63h2C23,56.175,19.376,52.2,15.231,48.783Z"/><path d="M8.769,15.217c.467-.368.933-.731,1.393-1.088l.224-.174A25.366,25.366,0,0,1,5.488,9H15.971a13.9,13.9,0,0,0,1.448-2H4.305A13.592,13.592,0,0,1,3,1H1C1,7.825,4.624,11.8,8.769,15.217Z"/><path d="M40,21H18.666a32.427,32.427,0,0,0-3.435-3.217c-.467.368-.933.731-1.393,1.088l-.224.174c.87.7,1.686,1.436,2.465,2.19A2,2,0,0,0,15,23v1H8.029a13.9,13.9,0,0,0-1.448,2H15v5H5.041c-.024.326-.041.656-.041,1s.014.675.036,1H15v5H6.564a13.835,13.835,0,0,0,1.454,2H15v1a2,2,0,0,0,1.087,1.769,56.259,56.259,0,0,1-4.7,3.94C6.281,50.667,1,54.76,1,63H3a13.592,13.592,0,0,1,1.308-6H17.436a13.835,13.835,0,0,0-1.454-2H5.487c1.82-2.589,4.429-4.62,7.126-6.709A46.065,46.065,0,0,0,18.627,43H40a2,2,0,0,0,2-2V23A2,2,0,0,0,40,21ZM17,41V23H40l0,18Z"/><path d="M25,26H23a1,1,0,0,0-.967.745L19.071,38h2.068l1.053-4h3.616l1.053,4h2.068L25.967,26.745A1,1,0,0,0,25,26Zm-2.282,6,1.053-4h.458l1.053,4Z"/><polygon points="31 28 33.5 28 33.5 36 31 36 31 38 38 38 38 36 35.5 36 35.5 28 38 28 38 26 31 26 31 28"/><path d="M33,18V10.337a3.5,3.5,0,1,0-2,0V18ZM30.5,7A1.5,1.5,0,1,1,32,8.5,1.5,1.5,0,0,1,30.5,7Z"/><path d="M52.163,14H48a1,1,0,0,0-.707.293l-4,4,1.414,1.414L48.414,16h3.749a3.5,3.5,0,1,0,0-2ZM57,15a1.5,1.5,0,1,1-1.5-1.5A1.5,1.5,0,0,1,57,15Z"/><path d="M33,53.663V46H31v7.663a3.5,3.5,0,1,0,2,0ZM32,58.5A1.5,1.5,0,1,1,33.5,57,1.5,1.5,0,0,1,32,58.5Z"/><path d="M55.5,45.5A3.494,3.494,0,0,0,52.163,48H48.414l-3.707-3.707-1.414,1.414,4,4A1,1,0,0,0,48,50h4.163A3.493,3.493,0,1,0,55.5,45.5Zm0,5A1.5,1.5,0,1,1,57,49,1.5,1.5,0,0,1,55.5,50.5Z"/><path d="M59.5,28.5A3.494,3.494,0,0,0,56.163,31H45v2H56.163A3.493,3.493,0,1,0,59.5,28.5Zm0,5A1.5,1.5,0,1,1,61,32,1.5,1.5,0,0,1,59.5,33.5Z"/></svg>
