<svg id="Capa_1" enable-background="new 0 0 512.049 512.049" height="512" viewBox="0 0 512.049 512.049" width="512" xmlns="http://www.w3.org/2000/svg"><g><g><path d="m212.355 388.582-147.711-147.711c-53.175-53.175-54.375-139.77-1.384-193.129 51.314-51.67 133.712-53.523 187.255-5.557 3.136 2.809 7.884 2.809 11.02 0 53.542-47.965 135.941-46.113 187.254 5.557 52.991 53.359 51.791 139.954-1.384 193.129l-147.711 147.711v24.85h-87.339z" fill="#fc5b5b"/><g><g><path d="m200.002 280.448-35.905-71.809c-.702-1.403-2.136-2.289-3.704-2.289h-61.752c-4.575 0-8.283-3.709-8.283-8.283v-16.567c0-4.575 3.709-8.283 8.283-8.283h79.67c3.137 0 6.006 1.773 7.409 4.579l14.185 28.37c1.617 3.235 6.313 2.988 7.582-.398l39.429-105.144c2.498-6.661 11.676-7.282 15.049-1.019l49.369 91.686c1.523 2.828 5.546 2.921 7.198.167l8.533-14.221c1.497-2.495 4.193-4.022 7.103-4.022h79.24c4.575 0 8.283 3.708 8.283 8.283v16.567c0 4.575-3.709 8.283-8.283 8.283h-62.825c-1.455 0-2.803.763-3.551 2.011l-26.31 43.85c-3.305 5.508-11.35 5.321-14.396-.335l-43.272-80.363c-1.686-3.132-6.276-2.821-7.525.509l-40.361 107.631c-2.541 6.773-11.932 7.266-15.166.797z" fill="#e3f5ff"/></g></g><path d="m448.789 47.742c-29.542-29.747-69.388-42.978-108.099-39.7 31.045 2.617 61.365 15.844 85.056 39.701 52.991 53.359 51.791 139.954-1.384 193.129l-147.71 147.71v24.85h23.042v-24.85l147.711-147.711c53.175-53.175 54.375-139.77 1.384-193.129z" fill="#e64040"/><g><g><path d="m413.408 173.216h-23.042c4.575 0 8.283 3.708 8.283 8.283v16.567c0 4.575-3.709 8.283-8.283 8.283h23.042c4.575 0 8.283-3.709 8.283-8.283v-16.567c0-4.575-3.708-8.283-8.283-8.283z" fill="#c5e6f0"/></g></g><g><path d="m75.791 479.699h-35.7c-8.837 0-16-7.163-16-16v-100.533c0-8.837 7.163-16 16-16h35.7z" fill="#3d4566"/><path d="m50.749 347.166h25.043v132.533h-25.043z" fill="#2e2e4d"/></g><path d="m157.191 504.549h-67.4c-8.837 0-16-7.163-16-16v-150.233c0-8.837 7.163-16 16-16h67.4c8.837 0 16 7.163 16 16v150.233c0 8.836-7.163 16-16 16z" fill="#4d5e80"/><path d="m165.41 388.582h181.229v49.7h-181.229z" fill="#e3f5ff"/><path d="m157.191 322.316h-23.042c8.836 0 16 7.163 16 16v150.233c0 8.837-7.164 16-16 16h23.042c8.837 0 16-7.163 16-16v-150.233c0-8.837-7.163-16-16-16z" fill="#3d4566"/><path d="m315.815 388.582h30.824v49.7h-30.824z" fill="#c5e6f0"/><g><path d="m436.258 347.166h35.7c8.837 0 16 7.163 16 16v100.533c0 8.837-7.163 16-16 16h-35.7z" fill="#3d4566"/><path d="m471.958 347.166h-23.042c8.837 0 16 7.163 16 16v100.533c0 8.837-7.163 16-16 16h23.042c8.837 0 16-7.163 16-16v-100.533c0-8.837-7.164-16-16-16z" fill="#2e2e4d"/></g><path d="m438.258 347.166v-8.85c0-8.837-7.163-16-16-16h-67.4c-8.837 0-16 7.163-16 16v150.233c0 8.837 7.163 16 16 16h67.4c8.837 0 16-7.163 16-16v-8.85l-11.472-66.267z" fill="#4d5e80"/><path d="m422.258 322.316h-23.042c8.837 0 16 7.163 16 16v150.233c0 8.837-7.163 16-16 16h23.042c8.837 0 16-7.163 16-16v-150.233c0-8.837-7.164-16-16-16z" fill="#3d4566"/></g><g><path d="m471.958 339.666h-26.2v-1.35c0-12.958-10.542-23.5-23.5-23.5h-38.19l68.641-68.641c56.358-56.359 56.987-147.746 1.402-203.717-53.889-54.264-140.677-56.835-197.581-5.858-.288.259-.723.259-1.011 0-51.428-46.072-128.448-48.964-183.137-6.878-3.282 2.526-3.896 7.235-1.37 10.518 2.527 3.282 7.235 3.896 10.518 1.37 48.966-37.682 117.93-35.09 163.979 6.163 5.994 5.369 15.034 5.37 21.028 0 50.956-45.648 128.673-43.34 176.93 5.254 49.777 50.123 49.165 132.01-1.365 182.54l-79.248 79.248h-7.997c-12.958 0-23.5 10.542-23.5 23.5v7.997l-34.77 34.77h-81.127l-34.77-34.77v-7.997c0-12.958-10.542-23.5-23.5-23.5h-7.997l-79.247-79.248c-46.198-46.198-51.288-119.541-11.838-170.602 2.532-3.278 1.928-7.988-1.35-10.521-3.277-2.532-7.988-1.928-10.521 1.35-44.049 57.015-38.417 138.861 13.103 190.38l68.641 68.641h-38.19c-12.958 0-23.5 10.542-23.5 23.5v1.35h-26.2c-12.958 0-23.5 10.542-23.5 23.5v100.533c0 12.958 10.542 23.5 23.5 23.5h26.2v1.35c0 12.958 10.542 23.5 23.5 23.5h67.4c12.958 0 23.5-10.542 23.5-23.5v-42.767h24.46c4.142 0 7.5-3.358 7.5-7.5s-3.358-7.5-7.5-7.5h-24.46v-34.7h150.667v34.7h-91.208c-4.142 0-7.5 3.358-7.5 7.5s3.358 7.5 7.5 7.5h91.207v42.767c0 12.958 10.542 23.5 23.5 23.5h67.4c12.958 0 23.5-10.542 23.5-23.5v-1.35h26.2c12.958 0 23.5-10.542 23.5-23.5v-100.532c.001-12.958-10.541-23.5-23.499-23.5zm-431.867 132.533c-4.687 0-8.5-3.813-8.5-8.5v-100.533c0-4.687 3.813-8.5 8.5-8.5h26.2v117.533zm41.2 16.35v-150.233c0-4.687 3.813-8.5 8.5-8.5h42.767v167.233h-42.767c-4.687 0-8.5-3.813-8.5-8.5zm84.4 0c0 4.687-3.813 8.5-8.5 8.5h-9.633v-167.233h9.633c4.687 0 8.5 3.813 8.5 8.5v11.1.005zm15-121.024 13.557 13.557h-13.557zm137.11 13.557 13.557-13.557v13.557zm28.557 107.467v-139.128c0-.002 0-.003 0-.005v-11.1c0-4.687 3.813-8.5 8.5-8.5h9.633v167.233h-9.633c-4.687 0-8.5-3.813-8.5-8.5zm84.4 0c0 4.687-3.813 8.5-8.5 8.5h-42.767v-167.233h42.767c4.687 0 8.5 3.813 8.5 8.5zm49.7-24.85c0 4.687-3.813 8.5-8.5 8.5h-26.2v-117.533h26.2c4.687 0 8.5 3.813 8.5 8.5z"/><path d="m207.365 292.528c.289 0 .581-.007.872-.023 6.367-.334 11.713-4.25 13.952-10.22l37.766-100.707 39.767 73.852c2.725 5.062 7.783 8.163 13.53 8.296 5.75.128 10.944-2.73 13.9-7.659l25.332-42.219h60.923c8.703 0 15.783-7.08 15.783-15.783v-16.566c0-8.703-7.081-15.784-15.783-15.784h-79.24c-5.512 0-10.698 2.936-13.534 7.663l-5.495 9.158-46.57-86.488c-2.973-5.521-8.708-8.693-14.962-8.265-6.256.424-11.511 4.334-13.712 10.205l-36.725 97.933-10.741-21.482c-2.69-5.382-8.1-8.726-14.117-8.726h-79.67c-8.703 0-15.783 7.081-15.783 15.784v16.566c0 8.703 7.081 15.783 15.783 15.783h59.675l34.977 69.953c2.721 5.444 8.058 8.729 14.072 8.729zm-36.56-87.243c-1.984-3.97-5.974-6.436-10.413-6.436h-61.751c-.432 0-.783-.351-.783-.783v-16.566c0-.432.352-.784.783-.784h79.669c.298 0 .567.166.701.433l14.185 28.372c2.072 4.142 6.383 6.662 11.024 6.418 4.625-.243 8.663-3.202 10.289-7.538l39.429-105.144c.062-.165.177-.472.68-.506.507-.028.659.254.743.41l49.369 91.686c1.98 3.678 5.804 6.023 9.98 6.12 4.204.087 8.105-2.068 10.253-5.649l8.533-14.221c.141-.235.398-.381.672-.381h79.24c.432 0 .783.352.783.784v16.566c0 .432-.352.783-.783.783h-62.825c-4.065 0-7.891 2.166-9.982 5.652l-26.311 43.85c-.07.117-.254.408-.689.38-.455-.01-.607-.291-.671-.412l-43.272-80.363c-2.193-4.073-6.424-6.412-11.038-6.095-4.614.312-8.49 3.197-10.113 7.527l-40.362 107.631c-.067.18-.18.48-.692.507-.505.028-.656-.26-.741-.432h-.001z"/></g></g></svg>