<svg id="Capa_1" enable-background="new 0 0 512 512" height="512" viewBox="0 0 512 512" width="512" xmlns="http://www.w3.org/2000/svg"><g><g><path d="m22.923 78.749c-5.276 54.858 21.483 88.781 15.88 111.772-.871 3.575 2.984 6.391 6.133 4.488 24.302-14.685 40.249-44.519 40.643-69.406l37.165-80.468c-19.353-29.538-93.71-29.933-99.821 33.614z" fill="#d88d82"/><path d="m85.579 125.604 34.449-74.588-6.208-15.034c-4.849-3.519-10.711-6.202-17.104-7.912-32.586 28.382-53.518 49.286-41.714 159.606 18.548-15.952 30.241-40.813 30.577-62.072z" fill="#cc7262"/><path d="m229.002 123.25 12.712-29.342-74.391-32.247-53.261 10.497 3.443 81.465-14.295 74.211 51.391 9.897 10.865-56.394c.309-1.604 2.062-2.472 3.525-1.745l24.424 12.139c4.559 2.266 10.091.847 12.996-3.335l25.431-36.602c1.12-1.612 1.044-3.746-.131-5.318-4.957-6.627-6.07-15.484-2.709-23.226z" fill="#ffcebf"/><path d="m111.835 167.518c-15.938-1.533-49.257-29.432-31.365-100.257 25.705-101.81 216.312-62.61 176.872 35.993-3.085 7.714-29.612 29.823-63.141 1.543-12.953 8.225-27.26 12.122-27.26 12.122-3.426-25.725-28.789-24.525-33.838-6.473-3.596 12.853 3.736 26.017 13.914 29.974-8.645 16.108-22.089 28.37-35.182 27.098z" fill="#d88d82"/><path d="m207.245 304.768c-1.012-.824-1.248-2.265-.539-3.36 11.233-17.345 6.455-40.496-10.727-51.977l-68.106-45.508c-10.731-7.171-25.161-4.96-33.252 5.095l-2.601 3.231c-5.483 6.812-8.472 15.294-8.472 24.038v268.234h149.684v-21.731c0-3.323 1.661-6.452 4.466-8.233 64.397-40.871 21.954-127.127-30.453-169.789z" fill="#0ed2b3"/><path d="m226.29 437.316c0 2.531-.502 5.105-1.538 7.584-4.205 10-15.712 14.719-25.724 10.513l-123.962-52.001c-17.334-7.281-24.939-27.68-16.581-44.522l37.775-76.188 48.32 22.021-31.551 63.624c-1.862 3.755-.178 8.306 3.693 9.927l55.883 23.443c1.193.502 2.532.565 3.776.157l29.866-9.666c.931-.303 1.873-.45 2.814-.45 3.086 0 6.047 1.58 7.741 4.331 2.27 3.672 1.642 8.432-1.485 11.392l-6.235 5.889c-1.255 1.193-.879 3.285.722 3.954l4.425 1.862c7.532 3.16 12.061 10.451 12.061 18.13z" fill="#ffcebf"/><path d="m134.446 325.157 20.732-41.813c6.51-13.13 1.144-29.051-11.986-35.561s-29.051-1.144-35.561 11.986l-20.732 41.813z" fill="#0ab69f"/><path d="m371.473 378.296c-4.459 3.59-10.844 3.59-15.301-.003-69.363-55.896-102.778-77.969-114.985-115.773-11.625-36.004 8.136-74.614 44.138-86.238 29.044-9.379 59.774 1.661 76.676 25.176.906 1.26 2.735 1.26 3.641 0 16.904-23.512 47.64-34.551 76.671-25.179 36.001 11.624 55.768 50.231 44.144 86.235-12.416 38.46-47.766 61.671-114.984 115.782z" fill="#fe76a8"/><g><path d="m401.19 262.877h-20.459c-1.557 0-2.818-1.262-2.818-2.818v-20.459c0-1.557-1.262-2.818-2.818-2.818h-22.546c-1.557 0-2.818 1.262-2.818 2.818v20.459c0 1.556-1.262 2.818-2.818 2.818h-20.459c-1.556 0-2.818 1.262-2.818 2.818v22.546c0 1.557 1.262 2.818 2.818 2.818h20.459c1.557 0 2.818 1.262 2.818 2.818v20.459c0 1.557 1.262 2.818 2.818 2.818h22.546c1.557 0 2.818-1.262 2.818-2.818v-20.459c0-1.557 1.262-2.818 2.818-2.818h20.459c1.556 0 2.818-1.262 2.818-2.818v-22.546c0-1.556-1.262-2.818-2.818-2.818z" fill="#e5eef9"/></g><path d="m207.243 304.766c-1.011-.822-1.246-2.262-.538-3.355 11.235-17.346 6.457-40.498-10.725-51.979l-68.106-45.508c-3.822-2.554-8.114-3.896-12.421-4.139l52.759 42.556c14.63 11.801 18.698 35.597 9.132 53.424-.603 1.124-.402 2.603.458 3.449 44.6 43.828 80.727 132.422 26.006 174.454-2.413 1.853-3.877 5.066-3.877 8.519v16.382c0 3.288-2.208 5.953-4.931 5.953h38.234v-21.731c0-3.359 1.72-6.485 4.554-8.289 64.27-40.895 21.838-127.094-30.545-169.736z" fill="#0ab69f"/><path d="m442.313 176.281c-11.534-3.723-23.334-4.215-34.432-1.993 2.215.514 4.428 1.17 6.63 1.993 31.106 11.624 48.185 50.232 38.141 86.235-10.644 38.16-40.812 61.324-98.017 114.543.516.416 1.016.815 1.536 1.235 4.458 3.592 10.842 3.592 15.301.002 67.219-54.111 102.568-77.322 114.984-115.781 11.625-36.003-8.142-74.611-44.143-86.234z" fill="#fe5694"/><path d="m166.247 7.537c46.225 10.953 82.784 45.5 62.674 94.235-1.467 3.556-7.959 10.102-17.887 13.575 25.243 10.449 43.76-5.725 46.307-12.092 23.518-58.796-34.757-96.466-91.094-95.718z" fill="#cc7262"/></g><g><path d="m215.229 301.653c10.405-20.169 4.15-45.608-15.078-58.456l-34.516-23.066 5.954-30.87 18.494 9.19c7.835 3.902 17.504 1.421 22.49-5.765l25.424-36.601c2.963-4.257 2.847-9.923-.276-14.08-3.385-4.534-4.09-10.57-1.837-15.76l.347-.801c14.238-2.787 25.211-12.231 28.074-19.389 10.433-26.084 6.787-51.351-10.268-71.148-24.342-28.26-72.516-41.568-114.548-31.64-15.085 3.562-28.058 9.754-38.569 18.236-18.756-5.719-40.452-3.273-56.498 6.645-11.71 7.239-26.238 21.772-28.949 49.902-3.138 32.665 4.438 57.801 10.526 77.997 4.172 13.841 7.467 24.772 5.532 32.704-1.115 4.573.612 9.326 4.4 12.108 2.043 1.501 4.452 2.26 6.874 2.26 2.077 0 4.163-.559 6.033-1.685 15.24-9.215 28.318-24.612 36.239-42.082 6.869 8.105 14.518 12.639 20.897 14.576l-3.959 20.56c-5.013 2.013-9.59 5.317-13.224 9.836l-2.6 3.23c-6.53 8.115-10.126 18.321-10.126 28.739v70.283l-24.281 48.971c-4.97 10.015-5.559 21.302-1.659 31.782 3.846 10.335 11.884 18.712 22.055 22.984l3.884 1.63v92.557c0 4.142 3.358 7.499 7.499 7.499 4.142 0 7.499-3.357 7.499-7.499v-86.265c32.789 13.534 31.441 13.685 34.123 13.685 2.93 0 5.714-1.728 6.918-4.6 1.602-3.819-.195-8.214-4.014-9.817l-50.105-21.02c-6.458-2.713-11.36-7.822-13.803-14.385-2.44-6.558-2.072-13.619 1.038-19.886l25.08-50.585 34.105 16.911-18.084 36.467c-1.806 3.643-2.027 7.917-.607 11.725 1.418 3.802 4.378 6.882 8.117 8.449l55.87 23.438c2.865 1.207 6.067 1.338 8.995.381l29.88-9.671c1.61-.524 2.815 1.534 1.594 2.691l-6.252 5.905c-2.435 2.314-3.526 5.668-2.917 8.972.608 3.3 2.819 6.042 5.897 7.329l4.433 1.865c4.533 1.901 7.462 6.303 7.462 11.213 0 1.592-.322 3.171-.951 4.676-2.599 6.179-9.73 9.097-15.907 6.503l-41.572-17.439c-3.819-1.599-8.214.195-9.817 4.014-1.602 3.819.195 8.214 4.014 9.817l41.568 17.437c3.419 1.437 6.97 2.117 10.467 2.117 10.607 0 20.709-6.26 25.079-16.652 1.405-3.363 2.117-6.887 2.117-10.474 0-9.974-5.407-19.006-13.989-23.751l.672-.636c5.687-5.382 6.826-14.122 2.715-20.771-3.046-4.945-8.326-7.897-14.126-7.897-4.515 0-4.927 1.003-34.261 10.245l-54.935-23.046c32.439-65.417 1.138-2.288 42.037-84.773 8.336-16.812 1.44-37.271-15.372-45.608-8.145-4.038-17.374-4.664-25.988-1.759-8.615 2.903-15.582 8.988-19.62 17.131l-9.863 19.891v-40.036c0-7.01 2.419-13.877 6.812-19.335l2.601-3.232c5.692-7.078 15.737-8.577 23.247-3.564l68.094 45.507c13.691 9.148 17.549 27.838 8.611 41.649-2.805 4.31-1.907 10.014 2.09 13.266 43.661 35.545 61.755 82.154 60.09 110.418-1.172 19.885-10.904 35.769-28.932 47.213-4.975 3.164-7.945 8.606-7.945 14.557v21.729c0 4.142 3.358 7.499 7.499 7.499s7.499-3.357 7.499-7.499v-21.729c0-.782.381-1.511.989-1.897 22.01-13.971 34.411-34.37 35.861-58.991 1.21-20.549-5.162-43.761-18.429-67.128-11.153-19.649-26.65-38.365-43.918-53.101zm-100.866-38.553c2.259-4.554 6.156-7.957 10.973-9.581 4.816-1.625 9.979-1.275 14.534.984 9.403 4.662 13.26 16.105 8.598 25.508l-17.399 35.091-34.105-16.911zm-67.284-78.614c.188-9.853-3.07-20.66-6.719-32.768-5.709-18.938-12.812-42.506-9.957-72.232 1.679-17.418 9.253-30.759 21.905-38.58 10.272-6.349 23.58-8.735 36.177-6.878-7.097 8.961-12.265 19.502-15.272 31.412-9.284 36.752-5.265 61.635 1.919 77.866-4.926 16.252-15.263 31.346-28.053 41.18zm46.945-38.043c-1.525-2.164-2.92-4.399-4.027-6.768-.069-.149-.138-.297-.214-.443-11.206-22.967-6.314-53.151-2.028-70.119 8.928-35.36 38.405-47.286 55.181-51.248 36.3-8.574 79.177 2.962 99.737 26.829 13.411 15.569 16.531 35.048 7.715 55.764-.678 1.592-6.323 7.853-16.143 10.079-11.15 2.524-23.321-1.435-35.205-11.46-2.505-2.111-6.091-2.355-8.855-.598-6.314 4.009-13.064 6.932-17.99 8.787-3.316-8.75-10.093-16.7-21.313-17.488-11.419-.815-21.696 6.871-24.993 18.662-3.059 10.944-.148 22.993 7.597 31.446 1.032 1.126 2.127 2.156 3.273 3.087-7.459 11.128-16.706 17.815-24.195 17.088-3.564-.344-11.481-3.598-18.54-13.618zm23.668 45.947 3.528-18.324c10.692-2.908 21.25-11.797 29.53-25.107 2.246.24 4.528.18 6.885-.262 4.071-.763 6.752-4.682 5.989-8.752-.763-4.071-4.682-6.757-8.753-5.989-4.981.932-8.881-2.63-10.325-4.204-3.348-3.654-6.212-10.11-4.21-17.274 1.592-5.696 5.918-8.005 9.496-7.739 5.011.352 8.631 5.279 9.682 13.181.302 2.256 1.683 4.414 3.876 5.605 1.741.942 3.721 1.128 5.529.641.559-.152 12.401-3.424 24.678-10.273 9.733 7.231 18.803 10.634 26.742 11.848-1.803 8.005-.343 16.502 4.154 23.491l-24.242 34.899c-.772 1.112-2.269 1.496-3.49.889l-24.41-12.129c-2.81-1.407-6.039-1.415-8.858-.025-2.824 1.393-4.785 3.968-5.381 7.062l-6.009 31.16-20.05-13.399c-4.464-2.98-9.384-4.723-14.361-5.299z"/><path d="m495.37 224.63c-.922-4.039-4.941-6.564-8.98-5.644-4.038.922-6.564 4.942-5.643 8.98 2.429 10.643 1.928 21.793-1.447 32.245-9.928 30.751-36.732 52.005-85.393 90.59-8.573 6.798-17.438 13.828-27.148 21.645-1.708 1.376-4.185 1.373-5.892-.001-9.606-7.741-18.335-14.684-26.778-21.4-50.564-40.22-75.943-60.408-85.767-90.828-5.006-15.506-3.675-32.032 3.748-46.536s20.05-25.248 35.555-30.254c25.326-8.175 52.76.832 68.276 22.416 1.83 2.546 4.787 4.067 7.909 4.067 3.121 0 6.078-1.52 7.91-4.067 15.517-21.583 42.951-30.591 68.271-22.419 10.215 3.299 19.389 9.229 26.53 17.15 2.772 3.078 7.515 3.322 10.591.549s3.322-7.515.548-10.591c-8.906-9.879-20.339-17.273-33.062-21.381-29.335-9.469-60.955-.419-80.788 22.525-19.833-22.949-51.455-32-80.794-22.522-19.317 6.237-35.049 19.623-44.298 37.693s-10.907 38.661-4.67 57.979c11.215 34.73 37.78 55.861 90.703 97.958 8.424 6.701 17.135 13.629 26.704 21.34 3.58 2.885 7.968 4.327 12.357 4.327 4.386 0 8.773-1.44 12.351-4.322 9.667-7.782 18.51-14.794 27.061-21.574 50.956-40.405 79.024-62.662 90.347-97.734 4.207-13.022 4.828-26.919 1.799-40.191z"/><path d="m352.539 324.65h22.544c5.689 0 10.318-4.629 10.318-10.317v-15.776h15.776c5.689 0 10.317-4.629 10.317-10.318v-22.545c0-5.689-4.629-10.317-10.317-10.317h-15.776v-15.776c0-5.689-4.629-10.317-10.318-10.317h-22.544c-5.689 0-10.317 4.629-10.317 10.317v15.776h-15.776c-5.689 0-10.317 4.629-10.317 10.317v22.545c0 5.689 4.628 10.318 10.317 10.318h15.776v15.776c0 5.689 4.628 10.317 10.317 10.317zm-21.411-41.092v-13.182h15.776c5.689 0 10.318-4.629 10.318-10.317v-15.776h13.182v15.776c0 5.689 4.629 10.317 10.318 10.317h15.776v13.182h-15.778c-5.689 0-10.318 4.629-10.318 10.318v15.776h-13.182v-15.776c0-5.689-4.629-10.318-10.318-10.318z"/></g></g></svg>