<svg height="512" viewBox="0 0 55 60" width="512" xmlns="http://www.w3.org/2000/svg"><g id="Page-1" fill="none" fill-rule="evenodd"><g id="021---Brain-Profile" fill-rule="nonzero" transform="translate(0 -1)"><path id="Shape" d="m47.23 57.13c.2993503.6196415.2591127 1.3496617-.1065246 1.9326501s-1.0053141.9370537-1.6934754.9373499h-20.17c-.858799-.0035163-1.6194833-.5549118-1.89-1.37-.66-1.9-2.11-5.24-4.51-6.33-2.8476515 1.0311337-5.7484703 1.909057-8.69 2.63-1.43386925.3058116-2.85257563-.5781176-3.21-2-.85-2.46.33-3.13-.05-4.6-.26-1.02-1.22-1.27-1.98-1.81-.61-.43.49-1.84.49-1.84s-1.17-.87-1.59-1.25c-.44-.37.17-.99.73-2.16.22857894-.5041746.29159227-1.0677938.18-1.61-.2-1.08-1.82-1.48-2.62-2.08-1.67-1.24-1.76-1.54 2.6-6.25.91311456-1.0615165 1.49081641-2.3700459 1.66-3.76.08-.47.56-.98.55-1.55-.02-1.43-2.09-2.02-2.28-3.41-.15-1.08 1.24-3.05 1.69-4.98.24613795-1.1813929.56338182-2.3468467.95-3.49.83024267-2.3020922 2.11966974-4.4114452 3.79-6.2 2.45-2.6 5.85-3.72 9.29-4.52 12.58-2.9 18.89-1.31 26.06 4.33 2.7040838 2.01294837 4.6773227 4.8534293 5.62 8.09.7219224 2.6718051 1.0586539 5.4330027 1 8.2-.1 7.34-4.77 9.91-6.85 14.66-1.2724507 2.9274818-1.7485282 6.1392796-1.38 9.31.2766674 3.1445372 1.0883353 6.2187294 2.4 9.09z" fill="#ffe0b2"/><path id="Shape" d="m47.22 57.1c-1.3116647-2.8712706-2.1233326-5.9454628-2.4-9.09-.3685282-3.1707204.1075493-6.3825182 1.38-9.31 2.08-4.75 6.75-7.32 6.85-14.66.0586539-2.7669973-.2780776-5.5281949-1-8.2-.9426773-3.2365707-2.9159162-6.07705163-5.62-8.09-5.189-4.082-9.94-6.03-16.93-5.702 5.425.3 9.518 2.23 13.931 5.7 2.7040838 2.01294837 4.6773227 4.8534293 5.62 8.09.7219224 2.6718051 1.0586539 5.4330027 1 8.2-.1 7.34-4.77 9.91-6.85 14.66-1.2724507 2.9274818-1.7485282 6.1392796-1.38 9.31.2766674 3.1445372 1.0883353 6.2187294 2.4 9.09l.01.03c.3003632.6199788.2605065 1.3508999-.1054894 1.9345425-.365996.5836426-1.0066045.9378387-1.6955106.9374575h3c.6881613-.0002962 1.3278381-.3543615 1.6934754-.9373499s.4058749-1.3130086.1065246-1.9326501z" fill="#dfc49c"/><path id="Shape" d="m47.06 22.88c-.000244 1.3123537-.4885652 2.5777114-1.37 3.55h-.01c-.4055497 2.2171671-1.7961375 4.130145-3.78 5.2.5831918.8081003 1.0291716 1.7068172 1.32 2.66.0672906.2066257.1010516.4226958.1.64-.0027109.8306107-.4974831 1.5806226-1.26 1.91-.1218195.0517099-.2493951.0886397-.38.11v.01c-.7756376.1524868-1.5720502-.1360684-2.07-.75-.659391-.7651575-1.5177695-1.3327949-2.48-1.64-.17-.06-.33-.11-.49-.17-2.75-.99-3.6-2.03-3.8-3.74h-.06c-1.0743441.0013295-2.1394124-.1987948-3.14-.59-1.2305134 1.4286827-3.1308762 2.0905931-4.9826893 1.7355074s-3.3725454-1.672992-3.9873107-3.4555074h-.01c-2.1929718.8083596-4.6428383.4911027-6.5575588-.8492017-1.9147206-1.3403044-3.0513592-3.533601-3.0424412-5.8707983-.0048394-1.5354014.4900773-3.0306818 1.41-4.26-.1122369-.3283723-.1696709-.6729764-.17-1.02-.0030106-1.4856625 1.0435767-2.7666855 2.5-3.06-.01-.12-.02-.24-.02-.37-.000557-2.2275584 1.802447-4.03503646 4.03-4.04.6064408-.00400844 1.2055213.13292424 1.75.4 1.0645952-1.79239317 2.9952852-2.89075816 5.08-2.89 1.4330597-.00361382 2.817475.5195457 3.89 1.47.6130013-.98880464 1.7280309-1.55114416 2.8875588-1.45627371 1.1595278.09487046 2.1683209.83097731 2.6124412 1.90627371.2822318-.03189603.5659751-.04858682.85-.05 3.8778796.00265669 7.107234 2.9755752 7.43 6.84h.02c1.1048357.0073527 2.1234469.598295 2.6782364 1.5537659.5547896.9554709.5630669 2.1330587.0217636 3.0962341.6707879.9055283 1.0319652 2.0030865 1.03 3.13z" fill="#ef314c"/><path id="Shape" d="m46.03 19.75c.5413033-.9631754.533026-2.1407632-.0217636-3.0962341-.5547895-.9554709-1.5734007-1.5464132-2.6782364-1.5537659h-.02c-.322766-3.8644248-3.5521204-6.83734331-7.43-6.84-.2840249.00141318-.5677682.01810397-.85.05-.4808683-1.16108704-1.6132758-1.91865586-2.87-1.92-.5261193.00181497-1.0428351.13960585-1.5.4.614312.33855548 1.0968618.87393915 1.37 1.52.2822318-.03189603.5659751-.04858682.85-.05 3.8778796.00265669 7.107234 2.9755752 7.43 6.84h.02c1.1048357.0073527 2.1234469.598295 2.6782364 1.5537659.5547896.9554709.5630669 2.1330587.0217636 3.0962341 1.4920958 2.0234559 1.3498331 4.8184986-.34 6.68h-.01c-.4055497 2.2171671-1.7961375 4.130145-3.78 5.2.5831918.8081003 1.0291716 1.7068172 1.32 2.66.0672906.2066257.1010516.4226958.1.64-.0082487.5226745-.2140368 1.0228538-.576 1.4.4951459.5271145 1.2258485.7637625 1.936.627v-.01c.1306049-.0213603.2581805-.0582901.38-.11.7625169-.3293774 1.2572891-1.0793893 1.26-1.91.0010516-.2173042-.0327094-.4333743-.1-.64-.2908284-.9531828-.7368082-1.8518997-1.32-2.66 1.9838625-1.069855 3.3744503-2.9828329 3.78-5.2h.01c1.6898331-1.8615014 1.8320958-4.6565441.34-6.68z" fill="#bb193b"/><path id="Shape" d="m43.8 60h-4.54c-2.1-5.69-3.99-11.8-2.87-18.09.42-2.38 1.31-4.92.25-7.51.16.06.32.11.49.17.9622305.3072051 1.820609.8748425 2.48 1.64.4979498.6139316 1.2943624.9024868 2.07.75-.094658 1.6698229-.3457581 3.3270837-.75 4.95-1.12 6.29.77 12.4 2.87 18.09z" fill="#bb193b"/><path id="Shape" d="m35.244 17.408c-.5423236-.1037324-1.0660876.2517109-1.17.794-.1964965 1.0312282-.7914842 1.9434708-1.656 2.539-1.6627796 1.1209256-3.8933765.868797-5.264-.595-.3703069-.4097953-1.0027047-.4418069-1.4125-.0715-.4097952.3703069-.4418069 1.0027047-.0715 1.4125.8467792.9357661 1.9661484 1.581852 3.2 1.847-.5587904.7895911-1.4666859 1.2580861-2.434 1.256-.5522847 0-1 .4477153-1 1s.4477153 1 1 1c2.071894.0100616 3.9317517-1.2687899 4.664-3.207 2.4870644-.4114255 4.4562641-2.3255929 4.938-4.8.0512891-.2611867-.0036669-.5320438-.1526973-.7525862-.1490304-.2205425-.3798364-.37257-.6413027-.4224138z" fill="#f5f5f5"/><path id="Shape" d="m26.855 14.39c0-.5522847-.4477153-1-1-1-2.5391394.0033055-4.5966945 2.0608606-4.6 4.6 0 .5522847.4477153 1 1 1s1-.4477153 1-1c0-1.4359403 1.1640597-2.6 2.6-2.6.5522847 0 1-.4477153 1-1z" fill="#f5f5f5"/><path id="Shape" d="m5.4 27.4c-.1362013 1.1994107-.62634728 2.3311327-1.408 3.251-3.142 3.389-4.039 4.556-3.929 5.764s1.431 2.029 2.5 2.574c.43.22 1.15.589 1.2.853.06552896.3384272.02718405.6887603-.11 1.005-.543 1.144-1.614 2.383-.489 3.331.215.191.585.482.922.74-.25025843.4397629-.36245216.9446347-.322 1.449.109.753.627 1.028 1.285 1.4.883.506 1.112.655.811 1.925-.82 3.465 1.192 6.9 4.511 6.211 2.8475107-.6884505 5.6556269-1.5306851 8.412-2.523 1.38.823 2.691 2.823 3.638 5.574.4131983 1.2193708 1.5555306 2.0414643 2.843 2.046h20.166c1.0382387-.0007248 2.0022976-.5382207 2.5487514-1.4210164.5464538-.8827958.5976113-1.9853811.1352486-2.9149836-1.248833-2.777965-2.02614-5.7445739-2.3-8.778-.3548274-2.990845.0939069-6.0222181 1.3-8.782 1.98-4.523 6.829-7.378 6.936-15.047.128-8.786-2.589-13.635-7.007-17.095-7.879-6.2-14.668-7.337-26.9-4.515-3.32.766-7.08 1.935-9.789 4.8-1.76433028 1.88596916-3.12540934 4.112014-4 6.542-.36984837 1.0699008-.67046944 2.1624914-.9 3.271-.20971489.9326947-.53313367 1.8361179-.963 2.69-1.094 2.449-1.358 3.4.632 5.225 1.491 1.376.507 1.025.277 2.425zm30.9 2.578c-.0777221-.2537601-.2531301-.4662165-.4875877-.5905729-.2344577-.1243563-.5087328-.1504117-.7624123-.0724271-1.6547036.5174386-3.4365863.4535731-5.05-.181-.3961765-.1389989-.8370666-.0293658-1.122.279-1.4582009 1.6633923-3.9435454 1.9419218-5.7337766.6425772s-2.2957386-3.7486257-1.1662234-5.6505772c.2841505-.4735842.1305841-1.0878495-.343-1.372-.4735842-.2841505-1.0878495-.1305841-1.372.343-.2387546.4056206-.4306519.837054-.572 1.286-.7971855-.0439378-1.4219744-.7016103-1.425-1.5-.0005173-.2638693-.1064589-.5165907-.2942597-.7019501-.1878009-.1853594-.4418868-.2879853-.7057403-.2850499-1.9 0-1.025 4.118 2.1 4.462.0035931.3352279.0340236.6696299.091 1-2.2305408.4723833-4.5388559-.3332865-5.9910134-2.0910398s-1.8077808-4.1766279-.9229866-6.2779602c.224282.2261283.4743252.4251561.745.593.473308.2847028 1.0877972.131808 1.3725-.3415.2847027-.473308.131808-1.0877972-.3415-1.3725-.806257-.4912977-1.1892272-1.4574854-.9385068-2.3677398s1.074399-1.5440829 2.0185068-1.5532602c.6635536-.0017937 1.2881032.3132676 1.681.848.2132876.2867056.563329.437845.9182672.3964854.3549381-.0413596.6608494-.2689348.8025-.597.1416506-.3280653.0975204-.7067798-.1157672-.9934854-.6791747-.9078904-1.7086772-1.4885052-2.837-1.6.3213918-1.5368732 1.7734483-2.56595828 3.33-2.36-.075.206-.154.411-.209.624-.1146013.525141.2064181 1.0469386.7268254 1.1814108s1.0540258-.1664888 1.2081746-.6814108c.3968581-1.51775048 1.4986288-2.75248057 2.9615604-3.31895558 1.4629316-.56647502 3.1089279-.39573267 4.4244396.45895558-.1500803.42274988-.229149.86742668-.234 1.316 0 .5522847.4477153 1 1 1s1-.4477153 1-1c0-.75150819.4009248-1.44593041 1.05175-1.82168451s1.4526748-.3757541 2.1035 0 1.05175 1.07017632 1.05175 1.82168451c0 .5522847.4477153 1 1 1s1-.4477153 1-1c0-.078-.019-.15-.023-.227 2.8632149.17698891 5.2708325 2.2122023 5.922 5.006-.4663792.1360285-.9046296.3544764-1.294.645-.4418278.3313708-.5313708.9581722-.2 1.4s.9581722.5313708 1.4.2c.6450387-.4875189 1.512093-.563131 2.231782-.194624s1.165185 1.1161925 1.1466986 1.924529c-.0184865.8083365-.4976975 1.5348743-1.2334806 1.870095-.5000938.234721-.715221.8304062-.4805 1.3305s.8304062.715221 1.3305.4805c.2653408-.1284251.5161136-.2849905.748-.467.6055703 1.74516.0217283 3.6818812-1.4474794 4.8015808-1.4692078 1.1196996-3.4914151 1.1690775-5.0135206.1224192.7358674-1.0319235.8386992-2.3868383.267-3.518-.2465951-.4942949-.8472051-.6950951-1.3415-.4485s-.6950951.8472051-.4485 1.3415c.3303182.6610961.1250063 1.4644534-.482 1.886-.3553341.2371865-.7946421.3124077-1.2086456.2069522s-.7637917-.3816764-.9623544-.7599522c-.1592459-.3217112-.478709-.5333868-.8370472-.5546256s-.700569.1512179-.8967023.4518657c-.1961333.3006477-.216075.6833559-.0522505 1.0027599.7949506 1.6146975 2.6975933 2.347019 4.37 1.682 1.5937081 1.3730764 3.7802438 1.8328832 5.792 1.218-.9881191 1.3496411-2.4670999 2.2568547-4.118 2.526-.5453812.0875371-.9165371.6006188-.829 1.146s.6006188.9165371 1.146.829c.6085731-.1055551 1.2033216-.279317 1.773-.518.3078359.5449849.5575408 1.1208145.745 1.718.1580402.5020591-.0695892 1.0448432-.5384709 1.2839877-.4688816.2391445-1.0419086.1047206-1.3555291-.3179877-.7753347-.9089086-1.7895947-1.5826572-2.928-1.945-2.161-.723-2.995-1.37-3.349-2.074.5189719-.064577 1.0317177-.1719426 1.533-.321.5264052-.1619012.8228167-.7189582.663-1.246zm1.788 6.186c.28386.2004321.5415277.4355917.767.7.459033.542997 1.0855499.9179925 1.781 1.066-.381 3.932-2.956 7.915 1.741 21.071h-2.422c-5.61-15.424-1.325-17.349-1.875-22.834zm-32.445-13.689c.12145117-.6667198.34686443-1.3102274.668-1.907.48111379-.9729854.84660401-1.9989758 1.089-3.057.21395743-1.0264434.49217176-2.0384356.833-3.03.78308608-2.1755456 2.0011902-4.1687451 3.58-5.858 2.336-2.474 5.6-3.493 8.783-4.227 13.042-3.009 18.723-.966 25.215 4.14 2.5392323 1.8786596 4.3916971 4.5387892 5.273 7.572.6990907 2.5802541 1.0250663 5.2473267.968 7.92-.1 7-4.6 9.311-6.769 14.278-1.3495672 3.0857211-1.8518237 6.4755214-1.455 9.82.2987412 3.2644765 1.1438377 6.4555608 2.5 9.44.1490558.3094118.1289022.6736672-.0533777.9647467-.18228.2910796-.5011805.4682536-.8446223.4692533h-.93c-5-13.751-2.107-16.733-1.845-21.347 1.3400333-.6847579 1.9832821-2.2422088 1.517-3.673-.2237503-.7068259-.5196421-1.3887508-.883-2.035 1.6996798-1.2225595 2.8838013-3.0336737 3.322-5.081 1.7040809-2.0300855 1.9268256-4.9197354.554-7.187.4289942-1.1179899.3477842-2.3676524-.2222973-3.4207167-.5700814-1.0530644-1.5720505-1.8042696-2.7427027-2.0562833-.7623956-4.116541-4.4154819-7.06024889-8.6-6.93-.6523549-1.02294857-1.7271621-1.70142787-2.9312418-1.85036625-1.2040798-.14893838-2.4118119.24720273-3.2937582 1.08036625-3.0071661-1.94854098-7.0065751-1.26144852-9.191 1.579-1.4529919-.4138333-3.0151582-.14947962-4.2510896.71937998-1.2359315.8688596-2.0134742 2.24932102-2.1159104 3.75662002-1.8213851.7618016-2.8383479 2.7162047-2.417 4.645-1.8223385 2.7886178-1.75985009 6.4066052.1577005 9.1306292 1.9175507 2.7240239 5.3024141 4.0032572 8.5422995 3.2283708.9110598 1.7267715 2.5748311 2.9303038 4.4999865 3.2551823 1.9251555.3248786 3.8917441-.2660143 5.3190135-1.5981823.6787871.2125443 1.3790793.3490476 2.088.407.431 1.6 1.576 2.647 3.832 3.542.4100676 1.7260784.3510277 3.5304207-.171 5.226-1.385 6.609-.217 11.946 2.161 18.609h-12.565c-.4324283-.0040645-.8146936-.2819297-.952-.692-.650973-2.1230525-1.7732518-4.0715719-3.283-5.7 1.083-.379 1.958-.691 2.323-.806 4.277-1.346 6.417-3.294 6.358-5.792.0008877-.2673862-.1081879-.5233787-.3016515-.7079539s-.4542995-.2814993-.7213485-.2680461c-.5519545.013101-.988854.4710397-.976 1.023.057 2.436-4.322 3.6-6.6 4.4-3.6525574 1.3588945-7.3740259 2.5248367-11.149 3.493-.93372293.1756563-1.83982378-.4163531-2.054-1.342-.788-2.272.465-2.583-.028-4.524-.295-1.162-1.117-1.625-2.053-2.17.294-.619.666-.786.586-1.371s-.382-.616-1.615-1.6c.75603529-.9876661 1.08974081-2.2347467.928-3.468-.311-1.643-2.3-2.159-3.011-2.688-.23394416-.1633988-.45493325-.3446031-.661-.542.017-.578 2.217-2.951 3.4-4.226 1.05130103-1.2037766 1.71794724-2.6948489 1.914-4.281.30643436-.52978.49760063-1.1182723.561-1.727-.02-1.918-2.173-2.711-2.286-3.536z" fill="#000"/></g></g></svg>