<svg id="Capa_1" enable-background="new 0 0 512 512" height="512" viewBox="0 0 512 512" width="512" xmlns="http://www.w3.org/2000/svg"><g><g><g><path d="m104.988 45c0-20.711 16.791-37.5 37.503-37.5h227.018c20.712 0 37.503 16.789 37.503 37.5v422c0 20.711-16.791 37.5-37.503 37.5h-227.018c-20.712 0-37.503-16.789-37.503-37.5z" fill="#f5f8f9"/><path d="m407.01 45v422c0 20.71-16.79 37.5-37.5 37.5h-32c20.71 0 37.5-16.79 37.5-37.5v-422c0-20.71-16.79-37.5-37.5-37.5h32c20.71 0 37.5 16.79 37.5 37.5z" fill="#e8edf2"/></g><g><path d="m222.723 251.57-23.73 1.504h-126.973c-6.173 0-11.178-5.004-11.178-11.178v-154.731c0-6.173 5.004-11.178 11.178-11.178h126.973l24.718 2.451c6.173 0 11.178 5.004 11.178 11.178l-.988 150.776c0 6.174-5.005 11.178-11.178 11.178z" fill="#8db9ff"/><path d="m237.93 87.17v154.73c0 6.17-5 11.17-11.18 11.17h-33.59c10.92 0 19.77-8.84 19.77-19.76v-137.56c0-10.91-8.85-19.76-19.77-19.76h33.59c6.18 0 11.18 5 11.18 11.18z" fill="#70abf2"/></g><g><path d="m222.723 464.602-23.73 1.504h-126.973c-6.173 0-11.178-5.004-11.178-11.178v-154.731c0-6.173 5.004-11.178 11.178-11.178h126.973l24.718 2.451c6.173 0 11.178 5.004 11.178 11.178l-.988 150.776c0 6.174-5.005 11.178-11.178 11.178z" fill="#ffde80"/><path d="m237.93 300.202v154.73c0 6.17-5 11.17-11.18 11.17h-33.59c10.92 0 19.77-8.84 19.77-19.76v-137.56c0-10.91-8.85-19.76-19.77-19.76h33.59c6.18 0 11.18 5 11.18 11.18z" fill="#ffce61"/></g><g><path d="m436.203 464.602-23.73 1.504h-126.973c-6.173 0-11.178-5.004-11.178-11.178v-154.731c0-6.173 5.004-11.178 11.178-11.178h126.973l24.718 2.451c6.173 0 11.178 5.004 11.178 11.178l-.988 150.776c0 6.174-5.005 11.178-11.178 11.178z" fill="#86e8d0"/><path d="m451.41 300.202v154.73c0 6.17-5 11.17-11.18 11.17h-33.59c10.92 0 19.77-8.84 19.77-19.76v-137.56c0-10.91-8.85-19.76-19.77-19.76h33.59c6.18 0 11.18 5 11.18 11.18z" fill="#5de1c4"/></g><g><path d="m436.203 251.57-23.73 1.504h-126.973c-6.173 0-11.178-5.004-11.178-11.178v-154.731c0-6.173 5.004-11.178 11.178-11.178h126.973l24.718 2.451c6.173 0 11.178 5.004 11.178 11.178l-.988 150.776c0 6.174-5.004 11.178-11.178 11.178z" fill="#ff7e7b"/><path d="m451.41 87.17v154.73c0 6.17-5 11.17-11.18 11.17h-33.59c10.92 0 19.77-8.84 19.77-19.76v-137.56c0-10.91-8.85-19.76-19.77-19.76h33.59c6.18 0 11.18 5 11.18 11.18z" fill="#ff6464"/></g><path d="m316.259 147.679h26.756c1.657 0 3-1.343 3-3v-26.756c0-1.657 1.343-3 3-3h27.704c1.657 0 3 1.343 3 3v26.756c0 1.657 1.343 3 3 3h26.756c1.657 0 3 1.343 3 3v27.704c0 1.657-1.343 3-3 3h-26.756c-1.657 0-3 1.343-3 3v26.756c0 1.657-1.343 3-3 3h-27.704c-1.657 0-3-1.343-3-3v-26.756c0-1.657-1.343-3-3-3h-26.756c-1.657 0-3-1.343-3-3v-27.704c0-1.657 1.343-3 3-3z" fill="#f5f8f9"/><g><path d="m343.507 347.86v45.02l-15.899 7.418-16.961-7.418v-45.02z" fill="#f5f8f9"/><path d="m343.507 392.88v25.23c0 9.07-7.36 16.43-16.43 16.43s-16.43-7.36-16.43-16.43v-25.23z" fill="#0ed2b3"/><path d="m345.57 349.383h-36.986c-1.732 0-3.136-1.404-3.136-3.136v-22.524c0-1.732 1.404-3.136 3.136-3.136h36.986c1.732 0 3.136 1.404 3.136 3.136v22.524c-.001 1.732-1.405 3.136-3.136 3.136z" fill="#e8edf2"/></g><g><path d="m141.507 420.649-35.206-35.206c-13.75-13.75-13.75-36.043 0-49.792l9.848-9.848c2.183-2.183 5.721-2.183 7.904 0l18.153 18.153c2.183 2.183 2.183 5.721 0 7.904l-6.297 6.297c-2.835 2.835-2.835 7.431 0 10.266l22.619 22.619c2.835 2.835 7.431 2.835 10.266 0l6.297-6.297c2.183-2.183 5.721-2.183 7.904 0l18.153 18.153c2.183 2.183 2.183 5.721 0 7.904l-9.848 9.848c-13.751 13.748-36.043 13.748-49.793-.001z" fill="#918291"/></g><g><path d="m202.784 139.307c0 7.283-2.776 14.552-8.326 20.102l-25.322 25.323-27.247-9.778-12.944-30.426 25.309-25.323c11.102-11.102 29.102-11.102 40.204 0 5.55 5.552 8.326 12.821 8.326 20.102z" fill="#f5f8f9"/><path d="m169.135 184.732-25.111 25.124c-11.102 11.102-29.102 11.102-40.204 0-11.115-11.102-11.115-29.102 0-40.204l25.125-25.124z" fill="#ff7e7b"/></g><g><path d="m415.28 347.86v45.02l-15.899 7.418-16.961-7.418v-45.02z" fill="#f5f8f9"/><path d="m415.28 392.88v25.23c0 9.07-7.36 16.43-16.43 16.43s-16.43-7.36-16.43-16.43v-25.23z" fill="#0ed2b3"/><path d="m417.343 349.383h-36.986c-1.732 0-3.136-1.404-3.136-3.136v-22.524c0-1.732 1.404-3.136 3.136-3.136h36.986c1.732 0 3.136 1.404 3.136 3.136v22.524c-.001 1.732-1.404 3.136-3.136 3.136z" fill="#e8edf2"/></g></g><g><path d="m451.41 174.81c4.143 0 7.5-3.357 7.5-7.5v-80.14c0-10.3-8.38-18.68-18.68-18.68h-25.719v-23.49c0-24.813-20.188-45-45.003-45h-227.017c-24.814 0-45.003 20.187-45.003 45v23.49h-25.718c-10.3 0-18.68 8.38-18.68 18.68v154.73c0 10.295 8.38 18.67 18.68 18.67h25.719v20.859h-25.719c-10.3 0-18.68 8.38-18.68 18.681v24.479c0 4.143 3.357 7.5 7.5 7.5s7.5-3.357 7.5-7.5v-24.479c0-2.029 1.65-3.681 3.68-3.681h154.73c2.029 0 3.68 1.651 3.68 3.681v154.73c0 2.029-1.65 3.68-3.68 3.68h-154.73c-2.029 0-3.68-1.65-3.68-3.68v-95.25c0-4.143-3.357-7.5-7.5-7.5s-7.5 3.357-7.5 7.5v95.25c0 10.3 8.38 18.68 18.68 18.68h26.197c3.169 21.734 21.925 38.48 44.525 38.48h227.018c22.6 0 41.356-16.746 44.525-38.48h26.197c10.3 0 18.68-8.38 18.68-18.68v-154.73c0-10.301-8.38-18.681-18.68-18.681h-25.719v-20.859h25.719c10.3 0 18.68-8.375 18.68-18.67v-39.59c0-4.143-3.357-7.5-7.5-7.5s-7.5 3.357-7.5 7.5v39.59c0 2.023-1.65 3.67-3.68 3.67h-154.732c-2.029 0-3.68-1.646-3.68-3.67v-154.73c0-2.029 1.65-3.68 3.68-3.68h154.73c2.029 0 3.68 1.65 3.68 3.68v80.14c0 4.142 3.358 7.5 7.5 7.5zm-184.59-87.64v154.73c0 10.295 8.38 18.67 18.68 18.67h114.012v20.859h-114.012c-10.3 0-18.68 8.38-18.68 18.681v154.73c0 10.3 8.38 18.68 18.68 18.68h19.95c4.143 0 7.5-3.357 7.5-7.5s-3.357-7.5-7.5-7.5h-19.95c-2.029 0-3.68-1.65-3.68-3.68v-154.73c0-2.029 1.65-3.681 3.68-3.681h154.73c2.029 0 3.68 1.651 3.68 3.681v154.73c0 2.029-1.65 3.68-3.68 3.68h-99.78c-4.143 0-7.5 3.357-7.5 7.5s3.357 7.5 7.5 7.5h58.34c-2.986 13.417-14.977 23.48-29.281 23.48h-227.018c-14.304 0-26.295-10.064-29.281-23.48h113.29c10.3 0 18.68-8.38 18.68-18.68v-154.73c0-10.301-8.38-18.681-18.68-18.681h-114.012v-20.859h114.012c10.3 0 18.68-8.375 18.68-18.67v-154.73c0-10.3-8.38-18.68-18.68-18.68h-54.75c-4.143 0-7.5 3.357-7.5 7.5s3.357 7.5 7.5 7.5h54.75c2.029 0 3.68 1.65 3.68 3.68v154.73c0 2.023-1.65 3.67-3.68 3.67h-154.73c-2.029 0-3.68-1.646-3.68-3.67v-154.73c0-2.029 1.65-3.68 3.68-3.68h64.98c4.143 0 7.5-3.357 7.5-7.5s-3.357-7.5-7.5-7.5h-24.262v-23.49c0-16.542 13.459-30 30.003-30h227.018c16.544 0 30.003 13.458 30.003 30v23.49h-114.012c-10.3 0-18.68 8.38-18.68 18.68z"/><path d="m346.015 221.639h33.703c4.143 0 7.5-3.357 7.5-7.5v-25.256h25.256c4.143 0 7.5-3.357 7.5-7.5v-33.704c0-4.143-3.357-7.5-7.5-7.5h-25.256v-25.255c0-4.143-3.357-7.5-7.5-7.5h-33.703c-4.143 0-7.5 3.357-7.5 7.5v25.255h-25.256c-4.143 0-7.5 3.357-7.5 7.5v33.704c0 4.143 3.357 7.5 7.5 7.5h25.256v25.256c0 4.142 3.357 7.5 7.5 7.5zm-25.256-47.756v-18.704h25.256c4.143 0 7.5-3.357 7.5-7.5v-25.255h18.703v25.255c0 4.143 3.357 7.5 7.5 7.5h25.256v18.704h-25.256c-4.143 0-7.5 3.357-7.5 7.5v25.256h-18.703v-25.256c0-4.143-3.357-7.5-7.5-7.5z"/><path d="m147.509 338.651-18.152-18.152c-5.104-5.104-13.408-5.104-18.512 0l-9.848 9.848c-16.651 16.652-16.651 43.747 0 60.399l35.206 35.206c8.327 8.326 19.262 12.488 30.2 12.488 10.935 0 21.874-4.164 30.198-12.488l9.85-9.848c5.104-5.104 5.104-13.408-.001-18.512l-18.152-18.152c-5.104-5.104-13.408-5.104-18.512 0l-6.126 6.127-22.278-22.278 6.129-6.128c5.1-5.102 5.1-13.405-.002-18.51zm5.715 57.694c2.788 2.787 6.494 4.322 10.437 4.322s7.648-1.535 10.437-4.322l4.945-4.946 15.451 15.45-8.498 8.496c-10.802 10.803-28.381 10.805-39.185 0l-35.206-35.206c-10.804-10.803-10.804-28.382 0-39.185l8.496-8.497 15.451 15.45-4.947 4.945c-2.787 2.788-4.322 6.494-4.322 10.437s1.535 7.649 4.322 10.437z"/><path d="m351.002 418.113v-62.74c3.11-1.858 5.203-5.249 5.203-9.127v-22.523c0-5.864-4.771-10.636-10.636-10.636h-36.985c-5.864 0-10.636 4.771-10.636 10.636v22.523c0 3.878 2.094 7.268 5.203 9.127v62.74c0 13.192 10.733 23.925 23.926 23.925s23.925-10.732 23.925-23.925zm-32.851-61.23h17.851v28.493h-17.851zm-5.203-28.795h28.257v13.795h-28.257zm5.203 90.025v-17.737h17.851v17.737c0 4.921-4.004 8.925-8.925 8.925-4.922 0-8.926-4.004-8.926-8.925z"/><path d="m374.925 355.374v62.74c0 13.192 10.732 23.925 23.925 23.925s23.926-10.732 23.926-23.925v-62.74c3.11-1.858 5.203-5.249 5.203-9.127v-22.523c0-5.864-4.771-10.636-10.636-10.636h-36.985c-5.864 0-10.636 4.771-10.636 10.636v22.523c0 3.878 2.093 7.268 5.203 9.127zm32.85 1.509v28.493h-17.851v-28.493zm-8.925 70.155c-4.921 0-8.925-4.004-8.925-8.925v-17.737h17.851v17.737c-.001 4.921-4.005 8.925-8.926 8.925zm-14.128-98.95h28.257v13.795h-28.257z"/><path d="m98.134 164.388c-14.099 14.1-14.1 37.042 0 51.143v.001c7.051 7.05 16.312 10.574 25.571 10.574 9.261 0 18.521-3.524 25.572-10.574l50.856-50.857c14.1-14.101 14.099-37.043 0-51.142-6.83-6.831-15.912-10.593-25.571-10.593-9.66 0-18.742 3.762-25.572 10.592zm40.536 40.536c-8.25 8.251-21.679 8.253-29.929 0v.001c-8.25-8.253-8.251-21.68 0-29.93l20.023-20.024 29.928 29.929zm35.892-86.985c5.652 0 10.967 2.201 14.964 6.199 8.252 8.251 8.252 21.678 0 29.929l-20.226 20.226-29.929-29.929 20.226-20.226c3.998-3.997 9.312-6.199 14.965-6.199z"/><path d="m268.251 30h-50.004c-4.142 0-7.5 3.357-7.5 7.5s3.358 7.5 7.5 7.5h50.004c4.143 0 7.5-3.357 7.5-7.5s-3.357-7.5-7.5-7.5z"/><circle cx="293.76" cy="37.5" r="7.5"/></g></g></svg>