<svg id="Capa_1" enable-background="new 0 0 512.005 512.005" height="512" viewBox="0 0 512.005 512.005" width="512" xmlns="http://www.w3.org/2000/svg"><g id="XMLID_1213_"><g id="XMLID_1239_"><path id="XMLID_248_" d="m354 502.002h-304c-22.091 0-40-17.909-40-40v-372c0-22.091 17.909-40 40-40h304c22.091 0 40 17.909 40 40v372c0 22.092-17.909 40-40 40z" fill="#ffcd69"/></g><g id="XMLID_1236_"><path id="XMLID_242_" d="m232.064 34.002c-3.11-13.739-15.385-24-30.064-24s-26.954 10.261-30.064 24h-27.936c-4.971 0-9 4.029-9 9v51h134v-51c0-4.971-4.029-9-9-9z" fill="#33d6f5"/></g><g id="XMLID_1238_"><path d="m54 94.002h296v364h-296z" fill="#fff"/></g><g id="XMLID_1242_"><path id="XMLID_212_" d="m254 168.002h-30v-30h-44v30h-30v44h30v30h44v-30h30z" fill="#ff7d97"/></g><g id="XMLID_1278_"><g id="XMLID_1288_"><path id="XMLID_211_" d="m446.655 400.931c-2.009-8.335-6.413-16.208-13.222-22.523-17.232-15.981-44.191-15.981-61.422 0-6.809 6.315-11.214 14.189-13.222 22.523-1.595 6.616-6.193 12.037-12.354 14.927-15.663 7.348-26.422 23.41-26.016 41.948.524 23.931 19.933 43.485 43.86 44.176 9.77.282 18.864-2.539 26.375-7.549 7.289-4.862 16.85-4.862 24.139 0 7.51 5.01 16.604 7.831 26.375 7.549 23.926-.691 43.336-20.245 43.86-44.176.406-18.538-10.353-34.601-26.016-41.949-6.164-2.889-10.762-8.31-12.357-14.926z" fill="#ffc8b8"/></g><g id="XMLID_1287_"><ellipse id="XMLID_210_" cx="369.133" cy="335.123" fill="#ffc8b8" rx="32.73" ry="39.371"/></g><g id="XMLID_1286_"><ellipse id="XMLID_203_" cx="474.331" cy="387.087" fill="#ffc8b8" rx="32.309" ry="26.529" transform="matrix(.425 -.905 .905 .425 -77.749 651.726)"/></g><g id="XMLID_1283_"><ellipse id="XMLID_196_" cx="436.31" cy="335.123" fill="#ffc8b8" rx="32.73" ry="39.371"/></g><g id="XMLID_1280_"><ellipse id="XMLID_191_" cx="331.112" cy="387.087" fill="#ffc8b8" rx="26.529" ry="32.309" transform="matrix(.905 -.425 .425 .905 -133.2 177.598)"/></g></g><g id="XMLID_249_"><path id="XMLID_303_" d="m224 252.002c5.523 0 10-4.477 10-10v-20h20c5.523 0 10-4.477 10-10v-44c0-5.523-4.477-10-10-10h-20v-20c0-5.523-4.477-10-10-10h-44c-5.523 0-10 4.477-10 10v20h-20c-5.523 0-10 4.477-10 10v44c0 5.523 4.477 10 10 10h20v20c0 5.523 4.477 10 10 10zm-64-50v-24h20c5.523 0 10-4.477 10-10v-20h24v20c0 5.523 4.477 10 10 10h20v24h-20c-5.523 0-10 4.477-10 10v20h-24v-20c0-5.523-4.477-10-10-10z"/><path id="XMLID_305_" d="m141.283 282.931-13.929 13.929-4.054-4.054c-3.905-3.905-10.237-3.905-14.143 0s-3.905 10.237 0 14.143l11.125 11.125c1.953 1.953 4.512 2.929 7.071 2.929s5.119-.976 7.071-2.929l21-21c3.905-3.905 3.905-10.237 0-14.143s-10.236-3.905-14.141 0z"/><path id="XMLID_306_" d="m287.771 301.002h-102.667c-5.523 0-10 4.477-10 10s4.477 10 10 10h102.667c5.523 0 10-4.477 10-10s-4.477-10-10-10z"/><path id="XMLID_307_" d="m141.283 351.931-13.929 13.929-4.054-4.054c-3.905-3.905-10.237-3.905-14.143 0s-3.905 10.237 0 14.143l11.125 11.125c1.953 1.953 4.512 2.929 7.071 2.929s5.119-.976 7.071-2.929l21-21c3.905-3.905 3.905-10.237 0-14.143s-10.236-3.905-14.141 0z"/><path id="XMLID_315_" d="m236.438 370.002h-51.333c-5.523 0-10 4.477-10 10s4.477 10 10 10h51.333c5.523 0 10-4.477 10-10s-4.478-10-10-10z"/><path id="XMLID_586_" d="m510.719 371.934c-2.688-10.609-9.22-18.827-18.392-23.138-4.566-2.145-9.424-3.113-14.299-3.026.656-3.431 1.012-6.991 1.012-10.647 0-27.223-19.168-49.371-42.729-49.371-12.897 0-24.469 6.646-32.311 17.118v-212.868c0-27.57-22.43-50-50-50h-75.261c-1.446-9.053-9.286-16-18.739-16h-20.776c-6.471-14.455-20.813-24-37.224-24s-30.753 9.545-37.224 24h-20.776c-9.453 0-17.294 6.947-18.739 16h-75.261c-27.57 0-50 22.43-50 50v372c0 27.57 22.43 50 50 50h316.101c.071 0-.07-.009 0-.01 10.734-.111 21.167-3.28 30.1-9.239 3.899-2.601 9.14-2.603 13.041 0 9.547 6.369 20.678 9.564 32.213 9.226 29.395-.849 52.925-24.547 53.568-53.953.262-11.983-3.381-23.44-9.984-32.877.282-.126-.281.134 0 0 9.215-4.383 17.699-12.625 22.351-22.524 4.653-9.9 5.836-20.799 3.329-30.691zm-118.857-36.811c0 16.195-10.196 29.371-22.729 29.371s-22.73-13.176-22.73-29.371 10.197-29.371 22.73-29.371 22.729 13.176 22.729 29.371zm-45.791 44.934c2.65 5.638 3.394 11.934 2.042 17.271-1.19 4.699-3.858 8.231-7.512 9.949-3.654 1.716-8.076 1.516-12.454-.565-4.973-2.365-9.344-6.956-11.994-12.594-2.65-5.639-3.394-11.934-2.042-17.271 1.19-4.699 3.858-8.232 7.512-9.949 1.656-.778 3.438-1.146 5.273-1.146 7.153-.001 15.082 5.595 19.175 14.305zm90.24-74.305c12.533 0 22.729 13.176 22.729 29.371s-10.196 29.371-22.729 29.371-22.73-13.176-22.73-29.371 10.196-29.371 22.73-29.371zm-52.311-215.75v198.838c-4.633-1.993-9.641-3.088-14.867-3.088-3.135 0-6.188.403-9.133 1.147v-63.128c0-5.523-4.477-10-10-10s-10 4.477-10 10v75.281c-8.358 9.017-13.597 21.847-13.597 36.07 0 3.656.356 7.215 1.012 10.647-4.874-.086-9.733.881-14.298 3.027-9.173 4.311-15.705 12.528-18.393 23.138-2.506 9.892-1.324 20.791 3.329 30.69 4.652 9.899 13.136 18.141 22.351 22.524.281.134-.282-.126 0 0-4.732 6.764-7.947 14.563-9.288 22.854h-247.116v-344h276v29.77c0 5.523 4.477 10 10 10s10-4.477 10-10v-39.77c0-5.523-4.477-10-10-10h-71v-24h75c16.542 0 30 13.458 30 30zm-212.064-46c4.672 0 8.722-3.235 9.753-7.792 2.125-9.391 10.667-16.208 20.311-16.208s18.185 6.816 20.311 16.208c1.032 4.557 5.081 7.792 9.753 7.792h26.936v40h-114v-40zm-151.936 418v-372c0-16.542 13.458-30 30-30h75v24h-71c-5.523 0-10 4.477-10 10v364c0 5.523 4.477 10 10 10h257.555c1.849 8.994 5.87 17.189 11.508 24h-273.063c-16.542 0-30-13.458-30-30zm420.877 29.985c-7.363.208-14.458-1.817-20.536-5.872-10.703-7.139-24.534-7.14-35.239 0-6.077 4.054-13.183 6.078-20.536 5.872-18.74-.542-33.741-15.651-34.151-34.399-.305-13.932 7.65-26.758 20.265-32.676 9.038-4.24 15.537-12.126 17.83-21.638 1.621-6.725 5.183-12.788 10.3-17.535 6.705-6.218 15.307-9.326 23.912-9.326 8.603 0 17.208 3.109 23.911 9.326 5.118 4.747 8.68 10.81 10.3 17.534 2.292 9.511 8.791 17.397 17.829 21.637 12.616 5.918 20.57 18.745 20.266 32.677-.41 18.749-15.411 33.859-34.151 34.4zm48.413-97.869c-2.65 5.638-7.021 10.229-11.994 12.594-4.377 2.083-8.801 2.282-12.454.565-3.654-1.717-6.321-5.25-7.512-9.949-1.353-5.338-.608-11.633 2.042-17.271 5.143-10.944 16.337-16.972 24.448-13.16 3.653 1.717 6.321 5.25 7.512 9.949 1.352 5.338.608 11.633-2.042 17.272z"/><path id="XMLID_1093_" d="m350 168.772c-2.63 0-5.21 1.07-7.07 2.93s-2.93 4.44-2.93 7.07 1.07 5.21 2.93 7.07 4.44 2.93 7.07 2.93 5.21-1.07 7.07-2.93 2.93-4.44 2.93-7.07-1.07-5.21-2.93-7.07-4.44-2.93-7.07-2.93z"/></g></g></svg>