<svg id="Layer_1" enable-background="new 0 0 512 512" viewBox="0 0 512 512" xmlns="http://www.w3.org/2000/svg"><g><g><g><path d="m508.7 246.8c-6.8-14.7-27.2-17.6-38.2-5.3 0 0-27.4 28.7-27.4 28.7-20.9 21.9-47.3 49.5-62.5 65.6-7.2 7.4-16.8 11.9-27 12.6l-111.9 7.6 40.9-31.2c.6-.5 1.6-1 2.8-1.4l26.7-7.7c18.5-5.2 37.2-31.3 23.7-49.1-5.3-6.5-14.1-9.2-22-6.9 0 0-49.4 14.3-49.4 14.3-.2.1-.5.1-.7.3 0 0-33.6 14-33.6 14-21.8 10.1-45.6 17-66.2 29.2-26.1 21-104.5 107.1-161.4 174.5-3 3.3-.4 9.1 4.1 8.9h156.7c1.8 0 3.5-.9 4.5-2.3 0 0 8-11.7 8-11.7 6.3-9.3 15.8-16.2 26.6-19.4l206.1-61.5c5.5-1.6 10.4-5.1 13.7-10.1l84.8-126.2c4.7-6.9 5.3-15.5 1.7-22.9zm-10.7 16.8-84.8 126.1c-1.9 2.9-4.7 4.9-7.8 5.8l-206.4 61.3c-17.4 4.7-29.7 18.1-38.8 33h-142.1c66.4-75.7 127.8-147.6 158.7-167.8 28.6-12 61.8-25.8 90.6-37.9 0 0 49.3-14.2 49.3-14.2 6.5-2.1 13.7 3.8 12.7 10.7-1 10.4-10.4 21.7-20.5 24.5-4.8 1.8-29.9 7.4-33.2 11.2 0 0-55 41.9-55 41.9-4.2 3-1.6 10.2 3.6 9.7 0 0 130-8.8 130-8.8 12.9-.9 25-6.5 34.1-15.9 22.8-24 63.1-66.1 89.9-94.2 10.3-11.6 28.2 1.8 19.7 14.6z"/></g></g><g><g><path d="m498 263.6-84.8 126.1c-1.9 2.9-4.7 4.9-7.8 5.8l-206.4 61.3c-17.4 4.7-29.7 18.1-38.8 33h-142.1c66.4-75.7 127.8-147.6 158.7-167.8 28.6-12 61.8-25.8 90.6-37.9 0 0 49.3-14.2 49.3-14.2 6.5-2.1 13.7 3.8 12.7 10.7-1 10.4-10.4 21.7-20.5 24.5-4.8 1.8-29.9 7.4-33.2 11.2 0 0-55 41.9-55 41.9-4.2 3-1.6 10.2 3.6 9.7 0 0 130-8.8 130-8.8 12.9-.9 25-6.5 34.1-15.9 22.8-24 63.1-66.1 89.9-94.2 10.3-11.6 28.2 1.8 19.7 14.6z" fill="#fed2a4"/></g></g><g><g><path d="m463.7 56.9c-1.7-3.3-6.8-3.8-9-.7-7.3 9.4-15.4 17.8-24.3 25-21.9 17.8-39.8 23.1-57.9 29-19.8-38.4-64.9-61.2-111.8-55.5-1.7.2-3.1 1.1-4 2.6-.9 1.4-1 3.1-.4 4.7 3.6 9.3 6.2 19 7.7 28.7 3.2 20.6 1 35.2-1.1 48.1-10.3 44.1 15.4 71.9 64.5 95.6l.1.1c114.6 37.8 191.2-70.6 136.2-177.6zm-136 84.8c-2.4-8-14.9-48.7-25.4-43.8-1.9 1-2.7 3.6-2.3 5.8 9 18.5 19.6 37.5 20.2 58.8-1.6 19-1.6 38 1.9 56.9-32.5-16.7-56.9-37.7-48.3-77.5 3.8-25.7 3.2-51.6-4.6-76.5 15-5.6 39.7 3.7 53 10.6 16.5 8.5 30.8 21.5 40.2 37.6-14.6 4.6-27.2 14.9-34.7 28.1zm95.6 76.6c-25.3 14.9-57.2 15.7-85.5 7.9 15.6-49.6 76.9-62.5 105.8-101.7 4.6-5.1 1.8-11.3-5.2-9-2.6 1.1-4.4 3.5-6.2 5.7-28.4 34.7-81.5 47.4-100 90.7-6-28.3-5.3-67.6 23.3-83.3 10.4-5.7 22.2-8.5 33.4-12.4 26.5-9.4 50.6-25.7 69.1-46.8 23.5 49.9 15.9 119.3-34.7 148.9z"/></g></g><g><g><path d="m468.8 151.2c-12.3 63.4-70.6 92.7-130.9 75.1 15.6-49.6 76.9-62.5 105.8-101.7 4.6-5.1 1.8-11.3-5.2-9-2.6 1.1-4.4 3.5-6.2 5.7-28.4 34.7-81.5 47.4-100 90.7-6-28.3-5.3-67.6 23.3-83.3 10.4-5.7 22.2-8.5 33.4-12.4 26.5-9.4 50.6-25.7 69.1-46.8 11.1 25.5 16 54.3 10.7 81.7z" fill="#ee8dc5"/></g></g><g><g><path d="m362.4 113.7c-14.5 4.5-27.2 14.8-34.7 28-2.4-8-14.9-48.7-25.4-43.8-1.9 1-2.7 3.6-2.3 5.8 9 18.5 19.6 37.5 20.2 58.8-1.6 19-1.6 38 1.9 56.9-32.5-16.7-56.9-37.7-48.3-77.5 3.8-25.7 3.2-51.6-4.6-76.5 15-5.6 39.7 3.7 53 10.6 16.5 8.6 30.8 21.6 40.2 37.7z" fill="#ee8dc5"/></g></g><g><g><path d="m103.5 54.1c-20.6 0-37.3-16.7-37.3-37.3-.1-7.1-10.7-7.1-10.8 0 0 20.6-16.8 37.3-37.3 37.3-7.1.1-7.1 10.7 0 10.8 20.6 0 37.3 16.8 37.3 37.3.1 7.1 10.7 7.1 10.8 0 0-20.6 16.7-37.3 37.3-37.3 7.1-.1 7.2-10.7 0-10.8zm-42.7 26c-4.6-8.8-11.8-16-20.6-20.6 8.8-4.5 16-11.8 20.6-20.6 4.5 8.8 11.8 16 20.6 20.6-8.8 4.6-16.1 11.8-20.6 20.6z"/></g></g><g><g><path d="m81.3 59.5c-8.8 4.6-16 11.8-20.6 20.6-4.6-8.8-11.8-16-20.6-20.6 8.8-4.5 16-11.8 20.6-20.6 4.6 8.8 11.9 16 20.6 20.6z" fill="#9473c5"/></g></g><g><g><path d="m85.1 306.8c-10.4 0-18.9-8.5-18.9-18.9-.1-7.1-10.7-7.1-10.8 0 0 10.4-8.5 18.9-18.9 18.9-7.1.1-7.1 10.7 0 10.8 10.4 0 18.9 8.5 18.9 18.9 0 7.1 10.8 7.1 10.8 0 0-10.4 8.5-18.9 18.9-18.9 7.1-.1 7.2-10.7 0-10.8zm-24.3 12.7c-2-2.8-4.4-5.3-7.3-7.3 2.8-1.9 5.3-4.4 7.3-7.3 1.9 2.8 4.4 5.3 7.3 7.3-2.9 2-5.4 4.4-7.3 7.3z"/></g></g><g><g><path d="m68 312.2c-2.8 2-5.3 4.4-7.3 7.3-2-2.8-4.4-5.3-7.3-7.3 2.8-1.9 5.3-4.4 7.3-7.3 2 2.9 4.5 5.3 7.3 7.3z" fill="#9473c5"/></g></g><g><g><path d="m387.3 29.7c-7.1 0-12.9-5.7-12.9-12.9 0-3-2.4-5.4-5.4-5.4s-5.4 2.4-5.4 5.4c0 7.1-5.8 12.9-12.9 12.9-7.1.1-7.1 10.7 0 10.8 7.1 0 12.9 5.8 12.9 12.9.1 7.1 10.7 7.1 10.8 0 0-7.1 5.7-12.9 12.9-12.9 7.1-.1 7.1-10.7 0-10.8zm-18.3 8.7c-1-1.1-2.1-2.3-3.2-3.2 1.1-1 2.2-2.1 3.2-3.2 1 1.2 2.1 2.3 3.2 3.2-1.1.9-2.2 2-3.2 3.2z"/></g></g><g><g><path d="m372.2 35.1c-1.1 1-2.2 2.1-3.2 3.2-1-1.1-2.1-2.3-3.2-3.2 1.1-1 2.2-2.1 3.2-3.2 1 1.2 2.1 2.2 3.2 3.2z" fill="#9473c5"/></g></g><g><g><path d="m488.1 450.6c-13.3 0-24-10.8-24-24 0-7.1-10.8-7.1-10.8 0 0 13.3-10.8 24-24.1 24-7.1.1-7.1 10.7 0 10.8 13.3 0 24.1 10.8 24.1 24.1.1 7.1 10.7 7.1 10.8 0 0-13.3 10.8-24.1 24-24.1 7.1 0 7.1-10.8 0-10.8zm-29.5 16.2c-2.8-4.3-6.5-8.1-10.8-10.8 4.3-2.8 8.1-6.4 10.8-10.8 2.8 4.4 6.4 8.1 10.8 10.8-4.3 2.7-8 6.5-10.8 10.8z"/></g></g><g><g><circle cx="458.6" cy="456" fill="#9473c5" r="10.8"/></g></g><g><g><path d="m193.5 162.1h-33.1v-33.1c0-3-2.4-5.4-5.4-5.4h-28.9c-3 0-5.4 2.4-5.4 5.4v33.1h-33.1c-3 0-5.4 2.4-5.4 5.4v28.9c0 3 2.4 5.4 5.4 5.4h33.1v33.1c0 3 2.4 5.4 5.4 5.4h28.9c3 0 5.4-2.4 5.4-5.4v-33.1h33.1c3 0 5.4-2.4 5.4-5.4v-28.9c0-3-2.4-5.4-5.4-5.4zm-5.4 28.9h-33.1c-3 0-5.4 2.4-5.4 5.4v33.1h-18.1v-33.1c0-3-2.4-5.4-5.4-5.4h-33.1v-18.1h33.1c3 0 5.4-2.4 5.4-5.4v-33.1h18.1v33.1c0 3 2.4 5.4 5.4 5.4h33.1z"/></g></g><g><g><path d="m188.1 172.9v18.1h-33.1c-3 0-5.4 2.4-5.4 5.4v33.1h-18.1v-33.1c0-3-2.4-5.4-5.4-5.4h-33.1v-18.1h33.1c3 0 5.4-2.4 5.4-5.4v-33.1h18.1v33.1c0 3 2.4 5.4 5.4 5.4z" fill="#9473c5"/></g></g><g><g><path d="m140.6 90.9c-33.6 0-63.7 18.1-79.6 47-.3-8.1-11.8-7.6-10.9.5 0 0 3.1 17.5 3.1 17.5.3 1.7 1.4 3.1 2.9 3.9s3.3.8 4.9 0c0 0 16-8 16-8 7.1-4.2.4-13.7-6.3-8.9 40.5-71.6 149.3-43.4 150.1 39.1.1 7.1 10.7 7.1 10.8 0 0-50.2-40.8-91.1-91-91.1z"/></g></g><g><g><path d="m220.8 225.1c.7 7.6 11.9 6.3 10.8-1.2 0 0-3.1-17.5-3.1-17.5-.5-3.5-4.7-5.5-7.8-3.9 0 0-16 8-16 8-6.3 3.2-1.5 12.8 4.9 9.7 0 0 2.2-1.1 2.2-1.1-39.3 73.7-150.6 46.6-151.5-37.1 0-3-2.4-5.4-5.4-5.4s-5.4 2.4-5.4 5.4c1 94.5 126.2 125.7 171.3 43.1z"/></g></g></g></svg>