<svg id="Capa_1" enable-background="new 0 0 512 512" height="512" viewBox="0 0 512 512" width="512" xmlns="http://www.w3.org/2000/svg"><g><g><path d="m503.5 289.028c0 13.531-11.008 24.54-24.54 24.54h-189.857v106.646h189.857c14.105 0 25.54-11.434 25.54-25.54v-105.646z" fill="#efe2dd"/></g><g><path d="m503.5 289.028c0 13.531-11.008 24.54-24.54 24.54h-43.96v81.106c0 14.105-11.434 25.54-25.54 25.54h69.5c14.105 0 25.54-11.434 25.54-25.54v-105.646z" fill="#e1d3ce"/></g><g><path d="m478.96 29.57h-394.379c-14.105 0-25.54 11.434-25.54 25.54v63.093h210.629c10.715 0 19.432 8.717 19.432 19.432v176.933h189.858c14.105 0 25.54-11.434 25.54-25.54v-233.919c0-14.105-11.434-25.539-25.54-25.539z" fill="#b9acac"/></g><g><path d="m478.96 29.57h-69.5c14.105 0 25.54 11.434 25.54 25.54v233.918c0 14.105-11.434 25.54-25.54 25.54h69.5c14.105 0 25.54-11.434 25.54-25.54v-233.919c0-14.105-11.434-25.539-25.54-25.539z" fill="#9e9797"/></g><g><path d="m469.455 59.506h-375.369c-2.821 0-5.108 2.287-5.108 5.108v53.588h180.692c10.715 0 19.432 8.717 19.432 19.432v146.996h180.353c2.821 0 5.108-2.287 5.108-5.108v-214.908c0-2.821-2.287-5.108-5.108-5.108z" fill="#918291"/></g><g><path d="m469.455 59.506h-34.455v225.124h34.455c2.821 0 5.108-2.287 5.108-5.108v-214.908c0-2.821-2.287-5.108-5.108-5.108z" fill="#7a6d79"/></g><g><path d="m425.467 224.757h-136.364v29.937h136.365c8.267 0 14.968-6.702 14.968-14.968s-6.702-14.969-14.969-14.969z" fill="#fd4755"/></g><g><path d="m425.467 224.757h-31.103c8.267 0 14.968 6.702 14.968 14.968s-6.702 14.968-14.968 14.968h31.103c8.267 0 14.968-6.702 14.968-14.968s-6.701-14.968-14.968-14.968z" fill="#fb2b3a"/></g><g><path d="m289.103 224.757h75.951v29.937h-75.951z" fill="#ffe177"/></g><g><path d="m289.103 224.757h35.31v29.937h-35.31z" fill="#26a6fe"/></g><g><path d="m409.647 93.634c-10.454 0-19.858 4.856-26.391 12.593-6.533-7.737-15.937-12.593-26.391-12.593-.525 0-1.048.012-1.567.036-26.542 1.239-38.864 33.706-20.414 52.825l46.166 47.841c1.205 1.249 3.206 1.249 4.411 0l46.166-47.841c18.451-19.12 6.128-51.587-20.414-52.825-.518-.024-1.041-.036-1.566-.036z" fill="#fd4755"/></g><g><g><path d="m411.214 93.671c-.52-.024-1.042-.036-1.567-.036-6.728 0-13.015 2.02-18.388 5.516 14.498 10.291 18.408 32.717 4.292 47.346l-30.333 31.433 15.833 16.407c1.205 1.249 3.206 1.249 4.411 0l46.166-47.841c18.451-19.12 6.128-51.587-20.414-52.825z" fill="#fb2b3a"/></g></g><g><g><path d="m7.5 461.999v-324.365c0-11.284 9.148-20.432 20.432-20.432h241.739c11.284 0 20.432 9.148 20.432 20.432v324.365c0 11.284-9.148 20.432-20.432 20.432h-241.739c-11.284-.001-20.432-9.148-20.432-20.432z" fill="#fe646f"/></g><g><path d="m269.671 117.203h-62.5c11.284 0 20.432 9.148 20.432 20.432v324.365c0 11.284-9.148 20.432-20.432 20.432h62.5c11.284 0 20.432-9.148 20.432-20.432v-324.366c0-11.284-9.148-20.431-20.432-20.431z" fill="#fd4755"/></g><g><path d="m175.744 118.202v-2.627c0-14.88-12.063-26.943-26.943-26.943-14.88 0-26.943 12.063-26.943 26.943v2.627z" fill="#ffd15b"/></g><g><path d="m148.801 88.632c-3.698 0-7.221.746-10.429 2.094 9.701 4.076 16.514 13.666 16.514 24.849v2.627h20.858v-2.627c0-14.88-12.062-26.943-26.943-26.943z" fill="#ffc344"/></g><g><path d="m255.058 147.139h-53.822c-2.382 6.491-8.605 11.144-15.912 11.144h-73.046c-7.307 0-13.53-4.653-15.912-11.144h-53.821c-2.821 0-5.108 2.287-5.108 5.108v295.139c0 2.821 2.287 5.108 5.108 5.108h212.513c2.821 0 5.108-2.287 5.108-5.108v-295.139c0-2.821-2.287-5.108-5.108-5.108z" fill="#fff"/></g><g><path d="m72.163 274.071h153.276v104.18h-153.276z" fill="#ffdfcf"/></g><g><path d="m255.058 147.139h-27.455v305.354h27.455c2.821 0 5.108-2.287 5.108-5.108v-295.138c0-2.821-2.287-5.108-5.108-5.108z" fill="#f9f3f1"/></g><g><g><path d="m72.163 199.997h153.276v74.074h-153.276z" fill="#d8ecfe"/></g><g><path d="m194.276 199.997h31.163v74.074h-31.163z" fill="#c4e2ff"/></g><g><path d="m194.276 274.071h31.163v104.18h-31.163z" fill="#ffcebf"/></g></g><g><path d="m185.324 159.283h-73.046c-9.92 0-17.962-8.042-17.962-17.962v-24.118h108.97v24.118c0 9.92-8.042 17.962-17.962 17.962z" fill="#ffe177"/></g><g><path d="m172 117.203v24.118c0 9.92-8.042 17.962-17.962 17.962h31.286c9.92 0 17.962-8.042 17.962-17.962v-24.118z" fill="#ffd15b"/></g></g><g><g><circle cx="455.404" cy="363.364" fill="#26a6fe" r="19.159"/></g><g><path d="m455.404 344.204c-2.773 0-5.402.602-7.782 1.662 6.7 2.985 11.378 9.69 11.378 17.498s-4.678 14.513-11.378 17.498c2.38 1.06 5.008 1.662 7.782 1.662 10.581 0 19.159-8.578 19.159-19.159 0-10.583-8.578-19.161-19.159-19.161z" fill="#0593fc"/></g></g><g><path d="m478.96 22.069h-299.96c-4.142 0-7.5 3.357-7.5 7.5s3.358 7.5 7.5 7.5h299.96c9.947 0 18.04 8.093 18.04 18.04v233.918c0 9.947-8.093 18.04-18.04 18.04h-181.357v-14.937h171.853c6.952 0 12.608-5.656 12.608-12.608v-214.908c0-6.952-5.656-12.608-12.608-12.608h-375.37c-6.952 0-12.608 5.656-12.608 12.608v45.088h-14.936v-54.593c0-9.947 8.092-18.04 18.039-18.04h59.419c4.142 0 7.5-3.357 7.5-7.5s-3.358-7.5-7.5-7.5h-59.419c-18.218 0-33.039 14.821-33.039 33.04v54.593h-23.61c-15.402 0-27.932 12.53-27.932 27.932v324.365c0 15.401 12.53 27.932 27.932 27.932h241.739c15.401 0 27.932-12.53 27.932-27.932v-34.286h31.397c4.142 0 7.5-3.357 7.5-7.5s-3.358-7.5-7.5-7.5h-31.397v-90.646h181.357c6.653 0 12.849-1.983 18.04-5.38v77.987c0 9.947-8.092 18.039-18.04 18.039h-114.96c-4.142 0-7.5 3.357-7.5 7.5s3.358 7.5 7.5 7.5h114.96c18.218 0 33.04-14.821 33.04-33.039v-339.565c0-18.218-14.821-33.04-33.04-33.04zm-196.357 439.93c0 7.131-5.801 12.932-12.932 12.932h-241.739c-7.13 0-12.932-5.801-12.932-12.932v-324.365c0-7.131 5.801-12.932 12.932-12.932h58.885v14.938h-44.273c-6.952 0-12.608 5.655-12.608 12.607v121.753c0 4.143 3.358 7.5 7.5 7.5s7.5-3.357 7.5-7.5v-119.36h45.652c4.486 7.279 12.53 12.144 21.69 12.144h73.046c9.16 0 17.204-4.864 21.69-12.144h45.652v290.354h-207.729v-135.994c0-4.143-3.358-7.5-7.5-7.5s-7.5 3.357-7.5 7.5v138.386c0 6.952 5.656 12.608 12.608 12.608h212.514c6.952 0 12.608-5.656 12.608-12.608v-295.139c0-6.952-5.656-12.607-12.608-12.607h-44.272v-14.938h58.885c7.13 0 12.932 5.801 12.932 12.932v324.365zm-86.817-337.297v16.619c0 5.769-4.693 10.462-10.462 10.462h-73.046c-5.769 0-10.462-4.693-10.462-10.462v-16.619zm-65.521-15c2.496-7.859 9.862-13.57 18.537-13.57s16.041 5.711 18.537 13.57zm139.406 0h-86.938c-2.797-16.203-16.943-28.57-33.932-28.57s-31.135 12.367-33.932 28.57h-18.39v-42.696h370.585v210.125h-169.461v-14.938h127.865c12.389 0 22.468-10.079 22.468-22.468 0-12.39-10.079-22.469-22.468-22.469h-127.865v-79.623c0-15.401-12.531-27.931-27.932-27.931zm27.932 137.491v-14.937h19.31v14.937zm34.309 0v-14.937h25.642v14.937zm40.642 0v-14.937h52.914c4.118 0 7.468 3.351 7.468 7.469s-3.35 7.468-7.468 7.468z"/><path d="m375.653 199.544c1.98 2.053 4.751 3.229 7.603 3.229s5.623-1.177 7.603-3.229l46.166-47.841c10.736-11.126 13.839-27.009 8.099-41.452-5.622-14.146-18.481-23.369-33.558-24.073-.636-.029-1.276-.045-1.919-.045-9.602 0-18.884 3.429-26.391 9.596-7.507-6.167-16.789-9.596-26.391-9.596-.644 0-1.283.016-1.917.045-15.079.704-27.938 9.928-33.56 24.073-5.74 14.443-2.637 30.326 8.099 41.452zm-40.325-83.752c3.469-8.729 11.065-14.197 20.322-14.629.403-.02.808-.029 1.215-.029 7.915 0 15.252 3.527 20.66 9.933 1.425 1.688 3.521 2.661 5.73 2.661s4.306-.974 5.73-2.661c5.408-6.405 12.745-9.933 20.66-9.933.407 0 .812.01 1.218.029 9.254.432 16.851 5.9 20.32 14.629 2.771 6.973 2.925 17.332-4.954 25.496l-42.975 44.534-42.975-44.534c-7.876-8.164-7.722-18.523-4.951-25.496z"/><path d="m72.163 421.844h153.276c4.142 0 7.5-3.357 7.5-7.5s-3.358-7.5-7.5-7.5h-153.276c-4.142 0-7.5 3.357-7.5 7.5s3.358 7.5 7.5 7.5z"/><path d="m72.163 385.751h153.276c4.142 0 7.5-3.357 7.5-7.5v-178.254c0-4.143-3.358-7.5-7.5-7.5h-153.276c-4.142 0-7.5 3.357-7.5 7.5v178.254c0 4.143 3.358 7.5 7.5 7.5zm145.776-15h-34.36v-19.727h34.36zm0-34.727h-34.36v-19.727h34.36zm0-34.726h-34.36v-19.727h34.36zm-138.276-93.801h138.276v18.529h-30.543c-2.38 0-4.619 1.13-6.033 3.045l-8.115 10.989-7.231-9.792c-1.401-1.898-3.615-3.026-5.974-3.045h-.059c-2.337 0-4.543 1.09-5.962 2.95l-7.702 10.093-17.925-23.823c-1.424-1.893-3.635-3.018-6.027-2.991-2.368.011-4.593 1.14-6 3.045l-11.458 15.517h-25.247zm0 39.517h29.032c2.38 0 4.619-1.13 6.033-3.045l7.729-10.467 17.826 23.692c1.412 1.876 3.62 2.983 5.968 2.991h.025c2.338 0 4.543-1.091 5.962-2.95l7.646-10.02 7.329 9.925c1.414 1.915 3.653 3.045 6.033 3.045s4.619-1.13 6.033-3.045l11.9-16.114h26.758v25.545h-138.274zm0 34.557h88.916v19.727h-88.916zm0 34.727h88.916v19.727h-88.916zm0 34.726h88.916v19.727h-88.916z"/><path d="m482.063 363.364c0-14.7-11.959-26.66-26.66-26.66s-26.66 11.96-26.66 26.66 11.959 26.659 26.66 26.659 26.66-11.959 26.66-26.659zm-38.319 0c0-6.43 5.23-11.66 11.66-11.66s11.66 5.23 11.66 11.66c0 6.429-5.23 11.659-11.66 11.659s-11.66-5.23-11.66-11.659z"/><path d="m407.505 357.093c4.142 0 7.5-3.357 7.5-7.5s-3.358-7.5-7.5-7.5h-13.611c-4.142 0-7.5 3.357-7.5 7.5s3.358 7.5 7.5 7.5z"/><path d="m369.589 357.093c4.142 0 7.5-3.357 7.5-7.5s-3.358-7.5-7.5-7.5h-13.611c-4.142 0-7.5 3.357-7.5 7.5s3.358 7.5 7.5 7.5z"/><path d="m318.061 357.093h13.611c4.142 0 7.5-3.357 7.5-7.5s-3.358-7.5-7.5-7.5h-13.611c-4.142 0-7.5 3.357-7.5 7.5s3.358 7.5 7.5 7.5z"/><path d="m318.061 384.635h89.444c4.142 0 7.5-3.357 7.5-7.5s-3.358-7.5-7.5-7.5h-89.444c-4.142 0-7.5 3.357-7.5 7.5s3.358 7.5 7.5 7.5z"/></g></g></svg>