<svg enable-background="new 0 0 256 256" height="512" viewBox="0 0 256 256" width="512" xmlns="http://www.w3.org/2000/svg"><g id="Layer_32"><g><g><path d="m118.477 177.035-47.853.337c-1.933.014-3.49 1.592-3.477 3.525v66.544h54.856v-66.929c-.013-1.934-1.592-3.49-3.526-3.477z" fill="#70d6f9"/></g><g><path d="m72.391 177.36-.065-9.309c-.013-1.914 1.527-3.477 3.441-3.49l37.389-.263c1.914-.013 3.477 1.527 3.49 3.441l.065 9.309z" fill="#dae6f1"/></g><g><path d="m6.339 79.446c3.169-1.616 7.056-.609 9.033 2.348 10.471 15.66 20.056 23.975 20.056 23.975.623-1.526 2.445-2.819 6.009-3.676 5.457-1.312 10.938 1.194 14.235 5.736 2.652 3.654 7.225 2.886 12.666 3.107 5.237.219 10.285 2.018 14.481 5.16l2.388 1.789c7.091 5.312 13.021 12.05 17.2 19.863 3.75 7.013 7.315 16.191 8.114 26.569l-33.326.234c-.528-3.532-1.698-6.72-2.917-9.256-1.729-3.595-4.538-6.553-7.998-8.539-4.173-2.395-9.406-3.761-14.508-4.519-11.116-1.651-20.877-8.272-26.754-17.85l-21.478-34.998c-2.145-3.496-.855-8.079 2.799-9.943z" fill="#f9d0b4"/></g><g><path d="m185.376 177.372-47.853-.337c-1.934-.014-3.513 1.543-3.526 3.477v66.929h54.856v-66.544c.013-1.933-1.544-3.511-3.477-3.525z" fill="#70d6f9"/></g><g><path d="m183.609 177.36.065-9.309c.013-1.914-1.527-3.477-3.441-3.49l-37.389-.263c-1.914-.013-3.477 1.527-3.49 3.441l-.065 9.309z" fill="#dae6f1"/></g><g><path d="m249.661 79.446c-3.169-1.616-7.056-.609-9.033 2.348-10.471 15.66-20.056 23.975-20.056 23.975-.623-1.526-2.445-2.819-6.009-3.676-5.457-1.312-10.938 1.194-14.235 5.736-2.652 3.654-7.225 2.886-12.666 3.107-5.237.219-10.285 2.018-14.481 5.16l-2.388 1.789c-7.091 5.312-13.021 12.05-17.2 19.863-3.75 7.013-7.315 16.191-8.114 26.569l33.326.234c.528-3.532 1.698-6.72 2.917-9.256 1.729-3.595 4.538-6.553 7.998-8.539 4.173-2.395 9.406-3.761 14.508-4.519 11.116-1.651 20.877-8.272 26.754-17.85l21.477-34.999c2.146-3.495.856-8.078-2.798-9.942z" fill="#f9d0b4"/></g><g><path d="m175.699 23.357c-11.94-10.03-29.75-8.713-40.776 2.314l-4.557 4.557c-1.387 1.387-3.635 1.387-5.021 0l-4.557-4.557c-11.027-11.027-28.836-12.345-40.776-2.314-13.604 11.428-14.262 31.762-1.973 44.051l46.242 46.242c1.975 1.975 5.176 1.975 7.15 0l46.242-46.242c12.287-12.29 11.63-32.623-1.974-44.051z" fill="#fc657e"/></g><g><path d="m142.677 59.161h-7.276c-.573 0-1.037-.464-1.037-1.037v-7.275c0-3.4-2.485-6.436-5.87-6.759-3.883-.371-7.15 2.673-7.15 6.479v7.555c0 .573-.464 1.037-1.037 1.037h-7.275c-3.4 0-6.436 2.485-6.759 5.87-.371 3.883 2.673 7.15 6.479 7.15h7.555c.573 0 1.037.464 1.037 1.037v7.276c0 3.4 2.485 6.436 5.87 6.759 3.883.371 7.15-2.673 7.15-6.479v-7.556c0-.573.464-1.037 1.037-1.037h7.556c3.806 0 6.85-3.267 6.479-7.15-.323-3.385-3.359-5.87-6.759-5.87z" fill="#dae6f1"/></g><g><circle cx="189.669" cy="3.4" fill="#fc657e" r="3.4"/></g><g><path d="m199.251 23.2c4.5-.8 8-4.3 8.9-8.7 0-.2.4-.2.4 0 .9 4.4 4.4 7.9 8.9 8.7.2 0 .2.3 0 .4-4.5.8-8 4.3-8.9 8.7 0 .2-.4.2-.4 0-.9-4.4-4.4-7.9-8.9-8.7-.2-.1-.2-.4 0-.4z" fill="#f5c84c"/></g><g><path d="m28.269 226.5h2.3v2.3c0 1.8 1.4 3.2 3.2 3.2 1.7 0 3.2-1.4 3.2-3.1v-.1-2.3h2.3c1.8 0 3.2-1.4 3.2-3.2 0-1.7-1.4-3.2-3.1-3.2h-.1-2.3v-2.3c0-1.8-1.4-3.2-3.2-3.2-1.7 0-3.2 1.4-3.2 3.1v.1 2.3h-2.3c-1.8 0-3.2 1.4-3.2 3.2-.1 1.7 1.3 3.2 3.2 3.2-.1 0-.1 0 0 0z" fill="#70d6f9"/></g><g><circle cx="48.669" cy="252.6" fill="#f5c84c" r="3.4"/></g><g><path d="m219.451 164.2c-3.1-.6-5.6-3-6.2-6.1 0-.1-.3-.1-.3 0-.6 3.1-3.1 5.5-6.2 6.1-.1 0-.1.2 0 .3 3.1.6 5.6 3 6.2 6.1 0 .1.3.1.3 0 .6-3.1 3.1-5.5 6.2-6.1.1-.1.1-.3 0-.3z" fill="#87d147"/></g><g><path d="m50.85 124.926c-.422 0-.85-.107-1.242-.332-4.668-2.68-19.655-12.024-16.495-19.77.521-1.278 1.981-1.891 3.259-1.371 1.278.522 1.892 1.981 1.371 3.259-.826 2.025 5.137 8.247 14.355 13.544 1.197.688 1.61 2.216.922 3.413-.462.806-1.304 1.257-2.17 1.257z"/></g><g><path d="m122.003 249.941c-1.381 0-2.5-1.119-2.5-2.5v-66.929c-.002-.343-.188-.58-.298-.688s-.346-.288-.703-.288c-.003 0-.005 0-.008 0l-47.853.336c-.552.004-.999.456-.995 1.008v66.562c0 1.381-1.119 2.5-2.5 2.5s-2.5-1.119-2.5-2.5v-66.544c-.022-3.291 2.651-6.001 5.959-6.025l47.853-.336c1.626-.025 3.114.602 4.256 1.728 1.142 1.125 1.777 2.628 1.788 4.231v66.946c.001 1.38-1.118 2.499-2.499 2.499z"/></g><g><path d="m72.382 178.687c-1.373 0-2.49-1.107-2.5-2.482l-.057-8.136c-.022-3.29 2.635-5.984 5.923-6.008l37.39-.263c3.29-.025 5.985 2.635 6.008 5.924l.057 8.074c.01 1.38-1.102 2.508-2.482 2.518-.006 0-.012 0-.018 0-1.373 0-2.49-1.107-2.5-2.482l-.057-8.074c-.003-.53-.437-.959-.966-.959-.002 0-.004 0-.007 0l-37.389.263c-.532.004-.963.44-.959.973l.057 8.136c.01 1.381-1.102 2.508-2.482 2.518-.006-.002-.012-.002-.018-.002z"/></g><g><path d="m77.005 165.958c-1.177 0-2.226-.835-2.453-2.035-.476-2.506-1.326-5.044-2.528-7.544-1.496-3.11-3.913-5.688-6.989-7.455-3.416-1.959-8.001-3.377-13.63-4.214-11.782-1.75-22.176-8.68-28.518-19.015l-21.478-34.998c-1.386-2.259-1.769-5.018-1.051-7.569s2.484-4.705 4.845-5.909c4.301-2.195 9.565-.825 12.247 3.185 7.451 11.143 14.5 18.548 17.747 21.72 1.341-1.062 3.217-1.876 5.655-2.462 6.197-1.489 12.808 1.139 16.842 6.697 1.367 1.883 3.615 1.988 7.8 2.021.948.008 1.932.016 2.945.057 5.77.241 11.259 2.197 15.878 5.657l2.388 1.79c7.469 5.595 13.661 12.747 17.906 20.684 4.633 8.664 7.421 17.499 8.288 26.261.136 1.374-.868 2.598-2.242 2.734-1.372.137-2.598-.867-2.734-2.242-.802-8.106-3.4-16.313-7.722-24.395-3.903-7.297-9.606-13.881-16.495-19.041l-2.388-1.79c-3.808-2.852-8.333-4.464-13.086-4.663-.954-.039-1.883-.046-2.779-.053-4.372-.034-8.893-.07-11.806-4.083-2.842-3.915-7.405-5.788-11.627-4.773-3.482.837-4.155 1.887-4.278 2.189-.305.746-.95 1.3-1.734 1.487-.785.187-1.611-.015-2.219-.543-.402-.349-9.96-8.717-20.496-24.474-1.273-1.905-3.775-2.553-5.819-1.51-1.14.581-1.958 1.579-2.304 2.81s-.169 2.509.5 3.599l21.477 34.999c5.566 9.071 14.675 15.152 24.991 16.685 6.25.928 11.425 2.551 15.384 4.823 3.957 2.271 7.071 5.599 9.007 9.624 1.391 2.893 2.378 5.846 2.935 8.78.257 1.356-.634 2.665-1.99 2.922-.157.029-.314.044-.469.044z"/></g><g><path d="m205.15 124.926c-.866 0-1.708-.451-2.17-1.255-.688-1.197-.274-2.725.922-3.413 9.218-5.297 15.181-11.52 14.355-13.544-.521-1.278.092-2.737 1.371-3.259 1.277-.521 2.737.092 3.259 1.371 3.16 7.745-11.827 17.09-16.495 19.77-.392.223-.82.33-1.242.33z"/></g><g><path d="m188.853 249.941c-1.381 0-2.5-1.119-2.5-2.5v-66.544c.004-.569-.442-1.021-.995-1.025l-47.853-.336c-.002 0-.005 0-.007 0-.357 0-.593.18-.703.288-.11.109-.295.345-.298.706v66.912c0 1.381-1.119 2.5-2.5 2.5s-2.5-1.119-2.5-2.5v-66.929c.011-1.62.646-3.123 1.788-4.249s2.634-1.766 4.256-1.728l47.853.336c3.309.023 5.982 2.734 5.959 6.042v66.527c0 1.381-1.12 2.5-2.5 2.5z"/></g><g><path d="m183.614 179.209c-.006 0-.012 0-.018 0-1.381-.01-2.492-1.137-2.482-2.518l.061-8.658c.004-.532-.427-.969-.959-.973l-37.389-.263c-.002 0-.004 0-.007 0-.529 0-.962.429-.966.958l-.061 8.595c-.01 1.375-1.127 2.482-2.5 2.482-.006 0-.012 0-.018 0-1.381-.01-2.492-1.137-2.482-2.518l.061-8.594c.022-3.289 2.707-5.935 6.007-5.924l37.39.263c3.289.023 5.946 2.718 5.924 6.007l-.061 8.659c-.01 1.376-1.128 2.484-2.5 2.484z"/></g><g><path d="m178.909 166.43c-.141 0-.284-.012-.428-.037-1.361-.235-2.273-1.528-2.039-2.889.535-3.102 1.554-6.228 3.028-9.293 1.936-4.025 5.05-7.353 9.006-9.624 3.96-2.272 9.136-3.895 15.385-4.823 10.316-1.532 19.424-7.613 24.991-16.685l21.477-34.999c.669-1.09.846-2.368.5-3.599-.347-1.231-1.165-2.229-2.304-2.81-2.046-1.045-4.547-.394-5.819 1.51-10.536 15.757-20.094 24.125-20.496 24.474-.609.528-1.435.731-2.219.543s-1.429-.741-1.734-1.487c-.123-.302-.795-1.352-4.278-2.189-4.225-1.015-8.786.859-11.627 4.773-2.914 4.014-7.434 4.049-11.806 4.083-.896.007-1.825.014-2.782.053-4.75.198-9.275 1.811-13.083 4.663l-2.388 1.789c-6.888 5.16-12.592 11.745-16.495 19.042-4.39 8.208-7 16.542-7.757 24.768-.126 1.375-1.344 2.391-2.718 2.26-1.375-.126-2.387-1.344-2.26-2.718.819-8.895 3.62-17.868 8.327-26.668 4.245-7.937 10.437-15.089 17.906-20.685l2.388-1.789c4.619-3.46 10.109-5.417 15.875-5.658 1.017-.041 2-.049 2.948-.057 4.185-.033 6.433-.138 7.8-2.021 4.036-5.559 10.649-8.186 16.842-6.697 2.438.586 4.313 1.4 5.655 2.462 3.248-3.172 10.296-10.577 17.747-21.72 2.682-4.01 7.947-5.379 12.248-3.185 2.36 1.204 4.126 3.358 4.845 5.909.718 2.551.335 5.31-1.051 7.569l-21.477 34.999c-6.342 10.334-16.736 17.265-28.518 19.015-5.629.836-10.215 2.254-13.63 4.214-3.076 1.766-5.493 4.343-6.989 7.454-1.273 2.647-2.15 5.331-2.606 7.976-.213 1.218-1.269 2.077-2.464 2.077z"/></g><g><path d="m127.854 117.63c-2.018 0-3.916-.786-5.343-2.213l-46.241-46.242c-6.398-6.398-9.843-15.255-9.45-24.3.397-9.17 4.511-17.493 11.583-23.433 12.705-10.673 32.099-9.593 44.152 2.461l4.557 4.557c.41.409 1.076.409 1.486 0l4.557-4.557c12.052-12.053 31.446-13.134 44.152-2.46 7.072 5.94 11.185 14.263 11.583 23.433.392 9.044-3.052 17.901-9.451 24.3l-46.242 46.242c-1.427 1.426-3.324 2.212-5.343 2.212zm-28.98-98.544c-6.186 0-12.32 2.039-17.255 6.184-5.985 5.029-9.467 12.068-9.804 19.821-.332 7.648 2.581 15.138 7.99 20.548l46.242 46.242c.997.996 2.618.996 3.615 0l46.242-46.242c5.41-5.41 8.322-12.9 7.99-20.548-.336-7.753-3.818-14.793-9.803-19.821-10.737-9.019-27.166-8.067-37.401 2.168l-4.557 4.557c-2.359 2.358-6.198 2.358-8.557 0l-4.557-4.557c-5.531-5.531-12.873-8.352-20.145-8.352z"/></g><g><path d="m127.837 89.783c-.286 0-.573-.014-.86-.041-4.561-.436-8.132-4.498-8.132-9.249v-5.813h-6.092c-2.533 0-4.963-1.075-6.668-2.951-1.703-1.874-2.542-4.402-2.3-6.937.435-4.56 4.497-8.132 9.248-8.132h5.812v-6.092c0-2.533 1.076-4.963 2.951-6.668 1.874-1.703 4.403-2.542 6.937-2.3 4.56.436 8.132 4.498 8.132 9.248v5.812h5.813c4.751 0 8.813 3.572 9.248 8.132.242 2.534-.597 5.063-2.3 6.937-1.705 1.875-4.135 2.951-6.668 2.951h-6.093v6.093c0 2.533-1.076 4.963-2.951 6.668-1.662 1.511-3.838 2.342-6.077 2.342zm-14.804-28.122c-2.202 0-4.078 1.584-4.271 3.607-.11 1.152.253 2.252 1.022 3.099.771.847 1.825 1.314 2.968 1.314h7.556c1.95 0 3.537 1.586 3.537 3.537v7.276c0 2.202 1.584 4.078 3.607 4.271 1.153.115 2.252-.253 3.098-1.022.847-.771 1.314-1.825 1.314-2.969v-7.556c0-1.95 1.586-3.537 3.537-3.537h7.556c1.144 0 2.198-.467 2.968-1.314.769-.846 1.132-1.946 1.022-3.099-.193-2.022-2.069-3.607-4.271-3.607h-7.276c-1.95 0-3.537-1.586-3.537-3.537v-7.275c0-2.202-1.585-4.078-3.608-4.271-1.15-.115-2.251.253-3.098 1.022-.847.771-1.314 1.825-1.314 2.968v7.556c0 1.95-1.586 3.537-3.537 3.537z"/></g></g></g></svg>