<svg height="512" viewBox="0 0 60 60" width="512" xmlns="http://www.w3.org/2000/svg"><g id="Icons"><path d="m53.13 32.41a29.525 29.525 0 0 0 1.87-9.99c0-9.32-5.51-17.42-13.5-17.42a18.3 18.3 0 0 0 -13.5 6 18.3 18.3 0 0 0 -13.5-6c-7.99 0-13.5 8.1-13.5 17.42 0 9.36 5.69 25.48 27 32.58a51.655 51.655 0 0 0 6.22-2.52z" fill="#ef314c"/><path d="m41.5 5c-.584 0-1.147.032-1.7.083 7.282.829 12.2 8.534 12.2 17.337a29.525 29.525 0 0 1 -1.87 9.99l-18.91 20.07a50.05 50.05 0 0 1 -4.714 1.991c.492.18.984.359 1.494.529a51.655 51.655 0 0 0 6.22-2.52l18.91-20.07a29.525 29.525 0 0 0 1.87-9.99c0-9.32-5.51-17.42-13.5-17.42z" fill="#bb193b"/><path d="m43.232 58.855c-13.727-5.423-14.446-18.671-14.2-23.678a2.158 2.158 0 0 1 1.983-2.036 17.226 17.226 0 0 0 11.435-5.46 2.1 2.1 0 0 1 3.094 0 17.226 17.226 0 0 0 11.435 5.46 2.158 2.158 0 0 1 1.983 2.036c.249 5.007-.47 18.255-14.2 23.678a2.11 2.11 0 0 1 -1.53 0z" fill="#a4c400"/><path d="m58.965 35.177a2.158 2.158 0 0 0 -1.983-2.036 17.226 17.226 0 0 1 -11.435-5.46 2.1 2.1 0 0 0 -3.047-.041c.015.015.032.025.047.041a17.226 17.226 0 0 0 11.435 5.46 2.158 2.158 0 0 1 1.983 2.036c.244 4.915-.453 17.768-13.465 23.367.243.1.481.212.732.311a2.11 2.11 0 0 0 1.536 0c13.732-5.423 14.446-18.671 14.197-23.678z" fill="#90ac00"/><path d="m51 42v2a1 1 0 0 1 -1 1h-4v4a1 1 0 0 1 -1 1h-2a1 1 0 0 1 -1-1v-4h-4a1 1 0 0 1 -1-1v-2a1 1 0 0 1 1-1h4v-4a1 1 0 0 1 1-1h2a1 1 0 0 1 1 1v4h4a1 1 0 0 1 1 1z" fill="#f5f5f5"/><path d="m50 41h-3a1 1 0 0 1 1 1v2a1 1 0 0 1 -1 1h3a1 1 0 0 0 1-1v-2a1 1 0 0 0 -1-1z" fill="#cfd8dc"/></g><g id="Icons_copy" data-name="Icons copy"><path d="m5.009 24a1 1 0 0 1 -1-.968c-.15-4.738 1.444-9.424 4.16-12.232a8.7 8.7 0 0 1 6.331-2.8 1 1 0 0 1 0 2 6.656 6.656 0 0 0 -4.894 2.2c-2.353 2.43-3.731 6.558-3.6 10.773a1 1 0 0 1 -.965 1.027z" fill="#f5f5f5"/><path d="m6.582 32a1 1 0 0 1 -.94-.657 27.757 27.757 0 0 1 -1.163-4.15 1 1 0 1 1 1.962-.386 25.83 25.83 0 0 0 1.08 3.85 1 1 0 0 1 -.939 1.343z" fill="#f5f5f5"/><path d="m57.067 32.145a18.135 18.135 0 0 1 -2.643-.442 30.03 30.03 0 0 0 1.576-9.283c0-10.329-6.369-18.42-14.5-18.42a19.315 19.315 0 0 0 -13.5 5.531 19.315 19.315 0 0 0 -13.5-5.531c-8.131 0-14.5 8.091-14.5 18.42 0 11.212 7.25 26.722 27.684 33.528a.978.978 0 0 0 .316.052 1.012 1.012 0 0 0 .317-.052 53.591 53.591 0 0 0 5.619-2.232 23.134 23.134 0 0 0 8.929 6.068 3.1 3.1 0 0 0 2.27 0c14.212-5.612 15.1-19.113 14.828-24.657a3.17 3.17 0 0 0 -2.896-2.982zm-29.067 21.799c-19.184-6.523-26-21.034-26-31.524 0-9.207 5.491-16.42 12.5-16.42a17.462 17.462 0 0 1 12.723 5.63 1 1 0 0 0 .777.37 1 1 0 0 0 .776-.368 17.463 17.463 0 0 1 12.724-5.632c7.009 0 12.5 7.213 12.5 16.42a28.02 28.02 0 0 1 -1.493 8.711 15.844 15.844 0 0 1 -6.224-4.131 3.2 3.2 0 0 0 -4.566 0 16.158 16.158 0 0 1 -10.785 5.141 3.169 3.169 0 0 0 -2.895 2.982c-.184 3.693.157 10.916 4.6 16.987-1.457.664-3.009 1.279-4.637 1.834zm16.4 3.981a1.089 1.089 0 0 1 -.8 0c-13.008-5.138-13.82-17.585-13.566-22.698a1.164 1.164 0 0 1 1.069-1.09 18.124 18.124 0 0 0 12.087-5.78 1.1 1.1 0 0 1 1.62 0 18.124 18.124 0 0 0 12.09 5.78 1.164 1.164 0 0 1 1.069 1.09c.251 5.113-.561 17.56-13.569 22.698z"/><path d="m50 40h-3v-3a2 2 0 0 0 -2-2h-2a2 2 0 0 0 -2 2v3h-3a2 2 0 0 0 -2 2v2a2 2 0 0 0 2 2h3v3a2 2 0 0 0 2 2h2a2 2 0 0 0 2-2v-3h3a2 2 0 0 0 2-2v-2a2 2 0 0 0 -2-2zm0 4h-4a1 1 0 0 0 -1 1v4h-2v-4a1 1 0 0 0 -1-1h-4v-2h4a1 1 0 0 0 1-1v-4h2v4a1 1 0 0 0 1 1h4z"/></g></svg>