<svg height="512" viewBox="0 0 60 60" width="512" xmlns="http://www.w3.org/2000/svg"><g id="Page-1" fill="none" fill-rule="evenodd"><g id="029---HR-Department" fill-rule="nonzero" transform="translate(0 -1)"><g id="Icons" transform="translate(1 2)"><path id="Shape" d="m2 26h54c1.1045695 0 2 .8954305 2 2v24h-58v-24c0-1.1045695.8954305-2 2-2z" fill="#a0522d"/><g fill="#783e22"><path id="Shape" d="m56 26h-3c1.1045695 0 2 .8954305 2 2v24h3v-24c0-1.1045695-.8954305-2-2-2z"/><path id="Shape" d="m0 52h6v4c0 1.1045695-.8954305 2-2 2h-2c-1.1045695 0-2-.8954305-2-2z"/><path id="Shape" d="m52 52h6v4c0 1.1045695-.8954305 2-2 2h-2c-1.1045695 0-2-.8954305-2-2z"/></g><circle id="Oval" cx="17" cy="8" fill="#ffe0b2" r="8"/><path id="Shape" d="m17 0c-.5034323.00135829-1.005629.04990397-1.5.145 3.7641632.72658994 6.4837629 4.0213519 6.4837629 7.855s-2.7195997 7.1284101-6.4837629 7.855c2.9873733.5766142 6.0432406-.5912461 7.8846263-3.0132663s2.1495108-5.67890239.795012-8.40327682c-1.3544988-2.72437443-4.1371319-4.44459996-7.1796383-4.43845688z" fill="#dfc49c"/><path id="Shape" d="m24.81 16.97c-.6643785 3.1905885-1.8683234 6.244415-3.56 9.03h-1.05l-1.2-6 1-4h1c1.3314491-.0028982 2.642033.3307675 3.81.97z" fill="#f5f5f5"/><path id="Shape" d="m20.2 26h-6.4l1.2-6h4z" fill="#f44335"/><path id="Shape" d="m15 20-1.2 6h-1.05c-1.6916766-2.785585-2.8956215-5.8394115-3.56-9.03 1.167967-.6392325 2.4785509-.9728982 3.81-.97h1z" fill="#f5f5f5"/><path id="Shape" d="m12.75 26h-7.75000765l.00000765-2c-.00405761-2.9360106 1.60562342-5.6367404 4.19-7.03.6643785 3.1905885 1.8683234 6.244415 3.56 9.03z" fill="#607d8b"/><path id="Shape" d="m29 24 .0000077 2h-7.7500077c1.6916766-2.785585 2.8956215-5.8394115 3.56-9.03 2.5843766 1.3932596 4.1940576 4.0939894 4.19 7.03z" fill="#607d8b"/><path id="Shape" d="m24.81 16.97c-.114.528-.293 1.255-.53 2.081 1.1162879 1.4078072 1.722589 3.1523328 1.72 4.949v2h3.0000077l-.0000077-2c.0040576-2.9360106-1.6056234-5.6367404-4.19-7.03z" fill="#37474f"/><path id="Shape" d="m20 16-1 4h-4l-1-4z" fill="#f44335"/><path id="Shape" d="m52 39c0 1.6568542-1.3431458 3-3 3v3c0 1.1045695-.8954305 2-2 2h-36c-1.1045695 0-2-.8954305-2-2v-3c-1.65685425 0-3-1.3431458-3-3s1.34314575-3 3-3v-3c0-1.1045695.8954305-2 2-2h36c1.1045695 0 2 .8954305 2 2v3c1.6568542 0 3 1.3431458 3 3z" fill="#ffdc00"/><path id="Shape" d="m49 36v-3c0-1.1045695-.8954305-2-2-2h-3c1.1045695 0 2 .8954305 2 2v3c1.6568542 0 3 1.3431458 3 3s-1.3431458 3-3 3v3c0 1.1045695-.8954305 2-2 2h3c1.1045695 0 2-.8954305 2-2v-3c1.6568542 0 3-1.3431458 3-3s-1.3431458-3-3-3z" fill="#fec108"/><rect id="Rectangle-path" fill="#9e9e9e" height="18" rx="2" width="24" x="31"/><path id="Shape" d="m53 0h-3c1.1045695 0 2 .8954305 2 2v14c0 1.1045695-.8954305 2-2 2h3c1.1045695 0 2-.8954305 2-2v-14c0-1.1045695-.8954305-2-2-2z" fill="#707070"/><path id="Rectangle-path" d="m40 18h6v4h-6z" fill="#7f8e94"/><circle id="Oval" cx="43" cy="9" fill="#f5f5f5" r="3"/><path id="Shape" d="m37 26v-2c0-1.1045695.8954305-2 2-2h8c1.1045695 0 2 .8954305 2 2v2z" fill="#9e9e9e"/><path id="Shape" d="m47 22h-3c1.1045695 0 2 .8954305 2 2v2h3v-2c0-1.1045695-.8954305-2-2-2z" fill="#707070"/></g><g id="Icons_copy" fill="#000"><path id="Shape" d="m57 27h-6v-1c0-1.6568542-1.3431458-3-3-3v-2h6c1.6568542 0 3-1.3431458 3-3v-14c0-1.65685425-1.3431458-3-3-3h-20c-1.6568542 0-3 1.34314575-3 3v14c0 1.6568542 1.3431458 3 3 3h6v2c-1.6568542 0-3 1.3431458-3 3v1h-6v-1c-.0078499-4.398329-3.1912028-8.1477522-7.53-8.869 3.0634411-2.344635 4.291921-6.3808816 3.0541621-10.03463824-1.2377589-3.65375659-4.6664446-6.11232615-8.5241621-6.11232615s-7.2864032 2.45856956-8.52416211 6.11232615c-1.23775889 3.65375664-.00927896 7.69000324 3.05416211 10.03463824-4.33879718.7212478-7.52215006 4.470671-7.53 8.869v1h-2c-1.65685425 0-3 1.3431458-3 3v28c0 1.6568542 1.34314575 3 3 3h2c1.65685425 0 3-1.3431458 3-3v-3h44v3c0 1.6568542 1.3431458 3 3 3h2c1.6568542 0 3-1.3431458 3-3v-28c0-1.6568542-1.3431458-3-3-3zm-23-8c-.5522847 0-1-.4477153-1-1v-14c0-.55228475.4477153-1 1-1h20c.5522847 0 1 .44771525 1 1v14c0 .5522847-.4477153 1-1 1zm12 2v2h-4v-2zm-7 5c0-.5522847.4477153-1 1-1h8c.5522847 0 1 .4477153 1 1v1h-10zm-10 0v1h-5.009c1.0599396-2.0322978 1.8826764-4.1797349 2.452-6.4 1.6174371 1.32669 2.5556532 3.3080613 2.557 5.4zm-4.347-6.474c-.5875221 2.4603849-1.5016338 4.8310889-2.718 7.049l-.911-4.551.756-3.024h.22c.9102332.0000388 1.8116069.1787507 2.653.526zm-13.653-9.526c0-3.86599325 3.1340068-7 7-7s7 3.13400675 7 7c0 3.8659932-3.1340068 7-7 7-3.8641657-.0044086-6.9955914-3.1358343-7-7zm5.82 13h2.36l.8 4h-3.96zm-.539-4h3.438l-.5 2h-2.438zm-2.281 0h.22l.756 3.024-.911 4.551c-1.2163662-2.2179111-2.1304779-4.5886151-2.718-7.049.8413931-.3472493 1.7427668-.5259612 2.653-.526zm-7 7c.00134684-2.0919387.93956288-4.07331 2.557-5.4.5693236 2.2202651 1.3920604 4.3677022 2.452 6.4h-5.009zm-1 32c0 .5522847-.44771525 1-1 1h-2c-.55228475 0-1-.4477153-1-1v-3h4zm52 0c0 .5522847-.4477153 1-1 1h-2c-.5522847 0-1-.4477153-1-1v-3h4zm0-5h-56v-23c0-.5522847.44771525-1 1-1h54c.5522847 0 1 .4477153 1 1z"/><path id="Shape" d="m51 37.126v-2.126c0-1.6568542-1.3431458-3-3-3h-36c-1.6568542 0-3 1.3431458-3 3v2.126c-1.76800677.4545768-3.00394578 2.0484897-3.00394578 3.874s1.23593901 3.4194232 3.00394578 3.874v2.126c0 1.6568542 1.3431458 3 3 3h36c1.6568542 0 3-1.3431458 3-3v-2.126c1.7680068-.4545768 3.0039458-2.0484897 3.0039458-3.874s-1.235939-3.4194232-3.0039458-3.874zm-1 5.874c-.5522847 0-1 .4477153-1 1v3c0 .5522847-.4477153 1-1 1h-36c-.5522847 0-1-.4477153-1-1v-3c0-.5522847-.4477153-1-1-1-1.1045695 0-2-.8954305-2-2s.8954305-2 2-2c.5522847 0 1-.4477153 1-1v-3c0-.5522847.4477153-1 1-1h36c.5522847 0 1 .4477153 1 1v3c0 .5522847.4477153 1 1 1 1.1045695 0 2 .8954305 2 2s-.8954305 2-2 2z"/><path id="Shape" d="m28 36c-.5522847 0-1 .4477153-1 1v3h-2v-3c0-.5522847-.4477153-1-1-1s-1 .4477153-1 1v8c0 .5522847.4477153 1 1 1s1-.4477153 1-1v-3h2v3c0 .5522847.4477153 1 1 1s1-.4477153 1-1v-8c0-.5522847-.4477153-1-1-1z"/><path id="Shape" d="m34 36h-2c-.5522847 0-1 .4477153-1 1v8c0 .5522847.4477153 1 1 1s1-.4477153 1-1v-3h1c.5522847 0 1 .4477153 1 1v2c0 .5522847.4477153 1 1 1s1-.4477153 1-1v-2c-.0026037-.740399-.2806479-1.4533329-.78-2 .7990291-.8759347 1.0043504-2.1415341.5232243-3.2251516-.4811262-1.0836174-1.5576099-1.7800954-2.7432243-1.7748484zm0 4h-1v-2h1c.5522847 0 1 .4477153 1 1s-.4477153 1-1 1z"/><path id="Shape" d="m44 15c2.209139 0 4-1.790861 4-4s-1.790861-4-4-4-4 1.790861-4 4 1.790861 4 4 4zm0-6c1.1045695 0 2 .8954305 2 2s-.8954305 2-2 2-2-.8954305-2-2 .8954305-2 2-2z"/></g></g></g></svg>