<svg height="480pt" viewBox="0 -16 480 480" width="480pt" xmlns="http://www.w3.org/2000/svg"><path d="m272 40c0 17.671875-14.328125 32-32 32s-32-14.328125-32-32 14.328125-32 32-32 32 14.328125 32 32zm0 0" fill="#d80027"/><path d="m416 80c0 17.671875-14.328125 32-32 32s-32-14.328125-32-32 14.328125-32 32-32 32 14.328125 32 32zm0 0" fill="#7ed63e"/><path d="m360 360h32v-32h-32zm0 0" fill="#a7a9ac"/><path d="m104.230469 360h15.769531v-32h-32v32zm0 0" fill="#a7a9ac"/><path d="m256 248v-8h-32v8c0 8.835938 7.164062 16 16 16s16-7.164062 16-16zm0 0" fill="#7ed63e"/><path d="m304 240v-96c0-26.507812-21.492188-48-48-48h-32c-26.507812 0-48 21.492188-48 48v96zm0 0" fill="#d80027"/><path d="m128 80c0 17.671875-14.328125 32-32 32s-32-14.328125-32-32 14.328125-32 32-32 32 14.328125 32 32zm0 0" fill="#4e901e"/><path d="m200 448v-152c0-17.671875-14.328125-32-32-32h-48v-88l44 40h44c8.835938 0 16-7.164062 16-16v-16h-42.960938l-44.480468-48h-56.558594c-26.507812 0-48 21.492188-48 48v88c0 17.671875 14.328125 32 32 32h80c8.835938 0 16 7.164062 16 16v128zm0 0" fill="#4e901e"/><path d="m320 448v-128c0-8.835938 7.164062-16 16-16h80c17.671875 0 32-14.328125 32-32v-88c0-26.507812-21.492188-48-48-48h-56.558594l-44.480468 48h-42.960938v16c0 8.835938 7.164062 16 16 16h44l44-40v88h-48c-17.671875 0-32 14.328125-32 32v152zm0 0" fill="#7ed63e"/><path d="m240 80c-22.089844 0-40-17.910156-40-40s17.910156-40 40-40 40 17.910156 40 40c-.027344 22.082031-17.917969 39.972656-40 40zm0-64c-13.253906 0-24 10.746094-24 24s10.746094 24 24 24 24-10.746094 24-24-10.746094-24-24-24zm0 0"/><path d="m384 120c-22.089844 0-40-17.910156-40-40s17.910156-40 40-40 40 17.910156 40 40c-.027344 22.082031-17.917969 39.972656-40 40zm0-64c-13.253906 0-24 10.746094-24 24s10.746094 24 24 24 24-10.746094 24-24-10.746094-24-24-24zm0 0"/><path d="m96 120c-22.089844 0-40-17.910156-40-40s17.910156-40 40-40 40 17.910156 40 40c-.027344 22.082031-17.917969 39.972656-40 40zm0-64c-13.253906 0-24 10.746094-24 24s10.746094 24 24 24 24-10.746094 24-24-10.746094-24-24-24zm0 0"/><path d="m312 152h-16v-8c-.027344-22.082031-17.917969-39.972656-40-40h-32c-22.082031.027344-39.972656 17.917969-40 40v8h-16v-8c.035156-30.914062 25.085938-55.964844 56-56h32c30.914062.035156 55.964844 25.085938 56 56zm0 0"/><path d="m464 144v136c-.027344 22.082031-17.917969 39.972656-40 40h-88v16h16v32h15.792969l.207031 64h-24v16h64v-16h-24l-.183594-64h16.183594v-32h24c30.914062-.035156 55.964844-25.085938 56-56v-136zm-80 208h-16v-16h16zm0 0"/><path d="m416 312c22.082031-.027344 39.972656-17.917969 40-40v-88c-.035156-30.914062-25.085938-55.964844-56-56h-60.046875l-44.480469 48h-47.472656v24c0 13.253906 10.746094 24 24 24h47.097656l32.902344-29.910156v61.910156h-40c-22.082031.027344-39.972656 17.917969-40 40v152h16v-152c0-13.253906 10.746094-24 24-24h56v-114.089844l-55.097656 50.089844h-40.902344c-4.417969 0-8-3.582031-8-8v-8h38.457031l44.480469-48h53.0625c22.082031.027344 39.972656 17.917969 40 40v88c0 13.253906-10.746094 24-24 24h-80c-13.253906 0-24 10.746094-24 24v128h16v-128c0-4.417969 3.582031-8 8-8zm0 0"/><path d="m168 256h-40v-61.910156l32.902344 29.910156h47.097656c13.253906 0 24-10.746094 24-24v-24h-47.472656l-44.480469-48h-60.046875c-30.914062.035156-55.964844 25.085938-56 56v88c.027344 22.082031 17.917969 39.972656 40 40h80c4.417969 0 8 3.582031 8 8v128h16v-128c0-13.253906-10.746094-24-24-24h-80c-13.253906 0-24-10.746094-24-24v-88c.027344-22.082031 17.917969-39.972656 40-40h53.0625l44.480469 48h38.457031v8c0 4.417969-3.582031 8-8 8h-40.902344l-55.097656-50.089844v114.089844h56c13.253906 0 24 10.746094 24 24v152h16v-152c-.027344-22.082031-17.917969-39.972656-40-40zm0 0"/><path d="m56 320c-22.082031-.027344-39.972656-17.917969-40-40v-136h-16v136c.0351562 30.914062 25.085938 55.964844 56 56h24v32h16.207031l-.207031 64h-24v16h64v-16h-24l.183594-64h15.816406v-32h16v-16zm56 32h-16v-16h16zm0 0"/><path d="m336 232h-192v16h72c.042969 10.132812 6.445312 19.148438 16 22.527344v177.472656h16v-177.472656c9.554688-3.378906 15.957031-12.394532 16-22.527344h72zm-96 24c-4.417969 0-8-3.582031-8-8h16c0 4.417969-3.582031 8-8 8zm0 0"/></svg>