<svg enable-background="new 0 0 256 256" height="512" viewBox="0 0 256 256" width="512" xmlns="http://www.w3.org/2000/svg"><g id="Layer_79"><g><g><g><g><path d="m107.233 165.321c-.376-.408-.562-.926-.561-1.443-1.371.155-2.756.26-4.167.26-1.043 0-2.072-.058-3.094-.143-.025.478-.203.949-.551 1.326l-3.784 4.1c1.76 2.513 4.67 4.161 7.971 4.161s6.211-1.647 7.971-4.161z" fill="#5290db"/></g></g></g><g><g><path d="m120.191 134.916c-5.14 2.69-10.97 4.223-17.145 4.223-6.174 0-12.005-1.533-17.145-4.223v6.057c0 2.204-.568 4.32-1.589 6.18l14.525 15.27c.417.438.603 1.01.573 1.573 1.022.085 2.051.143 3.094.143 1.411 0 2.796-.104 4.167-.26v.004c0-.526.194-1.052.583-1.461l14.525-15.27c-1.021-1.86-1.589-3.976-1.589-6.18v-6.056z" fill="#f9d0b4"/></g></g><g><g><path d="m121.618 149.346c-.906 0-1.781-.495-2.225-1.357-1.114-2.165-1.703-4.591-1.703-7.016v-5.163c0-1.381 1.119-2.5 2.5-2.5s2.5 1.119 2.5 2.5v5.163c0 1.633.397 3.268 1.148 4.729.632 1.228.148 2.735-1.079 3.366-.364.188-.756.278-1.141.278z"/></g></g><g><g><path d="m102.505 166.639c-.886 0-1.827-.039-2.879-.118-1.376-.104-2.408-1.306-2.304-2.683.104-1.376 1.309-2.415 2.683-2.304.924.07 1.742.104 2.5.104 1.016 0 2.097-.06 3.306-.183 1.382-.141 2.601.862 2.74 2.234.14 1.374-.861 2.601-2.234 2.74-1.38.141-2.627.21-3.812.21z"/></g></g><g><g><path d="m84.545 149.205c-.375 0-.756-.085-1.114-.265-1.235-.616-1.737-2.117-1.12-3.353.714-1.431 1.091-3.026 1.091-4.615v-5.253c0-1.381 1.119-2.5 2.5-2.5s2.5 1.119 2.5 2.5v5.253c0 2.359-.56 4.728-1.618 6.848-.438.877-1.321 1.385-2.239 1.385z"/></g></g><g><g><path d="m134.944 57.412c-2.433-2.552-6.39-2.787-9.164-.61-4.386 3.443-11.975 7.698-22.693 7.698-10.745 0-18.374-4.276-22.778-7.723-2.771-2.169-6.72-1.926-9.149.621l-.013.013c-3.413 3.579-5.316 8.334-5.316 13.279v31.233c0 20.468 16.747 37.215 37.215 37.215 20.468 0 37.215-16.747 37.215-37.215v-31.232c0-4.945-1.904-9.701-5.317-13.279z" fill="#f9d0b4"/></g></g><g><g><path d="m142.649 73.561c-.813 0-1.609.069-2.388.189v28.173c0 .839-.038 1.67-.094 2.496.81.13 1.635.217 2.482.217 8.581 0 15.537-6.956 15.537-15.537s-6.956-15.538-15.537-15.538z" fill="#f9d0b4"/></g></g><g><g><path d="m65.831 101.923c0-3.856 0-20.507 0-28.173-.779-.121-1.575-.189-2.388-.189-8.581 0-15.538 6.957-15.538 15.538s6.956 15.537 15.538 15.537c.847 0 1.672-.086 2.482-.217v-.001c-.056-.825-.094-1.656-.094-2.495z" fill="#f9d0b4"/></g></g><g><g><path d="m140.122 41.816c-1.246 0-2.327-.961-2.344-2.207-.285-20.737-23.966-24.633-47.549-20.56-19.994 3.453-34.608 20.791-34.608 41.081v15.559c2.299-1.344 4.966-2.128 7.821-2.128.813 0 1.609.068 2.388.189v-3.059c0-4.945 1.904-9.7 5.316-13.279l.013-.013c2.429-2.547 6.377-2.79 9.149-.621 4.404 3.447 12.034 7.723 22.778 7.723 10.719 0 18.308-4.255 22.693-7.698 2.774-2.177 6.73-1.943 9.164.61 3.413 3.579 5.316 8.334 5.316 13.279v3.059c.779-.121 1.575-.189 2.388-.189 2.89 0 5.586.803 7.903 2.178 0-4.342 0-8.802 0-12.775.003-18.57-6.703-21.149-10.428-21.149z" fill="#754e34"/></g></g><g><g><path d="m103.046 141.639c-21.898 0-39.715-17.816-39.715-39.716v-31.233c0-5.614 2.134-10.942 6.008-15.004 3.326-3.489 8.698-3.86 12.511-.878 4.191 3.281 11.278 7.192 21.237 7.192 9.938 0 16.986-3.896 21.149-7.165 3.818-2.993 9.2-2.628 12.517.852 3.874 4.062 6.008 9.39 6.008 15.004v31.232c0 21.899-17.817 39.716-39.715 39.716zm-26.988-83.836c-1.135 0-2.254.446-3.088 1.321-2.996 3.141-4.639 7.243-4.639 11.566v31.232c0 19.143 15.573 34.716 34.715 34.716s34.715-15.573 34.715-34.716v-31.232c0-4.323-1.643-8.426-4.625-11.553-.001 0-.001 0-.001-.001-1.532-1.607-4.03-1.766-5.812-.368-4.782 3.755-12.87 8.232-24.236 8.232-11.384 0-19.509-4.488-24.319-8.254-.808-.632-1.764-.943-2.71-.943z"/></g></g><g><g><path d="m142.649 107.136c-.61 0-1.227-.036-1.884-.11-1.372-.155-2.358-1.394-2.203-2.766s1.385-2.362 2.766-2.203c.469.054.901.079 1.321.079 7.188 0 13.037-5.849 13.037-13.037 0-7.189-5.849-13.038-13.037-13.038-.406 0-.825.021-1.245.063-1.363.152-2.598-.866-2.734-2.24s.866-2.599 2.24-2.734c.584-.059 1.169-.088 1.739-.088 9.945 0 18.037 8.092 18.037 18.038.001 9.944-8.091 18.036-18.037 18.036z"/></g></g><g><g><path d="m63.442 107.136c-9.945 0-18.037-8.092-18.037-18.037 0-9.946 8.092-18.038 18.037-18.038.619 0 1.25.034 1.877.102 1.373.146 2.367 1.379 2.22 2.751-.146 1.374-1.387 2.371-2.751 2.22-7.802-.832-14.383 5.335-14.383 12.966 0 7.188 5.849 13.037 13.037 13.037.347 0 .688-.018 1.025-.049 1.371-.132 2.593.886 2.719 2.26.127 1.375-.885 2.592-2.26 2.719-.504.045-1.003.069-1.484.069z"/></g></g><g><g><path d="m150.553 77.313c-1.381 0-2.5-1.119-2.5-2.5v-11.85c0-11.851-2.891-18.647-7.931-18.647-2.637 0-4.81-2.097-4.844-4.674-.076-5.59-2.07-10.049-5.927-13.251-7.323-6.081-21.43-7.859-38.696-4.879-18.852 3.255-32.533 19.496-32.533 38.617v14.684c0 1.381-1.119 2.5-2.5 2.5s-2.5-1.119-2.5-2.5v-14.684c0-21.561 15.427-39.874 36.682-43.545 18.713-3.232 34.29-1.059 42.742 5.96 4.972 4.129 7.571 9.771 7.728 16.772 4.845.064 12.779 3.285 12.779 23.646v11.85c0 1.381-1.119 2.501-2.5 2.501z"/></g></g><g><g><path d="m24.008 247.747 4.847-67.923c.455-6.642 4.6-12.466 10.726-15.073l33.676-14.33c1.751-.745 3.754.255 4.209 2.103l25.58 100.976h-73.681c-3.117 0-5.579-2.644-5.357-5.753z" fill="#5b5d60"/></g></g><g><g><path d="m178.805 201.802h-1.218c-1.536 0-2.782-1.246-2.782-2.783v-6.484c0-1.222-.814-2.297-1.993-2.617-3.209-.869-6.251-2.143-9.07-3.762-1.061-.61-2.398-.427-3.264.438l-4.59 4.59c-1.087 1.086-2.848 1.086-3.934 0l-7.526-7.526c-1.087-1.086-1.087-2.848 0-3.935l4.59-4.59c.866-.866 1.048-2.203.438-3.264-1.619-2.818-2.893-5.86-3.762-9.069-.319-1.18-1.395-1.993-2.617-1.993h-6.485c-1.536 0-2.782-1.246-2.782-2.783v-7.188l-.976-.416c-1.751-.745-3.754.255-4.209 2.103l-25.579 100.977h73.681c3.117 0 5.579-2.644 5.357-5.753z" fill="#5b5d60"/></g></g><g><g><path d="m178.805 201.802h-1.218c-1.536 0-2.782-1.246-2.782-2.783v-6.484c0-1.222-.814-2.297-1.993-2.617-3.209-.869-6.251-2.143-9.07-3.762-1.061-.61-2.398-.427-3.264.438l-4.37 4.37c-.99 2.768-1.517 5.709-1.517 8.709v53.827h22.136c3.117 0 5.579-2.644 5.357-5.753z" fill="#818182"/></g></g><g><g><path d="m51.501 199.673c0-7.154-2.962-13.988-8.183-18.879l-11.005-10.31c-1.985 2.671-3.222 5.893-3.458 9.34l-4.847 67.923c-.222 3.109 2.24 5.753 5.357 5.753h22.136z" fill="#818182"/></g></g><g><g><path d="m77.466 152.525c-.456-1.848-2.458-2.849-4.209-2.103l-7.211 3.069v40.542c0 .859.593 1.605 1.43 1.798l9.42 2.174c1.12.259 1.734 1.468 1.281 2.525l-4.271 9.965c-.547 1.277-.525 2.726.061 3.986l18.149 39.019h10.93z" fill="#818182"/></g></g><g><g><path d="m136.592 160.808c-1.536 0-2.782-1.246-2.782-2.783v-7.188l-.976-.416c-1.751-.745-3.754.255-4.209 2.103l-25.579 100.976h10.93l18.149-39.021c.586-1.26.608-2.709.061-3.986l-4.271-9.965c-.453-1.057.161-2.266 1.281-2.524l9.42-2.174c.837-.193 1.43-.938 1.43-1.798v-33.225h-3.454z" fill="#818182"/></g></g><g><g><path d="m77.466 152.525 3.534 13.947 6.271 7.591c.879 1.064 2.495 1.109 3.431.094l8.157-8.837c.758-.821.748-2.089-.022-2.899l-15.687-16.49c-.702-.738-1.866-.779-2.619-.092l-4.983 4.55c.913.343 1.663 1.098 1.918 2.136z" fill="#9be5f9"/></g></g><g><g><path d="m115.39 174.158c.936 1.014 2.552.97 3.431-.094l6.271-7.591 3.533-13.948c.256-1.038 1.005-1.792 1.918-2.136l-4.983-4.55c-.753-.687-1.917-.646-2.619.092l-15.687 16.492c-.77.81-.78 2.078-.022 2.899z" fill="#9be5f9"/></g></g><g><g><g><path d="m118.821 174.063c-.879 1.064-2.495 1.109-3.431.094l-4.373-4.737c-1.76 2.513-4.67 4.161-7.971 4.161s-6.211-1.647-7.971-4.161l-4.373 4.737c-.936 1.014-2.552.97-3.431-.094l-6.271-7.591 22.046 87.028 22.046-87.028z" fill="#70d6f9"/></g></g></g><g><g><path d="m102.92 253.001.382-.509 9.356-36.934-4.591-43.383c-1.467.886-3.181 1.406-5.021 1.406s-3.553-.519-5.021-1.406l-4.591 43.383z" fill="#5290db"/></g></g><g><g><path d="m103.046 118.573c-4.776 0-9.262-1.949-11.999-5.216-.887-1.058-.748-2.635.31-3.521 1.061-.887 2.637-.748 3.522.31 1.799 2.146 4.852 3.428 8.167 3.428s6.368-1.281 8.167-3.428c.888-1.059 2.464-1.196 3.522-.31 1.058.887 1.196 2.464.31 3.521-2.737 3.267-7.223 5.216-11.999 5.216z"/></g></g><g><g><path d="m103.046 256h-73.681c-2.177 0-4.276-.914-5.76-2.507-1.484-1.594-2.246-3.753-2.092-5.924l4.848-67.923c.522-7.613 5.213-14.204 12.241-17.195l33.677-14.331c1.511-.641 3.218-.589 4.685.144 1.469.733 2.537 2.068 2.93 3.662l25.576 100.96c.189.748.022 1.541-.451 2.149-.474.61-1.202.965-1.973.965zm-76.544-8.075c-.058.804.213 1.571.762 2.161.55.589 1.296.914 2.102.914h70.469l-24.791-97.861c-.058-.234-.201-.347-.313-.402-.112-.056-.286-.104-.494-.015l-33.677 14.331c-5.288 2.25-8.817 7.209-9.21 12.942z"/></g></g><g><g><path d="m176.727 256h-73.681c-.771 0-1.499-.355-1.973-.965-.474-.608-.641-1.401-.451-2.149l25.579-100.976c.39-1.579 1.458-2.913 2.927-3.646 1.466-.733 3.175-.784 4.687-.142 1.271.541 1.861 2.009 1.32 3.279-.54 1.271-2.013 1.863-3.279 1.32-.208-.088-.384-.04-.494.016-.111.055-.255.167-.31.386l-24.794 97.877h70.469c.806 0 1.552-.325 2.102-.914.549-.59.819-1.357.762-2.161l-3.211-44.985c-.098-1.377.938-2.573 2.316-2.671 1.361-.104 2.572.938 2.672 2.315l3.211 44.985c.154 2.171-.607 4.33-2.092 5.924-1.484 1.593-3.584 2.507-5.76 2.507z"/></g></g><g><g><path d="m154.591 254.925c-1.381 0-2.5-1.119-2.5-2.5v-52.752c0-3.133.521-6.235 1.548-9.222.449-1.305 1.871-1.999 3.178-1.551 1.306.449 2 1.872 1.551 3.178-.847 2.461-1.276 5.017-1.276 7.595v52.752c-.001 1.381-1.12 2.5-2.501 2.5z"/></g></g><g><g><path d="m51.501 254.925c-1.381 0-2.5-1.119-2.5-2.5v-52.752c0-6.438-2.694-12.653-7.392-17.054l-10.39-9.733c-1.008-.943-1.06-2.525-.115-3.533.943-1.007 2.525-1.061 3.533-.115l10.39 9.733c5.703 5.342 8.974 12.888 8.974 20.702v52.752c0 1.381-1.119 2.5-2.5 2.5z"/></g></g><g><g><path d="m91.775 255.265c-.942 0-1.845-.536-2.269-1.446l-17.806-38.285c-.885-1.902-.918-4.099-.092-6.026l3.962-9.244-8.657-1.998c-1.982-.458-3.367-2.198-3.367-4.233v-40c0-1.381 1.119-2.5 2.5-2.5s2.5 1.119 2.5 2.5v39.479l8.912 2.057c1.258.29 2.314 1.117 2.898 2.269.583 1.151.626 2.491.118 3.677l-4.271 9.964c-.268.623-.257 1.333.029 1.947l17.807 38.284c.582 1.252.04 2.739-1.212 3.321-.341.158-.699.234-1.052.234z"/></g></g><g><g><path d="m114.206 255.502c-.353 0-.711-.075-1.053-.234-1.252-.582-1.794-2.069-1.212-3.321l17.917-38.521c.286-.614.297-1.324.03-1.946l-4.271-9.965c-.509-1.187-.465-2.527.119-3.679.585-1.151 1.642-1.978 2.899-2.268l8.91-2.056v-32.202c0-1.381 1.119-2.5 2.5-2.5s2.5 1.119 2.5 2.5v32.723c0 2.035-1.385 3.775-3.367 4.233l-8.657 1.998 3.963 9.245c.826 1.928.792 4.123-.093 6.025l-17.917 38.521c-.423.911-1.326 1.447-2.268 1.447z"/></g></g><g><g><path d="m89.028 177.391c-.044 0-.088 0-.132-.001-1.379-.038-2.674-.67-3.553-1.733l-6.104-7.39c-.879-1.064-.729-2.64.336-3.52 1.063-.878 2.638-.73 3.52.336l5.942 7.193 7.744-8.39-15.018-15.786-4.204 3.839c-1.021.932-2.602.857-3.532-.161-.931-1.02-.858-2.601.161-3.532l4.658-4.253c1.745-1.592 4.488-1.496 6.116.216l15.688 16.491c1.672 1.759 1.693 4.534.047 6.317l-8.157 8.837c-.908.982-2.181 1.537-3.512 1.537z"/></g></g><g><g><path d="m117.064 177.391c-1.332 0-2.604-.555-3.511-1.536l-8.158-8.838c-1.646-1.783-1.625-4.559.047-6.317l15.688-16.491c1.629-1.714 4.372-1.81 6.116-.215l4.845 4.422c1.02.932 1.092 2.513.161 3.532-.93 1.019-2.512 1.092-3.532.161l-4.391-4.009-15.019 15.787 7.744 8.39 6.042-7.314c.879-1.066 2.456-1.215 3.52-.336 1.064.88 1.215 2.455.336 3.52l-6.203 7.51c-.878 1.063-2.173 1.695-3.552 1.733-.044.001-.089.001-.133.001z"/></g></g><g><g><path d="m112.609 217.635c-1.263 0-2.348-.953-2.483-2.237l-4.48-42.346c-.146-1.373.851-2.604 2.224-2.749 1.365-.139 2.604.851 2.749 2.224l4.48 42.346c.146 1.373-.851 2.604-2.224 2.749-.089.008-.178.013-.266.013z"/></g></g><g><g><path d="m93.482 217.635c-.088 0-.177-.005-.266-.014-1.373-.146-2.369-1.376-2.224-2.749l4.483-42.371c.146-1.374 1.385-2.352 2.749-2.224 1.373.146 2.369 1.376 2.224 2.749l-4.483 42.371c-.135 1.285-1.22 2.238-2.483 2.238z"/></g></g><g><g><g><path d="m103.046 176.081c-3.616 0-7.028-1.593-9.36-4.368-.889-1.058-.751-2.635.306-3.522 1.058-.888 2.636-.75 3.522.306 1.38 1.643 3.396 2.585 5.532 2.585s4.152-.942 5.532-2.585c.887-1.058 2.465-1.194 3.522-.306s1.194 2.465.306 3.522c-2.332 2.775-5.744 4.368-9.36 4.368z"/></g></g></g><g><g><g><circle cx="119.835" cy="90.816" r="5"/></g></g><g><g><circle cx="86.256" cy="90.816" r="5"/></g></g><g><g><path d="m128.521 106.015h-9.237c-7.457 0-13.524-6.067-13.524-13.524v-6.39c0-5.577 4.538-10.115 10.115-10.115h16.057c5.577 0 10.114 4.538 10.114 10.115v6.39c0 7.456-6.067 13.524-13.525 13.524zm-12.646-25.03c-2.82 0-5.115 2.295-5.115 5.115v6.39c0 4.7 3.824 8.524 8.524 8.524h9.237c4.7 0 8.524-3.824 8.524-8.524v-6.39c0-2.82-2.294-5.115-5.114-5.115z"/></g></g><g><g><path d="m86.808 106.015h-9.238c-7.457 0-13.524-6.067-13.524-13.524v-6.39c0-5.577 4.537-10.115 10.114-10.115h16.057c5.577 0 10.115 4.538 10.115 10.115v6.39c0 7.456-6.067 13.524-13.524 13.524zm-12.648-25.03c-2.82 0-5.114 2.295-5.114 5.115v6.39c0 4.7 3.824 8.524 8.524 8.524h9.237c4.7 0 8.524-3.824 8.524-8.524v-6.39c0-2.82-2.295-5.115-5.115-5.115z"/></g></g><g><g><path d="m107.218 89.925h-8.344c-1.381 0-2.5-1.119-2.5-2.5s1.119-2.5 2.5-2.5h8.344c1.381 0 2.5 1.119 2.5 2.5s-1.119 2.5-2.5 2.5z"/></g></g></g><g><g><path d="m229.224 144.601h-6.485c-1.222 0-2.297-.814-2.617-1.993-.869-3.209-2.143-6.251-3.763-9.07-.61-1.061-.427-2.397.438-3.263l4.59-4.591c1.087-1.086 1.087-2.848 0-3.935l-7.525-7.525c-1.086-1.086-2.848-1.086-3.934 0l-4.59 4.589c-.866.866-2.202 1.048-3.264.438-2.819-1.62-5.86-2.893-9.069-3.762-1.179-.319-1.993-1.395-1.993-2.617v-6.485c0-1.537-1.246-2.782-2.782-2.782h-10.643c-1.537 0-2.782 1.245-2.782 2.782v6.485c0 1.222-.814 2.298-1.993 2.617-3.209.869-6.251 2.142-9.07 3.762-1.061.61-2.398.427-3.264-.438l-4.59-4.589c-1.087-1.086-2.848-1.086-3.934 0l-7.526 7.525c-1.087 1.087-1.087 2.849 0 3.935l4.59 4.591c.866.866 1.048 2.202.438 3.263-1.619 2.819-2.893 5.861-3.762 9.07-.319 1.179-1.395 1.993-2.617 1.993h-6.485c-1.536 0-2.782 1.245-2.782 2.782v10.643c0 1.537 1.245 2.783 2.782 2.783h6.485c1.222 0 2.297.813 2.617 1.993.869 3.209 2.143 6.251 3.762 9.069.61 1.061.427 2.398-.438 3.264l-4.59 4.59c-1.087 1.086-1.087 2.849 0 3.935l7.525 7.525c1.086 1.086 2.848 1.086 3.934 0l4.59-4.59c.866-.866 2.202-1.048 3.264-.438 2.819 1.619 5.861 2.893 9.07 3.762 1.179.32 1.993 1.395 1.993 2.617v6.485c0 1.537 1.245 2.782 2.782 2.782h10.643c1.537 0 2.782-1.246 2.782-2.782v-6.485c0-1.222.814-2.297 1.993-2.617 3.209-.869 6.251-2.143 9.069-3.762 1.061-.61 2.398-.427 3.264.438l4.59 4.59c1.086 1.086 2.848 1.086 3.934 0l7.526-7.525c1.087-1.086 1.087-2.849 0-3.935l-4.59-4.59c-.866-.866-1.048-2.202-.438-3.264 1.619-2.819 2.893-5.86 3.763-9.069.319-1.18 1.395-1.993 2.617-1.993h6.485c1.536 0 2.782-1.246 2.782-2.783v-10.643c0-1.537-1.246-2.782-2.782-2.782z" fill="#edf4fc"/></g></g><g><g><circle cx="182.908" cy="152.704" fill="#fcdd86" r="26"/></g></g><g><g><path d="m182.194 135.784c-7.693.358-13.984 6.754-14.225 14.452-.166 5.32 2.454 10.027 6.506 12.801 1.121.767 1.766 2.06 1.766 3.418v1.556c0 1.533 1.243 2.777 2.777 2.777h7.779c1.533 0 2.777-1.243 2.777-2.777v-1.556c0-1.365.655-2.656 1.78-3.427 3.923-2.692 6.5-7.197 6.5-12.314 0-8.491-7.081-15.329-15.66-14.93z" fill="#f5c84c"/></g></g><g><g><path d="m186.797 170.788h-7.779c-.485 0-.934-.135-1.331-.354v7.745c1.686.344 3.432.525 5.22.525s3.534-.181 5.22-.525v-7.745c-.396.219-.845.354-1.33.354z" fill="#70d6f9"/></g></g><g><g><path d="m188.229 204.302h-10.643c-2.913 0-5.282-2.369-5.282-5.282v-6.485c0-.097-.061-.18-.146-.203-3.37-.913-6.621-2.262-9.661-4.008-.082-.046-.182-.031-.25.037l-4.592 4.591c-.996.998-2.323 1.548-3.734 1.548s-2.737-.55-3.735-1.548l-7.525-7.525c-2.06-2.06-2.06-5.41 0-7.47l4.59-4.59c.068-.068.084-.172.039-.251-1.746-3.04-3.095-6.29-4.008-9.661-.023-.086-.107-.146-.204-.146h-6.484c-2.913 0-5.282-2.369-5.282-5.282v-10.643c0-2.913 2.369-5.282 5.282-5.282h6.484c.097 0 .181-.062.205-.148.912-3.369 2.26-6.619 4.006-9.659.047-.081.031-.182-.038-.251l-4.59-4.591c-2.059-2.059-2.06-5.409-.001-7.469l7.526-7.525c.998-.998 2.324-1.548 3.735-1.548s2.738.55 3.735 1.549l4.59 4.587c.069.069.17.083.25.04 3.037-1.746 6.288-3.095 9.662-4.009.087-.023.146-.106.146-.203v-6.485c0-2.912 2.369-5.281 5.282-5.281h10.643c2.913 0 5.282 2.369 5.282 5.281v6.485c0 .097.06.18.145.202 3.374.914 6.624 2.263 9.663 4.009.08.045.182.03.25-.037l4.591-4.59c.998-.998 2.324-1.548 3.735-1.548s2.738.55 3.735 1.549l7.524 7.523c.998.998 1.548 2.324 1.548 3.735s-.55 2.738-1.549 3.735l-4.589 4.59c-.068.069-.084.171-.038.251 1.746 3.039 3.095 6.289 4.008 9.661.023.086.107.146.204.146h6.484c2.913 0 5.282 2.369 5.282 5.282v10.643c0 2.913-2.369 5.282-5.282 5.282h-6.484c-.097 0-.181.061-.204.146-.913 3.373-2.262 6.623-4.009 9.661-.045.078-.028.183.04.252l4.59 4.589c2.06 2.06 2.06 5.41 0 7.47l-7.526 7.525c-.996.998-2.323 1.548-3.734 1.548s-2.737-.55-3.735-1.548l-4.59-4.59c-.069-.069-.172-.083-.25-.039-3.043 1.748-6.294 3.097-9.662 4.009-.086.023-.146.106-.146.203v6.485c0 2.914-2.369 5.283-5.283 5.283zm-25.827-21.003c.887 0 1.779.226 2.586.689 2.668 1.532 5.521 2.716 8.477 3.517 2.261.612 3.84 2.68 3.84 5.029v6.485c0 .155.127.282.282.282h10.643c.155 0 .282-.127.282-.282v-6.485c0-2.35 1.579-4.417 3.84-5.029 2.954-.8 5.807-1.983 8.478-3.518 2.034-1.168 4.616-.824 6.277.84l4.589 4.589c.11.108.288.108.398.001l7.527-7.526c.109-.11.109-.289 0-.399l-4.591-4.59c-1.661-1.663-2.006-4.244-.839-6.277 1.533-2.667 2.717-5.519 3.518-8.477.612-2.261 2.681-3.84 5.03-3.84h6.484c.155 0 .282-.127.282-.282v-10.643c0-.155-.127-.282-.282-.282h-6.484c-2.35 0-4.418-1.579-5.03-3.84-.801-2.958-1.984-5.81-3.518-8.478-1.167-2.033-.822-4.613.838-6.275l4.591-4.592c.055-.056.083-.122.083-.199 0-.078-.028-.145-.083-.2l-7.525-7.524c-.112-.11-.289-.109-.399 0l-4.59 4.589c-1.662 1.662-4.243 2.007-6.277.838-2.667-1.532-5.519-2.716-8.477-3.517-2.26-.61-3.84-2.679-3.84-5.029v-6.485c0-.155-.127-.281-.282-.281h-10.643c-.155 0-.282.126-.282.281v6.485c0 2.351-1.58 4.419-3.842 5.03-2.957.801-5.81 1.984-8.475 3.516-2.036 1.172-4.617.825-6.278-.839l-4.59-4.587c-.113-.112-.289-.11-.399-.001l-7.525 7.524c-.109.11-.109.289 0 .399l4.59 4.591c1.663 1.662 2.008 4.244.838 6.277-1.531 2.668-2.715 5.52-3.516 8.477-.614 2.262-2.683 3.84-5.03 3.84h-6.484c-.155 0-.282.127-.282.282v10.643c0 .155.127.282.282.282h6.484c2.348 0 4.416 1.578 5.03 3.838.801 2.959 1.984 5.812 3.517 8.479 1.169 2.033.824 4.614-.839 6.277l-4.59 4.59c-.109.11-.109.289 0 .399l7.525 7.525c.11.108.287.108.398.001l4.592-4.591c1.003-1.004 2.341-1.527 3.691-1.527z"/></g></g><g><g><path d="m182.908 171.352c-1.381 0-2.5-1.119-2.5-2.5v-13c0-1.381 1.119-2.5 2.5-2.5s2.5 1.119 2.5 2.5v13c0 1.38-1.119 2.5-2.5 2.5z"/></g></g><g><g><path d="m185.908 157.352h-6c-1.381 0-2.5-1.119-2.5-2.5s1.119-2.5 2.5-2.5h6c1.381 0 2.5 1.119 2.5 2.5s-1.119 2.5-2.5 2.5z"/></g></g><g><g><path d="m182.908 181.204c-15.715 0-28.5-12.785-28.5-28.5s12.785-28.5 28.5-28.5 28.5 12.785 28.5 28.5-12.785 28.5-28.5 28.5zm0-52c-12.958 0-23.5 10.542-23.5 23.5s10.542 23.5 23.5 23.5 23.5-10.542 23.5-23.5-10.542-23.5-23.5-23.5z"/></g></g><g><g><path d="m186.798 173.288h-7.779c-2.909 0-5.276-2.367-5.276-5.276v-1.556c0-.558-.254-1.065-.679-1.356-4.941-3.382-7.78-8.968-7.593-14.941.282-9.04 7.577-16.45 16.607-16.871 4.846-.229 9.395 1.483 12.875 4.807 3.483 3.324 5.401 7.807 5.401 12.62 0 5.743-2.836 11.117-7.586 14.376-.435.298-.694.809-.694 1.365v1.557c0 2.908-2.367 5.275-5.276 5.275zm-4.487-35.007c-6.439.3-11.641 5.586-11.842 12.033-.134 4.261 1.892 8.245 5.419 10.66 1.787 1.224 2.854 3.272 2.854 5.481v1.556c0 .152.124.276.276.276h7.779c.152 0 .276-.124.276-.276v-1.557c0-2.206 1.071-4.258 2.866-5.488 3.39-2.326 5.414-6.159 5.414-10.253 0-3.434-1.368-6.632-3.854-9.004-2.482-2.37-5.77-3.576-9.188-3.428z"/></g></g><g><g><path d="m188.128 180.135c-1.381 0-2.5-1.119-2.5-2.5v-6.251c0-1.381 1.119-2.5 2.5-2.5s2.5 1.119 2.5 2.5v6.251c0 1.381-1.119 2.5-2.5 2.5z"/></g></g><g><g><path d="m177.688 180.13c-1.381 0-2.5-1.119-2.5-2.5v-6.382c0-1.381 1.119-2.5 2.5-2.5s2.5 1.119 2.5 2.5v6.382c0 1.381-1.119 2.5-2.5 2.5z"/></g></g><g><g><path d="m45.709 117.33c-4.498-.838-8.043-4.31-8.898-8.716-.043-.221-.352-.221-.395 0-.855 4.406-4.4 7.879-8.898 8.716-.226.042-.226.345 0 .387 4.498.838 8.043 4.31 8.898 8.717.043.221.352.221.395 0 .855-4.406 4.4-7.879 8.898-8.717.226-.042.226-.344 0-.387z" fill="#f5c84c"/></g></g><g><g><path d="m180.402 83.101c-2.862-.533-5.118-2.743-5.663-5.547-.027-.141-.224-.141-.251 0-.544 2.804-2.8 5.014-5.663 5.547-.144.027-.144.219 0 .246 2.862.533 5.118 2.743 5.663 5.547.027.141.224.141.251 0 .544-2.804 2.8-5.014 5.663-5.547.144-.027.144-.219 0-.246z" fill="#fc657e"/></g></g><g><g><path d="m153.134 14.75h2.33v-2.33c0-1.744 1.413-3.157 3.157-3.157s3.157 1.413 3.157 3.157v2.33h2.329c1.744 0 3.157 1.413 3.157 3.157s-1.413 3.157-3.157 3.157h-2.329v2.33c0 1.744-1.413 3.157-3.157 3.157s-3.157-1.413-3.157-3.157v-2.33h-2.33c-1.744 0-3.157-1.413-3.157-3.157s1.413-3.157 3.157-3.157z" fill="#70d6f9"/></g></g><g><g><circle cx="25.642" cy="148.825" fill="#87d147" r="3.377"/></g></g><g><g><circle cx="135.642" cy="3.377" fill="#f5c84c" r="3.377"/></g></g></g></g></svg>