<svg id="Capa_1" enable-background="new 0 0 512 512" height="512" viewBox="0 0 512 512" width="512" xmlns="http://www.w3.org/2000/svg"><g><g><g><ellipse cx="256" cy="470.406" fill="#ffd15b" rx="25" ry="25" transform="matrix(.234 -.972 .972 .234 -261.288 609.084)"/></g><g><ellipse cx="256" cy="41.594" fill="#ffd15b" rx="25" ry="25" transform="matrix(.234 -.972 .972 .234 155.592 280.726)"/></g><g><path d="m256 16.594c-3.749 0-7.305.835-10.5 2.32 8.553 3.976 14.5 12.644 14.5 22.68s-5.947 18.704-14.5 22.68c3.195 1.485 6.751 2.32 10.5 2.32 13.785 0 25-11.215 25-25s-11.215-25-25-25z" fill="#ffc344"/></g><g><path d="m256 445.406c-3.749 0-7.305.835-10.5 2.32 8.553 3.976 14.5 12.644 14.5 22.68s-5.947 18.704-14.5 22.68c3.195 1.485 6.751 2.32 10.5 2.32 13.785 0 25-11.215 25-25s-11.215-25-25-25z" fill="#ffc344"/></g><g><g><g><g><g><g><path d="m482.704 94.604-29.359-13.324c-5.659 3.202-12.187 5.039-19.139 5.039s-13.48-1.837-19.139-5.039l-29.358 13.324c-7.735 3.511-12.703 11.22-12.703 19.715v21.543c0 4.783 3.877 8.66 8.66 8.66h105.08c4.783 0 8.66-3.877 8.66-8.66v-21.543c0-8.494-4.967-16.204-12.702-19.715z" fill="#0ed290"/></g><g><g><path d="m482.704 94.604-29.359-13.324c-5.659 3.201-12.187 5.039-19.139 5.039-.277 0-.549-.021-.824-.027l18.316 8.313c7.735 3.51 12.703 11.22 12.703 19.714v21.543c0 4.783-3.877 8.66-8.66 8.66h31.006c4.783 0 8.66-3.877 8.66-8.66v-21.543c-.001-8.494-4.968-16.204-12.703-19.715z" fill="#00c285"/></g></g><g><circle cx="434.206" cy="47.317" fill="#05e39c" r="39.817"/></g><g><path d="m434.206 7.5c-5.503 0-10.745 1.116-15.512 3.135 14.284 6.048 24.306 20.195 24.306 36.682s-10.022 30.635-24.306 36.683c4.767 2.018 10.009 3.135 15.512 3.135 21.991 0 39.818-17.827 39.818-39.817 0-21.991-17.827-39.818-39.818-39.818z" fill="#0ed290"/></g></g></g></g><g><g><g><g><path d="m29.296 94.604 29.359-13.324c5.659 3.202 12.187 5.039 19.139 5.039s13.48-1.837 19.139-5.039l29.358 13.324c7.735 3.511 12.703 11.22 12.703 19.715v21.543c0 4.783-3.877 8.66-8.66 8.66h-105.08c-4.783 0-8.66-3.877-8.66-8.66v-21.543c0-8.494 4.967-16.204 12.702-19.715z" fill="#0ed290"/></g><g><g><path d="m126.291 94.604-29.358-13.324c-4.843 2.74-10.326 4.47-16.164 4.915l18.529 8.409c7.735 3.511 12.703 11.22 12.703 19.715v21.543c0 4.783-3.877 8.66-8.66 8.66h26.994c4.783 0 8.66-3.877 8.66-8.66v-21.543c-.001-8.494-4.969-16.204-12.704-19.715z" fill="#00c285"/></g></g><g><circle cx="77.794" cy="47.317" fill="#05e39c" r="39.817"/></g><g><path d="m77.794 7.5c-5.503 0-10.745 1.116-15.512 3.135 14.284 6.048 24.306 20.195 24.306 36.682s-10.022 30.635-24.306 36.683c4.767 2.018 10.009 3.135 15.512 3.135 21.991 0 39.818-17.827 39.818-39.817-.001-21.991-17.828-39.818-39.818-39.818z" fill="#0ed290"/></g></g></g></g></g><g><g><g><path d="m380.745 268.35v-24.699c0-6.601-5.351-11.952-11.952-11.952h-6.16c-5.159 0-9.681-3.329-11.345-8.212-1.389-4.079-3.032-8.04-4.912-11.864-2.278-4.635-1.441-10.191 2.21-13.842l4.353-4.353c4.667-4.667 4.667-12.235 0-16.902l-17.465-17.465c-4.667-4.667-12.235-4.667-16.902 0l-4.353 4.353c-3.652 3.652-9.208 4.488-13.843 2.21-3.824-1.879-7.785-3.522-11.864-4.912-4.883-1.663-8.212-6.186-8.212-11.345v-6.16c0-6.601-5.351-11.952-11.952-11.952h-24.699c-6.601 0-11.952 5.351-11.952 11.952v6.16c0 5.159-3.329 9.681-8.212 11.345-4.079 1.389-8.04 3.032-11.865 4.912-4.635 2.278-10.191 1.441-13.842-2.21l-4.353-4.353c-4.667-4.667-12.235-4.667-16.902 0l-17.465 17.465c-4.668 4.667-4.667 12.235 0 16.902l4.353 4.353c3.652 3.652 4.488 9.208 2.21 13.843-1.88 3.824-3.522 7.786-4.912 11.864-1.663 4.883-6.186 8.212-11.345 8.212h-6.16c-6.601 0-11.952 5.351-11.952 11.952v24.699c0 6.601 5.351 11.952 11.952 11.952h6.16c5.159 0 9.681 3.329 11.345 8.212 1.39 4.079 3.033 8.04 4.912 11.864 2.278 4.635 1.442 10.191-2.21 13.843l-4.353 4.353c-4.668 4.667-4.668 12.235 0 16.902l17.465 17.465c4.667 4.667 12.235 4.667 16.902 0l4.353-4.353c3.652-3.652 9.207-4.488 13.842-2.21 3.825 1.879 7.786 3.522 11.865 4.912 4.883 1.663 8.212 6.186 8.212 11.345v6.16c0 6.601 5.351 11.952 11.952 11.952h24.699c6.601 0 11.952-5.351 11.952-11.952v-6.16c0-5.159 3.329-9.681 8.212-11.345 4.079-1.39 8.04-3.033 11.865-4.912 4.635-2.278 10.191-1.442 13.843 2.21l4.353 4.353c4.667 4.667 12.235 4.667 16.902 0l17.465-17.465c4.667-4.667 4.667-12.235 0-16.902l-4.353-4.353c-3.652-3.652-4.488-9.208-2.21-13.843 1.879-3.824 3.522-7.785 4.912-11.864 1.663-4.883 6.186-8.212 11.345-8.212h6.16c6.6-.002 11.951-5.353 11.951-11.953z" fill="#978ecb"/></g><path d="m368.794 231.699h-6.16c-5.159 0-9.681-3.329-11.345-8.212-1.389-4.079-3.032-8.04-4.912-11.865-2.278-4.635-1.441-10.191 2.21-13.842l4.353-4.353c4.667-4.667 4.667-12.235 0-16.902l-17.465-17.465c-4.667-4.667-12.235-4.667-16.902 0l-4.354 4.354c-3.652 3.652-9.208 4.488-13.842 2.21-3.824-1.879-7.785-3.522-11.864-4.912-4.883-1.663-8.212-6.186-8.212-11.345v-6.16c0-6.601-5.351-11.952-11.952-11.952h-24.699c-6.31 0-11.465 4.893-11.908 11.09 31.195 14.154 55.525 40.776 66.646 73.502 9.933 10.478 16.045 24.61 16.045 40.153 0 15.545-6.113 29.68-16.047 40.159-11.122 32.723-35.451 59.343-66.644 73.496.443 6.197 5.598 11.09 11.908 11.09h24.699c6.601 0 11.952-5.351 11.952-11.952v-6.16c0-5.159 3.329-9.681 8.212-11.345 4.079-1.39 8.04-3.033 11.865-4.912 4.635-2.278 10.191-1.442 13.842 2.21l4.354 4.354c4.667 4.667 12.235 4.667 16.902 0l17.465-17.465c4.667-4.667 4.667-12.235 0-16.902l-4.353-4.354c-3.652-3.652-4.488-9.208-2.21-13.843 1.879-3.824 3.522-7.785 4.912-11.864 1.663-4.883 6.186-8.212 11.345-8.212h6.16c6.601 0 11.952-5.351 11.952-11.952v-24.699c-.002-6.599-5.353-11.95-11.953-11.95z" fill="#8379c1"/><g><path d="m296.46 213.9c.703 3.024 1.086 6.169 1.086 9.404 0 22.908-18.638 41.546-41.546 41.546s-41.546-18.638-41.546-41.546c0-3.234.384-6.379 1.086-9.403-11.066 10.639-17.973 25.573-17.973 42.099 0 32.221 26.213 58.433 58.433 58.433 32.221 0 58.433-26.213 58.433-58.433.001-16.527-6.907-31.461-17.973-42.1z" fill="#fff"/></g><g><path d="m281.962 255.705c-7.118 5.715-16.145 9.145-25.962 9.145s-18.844-3.43-25.962-9.145l-25.515 27.918c9.873 18.325 29.242 30.811 51.477 30.811 22.234 0 41.603-12.485 51.477-30.81z" fill="#0ed290"/></g><g><g><path d="m281.962 255.705c-7.118 5.715-16.145 9.145-25.962 9.145-1.645 0-3.265-.104-4.86-.292l28.809 44.731c11.747-5.302 21.442-14.372 27.527-25.666z" fill="#00c285"/></g></g></g><g><g><g><circle cx="256" cy="223.304" fill="#05e39c" r="42.546"/></g></g><g><path d="m256 180.757c-4.391 0-8.619.681-12.602 1.919 17.31 5.393 29.875 21.542 29.875 40.627s-12.566 35.234-29.875 40.627c3.983 1.238 8.211 1.919 12.602 1.919 23.498 0 42.547-19.049 42.547-42.547s-19.049-42.545-42.547-42.545z" fill="#0ed290"/></g></g></g><g><g><g><path d="m482.704 454.582-29.359-13.324c-5.659 3.202-12.187 5.039-19.139 5.039s-13.48-1.837-19.139-5.039l-29.358 13.324c-7.735 3.511-12.703 11.22-12.703 19.715v21.543c0 4.783 3.877 8.66 8.66 8.66h105.08c4.783 0 8.66-3.877 8.66-8.66v-21.543c0-8.495-4.967-16.204-12.702-19.715z" fill="#8ac9fe"/></g><g><g><path d="m482.704 454.582-29.359-13.324c-5.659 3.201-12.187 5.039-19.139 5.039-.277 0-.549-.021-.824-.027l18.316 8.312c7.735 3.51 12.703 11.22 12.703 19.715v21.543c0 4.783-3.877 8.66-8.66 8.66h31.006c4.783 0 8.66-3.877 8.66-8.66v-21.543c-.001-8.495-4.968-16.204-12.703-19.715z" fill="#60b7ff"/></g></g><g><circle cx="434.206" cy="407.295" fill="#b3dafe" r="39.817"/></g><g><path d="m434.206 367.478c-5.503 0-10.745 1.116-15.512 3.135 14.284 6.047 24.306 20.194 24.306 36.682s-10.022 30.635-24.306 36.683c4.767 2.018 10.009 3.135 15.512 3.135 21.991 0 39.818-17.827 39.818-39.817 0-21.991-17.827-39.818-39.818-39.818z" fill="#8ac9fe"/></g></g></g><g><g><g><path d="m126.291 454.582-29.359-13.324c-5.659 3.202-12.187 5.039-19.139 5.039s-13.48-1.837-19.139-5.039l-29.358 13.324c-7.735 3.511-12.703 11.22-12.703 19.715v21.543c0 4.783 3.877 8.66 8.66 8.66h105.08c4.783 0 8.66-3.877 8.66-8.66v-21.543c.001-8.495-4.967-16.204-12.702-19.715z" fill="#8ac9fe"/></g><g><g><path d="m126.291 454.582-29.359-13.324c-5.659 3.201-12.187 5.039-19.139 5.039-.277 0-.549-.021-.824-.027l18.316 8.312c7.735 3.51 12.703 11.22 12.703 19.715v21.543c0 4.783-3.877 8.66-8.66 8.66h31.006c4.783 0 8.66-3.877 8.66-8.66v-21.543c0-8.495-4.968-16.204-12.703-19.715z" fill="#60b7ff"/></g></g><g><circle cx="77.794" cy="407.295" fill="#b3dafe" r="39.817"/></g><g><path d="m77.794 367.478c-5.503 0-10.745 1.116-15.512 3.135 14.284 6.048 24.306 20.195 24.306 36.682s-10.022 30.635-24.306 36.683c4.767 2.018 10.009 3.135 15.512 3.135 21.991 0 39.818-17.827 39.818-39.817-.001-21.991-17.828-39.818-39.818-39.818z" fill="#8ac9fe"/></g></g></g></g><g><ellipse cx="470.406" cy="256" fill="#ffd15b" rx="25" ry="25" transform="matrix(.234 -.972 .972 .234 111.331 653.345)"/></g><g><path d="m470.406 231c-3.634 0-7.085.786-10.203 2.186 8.712 3.911 14.797 12.662 14.797 22.814s-6.085 18.903-14.797 22.814c3.118 1.4 6.57 2.186 10.203 2.186 13.785 0 25-11.215 25-25s-11.215-25-25-25z" fill="#ffc344"/></g><g><ellipse cx="41.594" cy="256" fill="#ffd15b" rx="25" ry="25" transform="matrix(.234 -.972 .972 .234 -217.027 236.465)"/></g><g><path d="m41.594 231c-3.634 0-7.085.786-10.203 2.186 8.712 3.911 14.797 12.663 14.797 22.814 0 10.152-6.085 18.903-14.797 22.814 3.118 1.4 6.57 2.186 10.203 2.186 13.785 0 25-11.215 25-25s-11.215-25-25-25z" fill="#ffc344"/></g></g><g><path d="m441.706 186.1v-34.077h45.04c8.911 0 16.16-7.249 16.16-16.16v-21.544c0-11.409-6.713-21.827-17.103-26.543l-17.34-7.87c8.083-8.493 13.06-19.967 13.06-32.588 0-26.091-21.226-47.318-47.317-47.318-17.729 0-33.826 9.788-42.007 25.544-1.909 3.676-.476 8.203 3.2 10.112 3.677 1.908 8.204.477 10.112-3.2 5.592-10.768 16.587-17.456 28.695-17.456 17.82 0 32.317 14.497 32.317 32.317s-14.498 32.317-32.317 32.317c-12.553 0-24.071-7.372-29.345-18.781-1.737-3.76-6.193-5.401-9.955-3.661-3.76 1.737-5.399 6.194-3.662 9.954 2.208 4.777 5.167 9.068 8.694 12.764l-17.33 7.865c-10.39 4.716-17.103 15.135-17.103 26.544v21.543c0 8.911 7.25 16.16 16.16 16.16h45.04v34.078c0 4.136-3.364 7.5-7.5 7.5h-57.299c3.592-7.271 2.382-16.333-3.663-22.379l-17.465-17.465c-7.584-7.584-19.925-7.584-27.508 0l-4.353 4.354c-1.346 1.345-3.448 1.659-5.232.782-4.122-2.025-8.413-3.802-12.754-5.279-1.873-.638-3.13-2.344-3.13-4.245v-6.16c0-10.726-8.726-19.452-19.452-19.452h-4.849v-50.546c14.315-3.396 25-16.278 25-31.617 0-17.921-14.58-32.5-32.5-32.5s-32.5 14.579-32.5 32.5c0 15.339 10.685 28.221 25 31.617v50.544h-4.849c-10.726 0-19.452 8.727-19.452 19.452v6.16c0 1.901-1.258 3.607-3.129 4.245-4.34 1.478-8.631 3.253-12.756 5.28-1.784.877-3.887.561-5.23-.783l-4.354-4.354c-7.583-7.583-19.923-7.583-27.508 0l-17.465 17.466c-3.674 3.674-5.697 8.559-5.697 13.754 0 3.045.713 5.974 2.027 8.624h-57.293c-4.136 0-7.5-3.364-7.5-7.5v-34.077h45.04c8.911 0 16.16-7.249 16.16-16.16v-21.543c0-11.409-6.713-21.829-17.103-26.544l-17.34-7.87c8.083-8.493 13.06-19.967 13.06-32.588 0-26.089-21.226-47.316-47.317-47.316s-47.317 21.227-47.317 47.317c0 12.622 4.977 24.096 13.06 32.588l-17.34 7.87c-10.39 4.716-17.103 15.134-17.103 26.543v21.544c0 8.911 7.25 16.16 16.16 16.16h45.04v34.078c0 12.406 10.093 22.5 22.5 22.5h65.964c-1.967 4.032-3.7 8.224-5.146 12.469-.638 1.873-2.344 3.131-4.246 3.131h-6.16c-10.726 0-19.452 8.726-19.452 19.451v4.85h-50.543c-3.396-14.315-16.278-25-31.617-25-17.92 0-32.5 14.579-32.5 32.5s14.58 32.5 32.5 32.5c15.339 0 28.221-10.685 31.617-25h50.544v4.85c0 10.726 8.726 19.452 19.452 19.452h6.16c1.901 0 3.607 1.258 4.245 3.129 1.445 4.244 3.178 8.436 5.146 12.47h-65.964c-12.407 0-22.5 10.094-22.5 22.5v34.678c-22.539 3.605-39.817 23.178-39.817 46.717 0 12.622 4.977 24.096 13.06 32.588l-17.34 7.87c-10.39 4.716-17.103 15.135-17.103 26.544v21.543c0 8.911 7.25 16.16 16.16 16.16h16.746c4.142 0 7.5-3.357 7.5-7.5s-3.358-7.502-7.5-7.502h-16.746c-.64 0-1.16-.521-1.16-1.16v-21.543c0-5.538 3.259-10.597 8.302-12.886l25.09-11.387c6.158 2.938 13.043 4.588 20.308 4.588s14.151-1.65 20.308-4.588l25.09 11.387c5.043 2.289 8.302 7.348 8.302 12.886v21.543c0 .64-.521 1.16-1.16 1.16h-53.334c-4.142 0-7.5 3.357-7.5 7.5s3.358 7.5 7.5 7.5h53.334c8.911 0 16.16-7.249 16.16-16.16v-21.543c0-11.409-6.713-21.828-17.103-26.544l-17.34-7.87c8.083-8.493 13.06-19.967 13.06-32.588 0-23.539-17.279-43.111-39.817-46.717v-34.678c0-4.136 3.364-7.5 7.5-7.5h57.293c-1.315 2.65-2.027 5.58-2.027 8.624 0 5.196 2.023 10.081 5.697 13.755l17.464 17.464c3.674 3.675 8.559 5.698 13.755 5.698s10.081-2.023 13.754-5.697l4.353-4.354c1.346-1.345 3.448-1.659 5.232-.782 4.121 2.024 8.412 3.801 12.754 5.28 1.872.638 3.13 2.344 3.13 4.245v6.16c0 10.726 8.726 19.451 19.452 19.451h4.849v50.544c-14.315 3.396-25 16.278-25 31.617 0 17.921 14.58 32.5 32.5 32.5s32.5-14.579 32.5-32.5c0-15.339-10.685-28.221-25-31.617v-50.544h4.849c10.726 0 19.452-8.726 19.452-19.451v-6.16c0-1.901 1.258-3.607 3.13-4.245 4.343-1.479 8.634-3.256 12.753-5.28 1.786-.877 3.887-.562 5.232.782l4.353 4.353c3.674 3.675 8.559 5.698 13.755 5.698s10.081-2.023 13.754-5.698l17.464-17.464c3.674-3.674 5.697-8.559 5.697-13.755 0-3.044-.713-5.974-2.027-8.624h11.088c4.142 0 7.5-3.357 7.5-7.5s-3.358-7.5-7.5-7.5h-19.757c1.968-4.035 3.701-8.227 5.145-12.469.638-1.872 2.344-3.13 4.245-3.13h6.16c10.726 0 19.452-8.727 19.452-19.452v-4.85h50.544c3.396 14.315 16.278 25 31.617 25 17.92 0 32.5-14.579 32.5-32.5s-14.58-32.5-32.5-32.5c-15.339 0-28.221 10.685-31.617 25h-50.544v-4.85c0-10.726-8.726-19.451-19.452-19.451h-6.16c-1.901 0-3.607-1.259-4.245-3.131-1.446-4.245-3.179-8.436-5.146-12.469h65.964c12.407.002 22.5-10.092 22.5-22.498zm-61.2-50.238v-21.543c0-5.538 3.259-10.597 8.302-12.886l25.121-11.401c6.234 2.969 13.139 4.602 20.277 4.602 7.265 0 14.151-1.65 20.308-4.588l25.09 11.387c5.043 2.289 8.302 7.347 8.302 12.885v21.544c0 .64-.521 1.16-1.16 1.16h-105.08c-.64 0-1.16-.52-1.16-1.16zm-142.006-94.268c0-9.649 7.851-17.5 17.5-17.5s17.5 7.851 17.5 17.5-7.851 17.5-17.5 17.5-17.5-7.851-17.5-17.5zm-160.706-26.594c17.82 0 32.317 14.497 32.317 32.317s-14.497 32.318-32.317 32.318-32.317-14.497-32.317-32.318 14.497-32.317 32.317-32.317zm-53.7 120.862v-21.544c0-5.538 3.259-10.596 8.302-12.885l25.09-11.387c6.158 2.938 13.043 4.588 20.308 4.588s14.151-1.65 20.308-4.588l25.09 11.387c5.043 2.289 8.302 7.348 8.302 12.886v21.543c0 .64-.52 1.16-1.16 1.16h-105.08c-.64 0-1.16-.52-1.16-1.16zm17.5 137.638c-9.649 0-17.5-7.851-17.5-17.5s7.851-17.5 17.5-17.5 17.5 7.851 17.5 17.5-7.851 17.5-17.5 17.5zm68.517 133.795c0 17.82-14.498 32.317-32.317 32.317s-32.317-14.497-32.317-32.317 14.498-32.317 32.317-32.317 32.317 14.497 32.317 32.317zm163.389 63.111c0 9.649-7.851 17.5-17.5 17.5s-17.5-7.851-17.5-17.5 7.851-17.5 17.5-17.5 17.5 7.851 17.5 17.5zm196.906-231.906c9.649 0 17.5 7.851 17.5 17.5s-7.851 17.5-17.5 17.5-17.5-7.851-17.5-17.5 7.851-17.5 17.5-17.5zm-107.773.699h6.16c2.455 0 4.452 1.997 4.452 4.451v24.699c0 2.455-1.997 4.452-4.452 4.452h-6.16c-8.324 0-15.736 5.343-18.444 13.294-1.272 3.735-2.801 7.428-4.543 10.975-3.708 7.546-2.247 16.569 3.638 22.454l4.353 4.352c.841.842 1.304 1.96 1.304 3.148 0 1.189-.463 2.307-1.304 3.147l-17.465 17.466c-.841.841-1.958 1.304-3.147 1.304s-2.307-.463-3.148-1.305l-4.354-4.354c-5.883-5.883-14.906-7.346-22.453-3.638-3.546 1.742-7.239 3.271-10.976 4.544-7.952 2.708-13.294 10.12-13.294 18.444v6.16c0 2.454-1.997 4.451-4.452 4.451h-24.698c-2.455 0-4.452-1.997-4.452-4.451v-6.16c0-8.324-5.342-15.736-13.293-18.444-3.737-1.272-7.43-2.802-10.976-4.544-2.78-1.366-5.76-2.03-8.711-2.03-5.057 0-10.026 1.952-13.742 5.668l-4.354 4.354c-.841.841-1.958 1.304-3.147 1.304s-2.307-.463-3.148-1.305l-17.465-17.465c-.841-.841-1.304-1.958-1.304-3.147 0-1.188.463-2.307 1.304-3.147l4.353-4.353c5.885-5.885 7.347-14.908 3.639-22.454-1.742-3.545-3.271-7.238-4.544-10.977-2.708-7.95-10.121-13.292-18.444-13.292h-6.16c-2.455 0-4.452-1.997-4.452-4.452v-24.698c0-2.454 1.997-4.451 4.452-4.451h6.16c8.323 0 15.735-5.342 18.444-13.294 1.273-3.738 2.802-7.431 4.543-10.975 3.709-7.547 2.247-16.57-3.638-22.453l-4.354-4.354c-.841-.841-1.304-1.958-1.304-3.147 0-1.188.463-2.307 1.304-3.147l17.465-17.465c1.735-1.735 4.56-1.736 6.295 0l4.354 4.354c5.885 5.885 14.908 7.346 22.452 3.638 3.549-1.743 7.241-3.271 10.977-4.543 7.951-2.71 13.293-10.122 13.293-18.444v-6.16c0-2.455 1.997-4.452 4.452-4.452h24.698c2.455 0 4.452 1.997 4.452 4.452v6.16c0 8.324 5.343 15.736 13.295 18.444 3.735 1.271 7.427 2.8 10.973 4.542 7.544 3.711 16.569 2.247 22.454-3.637l4.354-4.354c.841-.841 1.958-1.304 3.147-1.304s2.307.463 3.148 1.304l17.464 17.464c1.736 1.736 1.736 4.561 0 6.297l-4.352 4.353c-5.885 5.884-7.348 14.907-3.639 22.453 1.742 3.545 3.271 7.237 4.543 10.975 2.712 7.95 10.124 13.293 18.447 13.293z"/><path d="m242.444 228.849c4.142 0 7.5-3.357 7.5-7.5v-7.481c0-4.143-3.358-7.5-7.5-7.5s-7.5 3.357-7.5 7.5v7.481c0 4.142 3.358 7.5 7.5 7.5z"/><path d="m269.556 228.849c4.142 0 7.5-3.357 7.5-7.5v-7.481c0-4.143-3.358-7.5-7.5-7.5s-7.5 3.357-7.5 7.5v7.481c0 4.142 3.358 7.5 7.5 7.5z"/><path d="m256 173.257c-23.556 0-43.351 16.364-48.645 38.318-11.157 12.193-17.288 27.875-17.288 44.425 0 36.355 29.578 65.934 65.933 65.934 36.356 0 65.934-29.578 65.934-65.934 0-16.549-6.132-32.232-17.289-44.427-5.295-21.953-25.089-38.316-48.645-38.316zm0 15c19.325 0 35.046 15.722 35.046 35.047 0 19.324-15.722 35.046-35.046 35.046s-35.046-15.722-35.046-35.046c0-19.325 15.721-35.047 35.046-35.047zm-49.014 81.555c-1.24-4.396-1.919-9.025-1.919-13.812 0-6.135 1.101-12.113 3.191-17.718 2.186 6.947 5.837 13.251 10.607 18.532zm49.014 37.122c-17.514 0-32.99-8.887-42.16-22.388l16.645-18.212c7.477 4.45 16.2 7.016 25.515 7.016s18.038-2.566 25.515-7.016l16.645 18.212c-9.17 13.5-24.646 22.388-42.16 22.388zm49.015-37.122-11.879-12.998c4.77-5.281 8.421-11.585 10.607-18.532 2.09 5.605 3.191 11.583 3.191 17.718 0 4.787-.679 9.416-1.919 13.812z"/><path d="m485.803 447.753-17.34-7.87c8.083-8.493 13.06-19.967 13.06-32.588 0-23.539-17.279-43.111-39.817-46.717v-34.678c0-12.406-10.093-22.5-22.5-22.5h-11.206c-4.142 0-7.5 3.357-7.5 7.5s3.358 7.5 7.5 7.5h11.206c4.136 0 7.5 3.364 7.5 7.5v34.678c-22.539 3.605-39.817 23.178-39.817 46.717 0 12.622 4.977 24.096 13.06 32.588l-17.34 7.87c-10.39 4.716-17.103 15.135-17.103 26.544v21.543c0 8.911 7.25 16.16 16.16 16.16h105.08c8.911 0 16.16-7.249 16.16-16.16v-21.543c0-11.409-6.713-21.828-17.103-26.544zm-51.597-72.775c17.82 0 32.317 14.497 32.317 32.317s-14.498 32.317-32.317 32.317-32.317-14.497-32.317-32.317 14.497-32.317 32.317-32.317zm53.7 120.862c0 .64-.521 1.16-1.16 1.16h-105.08c-.64 0-1.16-.521-1.16-1.16v-21.543c0-5.538 3.259-10.597 8.302-12.886l25.09-11.387c6.157 2.938 13.043 4.588 20.308 4.588s14.151-1.65 20.308-4.588l25.09 11.387c5.043 2.289 8.302 7.348 8.302 12.886z"/></g></g></svg>