<svg id="Layer_1" viewBox="0 0 512 512" xmlns="http://www.w3.org/2000/svg" data-name="Layer 1"><path d="m488.318 209.512c-4.054-43.625-40.876-77.925-85.55-77.925h-.057c-44.674 0-81.496 34.299-85.55 77.925h171.156z" fill="#f7cb7f"/><path d="m402.711 115.572h.057c24.52-.029 44.447-19.956 44.447-44.476s-19.956-44.504-44.476-44.504-44.476 19.956-44.476 44.504 19.928 44.447 44.447 44.476z" fill="#faefe8"/><path d="m256.642 115.572h.085c24.52-.029 44.447-19.956 44.447-44.476s-19.956-44.504-44.476-44.504-44.504 19.956-44.504 44.504 19.928 44.447 44.447 44.476z" fill="#faefe8"/><path d="m113.719 276.183c4.309-.964 8.589 1.729 9.581 6.038 5.329 23.641 16.98 45.553 33.647 63.298 3.033 3.26 2.891 8.305-.34 11.31-1.559 1.474-3.515 2.183-5.471 2.183-2.126 0-4.252-.85-5.839-2.523-18.624-19.843-31.663-44.305-37.616-70.753-.964-4.309 1.729-8.589 6.038-9.553zm73.502 103.068c1.899-3.997 6.69-5.698 10.658-3.77 18.425 8.788 38.211 13.238 58.819 13.238 4.422 0 7.994 3.572 7.994 7.994s-3.572 8.022-7.994 8.022c-22.989 0-45.099-4.989-65.707-14.825-3.997-1.899-5.669-6.69-3.77-10.658zm120.416-.312c16.441-6.633 31.294-16.271 44.135-28.687 17.887-17.32 30.728-39.146 37.105-63.071 1.134-4.28 5.499-6.832 9.78-5.698 4.252 1.134 6.803 5.527 5.669 9.808-7.115 26.731-21.43 51.109-41.443 70.469-14.315 13.862-30.898 24.605-49.294 32.003-.964.397-1.984.567-2.976.567-3.175 0-6.151-1.899-7.427-5.017-1.644-4.082.34-8.759 4.45-10.375zm-269.886-95.67 43.2 9.808c2.863.68 5.159 2.835 5.953 5.698 3.827 14.003 9.439 27.496 16.639 40.138 1.446 2.58 1.389 5.726-.198 8.221l-23.584 37.531c-2.154 3.402-6.576 11.906-1.134 17.348l28.006 28.006c5.443 5.443 13.975 1.021 17.376-1.105l37.502-23.613c1.304-.822 2.778-1.247 4.28-1.247 1.361 0 2.721.369 3.94 1.049 12.671 7.2 26.164 12.813 40.167 16.668 2.835.793 5.017 3.061 5.669 5.924l9.836 43.2c.879 3.94 3.798 13.068 11.48 13.068h39.6c7.682 0 10.602-9.127 11.509-13.068l9.808-43.2c.652-2.863 2.835-5.131 5.669-5.924 14.003-3.855 27.496-9.468 40.167-16.668 2.58-1.446 5.726-1.389 8.22.198l37.502 23.613c3.43 2.126 11.934 6.548 17.376 1.105l28.006-28.006c5.443-5.442 1.02-13.946-1.134-17.348l-23.584-37.502c-1.587-2.495-1.644-5.669-.17-8.221 7.2-12.671 12.784-26.164 16.639-40.167.765-2.863 3.061-5.046 5.924-5.698l43.2-9.808c3.94-.907 13.068-3.798 13.068-11.509v-11.792h-121.691c-4.11 57.26-52.016 102.586-110.296 102.586s-106.214-45.326-110.324-102.586h-121.689v11.792c0 7.71 9.156 10.602 13.068 11.509z" fill="#635463"/><path d="m110.544 115.628h.113c24.491-.028 44.419-19.984 44.419-44.476s-19.956-44.476-44.476-44.476-44.476 19.956-44.476 44.476 19.928 44.447 44.419 44.476z" fill="#faefe8"/><path d="m110.629 131.616h-.085c-44.646.029-81.439 34.299-85.493 77.896h171.071c-4.025-43.597-40.847-77.868-85.493-77.896z" fill="#ff7577"/><path d="m301.089 209.512c1.474-18.765 8.05-36.142 18.368-50.712-16.243-17.348-38.778-27.213-62.731-27.213h-.085c-23.981 0-46.517 9.865-62.759 27.269 10.29 14.57 16.838 31.918 18.312 50.655h88.894z" fill="#23ad7f"/><path d="m256.699 346.567c49.465 0 90.17-38.155 94.252-86.599h-188.533c4.082 48.444 44.787 86.599 94.28 86.599z" fill="#fff"/><g fill="#030403"><path d="m145.297 356.488c1.587 1.672 3.713 2.523 5.839 2.523 1.956 0 3.912-.708 5.471-2.183 3.232-3.005 3.373-8.05.34-11.31-16.668-17.745-28.318-39.657-33.647-63.298-.992-4.309-5.272-7.001-9.581-6.038-4.309.964-7.002 5.244-6.038 9.553 5.953 26.447 18.992 50.91 37.616 70.753z"/><path d="m310.614 394.331c.992 0 2.013-.17 2.976-.567 18.397-7.398 34.98-18.142 49.294-32.003 20.013-19.36 34.328-43.738 41.443-70.469 1.134-4.28-1.417-8.674-5.669-9.808-4.28-1.134-8.646 1.417-9.78 5.698-6.378 23.924-19.219 45.751-37.105 63.071-12.841 12.416-27.694 22.053-44.135 28.687-4.11 1.616-6.094 6.293-4.45 10.375 1.276 3.118 4.252 5.017 7.427 5.017z"/><path d="m190.992 389.909c20.608 9.836 42.718 14.825 65.707 14.825 4.422 0 7.994-3.6 7.994-8.022s-3.572-7.994-7.994-7.994c-20.608 0-40.394-4.45-58.819-13.238-3.969-1.927-8.759-.227-10.658 3.77-1.899 3.969-.227 8.759 3.77 10.658z"/><path d="m24.683 259.968h121.691c4.11 57.26 52.016 102.586 110.324 102.586s106.186-45.326 110.296-102.586h121.691v11.792c0 7.71-9.128 10.602-13.068 11.509l-43.2 9.808c-2.863.652-5.159 2.835-5.924 5.698-3.855 14.003-9.439 27.496-16.639 40.167-1.474 2.551-1.417 5.726.17 8.221l23.584 37.502c2.154 3.402 6.576 11.906 1.134 17.348l-28.006 28.006c-5.443 5.443-13.946 1.021-17.376-1.105l-37.502-23.613c-2.494-1.587-5.641-1.644-8.22-.198-12.671 7.2-26.164 12.813-40.167 16.668-2.835.793-5.017 3.061-5.669 5.924l-9.808 43.2c-.907 3.94-3.827 13.068-11.509 13.068h-39.6c-7.682 0-10.602-9.127-11.48-13.068l-9.836-43.2c-.652-2.863-2.835-5.131-5.669-5.924-14.003-3.855-27.496-9.468-40.167-16.668-1.219-.68-2.58-1.049-3.94-1.049-1.502 0-2.976.425-4.28 1.247l-37.502 23.613c-3.402 2.126-11.934 6.548-17.376 1.105l-28.006-28.006c-5.443-5.442-1.02-13.946 1.134-17.348l23.584-37.531c1.587-2.495 1.644-5.641.198-8.221-7.2-12.643-12.813-26.135-16.639-40.138-.794-2.863-3.09-5.017-5.953-5.698l-43.2-9.808c-3.912-.907-13.068-3.798-13.068-11.509v-11.792zm326.268 0c-4.082 48.444-44.787 86.599-94.252 86.599s-90.198-38.155-94.28-86.599zm-316.744 38.892 38.58 8.787c3.657 12.076 8.532 23.811 14.513 34.979l-21.09 33.506c-8.589 13.663-8.164 27.921 1.106 37.191l28.006 28.006c9.298 9.297 23.556 9.723 37.219 1.105l33.506-21.09c11.169 5.981 22.876 10.857 34.98 14.513l8.759 38.608c3.6 15.732 13.975 25.512 27.099 25.512h39.6c13.124 0 23.499-9.78 27.099-25.512l8.787-38.608c12.076-3.656 23.783-8.532 34.951-14.513l33.534 21.09c13.663 8.617 27.921 8.192 37.191-1.105l28.006-28.006c9.269-9.27 9.694-23.528 1.106-37.191l-21.09-33.506c5.981-11.168 10.857-22.875 14.513-34.979l38.58-8.787c15.761-3.572 25.512-13.947 25.512-27.099v-19.786c0-4.422-3.572-7.994-7.994-7.994h-479.991c-4.422 0-7.994 3.572-7.994 7.994v19.786c0 13.153 9.78 23.528 25.512 27.099z"/><path d="m110.544 131.616h.085c44.646.029 81.468 34.299 85.493 77.896h-171.07c4.054-43.597 40.847-77.868 85.493-77.896zm-44.419-60.463c0-24.52 19.956-44.476 44.476-44.476s44.476 19.956 44.476 44.476-19.928 44.447-44.419 44.476h-.113c-24.491-.028-44.419-19.984-44.419-44.476zm190.517 60.435h.085c23.953 0 46.488 9.865 62.731 27.213-10.318 14.57-16.894 31.947-18.368 50.712h-88.894c-1.474-18.737-8.022-36.085-18.312-50.655 16.243-17.405 38.778-27.269 62.759-27.269zm-44.447-60.491c0-24.548 19.956-44.504 44.504-44.504s44.476 19.956 44.476 44.504-19.928 44.447-44.447 44.476h-.085c-24.52-.029-44.447-19.956-44.447-44.476zm190.517 60.491h.057c44.674 0 81.496 34.299 85.55 77.925h-171.156c4.054-43.625 40.876-77.925 85.55-77.925zm-44.447-60.491c0-24.548 19.956-44.504 44.476-44.504s44.476 19.956 44.476 44.504-19.928 44.447-44.447 44.476h-.057c-24.52-.029-44.447-19.956-44.447-44.476zm-341.576 154.431h479.991c4.422 0 7.994-3.572 7.994-7.994 0-44.419-28.545-82.29-68.258-96.236 16.157-10.857 26.816-29.31 26.816-50.201 0-33.364-27.128-60.491-60.491-60.491s-60.491 27.128-60.491 60.491c0 20.891 10.658 39.345 26.816 50.201-15.024 5.272-28.432 13.975-39.317 25.143-11.083-11.452-24.548-20.012-39.345-25.172 16.158-10.857 26.787-29.31 26.787-50.173 0-33.364-27.128-60.491-60.491-60.491s-60.52 27.128-60.52 60.491c0 20.863 10.658 39.316 26.787 50.173-14.797 5.188-28.261 13.748-39.402 25.2-10.857-11.169-24.293-19.843-39.288-25.115 16.129-10.885 26.787-29.31 26.787-50.201 0-33.335-27.128-60.463-60.463-60.463s-60.463 27.128-60.463 60.463c0 20.891 10.63 39.317 26.759 50.201-39.685 13.947-68.202 51.789-68.202 96.18 0 4.422 3.572 7.994 7.994 7.994z"/></g></svg>