<svg height="512" viewBox="0 0 64 64" width="512" xmlns="http://www.w3.org/2000/svg"><g id="Networking-Team-Recruit-Business-Selection"><path d="m61 59.47v1.53h-16v-1.53a4.02 4.02 0 0 1 2.21-3.58l1.5-.75 1.29 2.86 3-2 3 2 1.29-2.86 1.5.75a4.02 4.02 0 0 1 2.21 3.58z" fill="#3d9ae2"/><path d="m61 21.47v1.53h-16v-1.53a4.02 4.02 0 0 1 2.21-3.58l1.5-.75 1.29 2.86 3-2 3 2 1.29-2.86 1.5.75a4.02 4.02 0 0 1 2.21 3.58z" fill="#3d9ae2"/><g fill="#1e81ce"><path d="m57.29 55.14-1.29 2.86-3-2 2-2z"/><path d="m57.29 17.14-1.29 2.86-3-2 2-2z"/><path d="m53 18-3 2-1.29-2.86 2.29-1.14z"/><path d="m53 56-3 2-1.29-2.86 2.29-1.14z"/></g><path d="m40 39.47v3.53h-16v-3.53a4.02 4.02 0 0 1 2.21-3.58l1.5-.75 1.29 2.86 3-2 3 2 1.29-2.86 1.5.75a4.02 4.02 0 0 1 2.21 3.58z" fill="#3d9ae2"/><path d="m36.29 35.14-1.29 2.86-3-2 2-2z" fill="#1e81ce"/><path d="m32 36-3 2-1.29-2.86 2.29-1.14z" fill="#1e81ce"/><path d="m19 59.47v1.53h-16v-1.53a4.02 4.02 0 0 1 2.21-3.58l1.5-.75 1.29 2.86 3-2 3 2 1.29-2.86 1.5.75a4.02 4.02 0 0 1 2.21 3.58z" fill="#3d9ae2"/><path d="m19 21.47v1.53h-16v-1.53a4.02 4.02 0 0 1 2.21-3.58l1.5-.75 1.29 2.86 3-2 3 2 1.29-2.86 1.5.75a4.02 4.02 0 0 1 2.21 3.58z" fill="#3d9ae2"/><path d="m15.29 55.14-1.29 2.86-3-2 2-2z" fill="#1e81ce"/><path d="m15.29 17.14-1.29 2.86-3-2 2-2z" fill="#1e81ce"/><path d="m11 18-3 2-1.29-2.86 2.29-1.14z" fill="#1e81ce"/><path d="m11 56-3 2-1.29-2.86 2.29-1.14z" fill="#1e81ce"/><path d="m15 7v1h-1a1.961 1.961 0 0 1 -1.42-.59 1.987 1.987 0 0 1 -.58-1.41 2.006 2.006 0 0 1 -2 2h-3v-1a4 4 0 0 1 8 0z" fill="#57565c"/><path d="m13 13v3l-2 2-2-2v-3z" fill="#ffc477"/><path d="m13 13v2.46a3.974 3.974 0 0 1 -4 0v-2.46z" fill="#ffb655"/><path d="m15 9v1a4 4 0 0 1 -8 0v-2h3a2.006 2.006 0 0 0 2-2 1.987 1.987 0 0 0 .58 1.41 1.961 1.961 0 0 0 1.42.59h1z" fill="#ffc477"/><path d="m57 7v1h-1a1.961 1.961 0 0 1 -1.42-.59 1.987 1.987 0 0 1 -.58-1.41 2.006 2.006 0 0 1 -2 2h-3v-1a4 4 0 0 1 8 0z" fill="#57565c"/><path d="m55 13v3l-2 2-2-2v-3z" fill="#ffc477"/><path d="m55 13v2.46a3.974 3.974 0 0 1 -4 0v-2.46z" fill="#ffb655"/><path d="m57 9v1a4 4 0 0 1 -8 0v-2h3a2.006 2.006 0 0 0 2-2 1.987 1.987 0 0 0 .58 1.41 1.961 1.961 0 0 0 1.42.59h1z" fill="#ffc477"/><path d="m36 25v1h-1a1.961 1.961 0 0 1 -1.42-.59 1.987 1.987 0 0 1 -.58-1.41 2.006 2.006 0 0 1 -2 2h-3v-1a4 4 0 0 1 8 0z" fill="#57565c"/><path d="m34 31v3l-2 2-2-2v-3z" fill="#ffc477"/><path d="m34 31v2.46a3.974 3.974 0 0 1 -4 0v-2.46z" fill="#ffb655"/><path d="m36 27v1a4 4 0 0 1 -8 0v-2h3a2.006 2.006 0 0 0 2-2 1.987 1.987 0 0 0 .58 1.41 1.961 1.961 0 0 0 1.42.59h1z" fill="#ffc477"/><path d="m15 45v1h-1a1.961 1.961 0 0 1 -1.42-.59 1.987 1.987 0 0 1 -.58-1.41 2.006 2.006 0 0 1 -2 2h-3v-1a4 4 0 0 1 8 0z" fill="#57565c"/><path d="m13 51v3l-2 2-2-2v-3z" fill="#ffc477"/><path d="m13 51v2.46a3.974 3.974 0 0 1 -4 0v-2.46z" fill="#ffb655"/><path d="m15 47v1a4 4 0 0 1 -8 0v-2h3a2.006 2.006 0 0 0 2-2 1.987 1.987 0 0 0 .58 1.41 1.961 1.961 0 0 0 1.42.59h1z" fill="#ffc477"/><path d="m57 45v1h-1a1.961 1.961 0 0 1 -1.42-.59 1.987 1.987 0 0 1 -.58-1.41 2.006 2.006 0 0 1 -2 2h-3v-1a4 4 0 0 1 8 0z" fill="#57565c"/><path d="m55 51v3l-2 2-2-2v-3z" fill="#ffc477"/><path d="m55 51v2.46a3.974 3.974 0 0 1 -4 0v-2.46z" fill="#ffb655"/><path d="m57 47v1a4 4 0 0 1 -8 0v-2h3a2.006 2.006 0 0 0 2-2 1.987 1.987 0 0 0 .58 1.41 1.961 1.961 0 0 0 1.42.59h1z" fill="#ffc477"/><path d="m59.24 55-3.24-1.62v-1.41a4.952 4.952 0 0 0 2-3.97v-3a5 5 0 0 0 -10 0v3a4.952 4.952 0 0 0 2 3.97v1.41l-3.24 1.62a4.979 4.979 0 0 0 -2.76 4.47v1.53a1 1 0 0 0 1 1h16a1 1 0 0 0 1-1v-1.53a4.979 4.979 0 0 0 -2.76-4.47zm-6.24-13a3.009 3.009 0 0 1 3 3 .99.99 0 0 1 -1-1 1 1 0 0 0 -2 0 1 1 0 0 1 -1 1h-2a3.009 3.009 0 0 1 3-3zm-3 5h2a3.006 3.006 0 0 0 2-.76 2.983 2.983 0 0 0 2 .76v1a3 3 0 0 1 -6 0zm5.98 8.61-.41.9-1-.67.63-.62zm-1.98-2.71v.69l-1 1-1-1v-.69a5.05 5.05 0 0 0 2 0zm-2.57 2.94-1 .67-.41-.9.78-.39zm8.57 4.16h-14v-.53a2.988 2.988 0 0 1 1.66-2.68l.57-.29.86 1.91a.985.985 0 0 0 .63.55.9.9 0 0 0 .28.04.967.967 0 0 0 .55-.17l2.45-1.63 2.45 1.63a.967.967 0 0 0 .55.17.9.9 0 0 0 .28-.04.985.985 0 0 0 .63-.55l.86-1.91.57.29a2.988 2.988 0 0 1 1.66 2.68z"/><path d="m17.24 55-3.24-1.62v-1.41a4.952 4.952 0 0 0 2-3.97v-3a5 5 0 0 0 -10 0v3a4.952 4.952 0 0 0 2 3.97v1.41l-3.24 1.62a4.979 4.979 0 0 0 -2.76 4.47v1.53a1 1 0 0 0 1 1h16a1 1 0 0 0 1-1v-1.53a4.979 4.979 0 0 0 -2.76-4.47zm-6.24-13a3.009 3.009 0 0 1 3 3 .99.99 0 0 1 -1-1 1 1 0 0 0 -2 0 1 1 0 0 1 -1 1h-2a3.009 3.009 0 0 1 3-3zm-3 5h2a3.006 3.006 0 0 0 2-.76 2.983 2.983 0 0 0 2 .76v1a3 3 0 0 1 -6 0zm5.98 8.61-.41.9-1-.67.63-.62zm-1.98-2.71v.69l-1 1-1-1v-.69a5.05 5.05 0 0 0 2 0zm-2.57 2.94-1 .67-.41-.9.78-.39zm8.57 4.16h-14v-.53a2.988 2.988 0 0 1 1.66-2.68l.57-.29.86 1.91a.985.985 0 0 0 .63.55.9.9 0 0 0 .28.04.967.967 0 0 0 .55-.17l2.45-1.63 2.45 1.63a.967.967 0 0 0 .55.17.9.9 0 0 0 .28-.04.985.985 0 0 0 .63-.55l.86-1.91.57.29a2.988 2.988 0 0 1 1.66 2.68z"/><path d="m59.24 17-3.24-1.62v-1.41a4.952 4.952 0 0 0 2-3.97v-3a5 5 0 0 0 -10 0v3a4.952 4.952 0 0 0 2 3.97v1.41l-3.24 1.62a4.979 4.979 0 0 0 -2.76 4.47v1.53a1 1 0 0 0 1 1h16a1 1 0 0 0 1-1v-1.53a4.979 4.979 0 0 0 -2.76-4.47zm-6.24-13a3.009 3.009 0 0 1 3 3 .99.99 0 0 1 -1-1 1 1 0 0 0 -2 0 1 1 0 0 1 -1 1h-2a3.009 3.009 0 0 1 3-3zm-3 5h2a3.006 3.006 0 0 0 2-.76 2.983 2.983 0 0 0 2 .76v1a3 3 0 0 1 -6 0zm5.98 8.61-.41.9-1-.67.63-.62zm-1.98-2.71v.69l-1 1-1-1v-.69a5.05 5.05 0 0 0 2 0zm-2.57 2.94-1 .67-.41-.9.78-.39zm8.57 4.16h-14v-.53a2.988 2.988 0 0 1 1.66-2.68l.57-.29.86 1.91a.985.985 0 0 0 .63.55.9.9 0 0 0 .28.04.967.967 0 0 0 .55-.17l2.45-1.63 2.45 1.63a.967.967 0 0 0 .55.17.9.9 0 0 0 .28-.04.985.985 0 0 0 .63-.55l.86-1.91.57.29a2.988 2.988 0 0 1 1.66 2.68z"/><path d="m17.24 17-3.24-1.62v-1.41a4.952 4.952 0 0 0 2-3.97v-3a5 5 0 0 0 -10 0v3a4.952 4.952 0 0 0 2 3.97v1.41l-3.24 1.62a4.979 4.979 0 0 0 -2.76 4.47v1.53a1 1 0 0 0 1 1h16a1 1 0 0 0 1-1v-1.53a4.979 4.979 0 0 0 -2.76-4.47zm-6.24-13a3.009 3.009 0 0 1 3 3 .99.99 0 0 1 -1-1 1 1 0 0 0 -2 0 1 1 0 0 1 -1 1h-2a3.009 3.009 0 0 1 3-3zm-3 5h2a3.006 3.006 0 0 0 2-.76 2.983 2.983 0 0 0 2 .76v1a3 3 0 0 1 -6 0zm5.98 8.61-.41.9-1-.67.63-.62zm-1.98-2.71v.69l-1 1-1-1v-.69a5.05 5.05 0 0 0 2 0zm-2.57 2.94-1 .67-.41-.9.78-.39zm8.57 4.16h-14v-.53a2.988 2.988 0 0 1 1.66-2.68l.57-.29.86 1.91a.985.985 0 0 0 .63.55.9.9 0 0 0 .28.04.967.967 0 0 0 .55-.17l2.45-1.63 2.45 1.63a.967.967 0 0 0 .55.17.9.9 0 0 0 .28-.04.985.985 0 0 0 .63-.55l.86-1.91.57.29a2.988 2.988 0 0 1 1.66 2.68z"/><path d="m38.24 35-3.24-1.62v-1.41a4.952 4.952 0 0 0 2-3.97v-3a5 5 0 0 0 -10 0v3a4.952 4.952 0 0 0 2 3.97v1.41l-3.24 1.62a4.979 4.979 0 0 0 -2.76 4.47v3.53a1 1 0 0 0 1 1h16a1 1 0 0 0 1-1v-3.53a4.979 4.979 0 0 0 -2.76-4.47zm-6.24-13a3.009 3.009 0 0 1 3 3 .99.99 0 0 1 -1-1 1 1 0 0 0 -2 0 1 1 0 0 1 -1 1h-2a3.009 3.009 0 0 1 3-3zm-3 5h2a3.006 3.006 0 0 0 2-.76 2.983 2.983 0 0 0 2 .76v1a3 3 0 0 1 -6 0zm5.98 8.61-.41.9-1-.67.63-.62zm-1.98-2.71v.69l-1 1-1-1v-.69a5.05 5.05 0 0 0 2 0zm-2.57 2.94-1 .67-.41-.9.78-.39zm8.57 6.16h-14v-2.53a2.988 2.988 0 0 1 1.66-2.68l.57-.29.86 1.91a.985.985 0 0 0 .63.55.9.9 0 0 0 .28.04.967.967 0 0 0 .55-.17l2.45-1.63 2.45 1.63a.967.967 0 0 0 .55.17.9.9 0 0 0 .28-.04.985.985 0 0 0 .63-.55l.86-1.91.57.29a2.988 2.988 0 0 1 1.66 2.68z"/><path d="m44 31h18v2h-18z"/><path d="m2 31h18v2h-18z"/><path d="m31 2h2v16h-2z"/><path d="m31 46h2v16h-2z"/></g></svg>