<?xml version="1.0" encoding="UTF-8"?>
<svg xmlns="http://www.w3.org/2000/svg" id="Layer_1" data-name="Layer 1" viewBox="0 0 64 64" width="512" height="512"><circle cx="32" cy="25" r="3" fill="#ffc173"/><path d="M37,32v4.07a13.91,13.91,0,0,1-10,0V32a3,3,0,0,1,3-3h4A3,3,0,0,1,37,32Z" fill="#4993f2"/><path d="M51.06,19h0a2,2,0,0,1-1.89-1.36,17,17,0,0,0-1.24-3,2,2,0,0,1,.37-2.31h0a2,2,0,0,0,0-2.74L45.39,6.69a2,2,0,0,0-2.74,0h0a2,2,0,0,1-2.31.37,17,17,0,0,0-3-1.24A2,2,0,0,1,36,3.94,1.94,1.94,0,0,0,34.06,2H29.94A1.94,1.94,0,0,0,28,3.94V4a1.92,1.92,0,0,1-1.32,1.84,17,17,0,0,0-3,1.25,2,2,0,0,1-2.31-.37h0a2,2,0,0,0-2.74,0L15.69,9.61a2,2,0,0,0,0,2.74h0a2,2,0,0,1,.37,2.31,17,17,0,0,0-1.24,3A2,2,0,0,1,12.94,19h0A1.94,1.94,0,0,0,11,20.94v4.12A1.94,1.94,0,0,0,12.94,27h0a2,2,0,0,1,1.89,1.36,17,17,0,0,0,1.24,3,2,2,0,0,1-.37,2.31h0a2,2,0,0,0,0,2.74l2.92,2.92a2,2,0,0,0,2.74,0h0a2,2,0,0,1,2.31-.37,17,17,0,0,0,3,1.24A2,2,0,0,1,28,42.06,1.94,1.94,0,0,0,29.94,44h4.12A1.94,1.94,0,0,0,36,42.06a2,2,0,0,1,1.36-1.89,17,17,0,0,0,3-1.24,2,2,0,0,1,2.31.37h0a2,2,0,0,0,2.74,0l2.92-2.92a2,2,0,0,0,0-2.74h0a2,2,0,0,1-.37-2.31,17,17,0,0,0,1.25-3A1.92,1.92,0,0,1,51,27h0A1.94,1.94,0,0,0,53,25.06V20.94A1.94,1.94,0,0,0,51.06,19ZM32,37A14,14,0,1,1,46,23,14,14,0,0,1,32,37Z" fill="#8ea0b3"/><path d="M18,51.38h4.41a10.74,10.74,0,0,0,3.91-.75L30,49.21,38.62,48a2.06,2.06,0,0,1,2.3,1.63h0A2.06,2.06,0,0,1,39.45,52L33,53.74l4.53,1.51h4.54l10.37-3.46a1.62,1.62,0,0,1,1.66.4h0a1.62,1.62,0,0,1-.39,2.58L42.8,60.54l-7.55,1.51-7.4-1.82a10.41,10.41,0,0,0-2.55-.31H18Z" fill="#ffc173"/><rect x="10" y="49" width="8" height="13" transform="translate(28 111) rotate(-180)" fill="#6c8199"/><polygon points="32 13 32.98 14.97 35.15 15.29 33.58 16.83 33.95 19 32 17.98 30.05 19 30.42 16.83 28.85 15.29 31.02 14.97 32 13" fill="#ff6668"/><path d="M12.94,28a1,1,0,0,1,.93.66,19.21,19.21,0,0,0,1.31,3.15A1,1,0,0,1,15,32.94a2.94,2.94,0,0,0,0,4.16L17.9,40a2.94,2.94,0,0,0,4.16,0,1,1,0,0,1,1.13-.19,19.21,19.21,0,0,0,3.15,1.31,1,1,0,0,1,.66.93A2.94,2.94,0,0,0,29.94,45h4.12A2.94,2.94,0,0,0,37,42.06a1,1,0,0,1,.66-.93,19.21,19.21,0,0,0,3.15-1.31,1,1,0,0,1,1.13.19,2.94,2.94,0,0,0,4.16,0L49,37.1a2.94,2.94,0,0,0,0-4.16,1,1,0,0,1-.19-1.13,18.58,18.58,0,0,0,1.32-3.2.92.92,0,0,1,.92-.61A2.94,2.94,0,0,0,54,25.06V20.94A2.94,2.94,0,0,0,51.06,18a1,1,0,0,1-.93-.66,19.21,19.21,0,0,0-1.31-3.15A1,1,0,0,1,49,13.06,2.94,2.94,0,0,0,49,8.9L46.1,6a2.94,2.94,0,0,0-4.16,0,1,1,0,0,1-1.13.19,19.21,19.21,0,0,0-3.15-1.31A1,1,0,0,1,37,3.94,2.94,2.94,0,0,0,34.06,1H29.94A3,3,0,0,0,27,4a.91.91,0,0,1-.61.88,18.58,18.58,0,0,0-3.2,1.32A1,1,0,0,1,22.06,6,2.94,2.94,0,0,0,17.9,6L15,8.9a2.94,2.94,0,0,0,0,4.16,1,1,0,0,1,.19,1.13,19.21,19.21,0,0,0-1.31,3.15,1,1,0,0,1-.93.66A2.94,2.94,0,0,0,10,20.94v4.12A2.94,2.94,0,0,0,12.94,28ZM12,20.94a.94.94,0,0,1,.94-.94,3,3,0,0,0,2.84-2.06A16.93,16.93,0,0,1,17,15.12a3,3,0,0,0-.55-3.48.94.94,0,0,1,0-1.33L19.31,7.4a1,1,0,0,1,1.34,0A3,3,0,0,0,24.12,8,16.89,16.89,0,0,1,27,6.77a2.9,2.9,0,0,0,2-2.83A.94.94,0,0,1,29.94,3h4.12a.94.94,0,0,1,.94.94,3,3,0,0,0,2.06,2.84A16.93,16.93,0,0,1,39.88,8a3,3,0,0,0,3.48-.55.94.94,0,0,1,1.33,0l2.91,2.91a1,1,0,0,1,0,1.34,3,3,0,0,0-.55,3.47,16.93,16.93,0,0,1,1.17,2.82A3,3,0,0,0,51.06,20a.94.94,0,0,1,.94.94v4.12A1,1,0,0,1,51,26a2.89,2.89,0,0,0-2.79,2,16.89,16.89,0,0,1-1.18,2.86,3,3,0,0,0,.55,3.48.94.94,0,0,1,0,1.33L44.69,38.6a1,1,0,0,1-1.34,0,2.94,2.94,0,0,0-3.47-.55,16.93,16.93,0,0,1-2.82,1.17A3,3,0,0,0,35,42.06a.94.94,0,0,1-.94.94H29.94a.94.94,0,0,1-.94-.94,3,3,0,0,0-2.06-2.84,16.93,16.93,0,0,1-2.82-1.17,2.89,2.89,0,0,0-1.36-.34,3,3,0,0,0-2.12.89.94.94,0,0,1-1.33,0L16.4,35.69a1,1,0,0,1,0-1.34A3,3,0,0,0,17,30.88a16.93,16.93,0,0,1-1.17-2.82A3,3,0,0,0,12.94,26a.94.94,0,0,1-.94-.94Z"/><path d="M32,38A15,15,0,1,0,17,23,15,15,0,0,0,32,38Zm4-2.64a12.82,12.82,0,0,1-8,0V32a2,2,0,0,1,2-2h4a2,2,0,0,1,2,2ZM30,25a2,2,0,1,1,2,2A2,2,0,0,1,30,25Zm2-15a13,13,0,0,1,6,24.52V32a4,4,0,0,0-3.45-3.94,4,4,0,1,0-5.1,0A4,4,0,0,0,26,32v2.52A13,13,0,0,1,32,10Z"/><path d="M10,63h8a1,1,0,0,0,1-1V60.92h6.3a9.42,9.42,0,0,1,2.31.28L35,63l.24,0,.2,0L43,61.52a1,1,0,0,0,.27-.1l10.89-5.77a2.63,2.63,0,0,0-2.06-4.81L41.88,54.25h-4.2l-1.25-.41,3.28-.9a3,3,0,0,0-1.23-6l-8.66,1.24a.9.9,0,0,0-.22.06L26,49.7a9.56,9.56,0,0,1-3.54.68H19V49a1,1,0,0,0-1-1H10a1,1,0,0,0-1,1V62A1,1,0,0,0,10,63Zm9-10.62h3.44a11.58,11.58,0,0,0,4.27-.82l3.51-1.38L38.76,49a1,1,0,0,1,.42,2l-6.46,1.77a1,1,0,0,0,0,1.91L37.2,56.2a1.12,1.12,0,0,0,.31,0h4.54a1.12,1.12,0,0,0,.31,0l10.37-3.46a.62.62,0,0,1,.64.15.6.6,0,0,1,.18.54.62.62,0,0,1-.33.46L42.46,59.58,35.27,61l-7.18-1.76a11.4,11.4,0,0,0-2.79-.34H19ZM11,50h6V61H11Z"/><rect x="13" y="57" width="2" height="2"/><path d="M29.35,17.18l-.29,1.65a1,1,0,0,0,.4,1,1,1,0,0,0,1.06.08L32,19.1l1.48.79A1.12,1.12,0,0,0,34,20a1,1,0,0,0,.59-.19,1,1,0,0,0,.4-1l-.29-1.65L35.85,16a1,1,0,0,0-.55-1.71l-1.66-.24-.74-1.5a1,1,0,0,0-1.8,0l-.74,1.5-1.66.24A1,1,0,0,0,28.15,16ZM31.17,16a1,1,0,0,0,.75-.54l.08-.16.08.16a1,1,0,0,0,.75.54L33,16l-.13.12a1,1,0,0,0-.29.89l0,.17-.15-.08a1.06,1.06,0,0,0-.94,0l-.15.08,0-.17a1,1,0,0,0-.29-.89L31,16Z"/></svg>
