<svg id="Capa_1" enable-background="new 0 0 512 512" viewBox="0 0 512 512" xmlns="http://www.w3.org/2000/svg"><g><g><path d="m447.812 326.2h-427.812c-5.523 0-10-4.477-10-10v-21.534c0-5.523 4.477-10 10-10h427.812c5.523 0 10 4.477 10 10v21.534c0 5.523-4.477 10-10 10z" fill="#ffda8f"/><path d="m438.938 326.2h-410.064v126.128c0 11.046 8.954 20 20 20h370.065c11.046 0 20-8.954 20-20v-126.128z" fill="#ffda8f"/><circle cx="150.352" cy="147.758" fill="#ffc8b8" r="53.625"/><path d="m232.703 284.666h-164.703v-26.257c0-31.494 25.531-57.026 57.026-57.026h50.652c31.494 0 57.026 25.531 57.026 57.026v26.257z" fill="#9de3d1"/><path d="m478.138 39.672h-167.947c-13.179 0-23.862 10.684-23.862 23.862v141.24c0 5.401 6.53 8.106 10.349 4.287l30.386-30.386h151.074c13.179 0 23.862-10.684 23.862-23.862v-91.278c0-13.179-10.684-23.863-23.862-23.863z" fill="#fff"/><circle cx="286.328" cy="309.77" fill="#ffc8b8" r="50.577"/><path d="m310.215 360.347h-47.773c-29.704 0-53.785 24.08-53.785 53.785v58.193h155.342v-58.193c0-29.705-24.08-53.785-53.784-53.785z" fill="#b5b4ee"/></g><g><path d="m447.81 274.664h-112.161c-10.994-15.401-28.998-25.471-49.321-25.471-17.123 0-32.597 7.153-43.625 18.613v-9.397c0-30.595-20.613-56.448-48.674-64.451 12.27-11.606 19.948-28.018 19.948-46.199 0-35.083-28.542-63.625-63.625-63.625s-63.625 28.542-63.625 63.625c0 18.182 7.678 34.594 19.948 46.199-28.062 8.002-48.675 33.856-48.675 64.451v16.255h-38c-11.028 0-20 8.972-20 20v21.54c0 10.646 8.368 19.352 18.87 19.943v116.177c0 16.542 13.458 30 30 30h191.98c5.522 0 10-4.477 10-10s-4.478-10-10-10h-22.192v-48.193c0-24.143 19.642-43.785 43.784-43.785h47.773c24.143 0 43.784 19.642 43.784 43.785v48.193h-22.029c-5.522 0-10 4.477-10 10s4.478 10 10 10h86.971c16.542 0 30-13.458 30-30v-116.177c10.501-.592 18.869-9.297 18.869-19.943v-21.54c0-11.028-8.972-20-20-20zm0 20v21.54h-101.25c.224-2.115.345-4.26.345-6.434 0-5.214-.662-10.275-1.907-15.106zm-161.482-25.471c22.374 0 40.577 18.203 40.577 40.577s-18.203 40.577-40.577 40.577-40.577-18.203-40.577-40.577 18.203-40.577 40.577-40.577zm-135.976-165.06c24.055 0 43.625 19.57 43.625 43.625s-19.57 43.625-43.625 43.625-43.625-19.57-43.625-43.625 19.57-43.625 43.625-43.625zm-72.352 154.276c0-25.93 21.096-47.026 47.025-47.026h50.652c25.93 0 47.025 21.096 47.025 47.026v16.255h-144.702zm-58 36.255h207.658c-1.245 4.831-1.907 9.892-1.907 15.106 0 2.174.121 4.319.345 6.434h-206.096zm178.657 119.467v48.193h-149.787c-5.514 0-10-4.486-10-10v-116.12h192.964c3.075 6.313 7.219 12.008 12.188 16.865-26.217 7.924-45.365 32.294-45.365 61.062zm220.283 48.193h-44.941v-48.193c0-28.768-19.148-53.139-45.365-61.062 4.969-4.857 9.114-10.552 12.188-16.865h88.118v116.12c0 5.514-4.486 10-10 10z"/><path d="m478.138 29.672h-167.948c-18.672 0-33.862 15.19-33.862 33.862v141.24c0 6.52 3.893 12.345 9.916 14.84 1.999.828 4.091 1.23 6.163 1.23 4.171 0 8.262-1.632 11.342-4.712l27.457-27.458h146.932c18.672 0 33.862-15.19 33.862-33.862v-91.277c0-18.672-15.19-33.863-33.862-33.863zm13.862 125.141c0 7.644-6.219 13.862-13.862 13.862h-151.074c-2.652 0-5.195 1.054-7.071 2.929l-23.665 23.665v-131.734c0-7.644 6.219-13.862 13.862-13.862h167.947c7.644 0 13.862 6.219 13.862 13.862v91.278z"/><path d="m448.375 77.437h-108.422c-5.522 0-10 4.477-10 10s4.478 10 10 10h108.422c5.522 0 10-4.477 10-10s-4.478-10-10-10z"/><path d="m448.375 118.972h-108.422c-5.522 0-10 4.477-10 10s4.478 10 10 10h108.422c5.522 0 10-4.477 10-10s-4.478-10-10-10z"/><circle cx="286.33" cy="472.328" r="10"/></g></g><g/><g/><g/><g/><g/><g/><g/><g/><g/><g/><g/><g/><g/><g/><g/></svg>