<svg enable-background="new 0 0 512 512" height="512" viewBox="0 0 512 512" width="512" xmlns="http://www.w3.org/2000/svg"><g id="_x31_1_Hr_Policies"><g><path d="m320.18 476.678c0 13.075-10.599 23.674-23.674 23.674h-261.165c-13.075 0-23.674-10.599-23.674-23.674 0-85.193 69.063-154.256 154.256-154.256 85.194 0 154.257 69.062 154.257 154.256z" fill="#e6e8e7"/><path d="m320.169 476.651c0 13.085-10.563 23.728-23.649 23.728h-51.869c13.085 0 23.649-10.642 23.649-23.728 0-42.568-17.263-81.115-45.169-109.02-22.072-22.151-50.924-37.601-83.165-43.041 8.435-1.498 17.106-2.207 25.935-2.207 42.567 0 81.193 17.263 109.099 45.248 27.906 27.905 45.169 66.452 45.169 109.02z" opacity=".15"/><path d="m176.489 350.046 11.546 88.272-22.112 24.861-22.112-24.861 11.546-88.272z" fill="#fd4746"/><path d="m187.544 296.946v38.147c0 11.941-9.68 21.621-21.621 21.621-11.941 0-21.621-9.68-21.621-21.621v-38.147z" fill="#facb00"/><path d="m111.718 118.885c-42.366 17.234-19.606 77.685-19.606 77.685 0 56.216 33.141 115.707 73.786 115.707 40.762 0 73.786-59.491 73.786-115.707 0 0 60.505-154.351-127.966-77.685z" fill="#facb00"/><path d="m239.685 196.572-24.279-16.712c-9.538-6.621-22.151-4.651-30.349 3.547-4.966 4.887-11.667 7.962-19.155 7.962-7.489 0-14.268-3.074-19.155-7.962-8.198-8.198-20.811-10.169-30.349-3.547l-24.279 16.712s-22.781-60.461 19.629-77.725c188.477-76.621 127.937 77.725 127.937 77.725z" fill="#405d6b"/><path d="m500.367 60.024v179.729c0 8.707-7.059 15.766-15.766 15.766h-134.403c-8.707 0-15.766-7.059-15.766-15.766v-212.364c0-8.707 7.059-15.766 15.766-15.766h101.768z" fill="#e6e8e7"/><path d="m500.371 60.041v179.73c0 8.671-7.095 15.766-15.766 15.766h-27.827c8.671 0 15.766-7.095 15.766-15.766v-179.73l-48.4-48.4h27.826z" opacity=".15"/><path d="m500.367 60.024h-32.635c-8.707 0-15.766-7.059-15.766-15.766v-32.635z" fill="#72b505"/><g fill="#094067"><path d="m35.361 506.293h261.158c16.297 0 29.561-13.302 29.561-29.645 0-79.857-57.867-144.638-132.592-157.615v-9.206c30.825-18.961 51.769-67.418 52.101-112.166 3.202-8.645 22.147-63.925-5.697-91.415-21.847-21.555-65.719-19.153-130.398 7.167-37.182 15.119-31.662 61.092-23.287 84.225.326 44.797 21.308 93.316 52.186 112.242v9.147c-74.72 12.845-132.67 77.773-132.67 157.62 0 16.343 13.294 29.646 29.638 29.646zm124.397-144.385c2.004.462 4.054.753 6.139.753 2.097 0 4.156-.292 6.16-.753l9.782 74.516-15.935 17.852-15.866-17.844zm-45.815-237.55c59.052-24.018 99.721-27.367 117.627-9.715 18.939 18.679 9.87 56.829 5.009 72.615-6.394-2.608-31.731-31.962-55.67-8.059-8.245 8.106-21.986 8.029-29.984.031-23.965-23.964-49.088 5.284-55.508 7.896-4.099-15.478-10.01-51.158 18.526-62.768zm-15.81 75.255c12.239-5.971 28.349-28.104 44.432-12.022 6.251 6.251 14.534 9.692 23.333 9.692 8.707 0 16.982-3.433 23.341-9.692 16.29-16.27 32.077 5.992 44.424 12.017-1.159 55.292-33.507 106.757-67.765 106.757s-66.604-51.462-67.765-106.752zm67.764 118.576c5.436 0 10.696-.961 15.766-2.665v19.546c0 5.573-2.948 10.739-7.806 13.556-9.878 6.023-23.641-.836-23.641-13.556v-19.524c5.045 1.686 10.275 2.643 15.681 2.643zm-27.505 12.841v4.041c0 8.299 3.681 16.173 10.144 21.4l-10.575 81.108c-.216 1.694.308 3.41 1.447 4.688l22.07 24.826c1.124 1.262 2.725 1.986 4.411 1.986h.008c1.686 0 3.287-.716 4.411-1.978l22.155-24.826c1.147-1.278 1.678-2.995 1.447-4.704l-10.651-81.12c6.379-5.133 10.227-12.994 10.227-21.38v-4.036c68.936 12.819 120.768 73.169 120.768 145.612 0 9.823-7.96 17.821-17.736 17.821h-261.157c-9.823 0-17.813-7.998-17.813-17.821-.001-73.222 52.612-132.897 120.844-145.617z"/><path d="m138.831 216.051c-3.264 0-5.912 2.648-5.912 5.912v4.265c0 3.264 2.648 5.912 5.912 5.912s5.912-2.648 5.912-5.912v-4.265c0-3.264-2.648-5.912-5.912-5.912z"/><path d="m196.113 232.14c3.264 0 5.912-2.648 5.912-5.912v-4.265c0-3.264-2.648-5.912-5.912-5.912s-5.912 2.648-5.912 5.912v4.265c-.001 3.264 2.648 5.912 5.912 5.912z"/><path d="m188.268 270.869c2.309-2.309 2.309-6.051 0-8.36s-6.051-2.309-8.36 0c-6.844 6.844-18.006 6.851-24.88 0-2.309-2.317-6.051-2.302-8.36 0-2.309 2.309-2.309 6.051 0 8.36 5.735 5.735 13.272 8.599 20.8 8.599 7.536 0 15.065-2.864 20.8-8.599z"/><path d="m229.545 405.84h17.967c3.264 0 5.912-2.648 5.912-5.912s-2.648-5.912-5.912-5.912h-17.967c-3.264 0-5.912 2.648-5.912 5.912s2.648 5.912 5.912 5.912z"/><path d="m506.277 239.753v-179.728c0-1.166-.605-3.053-1.732-4.18l-48.398-48.406c-1.053-1.053-2.824-1.732-4.18-1.732h-101.769c-11.955 0-21.678 9.723-21.678 21.678v212.368c0 11.955 9.723 21.678 21.678 21.678h61.292v89.367h-104.894c-3.264 0-5.912 2.648-5.912 5.912s2.648 5.912 5.912 5.912h110.807c3.264 0 5.912-2.648 5.912-5.912v-95.28h61.285c11.955.001 21.677-9.722 21.677-21.677zm-20.184-185.64h-18.36c-5.435 0-9.854-4.419-9.854-9.854v-18.366c.861.861 29.955 29.962 28.214 28.22zm-145.749 185.64v-212.368c0-5.435 4.419-9.854 9.854-9.854h95.857v26.729c0 11.955 9.723 21.678 21.678 21.678h26.72v173.816c0 5.435-4.419 9.854-9.854 9.854h-134.401c-5.435-.001-9.854-4.42-9.854-9.855z"/><path d="m392.422 102.103h49.961c3.264 0 5.912-2.648 5.912-5.912s-2.648-5.912-5.912-5.912h-49.961c-3.264 0-5.912 2.648-5.912 5.912s2.648 5.912 5.912 5.912z"/><path d="m465.231 120.479h-95.664c-3.264 0-5.912 2.648-5.912 5.912s2.648 5.912 5.912 5.912h95.664c3.264 0 5.912-2.648 5.912-5.912s-2.648-5.912-5.912-5.912z"/><path d="m465.231 150.671h-95.664c-3.264 0-5.912 2.648-5.912 5.912s2.648 5.912 5.912 5.912h95.664c3.264 0 5.912-2.648 5.912-5.912s-2.648-5.912-5.912-5.912z"/><path d="m465.231 180.863h-95.664c-3.264 0-5.912 2.648-5.912 5.912s2.648 5.912 5.912 5.912h95.664c3.264 0 5.912-2.648 5.912-5.912s-2.648-5.912-5.912-5.912z"/><path d="m465.231 211.055h-95.664c-3.264 0-5.912 2.648-5.912 5.912s2.648 5.912 5.912 5.912h95.664c3.264 0 5.912-2.648 5.912-5.912s-2.648-5.912-5.912-5.912z"/><path d="m312.508 39.764c0-3.264-2.648-5.912-5.912-5.912h-139.128c-3.264 0-5.912 2.648-5.912 5.912v37.644c0 3.264 2.648 5.912 5.912 5.912s5.912-2.648 5.912-5.912v-31.732h133.216c3.264 0 5.912-2.648 5.912-5.912z"/></g></g></g></svg>