<svg enable-background="new 0 0 256 256" height="512" viewBox="0 0 256 256" width="512" xmlns="http://www.w3.org/2000/svg"><g id="Layer_1"><g><path d="m226.39 12.74v193.27c0 2.761-2.239 5-5 5h-12.69v-180.58c0-2.761-2.239-5-5-5h-144.3v-12.69c0-2.761 2.239-5 5-5h156.99c2.762 0 5 2.239 5 5z" fill="#efefef"/><path d="m215.7 28.43v182.58h-7v-180.58c0-2.761-2.239-5-5-5h-144.3v-7h146.3c5.523 0 10 4.477 10 10z" fill="#afafaf"/><path d="m208.7 30.43v193.27c0 2.761-2.239 5-5 5h-14.99v-154.7l-30.2-30.2h-116.8v-13.37c0-2.761 2.239-5 5-5h156.99c2.762 0 5 2.239 5 5z" fill="#efefef"/><path d="m195.71 73.171v155.529h-7v-154.7l-30.2-30.2h-116.8v-7h117.629c1.326 0 2.598.527 3.536 1.464l31.371 31.371c.937.938 1.464 2.21 1.464 3.536z" fill="#afafaf"/><path d="m188.71 74v169.26c0 2.761-2.239 5-5 5h-149.1c-2.761 0-5-2.239-5-5v-194.46c0-2.761 2.239-5 5-5h123.9z" fill="#efefef"/><path d="m147.707 141.975c0 13.158-6.605 24.8-16.697 31.746-6.211 4.284-13.736 6.798-21.848 6.798s-15.637-2.505-21.848-6.789c-10.083-6.947-16.697-18.571-16.697-31.755 0-21.287 17.257-38.544 38.544-38.544s38.546 17.257 38.546 38.544z" fill="#f1bf21"/><path d="m120.613 128.087h-22.557l.005-6.527c.002-2.196 1.782-3.975 3.978-3.975h11.639c1.412 0 2.803-.341 4.054-.995l4.862-2.538c2.458 4.909 1.432 10.399-1.981 14.035z" fill="#7c7b7a"/><path d="m109.332 147.669c-6.228 0-11.276-5.049-11.276-11.276v-8.306h22.552v8.306c0 6.227-5.049 11.276-11.276 11.276z" fill="#ffb69f"/><path d="m131.011 160.809v12.912c-6.211 4.284-13.736 6.798-21.848 6.798s-15.637-2.505-21.848-6.789v-12.921c0-7.253 5.887-13.14 13.14-13.14h17.415c7.254 0 13.141 5.886 13.141 13.14z" fill="#72c2e9"/><g><path d="m131.011 167.204c-.658 0-1.315-.258-1.806-.771-.955-.997-.92-2.58.077-3.535 10.92-10.456 12.206-28.219 1.603-40.169-.916-1.033-.822-2.613.211-3.529 1.033-.917 2.613-.821 3.529.211 12.382 13.953 10.977 34.783-1.885 47.099-.485.463-1.107.694-1.729.694z" fill="#f8e5af"/></g><g><path d="m108.99 173.614c-.103-1.377.931-2.576 2.308-2.679 6.743-.502 13.128-3.354 17.978-8.031.994-.958 2.577-.929 3.535.064.958.994.929 2.577-.064 3.535-5.688 5.485-13.173 8.829-21.078 9.417-1.406.099-2.579-.951-2.679-2.306zm-8.032 1.402c-1.042-.258-2.085-.57-3.101-.928-1.303-.458-1.987-1.886-1.529-3.188.458-1.303 1.884-1.988 3.188-1.529.867.305 1.757.572 2.645.792 1.34.332 2.157 1.688 1.825 3.028-.333 1.344-1.693 2.157-3.028 1.825z" fill="#c5e5fe"/></g><path d="m64.213 105.762c-.357-1.333-1.728-2.124-3.062-1.768l-9.718 2.604c-1.33.354-2.131 1.733-1.773 3.063l2.605 9.723c.355 1.324 1.715 2.126 3.062 1.768 1.333-.357 2.125-1.729 1.768-3.062l-1.043-3.893 16.374 9.453c-5.652 11.31-5.843 24.876.023 36.634l-16.396 9.466 1.043-3.893c.357-1.333-.435-2.705-1.768-3.062-1.333-.358-2.705.435-3.062 1.768-.094.351-2.524 9.412-2.61 9.755-.334 1.314.462 2.678 1.773 3.029l9.723 2.605c1.326.355 2.703-.428 3.062-1.768.357-1.333-.435-2.705-1.768-3.062l-3.893-1.043 16.396-9.466c6.901 10.429 18.42 17.529 31.715 18.324v18.919l-2.85-2.85c-.977-.976-2.559-.976-3.536 0-.976.976-.976 2.559 0 3.536l7.118 7.117c.002.002.004.003.005.004.984.979 2.566.962 3.533-.007l7.115-7.115c.977-.976.977-2.559 0-3.535-.976-.977-2.56-.977-3.535 0l-2.85 2.849v-18.92c13.245-.798 24.781-7.853 31.713-18.324l16.397 9.467-3.893 1.043c-1.333.357-2.125 1.729-1.768 3.062.355 1.324 1.715 2.126 3.062 1.768l9.723-2.605c1.302-.349 2.127-1.728 1.767-3.065l-2.604-9.72c-.358-1.333-1.727-2.122-3.062-1.768-1.334.357-2.125 1.729-1.768 3.062l1.043 3.893-16.397-9.466c5.882-11.782 5.667-25.349.026-36.636l16.371-9.451-1.043 3.893c-.357 1.333.434 2.705 1.768 3.062 1.349.358 2.708-.446 3.062-1.768l2.604-9.72c.348-1.293-.407-2.704-1.772-3.067l-9.718-2.604c-1.333-.356-2.705.434-3.062 1.768-.357 1.333.434 2.705 1.768 3.062l3.893 1.043-16.37 9.451c-6.964-10.481-18.484-17.513-31.741-18.305v-18.919l2.849 2.849c.977.977 2.559.977 3.536 0s.977-2.56 0-3.536c-.01-.01-7.117-7.118-7.117-7.118-.961-.961-2.554-.985-3.538.003l-7.115 7.115c-.977.976-.977 2.559 0 3.535.976.977 2.56.977 3.535 0l2.85-2.85v18.922c-13.346.796-24.823 7.898-31.739 18.307l-16.372-9.453 3.893-1.043c1.334-.355 2.125-1.726 1.768-3.06zm55.239 19.825h-18.892v-4.026c0-.81.66-1.47 1.48-1.48h11.64c1.81 0 3.61-.44 5.21-1.27l2.33-1.22c.634 2.917-.094 5.788-1.768 7.996zm-1.344 5.003v5.802c0 4.839-3.937 8.776-8.776 8.776s-8.776-3.937-8.776-8.776v-5.802zm-17.652 19.579h17.415c5.867 0 10.64 4.773 10.64 10.64v11.538c-5.999 3.833-12.824 5.672-19.347 5.672-6.5 0-13.343-1.831-19.348-5.66v-11.55c0-5.867 4.773-10.64 10.64-10.64zm8.703-44.239h.005.003c13.383.002 24.977 7.245 31.212 18.022.007.012.018.021.025.033 8.335 14.415 5.699 32.997-6.893 44.538v-7.714c0-7.963-5.986-14.542-13.692-15.505 2.046-2.405 3.289-5.513 3.289-8.911v-7.376c3.804-4.669 4.333-10.889 1.722-16.086-.65-1.279-2.197-1.727-3.39-1.09l-4.86 2.53c-.89.47-1.9.71-2.9.71h-11.64c-3.57.01-6.47 2.91-6.48 6.48 0 3.538-.005 7.66-.005 14.832 0 3.376 1.225 6.467 3.248 8.866-7.85.828-13.988 7.485-13.988 15.551v7.723c-11.63-10.676-15.768-28.321-6.845-44.629 6.347-10.92 18.021-17.974 31.189-17.974z"/><circle cx="29.61" cy="127.34" r="2.5"/><path d="m27.11 243.26c0 4.13 3.37 7.5 7.5 7.5h149.1c4.14 0 7.5-3.37 7.5-7.5v-12.06h12.49c4.13 0 7.5-3.37 7.5-7.5v-10.19h10.19c4.14 0 7.5-3.37 7.5-7.5v-193.27c0-4.13-3.36-7.5-7.5-7.5h-37.54c-1.38 0-2.5 1.12-2.5 2.5s1.12 2.5 2.5 2.5h37.54c1.38 0 2.5 1.13 2.5 2.5v193.27c0 1.38-1.12 2.5-2.5 2.5h-10.19v-54.15c0-1.38-1.12-2.5-2.5-2.5s-2.5 1.12-2.5 2.5v69.34c0 1.38-1.12 2.5-2.5 2.5h-12.49v-152.2c0-.657-.304-1.344-.73-1.77l-30.2-30.2c-.406-.398-1.098-.73-1.77-.73h-114.3v-10.87c0-1.37 1.12-2.5 2.5-2.5h156.99c1.38 0 2.5 1.13 2.5 2.5v103.92c0 1.38 1.12 2.51 2.5 2.51s2.5-1.13 2.5-2.51v-103.92c0-4.13-3.37-7.5-7.5-7.5h-141.8v-10.19c0-1.37 1.12-2.5 2.5-2.5h99.45c1.38 0 2.5-1.12 2.5-2.5s-1.12-2.5-2.5-2.5h-99.45c-4.13 0-7.5 3.37-7.5 7.5v10.19h-10.19c-4.13 0-7.5 3.37-7.5 7.5v10.87h-4.6c-4.13 0-7.5 3.37-7.5 7.5v68.54c0 1.38 1.12 2.5 2.5 2.5s2.5-1.12 2.5-2.5v-68.54c0-1.37 1.13-2.5 2.5-2.5h121.4v27.7c0 1.389 1.122 2.5 2.5 2.5h27.7v166.76c0 1.38-1.12 2.5-2.5 2.5h-149.1c-1.37 0-2.5-1.12-2.5-2.5v-105.92c0-1.38-1.12-2.5-2.5-2.5s-2.5 1.12-2.5 2.5zm133.9-193.42c17.126 17.119 11.548 11.543 21.669 21.66h-21.669z"/><path d="m51.64 219.81h32.12c1.38 0 2.5-1.12 2.5-2.5s-1.12-2.5-2.5-2.5h-32.12c-1.38 0-2.5 1.12-2.5 2.5s1.12 2.5 2.5 2.5z"/><path d="m51.64 231.2h115.05c1.37 0 2.5-1.12 2.5-2.5s-1.13-2.5-2.5-2.5h-115.05c-1.38 0-2.5 1.12-2.5 2.5s1.12 2.5 2.5 2.5z"/><circle cx="208.7" cy="144.36" r="2.5"/><circle cx="173.85" cy="7.74" r="2.5"/></g></g></svg>