<svg id="Layer_1" enable-background="new 0 0 66 66" viewBox="0 0 66 66" xmlns="http://www.w3.org/2000/svg"><g><g><g><path d="m43.6740379 63.7383041-21.3489914-.0009155c-.5179176 0-.9370098-.4190903-.9370098-.9370079s.4200058-.9370117.9370098-.9370117l21.3489914.0009155c.5179176 0 .9370117.4200096.9370117.9370117.0000001.5179177-.4200096.9370079-.9370117.9370079z"/></g><g><g><path d="m39.8710976 63.7383041h-13.7431107c-.29739 0-.5764809-.1409187-.7530842-.3797455-.1766052-.2388268-.2296772-.5471992-.1427479-.8317795l2.3635693-7.7156868c.1207867-.3934708.4840603-.6624947.8958321-.6624947h9.0159702c.4117737 0 .7750473.2690239.8958359.6624947l2.3635674 7.7156868c.0869293.2845802.0338593.5929527-.142746.8317795s-.4556962.3797455-.7530861.3797455zm-12.4757691-1.8740196h11.2084275l-1.7889175-5.8416672h-7.6305905z"/></g><g><path d="m3.01562 47.0673447v2.5130424c0 3.0402031 2.5335257 5.5047684 5.6587954 5.5047684h48.650322c3.1252708 0 5.6587944-2.4645653 5.6587944-5.5047684v-2.5130424z" fill="#c383ff"/></g><g><path d="m57.3247299 56.0226173h-48.6503753c-3.6373177 0-6.5956688-2.8897247-6.5956688-6.4419403v-2.5136375c0-.5179176.4190922-.9370117.9370096-.9370117h59.9676971c.5179176 0 .9370079.4190941.9370079.9370117v2.5136375c-.0000017 3.5522156-2.9583528 6.4419403-6.5956705 6.4419403zm-53.3720252-8.0185699v1.5766296c0 2.5191269 2.1183369 4.5679207 4.7216501 4.5679207h48.6503754c2.6033134 0 4.7216492-2.0487938 4.7216492-4.5679207v-1.5766296z"/></g><g><path d="m62.9843063 48.0077095h-59.968611c-.5179174 0-.9370096-.4190941-.9370096-.9370117v-38.2938576c0-3.5924802 2.9574361-6.5151448 6.5929232-6.5151448h48.6558685c3.6354866 0 6.5938377 2.9226646 6.5938377 6.5151448v38.2938576c-.0000009.5179176-.4190911.9370117-.9370088.9370117zm-59.0316016-1.8740196h58.0945892v-37.3568497c0-2.5593905-2.1174202-4.6411257-4.7198181-4.6411257h-48.6558669c-2.6023974 0-4.7189045 2.0817351-4.7189045 4.6411257v37.3568497z"/></g><g><path d="m56.6091614 47.998558h-47.2192393c-.5179176 0-.9370098-.4190941-.9370098-.9370117 0-.5179138.4190922-.9370079.9370098-.9370079h47.2192383c.5179176 0 .9370117.4190941.9370117.9370079.000001.5179177-.4190931.9370117-.9370107.9370117z"/></g><g><path d="m27.1409454 52.0128746h-1.7230358c-.5179176 0-.9370098-.4190903-.9370098-.9370079s.4190922-.9370117.9370098-.9370117h1.7230358c.5179176 0 .9370098.4190941.9370098.9370117s-.4190921.9370079-.9370098.9370079z"/></g><g><path d="m33.8610611 52.0128746h-1.7230377c-.5179157 0-.9370079-.4190903-.9370079-.9370079s.4190922-.9370117.9370079-.9370117h1.7230377c.5179176 0 .9370079.4190941.9370079.9370117s-.4190903.9370079-.9370079.9370079z"/></g><g><path d="m40.5811768 52.0128746h-1.7230378c-.5179176 0-.9370079-.4190903-.9370079-.9370079s.4190903-.9370117.9370079-.9370117h1.7230377c.5179176 0 .9370079.4190941.9370079.9370117s-.4190902.9370079-.9370078.9370079z"/></g><g><path d="m22.1063499 24.205471h-11.2615013c-1.5446014 0-2.801878-1.2572765-2.801878-2.8027935v-11.2615003c0-1.5446024 1.2572765-2.8018785 2.801878-2.8018785h11.2615013c1.5455151 0 2.8027916 1.2572761 2.8027916 2.8018785v11.2615004c0 1.5455169-1.2572765 2.8027934-2.8027916 2.8027934zm-11.2615013-14.9921531c-.5115118 0-.9278584.4163465-.9278584.9278593v11.2615004c0 .5124264.4163465.9287739.9278584.9287739h11.2615013c.5124264 0 .9287739-.4163475.9287739-.9287739v-11.2615004c0-.5115128-.4163475-.9278593-.9287739-.9278593z"/></g><g><circle cx="16.406" cy="14.932" fill="#fd8d65" r="2.652"/></g><g><path d="m22.6398144 23.2682915h-12.3282728v-.0000057c0-3.1392174 2.5448389-5.6840572 5.6840572-5.6840572h.9601564c3.1392193 0 5.6840591 2.5448399 5.6840591 5.6840572v.0000057z" fill="#fd8d65"/></g><g><path d="m16.4065132 18.5211906c-1.97925 0-3.589735-1.6095715-3.589735-3.5888205s1.6104851-3.589735 3.589735-3.589735 3.5888195 1.6104851 3.5888195 3.589735-1.6095695 3.5888205-3.5888195 3.5888205zm0-5.3045358c-.9461603 0-1.7157164.7695551-1.7157164 1.7157154 0 .9452448.769556 1.7148008 1.7157164 1.7148008.9452438 0 1.7147999-.769556 1.7147999-1.7148008 0-.9461603-.7695561-1.7157154-1.7147999-1.7157154z"/></g><g><path d="m22.639822 24.205471h-12.3284464c-.5179167 0-.9370089-.4190922-.9370089-.9370098 0-3.6510429 2.9702463-6.6212902 6.6212893-6.6212902h.9598856c3.6510429 0 6.6212902 2.9702473 6.6212902 6.6212902 0 .5179177-.4190922.9370098-.9370098.9370098zm-11.2990169-1.8740196h10.2695885c-.4364777-2.1704941-2.3580799-3.8102608-4.6548519-3.8102608h-.9598857c-2.296771 0-4.2183723 1.6397667-4.6548509 3.8102608z"/></g><g><circle cx="48.781" cy="33.755" fill="#ffcc2e" r="8.238"/></g><g><path d="m48.7809258 42.9310188c-5.0593033 0-9.17519-4.1158867-9.17519-9.17519s4.1158867-9.1761036 9.17519-9.1761036 9.17519 4.1168022 9.17519 9.1761036-4.1158906 9.17519-9.17519 9.17519zm0-16.4772739c-4.0262146 0-7.3011742 3.2758732-7.3011742 7.302084s3.2749596 7.3011703 7.3011742 7.3011703 7.3011703-3.2749557 7.3011703-7.3011703-3.2749596-7.302084-7.3011703-7.302084z"/></g><g><path d="m48.7809258 38.440876c-.5179176 0-.9370117-.4190903-.9370117-.9370079s.4190941-.9370079.9370117-.9370079c1.5500908 0 2.8110275-1.2609367 2.8110275-2.8110313 0-.5179176.4190903-.9370079.9370079-.9370079s.9370117.4190903.9370117.9370079c0 2.5831832-2.1018677 4.6850471-4.6850471 4.6850471z"/></g><g><path d="m45.0328865 34.6928406c-.5179176 0-.9370117-.4190941-.9370117-.9370117 0-2.5831814 2.1018677-4.6850471 4.685051-4.6850471.5179138 0 .9370079.4190922.9370079.9370098s-.4190941.9370098-.9370079.9370098c-1.5500946 0-2.8110313 1.2609367-2.8110313 2.8110275-.0000001.5179176-.4190904.9370117-.937008.9370117z"/></g><g><path d="m46.9069061 10.2482376h-15.739748c-.5179176 0-.9370098-.4190922-.9370098-.9370098s.4190922-.9370098.9370098-.9370098h15.739748c.5179176 0 .9370079.4190922.9370079.9370098s-.4190902.9370098-.9370079.9370098z"/></g><g><path d="m57.019104 15.86938h-13.7998428c-.5179176 0-.9370117-.4190922-.9370117-.9370098s.4190941-.9370098.9370117-.9370098h13.7998428c.5179176 0 .9370117.4190922.9370117.9370098s-.4190941.9370098-.9370117.9370098z"/></g><g><path d="m37.0051651 15.86938h-5.838007c-.5179176 0-.9370098-.4190922-.9370098-.9370098s.4190922-.9370098.9370098-.9370098h5.838007c.5179176 0 .9370117.4190922.9370117.9370098s-.4190941.9370098-.9370117.9370098z"/></g><g><path d="m57.019104 21.4896069h-3.6217613c-.5179176 0-.9370079-.4190922-.9370079-.9370098s.4190903-.9370098.9370079-.9370098h3.6217613c.5179176 0 .9370117.4190922.9370117.9370098s-.4190941.9370098-.9370117.9370098z"/></g><g><path d="m46.6516075 21.4896069h-15.4844494c-.5179176 0-.9370098-.4190922-.9370098-.9370098s.4190922-.9370098.9370098-.9370098h15.4844494c.5179176 0 .9370079.4190922.9370079.9370098s-.4190903.9370098-.9370079.9370098z"/></g><g><path d="m25.4179096 30.7114639h-16.4379291c-.5179176 0-.9370098-.4190922-.9370098-.9370098s.4190922-.9370098.9370098-.9370098h16.4379292c.5179176 0 .9370098.4190922.9370098.9370098s-.4190922.9370098-.9370099.9370098z"/></g><g><path d="m33.8354378 36.3326073h-15.501833c-.5179176 0-.9370098-.4190941-.9370098-.9370117s.4190922-.9370079.9370098-.9370079h15.501833c.5179176 0 .9370117.4190903.9370117.9370079s-.4190941.9370117-.9370117.9370117z"/></g><g><path d="m13.2441063 36.3326073h-4.2641258c-.5179176 0-.9370098-.4190941-.9370098-.9370117s.4190922-.9370079.9370098-.9370079h4.2641258c.5179167 0 .9370089.4190903.9370089.9370079s-.4190922.9370117-.9370089.9370117z"/></g><g><path d="m33.8354378 41.9528351h-4.6804714c-.5179176 0-.9370098-.4190941-.9370098-.9370117s.4190922-.9370079.9370098-.9370079h4.6804714c.5179176 0 .9370117.4190903.9370117.9370079s-.4190941.9370117-.9370117.9370117z"/></g><g><path d="m23.5118637 41.9528351h-14.5318832c-.5179176 0-.9370098-.4190941-.9370098-.9370117s.4190922-.9370079.9370098-.9370079h14.5318832c.5179176 0 .9370098.4190903.9370098.9370079s-.4190922.9370117-.9370098.9370117z"/></g></g></g></g></svg>