<svg height="496pt" viewBox="0 0 496 496" width="496pt" xmlns="http://www.w3.org/2000/svg"><path d="m280 191.808594c0-14.128906 9.273438-26.59375 22.808594-30.648438l57.191406-17.160156v-22.472656c-8.710938-5.046875-15.679688-12.726563-19.816406-21.984375l-19.464844 15.136719c-9.460938-5.167969-19.472656-9.3125-29.863281-12.367188l-3.792969-30.3125h-78.125l-3.792969 30.3125c-10.402343 3.054688-20.410156 7.191406-29.863281 12.367188l-24.113281-18.75-55.238281 55.238281 18.75 24.113281c-5.167969 9.460938-9.3125 19.472656-12.367188 29.863281l-30.3125 3.792969v50l.304688 2.085938c8.640624-12.6875 23.191406-21.023438 39.695312-21.023438 26.511719 0 48 21.488281 48 48v24c0 17.761719-9.664062 33.222656-24 41.527344v22.472656l57.191406 17.160156c13.535156 4.054688 22.808594 16.519532 22.808594 30.648438v.191406h71.0625l3.792969-30.3125c10.402343-3.054688 20.410156-7.191406 29.863281-12.367188l24.113281 18.75 55.238281-55.238281-18.75-24.113281c5.167969-9.460938 9.3125-19.472656 12.367188-29.863281l30.3125-3.792969v-31.0625h-144zm0 0" fill="#f0bc5e"/><path d="m16 16h136v-16h-152v152h16zm0 0"/><path d="m48 152v-104h104v-16h-120v120zm0 0"/><path d="m480 480h-136v16h152v-152h-16zm0 0"/><path d="m448 344v104h-104v16h120v-120zm0 0"/><path d="m467.496094 153.496094-51.496094-15.449219v-12.160156c14.488281-10.132813 24-26.910157 24-45.886719v-24c0-30.878906-25.128906-56-56-56s-56 25.121094-56 56v24c0 18.976562 9.511719 35.761719 24 45.886719v12.160156l-46.433594 13.929687c-17.359375-10.425781-37.183594-15.976562-57.566406-15.976562-58.289062 0-106.273438 44.777344-111.480469 101.734375-7.414062-3.636719-15.71875-5.734375-24.519531-5.734375-30.871094 0-56 25.128906-56 56v24c0 18.976562 9.511719 35.753906 24 45.886719v12.160156l-51.496094 15.449219c-17.046875 5.113281-28.503906 20.511718-28.503906 38.320312v72.183594h224v-72.183594c0-17.808594-11.457031-33.199218-28.503906-38.320312l-51.496094-15.449219v-12.160156c11.121094-7.773438 19.265625-19.480469 22.464844-33.078125 20.933594 22.328125 50.09375 35.191406 81.535156 35.191406 55.703125 0 102.910156-41.617188 110.742188-96h137.257812v-72.191406c0-17.808594-11.457031-33.199219-28.503906-38.3125zm-123.496094-73.496094v-24c0-22.054688 17.945312-40 40-40s40 17.945312 40 40v24c0 22.054688-17.945312 40-40 40s-40-17.945312-40-40zm40 56c5.558594 0 10.929688-.839844 16-2.359375v7.046875l-16 16-16-16v-7.046875c5.070312 1.519531 10.441406 2.359375 16 2.359375zm-193.105469 264.824219c10.234375 3.0625 17.105469 12.304687 17.105469 22.992187v56.183594h-32v-56h-16v56h-96v-56h-16v56h-32v-56.183594c0-10.6875 6.871094-19.921875 17.105469-22.992187l52.621093-15.785157 26.273438 26.273438 26.28125-26.28125zm-62.894531-28.136719-16 16-16-16v-7.046875c5.070312 1.519531 10.441406 2.359375 16 2.359375s10.929688-.839844 16-2.359375zm24-60.6875c0 22.054688-17.945312 40-40 40s-40-17.945312-40-40v-24c0-22.054688 17.945312-40 40-40s40 17.945312 40 40zm96 32c-32.527344 0-62.152344-16.144531-80-43.183594v-12.816406c0-15.199219-6.113281-28.992188-15.984375-39.097656 0-.300782-.015625-.597656-.015625-.902344 0-52.9375 43.0625-96 96-96 13.65625 0 27.039062 2.878906 39.335938 8.398438-4.488282 3.503906-8.222657 7.839843-10.832032 12.867187-9.0625-3.441406-18.761718-5.265625-28.503906-5.265625-44.113281 0-80 35.886719-80 80s35.886719 80 80 80c38.425781 0 70.929688-27.046875 78.382812-64h16.257813c-7.679687 45.496094-47.664063 80-94.640625 80zm61.921875-80c-7.136719 27.894531-32.296875 48-61.921875 48-35.289062 0-64-28.710938-64-64s28.710938-64 64-64c8.457031 0 16.566406 1.679688 24.238281 4.839844-.070312.992187-.238281 1.960937-.238281 2.96875v72.191406zm170.078125-16h-32v-56h-16v56h-96v-56h-16v56h-32v-56.191406c0-10.679688 6.871094-19.921875 17.105469-22.984375l52.621093-15.792969 26.273438 26.28125 26.28125-26.28125 52.621094 15.792969c10.226562 3.0625 17.097656 12.304687 17.097656 22.984375zm0 0"/><path d="m168 0h16v16h-16zm0 0"/><path d="m200 0h16v16h-16zm0 0"/><path d="m0 168h16v16h-16zm0 0"/><path d="m0 200h16v16h-16zm0 0"/><path d="m480 312h16v16h-16zm0 0"/><path d="m480 280h16v16h-16zm0 0"/><path d="m312 480h16v16h-16zm0 0"/><path d="m280 480h16v16h-16zm0 0"/></svg>