<svg id="Layer_5" enable-background="new 0 0 64 64" height="512" viewBox="0 0 64 64" width="512" xmlns="http://www.w3.org/2000/svg"><path d="m60 15.763v-5.526l-2.625-.718c-.086-.23-.182-.459-.286-.685l1.351-2.365-3.907-3.908-2.367 1.35c-.227-.104-.455-.2-.684-.286l-.718-2.625h-5.527l-.718 2.625c-.229.086-.458.181-.685.286l-2.366-1.35-3.907 3.908 1.351 2.365c-.104.226-.2.455-.286.685l-2.626.718v5.526l2.625.718c.086.23.182.459.286.685l-1.351 2.365 3.907 3.908 2.354-1.342c.691.358 1.429.718 1.884.858l.295.004v-4.959c0-.137.014-.27.04-.399-1.787-.762-3.04-2.535-3.04-4.601 0-2.761 2.239-5 5-5s5 2.239 5 5c0 2.066-1.253 3.838-3.04 4.6.026.129.04.263.04.4v5l.295-.044c.451-.139 1.168-.488 1.884-.858l2.354 1.342 3.907-3.908-1.351-2.365c.104-.226.2-.455.286-.685z" fill="#f0bc5e"/><path d="m38.851 41.767-.692-5.534c-.105-.839-.404-1.642-.873-2.345l-1.029-1.544c-.167-.251-.257-.548-.257-.851v-.001c0-.848.688-1.534 1.535-1.534.508 0 .995.089 1.465.221v-3.179c0-1.103-.897-2-2-2h-3.069c.041.328.069.661.069 1 0 4.418-3.582 8-8 8s-8-3.582-8-8c0-.339.028-.672.069-1h-11.069c-1.103 0-2 .897-2 2v18c0 1.103.897 2 2 2h30c1.103 0 2-.897 2-2v-2.483c-.063-.247-.117-.496-.149-.75z" fill="#f0bc5e"/><path d="m61.6 49.2c.903-1.203 1.4-2.694 1.4-4.2v-13c0-1.654-1.346-3-3-3-.395 0-.77.081-1.116.22-.345-1.275-1.501-2.22-2.884-2.22-.771 0-1.468.301-2 .78-.532-.48-1.229-.78-2-.78-.352 0-.686.072-1 .184v-8.997c1.84-1.063 3-3.022 3-5.187 0-3.309-2.691-6-6-6s-6 2.691-6 6c0 2.163 1.16 4.123 3 5.187v18.827c0 .455-.105.911-.306 1.319l-.839-4.194c-.155-.777-.454-1.496-.856-2.139h.001v-6c0-2.757-2.243-5-5-5h-4.522c-1.07-1.595-2.639-2.822-4.478-3.475v-2.525c0-.551.448-1 1-1h6v-2h-6c-1.654 0-3 1.346-3 3v2.059c-.329-.037-.662-.059-1-.059s-.671.022-1 .059v-5.059c0-1.654-1.346-3-3-3h-3.059c-.499-4.493-4.316-8-8.941-8-4.963 0-9 4.038-9 9s4.037 9 9 9c4.625 0 8.442-3.507 8.941-8h3.059c.552 0 1 .449 1 1v5.525c-1.839.653-3.408 1.88-4.478 3.475h-12.522c-2.757 0-5 2.243-5 5v20c0 2.757 2.243 5 5 5h8v2h-1c-2.206 0-4 1.794-4 4 0 1.103.897 2 2 2h22c1.103 0 2-.897 2-2 0-2.206-1.794-4-4-4h-1v-2h8c1.225 0 2.38-.464 3.277-1.256l.723 1.486v1.77h-2v10h22v-10h-2v-1.667zm-55.922-33.704c.886-1.535 2.514-2.496 4.322-2.496s3.436.961 4.322 2.496c-1.192.939-2.691 1.504-4.322 1.504s-3.13-.565-4.322-1.504zm2.322-6.496c0-1.103.897-2 2-2s2 .897 2 2-.897 2-2 2-2-.897-2-2zm7.729 5.01c-.708-1.021-1.655-1.834-2.763-2.351.636-.708 1.034-1.634 1.034-2.659 0-2.206-1.794-4-4-4s-4 1.794-4 4c0 1.025.398 1.951 1.034 2.659-1.108.517-2.055 1.33-2.763 2.351-.798-1.137-1.271-2.518-1.271-4.01 0-3.86 3.141-7 7-7s7 3.14 7 7c0 1.492-.473 2.873-1.271 4.01zm32.271-5.01c2.206 0 4 1.794 4 4 0 1.285-.616 2.457-1.615 3.201-.548-.725-1.408-1.201-2.385-1.201-.976 0-1.837.476-2.385 1.2-.999-.744-1.615-1.917-1.615-3.2 0-2.206 1.794-4 4-4zm-22 10c3.859 0 7 3.14 7 7 0 1.492-.473 2.873-1.271 4.01-.708-1.021-1.655-1.834-2.763-2.351.636-.708 1.034-1.634 1.034-2.659 0-2.206-1.794-4-4-4s-4 1.794-4 4c0 1.025.398 1.951 1.034 2.659-1.108.517-2.055 1.33-2.763 2.351-.798-1.137-1.271-2.518-1.271-4.01 0-3.86 3.141-7 7-7zm-2 6c0-1.103.897-2 2-2s2 .897 2 2-.897 2-2 2-2-.897-2-2zm2 4c1.808 0 3.436.961 4.322 2.496-1.192.939-2.691 1.504-4.322 1.504s-3.13-.565-4.322-1.504c.886-1.535 2.514-2.496 4.322-2.496zm7 28-22 .002v-.002c0-1.103.897-2 2-2h18c1.103 0 2 .897 2 2zm-5-4h-12v-2h12zm10-4h-32c-1.654 0-3-1.346-3-3v-20c0-1.654 1.346-3 3-3h11.525c-.334.94-.525 1.947-.525 3 0 4.962 4.037 9 9 9s9-4.038 9-9c0-1.053-.191-2.06-.525-3h3.525c1.654 0 3 1.346 3 3v3.997c-1.011-.65-2.198-1.039-3.465-1.039-1.397 0-2.535 1.137-2.535 2.535 0 .502.147.988.426 1.406l1.029 1.544c.381.571.627 1.233.712 1.914l.692 5.533c.114.923.406 1.8.837 2.547l1.641 3.374c-.564.732-1.412 1.189-2.337 1.189zm22 12h-18v-6h18zm-16-8v-2.23l-3.536-7.267c-.33-.575-.538-1.2-.62-1.859l-.692-5.534c-.123-.987-.479-1.947-1.032-2.775l-1.03-1.545c-.059-.088-.09-.191-.09-.297 0-.295.24-.535.535-.535 2.111 0 3.944 1.503 4.359 3.573l1.286 6.427h2.438l.854-1.709c.345-.69.528-1.464.528-2.235v-19.014c0-.551.448-1 1-1s1 .449 1 1v12 4h2v-4c0-.551.448-1 1-1s1 .449 1 1v4h2v-4c0-.551.448-1 1-1s1 .449 1 1v2 2h2v-2c0-.551.448-1 1-1s1 .449 1 1v13c0 1.075-.355 2.141-1 3l-2 2.667v2.333z"/><path d="m31 37h-2v4h-2v-2h-2v2h-2v-4h-2v4h-2v-8h-2v8h-2v-10h-2v10h-2v-12h-2v14h24v-2h-2z"/></svg>