<svg id="Layer_1" height="512" viewBox="0 0 512 512" width="512" xmlns="http://www.w3.org/2000/svg" data-name="Layer 1"><path d="m384.41 13.65a29.431 29.431 0 0 1 29.19 29.67 29.189 29.189 0 1 1 -58.37 0 29.423 29.423 0 0 1 29.18-29.67z" fill="#c79a83"/><ellipse cx="256" cy="43.32" fill="#efc597" rx="29.18" ry="29.67"/><path d="m127.59 13.65a29.423 29.423 0 0 1 29.18 29.67 29.189 29.189 0 1 1 -58.37 0 29.431 29.431 0 0 1 29.19-29.67z" fill="#ffd8b7"/><path d="m459.84 161h-407.68l-42.43 101h492.54z" fill="#d4e1f4"/><path d="m10 262h492v22h-492z" fill="#b6c9e0"/><path d="m435.5 284.33h29.59v126.02h-29.59z" fill="#5d6b84"/><path d="m47.78 284.33h29.59v126.02h-29.59z" fill="#5d6b84"/><path d="m317.31 397.64h-121.97a11.643 11.643 0 0 0 -11.6 11.61v8.19a11.643 11.643 0 0 0 11.6 11.61h121.97a11.651 11.651 0 0 0 11.61-11.61v-8.19a11.651 11.651 0 0 0 -11.61-11.61z" fill="#fb6771"/><path d="m328.82 261.955a11.831 11.831 0 0 0 -11.64-9.955h-121.7a11.648 11.648 0 0 0 -11.47 9.955l-.01 91.405a11.465 11.465 0 0 0 11.48 11.64h121.7a11.761 11.761 0 0 0 11.82-11.64z" fill="#fb6771"/><path d="m279.81 472.91h-46.63a19.568 19.568 0 0 0 -19.57 19.57v5.87h85.77v-5.87a19.568 19.568 0 0 0 -19.57-19.57z" fill="#4a5160"/><path d="m243.94 429.05h25.11v43.86h-25.11z" fill="#b6c9e0"/><path d="m303.22 252.01h-93.78a32.388 32.388 0 0 1 30.03-20.47h33.72a32.4 32.4 0 0 1 30.03 20.47z" fill="#49bdff"/><path d="m256.33 164.6c16.92 0 30.64 14.7 30.64 31.62a30.64 30.64 0 0 1 -61.28 0c0-16.92 13.72-31.62 30.64-31.62z" fill="#6d7486"/><path d="m354.89 320.51h-25.97v16.14h25.97a8.07 8.07 0 0 0 0-16.14z" fill="#56568c"/><path d="m313.7 365.1v21.41a11.126 11.126 0 0 1 -11.13 11.13h-30.92v-32.54z" fill="#4a5160"/><path d="m241.01 365.1h30.64v32.54h-30.64z" fill="#b6c9e0"/><path d="m241.01 365.1v32.54h-33.71a11.126 11.126 0 0 1 -11.13-11.13v-21.41z" fill="#4a5160"/><path d="m183.08 320.51h-25.97a8.07 8.07 0 0 0 0 16.14h26.63v-16.14z" fill="#56568c"/><path d="m403.18 82h-37.53c-19.77 0-35.65 18.3-35.65 38.07v40.93h109v-40.93c0-19.77-16.05-38.07-35.82-38.07z" fill="#adf8d1"/><path d="m274.77 82h-37.54c-19.76 0-36.23 18.3-36.23 38.07v40.93h110v-40.93c0-19.77-16.47-38.07-36.23-38.07z" fill="#eadf53"/><path d="m146.35 82h-37.53c-19.77 0-35.82 18.3-35.82 38.07v40.93h109v-40.93c0-19.77-15.88-38.07-35.65-38.07z" fill="#867af4"/><path d="m390.17 99.53 6.41 35.74-12.17 7.3-12.17-7.31 6.44-35.73h11.48z" fill="#49bdff"/><path d="m394.65 82.13v.01l-4.49 17.39h-11.48-.02l-4.48-17.4z" fill="#3090fc"/><path d="m261.76 99.53 6.41 35.74-12.17 7.3-12.17-7.31 6.44-35.73h11.48z" fill="#6addc7"/><path d="m266.24 82.13v.01l-4.49 17.39h-11.48-.03l-4.48-17.4z" fill="#61a3bc"/><path d="m133.35 99.53 6.41 35.74-12.18 7.3-12.16-7.31 6.44-35.73h11.48z" fill="#eadf53"/><path d="m137.82 82.13v.01l-4.48 17.39h-11.48-.03l-4.48-17.4z" fill="#edb740"/><path d="m52.16 161-42.43 101h30l42.43-101z" fill="#a7bad1"/><path d="m213.74 417.44v-8.19a11.643 11.643 0 0 1 11.6-11.61h-30a11.643 11.643 0 0 0 -11.6 11.61v8.19a11.643 11.643 0 0 0 11.6 11.61h30a11.643 11.643 0 0 1 -11.6-11.61z" fill="#e75163"/><path d="m195.48 365h30a11.465 11.465 0 0 1 -11.48-11.64l.01-91.405a11.648 11.648 0 0 1 11.47-9.955h-30a11.648 11.648 0 0 0 -11.47 9.955l-.01 91.405a11.465 11.465 0 0 0 11.48 11.64z" fill="#e75163"/><path d="m10 262h30v22h-30z" fill="#7f9cb2"/><g fill="#284268"><path d="m465.372 158.647a5.972 5.972 0 0 0 -5.532-3.647h-14.84v-34.93c0-23.818-19.086-44.07-41.82-44.07h-4.971c12.564-5 21.391-18.039 21.391-32.745a35.188 35.188 0 1 0 -70.37-.016c0 14.706 8.824 27.761 21.385 32.761h-4.965c-22.734 0-41.65 20.252-41.65 44.07v34.93h-7v-34.93c0-23.818-19.5-44.07-42.23-44.07h-4.97c12.561-5 21.385-18.039 21.385-32.745-.005-19.669-15.785-35.638-35.185-35.638a35.426 35.426 0 0 0 -35.18 35.622c0 14.706 8.824 27.761 21.385 32.761h-4.975c-22.73 0-42.23 20.252-42.23 44.07v34.93h-7v-34.93c0-23.818-18.916-44.07-41.65-44.07h-4.965c12.561-5 21.385-18.039 21.385-32.745 0-19.669-15.782-35.638-35.18-35.638a35.431 35.431 0 0 0 -35.19 35.622c0 14.706 8.827 27.761 21.391 32.761h-4.971c-22.734 0-41.82 20.252-41.82 44.07v34.93h-14.84a5.963 5.963 0 0 0 -5.532 3.637l-42.428 101.04a5.269 5.269 0 0 0 -.462 2.323h.262v22.33a5.5 5.5 0 0 0 5.73 5.67h32.27v120.35a5.525 5.525 0 0 0 5.78 5.65h29.59a5.4 5.4 0 0 0 5.63-5.65v-120.35h95v25h-20.89a13.879 13.879 0 0 0 -14.07 13.825 14.183 14.183 0 0 0 14.07 14.175h.89v59.21a16.794 16.794 0 0 0 17.05 16.79h2.8a17.733 17.733 0 0 0 17.493 16h42.657v32h-4.82a25.192 25.192 0 0 0 -25.18 25.48v5.87a5.388 5.388 0 0 0 5.61 5.65h85.77a5.4 5.4 0 0 0 5.62-5.65v-5.87a25.2 25.2 0 0 0 -25.19-25.48h-4.81v-32h42.31a17.739 17.739 0 0 0 17.5-16h2.137a16.794 16.794 0 0 0 17.053-16.79v-59.21h.89a14.147 14.147 0 0 0 9.943-4.3 13.616 13.616 0 0 0 4.127-9.785 13.952 13.952 0 0 0 -14.07-13.915h-19.89v-25h94v120.35c0 3.314 3.187 5.65 6.5 5.65h29.59a5.635 5.635 0 0 0 5.91-5.65v-120.35h31.27a5.5 5.5 0 0 0 5.73-5.67v-22.33h.262a5.36 5.36 0 0 0 -.46-2.343zm-104.142-115.327a23.19 23.19 0 1 1 23.18 23.67 23.455 23.455 0 0 1 -23.18-23.67zm22.47 62.68h1.455l4.793 26.49-5.531 3.2-5.532-3.147zm-1.774-18h4.986l-1.394 6h-2.2zm-45.926 32.07c0-17.015 13.7-32.07 29.65-32.07h3.879l3.006 11.737-6.2 34.426a6.025 6.025 0 0 0 2.816 6.224l12.17 7.318a5.992 5.992 0 0 0 6.176.008l12.17-7.3a6 6 0 0 0 2.819-6.2l-6.186-34.54 3-11.673h3.88c15.949 0 29.82 15.055 29.82 32.07v34.93h-97zm-103.18-76.75a23.185 23.185 0 1 1 46.36 0 23.185 23.185 0 1 1 -46.36 0zm22.465 62.68h1.455l4.793 26.49-5.531 3.2-5.532-3.147zm-1.785-18h5l-1.4 6h-2.212zm-46.5 32.07c0-17.015 14.286-32.07 30.23-32.07h3.879l3.011 11.759-6.195 34.4a6.025 6.025 0 0 0 2.816 6.224l12.17 7.318a5.99 5.99 0 0 0 6.175.008l12.17-7.3a6 6 0 0 0 2.82-6.2l-6.183-34.536 3-11.674h3.879c15.942.001 30.228 15.056 30.228 32.071v34.93h-98zm116 144.262v89.028a5.731 5.731 0 0 1 -5.82 5.64h-121.7a5.445 5.445 0 0 1 -5.48-5.64v-89.61a2.267 2.267 0 0 0 -.03-.314 6 6 0 0 0 .179-1.421 5.61 5.61 0 0 1 5.331-4.015h121.7a5.839 5.839 0 0 1 5.366 3.672c0 .11-.016.217-.016.328a5.976 5.976 0 0 0 .47 2.332zm-15 106.668v15.51a5.718 5.718 0 0 1 -5.43 5.49h-24.57v-21zm-42 0v21h-19v-21zm-31 0v21h-27.7a5.6 5.6 0 0 1 -5.3-5.49v-15.51zm-14.783-125a27.069 27.069 0 0 1 19.253-8h33.72a27.072 27.072 0 0 1 19.247 8zm36.113-25.14a24.668 24.668 0 0 1 -24.64-24.64c0-13.887 11.284-25.62 24.64-25.62s24.64 11.733 24.64 25.62a24.667 24.667 0 0 1 -24.64 24.64zm-151.93-177.54a23.19 23.19 0 1 1 23.19 23.67 23.46 23.46 0 0 1 -23.19-23.67zm22.475 62.68h1.456l4.792 26.488-5.538 3.2-5.526-3.145zm-1.784-18h4.99l-1.392 6h-2.208zm-46.091 32.07c0-17.015 13.871-32.07 29.82-32.07h3.88l3.011 11.759-6.195 34.4a6.024 6.024 0 0 0 2.814 6.223l12.16 7.318a5.992 5.992 0 0 0 6.176.01l12.179-7.3a6 6 0 0 0 2.822-6.2l-6.184-34.54 2.99-11.67h3.877c15.95 0 29.65 15.055 29.65 32.07v34.93h-97zm-8 283.93h-17v-114h17zm-55-126v-10h55.348a6 6 0 1 0 0-12h-52.591l37.391-89h177.418a38.145 38.145 0 0 0 -13.876 29.22 36.6 36.6 0 0 0 15.11 29.614 38.768 38.768 0 0 0 -29.187 20.166h-10.133a17.668 17.668 0 0 0 -15.808 10h-75.272a6 6 0 1 0 0 12h73.6v10zm141.11 53a2.1 2.1 0 0 1 -1.457-.788 1.653 1.653 0 0 1 -.613-1.3 1.967 1.967 0 0 1 2.07-1.912h20.89v4zm20.739 76h-2.8a4.787 4.787 0 0 1 -5.05-4.79v-59.21h8v10.36a17.641 17.641 0 0 0 12 16.926v16.224a16.1 16.1 0 0 0 1.065 5.49 17.8 17.8 0 0 0 -13.215 15zm101.961 72a13.494 13.494 0 0 1 13.569 13h-73.769a13.5 13.5 0 0 1 13.57-13zm-29.81-12v-32h13v32zm73-49.56a5.712 5.712 0 0 1 -5.69 5.56h-121.97a5.353 5.353 0 0 1 -5.34-5.56v-8.19a5.1 5.1 0 0 1 5.34-5.25h121.97a5.454 5.454 0 0 1 5.69 5.25zm19-15.23a4.787 4.787 0 0 1 -5.05 4.79h-2.138a17.59 17.59 0 0 0 -15.778-15.45 16.058 16.058 0 0 0 .966-5.04v-15.61a18.1 18.1 0 0 0 15-17.54v-10.36h7zm12.89-75.21a1.967 1.967 0 0 1 2.07 1.913 1.657 1.657 0 0 1 -.613 1.3 2.107 2.107 0 0 1 -1.457.787h-19.89v-4zm-21.751-71a17.944 17.944 0 0 0 -15.959-10h-10.136a38.787 38.787 0 0 0 -29.182-20.166 36.6 36.6 0 0 0 15.108-29.616 38.14 38.14 0 0 0 -13.87-29.218h176.752l37.391 89zm125.861 148h-18v-114h18zm37-126h-161v-10h161z"/><path d="m76.17 181h-7.61a6 6 0 0 0 0 12h7.61a6 6 0 1 0 0-12z"/><path d="m189.75 187a6 6 0 0 0 -6-6h-87.51a6 6 0 0 0 0 12h87.51a6 6 0 0 0 6-6z"/></g></svg>