<svg id="_x33_0" enable-background="new 0 0 62 62" height="512" viewBox="0 0 62 62" width="512" xmlns="http://www.w3.org/2000/svg"><g><g><g><path d="m36 61h-30c-.552 0-1-.448-1-1v-14c0-.552.448-1 1-1h30c.552 0 1 .448 1 1v14c0 .552-.448 1-1 1z" fill="#ffeaa7"/></g><g><path d="m13 57h12v4h-12z" fill="#fcd770"/></g><g><path d="m17 41h8v4h-8z" fill="#aab2bd"/></g><g><path d="m33 37v4h-8-8-15c-.55 0-1-.45-1-1v-5h4 4 4 4 4 4 6v1c0 .55.45 1 1 1z" fill="#ccd1d9"/></g><g><path d="m2 9c-.55 0-1 .45-1 1v25h30v-26z" fill="#69d6f4"/></g><g><path d="m57 2v29c-.6 0-1.14.37-1.35.94l-1.15 3.06-.75 2h-12.75-8-1c-.55 0-1-.45-1-1v-1-8-4-4-10-7c0-.55.45-1 1-1h24c.55 0 1 .45 1 1z" fill="#e6e9ed"/></g><g><path d="m41 37v3c0 .55-.45 1-1 1h-7v-4z" fill="#ef7385"/></g><g><path d="m21 21h4v14h-4z" fill="#ef7385"/></g><g><path d="m13 25h4v10h-4z" fill="#ef7385"/></g><g><path d="m5 29h4v6h-4z" fill="#ef7385"/></g><g><path d="m53 39h4v14h-4z" fill="#b4dd7f"/></g><g><path d="m57 39h4v14h-4z" fill="#ef7385"/></g><g><path d="m61 53v4h-8v-4h4z" fill="#ffeaa7"/></g><g><path d="m55.65 31.94c.21-.57.75-.94 1.35-.94s1.14.37 1.35.94l1.15 3.06h-5z" fill="#969faa"/></g><g><path d="m61 57v2c0 1.1-.9 2-2 2h-4c-1.1 0-2-.9-2-2v-2z" fill="#ccd1d9"/></g><g><path d="m54.5 35h5l1.5 4h-4-4l.75-2z" fill="#ccd1d9"/></g><g><path d="m35 29h4v4h-4z" fill="#fcd770"/></g><g><path d="m53 11v4c0-1.1-.9-2-2-2h-2l-2-2-1 2c-2.04-.41-3.68-1.78-4.47-3.6-.34-.77-.53-1.62-.53-2.5v-1.9h6c3.31 0 6 2.69 6 6z" fill="#b27946"/></g><g><path d="m35 11c0-3.31 2.69-6 6-6v1.9c0 .88.19 1.73.53 2.5-1.47.59-2.48 2-2.53 3.6h-2c-1.1 0-2 .9-2 2z" fill="#b27946"/></g><g><path d="m52.41 16.41c-.36.37-.86.59-1.41.59h-2l-.15-.04c.1-.36.15-.73.15-1.12v-2.84h2c1.1 0 2 .9 2 2 0 .55-.22 1.05-.59 1.41z" fill="#f0d0b4"/></g><g><path d="m49 13v2.84c0 .39-.05.76-.15 1.12-.37 1.41-1.43 2.56-2.85 3.04v1h1c2.21 0 4 1.79 4 4h-14c0-1.1.45-2.1 1.17-2.83.73-.72 1.73-1.17 2.83-1.17h1v-1c-.9-.3-1.64-.87-2.17-1.6-.31-.43-.55-.91-.68-1.44-.1-.36-.15-.73-.15-1.12v-2.72c0-.04 0-.08 0-.12.05-1.6 1.06-3.01 2.53-3.6.79 1.82 2.43 3.19 4.47 3.6l1-2z" fill="#f0d0b4"/></g><g><path d="m39 15.84c0 .39.05.76.15 1.12l-.15.04h-2c-.55 0-1.05-.22-1.41-.59-.37-.36-.59-.86-.59-1.41 0-1.1.9-2 2-2h2v.12z" fill="#f0d0b4"/></g></g><g><path d="m59.287 31.585c-.232-.619-.706-1.1-1.287-1.363v-28.222c0-1.103-.897-2-2-2h-24c-1.103 0-2 .897-2 2v6h-28c-1.103 0-2 .897-2 2v30c0 1.103.897 2 2 2h14v2h-10c-1.103 0-2 .897-2 2v14c0 1.103.897 2 2 2h30c1.103 0 2-.897 2-2v-14c0-1.103-.897-2-2-2h-10v-2h14c1.103 0 2-.897 2-2v-2h10.307l-.307.818v20.182c0 1.654 1.346 3 3 3h4c1.654 0 3-1.346 3-3v-20.182zm-5.287 8.415h2v12h-2zm0 14h6v2h-6zm4-2v-12h2v12zm-3.557-14 .75-2h3.614l.75 2zm2.141-5.712c.131-.344.702-.344.831 0l.642 1.712h-2.115zm-20.584 5.712v2h-2v-2zm-6-28v8h-2v2h2v2h-2v2h2v2h-2v2h2v6h-4v-14h-6v14h-2v-10h-6v10h-2v-6h-6v6h-2v-24zm-6 24h-2v-12h2zm-8 0h-2v-8h2zm-8 0h-2v-4h2zm-6 2h28c0 1.103.897 2 2 2v2h-30zm22 24h-10v-2h10zm12.002 0h-10.002v-4h-14v4h-6v-14h30zm-12.002-16h-6v-2h6zm16-4h-2v-2h2zm-8-4v-34h24v28.221c-.581.263-1.055.745-1.287 1.363l-1.656 4.416zm27 24h-4c-.552 0-1-.448-1-1v-1h6v1c0 .552-.448 1-1 1z"/><path d="m47 4h-6c-3.859 0-7 3.141-7 7v4c0 1.654 1.346 3 3 3h1.46c.358.816.906 1.536 1.612 2.086-2.315.436-4.072 2.474-4.072 4.914v1h16v-1c0-2.44-1.757-4.478-4.072-4.914.705-.55 1.254-1.27 1.612-2.086h1.46c1.654 0 3-1.346 3-3v-4c0-3.859-3.141-7-7-7zm-10 12c-.552 0-1-.448-1-1s.448-1 1-1h1v1.838c0 .055.008.108.009.162zm1.132-4h-1.132c-.352 0-.686.072-1 .184v-1.184c0-2.414 1.721-4.434 4-4.899v.8c0 .696.101 1.374.289 2.018-1.101.705-1.867 1.81-2.157 3.081zm9.868 3.838c0 1.46-.931 2.751-2.316 3.214l-.684.227v2.721h2c1.304 0 2.416.836 2.829 2h-11.658c.413-1.164 1.525-2 2.829-2h2v-2.721l-.684-.228c-1.385-.462-2.316-1.753-2.316-3.213v-2.715c0-.938.426-1.793 1.132-2.351 1.03 1.616 2.691 2.813 4.672 3.208l.749.149.722-1.441.725.726zm3 .162h-1.009c.001-.054.009-.107.009-.162v-1.838h1c.552 0 1 .448 1 1s-.448 1-1 1zm1-3.816c-.314-.112-.648-.184-1-.184h-1.586l-2.688-2.688-1.253 2.508c-2.051-.73-3.473-2.692-3.473-4.919v-.901h5c2.757 0 5 2.243 5 5z"/><path d="m34 34h6v-6h-6zm2-4h2v2h-2z"/><path d="m42 28h12v2h-12z"/><path d="m42 32h10v2h-10z"/><path d="m8 56h2v2h-2z"/><path d="m8 52h2v2h-2z"/><path d="m8 48h2v2h-2z"/><path d="m12 52h2v2h-2z"/><path d="m12 48h2v2h-2z"/><path d="m16 52h2v2h-2z"/><path d="m16 48h2v2h-2z"/><path d="m20 52h2v2h-2z"/><path d="m20 48h2v2h-2z"/><path d="m24 52h2v2h-2z"/><path d="m24 48h2v2h-2z"/><path d="m28 52h2v2h-2z"/><path d="m28 48h2v2h-2z"/><path d="m32 52h2v2h-2z"/><path d="m32 48h2v2h-2z"/><path d="m28 56h2v2h-2z"/><path d="m32 56h2v2h-2z"/><path d="m4 12h4v2h-4z"/><path d="m10 12h16v2h-16z"/><path d="m4 16h14v2h-14z"/></g></g></svg>