<svg id="Layer_1" enable-background="new 0 0 512 512" viewBox="0 0 512 512" xmlns="http://www.w3.org/2000/svg"><g clip-rule="evenodd" fill-rule="evenodd"><g><g><path d="m9.019 220.97c3.92-52.253 47.901-93.794 101.113-93.794s97.192 41.541 101.113 93.794c.31 4.128-2.914 7.603-7.054 7.603h-188.118c-4.14 0-7.363-3.474-7.054-7.603z" fill="#64b5f6"/><path d="m102.729 127.446c2.446-.179 4.914-.27 7.404-.27 53.212 0 97.192 41.541 101.113 93.794.31 4.128-2.914 7.603-7.054 7.603h-14.807c4.14 0 7.364-3.474 7.054-7.603-3.738-49.809-43.875-89.884-93.71-93.524z" fill="#42a5f5"/><ellipse cx="110.132" cy="72.374" fill="#ffd6bd" rx="54.802" ry="54.802" transform="matrix(.973 -.23 .23 .973 -13.682 27.239)"/><path d="m110.132 17.573c-2.241 0-4.448.138-6.619.399 27.144 3.268 48.183 26.377 48.183 54.402 0 28.026-21.039 51.134-48.183 54.403 2.17.261 4.378.399 6.619.399 30.266 0 54.802-24.536 54.802-54.802-.001-30.266-24.536-54.801-54.802-54.801z" fill="#f9c6aa"/></g><g><path d="m300.756 220.97c3.92-52.253 47.901-93.794 101.113-93.794s97.192 41.541 101.113 93.794c.31 4.128-2.914 7.603-7.054 7.603h-188.118c-4.141 0-7.364-3.474-7.054-7.603z" fill="#72d561"/><path d="m394.465 127.446c2.446-.179 4.914-.27 7.404-.27 53.212 0 97.192 41.541 101.113 93.794.31 4.128-2.914 7.603-7.054 7.603h-14.807c4.14 0 7.364-3.474 7.054-7.603-3.738-49.809-43.874-89.884-93.71-93.524z" fill="#3cbe52"/><ellipse cx="401.869" cy="72.374" fill="#ffd6bd" rx="54.802" ry="54.802" transform="matrix(.973 -.23 .23 .973 -5.878 94.267)"/><path d="m401.868 17.573c-2.241 0-4.448.138-6.619.399 27.144 3.268 48.183 26.377 48.183 54.402 0 28.026-21.039 51.134-48.183 54.403 2.17.261 4.378.399 6.619.399 30.266 0 54.802-24.536 54.802-54.802s-24.536-54.801-54.802-54.801z" fill="#f9c6aa"/></g><g><path d="m154.887 246.534c3.92-52.253 47.901-93.794 101.113-93.794s97.192 41.541 101.113 93.794c.31 4.128-2.914 7.602-7.054 7.602h-188.118c-4.14.001-7.363-3.473-7.054-7.602z" fill="#ffda2d"/><path d="m248.597 153.01c2.446-.179 4.914-.27 7.404-.27 53.212 0 97.192 41.541 101.113 93.794.31 4.128-2.914 7.602-7.054 7.602h-14.807c4.14 0 7.364-3.474 7.054-7.602-3.738-49.809-43.875-89.884-93.71-93.524z" fill="#ffc700"/><ellipse cx="256" cy="97.938" fill="#ffd6bd" rx="54.802" ry="54.802" transform="matrix(.987 -.16 .16 .987 -12.382 42.271)"/><path d="m256 43.137c-2.24 0-4.448.137-6.619.399 27.144 3.268 48.183 26.377 48.183 54.403s-21.039 51.134-48.183 54.403c2.17.261 4.378.399 6.619.399 30.266 0 54.802-24.536 54.802-54.802s-24.536-54.802-54.802-54.802z" fill="#f9c6aa"/></g><g><path d="m168.59 419.954-16.071-17.173 32.477-32.477 17.221 16.024z" fill="#da8c36"/><path d="m168.59 419.954-16.071-17.173.175-.174 8.992 9.609 32.946-32.946 7.585 7.057z" fill="#c97629"/><path d="m154.035 391.171 26.716 26.715c.739.739.739 1.946 0 2.684l-67.792 67.792c-8.086 8.086-21.316 8.085-29.4 0-8.085-8.085-8.086-21.315 0-29.4l67.792-67.792c.738-.738 1.945-.738 2.684.001z" fill="#8d9ca8"/><path d="m175.716 412.851 5.035 5.035c.739.739.739 1.946.001 2.684l-67.792 67.792c-8.085 8.085-21.314 8.086-29.4 0-.86-.86-1.627-1.778-2.304-2.742 8.1 5.689 19.433 4.921 26.658-2.304l67.792-67.792c.734-.735.738-1.933.01-2.673z" fill="#7a8c98"/><path d="m180.751 417.886c.739.739.739 1.946.001 2.684l-17.592 17.592-29.4-29.4 17.592-17.592c.738-.738 1.945-.738 2.684.001 8.904 8.905 17.81 17.81 26.715 26.715z" fill="#7a8c98"/><path d="m180.751 417.886c.739.739.739 1.946.001 2.684l-17.592 17.592-5.047-5.046 17.592-17.592c.735-.735.739-1.933.011-2.673z" fill="#596c76"/><ellipse cx="255.983" cy="315.938" fill="#b4d2d7" rx="98.448" ry="98.448" transform="matrix(.975 -.224 .224 .975 -64.202 65.287)"/><path d="m291.958 224.297c28.066 11.044 50.713 34.791 59.119 66.161 14.073 52.519-17.094 106.501-69.614 120.574-26.825 7.188-54.03 2.568-76.106-10.667 18.922 7.446 40.307 9.12 61.456 3.453 52.519-14.072 83.686-68.055 69.613-120.574-6.884-25.693-23.324-46.271-44.468-58.947z" fill="#9bb9c3"/><ellipse cx="255.983" cy="315.938" fill="#e6f8ff" rx="72.909" ry="72.909" transform="matrix(.707 -.707 .707 .707 -148.426 273.543)"/><path d="m237.113 245.514c21.738-5.824 43.812-1.181 60.878 10.836-14.949-6.923-32.315-8.848-49.472-4.251-38.895 10.422-61.976 50.4-51.554 89.295 4.597 17.157 14.948 31.234 28.417 40.719-18.94-8.771-33.998-25.566-39.823-47.304-10.422-38.895 12.659-78.873 51.554-89.295z" fill="#d0f1ff"/><path d="m278.864 286.094c4.795-4.822 12.592-4.843 17.414-.048s4.843 12.592.048 17.414l-41.895 42.288c-4.763 4.79-12.487 4.842-17.316.143l-21.295-20.756c-4.875-4.742-4.983-12.539-.241-17.414s12.538-4.983 17.413-.241l12.557 12.241z" fill="#64b5f6"/></g></g><path d="m291.907 294.765c.009 1.151-.443 2.24-1.264 3.071l-41.886 42.269c-1.651 1.671-4.372 1.691-6.051.061l-21.309-20.76c-1.698-1.66-1.74-4.401-.08-6.1.84-.872 1.967-1.31 3.099-1.31 1.08 0 2.16.409 2.99 1.22l12.56 12.239c3.15 3.06 8.183 3.021 11.272-.099l33.298-33.619c.821-.811 1.901-1.271 3.052-1.271h.009c1.151 0 2.231.451 3.042 1.251.815.819 1.268 1.898 1.268 3.048zm-4.363-20.299c-5.429.021-10.527 2.139-14.352 5.989-.005 0-.005.011-.005.011l-27.732 27.989-6.891-6.71c-8.018-7.809-20.908-7.629-28.718.4-7.81 8.031-7.631 20.92.392 28.721l21.299 20.759c3.928 3.819 9.037 5.73 14.158 5.73 5.23 0 10.461-1.999 14.418-5.969l41.882-42.28c3.83-3.851 5.929-8.96 5.91-14.38-.009-5.431-2.141-10.52-5.99-14.35-3.83-3.81-8.909-5.91-14.319-5.91-.019 0-.043 0-.052 0zm-31.539 106.029c35.6 0 64.558-28.969 64.558-64.569 0-35.611-28.959-64.571-64.558-64.571-35.609 0-64.573 28.96-64.573 64.571.001 35.6 28.964 64.569 64.573 64.569zm0-145.138c-44.429 0-80.571 36.14-80.571 80.57 0 44.419 36.142 80.57 80.571 80.57 44.419 0 80.561-36.151 80.561-80.57.001-44.431-36.141-80.57-80.561-80.57zm104.092-14.782c-6.202-19.079-17.522-35.839-32.27-48.73 17.71-23.079 44.886-36.659 74.038-36.659 48.258 0 88.942 37.42 93.06 85.389zm-23.771 25.561c-19.531-22.451-48.301-36.67-80.321-36.67-32.029 0-60.8 14.22-80.33 36.67h-12.73c4.122-47.96 44.801-85.39 93.06-85.39 48.249 0 88.928 37.43 93.05 85.39zm-80.321 160.239c49.872 0 90.452-40.568 90.452-90.448s-40.58-90.462-90.452-90.462c-49.881 0-90.461 40.582-90.461 90.462 0 49.879 40.58 90.448 90.461 90.448zm-80.287-4.859-5.311-5.311 7.749-7.749c1.712 1.83 3.481 3.6 5.306 5.31zm-12.541 25.33-18.092-18.09 7.622-7.62 18.088 18.09zm-55.871 55.86 44.551-44.55-18.092-18.09-44.537 44.55c-4.995 4.991-4.995 13.101 0 18.09 2.396 2.401 5.608 3.72 9.037 3.72 3.428-.001 6.649-1.32 9.041-3.72zm44.598-262.131c6.202-19.079 17.531-35.839 32.279-48.73-17.705-23.079-44.9-36.659-74.048-36.659-48.263 0-88.942 37.42-93.06 85.389zm-88.57-148.189c0-25.81 20.993-46.809 46.801-46.809 25.799 0 46.796 20.999 46.796 46.809 0 25.8-20.997 46.799-46.796 46.799-25.808 0-46.801-20.999-46.801-46.799zm145.87 25.56c0-25.812 20.993-46.802 46.801-46.802 25.799 0 46.801 20.99 46.801 46.802 0 25.8-21.002 46.799-46.801 46.799-25.808 0-46.801-20.998-46.801-46.799zm145.86-25.56c0-25.81 21.002-46.809 46.81-46.809 25.799 0 46.792 20.999 46.792 46.809 0 25.8-20.993 46.799-46.792 46.799-25.807 0-46.81-20.999-46.81-46.799zm155.893 147.99c-3.363-44.771-33.902-81.88-74.59-95.55 17.031-11.251 28.298-30.549 28.298-52.44 0-34.631-28.171-62.812-62.79-62.812-34.628 0-62.809 28.181-62.809 62.812 0 21.87 11.249 41.16 28.27 52.409-20.54 6.861-38.783 19.771-52.291 37.42-7.612-4.91-15.852-8.91-24.549-11.829 17.04-11.241 28.308-30.55 28.308-52.439 0-34.631-28.181-62.8-62.799-62.8-34.633 0-62.799 28.169-62.799 62.8 0 21.889 11.268 41.199 28.299 52.439-8.697 2.92-16.941 6.919-24.549 11.829-13.498-17.65-31.742-30.559-52.282-37.42 17.012-11.25 28.261-30.539 28.261-52.409 0-34.631-28.171-62.812-62.799-62.812s-62.799 28.181-62.799 62.812c0 21.891 11.268 41.189 28.299 52.44-40.688 13.67-71.228 50.779-74.59 95.55-.321 4.18 1.132 8.329 3.971 11.389s6.872 4.811 11.06 4.811h131.961c-.5 3.08-.891 6.199-1.122 9.359-.321 4.181 1.132 8.331 3.971 11.391 2.839 3.058 6.872 4.809 11.06 4.809h2.221c-9.282 15.8-14.621 34.181-14.621 53.791 0 22.23 6.848 42.879 18.55 59.968l-9.032 9.031c-1.759-1.531-3.999-2.371-6.358-2.371-2.613 0-5.061 1.012-6.9 2.85l-67.903 67.9c-11.22 11.22-11.22 29.491 0 40.711 5.434 5.42 12.655 8.41 20.361 8.41 7.711 0 14.942-2.99 20.361-8.41l67.888-67.891c3.632-3.629 3.792-9.429.491-13.269l9.032-9.02c17.088 11.69 37.741 18.54 59.97 18.54 58.701 0 106.45-47.75 106.45-106.449 0-19.61-5.329-37.991-14.621-53.791h2.221c4.188 0 8.23-1.75 11.06-4.809 2.84-3.06 4.292-7.211 3.971-11.391-.231-3.16-.613-6.279-1.113-9.359h131.952c4.188 0 8.221-1.75 11.06-4.811 2.838-3.059 4.286-7.208 3.97-11.389z"/></g></svg>