<svg id="Layer_1" enable-background="new 0 0 512 512" height="512" viewBox="0 0 512 512" width="512" xmlns="http://www.w3.org/2000/svg"><g><g clip-rule="evenodd" fill-rule="evenodd"><path d="m242.3 195.9h27.4v17.9c10 1.9 19.2 5.8 27.4 11.3l12.6-12.6 19.4 19.4-12.6 12.6c5.5 8.1 9.4 17.4 11.3 27.4h17.8v27.4h-17.8c-1.9 10-5.8 19.2-11.3 27.4l12.6 12.6-19.4 19.4-12.6-12.7c-8.1 5.5-17.4 9.4-27.4 11.3v17.8h-27.4v-17.8c-10-1.9-19.2-5.8-27.4-11.3l-12.6 12.6-19.3-19.4 12.6-12.6c-5.5-8.1-9.4-17.4-11.3-27.4h-17.8v-27.4h17.8c1.9-10 5.8-19.2 11.3-27.4l-12.6-12.5 19.4-19.4 12.6 12.6c8.1-5.5 17.4-9.4 27.4-11.3v-17.9z" fill="#ffcd05"/><path d="m22.6 367c8-36.9 44.3-60.3 81.2-52.3s60.3 44.3 52.3 81.2-44.3 60.3-81.2 52.3c-36.9-7.9-60.3-44.3-52.3-81.2z" fill="#9695c9"/><path d="m189.3 81.5c8-36.9 44.3-60.3 81.2-52.3s60.3 44.3 52.3 81.2-44.3 60.3-81.2 52.3c-36.9-7.9-60.3-44.3-52.3-81.2z" fill="#04b3e1"/><path d="m355.9 367c8-36.9 44.3-60.3 81.2-52.3s60.3 44.3 52.3 81.2-44.3 60.3-81.2 52.3c-36.8-7.9-60.2-44.3-52.3-81.2z" fill="#fdb614"/><path d="m474.7 425.7c-15.8 18.6-41 28-66.5 22.5-15.3-3.3-28.2-11.5-37.6-22.5 7.5-11.8 20.7-19.6 35.6-19.6h32.9c14.9 0 28.1 7.9 35.6 19.6zm-52-86.1c-17.8 0-32.2 14.4-32.2 32.2s14.4 32.2 32.2 32.2 32.2-14.4 32.2-32.2-14.4-32.2-32.2-32.2z" fill="#fad1a2"/><path d="m256 247c21.3 0 38.5 17.2 38.5 38.5s-17.2 38.5-38.5 38.5-38.5-17.2-38.5-38.5c0-21.2 17.2-38.5 38.5-38.5z" fill="#ed1968"/><path d="m141.4 425.7c-15.8 18.6-41 28-66.5 22.5-15.3-3.3-28.2-11.5-37.6-22.5 7.5-11.8 20.7-19.6 35.6-19.6h32.9c14.9 0 28 7.9 35.6 19.6zm-52.1-86.1c-17.8 0-32.2 14.4-32.2 32.2s14.4 32.2 32.2 32.2 32.2-14.4 32.2-32.2-14.4-32.2-32.2-32.2z" fill="#fad1a2"/><path d="m308 140.2c-15.8 18.5-41 28-66.5 22.5-15.3-3.3-28.2-11.5-37.6-22.5 7.5-11.8 20.7-19.6 35.6-19.6h32.9c15 0 28.1 7.8 35.6 19.6zm-52-86.1c-17.8 0-32.2 14.4-32.2 32.2s14.4 32.2 32.2 32.2 32.2-14.4 32.2-32.2-14.4-32.2-32.2-32.2z" fill="#fad1a2"/></g><path d="m253.5 171.3c-24.6-.8-47.4-13.6-60.8-34.5-10.4-16.1-14.7-36.1-10.4-56.3 0-.3.1-.5.1-.7 4.5-20.2 16.6-36.6 32.8-47s36.4-14.7 56.7-10.3 36.9 16.6 47.4 32.9c10.4 16.2 14.7 36.4 10.3 56.7-7.8 35.7-40 60.3-76.1 59.2zm-49.3-42.5c6.7-7 15.3-11.9 24.9-14-16-15.2-16.4-40.6-.8-56.2 15.3-15.3 40.1-15.3 55.4 0 15.6 15.6 15.3 41-.7 56.2 9.5 2.1 18.1 7 24.9 14 12.8-20.3 12.4-46.2-.3-66-18.3-28.4-56.4-36.6-84.7-18.3-28.3 18.2-36.7 55.9-18.7 84.3zm94.8 10.9c-6.6-7.6-16.2-12.1-26.5-12.1h-32.9c-10.3 0-19.9 4.5-26.6 12.1 24.1 23.7 62.4 23.2 86 0zm-43-78.6c-22.4 0-33.6 27.2-17.8 43s43 4.6 43-17.8c0-13.9-11.3-25.2-25.2-25.2zm-174.2 395.3c-22.8-2.3-43.3-14.7-55.8-34.1-10.4-16.2-14.7-36.4-10.3-56.7s16.6-36.9 32.8-47.4c16.2-10.4 36.4-14.7 56.7-10.3s36.9 16.6 47.4 32.8c10.4 16.2 14.7 36.4 10.3 56.7s-16.6 36.9-32.8 47.4c-13.3 8.5-29.2 12.9-45.7 11.8zm-44.3-42.2c6.7-7 15.3-11.9 24.8-14-16-15.2-16.3-40.6-.7-56.2 15.3-15.3 40.1-15.3 55.4 0 15.6 15.6 15.3 41-.8 56.2 9.5 2.1 18.2 7 24.9 14 12.8-20.3 12.4-46.2-.3-66-18.3-28.3-56.4-36.6-84.8-18.3-28.1 18.2-36.4 56-18.5 84.3zm94.8 11c-6.6-7.6-16.2-12.1-26.6-12.1h-32.8c-10.3 0-19.9 4.5-26.5 12.1 24.3 24 62.6 22.9 85.9 0zm-43-78.6c-22.4 0-33.6 27.2-17.8 43s43 4.6 43-17.8c0-13.9-11.3-25.2-25.2-25.2zm166.7-106.6c25.1 0 45.5 20.4 45.5 45.5s-20.4 45.5-45.5 45.5-45.5-20.4-45.5-45.5 20.4-45.5 45.5-45.5zm22.3 23.3c-12.3-12.3-32.3-12.3-44.6 0s-12.3 32.3 0 44.6 32.3 12.3 44.6 0 12.3-32.3 0-44.6zm140.9 193.4c-24.2-1.2-46.5-13.9-59.8-34.5-10.4-16.1-14.6-36.1-10.4-56.3.1-.3.1-.5.2-.7 4.5-20.1 16.6-36.6 32.7-47s36.1-14.6 56.3-10.3c.3 0 .5.1.7.1 20.1 4.5 36.6 16.6 47 32.7s14.6 36.1 10.3 56.3c0 .3-.1.5-.1.7-4.5 20.1-16.6 36.6-32.7 47-13 8.5-28.3 12.7-44.2 12zm-48.3-42.5c6.7-7 15.3-11.9 24.9-14-16-15.2-16.4-40.6-.8-56.2 15.3-15.3 40.1-15.3 55.4 0 15.6 15.6 15.3 41-.8 56.2 9.5 2.1 18.2 7 24.9 14 22.5-35.5 3.2-83.5-38.9-92.7-16.6-3.6-33-.1-46.2 8.4-28.2 18.3-36.5 56-18.5 84.3zm94.8 11c-6.6-7.6-16.2-12.1-26.5-12.1h-32.9c-10.3 0-19.9 4.5-26.5 12.1 23.6 23.3 61.9 23.6 85.9 0zm-43-78.6c-22.4 0-33.6 27.2-17.8 43s43 4.6 43-17.8c0-13.9-11.3-25.2-25.2-25.2zm-180.4-157.6h27.4c3.9 0 7 3.1 7 7v12.3c6.8 1.8 13.3 4.5 19.3 8l8.7-8.7c2.7-2.7 7.2-2.7 9.9 0l19.4 19.4c2.7 2.7 2.7 7.1 0 9.9l-8.7 8.7c3.5 6 6.2 12.6 8 19.4h12.3c3.9 0 7 3.1 7 7v27.4c0 4-3.2 7.2-7.6 7h-11.7c-1.8 6.8-4.5 13.3-8 19.4l8.7 8.7c2.7 2.7 2.7 7.1 0 9.9l-19.4 19.4c-2.7 2.7-7.1 2.7-9.9 0l-8.7-8.7c-6 3.5-12.6 6.2-19.3 8v12.3c0 3.9-3.1 7-7 7h-27.4c-3.9 0-7-3.1-7-7v-12.3c-6.8-1.8-13.3-4.5-19.3-8l-8.7 8.7c-2.7 2.7-7.2 2.7-9.9 0l-19.4-19.6c-2.7-2.7-2.7-7.2 0-9.9l8.7-8.7c-3.5-6-6.2-12.6-8-19.3h-12.3c-3.9 0-7-3.1-7-7v-27.4c0-3.9 3.1-7 7-7h12.3c1.8-6.8 4.5-13.3 8-19.4l-8.7-8.7c-2.7-2.7-2.7-7.2 0-9.9l19.4-19.4c2.7-2.7 7.2-2.7 9.9 0l8.7 8.7c6-3.5 12.6-6.2 19.4-8v-12.2c-.1-3.9 3-7 6.9-7zm20.4 14h-13.4v10.5c.2 3.4-2.2 6.6-5.7 7.2-8 1.5-17.8 5.3-24.4 10-2.7 2.1-6.7 2-9.2-.6l-7.7-7.7-9.5 9.5 7.7 7.7c2.3 2.3 2.7 6.1.8 8.9-2.5 3.7-4.7 7.7-6.4 11.8-1.6 4-2.9 8.1-3.8 12.4-.4 3.5-3.4 6.2-6.9 6.2h-10.9v13.4h10.9c3.3 0 6.2 2.3 6.9 5.7 1.5 8 5.3 17.8 10 24.3 2.1 2.7 1.9 6.7-.6 9.2l-7.7 7.7 9.5 9.5 7.7-7.7c2.3-2.3 6-2.7 8.9-.8 3.7 2.5 7.7 4.7 11.8 6.4 4 1.6 8.1 2.9 12.4 3.7 3.5.4 6.2 3.4 6.2 6.9v10.9h13.4v-10.9c0-3.3 2.4-6.2 5.7-6.9 8-1.5 17.8-5.3 24.4-10 2.7-2.1 6.7-1.9 9.2.6l7.7 7.7 9.5-9.5-7.7-7.7c-2.3-2.3-2.7-6-.8-8.9 5.1-7.5 8.5-15.8 10.2-24.7.6-3.3 3.5-5.7 6.9-5.7h10.8v-13.4h-10.8c-3.3 0-6.2-2.4-6.9-5.7-1.5-8-5.3-17.8-10-24.3-2.1-2.7-1.9-6.7.6-9.2l7.7-7.7-9.5-9.5-7.7 7.7c-2.3 2.4-6.1 2.7-8.9.8-3.7-2.5-7.7-4.7-11.8-6.4-4-1.6-8.1-2.9-12.4-3.8-3.5-.4-6.2-3.4-6.2-6.9zm-177.1 84.2c-.2 3.9-3.5 6.8-7.3 6.6s-6.8-3.5-6.6-7.3c2.4-46.3 22.6-90.2 55.5-122.4l-9.1 2.4c-3.7 1-7.5-1.3-8.5-5s1.3-7.5 5-8.5l38.7-10.1c5.5-1.4 10.3 4.1 8.2 9.3l-14.7 37.2c-1.4 3.6-5.5 5.4-9.1 4s-5.4-5.5-4-9.1l4.6-11.7c-31.2 29.9-50.3 70.9-52.7 114.6zm353.3-45.7c1-3.7 4.8-5.9 8.6-4.9s5.9 4.8 4.9 8.6l-10.6 38.6c-1.5 5.5-8.7 6.9-12.2 2.5l-24.9-31.3c-2.4-3-1.9-7.4 1.1-9.8s7.4-1.9 9.8 1.1l7.8 9.8c-11.4-47.1-41.9-86.4-83.7-109.5-3.3-1.9-4.6-6.1-2.7-9.5s6.1-4.6 9.5-2.7c44.5 24.7 77.1 66.2 89.9 116.2zm-232.9 237.9c2.7 2.7 2.7 7.2-.1 9.9-2.7 2.7-7.1 2.7-9.9-.1l-28.1-28.5c-4-4.1-1.6-11 3.9-11.8l39.6-5.9c3.8-.5 7.4 2.1 7.9 5.9s-2.1 7.4-5.9 7.9l-12.4 1.9c47.8 14.1 99.8 6.5 141.7-20.7 3.2-2.1 7.6-1.2 9.7 2s1.2 7.6-2 9.7c-44.6 28.9-99.9 37.4-150.9 23.1z"/></g></svg>