<?xml version="1.0" encoding="iso-8859-1"?>
<!-- Generator: Adobe Illustrator 19.0.0, SVG Export Plug-In . SVG Version: 6.00 Build 0)  -->
<svg version="1.1" id="Capa_1" xmlns="http://www.w3.org/2000/svg" xmlns:xlink="http://www.w3.org/1999/xlink" x="0px" y="0px"
	 viewBox="0 0 512 512" style="enable-background:new 0 0 512 512;" xml:space="preserve">
<path style="fill:#528AA0;" d="M189.729,52.896v71.399c0,15.414,12.495,27.909,27.909,27.909h76.723
	c15.414,0,27.916-12.495,27.916-27.909V52.896c0-2.773-0.279-5.484-0.808-8.097c-3.54-17.595-18.397-30.801-36.18-30.801h-58.577
	C206.287,13.997,189.729,31.412,189.729,52.896z"/>
<path style="fill:#336F87;" d="M189.729,53.3v70.995c0,15.414,12.495,27.909,27.909,27.909h76.723
	c15.414,0,27.916-12.495,27.916-27.909V52.896c0-2.773-0.279-5.484-0.808-8.097c-25.505,4.948-59.581,11.791-95.371,11.763
	l1.589-9.582C227.687,46.979,216.872,50.903,189.729,53.3z"/>
<g>
	<circle style="fill:#FFBE92;" cx="194.01" cy="107.939" r="17.523"/>
	<circle style="fill:#FFBE92;" cx="317.99" cy="107.939" r="17.523"/>
</g>
<path style="fill:#94F2F7;" d="M373.04,291.4H138.96c0-37.1,17.26-70.17,44.19-91.59c3.47-2.76,7.09-5.33,10.87-7.69
	c9.84-6.17,20.66-10.91,32.19-13.93c1.5-0.4,3.02-0.76,4.55-1.1c8.13-1.78,16.57-2.73,25.24-2.73s17.11,0.95,25.24,2.73
	c1.53,0.34,3.05,0.7,4.55,1.1c11.53,3.02,22.36,7.76,32.2,13.93C351.06,212.8,373.04,249.53,373.04,291.4z"/>
<g>
	<path style="fill:#76D3DD;" d="M205.81,226.27v65.13h-66.85c0-37.1,17.26-70.17,44.19-91.59c3.47-2.76,7.09-5.33,10.87-7.69
		C201.38,201.42,205.81,213.32,205.81,226.27z"/>
	<path style="fill:#76D3DD;" d="M373.04,291.4h-66.85v-65.13c0-12.95,4.43-24.85,11.8-34.15
		C351.06,212.8,373.04,249.53,373.04,291.4z"/>
	<path style="fill:#76D3DD;" d="M215.91,291.4l14.22-89.87c-2.48-3.92-3.92-8.55-3.92-13.52v-9.82c1.5-0.4,3.02-0.76,4.55-1.1
		c8.13-1.78,16.57-2.73,25.24-2.73s17.11,0.95,25.24,2.73c1.53,0.34,3.05,0.7,4.55,1.1v9.82c0,4.97-1.44,9.6-3.92,13.52l14.22,89.87
		L215.91,291.4L215.91,291.4z"/>
</g>
<g>
	<polygon style="fill:#FF5F5F;" points="229.546,301.251 256,324.631 282.454,301.251 265.273,192.589 246.727,192.589 	"/>
	<path style="fill:#FF5F5F;" d="M251.612,198.406h8.777c5.742,0,10.397-4.655,10.397-10.397v-15.054h-29.571v15.054
		C241.215,193.751,245.869,198.406,251.612,198.406z"/>
</g>
<path style="fill:#FFCFAE;" d="M204.701,148.721c0,15.003,12.167,27.17,27.17,27.17h48.257c15.003,0,27.17-12.167,27.17-27.17
	v-80.53c-15.338,3.937-41.379,9.31-69.155,9.275l0.948-9.582c0,0-9.505,5.777-34.39,7.589V148.721z"/>
<path style="fill:#FFBE92;" d="M204.705,86.358c24.884-1.812,34.39-7.589,34.39-7.589l-0.948,9.582
	c27.776,0.035,53.818-5.338,69.155-9.275V68.191c-15.338,3.937-41.379,9.31-69.155,9.275l0.948-9.582c0,0-9.505,5.777-34.39,7.589
	V86.358z"/>
<path style="fill:#528AA0;" d="M190.808,226.268v71.399c0,15.414-12.495,27.909-27.909,27.909H86.176
	c-15.414,0-27.916-12.495-27.916-27.909v-71.399c0-2.773,0.279-5.484,0.808-8.097c3.54-17.595,18.397-30.801,36.18-30.801h58.577
	C174.251,187.369,190.808,204.784,190.808,226.268z"/>
<path style="fill:#336F87;" d="M190.808,226.672v70.995c0,15.414-12.495,27.909-27.909,27.909H86.176
	c-15.414,0-27.916-12.495-27.916-27.909v-71.399c0-2.773,0.279-5.484,0.808-8.097c25.505,4.948,59.581,11.791,95.371,11.763
	l-1.589-9.582C152.851,220.351,163.666,224.275,190.808,226.672z"/>
<g>
	<circle style="fill:#FFBE92;" cx="186.53" cy="281.309" r="17.523"/>
	<circle style="fill:#FFBE92;" cx="62.55" cy="281.309" r="17.523"/>
</g>
<path style="fill:#A4E7FF;" d="M241.57,464.77H7.5c0-54.34,37.03-100.03,87.25-113.2c1.5-0.41,3.02-0.77,4.55-1.11
	c8.12-1.78,16.57-2.72,25.24-2.72s17.11,0.94,25.24,2.72c1.52,0.33,3.04,0.7,4.54,1.1c15.93,4.17,30.55,11.64,43.07,21.62
	C224.31,394.61,241.57,427.67,241.57,464.77z"/>
<path style="fill:#73D7FF;" d="M84.45,464.77l14.22-89.87c-2.48-3.92-3.92-8.55-3.92-13.52v-9.81c1.5-0.41,3.02-0.77,4.55-1.11
	c8.12-1.78,16.57-2.72,25.24-2.72s17.11,0.94,25.24,2.72c1.52,0.33,3.04,0.7,4.54,1.1v9.82c0,4.97-1.44,9.6-3.91,13.52l14.21,89.87
	L84.45,464.77L84.45,464.77z"/>
<g>
	<polygon style="fill:#FF5F5F;" points="150.992,474.623 124.538,498.003 98.084,474.623 115.265,365.961 133.811,365.961 	"/>
	<path style="fill:#FF5F5F;" d="M128.926,371.778h-8.777c-5.742,0-10.397-4.655-10.397-10.397v-15.054h29.571v15.054
		C139.323,367.123,134.668,371.778,128.926,371.778z"/>
</g>
<path style="fill:#FFCFAE;" d="M175.836,248.845c-24.885-1.812-34.39-7.589-34.39-7.589l0.948,9.582
	c-27.776,0.035-53.818-5.338-69.155-9.275v80.53c0,15.003,12.167,27.17,27.17,27.17h48.257c15.003,0,27.17-12.167,27.17-27.17
	V248.845z"/>
<path style="fill:#FFBE92;" d="M175.833,259.73c-24.884-1.812-34.39-7.589-34.39-7.589l0.948,9.582
	c-27.776,0.035-53.818-5.338-69.155-9.275v-10.885c15.338,3.937,41.379,9.31,69.155,9.275l-0.948-9.582c0,0,9.505,5.777,34.39,7.589
	V259.73z"/>
<path style="fill:#528AA0;" d="M321.192,226.268v71.399c0,15.414,12.495,27.909,27.909,27.909h76.723
	c15.414,0,27.916-12.495,27.916-27.909v-71.399c0-2.773-0.279-5.484-0.808-8.097c-3.54-17.595-18.397-30.801-36.18-30.801h-58.577
	C337.749,187.369,321.192,204.784,321.192,226.268z"/>
<path style="fill:#336F87;" d="M321.192,226.672v70.995c0,15.414,12.495,27.909,27.909,27.909h76.723
	c15.414,0,27.916-12.495,27.916-27.909v-71.399c0-2.773-0.279-5.484-0.808-8.097c-25.505,4.948-59.581,11.791-95.371,11.763
	l1.589-9.582C359.149,220.351,348.334,224.275,321.192,226.672z"/>
<g>
	<circle style="fill:#FFBE92;" cx="325.48" cy="281.309" r="17.523"/>
	<circle style="fill:#FFBE92;" cx="449.45" cy="281.309" r="17.523"/>
</g>
<path style="fill:#A4E7FF;" d="M504.5,464.77H270.43c0-37.1,17.26-70.16,44.18-91.59c12.52-9.98,27.14-17.45,43.07-21.62
	c1.5-0.4,3.02-0.77,4.54-1.1c8.13-1.78,16.57-2.72,25.24-2.72c8.67,0,17.12,0.94,25.24,2.72c1.53,0.34,3.05,0.7,4.55,1.11
	C467.47,364.74,504.5,410.43,504.5,464.77z"/>
<path style="fill:#73D7FF;" d="M347.38,464.77l14.21-89.87c-2.47-3.92-3.91-8.55-3.91-13.52v-9.82c1.5-0.4,3.02-0.77,4.54-1.1
	c8.13-1.78,16.57-2.72,25.24-2.72c8.67,0,17.12,0.94,25.24,2.72c1.53,0.34,3.05,0.7,4.55,1.11v9.81c0,4.97-1.44,9.6-3.92,13.52
	l14.22,89.87L347.38,464.77L347.38,464.77z"/>
<g>
	<polygon style="fill:#FF5F5F;" points="361.008,474.623 387.462,498.003 413.916,474.623 396.735,365.961 378.189,365.961 	"/>
	<path style="fill:#FF5F5F;" d="M383.074,371.778h8.777c5.742,0,10.397-4.655,10.397-10.397v-15.054h-29.571v15.054
		C372.677,367.123,377.332,371.778,383.074,371.778z"/>
</g>
<path style="fill:#FFCFAE;" d="M336.164,322.093c0,15.003,12.167,27.17,27.17,27.17h48.257c15.003,0,27.17-12.167,27.17-27.17
	v-80.53c-15.338,3.937-41.379,9.31-69.155,9.275l0.948-9.582c0,0-9.505,5.777-34.39,7.589V322.093z"/>
<path style="fill:#FFBE92;" d="M336.167,259.73c24.884-1.812,34.39-7.589,34.39-7.589l-0.948,9.582
	c27.776,0.035,53.818-5.338,69.155-9.275v-10.885c-15.338,3.937-41.379,9.31-69.155,9.275l0.948-9.582c0,0-9.505,5.777-34.39,7.589
	V259.73z"/>
<path d="M253.663,143.339h6.655c4.143,0,7.5-3.357,7.5-7.5c0-3.856-2.911-7.033-6.655-7.453v-25.065c0-4.143-3.357-7.5-7.5-7.5
	s-7.5,3.357-7.5,7.5v32.519C246.163,139.981,249.521,143.339,253.663,143.339z"/>
<path d="M228.168,110.82c9.652,0,9.668-15,0-15C218.516,95.82,218.5,110.82,228.168,110.82z"/>
<path d="M284.148,110.82c9.652,0,9.668-15,0-15C274.496,95.82,274.48,110.82,284.148,110.82z"/>
<path d="M126.875,269.192c-4.143,0-7.5,3.357-7.5,7.5v25.065c-3.744,0.42-6.655,3.597-6.655,7.453c0,4.143,3.357,7.5,7.5,7.5h6.655
	c4.143,0,7.5-3.357,7.5-7.5v-32.519C134.375,272.55,131.018,269.192,126.875,269.192z"/>
<path d="M152.37,269.192c-9.652,0-9.668,15,0,15C162.022,284.192,162.038,269.192,152.37,269.192z"/>
<path d="M96.39,269.192c-9.652,0-9.668,15,0,15C106.042,284.192,106.058,269.192,96.39,269.192z"/>
<path d="M485.521,388.006c-2.556-3.26-7.269-3.83-10.529-1.273c-3.26,2.556-3.83,7.271-1.273,10.529
	c13.683,17.448,21.57,38.062,23.032,60.013h-29.345v-24.276c0-4.143-3.357-7.5-7.5-7.5s-7.5,3.357-7.5,7.5v24.276H418.77
	l-13.323-84.249c2.747-3.188,4.304-7.28,4.304-11.641v-3.852c14.823,3.078,29.051,9.284,41.397,18.113
	c1.321,0.945,2.846,1.4,4.356,1.4c2.338,0,4.643-1.091,6.106-3.139c2.409-3.369,1.632-8.054-1.738-10.463
	c-8.193-5.86-17.12-10.696-26.482-14.414c6.69-5.425,11.322-13.286,12.542-22.222c7.861-5.428,13.188-13.792,14.782-23.167
	c8.3-4.171,13.755-12.706,13.755-22.326c0-9.42-5.23-17.817-13.229-22.075v-32.965c0-25.585-19.958-46.4-44.49-46.4h-58.58
	c-10.604,0-20.747,3.932-28.719,10.968c-8.516-6.226-17.765-11.327-27.505-15.198c6.685-5.428,11.311-13.289,12.526-22.223
	c7.855-5.418,13.178-13.775,14.772-23.148c8.306-4.17,13.765-12.706,13.765-22.328c0-9.422-5.234-17.82-13.24-22.077V52.894
	c0-25.585-19.953-46.399-44.479-46.399h-42.21c-4.143,0-7.5,3.357-7.5,7.5s3.357,7.5,7.5,7.5h42.21
	c16.255,0,29.479,14.086,29.479,31.399v14.793c-0.145-2.125-1.177-4.101-2.874-5.417c-1.832-1.422-4.22-1.916-6.461-1.339
	c-14.437,3.705-35.781,8.041-58.998,8.891l0.118-1.194c0.283-2.868-1.009-5.704-3.47-7.202c-2.445-1.49-5.432-1.513-7.842,0.024
	c-0.723,0.387-9.733,4.993-31.087,6.547c-3.715,0.271-6.631,3.218-6.926,6.871V52.894c0-12.01,6.288-22.792,16.411-28.138
	c3.663-1.934,5.064-6.472,3.13-10.134c-1.935-3.664-6.473-5.065-10.134-3.13c-15.055,7.95-24.407,23.814-24.407,41.401V85.87
	c-8.013,4.265-13.24,12.658-13.24,22.074c0,9.636,5.474,18.182,13.767,22.337c1.596,9.369,6.918,17.723,14.771,23.14
	c1.216,8.934,5.842,16.795,12.526,22.223c-9.74,3.871-18.99,8.973-27.505,15.198c-7.974-7.037-18.116-10.968-28.719-10.968H95.25
	c-24.532,0-44.49,20.815-44.49,46.4v32.969c-8.007,4.266-13.229,12.657-13.229,22.071c0,9.63,5.466,18.173,13.756,22.333
	c1.596,9.373,6.922,17.734,14.781,23.161c1.219,8.929,5.845,16.786,12.528,22.211c-18.603,7.394-35.33,19.246-48.57,34.659
	C10.663,406.218,0,435.019,0,464.774c0,4.143,3.357,7.5,7.5,7.5h44.536c0.02,0,0.039,0.003,0.058,0.003s0.038-0.003,0.058-0.003
	h38.706l-0.186,1.178c-0.4,2.533,0.521,5.095,2.442,6.792l26.46,23.38c1.418,1.253,3.191,1.88,4.966,1.88s3.549-0.627,4.967-1.881
	l26.45-23.38c1.921-1.697,2.842-4.258,2.441-6.79l-0.186-1.179h38.711c0.02,0,0.039,0.003,0.058,0.003s0.038-0.003,0.058-0.003
	h44.541c4.143,0,7.5-3.357,7.5-7.5c0-30.466-11.133-59.799-31.349-82.596c-2.747-3.1-7.487-3.386-10.587-0.636
	c-3.1,2.748-3.384,7.488-0.636,10.587c16.114,18.173,25.666,41.067,27.315,65.145H204.48v-24.276c0-4.143-3.357-7.5-7.5-7.5
	s-7.5,3.357-7.5,7.5v24.276h-33.64l-13.322-84.279c2.675-3.129,4.301-7.181,4.301-11.611v-3.864
	c12.76,2.631,24.834,7.485,35.947,14.472c1.24,0.78,2.621,1.152,3.985,1.152c2.493,0,4.931-1.242,6.355-3.509
	c2.205-3.506,1.15-8.137-2.356-10.341c-6.477-4.073-13.245-7.503-20.255-10.29c6.674-5.425,11.294-13.278,12.511-22.201
	c7.862-5.422,13.188-13.789,14.78-23.174c2.412-1.216,4.617-2.803,6.518-4.725h18.022l-0.186,1.179
	c-0.4,2.532,0.521,5.093,2.441,6.79l26.45,23.38c1.418,1.254,3.192,1.881,4.967,1.881c1.775,0,3.549-0.627,4.967-1.881l26.45-23.38
	c1.921-1.697,2.842-4.258,2.441-6.79l-0.186-1.179h18.023c1.906,1.927,4.112,3.516,6.518,4.729
	c1.593,9.383,6.918,17.749,14.779,23.17c1.218,8.93,5.844,16.788,12.527,22.214c-18.604,7.394-35.332,19.247-48.574,34.661
	c-19.362,22.54-30.025,51.341-30.025,81.097c0,4.143,3.357,7.5,7.5,7.5h44.541c0.02,0,0.039,0.003,0.058,0.003
	s0.038-0.003,0.058-0.003h38.711l-0.186,1.179c-0.4,2.532,0.521,5.093,2.441,6.79l26.45,23.38c1.418,1.254,3.192,1.881,4.967,1.881
	c1.773,0,3.548-0.627,4.966-1.88l26.46-23.38c1.922-1.697,2.843-4.259,2.442-6.792l-0.186-1.178h38.706
	c0.02,0,0.039,0.003,0.058,0.003s0.038-0.003,0.058-0.003H504.5c4.143,0,7.5-3.357,7.5-7.5
	C512,436.641,502.844,410.095,485.521,388.006z M317.27,287.067c-1.19-1.679-1.819-3.668-1.819-5.753
	c0-4.603,3.111-8.598,7.601-9.725c1.272-0.325,2.714-0.388,4.131-0.152c0.505,0.086,0.998,0.225,1.482,0.388v18.991
	c-1.787,0.6-3.743,0.694-5.641,0.209C320.703,290.448,318.664,289.049,317.27,287.067z M343.664,322.097v-66.408
	c7.8-0.877,13.923-2.128,18.585-3.385c0.262,1.317,0.876,2.554,1.795,3.57c1.42,1.568,3.437,2.465,5.552,2.468
	c0.096,0,0.189,0,0.285,0c23.111,0,44.948-3.562,61.38-7.257v71.012c0,0.05-0.007,0.099-0.008,0.149
	c0,0.023-0.003,0.046-0.003,0.069c-0.119,10.745-8.887,19.452-19.659,19.452h-9.283c-0.02,0-0.039-0.003-0.058-0.003
	s-0.038,0.003-0.058,0.003h-29.454c-0.02,0-0.039-0.003-0.058-0.003s-0.038,0.003-0.058,0.003h-9.288
	C352.488,341.767,343.664,332.942,343.664,322.097z M451.86,291.038c-0.768,0.196-1.579,0.296-2.41,0.296
	c-1.103,0-2.175-0.176-3.189-0.516v-19.009c1.014-0.339,2.086-0.516,3.189-0.516c0.845,0,1.663,0.1,2.462,0.304
	c4.45,1.119,7.558,5.114,7.558,9.717C459.47,285.921,456.358,289.915,451.86,291.038z M381.528,363.835
	c-0.845-0.534-1.349-1.45-1.349-2.451v-4.617h14.57v4.617c0,0.996-0.498,1.902-1.409,2.474c-0.434,0.279-0.949,0.427-1.491,0.427
	h-8.779C382.378,364.284,381.862,364.048,381.528,363.835z M358.17,194.874h58.58c16.261,0,29.49,14.086,29.49,31.4v14.937
	c-0.104-2.183-1.146-4.222-2.883-5.57c-1.833-1.422-4.22-1.916-6.461-1.339c-14.437,3.705-35.781,8.041-58.998,8.891l0.118-1.194
	c0.283-2.868-1.009-5.704-3.47-7.202c-2.445-1.49-5.432-1.514-7.842,0.024c-0.723,0.387-9.733,4.993-31.086,6.547
	c-3.736,0.273-6.661,3.251-6.929,6.932v-22.026c0-7.611,2.583-14.942,7.275-20.65c0.001-0.002,0.003-0.003,0.004-0.005
	c0.001-0.001,0.001-0.002,0.002-0.003C341.579,198.79,349.67,194.874,358.17,194.874z M263.29,188.014
	c0,0.998-0.503,1.911-1.379,2.464c-0.002,0.001-0.004,0.002-0.005,0.003c-0.155,0.099-0.36,0.207-0.614,0.291
	c-0.254,0.084-0.556,0.143-0.902,0.143h-8.779c-0.692,0-1.208-0.236-1.553-0.456c-0.844-0.531-1.348-1.445-1.348-2.444v-4.619h14.58
	L263.29,188.014L263.29,188.014z M320.378,117.671c-0.754,0.194-1.558,0.293-2.388,0.293c-1.104,0-2.177-0.176-3.191-0.516V98.44
	c1.015-0.34,2.087-0.516,3.191-0.516c0.836,0,1.651,0.1,2.453,0.305c4.455,1.118,7.566,5.113,7.566,9.716
	C328.01,112.551,324.896,116.545,320.378,117.671z M212.201,82.316c7.801-0.877,13.924-2.128,18.586-3.385
	c0.262,1.317,0.876,2.554,1.795,3.57c1.42,1.568,3.437,2.465,5.552,2.468c0.096,0,0.189,0,0.285,0
	c23.111,0,44.948-3.562,61.38-7.257v71.012c0,10.846-8.824,19.67-19.67,19.67h-9.32c-0.006,0-0.013-0.001-0.019-0.001
	s-0.013,0.001-0.019,0.001h-29.542c-0.006,0-0.013-0.001-0.019-0.001s-0.013,0.001-0.019,0.001h-9.32
	c-10.846,0-19.67-8.824-19.67-19.67L212.201,82.316L212.201,82.316z M191.562,117.655c-4.459-1.112-7.572-5.106-7.572-9.711
	c0-4.603,3.111-8.598,7.596-9.724c0.772-0.197,1.588-0.297,2.424-0.297c1.104,0,2.177,0.176,3.191,0.516v19.006
	c-1.787,0.602-3.738,0.697-5.632,0.211C191.567,117.656,191.564,117.656,191.562,117.655z M131.82,361.384
	c0,1.6-1.297,2.9-2.891,2.9h-8.779c-0.554,0-1.067-0.164-1.508-0.435c-0.052-0.034-0.105-0.067-0.158-0.099
	c-0.744-0.526-1.234-1.388-1.234-2.367v-4.617h14.57V361.384z M139.378,341.767c-0.02,0-0.039-0.003-0.058-0.003
	s-0.038,0.003-0.058,0.003h-29.454c-0.02,0-0.039-0.003-0.058-0.003s-0.038,0.003-0.058,0.003h-9.283
	c-10.772,0-19.54-8.707-19.659-19.452c0-0.023-0.003-0.046-0.003-0.069c0-0.05-0.008-0.099-0.008-0.149v-71.012
	c16.433,3.695,38.267,7.258,61.38,7.257c0.095,0,0.191,0,0.285,0c2.115-0.003,4.132-0.899,5.552-2.468
	c0.919-1.017,1.533-2.253,1.795-3.57c4.662,1.257,10.785,2.508,18.585,3.385v66.408c0,10.846-8.824,19.67-19.67,19.67H139.378z
	 M60.119,271.59c0.768-0.196,1.586-0.296,2.431-0.296c1.103,0,2.175,0.176,3.189,0.516v19.004c-1.793,0.603-3.75,0.697-5.643,0.214
	c-4.455-1.112-7.566-5.106-7.566-9.713C52.53,276.712,55.638,272.717,60.119,271.59z M188.931,291.038
	c-0.768,0.196-1.579,0.296-2.411,0.296c-1.104,0-2.173-0.175-3.184-0.513v-18.997c0.479-0.161,0.964-0.299,1.458-0.383
	c1.48-0.245,2.861-0.183,4.189,0.157c4.455,1.118,7.566,5.113,7.566,9.716c0,2.085-0.629,4.074-1.832,5.771
	C193.336,289.049,191.297,290.448,188.931,291.038z M95.25,194.874h58.58c8.499,0,16.589,3.915,22.2,10.746v0.001l0.001,0.001
	c0.002,0.003,0.004,0.005,0.006,0.007c4.689,5.703,7.272,13.035,7.272,20.646v22.026c-0.268-3.681-3.193-6.659-6.929-6.932
	c-21.353-1.554-30.363-6.16-31.086-6.547c-2.408-1.538-5.395-1.515-7.842-0.024c-2.461,1.498-3.753,4.334-3.47,7.202l0.118,1.194
	c-23.216-0.85-44.563-5.186-58.998-8.891c-2.24-0.575-4.629-0.082-6.461,1.339c-1.737,1.347-2.779,3.386-2.883,5.57v-14.937
	C65.76,208.96,78.989,194.874,95.25,194.874z M59.594,457.274v-24.276c0-4.143-3.357-7.5-7.5-7.5s-7.5,3.357-7.5,7.5v24.276H15.25
	c3.282-49.13,38.607-89.82,87-99.755v3.864c0,4.433,1.629,8.486,4.308,11.616L93.23,457.274H59.594z M124.539,487.995
	l-18.408-16.266l14.62-92.445h7.576l14.612,92.446L124.539,487.995z M211.401,283.904c0.088-0.857,0.148-1.718,0.148-2.59
	c0-9.423-5.236-17.821-13.24-22.078v-32.962c0-8.429-2.203-16.645-6.288-23.784c12.469-8.984,26.696-15.242,41.688-18.343v3.866
	c0,4.365,1.562,8.464,4.305,11.651l-13.316,84.239h-13.297V283.904z M256,314.624l-18.399-16.264l14.613-92.446h7.572l14.613,92.446
	L256,314.624z M273.984,199.66c2.748-3.193,4.306-7.287,4.306-11.646v-3.866c14.993,3.1,29.219,9.359,41.689,18.343
	c-4.086,7.14-6.288,15.356-6.288,23.784v32.966c-8.013,4.265-13.24,12.658-13.24,22.074c0,0.871,0.061,1.733,0.148,2.59h-13.298
	L273.984,199.66z M322.519,457.274v-24.276c0-4.143-3.357-7.5-7.5-7.5s-7.5,3.357-7.5,7.5v24.276H278.17
	c3.282-49.133,38.612-89.826,87.01-99.757v3.866c0,4.357,1.557,8.452,4.296,11.642l-13.317,84.248h-33.64V457.274z M387.461,487.995
	l-18.4-16.265l14.612-92.446h7.576l14.62,92.445L387.461,487.995z"/>
<path d="M385.125,316.711h6.655c4.143,0,7.5-3.357,7.5-7.5c0-3.856-2.911-7.033-6.655-7.453v-25.065c0-4.143-3.357-7.5-7.5-7.5
	s-7.5,3.357-7.5,7.5v32.519C377.625,313.353,380.982,316.711,385.125,316.711z"/>
<path d="M359.63,284.192c9.652,0,9.668-15,0-15C349.978,269.192,349.962,284.192,359.63,284.192z"/>
<path d="M415.61,284.192c9.652,0,9.668-15,0-15C405.958,269.192,405.942,284.192,415.61,284.192z"/>
<path d="M97.025,161.221c0.507,0.104,1.012,0.154,1.51,0.154c3.488,0,6.614-2.448,7.34-6c0.086-0.419,9.049-42.167,50.113-62.427
	c3.715-1.832,5.24-6.329,3.407-10.044c-1.832-3.714-6.33-5.24-10.044-3.407c-47.58,23.474-57.762,70.867-58.172,72.874
	C90.35,156.429,92.967,160.392,97.025,161.221z"/>
<path d="M356.012,92.948c40.737,20.099,49.99,61.851,50.116,62.442c0.731,3.543,3.853,5.984,7.337,5.984
	c0.498,0,1.004-0.051,1.51-0.154c4.059-0.829,6.676-4.792,5.846-8.85c-0.41-2.007-10.592-49.4-58.172-72.874
	c-3.716-1.833-8.212-0.307-10.044,3.407C350.771,86.619,352.297,91.116,356.012,92.948z"/>
<path d="M263.5,385.59c0.364-0.139,0.724-0.283,1.077-0.441l1.562,1.563c1.465,1.465,3.384,2.197,5.304,2.197
	c1.919,0,3.839-0.732,5.303-2.196c2.93-2.929,2.93-7.678,0.001-10.606l-1.563-1.564c0.159-0.353,0.302-0.714,0.441-1.077h2.216
	c4.143,0,7.5-3.357,7.5-7.5s-3.357-7.5-7.5-7.5h-2.216c-0.139-0.364-0.283-0.724-0.441-1.078l1.564-1.564
	c2.929-2.929,2.929-7.678-0.001-10.606c-2.93-2.93-7.679-2.929-10.606,0.001l-1.563,1.563c-0.353-0.159-0.713-0.302-1.077-0.441
	v-2.216c0-4.143-3.357-7.5-7.5-7.5s-7.5,3.357-7.5,7.5v2.216c-0.363,0.139-0.723,0.282-1.077,0.441l-1.563-1.563
	c-2.929-2.93-7.678-2.929-10.606-0.001c-2.93,2.929-2.93,7.678-0.001,10.606l1.564,1.564c-0.159,0.354-0.302,0.714-0.441,1.078
	h-2.216c-4.143,0-7.5,3.357-7.5,7.5s3.357,7.5,7.5,7.5h2.216c0.139,0.363,0.282,0.724,0.441,1.077l-1.563,1.564
	c-2.929,2.929-2.929,7.678,0.001,10.606c1.465,1.465,3.384,2.196,5.303,2.196s3.84-0.732,5.304-2.197l1.562-1.563
	c0.354,0.159,0.714,0.302,1.077,0.441v2.215c0,4.143,3.357,7.5,7.5,7.5s7.5-3.357,7.5-7.5v-2.215H263.5z M249.969,365.965
	c0-3.325,2.706-6.031,6.031-6.031s6.031,2.706,6.031,6.031s-2.706,6.031-6.031,6.031S249.969,369.29,249.969,365.965z"/>
<g>
</g>
<g>
</g>
<g>
</g>
<g>
</g>
<g>
</g>
<g>
</g>
<g>
</g>
<g>
</g>
<g>
</g>
<g>
</g>
<g>
</g>
<g>
</g>
<g>
</g>
<g>
</g>
<g>
</g>
</svg>
