<svg id="Layer_1" viewBox="0 0 512 512" xmlns="http://www.w3.org/2000/svg" data-name="Layer 1"><g fill-rule="evenodd"><path d="m249.73 298.05h42.39c-2.76-17.99-16.02-28.37-28.54-32.2-11.93-3.65-29.04-2.75-41.48 10.06 10.25 6.02 19.57 13.5 27.63 22.14z" fill="#cef56a"/><path d="m426.03 129.98c-.95 2.97-3.71 4.86-6.66 4.86-.71 0-1.43-.1-2.14-.33l-81.86-26.26c-3.69-1.19-5.71-5.13-4.53-8.81s5.12-5.71 8.8-4.52l81.86 26.26c3.68 1.18 5.71 5.12 4.53 8.8zm-84.64-66.49c1.11-3.71 5.02-5.82 8.71-4.71l59.61 17.8c3.71 1.11 5.82 5 4.71 8.71-.91 3.04-3.69 5-6.71 5-.66 0-1.34-.1-2-.3l-59.61-17.79c-3.71-1.11-5.81-5.01-4.71-8.71zm105.85 42.84c-.88-1.64-1.08-3.56-.55-5.33l10.42-34.9-138.63-41.39-20.24 67.77h10.78c.24 0 .47.02.7.04.17.02.34.05.5.08.06.01.11.01.17.02.2.04.4.09.59.15.03 0 .04 0 .07.02.2.06.4.13.59.21.02.01.04.01.06.02.18.08.36.16.53.25.03.02.06.03.08.04.17.09.33.19.49.29.03.02.07.04.1.07.16.1.31.22.46.33.03.03.06.05.09.07.18.15.35.31.52.47l43.4 43.41s.05.05.07.07l80.53 27.71c3.66 1.26 5.6 5.24 4.34 8.9-1 2.89-3.71 4.72-6.63 4.72-.75 0-1.52-.13-2.27-.38l-73.99-25.46v26.27l68.26 24.32c3.64 1.3 5.54 5.3 4.24 8.94-1.02 2.87-3.72 4.66-6.59 4.66-.78 0-1.58-.14-2.35-.41l-63.56-22.64v24.58l58.39 21.21c3.63 1.32 5.51 5.34 4.19 8.97-1.04 2.85-3.72 4.61-6.58 4.61-.8 0-1.6-.13-2.39-.42l-53.61-19.47v26.29l48.04 14.98c3.69 1.15 5.75 5.07 4.59 8.76-.93 3-3.69 4.92-6.68 4.92-.69 0-1.39-.1-2.08-.32l-43.86-13.67v20.44l39.58 12.34c3.69 1.15 5.75 5.07 4.6 8.76-.94 3-3.7 4.92-6.68 4.92-.69 0-1.4-.1-2.09-.32l-35.41-11.04v27.64l43.86-11.95c.6-.16 1.22-.26 1.84-.26h19.79l61.36-205.51-34.9-10.41c-1.77-.54-3.27-1.75-4.15-3.39z" fill="#eceff1"/><path d="m430.15 339.63h-24.07l-59.55 16.22v50.54l59.55 16.22h55v-82.98z" fill="#635463"/><path d="m316.02 135.9h19.52l-19.52-19.52z" fill="#ccc4cc"/><path d="m259.62 144.07h-66.67c-3.87 0-7-3.12-7-7s3.14-7 7-7h66.67c3.86 0 7 3.13 7 7s-3.14 7-7 7zm-66.67-32.5h28.95c3.87 0 7 3.14 7 7s-3.13 7-7 7h-28.95c-3.87 0-7-3.13-7-7s3.14-7 7-7zm109.07 31.32v-36.42h-144.67v152.81c1.09-.03 2.19-.04 3.29-.04 8.68 0 17.14.91 25.31 2.65v-94.73c0-5.84 4.75-10.59 10.6-10.59h109.69c5.84 0 10.59 4.75 10.59 10.59v134.3c0 5.84-4.75 10.59-10.59 10.59h-45.24c8.35 12.1 14.57 25.77 18.12 40.47h53.41v-2.03c0-3.15 2.12-5.92 5.16-6.75l7.75-2.11v-191.74h-36.42c-3.86 0-7-3.12-7-7z" fill="#eceff1"/><path d="m61.26 109.04c-1.02-3.73 1.18-7.58 4.91-8.6l34.95-9.55c3.73-1.02 7.58 1.17 8.59 4.9 1.02 3.72-1.17 7.58-4.9 8.6l-34.95 9.55c-.62.17-1.24.25-1.85.25-3.08 0-5.9-2.04-6.75-5.15zm82.09 151.44v-8.85l-29.92 8.18c-.61.17-1.24.25-1.85.25-3.08 0-5.9-2.05-6.75-5.16-1.02-3.73 1.18-7.58 4.91-8.6l33.61-9.18v-17.73l-38.2 10.43c-.61.17-1.23.25-1.84.25-3.08 0-5.9-2.04-6.75-5.16-1.02-3.72 1.17-7.58 4.9-8.6l41.89-11.45v-16.87l-47.02 12.85c-.62.17-1.24.25-1.85.25-3.08 0-5.9-2.04-6.75-5.15-1.02-3.73 1.18-7.58 4.91-8.6l50.71-13.86v-16.87l-55.84 15.26c-.62.17-1.24.25-1.85.25-3.08 0-5.9-2.04-6.75-5.15-1.02-3.73 1.18-7.58 4.91-8.6l59.53-16.27v-16.88c-.12.04-.24.08-.36.11l-64.31 17.57c-.61.17-1.23.26-1.85.26-3.07 0-5.9-2.04-6.75-5.16-1.02-3.73 1.18-7.58 4.9-8.6l64.31-17.58c1.38-.38 2.78-.31 4.05.12v-12.46c0-3.86 3.13-7 7-7h71.73l-3.59-13.13-35.12 9.61c-.61.16-1.23.24-1.85.24-1.2 0-2.4-.31-3.47-.92-1.61-.92-2.79-2.44-3.28-4.23l-9.6-35.13-139.56 38.14 55.22 202.03c17.28-15.01 38.82-25.23 62.53-28.61z" fill="#eceff1"/><path d="m467.69 79.59-5.58 18.7 18.69 5.59z" fill="#ccc4cc"/><path d="m282.52 381.12c0 4.94-.31 9.81-.88 14.6h50.89v-29.2h-50.89c.58 4.79.88 9.66.88 14.6z" fill="#b2b7cf"/><path d="m205.25 68.46-23.97-13.68 5.13 18.83z" fill="#ccc4cc"/><path d="m160.64 467.24c-47.49 0-86.12-38.63-86.12-86.12s38.63-86.12 86.12-86.12 86.12 38.64 86.12 86.12-38.64 86.12-86.12 86.12zm0-194c-59.49 0-107.88 48.4-107.88 107.88s48.39 107.88 107.88 107.88 107.88-48.39 107.88-107.88-48.41-107.88-107.88-107.88z" fill="#b2b7cf"/></g><circle cx="160.64" cy="381.12" fill="#eceff1" r="72.12" transform="matrix(.964 -.267 .267 .964 -95.9 56.71)"/><path d="m251.39 203.45c-7.95 0-14.83 4.22-18.39 11.28-.5 1-.91 2-1.24 3.02 9.66-.4 12-1.18 12.98-4.14.9-2.77 3.42-4.68 6.32-4.82 6.25-.29 12.37 1.13 17.59 4.01-3.78-5.88-10.07-9.34-17.27-9.34z" fill="#8a90b2" fill-rule="evenodd"/><path d="m302.83 170.57h-102.88v95.18c3.15 1.09 6.24 2.28 9.26 3.6 5.74-6.87 12.82-12.04 20.66-15.32-1.21-1.19-2.33-2.49-3.36-3.9-1.5-2.06-2.72-4.27-3.65-6.57-7.19-10.37-8.12-23.73-2.36-35.13 5.91-11.71 17.74-18.98 30.89-18.98s24.99 7.27 30.9 18.98c5.76 11.41 4.82 24.78-2.38 35.16-1.64 4.05-4.13 7.68-7.24 10.66 14.2 5.78 24.84 16.66 30.16 30.26v-113.93z" fill="#ffe8db" fill-rule="evenodd"/><path d="m234.65 231.63c-.12 3.62.97 7.21 3.19 10.28 3.18 4.38 8.12 6.89 13.55 6.89 9.23 0 16.74-7.46 16.74-16.63 0-.95-.86-2.8-2.76-4.61-2.54-2.42-6.02-4.03-9.76-4.6-4.89 7.12-13.56 8.28-20.97 8.67z" fill="#faefe8" fill-rule="evenodd"/><path d="m104.81 104.39c3.73-1.02 5.92-4.87 4.9-8.6-1.01-3.73-4.86-5.92-8.59-4.9l-34.95 9.55c-3.73 1.02-5.93 4.87-4.91 8.6.85 3.1 3.67 5.15 6.75 5.15.61 0 1.23-.08 1.85-.25z" fill="#282828" fill-rule="evenodd"/><path d="m346.11 72.2 59.61 17.79c.66.2 1.34.3 2 .3 3.02 0 5.79-1.96 6.71-5 1.11-3.71-1-7.6-4.71-8.71l-59.61-17.8c-3.7-1.11-7.6 1-8.71 4.71-1.09 3.7 1 7.6 4.71 8.71z" fill="#282828" fill-rule="evenodd"/><path d="m424.92 325.62h-19.79c-.62 0-1.24.1-1.84.26l-43.86 11.95v-27.64l35.41 11.04c.69.22 1.4.32 2.09.32 2.98 0 5.74-1.92 6.68-4.92 1.15-3.69-.91-7.61-4.6-8.76l-39.58-12.34v-20.44l43.86 13.67c.69.22 1.39.32 2.08.32 2.99 0 5.75-1.92 6.68-4.92 1.16-3.69-.9-7.61-4.59-8.76l-48.04-14.98v-26.29l53.61 19.47c.79.29 1.59.42 2.39.42 2.86 0 5.54-1.76 6.58-4.61 1.32-3.63-.56-7.65-4.19-8.97l-58.39-21.21v-24.58l63.56 22.64c.77.27 1.57.41 2.35.41 2.87 0 5.57-1.79 6.59-4.66 1.3-3.64-.6-7.64-4.24-8.94l-68.26-24.32v-26.27l73.99 25.46c.75.26 1.52.38 2.27.38 2.91 0 5.62-1.83 6.63-4.72 1.26-3.66-.68-7.64-4.34-8.9l-80.53-27.71s-.04-.05-.07-.07l-43.4-43.41c-.17-.16-.34-.32-.52-.47-.03-.02-.06-.04-.09-.07-.15-.11-.3-.23-.46-.33-.03-.03-.07-.05-.1-.07-.16-.1-.32-.2-.49-.29-.02-.01-.05-.03-.08-.04-.17-.09-.35-.17-.53-.25-.02 0-.04 0-.06-.02-.19-.08-.39-.15-.59-.21-.03-.01-.04-.01-.07-.02-.19-.06-.4-.11-.59-.15-.06 0-.11 0-.17-.02-.17-.03-.34-.06-.5-.08-.23-.02-.46-.04-.7-.04h-10.78l20.24-67.77 138.63 41.39-10.42 34.9c-.53 1.77-.33 3.69.55 5.33s2.38 2.84 4.15 3.39l34.9 10.41-61.36 205.51zm36.15 14v82.98h-55l-59.55-16.22v-50.54l59.55-16.22zm-145.06-203.73h19.52l-19.52-19.52zm29.42 205.74v-191.74h-36.42c-3.86 0-7-3.12-7-7v-36.42h-144.66v152.81c1.09-.03 2.19-.04 3.29-.04 8.68 0 17.14.91 25.31 2.65v-94.73c0-5.84 4.75-10.59 10.6-10.59h109.69c5.84 0 10.59 4.75 10.59 10.59v134.3c0 5.84-4.75 10.59-10.59 10.59h-45.24c8.35 12.1 14.57 25.77 18.12 40.47h53.41v-2.03c0-3.15 2.12-5.92 5.16-6.75l7.75-2.11zm-12.91 54.08h-50.89c.58-4.79.88-9.66.88-14.6s-.31-9.81-.88-14.6h50.89zm-59.86-141.47c14.2 5.78 24.84 16.66 30.16 30.26v-113.93h-102.88v95.18c3.15 1.09 6.24 2.28 9.26 3.6 5.74-6.87 12.82-12.04 20.66-15.32-1.21-1.19-2.33-2.49-3.36-3.9-1.5-2.06-2.72-4.27-3.65-6.57-7.19-10.37-8.12-23.73-2.36-35.13 5.91-11.71 17.74-18.98 30.89-18.98s24.99 7.27 30.9 18.98c5.76 11.41 4.82 24.78-2.38 35.16-1.64 4.05-4.13 7.68-7.24 10.66zm-9.08 11.6c12.52 3.83 25.78 14.21 28.54 32.2h-42.39c-8.06-8.64-17.38-16.12-27.63-22.14 12.44-12.81 29.55-13.71 41.48-10.06zm4.55-33.68c0 9.17-7.51 16.63-16.74 16.63-5.43 0-10.37-2.5-13.55-6.89-2.22-3.07-3.31-6.66-3.19-10.28 7.41-.39 16.08-1.55 20.97-8.67 3.73.57 7.21 2.18 9.76 4.6 1.9 1.81 2.76 3.66 2.76 4.61zm-17.07-23.39c-2.9.14-5.42 2.05-6.32 4.82-.97 2.96-3.32 3.74-12.98 4.14.33-1.02.73-2.02 1.24-3.02 3.56-7.06 10.44-11.28 18.39-11.28 7.19 0 13.49 3.46 17.27 9.34-5.23-2.88-11.35-4.3-17.59-4.01zm-90.42 280.22c-59.49 0-107.88-48.39-107.88-107.88s48.39-107.88 107.88-107.88 107.88 48.4 107.88 107.88-48.41 107.88-107.88 107.88zm-135.04-401.93 139.56-38.14 9.6 35.13c.49 1.79 1.67 3.31 3.28 4.23 1.07.61 2.27.92 3.47.92.62 0 1.24-.08 1.85-.24l35.12-9.61 3.59 13.13h-71.73c-3.87 0-7 3.14-7 7v12.46c-1.27-.42-2.67-.49-4.05-.12l-64.31 17.58c-3.72 1.02-5.92 4.87-4.9 8.6.85 3.11 3.67 5.16 6.75 5.16.61 0 1.24-.08 1.85-.26l64.31-17.57c.12-.04.24-.08.36-.11v16.88l-59.53 16.27c-3.73 1.02-5.93 4.87-4.91 8.6.85 3.11 3.67 5.15 6.75 5.15.61 0 1.23-.08 1.85-.25l55.84-15.26v16.87l-50.71 13.86c-3.73 1.02-5.93 4.87-4.91 8.6.86 3.11 3.67 5.15 6.75 5.15.61 0 1.23-.08 1.85-.25l47.02-12.85v16.87l-41.89 11.45c-3.73 1.02-5.92 4.87-4.9 8.6.85 3.11 3.67 5.16 6.75 5.16.61 0 1.23-.08 1.84-.25l38.2-10.43v17.73l-33.61 9.18c-3.73 1.02-5.93 4.87-4.91 8.6.85 3.11 3.67 5.16 6.75 5.16.61 0 1.23-.08 1.85-.25l29.92-8.18v8.85c-23.71 3.38-45.25 13.59-62.53 28.61zm179.65-18.6-23.97-13.68 5.14 18.83zm262.44 11.13-5.58 18.7 18.7 5.59zm34.02 37.83c.04-.13.07-.27.1-.43.03-.08.06-.16.06-.24.04-.22.07-.43.09-.65 0-.02.01-.03.01-.04.04-.46.04-.91-.01-1.36-.02-.22-.05-.43-.09-.63 0-.02 0-.04 0-.06-.04-.19-.1-.38-.15-.57-.01-.03-.01-.06-.02-.09-.06-.18-.12-.36-.19-.53-.02-.04-.03-.08-.05-.12-.09-.2-.18-.42-.29-.62l-29.18-54.02c-.11-.2-.23-.4-.36-.59-.03-.04-.06-.07-.08-.11-.11-.15-.2-.3-.33-.44-.03-.03-.05-.06-.08-.09-.12-.14-.25-.28-.38-.41-.02-.03-.04-.03-.05-.05-.15-.14-.3-.28-.46-.41t-.02-.01c-.17-.14-.35-.28-.54-.4-.19-.13-.38-.24-.58-.35-.03-.01-.06-.03-.1-.04-.17-.1-.34-.17-.52-.26-.22-.09-.45-.16-.66-.23l-152.05-45.38c-1.78-.53-3.7-.33-5.33.55-1.64.88-2.85 2.38-3.38 4.16l-23.44 78.48h-47.04l-6.44-23.57c-.06-.22-.14-.45-.22-.66-.07-.18-.14-.34-.22-.51-.03-.04-.04-.08-.06-.12-.09-.19-.2-.38-.31-.56-.01-.01-.02-.03-.02-.03-.12-.18-.24-.35-.36-.52 0-.02-.02-.03-.03-.04-.12-.16-.25-.3-.38-.45-.03-.02-.05-.05-.07-.08-.12-.12-.25-.24-.37-.34-.05-.04-.09-.08-.13-.12-.12-.1-.24-.2-.37-.29-.06-.04-.11-.09-.17-.13-.15-.1-.3-.19-.47-.29-.04-.02-.07-.05-.11-.07l-53.31-30.43c-.21-.12-.42-.22-.64-.32-.03-.01-.06-.02-.1-.04-.18-.07-.36-.13-.54-.2-.06-.01-.12-.03-.17-.05-.16-.04-.32-.09-.49-.13-.06-.02-.12-.02-.19-.04-.16-.03-.33-.06-.49-.08-.06-.01-.13-.01-.2-.02-.15-.01-.31-.03-.47-.03-.09-.01-.18 0-.27 0-.14 0-.27 0-.41 0-.14.01-.28.03-.43.05-.08.01-.17.01-.26.03-.23.04-.46.09-.69.15l-153.04 41.81c-1.79.49-3.31 1.67-4.23 3.28-.92 1.62-1.17 3.53-.68 5.32l59.15 216.41c-19.04 21.51-30.64 49.78-30.64 80.71 0 67.21 54.67 121.89 121.88 121.89 57.35 0 105.58-39.83 118.48-93.29h53.41v2.02c0 3.16 2.12 5.92 5.16 6.75l65.61 17.87c.6.17 1.22.25 1.84.25h62.94c3.86 0 7-3.13 7-7v-96.98c0-1.85-.73-3.63-2.04-4.94-1.32-1.32-3.1-2.06-4.95-2.06h-28.54l62.15-208.2h.01z" fill="#282828" fill-rule="evenodd"/><path d="m421.5 121.18-81.86-26.26c-3.68-1.19-7.62.84-8.8 4.52s.84 7.62 4.53 8.81l81.86 26.26c.71.24 1.43.33 2.14.33 2.96 0 5.71-1.89 6.66-4.86 1.18-3.67-.85-7.62-4.53-8.8z" fill="#282828" fill-rule="evenodd"/><path d="m259.62 130.08h-66.67c-3.87 0-7 3.13-7 7s3.14 7 7 7h66.67c3.86 0 7-3.12 7-7s-3.14-7-7-7z" fill="#282828" fill-rule="evenodd"/><path d="m160.64 453.24c-39.77 0-72.12-32.35-72.12-72.12s32.35-72.12 72.12-72.12 72.12 32.36 72.12 72.12-32.35 72.12-72.12 72.12zm0-158.24c-47.49 0-86.12 38.64-86.12 86.12s38.63 86.12 86.12 86.12 86.12-38.63 86.12-86.12-38.64-86.12-86.12-86.12z" fill="#282828" fill-rule="evenodd"/><path d="m192.95 125.58h28.95c3.87 0 7-3.13 7-7s-3.13-7-7-7h-28.95c-3.87 0-7 3.14-7 7s3.14 7 7 7z" fill="#282828" fill-rule="evenodd"/></svg>