<svg id="Capa_1" enable-background="new 0 0 512 512" height="512" viewBox="0 0 512 512" width="512" xmlns="http://www.w3.org/2000/svg"><path d="m344.177 229.85v17.188c0 3.036-1.715 5.812-4.431 7.17l-3.585 1.792h96.208l-7.173-3.586c-5.431-2.715-8.862-8.267-8.863-14.338l-.011-134.382h-120.241v64.129c0 29.87 20.452 54.898 48.096 62.027z" fill="#f5b97d"/><circle cx="71.629" cy="95.677" fill="#ffc269" r="48.097"/><path d="m207.634 159.806c0-48.699-31.193-88.177-79.893-88.177s-88.177 39.478-88.177 88.177c0 40.081 39.478 64.129 88.177 64.129s79.893-24.048 79.893-64.129z" fill="#ffa95f"/><path d="m95.677 127.742c-10.768-6.705-22.25-16.286-29.164-31.307-16.591 16.034-26.949 38.476-26.949 63.372 0 39.865 39.065 63.848 87.402 64.105z" fill="#ff8b5a"/><path d="m151.79 272.032h-64.129c-35.417 0-64.129 28.712-64.129 64.129v96.194h168.339v-120.242c0-22.136-17.945-40.081-40.081-40.081z" fill="#95d6a4"/><path d="m87.661 296.081h16.032v-8.016-16.032h-16.032c-35.417 0-64.129 28.712-64.129 64.129v96.194h24.048v-96.194c.001-22.101 17.981-40.081 40.081-40.081z" fill="#78c2a4"/><path d="m119.726 304.097c-17.709 0-32.065-14.356-32.065-32.064v-40.081h64.129v40.081c0 17.708-14.355 32.064-32.064 32.064z" fill="#f7d291"/><path d="m87.661 269.365c11.745 6.758 25.317 10.684 39.812 10.684 8.478 0 16.641-1.345 24.317-3.795v-36.285h-64.129z" fill="#ecbd83"/><path d="m223.936 320.129h-144.291v112.226h144.29c8.854 0 16.032-7.178 16.032-16.032v-80.161c.001-8.855-7.177-16.033-16.031-16.033z" fill="#eceaec"/><path d="m79.645 320.129c-8.854 0-16.032 7.178-16.032 16.032v80.161c0 8.854 7.178 16.032 16.032 16.032h144.29c8.854 0 16.032-7.178 16.032-16.032h-.002l.002-8.016h-128.257c-13.282 0-24.048-10.767-24.048-24.048v-64.129z" fill="#dad8db"/><path d="m95.409 127.742c25.484 18.07 61.894 23.928 81.813 25.821 8.189.778 14.38 7.717 14.38 15.943v22.365c0 35.417-28.712 64.129-64.129 64.129-35.417 0-64.129-28.712-64.129-64.129v-.014c0-18.477 6.869-36.295 19.272-49.99z" fill="#ffe1a0"/><circle cx="151.79" cy="376.242" fill="#fff" r="16.032"/><path d="m462.727 271.179-30.358-15.179h-96.207l-46.404 23.202c-10.863 5.431-17.725 16.534-17.725 28.679v156.538h208.419v-164.56c0-12.146-6.862-23.248-17.725-28.68z" fill="#c3ddff"/><path d="m328.145 347.409c0-12.176-5.535-23.692-15.043-31.298l-34.488-27.59c-4.161 5.479-6.583 12.221-6.583 19.36v156.538h56.113v-117.01z" fill="#a4ccff"/><path d="m472.435 352.194h-112.225c-17.709 0-32.065 14.356-32.065 32.065l24.048 80.161h152.307v-80.161c0-17.71-14.356-32.065-32.065-32.065z" fill="#9b959d"/><path d="m344.177 229.85v-126.156h-48.097v64.129c.001 29.87 20.453 54.898 48.097 62.027z" fill="#e3aa75"/><path d="m384.258 55.597h-64.129c-22.136 0-40.081 17.945-40.081 40.081 0 8.854 7.178 16.032 16.032 16.032h8.016c13.282 0 24.048 10.767 24.048 24.048v24.048c0 22.136 17.945 40.081 40.081 40.081h40.081c17.709 0 32.065-14.356 32.065-32.065v-56.112c0-30.991-25.123-56.113-56.113-56.113z" fill="#9f6e50"/><path d="m384.258 352.194h-24.048c-17.709 0-32.065 14.356-32.065 32.065v80.161h24.048v-80.161c.001-17.71 14.356-32.065 32.065-32.065z" fill="#857e87"/><path d="m320.129 55.597c-22.136 0-40.081 17.945-40.081 40.081 0 8.854 7.178 16.032 16.032 16.032h8.016c13.282 0 24.048 10.767 24.048 24.048v-80.161z" fill="#785353"/><path d="m87.661 191.871v-55.575l-5.045 5.57c-12.403 13.695-19.271 31.513-19.271 49.99v.015c0 35.417 28.711 64.129 64.129 64.129 4.161 0 8.218-.429 12.158-1.186-29.598-5.685-51.971-31.686-51.971-62.943z" fill="#f7d291"/><path d="m112.617 212.844c-1.699 3.778-.013 8.217 3.765 9.916 5.698 2.562 12.306 3.917 19.108 3.917s13.41-1.354 19.108-3.917c3.778-1.699 5.463-6.138 3.765-9.916-1.699-3.777-6.138-5.462-9.916-3.765-3.779 1.699-8.259 2.597-12.957 2.597s-9.178-.898-12.957-2.597c-3.778-1.699-8.218-.014-9.916 3.765z"/><path d="m111.441 191.355c4.142 0 7.5-3.358 7.5-7.5v-8.016c0-4.142-3.358-7.5-7.5-7.5s-7.5 3.358-7.5 7.5v8.016c0 4.142 3.358 7.5 7.5 7.5z"/><path d="m159.538 191.355c4.142 0 7.5-3.358 7.5-7.5v-8.016c0-4.142-3.358-7.5-7.5-7.5s-7.5 3.358-7.5 7.5v8.016c0 4.142 3.358 7.5 7.5 7.5z"/><path d="m151.791 352.709c-12.976 0-23.532 10.557-23.532 23.532 0 12.976 10.557 23.533 23.532 23.533s23.532-10.557 23.532-23.533c0-12.975-10.557-23.532-23.532-23.532zm0 32.065c-4.705 0-8.532-3.828-8.532-8.533s3.828-8.532 8.532-8.532 8.532 3.828 8.532 8.532c0 4.706-3.828 8.533-8.532 8.533z"/><path d="m487.952 347.867v-48.008c0-15.083-8.38-28.643-21.871-35.388l-37.531-18.766c-2.908-1.454-4.715-4.377-4.716-7.629l-.01-33.863c14.125-6.046 24.047-20.08 24.047-36.391v-56.113c0-35.076-28.537-63.613-63.613-63.613h-64.129c-26.236 0-47.581 21.345-47.581 47.581 0 10.353 6.724 19.16 16.032 22.3v49.846c0 30.667 19.502 57.673 48.097 67.591v11.942l-50.274 25.137c-13.49 6.745-21.871 20.305-21.871 35.388v116.974h-18.923c1.195-2.871 1.858-6.016 1.858-9.315v-78.596c0-13.407-10.908-24.315-24.315-24.315h-23.782v-.516c0-23.684-17.396-43.377-40.082-46.984v-9.108c20.508-10.213 35.465-29.961 39.006-53.412 10.862-11.484 16.839-26.61 16.839-42.802 0-25.933-8.407-49.83-23.672-67.288-16.008-18.307-38.733-28.39-63.989-28.39-3.371 0-6.7.178-9.981.519-10.279-15.248-27.595-24.567-46.131-24.567-30.656 0-55.597 24.94-55.597 55.597 0 16.056 6.782 31.044 18.717 41.606-1.75 7.226-2.685 14.767-2.685 22.523 0 20.687 9.725 39.349 26.7 51.323 3.778 13.512 11.42 25.419 21.665 34.454v19.343c-35.983 3.762-64.128 34.272-64.128 71.234v88.694h-8.532c-4.142 0-7.5 3.358-7.5 7.5s3.358 7.5 7.5 7.5h257.032v24.564c0 4.142 3.358 7.5 7.5 7.5s7.5-3.358 7.5-7.5v-156.538c0-3.169.609-6.224 1.722-9.049l27.668 23.057c7.45 6.208 11.723 15.331 11.723 25.029v117.501c0 4.142 3.358 7.5 7.5 7.5s7.5-3.358 7.5-7.5v-80.161c0-13.545 11.02-24.565 24.564-24.565h112.226c13.545 0 24.564 11.02 24.564 24.565v80.161c0 4.142 3.358 7.5 7.5 7.5s7.5-3.358 7.5-7.5v-80.161c.001-16.311-9.922-30.346-24.047-36.391zm-457.188-252.19c0-22.385 18.211-40.597 40.597-40.597 11.298 0 21.965 4.757 29.554 12.802-27.347 7.914-49.687 27.727-61.029 53.442-5.867-7.171-9.122-16.151-9.122-25.647zm25.171 92.344c-5.952-7.998-9.139-17.636-9.139-28.214 0-44.486 36.192-80.678 80.677-80.678 21.167 0 39.389 8.044 52.697 23.264 12.874 14.723 19.964 35.113 19.964 57.414 0 3.498-.355 6.89-1.032 10.16v-.461c0-12.198-9.101-22.262-21.17-23.409-18.835-1.791-54.038-7.351-78.185-24.474-3.099-2.196-7.349-1.731-9.897 1.083l-12.792 14.125c-12.817 14.152-20.237 32.198-21.123 51.19zm14.909 3.835c0-16.649 6.155-32.615 17.332-44.955l8.476-9.359c26.451 16.255 60.902 21.685 79.861 23.487 4.327.411 7.589 4.055 7.589 8.476v22.365c0 31.225-25.404 56.629-56.629 56.629s-56.629-25.403-56.629-56.643zm73.446 69.631v2.529c0 13.545-11.02 24.564-24.565 24.564s-24.564-11.02-24.564-24.564v-8.25c9.716 4.934 20.69 7.734 32.313 7.734 5.791 0 11.418-.709 16.816-2.013zm88.178 154.053c0 5.136-4.179 9.315-9.315 9.315h-142.725c-5.136 0-9.315-4.179-9.315-9.315v-39.298c0-4.142-3.358-7.5-7.5-7.5s-7.5 3.358-7.5 7.5v39.298c0 3.299.663 6.444 1.858 9.315h-26.939v-88.694c0-29.795 23.134-54.271 52.381-56.453 6.087 14.031 20.069 23.872 36.312 23.872 16.202 0 30.154-9.794 36.265-23.769 15.987 2.068 28.381 15.76 28.381 32.301v.516h-103.943c-13.407 0-24.315 10.908-24.315 24.315v7.233c0 4.142 3.358 7.5 7.5 7.5s7.5-3.358 7.5-7.5v-7.233c0-5.136 4.179-9.315 9.315-9.315h111.414c.01 0 .019.001.029.001s.019-.001.029-.001h31.253c5.136 0 9.315 4.179 9.315 9.315zm71.113-247.717v-48.613h.516c9.125 0 16.548 7.424 16.548 16.549v24.048c0 26.236 21.345 47.581 47.581 47.581h8.015c4.142 0 7.5-3.358 7.5-7.5s-3.358-7.5-7.5-7.5h-8.015c-17.965 0-32.581-14.616-32.581-32.581v-24.048c0-17.396-14.152-31.549-31.548-31.549h-8.016c-4.705 0-8.532-3.828-8.532-8.532 0-17.965 14.616-32.581 32.581-32.581h64.129c26.805 0 48.613 21.808 48.613 48.613v56.113c0 13.545-11.02 24.564-24.564 24.564-4.142 0-7.5 3.358-7.5 7.5s3.358 7.5 7.5 7.5c.174 0 .345-.011.518-.013l.009 30.707c.001 3.703.864 7.246 2.427 10.419h-59.583v-18.65c0-3.421-2.315-6.408-5.627-7.262-25.007-6.449-42.471-28.969-42.471-54.765zm169.371 176.883c-.173-.002-.343-.013-.516-.013h-112.227c-9.276 0-17.811 3.217-24.564 8.584v-6.359c0-14.163-6.24-27.486-17.12-36.553l-27.739-23.116c.747-.48 1.517-.935 2.325-1.339l44.82-22.41h92.668l28.774 14.388c8.376 4.188 13.579 12.606 13.579 21.971z"/></svg>