<svg id="Layer_5" enable-background="new 0 0 62 62" height="512" viewBox="0 0 62 62" width="512" xmlns="http://www.w3.org/2000/svg"><g><g><g><path d="m37 7v1.29c0 .79-.24 1.56-.67 2.21-.35-.31-.82-.51-1.33-.51h-2s-1.12 0-2.39 0c-.01 0-.02 0-.03 0-2.25 0-4.34-1.13-5.58-2.99-1.1 0-2 .9-2 2v.99h-2c-.44 0-.86.15-1.19.4-.53-.93-.81-2-.81-3.08 0-1.75.7-3.32 1.85-4.46 1.14-1.15 2.71-1.85 4.46-1.85h3.08c1.67 0 3.27.66 4.46 1.85l.15.15c1.1 0 2.1.45 2.83 1.17.72.73 1.17 1.73 1.17 2.83z" fill="#656d78"/></g><g><path d="m8 18.52v2.51l-2.65.76c-.71.2-1.36.53-1.93.95-1.49-1.46-2.42-3.49-2.42-5.74v-7c0-2.48 1.01-4.74 2.64-6.36 1.62-1.63 3.88-2.64 6.36-2.64 4.97 0 9 4.03 9 9v1.99 5.01c0 2.25-.93 4.28-2.42 5.74-.57-.42-1.22-.75-1.93-.95l-2.65-.76v-2.51c0-.34.17-.65.45-.83l.77-.52c1.11-.74 1.78-1.99 1.78-3.33v-3.85h-.17c-.01 0-.02 0-.04 0-1.79 0-3.52-.72-4.79-1.99l-.01.01c-1.27 1.27-3 1.99-4.81 1.99h-.18v3.84c0 1.34.67 2.59 1.78 3.33l.77.52c.28.18.45.49.45.83z" fill="#b27946"/></g><g><path d="m23 32.02h-4v-2-2.47c0-2.68 1.77-5.03 4.35-5.76l2.65-.76c0 1.09.88 1.97 1.97 1.97h.06c1.09 0 1.97-.88 1.97-1.97l2.65.76c2.4.68 4.1 2.77 4.32 5.21h-3.97v6h-10z" fill="#4fc1e9"/></g><g><path d="m15 30.02v4h-10v-4h-4v-2.47c0-1.94.93-3.71 2.42-4.81.57-.42 1.22-.75 1.93-.95l2.65-.76 2 2.97 2-2.97 2.65.76c.71.2 1.36.53 1.93.95 1.49 1.11 2.42 2.88 2.42 4.81v2.47z" fill="#fcd770"/></g><g><path d="m15 35.96v4.04h-10v-4.04-1.94h10z" fill="#969faa"/></g><g><path d="m33 33v4h-2.78c-1.45 0-2.88.39-4.12 1.14l-3.1 1.86v-4.04-2.96z" fill="#d3a06c"/></g><g><path d="m17 40v3l2 2-2 2v7h-16v-14h4 10z" fill="#b4dd7f"/></g><g><path d="m23 40v14h-6v-7l2-2-2-2v-3z" fill="#a0d468"/></g><g><path d="m33 57v-16h6c1.66 0 3-1.34 3-3 0-.55-.45-1-1-1h-8v-4-6h3.97 24.03v34h-28z" fill="#e6e9ed"/></g><g><path d="m48 49c0 1.1.9 2 2 2-.83 0-1.58.34-2.12.88s-.88 1.29-.88 2.12v3h-4v-14h14v14h-4v-3c0-1.66-1.34-3-3-3 1.1 0 2-.9 2-2s-.9-2-2-2-2 .9-2 2z" fill="#ffeaa7"/></g><g><path d="m53 54v3h-6v-3c0-.83.34-1.58.88-2.12s1.29-.88 2.12-.88c1.66 0 3 1.34 3 3z" fill="#ff826e"/></g><g><path d="m33 41v16h-2.78c-1.45 0-2.88-.39-4.12-1.14l-3.1-1.86v-14l3.1-1.86c1.24-.75 2.67-1.14 4.12-1.14h2.78 8c.55 0 1 .45 1 1 0 1.66-1.34 3-3 3z" fill="#f0d0b4"/></g><g><circle cx="50" cy="49" fill="#f0d0b4" r="2"/></g><g><path d="m36.33 10.5c.41.37.67.9.67 1.49 0 .55-.22 1.05-.59 1.41-.36.36-.86.59-1.41.59h-2.01c.01-.05.01-.1.01-.15v-3.85h2c.51 0 .98.2 1.33.51z" fill="#f0d0b4"/></g><g><path d="m32.99 13.99c-.04 1.28-.7 2.47-1.77 3.18l-.77.52c-.28.18-.45.49-.45.83v2.51c0 1.09-.88 1.97-1.97 1.97h-.06c-1.09 0-1.97-.88-1.97-1.97v-2.51c0-.34-.17-.65-.45-.83l-.77-.52c-1.07-.71-1.73-1.9-1.77-3.18-.01-.05-.01-.09-.01-.14v-3.86-.99c0-1.1.9-2 2-2 1.24 1.86 3.33 2.99 5.58 2.99h.03 2.39v3.85c0 .05 0 .1-.01.15z" fill="#f0d0b4"/></g><g><path d="m19.81 10.39c.33-.25.75-.4 1.19-.4h2v3.86c0 .05 0 .09.01.14h-2.01c-1.1 0-2-.9-2-2 0-.55.22-1.05.59-1.41.07-.07.14-.13.22-.19z" fill="#f0d0b4"/></g><g><path d="m23 33v2.96h-1c-1.66 0-3-1.34-3-3v-.94h4z" fill="#f0d0b4"/></g><g><path d="m19 30.02v2 .94c0 1.66-1.34 3-3 3h-1v-1.94-4z" fill="#f0d0b4"/></g><g><path d="m5 34.02v1.94h-1c-1.66 0-3-1.34-3-3v-2.94h4z" fill="#f0d0b4"/></g><g><path d="m15 9.99v3.85c0 1.34-.67 2.59-1.78 3.33l-.77.52c-.28.18-.45.49-.45.83v2.51l-2 2.97-2-2.97v-2.51c0-.34-.17-.65-.45-.83l-.77-.52c-1.11-.74-1.78-1.99-1.78-3.33v-3.84h.18c1.81 0 3.54-.72 4.81-1.99l.01-.01c1.27 1.27 3 1.99 4.79 1.99h.04z" fill="#f0d0b4"/></g><g><path d="m43 5h16c1.1 0 2 .9 2 2v9c0 1.1-.9 2-2 2h-6l-1.61 2.42c-.25.36-.65.58-1.09.58-.72 0-1.3-.58-1.3-1.3v-1.7h-6c-1.1 0-2-.9-2-2v-9c0-1.1.9-2 2-2z" fill="#e6e9ed"/></g></g><g><path d="m32.927 20.827-1.927-.55v-1.758l.773-.516c1.07-.712 1.805-1.794 2.091-3.016h1.136c1.654 0 3-1.345 3-2.998 0-.586-.175-1.128-.467-1.591.306-.657.467-1.373.467-2.107v-1.291c0-2.612-2.014-4.763-4.57-4.982-1.35-1.285-3.177-2.018-5.043-2.018h-3.077c-3.12 0-5.782 1.969-6.829 4.726-1.768-2.832-4.904-4.726-8.481-4.726-5.514 0-10 4.486-10 10v7c0 2.095.713 4.07 2.015 5.668-1.251 1.28-2.015 3.015-2.015 4.883v5.414c0 2.206 1.794 4 4 4v2.035h-4v16h22.723l2.862 1.717c1.398.839 3 1.283 4.631 1.283h1.784v4h30v-36h-24.184c-.563-2.45-2.432-4.472-4.889-5.173zm-.549 1.923c1.603.457 2.847 1.705 3.359 3.25h-3.737v6h-8v-5.974h-2v4.994h-2v-3.466-.004c0-2.218 1.489-4.192 3.622-4.801l1.662-.474c.476 1.016 1.511 1.725 2.747 1.725 1.191 0 2.214-.709 2.686-1.724zm-2.162 13.25c-.408 0-.814.028-1.216.083v-2.083h3v2zm-16.216-.982v3.982h-3v-3.982zm2-3.997h2v1.944c0 1.103-.897 2-2 2zm5.999-18.034h-.999c-.552 0-1-.448-1-.998s.448-.998 1-.998h1zm-1.999 4.013v-2.197c.314.112.648.184 1 .184h1.135c.286 1.221 1.02 2.303 2.091 3.016l.774.515v1.759l-1.927.55c-1.754.5-3.181 1.67-4.074 3.171-.286-.481-.624-.928-1.015-1.329 1.303-1.597 2.016-3.573 2.016-5.669zm-4 19.964c1.201 0 2.266-.542 3-1.382.734.84 1.799 1.382 3 1.382v2.036h-6zm6-2c-1.083 0-1.964-.867-1.994-1.944h1.994zm-4 7.622v-1.586h4v12h-4v-5.586l2.414-2.414zm6-8.586h3v2.612c-.487.187-.964.4-1.415.671l-1.585.951zm6.665-17.662-.774.516c-.558.372-.891.994-.891 1.664v2.514c0 .533-.435.968-1.031.968-.534 0-.969-.435-.969-.969v-2.514c0-.67-.333-1.292-.892-1.664l-.774-.516c-.836-.556-1.335-1.488-1.335-2.492l.001-4.845c0-.396.231-.739.566-.901 1.459 1.825 3.666 2.896 6.029 2.896h.013l1.392-.003.001 2.851c0 1.006-.499 1.938-1.336 2.495zm4.335-3.351h-.999v-1.996h1c.552 0 1 .448 1 .998s-.449.998-1.001.998zm-9.69-10.987h3.077c1.397 0 2.766.566 3.754 1.555l.445.445h.414c1.654 0 3 1.346 3 3v1.291c0 .289-.043.573-.123.846-.279-.086-.57-.146-.877-.146h-1v-.002l-3.396.006c-.003 0-.005 0-.009 0-1.919 0-3.699-.953-4.764-2.549l-.296-.446h-.535c-1.651 0-2.994 1.341-2.999 2.991h-1.001c-.237 0-.465.034-.686.086-.2-.567-.314-1.163-.314-1.768 0-2.927 2.382-5.309 5.31-5.309zm-23.31 8c0-4.411 3.589-8 8-8s8 3.589 8 8v7c0 1.652-.567 3.209-1.607 4.461-.462-.259-.946-.485-1.47-.635l-1.923-.549v-1.758l.773-.516c1.395-.929 2.228-2.483 2.228-4.16l-.001-4.855-1.175.003c-.007 0-.013 0-.019 0-1.526 0-3.02-.619-4.1-1.698l-.715-.699-.707.708c-1.095 1.095-2.551 1.698-4.1 1.698h-1.184l-.001 4.843c0 1.676.833 3.231 2.227 4.159l.774.516v1.759l-1.927.55c-.523.149-1.006.375-1.467.633-1.039-1.251-1.606-2.808-1.606-4.46zm10.665 6.338-.774.516c-.558.372-.891.994-.891 1.664v2.209l-1 1.484-1-1.484v-2.209c0-.67-.333-1.292-.891-1.663l-.775-.517c-.836-.557-1.335-1.489-1.335-2.494l.001-2.886c1.466-.151 2.843-.71 4.002-1.624 1.151.897 2.547 1.461 3.998 1.615l.001 2.895c0 1.005-.499 1.937-1.336 2.494zm-7.043 6.412 1.954-.558 2.424 3.598 2.424-3.598 1.95.557c2.135.609 3.626 2.585 3.626 4.806v1.466h-2v-1.994h-2v5.992h-8v-5.992h-2v1.994h-2v-1.47c0-2.218 1.489-4.192 3.622-4.801zm-3.622 10.214v-1.944h2v3.944c-1.103 0-2-.897-2-2zm4 2.054h3v3.982h-3zm-4 5.982h14v2.414l1.586 1.586-1.586 1.586v6.414h-14zm28.216 15c-1.269 0-2.515-.345-3.602-.998l-2.614-1.568v-12.868l2.614-1.569c1.087-.652 2.333-.997 3.602-.997h10.784c0 1.103-.897 2-2 2h-6.721l-.228.684c-.462 1.385-1.753 2.316-3.213 2.316h-.838v2h.838c1.169 0 2.263-.386 3.162-1.04v12.04zm29.784 4h-26v-18h5c2.206 0 4-1.794 4-4 0-1.103-.897-2-2-2h-7v-8h26z"/><path d="m59 4h-16c-1.654 0-3 1.346-3 3v9c0 1.654 1.346 3 3 3h5v.698c0 1.269 1.032 2.302 2.302 2.302.771 0 1.486-.383 1.916-1.025l1.317-1.975h5.465c1.654 0 3-1.346 3-3v-9c0-1.654-1.346-3-3-3zm1 12c0 .551-.448 1-1 1h-6.535l-1.91 2.865c-.148.224-.554.102-.555-.167v-2.698h-7c-.552 0-1-.449-1-1v-9c0-.551.448-1 1-1h16c.552 0 1 .449 1 1z"/><path d="m49 12.586-1.293-1.293-1.414 1.414 2.707 2.707 6.707-6.707-1.414-1.414z"/><path d="m36 30h2v2h-2z"/><path d="m40 30h18v2h-18z"/><path d="m45 34h13v2h-13z"/><path d="m45 38h13v2h-13z"/><path d="m42 58h16v-16h-16zm7-9c0-.551.448-1 1-1s1 .449 1 1-.448 1-1 1-1-.449-1-1zm-1 5c0-1.103.897-2 2-2s2 .897 2 2v2h-4zm-4-10h12v12h-2v-2c0-1.311-.642-2.465-1.619-3.195.383-.504.619-1.125.619-1.805 0-1.654-1.346-3-3-3s-3 1.346-3 3c0 .68.236 1.301.619 1.805-.977.73-1.619 1.884-1.619 3.195v2h-2z"/><path d="m36 44h4v2h-4z"/><path d="m36 48h4v2h-4z"/><path d="m36 52h4v2h-4z"/><path d="m36 56h4v2h-4z"/></g></g></svg>