<svg id="_x33_0" enable-background="new 0 0 62.883 62" height="512" viewBox="0 0 62.883 62" width="512" xmlns="http://www.w3.org/2000/svg"><g><g><g><path d="m38.868 41h-6c.18-1.06.52-2.07 1.01-3 1.19-2.29 3.23-4.08 5.76-4.92l.23-.08c.65 1.94 1.93 3.62 3.63 4.75l.37.25.37-.25c1.7-1.13 2.98-2.81 3.63-4.75l1.26.42c2.15.72 3.77 2.42 4.43 4.51.2.66.31 1.35.31 2.07 0 1.38-.56 2.63-1.46 3.54-.91.9-2.16 1.46-3.54 1.46h-9v-3c0-.55-.45-1-1-1z" fill="#b4dd7f"/></g><g><path d="m39.868 42v3h-16v-3c0-.55.45-1 1-1h8 6c.55 0 1 .45 1 1z" fill="#aab2bd"/></g><g><path d="m57.868 49v11c0 .55-.45 1-1 1h-17v-12z" fill="#cf9e76"/></g><g><path d="m39.868 49v12h-33c-.55 0-1-.45-1-1v-11z" fill="#cf9e76"/></g><g><path d="m59.868 46v2c0 .55-.45 1-1 1h-1-18-34-1c-.55 0-1-.45-1-1v-2c0-.55.45-1 1-1h4 11 4 16 9 10c.55 0 1 .45 1 1z" fill="#b27946"/></g><g><path d="m18.368 39 1.5 6h-11l1-6 .86-5.16c.08-.49.5-.84.99-.84h4.37c.46 0 .86.31.97.76z" fill="#656d78"/></g><g><path d="m27.868 24v14c0 .55-.45 1-1 1h-3v-16h3c.55 0 1 .45 1 1z" fill="#969faa"/></g><g><path d="m23.868 23v16h-5.5l-1.31-5.24c-.11-.45-.51-.76-.97-.76h-4.37c-.49 0-.91.35-.99.84l-.86 5.16h-7c-.55 0-1-.45-1-1v-14c0-.55.45-1 1-1h1 4 4 4 4z" fill="#ccd1d9"/></g><g><path d="m23.868 18v5h-4v-5c0-.55.45-1 1-1h2c.55 0 1 .45 1 1z" fill="#ef7385"/></g><g><path d="m15.868 16v7h-4v-7c0-.55.45-1 1-1h2c.55 0 1 .45 1 1z" fill="#ef7385"/></g><g><path d="m5.868 3 4 6h-2v14h-4v-14h-2z" fill="#ef7385"/></g><g><path d="m40.708 30.49c.99.33 2.06.51 3.16.51s2.17-.18 3.16-.51l.84 2.51c-.65 1.94-1.93 3.62-3.63 4.75l-.37.25-.37-.25c-1.7-1.13-2.98-2.81-3.63-4.75z" fill="#f5e0cd"/></g><g><path d="m53.868 19.25v-2.25h2c1.1 0 2 .9 2 2 0 .55-.22 1.05-.59 1.41-.36.37-.86.59-1.41.59h-1.9c-.07-.58-.1-1.16-.1-1.75z" fill="#f5e0cd"/></g><g><path d="m53.868 17v2.25 1.75c0 4.42-2.87 8.17-6.84 9.49-.99.33-2.06.51-3.16.51s-2.17-.18-3.16-.51c-3.97-1.32-6.84-5.07-6.84-9.49v-1.75-2.25c.02-2.43 1.51-4.61 3.77-5.51l6.23-2.49 6.23 2.49c2.26.9 3.75 3.08 3.77 5.51z" fill="#f5e0cd"/></g><g><path d="m33.868 17v2.25c0 .59-.03 1.17-.1 1.75h-1.9c-.55 0-1.05-.22-1.41-.59-.37-.36-.59-.86-.59-1.41 0-1.1.9-2 2-2z" fill="#f5e0cd"/></g><g><path d="m33.868 38v-5.45c0-.99-.4-1.95-1.1-2.65-.58-.58-.9-1.36-.9-2.17 0-.48.11-.95.32-1.38.85-1.68 1.38-3.49 1.58-5.35h.1c0 4.42 2.87 8.17 6.84 9.49l-.84 2.51-.23.08c-2.53.84-4.57 2.63-5.76 4.92z" fill="#fcd770"/></g><g><path d="m56.028 37.69-2.47.24c-.66-2.09-2.28-3.79-4.43-4.51l-1.26-.42-.84-2.51c3.97-1.32 6.84-5.07 6.84-9.49h.1 1.9l1.2 2.41c.53 1.05 1.29 1.96 2.22 2.66.82.61 1.46 1.39 1.91 2.27.44.88.69 1.86.69 2.88v.02c0 3.34-2.54 6.13-5.86 6.45z" fill="#fcd770"/></g><g><path d="m33.868 17h-2v-5c0-6.08 4.92-11 11-11h2c6.08 0 11 4.92 11 11v5h-2c-.02-2.43-1.51-4.61-3.77-5.51l-6.23-2.49-6.23 2.49c-2.26.9-3.75 3.08-3.77 5.51z" fill="#fcd770"/></g></g><g><path d="m58.868 44h-5.54c.954-1.063 1.54-2.462 1.54-4 0-.4-.036-.793-.094-1.18l1.352-.131c3.869-.374 6.774-3.588 6.756-7.476-.01-2.327-1.128-4.551-2.991-5.947-.808-.605-1.473-1.402-1.925-2.306l-.67-1.34c.931-.51 1.571-1.487 1.571-2.621 0-1.302-.839-2.402-2-2.816v-4.183c0-6.617-5.383-12-12-12h-2c-6.617 0-12 5.383-12 12v4.184c-1.161.414-2 1.514-2 2.816 0 1.654 1.346 3 3 3h.718c-.255 1.353-.674 2.675-1.289 3.905-.28.563-.429 1.193-.429 1.821 0 1.072.435 2.123 1.193 2.882.521.52.807 1.211.807 1.946v1.446h2v-1.445c0-1.27-.494-2.464-1.393-3.361-.386-.386-.607-.921-.607-1.468 0-.32.076-.642.219-.928.245-.489.459-.993.655-1.504 1.097 2.578 3.153 4.649 5.716 5.776l-.381 1.143c-3.513 1.262-6.109 4.189-6.997 7.787h-5.211c1.103 0 2-.897 2-2v-14c0-1.103-.897-2-2-2h-2v-4c0-1.103-.897-2-2-2h-2c-1.103 0-2 .897-2 2v4h-2v-6c0-1.103-.897-2-2-2h-2c-1.103 0-2 .897-2 2v6h-2v-12h2.868l-5.868-8.803-5.868 8.803h2.868v12c-1.103 0-2 .897-2 2v14c0 1.103.897 2 2 2h5.819l-.667 4h-3.152c-1.103 0-2 .897-2 2v2c0 1.103.897 2 2 2v10c0 1.103.897 2 2 2h50c1.103 0 2-.897 2-2v-10c1.103 0 2-.897 2-2v-2c0-1.103-.897-2-2-2zm-.176-17.132c1.364 1.022 2.183 2.651 2.19 4.356.014 2.848-2.114 5.202-4.948 5.476l-1.734.167c-.875-2.032-2.563-3.664-4.759-4.396l-.782-.261-.38-1.139c2.562-1.127 4.618-3.198 5.716-5.776.195.511.41 1.014.654 1.502.144.288.22.609.22.93 0 .546-.222 1.082-.607 1.467-.898.897-1.393 2.091-1.393 3.361v1.445h2v-1.445c0-.735.286-1.427.807-1.947.759-.759 1.193-1.81 1.193-2.882 0-.628-.148-1.258-.43-1.823-.615-1.229-1.033-2.551-1.288-3.903h.1l.928 1.855c.589 1.181 1.459 2.222 2.513 3.013zm-2.824-6.868h-.956c-.013-.249-.044-.497-.044-.746v-1.254h1c.552 0 1 .449 1 1s-.448 1-1 1zm-23-8c0-5.514 4.486-10 10-10h2c5.514 0 10 4.486 10 10v3.246c0-5.315-3.602-9.927-8.758-11.216l-.484 1.94c2.981.745 5.33 2.837 6.476 5.529-.494-.374-1.036-.697-1.634-.937l-6.6-2.64-6.6 2.64c-.598.239-1.14.562-1.634.936 1.146-2.692 3.494-4.784 6.476-5.529l-.484-1.94c-5.156 1.289-8.758 5.901-8.758 11.216zm-1 8c-.552 0-1-.449-1-1s.448-1 1-1h1v1.254c0 .249-.031.497-.044.746zm3 1v-1.746-2.192c0-2.056 1.233-3.878 3.143-4.642l5.857-2.343 5.857 2.342c1.909.764 3.143 2.586 3.143 4.643v2.192 1.746c0 4.962-4.037 9-9 9s-9-4.038-9-9zm9 11c.866 0 1.704-.111 2.512-.301l.421 1.263c-.577 1.535-1.595 2.885-2.933 3.832-1.338-.947-2.356-2.297-2.933-3.832l.421-1.263c.808.19 1.647.301 2.512.301zm-4.559 2.291c.786 1.733 2.047 3.236 3.635 4.295l.924.616.924-.616c1.602-1.068 2.872-2.587 3.656-4.338l.361.12c2.428.81 4.06 3.073 4.06 5.632 0 2.206-1.794 4-4 4h-8v-2c0-.093-.015-.182-.027-.272l4.455-.636.678 1.355 1.789-.895-.675-1.351c.951-.933 2.035-1.711 3.228-2.308l-.895-1.789c-1.425.712-2.717 1.644-3.841 2.769l-.184.183-6.599.944h-4.667c.785-2.577 2.678-4.658 5.178-5.709zm-.441 7.709v2h-14v-2zm-16 0v2h-2.22l-1-4h5.22c-1.102 0-2 .897-2 2zm4-18v14h-2v-14zm-6-6h2v4h-2zm-8-2h2v6h-2zm-9.132-8 2.132-3.197 2.132 3.197h-1.132v14h-2v-14zm-.868 30v-14h20v14h-3.72l-1.121-4.485c-.222-.892-1.02-1.515-1.94-1.515h-4.372c-.98 0-1.81.702-1.973 1.671l-.721 4.329zm8.847-4h4.373l2.5 10h-8.539zm-4.847 16h32v10h-32zm50 10h-16v-10h16zm-52-12v-2h54l.001 2z"/><path d="m12.868 8h2v2h-2z"/><path d="m16.868 8h2v2h-2z"/><path d="m36.868 16h2v4h-2z"/><path d="m48.868 16h2v4h-2z"/><path d="m47.657 25.658.105-.211-1.789-.895-.105.211c-.381.762-1.147 1.236-2 1.236s-1.619-.474-2-1.236l-.105-.211-1.789.895.105.21c.722 1.446 2.174 2.343 3.789 2.343s3.068-.897 3.789-2.342z"/></g></g></svg>