<svg enable-background="new 0 0 512 512" viewBox="0 0 512 512" xmlns="http://www.w3.org/2000/svg"><g id="_x33_7_Hr_Management"><g><path d="m366.206 136.034c-2.602-13.076-7.522-25.731-14.834-37.401l16.803-26.082-23.2-23.974-26.575 15.959c-11.389-7.593-23.973-12.936-36.909-15.959l-6.538-30.371-33.464-.492-7.452 30.16c-13.076 2.531-25.801 7.452-37.401 14.763l-26.153-16.803-23.973 23.2 16.029 26.574c-7.663 11.459-13.006 23.974-15.959 36.98l-30.371 6.538-.492 33.324 30.09 7.593c2.601 13.076 7.522 25.731 14.764 37.401l-16.803 26.012 23.27 24.044 26.574-16.029c11.389 7.734 23.903 13.006 36.909 16.029l6.538 30.301 33.394.563 7.522-30.09c13.077-2.601 25.802-7.522 37.401-14.834l26.083 16.803 23.973-23.2-15.959-26.645c7.663-11.389 13.006-23.903 16.029-36.909l30.301-6.538.492-33.394zm-63.483 42.393c-11.248 25.871-41.338 37.612-67.139 26.364-25.801-11.319-37.612-41.338-26.364-67.21 11.248-25.802 41.409-37.612 67.139-26.294 25.871 11.249 37.682 41.338 26.364 67.14z" fill="#fccd06"/><path d="m456.454 444.221v50.084h-400.911v-50.084c0-30.974 18.154-59.161 46.421-71.901 12.74-5.812 29.62-13.377 52.234-23.728 12.023-5.494 25.639-11.705 41.166-18.792l60.674 60.674 60.594-60.674c15.527 7.166 29.222 13.377 41.246 18.792 22.614 10.351 39.494 17.995 52.234 23.728 28.188 12.74 46.342 40.847 46.342 71.901z" fill="#fff"/><path d="m195.365 329.8 60.674 60.674-57.967 38.459-43.873-80.341c12.023-5.494 25.639-11.705 41.166-18.792z" fill="#ceced0"/><path d="m357.879 348.592-43.873 80.341-57.967-38.459 60.594-60.674c15.527 7.166 29.222 13.377 41.246 18.792z" fill="#ceced0"/><path d="m114.558 131.608c-3.498.758-6.013 3.821-6.066 7.402l-.488 33.361c-.053 3.566 2.357 6.704 5.818 7.567l25.49 6.389c2.612 10.885 6.708 21.252 12.218 30.929l-14.226 22.063c-1.937 3.003-1.55 6.952.938 9.519l23.242 23.985c2.492 2.56 6.407 3.078 9.481 1.239l22.495-13.52c9.511 5.833 19.755 10.27 30.561 13.227l5.544 25.637c.754 3.491 3.814 6.006 7.383 6.066l33.358.571h.131c3.521 0 6.599-2.395 7.458-5.818l6.388-25.501c10.9-2.612 21.283-6.719 30.97-12.244l22.056 14.226c3.018 1.929 6.952 1.546 9.515-.946l23.951-23.204c2.564-2.477 3.082-6.404 1.246-9.466l-13.49-22.529c5.833-9.511 10.266-19.766 13.231-30.576l25.64-5.54c3.491-.758 6.006-3.821 6.062-7.394l.529-33.399c.056-3.573-2.365-6.719-5.837-7.582l-25.479-6.321c-2.616-10.893-6.723-21.267-12.248-30.959l14.222-22.056c1.937-3.003 1.55-6.952-.938-9.519l-23.242-23.985c-2.485-2.552-6.407-3.07-9.481-1.239l-22.495 13.52c-9.496-5.81-19.725-10.232-30.52-13.19l-5.544-25.712c-.754-3.491-3.817-6.006-7.391-6.066l-33.399-.533c-3.577.068-6.719 2.365-7.582 5.833l-6.358 25.524c-10.889 2.612-21.252 6.704-30.929 12.214l-22.132-14.235c-3.01-1.944-6.944-1.539-9.508.946l-23.951 23.204c-2.567 2.485-3.082 6.419-1.239 9.481l13.554 22.529c-5.829 9.504-10.262 19.744-13.224 30.554zm39.491 2.688c2.849-12.357 7.856-23.925 14.879-34.375 1.663-2.477 1.745-5.69.206-8.25l-12.867-21.388 15.187-14.714 21.012 13.513c2.515 1.622 5.72 1.629 8.235.053 10.653-6.659 22.364-11.283 34.799-13.738 2.924-.578 5.247-2.793 5.968-5.69l6.036-24.225 21.189.338 5.262 24.405c.627 2.913 2.883 5.202 5.788 5.871 12.349 2.845 23.902 7.845 34.341 14.841 2.474 1.667 5.687 1.734 8.243.21l21.354-12.83 14.744 15.217-13.501 20.937c-1.618 2.507-1.637 5.72-.053 8.25 6.689 10.668 11.324 22.386 13.783 34.825.578 2.928 2.796 5.255 5.69 5.976l24.18 5.998-.334 21.185-24.334 5.255c-2.909.631-5.195 2.883-5.863 5.788-2.856 12.357-7.864 23.933-14.883 34.382-1.659 2.47-1.745 5.683-.214 8.235l12.807 21.388-15.191 14.721-20.937-13.505c-2.511-1.607-5.728-1.629-8.246-.053-10.668 6.689-22.386 11.321-34.833 13.775-2.92.578-5.244 2.793-5.968 5.675l-6.062 24.195-21.162-.36-5.262-24.338c-.631-2.913-2.886-5.202-5.788-5.871-12.349-2.845-23.917-7.852-34.375-14.879-2.485-1.667-5.69-1.734-8.247-.21l-21.354 12.83-14.744-15.217 13.501-20.937c1.614-2.507 1.637-5.72.056-8.243-6.666-10.66-11.294-22.364-13.749-34.795-.574-2.92-2.785-5.247-5.672-5.968l-24.203-6.066.308-21.162 24.402-5.262c2.914-.63 5.2-2.882 5.872-5.787z"/><path d="m232.509 211.836c29.983 13.057 64.424-.804 77.251-30.321 13.092-29.835-.667-64.373-30.306-77.263-29.548-13.003-64.285.438-77.281 30.261-.004 0-.004 0-.004.008-12.886 29.645.717 64.32 30.34 77.315zm-16.246-71.182c9.475-21.734 34.986-32.036 57.027-22.318 21.832 9.491 32.076 34.938 22.382 57.031-9.588 22.034-35.156 31.921-57.005 22.379-21.863-9.587-31.915-35.194-22.404-57.092z"/><path d="m47.857 444.224v50.08c0 4.249 3.442 7.687 7.687 7.687h400.911c4.245 0 7.687-3.438 7.687-7.687v-50.08c0-33.969-19.965-64.944-50.872-78.914-10.025-4.511-88.7-40.313-93.418-42.49-2.928-1.344-6.381-.728-8.659 1.546l-55.158 55.229-55.237-55.229c-2.263-2.26-5.702-2.883-8.626-1.561-58.775 26.811-39.961 18.306-93.365 42.505-30.951 13.948-50.95 44.922-50.95 78.914zm270.427-105.196c10.486 4.824 20.078 9.188 28.859 13.156l-35.871 65.736-43.19-28.624zm-124.583-.015 50.279 50.273-43.208 28.634-35.881-65.76zm-42.829 19.547 40.415 74.073c2.177 3.99 7.274 5.198 10.994 2.733l53.743-35.613 53.739 35.613c3.728 2.47 8.821 1.249 10.994-2.733l40.422-74.08c19.388 8.86 34.286 15.603 45.766 20.772 25.408 11.486 41.822 36.957 41.822 64.898v42.392h-385.535v-42.392c0-27.956 16.444-53.428 41.927-64.914 30.126-13.649 38.083-17.265 45.713-20.749z"/></g></g><g id="Layer_1"/></svg>