<svg id="Layer_1" enable-background="new 0 0 512 512" viewBox="0 0 512 512" xmlns="http://www.w3.org/2000/svg"><g clip-rule="evenodd" fill-rule="evenodd"><g><g><path d="m156.8 257.32c3.85-51.27 47-92.02 99.2-92.02 52.21 0 95.36 40.76 99.2 92.02.3 4.05-2.86 7.46-6.92 7.46h-184.56c-4.07 0-7.23-3.41-6.92-7.46z" fill="#64b5f6"/><path d="m244.9 165.93c3.65-.41 7.35-.63 11.1-.63 52.21 0 95.36 40.76 99.2 92.02.3 4.05-2.86 7.46-6.92 7.46h-22.2c4.06 0 7.22-3.41 6.92-7.46-3.57-47.58-41-86.1-88.1-91.39z" fill="#42a5f5"/><ellipse cx="256" cy="106.34" fill="#ffd6bd" rx="53.77" ry="53.77" transform="matrix(.707 -.707 .707 .707 -.213 212.166)"/><path d="m215.23 141.39c9.86 11.46 24.47 18.72 40.77 18.72 29.69 0 53.77-24.07 53.77-53.77 0-19.07-9.93-35.82-24.9-45.37 8.1 9.41 13 21.66 13 35.05 0 29.69-24.07 53.77-53.77 53.77-10.63 0-20.53-3.08-28.87-8.4z" fill="#f9c6aa"/></g><g><path d="m9.02 319.28c3.85-51.27 47-92.02 99.2-92.02 52.21 0 95.36 40.76 99.2 92.02.3 4.05-2.86 7.46-6.92 7.46h-184.56c-4.06 0-7.23-3.41-6.92-7.46z" fill="#72d561"/><path d="m97.12 227.88c3.65-.41 7.35-.63 11.1-.63 52.21 0 95.36 40.76 99.2 92.02.3 4.05-2.86 7.46-6.92 7.46h-22.2c4.06 0 7.22-3.41 6.92-7.46-3.57-47.57-41-86.1-88.1-91.39z" fill="#57ca5a"/><ellipse cx="108.22" cy="168.29" fill="#ffd6bd" rx="53.77" ry="53.77" transform="matrix(.973 -.23 .23 .973 -35.771 29.366)"/><path d="m67.45 203.35c9.86 11.46 24.47 18.72 40.77 18.72 29.69 0 53.77-24.07 53.77-53.77 0-19.07-9.93-35.82-24.9-45.37 8.1 9.41 13 21.66 13 35.05 0 29.69-24.07 53.77-53.77 53.77-10.63-.01-20.53-3.09-28.87-8.4z" fill="#f9c6aa"/></g><g><path d="m304.57 319.28c3.85-51.27 47-92.02 99.2-92.02 52.21 0 95.36 40.76 99.2 92.02.3 4.05-2.86 7.46-6.92 7.46h-184.56c-4.06 0-7.22-3.41-6.92-7.46z" fill="#72d561"/><path d="m392.68 227.88c3.65-.41 7.35-.63 11.1-.63 52.21 0 95.36 40.76 99.2 92.02.3 4.05-2.86 7.46-6.92 7.46h-22.2c4.06 0 7.22-3.41 6.92-7.46-3.57-47.57-41-86.1-88.1-91.39z" fill="#57ca5a"/><ellipse cx="403.78" cy="168.29" fill="#ffd6bd" rx="53.77" ry="53.77" transform="matrix(.707 -.707 .707 .707 -.738 334.807)"/><path d="m363.01 203.35c9.86 11.46 24.47 18.72 40.77 18.72 29.69 0 53.77-24.07 53.77-53.77 0-19.07-9.93-35.82-24.9-45.37 8.1 9.41 13 21.66 13 35.05 0 29.69-24.07 53.77-53.77 53.77-10.63-.01-20.53-3.09-28.87-8.4z" fill="#f9c6aa"/></g><g><path d="m235.65 215.51h40.7v20.42c13.48 2.69 26.01 7.99 37.05 15.36l14.45-14.45 28.78 28.78-14.45 14.45c7.37 11.04 12.67 23.57 15.35 37.05h20.42v40.7h-20.42c-2.69 13.48-7.99 26.01-15.35 37.05l14.45 14.45-28.78 28.78-14.45-14.45c-11.04 7.37-23.57 12.67-37.05 15.36v20.42h-40.7v-20.42c-13.48-2.69-26.01-7.99-37.05-15.36l-14.45 14.45-28.78-28.78 14.45-14.45c-7.37-11.04-12.67-23.57-15.35-37.05h-20.42v-40.7h20.42c2.69-13.48 7.99-26.01 15.36-37.05l-14.45-14.45 28.78-28.78 14.45 14.45c11.04-7.37 23.57-12.67 37.05-15.35v-20.43z" fill="#ffda2d"/><path d="m262.52 235.92c16.83 3.36 32.19 10.79 45.01 21.23l5.87-5.87c-11.04-7.37-23.57-12.67-37.05-15.36v-20.42h-13.83zm65.84 44.14c7.37 11.04 12.67 23.58 15.36 37.06h13.82c-2.69-13.48-7.99-26.01-15.35-37.05l14.45-14.45-28.78-28.78-7.22 7.22 22.18 21.56zm15.36 77.76c-2.69 13.48-7.99 26.02-15.36 37.06l14.44 14.44-21.87 21.87 6.91 6.91 28.78-28.78-14.45-14.45c7.37-11.04 12.67-23.57 15.35-37.05zm-36.19 59.96c-12.81 10.44-28.18 17.88-45.01 21.23v20.41h13.83v-20.42c13.48-2.69 26.01-7.99 37.05-15.36zm56.6-59.96h13.83v-40.7h-13.83z" fill="#ffc700"/><circle cx="256" cy="337.47" fill="#eff4f7" r="63.42"/><path d="m256 274.05c15.71 0 30.08 5.71 41.15 15.17-8.93-4.8-19.13-7.52-29.98-7.52-35.03 0-63.42 28.39-63.42 63.42 0 19.32 8.64 36.62 22.27 48.25-19.91-10.7-33.44-31.72-33.44-55.9 0-35.03 28.39-63.42 63.42-63.42z" fill="#e2e3e3"/></g><g><path d="m306.21 376.21c-9.25 11.97-22.68 20.53-38.1 23.52l6-19.32-24.09-5.46 7.29-23.5-24.09-5.46 7.05-35.65 34.54 11.74z" fill="#465759"/><path d="m277.14 397.27c-2.92 1.03-5.94 1.86-9.04 2.46l6-19.32-24.09-5.46 7.29-23.5-24.09-5.46 7.05-35.65 6.98 2.37-5.2 26.3 24.09 5.46-7.29 23.5 24.09 5.46-7.29 23.5z" fill="#3a484a"/></g></g><path d="m306.37 360.55-24.64-42.48c-.97-1.67-2.52-2.93-4.35-3.56l-34.54-11.74c-2.18-.74-4.58-.5-6.58.65-2 1.16-3.4 3.11-3.84 5.38l-7.06 35.65c-.84 4.25 1.86 8.4 6.08 9.36l15.66 3.55-4.73 15.24c-.66 2.13-.4 4.44.71 6.37s2.98 3.31 5.16 3.8l15.66 3.55-1.95 6.26c-1.96.21-3.94.33-5.95.33-30.56 0-55.42-24.86-55.42-55.42s24.86-55.42 55.42-55.42 55.42 24.86 55.42 55.42c0 8.21-1.82 16.02-5.05 23.06zm-26.01 26.68c6.06-2.98 11.5-7.04 16.07-11.92l-27.04-46.62-23.05-7.84-3.77 19.05 16.5 3.74c2.18.5 4.05 1.87 5.16 3.81 1.12 1.93 1.37 4.24.71 6.37l-4.73 15.24 15.66 3.55c2.17.49 4.04 1.87 5.16 3.81 1.11 1.93 1.37 4.24.71 6.37zm-24.36-121.18c-39.38 0-71.42 32.04-71.42 71.42s32.04 71.42 71.42 71.42 71.42-32.04 71.42-71.42-32.04-71.42-71.42-71.42zm129.96 52.68v-1.61c0-4.42-3.58-8-8-8h-14.06c-2.56-9.8-6.43-19.14-11.56-27.89l9.95-9.95c1.5-1.5 2.34-3.54 2.34-5.66s-.84-4.15-2.34-5.65l-9.23-9.23c14.98-10.03 32.68-15.49 50.72-15.49 47.21 0 87.02 36.58 91.13 83.48zm-16 31.09v-24.71h-12.42c-3.82 0-7.1-2.69-7.85-6.44-2.44-12.26-7.21-23.75-14.16-34.17-2.12-3.17-1.7-7.4 1-10.1l8.79-8.79-17.47-17.47-8.8 8.79c-2.7 2.7-6.93 3.12-10.1.99-10.42-6.96-21.92-11.72-34.17-14.16-3.74-.75-6.44-4.03-6.44-7.85v-12.42h-24.7v12.42c0 3.82-2.7 7.1-6.44 7.85-12.25 2.44-23.75 7.21-34.17 14.17-3.17 2.12-7.4 1.7-10.1-1l-8.79-8.79-17.47 17.47 8.79 8.79c2.7 2.7 3.12 6.92 1 10.1-6.96 10.42-11.72 21.92-14.16 34.17-.75 3.74-4.03 6.44-7.85 6.44h-12.42v24.71h12.42c3.82 0 7.1 2.69 7.85 6.43 2.44 12.26 7.21 23.75 14.16 34.17 2.12 3.17 1.7 7.4-1 10.1l-8.79 8.79 17.47 17.47 8.79-8.79c2.7-2.7 6.93-3.12 10.1-.99 10.42 6.96 21.92 11.72 34.17 14.16 3.74.75 6.44 4.03 6.44 7.85v12.43h24.7v-12.43c0-3.82 2.7-7.1 6.44-7.85 2.98-.59 5.91-1.33 8.79-2.19.46-.14.91-.3 1.36-.44.85-.27 1.69-.54 2.53-.83.6-.21 1.19-.43 1.78-.65.71-.26 1.42-.54 2.12-.82.59-.23 1.18-.46 1.76-.71.95-.4 1.89-.82 2.83-1.25.63-.29 1.25-.59 1.87-.89.85-.42 1.69-.84 2.53-1.28.48-.25.96-.51 1.43-.77.81-.45 1.62-.91 2.42-1.37.41-.24.81-.47 1.22-.72 1.19-.72 2.37-1.46 3.53-2.24 3.17-2.12 7.4-1.7 10.1.99l8.8 8.79 3.36-3.36 14.11-14.1-8.79-8.79c-2.7-2.7-3.12-6.92-1-10.1 6.96-10.43 11.72-21.92 14.16-34.17.75-3.74 4.03-6.44 7.85-6.44zm-243.92-32.7v1.61h-108.95c4.11-46.91 43.92-83.48 91.13-83.48 18.04 0 35.74 5.46 50.72 15.49l-9.23 9.23c-3.12 3.12-3.12 8.19 0 11.31l9.95 9.95c-5.13 8.76-9 18.09-11.56 27.89h-14.06c-4.42 0-8 3.57-8 8zm-63.58-148.83c0-25.24 20.53-45.77 45.76-45.77 25.24 0 45.77 20.53 45.77 45.77 0 25.23-20.53 45.77-45.77 45.77-25.23 0-45.76-20.53-45.76-45.77zm193.54 5.01c40.47 0 75.65 26.3 87.42 64.63-.62.43-1.24.88-1.85 1.32l-8.06-8.06c-1.5-1.5-3.54-2.34-5.66-2.34s-4.16.84-5.66 2.34l-9.95 9.95c-8.75-5.13-18.09-9-27.89-11.56v-14.08c0-4.41-3.58-8-8-8h-40.7c-4.42 0-8 3.58-8 8v14.06c-9.8 2.56-19.14 6.43-27.9 11.56l-9.94-9.95c-3.13-3.12-8.19-3.12-11.32 0l-8.06 8.06c-.61-.44-1.23-.89-1.85-1.32 11.78-38.3 46.95-64.61 87.42-64.61zm-45.77-66.96c0-25.23 20.53-45.77 45.77-45.77s45.77 20.53 45.77 45.77c0 25.23-20.53 45.77-45.77 45.77-25.24-.01-45.77-20.54-45.77-45.77zm147.78 61.95c0-25.24 20.53-45.77 45.77-45.77 25.23 0 45.76 20.53 45.76 45.77 0 25.23-20.53 45.77-45.76 45.77-25.24 0-45.77-20.53-45.77-45.77zm152.95 150.38c-3.45-45.97-36.08-83.73-78.78-95.56 19.8-10.3 33.36-31 33.36-54.82 0-34.06-27.7-61.77-61.76-61.77s-61.77 27.7-61.77 61.77c0 23.83 13.58 44.54 33.39 54.83-6.12 1.69-12.08 3.93-17.82 6.67-6.65-19.1-18.71-36.25-34.69-49.01-11.42-9.12-24.59-15.76-38.53-19.61 19.82-10.29 33.41-31.01 33.41-54.84 0-34.06-27.71-61.77-61.77-61.77s-61.77 27.7-61.77 61.77c0 23.83 13.58 44.55 33.41 54.84-13.94 3.85-27.11 10.49-38.53 19.61-15.98 12.76-28.04 29.91-34.69 49.01-5.74-2.74-11.7-4.98-17.82-6.67 19.81-10.29 33.39-31 33.39-54.83 0-34.06-27.71-61.77-61.77-61.77s-61.76 27.7-61.76 61.77c0 23.81 13.56 44.51 33.35 54.82-42.69 11.83-75.32 49.59-78.77 95.56-.31 4.14 1.13 8.26 3.94 11.28 2.81 3.03 6.81 4.77 10.96 4.77h110.1v23.09c0 4.42 3.58 8 8 8h14.06c2.56 9.8 6.43 19.14 11.56 27.89l-9.95 9.95c-3.12 3.12-3.12 8.19 0 11.31l28.78 28.78c1.5 1.5 3.54 2.34 5.66 2.34s4.16-.84 5.66-2.34l9.95-9.95c8.75 5.13 18.09 9 27.89 11.56v14.06c0 4.42 3.58 8 8 8h40.7c4.42 0 8-3.58 8-8v-14.06c3.21-.83 6.36-1.83 9.47-2.95.22-.08.44-.16.66-.24.81-.3 1.61-.6 2.4-.92.28-.11.56-.22.84-.33.77-.31 1.53-.63 2.29-.96.31-.13.62-.27.92-.4.74-.32 1.47-.65 2.19-.99.34-.16.68-.32 1.02-.48.69-.33 1.38-.67 2.07-1.01.39-.2.77-.4 1.16-.6.64-.33 1.27-.66 1.9-1 .6-.33 1.19-.67 1.78-1 .4-.23.8-.44 1.19-.67l9.95 9.95c.2.2.4.38.61.55 3.14 2.56 7.78 2.38 10.71-.55l9.02-9.02 19.76-19.76c1.5-1.5 2.34-3.54 2.34-5.66s-.84-4.15-2.34-5.65l-9.95-9.95c5.13-8.75 9-18.09 11.56-27.89h14.06c4.42 0 8-3.58 8-8v-23.09h110.1c4.15 0 8.15-1.74 10.96-4.77s4.25-7.15 3.94-11.29z"/></g></svg>