<svg id="Layer_1" enable-background="new 0 0 512 512" height="512" viewBox="0 0 512 512" width="512" xmlns="http://www.w3.org/2000/svg"><g clip-rule="evenodd" fill-rule="evenodd"><g><g><path d="m262.56 9h43.827v21.991c14.511 2.893 28.004 8.602 39.889 16.533l15.557-15.557 30.99 30.991-15.557 15.557c7.932 11.884 13.639 25.379 16.533 39.889h21.991v43.827h-21.99c-2.893 14.511-8.602 28.004-16.533 39.89l15.556 15.557-30.991 30.99-15.556-15.556c-11.884 7.933-25.38 13.639-39.89 16.533v21.989h-43.826v-21.989c-14.511-2.893-28.005-8.602-39.89-16.533l-15.556 15.556-30.99-30.991 15.556-15.556c-7.933-11.885-13.639-25.38-16.533-39.891h-21.989v-43.827h21.989c2.893-14.511 8.602-28.004 16.533-39.89l-15.557-15.556 30.991-30.99 15.557 15.556c11.885-7.932 25.38-13.639 39.89-16.532v-21.991z" fill="#ffe600"/><ellipse cx="284.473" cy="140.318" fill="#eff4f7" rx="68.284" ry="68.284" transform="matrix(.973 -.23 .23 .973 -24.629 69.112)"/></g><g><circle cx="411.167" cy="186.044" fill="#ffd6bd" r="35.3"/><path d="m475.842 277.536c-4.472-31.646-31.846-56.192-64.675-56.192s-60.203 24.546-64.675 56.192c-.336 2.378.308 4.555 1.882 6.368 1.575 1.813 3.641 2.755 6.042 2.755h113.502c2.401 0 4.467-.942 6.042-2.755 1.574-1.812 2.218-3.99 1.882-6.368z" fill="#22c269"/></g><g><path d="m225.717 277.536c-4.472-31.646-31.846-56.192-64.675-56.192s-60.203 24.546-64.675 56.192c-.336 2.378.308 4.555 1.882 6.368 1.575 1.813 3.641 2.755 6.042 2.755h113.502c2.401 0 4.467-.942 6.042-2.755 1.574-1.812 2.218-3.99 1.882-6.368z" fill="#22c269"/><circle cx="161.042" cy="186.044" fill="#ffd6bd" r="35.3"/></g><g><circle cx="284.474" cy="183.762" fill="#ffd6bd" r="41.049"/><path d="m359.897 291.816c-4.463-37.598-36.676-67.005-75.423-67.005-38.748 0-70.961 29.407-75.424 67.005-.279 2.353.391 4.486 1.964 6.258 1.574 1.772 3.614 2.688 5.983 2.688h134.953c2.37 0 4.41-.916 5.983-2.688 1.574-1.772 2.244-3.905 1.964-6.258z" fill="#599efa"/></g><g><path d="m293.889 389.926c4.786-17.582-5.716-35.939-23.298-40.725l-111.758-30.418c-14.833-1.964-28.3 1.628-40.179 10.727l-44.096 33.769 31.868 118.932c22.168-21.353 41.865-25.613 63.369-20.683l64.014 14.675c14.576 3.342 28.276 2.051 41.23-5.428l160.083-92.421c14.284-8.247 19.222-26.68 10.975-40.967-8.245-14.285-26.682-19.225-40.966-10.978l-111.483 64.362c.084-.279.164-.561.241-.845z" fill="#ffd6bd"/><path d="m253.166 413.224c17.607 4.792 35.931-5.691 40.724-23.298.156-.572.295-1.146.418-1.719-8.028 9.975-21.513 14.857-34.603 11.294l-59.698-16.249c-3.969-1.08-8.1 1.283-9.18 5.252-1.079 3.964 1.288 8.102 5.252 9.18z" fill="#f9c6aa"/><path d="m75.646 343.683 38.552 143.876c.94 3.511-1.162 7.15-4.67 8.09l-26.592 7.125c-3.508.94-7.148-1.16-8.089-4.671l-38.551-143.876c-.941-3.511 1.162-7.15 4.67-8.09l26.591-7.125c3.508-.94 7.149 1.16 8.089 4.671z" fill="#62a4fb"/></g></g><path d="m365.189 278.657c-1.542-5.617-3.641-10.999-6.254-16.078 9.362-20.021 29.803-33.241 51.961-33.241 28.888 0 52.838 21.493 56.753 49.319zm-148.464 14.103c3.971-33.713 32.723-59.95 67.483-59.95s63.507 26.237 67.478 59.95zm-112.709-14.103c3.9-27.827 27.869-49.319 56.757-49.319 21.031 0 40.382 11.692 50.39 30.11-3.396 5.98-6.079 12.423-7.938 19.21h-99.209zm29.549-90.39c-1.339-16.8 12.631-30.779 29.43-29.44 13.22 1.052 23.931 11.763 24.988 24.983 1.344 16.8-12.635 30.779-29.435 29.44-13.22-1.051-23.931-11.762-24.983-24.983zm102.191-12.135c-7.57-10.253-11.838-22.775-11.838-35.821 0-33.242 27.049-60.281 60.29-60.281 33.237 0 60.276 27.039 60.276 60.281 0 13.046-4.259 25.568-11.829 35.821-3.679-23.441-23.997-41.424-48.447-41.424-24.451 0-44.783 17.984-48.452 41.424zm15.587 11.216c1.623 15.319 13.951 27.643 29.27 29.27 21.031 2.231 38.679-15.408 36.453-36.448-1.623-15.319-13.942-27.638-29.27-29.27-21.03-2.232-38.679 15.408-36.453 36.448zm-76.467-60.951h-13.989v16.343c23.827.071 43.188 19.46 43.188 43.301 0 13.178-5.919 24.988-15.239 32.939 12.989 5.419 24.309 14.541 32.411 26.336 8.867-10.069 20.097-17.988 32.826-22.898-6.957-5.443-12.418-12.711-15.649-21.083-19.149-14.39-30.51-37.005-30.51-61.026 0-42.061 34.232-76.279 76.293-76.279 42.056 0 76.279 34.217 76.279 76.279 0 24.021-11.353 46.636-30.501 61.021-3.226 8.376-8.688 15.644-15.649 21.087 13.631 5.259 25.549 13.961 34.689 25.049 8.15-12.748 20.082-22.667 33.859-28.449-9.339-7.938-15.291-19.781-15.291-32.977 0-22.743 17.621-41.42 39.934-43.16v-16.484h-13.994c-3.82 0-7.098-2.698-7.848-6.438-2.651-13.281-7.811-25.728-15.343-37.01-2.118-3.169-1.698-7.4 1-10.093l9.905-9.895-19.681-19.68-9.9 9.9c-2.703 2.698-6.919 3.108-10.103 1-11.287-7.542-23.738-12.701-37-15.338-3.745-.75-6.447-4.033-6.447-7.853v-13.989h-27.822v13.989c0 3.811-2.688 7.103-6.429 7.839-13.277 2.651-25.738 7.81-37.029 15.352-3.169 2.108-7.391 1.689-10.088-1l-9.905-9.9-19.677 19.682 9.9 9.886c2.698 2.703 3.122 6.924 1 10.103-7.532 11.291-12.702 23.747-15.338 37.019-.754 3.739-4.032 6.427-7.852 6.427zm263.228 57.414c1.349 16.8-12.631 30.779-29.43 29.44-13.23-1.052-23.941-11.763-24.988-24.983-1.339-16.8 12.64-30.779 29.44-29.44 13.22 1.051 23.927 11.762 24.978 24.983zm.892 35.137c9.315-7.947 15.21-19.748 15.21-32.907 0-19.484-12.951-36.001-30.68-41.42v-26.223c0-4.419-3.58-7.999-7.999-7.999h-15.621c-2.783-10.819-7.051-21.111-12.739-30.742l11.051-11.046c3.117-3.122 3.117-8.192 0-11.31l-30.921-30.921c-.604-.604-1.269-1.142-2.019-1.524-3.283-1.651-6.995-.929-9.372 1.453l-11.041 11.041c-9.64-5.693-19.927-9.961-30.751-12.744v-15.605c0-4.424-3.58-7.999-7.999-7.999h-43.82c-4.419 0-7.999 3.575-7.999 7.999v15.607c-10.82 2.782-21.12 7.051-30.751 12.744l-11.037-11.042c-3.132-3.132-8.192-3.132-11.324 0l-30.987 30.992c-1.5 1.5-2.344 3.528-2.344 5.66 0 2.118.844 4.146 2.344 5.65l11.051 11.046c-5.702 9.631-9.961 19.932-12.753 30.742h-15.607c-4.419 0-8.004 3.58-8.004 7.999v27.369c-16.026 6.353-27.407 22.002-27.407 40.274 0 13.159 5.91 24.959 15.201 32.907-26.539 11.051-45.254 37.269-45.221 67.779.009 4.391 3.618 7.933 7.999 7.933h105.049c-.146 2.047-.25 4.117-.25 6.207.009 4.382 3.631 7.891 8.004 7.891h151.897c4.382 0 7.99-3.509 7.999-7.891.01-2.089-.099-4.16-.24-6.207h108.317c4.386 0 7.971-3.542 7.971-7.933.047-30.511-18.677-56.729-45.207-67.78zm-8.141 152.472-160.08 92.428c-10.589 6.112-22.177 7.598-35.449 4.551l-64.011-14.673c-20.262-4.65-37.731-1.538-55.47 10.084l-27.181-101.46 34.581-26.492c10.121-7.749 21.163-10.758 33.751-9.22l111.232 30.279c13.385 3.641 21.318 17.512 17.677 30.902-3.65 13.399-17.522 21.318-30.907 17.682l-59.705-16.253c-4.249-1.16-8.655 1.363-9.82 5.622-1.16 4.259 1.363 8.659 5.622 9.82l59.7 16.248c3.608.981 7.23 1.448 10.801 1.448 16.701 0 32.128-10.249 38.349-26.176l108.916-62.88c5.066-2.924 10.984-3.679 16.682-2.16 5.693 1.528 10.442 5.16 13.362 10.211 6.062 10.509 2.454 23.979-8.05 30.039zm-348.907 123.26 23.898-6.4-37.83-141.182-23.898 6.4zm347.738-178.961c9.82 2.627 18.012 8.909 23.059 17.658 10.471 18.154 4.245 41.434-13.89 51.9l-160.081 92.423c-9.48 5.471-19.767 8.216-30.718 8.216-5.278 0-10.72-.637-16.3-1.92l-64.021-14.677c-17.432-3.99-31.84-.731-47.48 10.928l1.401 5.24c2.08 7.782-2.547 15.8-10.329 17.889l-26.591 7.122c-1.25.34-2.519.5-3.787.5-2.533 0-5.032-.66-7.291-1.957-3.382-1.962-5.801-5.113-6.801-8.872l-38.563-143.879c-.995-3.759-.49-7.688 1.472-11.083 1.952-3.377 5.098-5.797 8.857-6.796l26.591-7.131c7.782-2.08 15.809 2.552 17.889 10.329l1.071 4.009 29.35-22.469c13.593-10.409 29.11-14.55 46.094-12.3.349.052.698.123 1.047.212l111.76 30.421c16.621 4.518 28.091 18.668 30.048 34.798l98.389-56.8c8.765-5.062 18.995-6.393 28.824-3.761z"/></g></svg>