<svg enable-background="new 0 0 256 256" height="512" viewBox="0 0 256 256" width="512" xmlns="http://www.w3.org/2000/svg"><g id="Layer_1"><g><path d="m227.371 210.067-33.791 33.257c-2.172 2.184-5.13 3.412-8.212 3.412h-122.843v-43.22h4.236c4.641 0 9.11-1.57 12.704-4.368 1.308-1.012 2.502-2.195 3.549-3.526 7.518-9.054 18.687-14.297 30.448-14.297h40.058c5.368 0 9.747 4.424 9.622 9.861-.114 5.266-4.561 9.406-9.827 9.406h-18.949c-6.005 0-10.862 5.016-10.589 11.101.262 5.71 5.175 10.1 10.885 10.1h46.769c2.4 0 4.709-.955 6.415-2.65 17.263-16.896 11.785-11.535 24.556-24.033 4.14-4.14 10.839-4.14 14.968 0 4.129 4.129 4.141 10.828.001 14.957z" fill="#ffb69f"/><path d="m59.009 194.617h-33.48v57.39h33.481c1.942 0 3.516-1.574 3.516-3.516v-50.357c-.001-1.943-1.575-3.517-3.517-3.517z" fill="#72c1e8"/><path d="m229.136 31.635v98.038c0 3.092-2.51 5.602-5.602 5.602h-9.512v-88.111c0-3.092-2.51-5.602-5.602-5.602h-110.308l-9.389-18.924c-.952-1.904-2.891-3.115-5.02-3.115h-26.61v-9.927c0-3.092 2.51-5.602 5.602-5.602h36.123c2.129 0 4.078 1.21 5.02 3.115l9.389 18.924h110.306c3.093 0 5.603 2.51 5.603 5.602z" fill="#fc5d3d"/><path d="m221.864 47.164v88.111h-7.843v-88.111c0-3.092-2.51-5.602-5.602-5.602h-110.307l-9.389-18.924c-.952-1.904-2.891-3.115-5.02-3.115h-26.61v-7.843h26.61c5.12 0 9.737 2.857 12.033 7.451l7.238 14.588h105.444c7.418 0 13.446 6.028 13.446 13.445z" fill="#b34f33"/><path d="m214.021 47.164v98.038c0 3.092-2.51 5.602-5.602 5.602h-9.512v-88.111c0-3.092-2.51-5.602-5.602-5.602h-110.307l-9.389-18.924c-.952-1.904-2.891-3.115-5.02-3.115h-26.61v-9.927c0-3.092 2.51-5.602 5.602-5.602h36.123c2.129 0 4.078 1.21 5.02 3.115l9.389 18.924h110.306c3.092 0 5.602 2.51 5.602 5.602z" fill="#72c2e9"/><path d="m206.75 62.693v88.111h-7.843v-88.111c0-3.092-2.51-5.602-5.602-5.602h-110.307l-9.389-18.924c-.952-1.904-2.891-3.115-5.02-3.115h-26.61v-7.843h26.61c5.12 0 9.737 2.857 12.033 7.451l7.238 14.588h105.444c7.418 0 13.446 6.028 13.446 13.445z" fill="#4ba5c8"/><path d="m198.907 62.693v98.038c0 3.092-2.51 5.602-5.602 5.602h-160.839c-3.092 0-5.602-2.51-5.602-5.602v-120.076c0-3.093 2.51-5.602 5.602-5.602h36.123c2.129 0 4.067 1.21 5.02 3.115l9.389 18.924h110.307c3.092-.001 5.602 2.509 5.602 5.601z" fill="#efc020"/><g><g><g><path d="m185.366 239.652h-94.991c-1.381 0-2.5-1.119-2.5-2.5s1.119-2.5 2.5-2.5h94.799l33.666-33.138c.983-.97 2.567-.957 3.536.027s.956 2.567-.028 3.535l-33.737 33.208c-.88.879-2.036 1.368-3.245 1.368zm-104.991 0h-8.265c-1.381 0-2.5-1.119-2.5-2.5s1.119-2.5 2.5-2.5h8.265c1.381 0 2.5 1.119 2.5 2.5s-1.12 2.5-2.5 2.5z" fill="#fbe0e2"/></g><g><g><g><path d="m185.366 239.652h-94.991c-1.381 0-2.5-1.119-2.5-2.5s1.119-2.5 2.5-2.5h94.799l33.666-33.138c.983-.97 2.567-.957 3.536.027s.956 2.567-.028 3.535l-33.737 33.208c-.88.879-2.036 1.368-3.245 1.368zm-104.991 0h-8.265c-1.381 0-2.5-1.119-2.5-2.5s1.119-2.5 2.5-2.5h8.265c1.381 0 2.5 1.119 2.5 2.5s-1.12 2.5-2.5 2.5z" fill="#fbe0e2"/></g></g><g><g><path d="m188.907 158.833h-133.758c-1.381 0-2.5-1.119-2.5-2.5s1.119-2.5 2.5-2.5h131.258v-86.742c0-1.381 1.119-2.5 2.5-2.5s2.5 1.119 2.5 2.5v89.242c0 1.381-1.119 2.5-2.5 2.5zm-143.758 0h-8.285c-1.381 0-2.5-1.119-2.5-2.5s1.119-2.5 2.5-2.5h8.285c1.381 0 2.5 1.119 2.5 2.5s-1.119 2.5-2.5 2.5z" fill="#f9e5af"/></g></g></g><circle cx="40.53" cy="194.62" r="2.5"/><path d="m23.03 194.62c0 1.37 1.12 2.5 2.5 2.5h5c1.38 0 2.5-1.13 2.5-2.5 0-1.38-1.12-2.5-2.5-2.5h-5c-1.38 0-2.5 1.12-2.5 2.5z"/><path d="m25.53 254.51 33.48-.01c3.056 0 5.587-2.295 5.966-5.26l120.394-.011c3.71 0 7.34-1.5 9.96-4.12l33.79-33.26.02-.01c5.109-5.108 5.112-13.389 0-18.5-5.146-5.146-13.423-5.067-18.49-.021-21.546 21.099-1.165 1.143-24.55 24.04-1.26 1.25-2.92 1.931-4.67 1.931h-46.77c-4.434 0-8.39-3.48-8.39-8.09 0-4.46 3.64-8.101 8.1-8.11h18.95c3.2 0 6.25-1.21 8.57-3.41 7.892-7.518 2.527-20.85-8.37-20.85h-40.06c-12.935 0-24.676 5.926-32.37 15.189-1.46 2.208-6.73 7-14.33 7h-1.73v-2.89c-.01-3.311-2.71-6.01-6.02-6.01h-8.48c-1.38 0-2.5 1.12-2.5 2.5 0 1.37 1.12 2.5 2.5 2.5h8.48c.56 0 1.01.449 1.01 1.01v50.36c0 .56-.45 1.02-1.01 1.02h-33.48c-1.38 0-2.5 1.12-2.5 2.5s1.12 2.502 2.5 2.502zm41.23-48.5c6.855 0 13.65-3.08 18.17-8.78 0-.01.01-.01.01-.01 7.07-8.51 17.46-13.4 28.52-13.4h40.06c3.92.011 7.12 3.21 7.13 7.141 0 .02 0 .05-.01.08 0 3.899-3.329 7.05-7.32 7.05h-18.95c-7.426.01-13.424 6.221-13.09 13.729.34 6.99 6.22 12.471 13.38 12.471h46.77c3.09 0 5.99-1.2 8.18-3.37 21.219-20.771 8.864-8.682 24.54-24.021l.02-.02c3.184-3.185 8.29-3.15 11.43-.01 3.119 3.117 3.207 8.222 0 11.43v.01l-33.77 33.23-.02.02c-1.69 1.7-4.04 2.681-6.44 2.681h-120.34v-38.23h1.73z"/><circle cx="229.14" cy="100.319" r="2.5"/><path d="m62.77 114.37c0 11.34 9.22 20.569 20.56 20.569s20.57-9.229 20.57-20.569c0-6.219-2.787-11.788-7.164-15.561h32.297c-4.377 3.773-7.164 9.342-7.164 15.561 0 11.34 9.23 20.569 20.57 20.569s20.56-9.229 20.56-20.569c0-11.341-9.22-20.561-20.56-20.561h-59.109c-11.34.001-20.56 9.22-20.56 20.561zm95.24 0c-.02 8.569-7.01 15.56-15.57 15.569-8.57-.01-15.55-7-15.57-15.569.02-8.57 7-15.551 15.57-15.561 8.56.01 15.55 6.991 15.57 15.561zm-59.11 0c-.02 8.569-7 15.56-15.57 15.569-8.56-.01-15.55-7-15.56-15.569.01-8.57 7-15.551 15.56-15.561 8.57.01 15.55 6.991 15.57 15.561z"/><path d="m65.27 48.97c0-1.38-1.12-2.5-2.5-2.5h-18.24c-1.38 0-2.5 1.12-2.5 2.5s1.12 2.5 2.5 2.5h18.24c1.38 0 2.5-1.12 2.5-2.5z"/><path d="m24.36 40.649v120.08c.01 4.471 3.64 8.101 8.11 8.101h160.83c4.47 0 8.1-3.63 8.11-8.101v-7.422l7.01-.007c4.46 0 8.1-3.63 8.1-8.1v-7.423l7.01-.007c4.47 0 8.1-3.63 8.11-8.1v-19.351c0-1.38-1.13-2.5-2.5-2.5-1.38 0-2.5 1.12-2.5 2.5v19.351c-.01 1.71-1.4 3.1-3.11 3.1h-7.01v-85.61c0-4.46-3.64-8.101-8.1-8.101h-108.76l-8.7-17.529c-1.37-2.78-4.15-4.511-7.26-4.511h-24.11v-7.419c.01-1.71 1.4-3.1 3.11-3.109h36.13c1.16 0 2.25.68 2.77 1.729l9.39 18.92c.41.851 1.29 1.391 2.24 1.391h110.3c1.71.01 3.1 1.399 3.11 3.109v58.68c0 1.381 1.12 2.5 2.5 2.5 1.37 0 2.5-1.119 2.5-2.5v-58.68c-.01-4.47-3.64-8.109-8.11-8.109h-108.75l-8.7-17.531c-1.38-2.78-4.16-4.51-7.26-4.51h-36.12c-4.47.01-8.1 3.64-8.11 8.11v7.42h-7.01c-4.46.011-8.1 3.641-8.1 8.11v7.42h-7.01c-4.47 0-8.1 3.639-8.11 8.099zm20.12-15.519c0-1.71 1.39-3.1 3.1-3.11h36.12c1.18 0 2.27.681 2.78 1.73l9.39 18.93c.43.85 1.29 1.38 2.24 1.38h110.31c1.71 0 3.1 1.4 3.1 3.101v98.04c0 1.71-1.39 3.1-3.1 3.1h-7.01v-85.61c-.01-4.46-3.64-8.1-8.11-8.1h-64.13c-1.38 0-2.5 1.12-2.5 2.5s1.12 2.5 2.5 2.5h.02 64.11c1.71 0 3.1 1.4 3.11 3.1v98.04c-.01 1.71-1.4 3.101-3.11 3.101h-160.83c-1.71 0-3.1-1.391-3.11-3.101v-120.082c.01-1.699 1.4-3.09 3.11-3.1h36.12c1.18 0 2.25.67 2.78 1.729l9.39 18.922c.41.84 1.29 1.39 2.24 1.39h26.17c1.38 0 2.5-1.12 2.5-2.5s-1.12-2.5-2.5-2.5h-24.62l-8.7-17.53c-1.39-2.779-4.17-4.51-7.26-4.51h-24.11z"/><circle cx="119.17" cy="57.09" r="2.5"/></g><g><path d="m51.11 244.732c-1.381 0-2.5-1.119-2.5-2.5v-1.422c0-1.381 1.119-2.5 2.5-2.5s2.5 1.119 2.5 2.5v1.422c0 1.381-1.119 2.5-2.5 2.5zm0-11.421c-1.381 0-2.5-1.119-2.5-2.5v-27c0-1.381 1.119-2.5 2.5-2.5s2.5 1.119 2.5 2.5v27c0 1.38-1.119 2.5-2.5 2.5z" fill="#c5e5ff"/></g></g></g></g></svg>