<svg clip-rule="evenodd" fill-rule="evenodd" height="512" image-rendering="optimizeQuality" shape-rendering="geometricPrecision" text-rendering="geometricPrecision" viewBox="0 0 512 512" width="512" xmlns="http://www.w3.org/2000/svg"><g id="Layer_x0020_1"><path d="m401 475v30c0 4-3 7-7 7h-349c-4 0-7-3-7-7v-425c0-4 3-7 7-7h30v-29c0-4 3-7 7-7h29v-30c0-4 3-7 7-7h349c4 0 7 3 7 7v425c0 4-3 7-7 7h-30v29c0 4-3 7-7 7zm-239-82c-9 0-9-14 0-14h261c9 0 9 14 0 14zm0-42c-9 0-9-14 0-14h261c9 0 9 14 0 14zm0-42c-9 0-9-14 0-14h261c9 0 9 14 0 14zm57-43c-9 0-9-14 0-14h147c9 0 9 14 0 14zm74-190c30 0 46 37 24 59-22 21-59 6-59-25 0-19 16-34 35-34zm14 20c-13-13-35-4-35 14 0 19 22 28 35 15 8-8 8-21 0-29zm-74 77c33-32 86-32 119 0 33-48-1-113-59-113-59 0-93 65-60 113zm110 11c-28-28-73-28-101 0 28 28 73 28 101 0zm-50-138c76 0 115 93 61 148-55 54-148 15-148-62 0-47 39-86 87-86zm-182 5h-22v410h334v-22h-305c-4 0-7-3-7-7zm349-37h-335v411h335zm-385 73h-23v411h335v-23h-305c-4 0-7-3-7-7z" fill="#4d4d4d" fill-rule="nonzero"/><path d="m162 295h261c9 0 9 14 0 14h-261c-9 0-9-14 0-14zm0 42h261c9 0 9 14 0 14h-261c-9 0-9-14 0-14zm0 42h261c9 0 9 14 0 14h-261c-9 0-9-14 0-14zm-37 46h335v-411h-335zm94-173h147c9 0 9 14 0 14h-147c-9 0-9-14 0-14zm74-206c76 0 115 93 61 148-55 54-148 15-148-62 0-47 39-86 87-86z" fill="#d9f2f2"/><path d="m233 173c33-32 86-32 119 0 33-48-1-113-59-113-59 0-93 65-60 113zm60-97c30 0 46 37 24 59-22 21-59 6-59-25 0-19 16-34 35-34z" fill="#f1f1f1"/><path d="m343 184c-28-28-73-28-101 0 28 28 73 28 101 0z" fill="#00ab94"/><path d="m272 110c0 19 22 28 35 15 8-8 8-21 0-29-13-13-35-4-35 14z" fill="#f3a766"/><g fill="#99a4ac"><path d="m111 432v-381h-22v410h334v-22h-305c-4 0-7-3-7-7z"/><path d="m75 468v-381h-23v411h335v-23h-305c-4 0-7-3-7-7z"/></g></g></svg>