<svg clip-rule="evenodd" fill-rule="evenodd" height="512" image-rendering="optimizeQuality" shape-rendering="geometricPrecision" text-rendering="geometricPrecision" viewBox="0 0 4335 4335" width="512" xmlns="http://www.w3.org/2000/svg"><g id="Layer_x0020_1"><g><path d="m437 2208v-320c0-74 115-74 115 0v320h736c0-121-6-323 1-434 5-91 34-178 80-252-56-19-112-19-171-19l-213 283c-23 30-70 30-92 0l-214-283h-57c-194 0-352 158-352 353v352zm1730 1326h-342v270c248 66 203 438-58 438s-305-372-57-438v-328c0-31 25-57 57-57h343v-723h-1116v1016c248 67 203 439-58 439s-305-372-57-439v-412l-449 259c58 142-50 307-207 307-123 0-223-101-223-224 0-187 218-287 360-176l519-299v-471h-760c-32 0-58-26-58-57v-373c0-57 52-58 93-58v-352c0-258 210-468 468-468h53l42-73c-211-144-156-345-168-428-33-113-42-346 151-477 173-116 381-72 492 10 197 149 167 366 120 472-13 64 47 265-156 415l47 81c84 0 165 6 243 41 127-125 252-149 427-149l54-93c-243-158-180-395-193-482-37-126-47-386 168-532 192-129 424-81 547 11 220 166 186 409 134 526-15 68 53 303-180 469l59 101c175 0 300 24 427 149 78-35 159-41 243-41l42-73c-211-144-155-345-167-428-34-113-42-346 151-477 172-116 381-72 491 10 197 149 168 366 121 472-13 63 47 265-157 415l47 81h53c258 0 467 210 467 468v352c42 0 94 1 94 58v373c0 31-26 57-58 57h-760v471l519 299c142-111 360-11 360 176 0 123-100 224-223 224-157 0-265-165-207-307l-449-259v412c248 67 204 439-57 439s-306-372-58-439v-1016h-1116v723h343c32 0 57 26 57 57v328c248 66 204 438-57 438s-306-372-58-438v-270zm401 377c-142 0-142 216 0 216 141 0 141-216 0-216zm-801 0c-141 0-141 216 0 216 142 0 142-216 0-216zm-831-91c-141 0-141 216 0 216 142 0 142-216 0-216zm-713-285c-141 0-141 215 0 215 142 0 142-215 0-215zm3176 285c-142 0-142 216 0 216 141 0 141-216 0-216zm713-285c-142 0-142 215 0 215 141 0 141-215 0-215zm-2709-1327h205v-369c0-75 115-75 115 0v369h889v-369c0-75 115-75 115 0v369h205c0-112 5-335-1-434-14-209-192-378-406-378h-68l-243 323c-23 30-70 30-93 0l-243-323c-158 0-268 16-376 141-64 74-99 169-99 265zm1644 0h735v-320c0-74 116-74 116 0v320h167v-352c0-195-158-353-352-353h-57l-214 283c-22 29-70 29-92 0l-213-283c-59 0-116 0-171 19 51 81 81 181 81 280zm-2871 373h3983v-257h-3664-319zm2291-1880c-30-417-614-255-617-3-2 185-8 321 184 417 185 93 433-53 433-283zm-307-493c-163 0-297 116-325 265 166-162 503-213 666-8-22-121-140-257-341-257zm-2 1049c-44 0-87-7-127-20l-56 97 192 254 193-254-59-102c-45 16-93 25-143 25zm1497-374c-26-354-524-225-533 1-6 155 2 281 159 358 170 84 374-58 374-243zm-266-430c-129 0-245 90-275 209 146-128 416-168 564-13-27-93-127-196-289-196zm-1 927c-38 0-74-5-109-16l-45 77 162 215 162-215-47-81c-38 13-80 20-123 20zm-1983 382v8zm-208-881c-27-357-530-216-532-1-2 159-8 280 159 362 170 84 373-59 373-243zm-265-428c-129 0-247 91-276 210 146-129 416-169 565-14-28-93-127-196-289-196zm-1 927c-38 0-75-5-110-16l-44 77 162 215 161-215-46-81c-39 13-80 20-123 20z" fill="#333"/></g><g fill="#ffa721"><path d="m223 3535c-141 0-141 215 0 215 142 0 142-215 0-215z"/><path d="m936 3820c-141 0-141 216 0 216 142 0 142-216 0-216z"/><path d="m1767 3911c-141 0-141 216 0 216 142 0 142-216 0-216z"/><path d="m2568 3911c-142 0-142 216 0 216 141 0 141-216 0-216z"/><path d="m3399 3820c-142 0-142 216 0 216 141 0 141-216 0-216z"/><path d="m4112 3535c-142 0-142 215 0 215 141 0 141-215 0-215z"/></g><path d="m176 2581h3983v-257h-3664-319z" fill="#c06000"/><path d="m1835 473c166-162 503-213 666-8-22-121-140-257-341-257-163 0-297 116-325 265z" fill="#58535a"/><path d="m2467 701c-30-417-614-255-617-3-2 185-8 321 184 417 185 93 433-53 433-283z" fill="#ff9e5c"/><path d="m3389 453c-129 0-245 90-275 209 146-128 416-168 564-13-27-93-127-196-289-196z" fill="#58535a"/><path d="m3655 883c-26-354-524-225-533 1-6 155 2 281 159 358 170 84 374-58 374-243z" fill="#ff9e5c"/><path d="m1221 649c-28-93-127-196-289-196-129 0-247 91-276 210 146-129 416-169 565-14z" fill="#58535a"/><path d="m1197 881c-27-357-530-216-532-1-2 159-8 280 159 362 170 84 373-59 373-243z" fill="#ff9e5c"/><path d="m1054 1360c-39 13-80 20-123 20-38 0-75-5-110-16l-44 77 162 215 161-215z" fill="#ff9e5c"/><path d="m893 1786-214-283h-57c-194 0-352 158-352 353v352h167v-320c0-74 115-74 115 0v320h736c0-121-6-323 1-434 5-91 34-178 80-252-56-19-112-19-171-19l-213 283c-23 30-70 30-92 0z" fill="#7dd63e"/><path d="m1975 1334 192 254 193-254-59-102c-45 16-93 25-143 25-44 0-87-7-127-20z" fill="#ff9e5c"/><path d="m2121 1719-243-323c-158 0-268 16-376 141-55 64-89 143-97 225v8c-1 11-2 21-2 32v406h205v-369c0-75 115-75 115 0v369h889v-369c0-75 115-75 115 0v369h205c0-112 5-335-1-434-14-209-192-378-406-378h-68l-243 323c-23 30-70 30-93 0z" fill="#ffa721"/><path d="m3234 1441 162 215 162-215-47-81c-38 13-80 20-123 20-38 0-74-5-109-16z" fill="#ff9e5c"/><path d="m3350 1786-213-283c-59 0-116 0-171 19 51 81 81 181 81 280v406h735v-320c0-74 116-74 116 0v320h167v-352c0-195-158-353-352-353h-57l-214 283c-22 29-70 29-92 0z" fill="#7dd63e"/></g></svg>