<svg id="Capa_1" enable-background="new 0 0 512 512" viewBox="0 0 512 512" xmlns="http://www.w3.org/2000/svg"><g><g><ellipse cx="402.222" cy="402.222" fill="#eeecff" rx="102.278" ry="102.278" transform="matrix(.707 -.707 .707 .707 -166.606 402.222)"/><path d="m490.321 454.195c-108.5 24.438-141.604-89.133-115.606-150.504-43.126 12.014-74.771 51.575-74.771 98.531 0 56.486 45.791 102.278 102.278 102.278 37.51 0 70.298-20.197 88.099-50.305z" fill="#d3d3ff"/><ellipse cx="109.778" cy="109.778" fill="#59d5ff" rx="102.278" ry="102.278" transform="matrix(.707 -.707 .707 .707 -45.472 109.778)"/><path d="m197.876 161.751c-112.626 33.88-158.078-89.985-115.606-150.504-43.125 12.014-74.77 51.575-74.77 98.531 0 56.486 45.791 102.278 102.278 102.278 37.51-.001 70.297-20.197 88.098-50.305z" fill="#00c4fc"/><ellipse cx="402.222" cy="109.778" fill="#38d39a" rx="102.278" ry="102.278" transform="matrix(.707 -.707 .707 .707 40.184 316.567)"/><ellipse cx="402.222" cy="109.778" fill="#38d39a" rx="102.278" ry="102.278" transform="matrix(.707 -.707 .707 .707 40.184 316.567)"/><path d="m490.32 161.751c-112.626 33.88-158.078-89.985-115.605-150.504-43.126 12.014-74.771 51.575-74.771 98.531 0 56.486 45.791 102.278 102.278 102.278 37.51-.001 70.298-20.197 88.098-50.305z" fill="#00c072"/><ellipse cx="109.778" cy="402.222" fill="#ff6e80" rx="102.278" ry="102.278" transform="matrix(.707 -.707 .707 .707 -252.261 195.433)"/><path d="m197.876 454.195c-112.626 33.88-158.078-89.984-115.606-150.504-43.125 12.014-74.77 51.575-74.77 98.531 0 56.487 45.791 102.278 102.278 102.278 37.51 0 70.297-20.197 88.098-50.305z" fill="#f8475e"/><g fill="#fdc072"><path d="m186.501 120.458c6.02 6.316 13.377 13.055 21.148 19.432 8.115 6.659 16.682 12.922 24.649 17.895 8.162 5.094 18.739-.724 18.739-10.346v-8.316h62.128c9.231 0 16.714-7.483 16.714-16.714v-25.801c0-9.231-7.483-16.714-16.714-16.714h-62.128v-8.316c0-9.621-10.577-15.44-18.739-10.346-7.967 4.973-16.534 11.236-24.649 17.895-7.771 6.377-15.128 13.116-21.148 19.432-5.841 6.128-5.841 15.771 0 21.899z"/><path d="m120.458 325.499c6.316-6.02 13.055-13.377 19.432-21.148 6.659-8.115 12.922-16.682 17.894-24.649 5.094-8.162-.724-18.739-10.345-18.739h-8.316v-62.128c0-9.231-7.483-16.714-16.714-16.714h-25.801c-9.231 0-16.714 7.483-16.714 16.714v62.128h-8.316c-9.621 0-15.44 10.577-10.346 18.739 4.972 7.967 11.236 16.534 17.894 24.649 6.377 7.771 13.116 15.128 19.432 21.148 6.129 5.841 15.772 5.841 21.9 0z"/><path d="m325.499 391.542c-6.02-6.316-13.377-13.055-21.148-19.432-8.115-6.659-16.682-12.922-24.649-17.895-8.162-5.094-18.739.724-18.739 10.346v8.316h-62.128c-9.231 0-16.714 7.483-16.714 16.714v25.802c0 9.231 7.483 16.714 16.714 16.714h62.128v8.316c0 9.621 10.577 15.44 18.739 10.346 7.967-4.973 16.534-11.236 24.649-17.895 7.771-6.377 15.128-13.116 21.148-19.432 5.841-6.129 5.841-15.772 0-21.9z"/></g><path d="m504.5 348.743c0 7.426-4.843 13.968-11.929 16.188-7.639 2.393-15.328 2.661-23.033 1.678-9.125-1.163-18.272-4.079-27.383-7.295-14.664-5.176-29.237-11.128-43.479-11.8-11.464-.541-22.713 2.34-33.623 11.8v-81.226c10.91-9.461 22.159-12.341 33.623-11.8 14.242.672 28.815 6.625 43.479 11.8 9.112 3.216 18.259 6.132 27.383 7.295 7.74.987 15.464.712 23.137-1.711 5.861-1.851 11.825 2.567 11.825 8.714z" fill="#59d5ff"/><path d="m398.675 347.514c13.71.647 27.726 6.187 41.835 11.217-18.405-16.914-22.862-45.795-7.889-84.061-11.441-4.093-22.795-7.856-33.945-8.382-11.464-.541-22.713 2.34-33.623 11.8v81.226c10.909-9.461 22.158-12.341 33.622-11.8z" fill="#00c4fc"/><path d="m391.048 431.663 9.944-1.753c7.496-1.322 12.501-8.47 11.179-15.966l-24.2-137.246c-1.322-7.496-8.47-12.501-15.966-11.179l-9.944 1.753c-7.496 1.322-12.501 8.47-11.179 15.966l24.2 137.246c1.323 7.495 8.471 12.501 15.966 11.179z" fill="#4677d4"/></g><g fill="#ff9a5c"><path d="m264.444 79.894h-13.407v-8.316c0-9.621-10.577-15.44-18.739-10.346-7.967 4.972-16.534 11.236-24.649 17.895-7.771 6.377-15.128 13.116-21.148 19.432-5.841 6.129-5.841 15.771 0 21.9 6.02 6.316 13.377 13.055 21.148 19.432 8.115 6.659 16.682 12.922 24.649 17.895 8.162 5.094 18.739-.724 18.739-10.346v-8.315h26.836c-12.352-13.956-15.099-42.901-13.429-59.231z"/><path d="m236.114 372.876h-37.279c-9.231 0-16.714 7.483-16.714 16.714v25.802c0 9.231 7.483 16.714 16.714 16.714h48.45c-11.271-15.487-13.284-44.344-11.171-59.23z"/><path d="m146.873 295.472c-40.815-5.255-53.388-76.603-38.019-113.351h-12.246c-9.231 0-16.714 7.483-16.714 16.714v62.128h-8.316c-9.621 0-15.44 10.577-10.346 18.739 4.972 7.967 11.236 16.534 17.894 24.649 6.377 7.771 13.116 15.128 19.432 21.148 6.129 5.841 15.771 5.841 21.899 0 6.316-6.02 13.055-13.377 19.432-21.148 2.395-2.918 4.734-5.894 6.984-8.879z"/></g><path d="m87.844 89.535c4.058.799 8.006-1.85 8.804-5.914 1.031-5.253 5.676-9.065 11.044-9.065 6.066 0 11.027 4.824 11.248 10.838l-.242 1.897c-.933 3.728-3.135 8.088-6.55 12.967-11.621 16.604-18.555 25.684-22.281 30.562-4.55 5.957-6.434 8.424-5.14 12.632.754 2.452 2.614 4.335 5.103 5.165 3.271 1.093 29.856.625 39.818.5 4.142-.052 7.457-3.451 7.405-7.594-.052-4.109-3.399-7.405-7.497-7.405-.032 0-.064 0-.096.001-8.043.101-16.603.164-23.395.168 4.121-5.483 10.074-13.572 18.372-25.428 4.625-6.608 7.637-12.839 8.955-18.519 3.368-14.507-8.505-30.785-25.699-30.785-12.519 0-23.354 8.905-25.763 21.175-.799 4.065 1.849 8.007 5.914 8.805zm402.572 186.985c-6.017 1.9-12.537 2.366-19.931 1.424-10.517-1.341-21.708-5.427-31.745-9.043-12.917-4.656-26.273-9.47-39.712-10.103-5.326-.25-10.301.173-15.111 1.268-3.948-1.982-8.541-2.759-13.215-1.933l-9.943 1.754c-11.585 2.041-19.306 13.07-17.264 24.654l3.971 22.518c-20.827 12.023-37.267 30.73-46.534 52.801-5.909-4.494-11.765-8.577-17.26-12.007-13.166-8.218-30.21 1.187-30.21 16.707v.817h-40.265c-10.395-29.253-32.557-52.567-61.051-64.453 4.49-5.904 8.571-11.757 12-17.251 8.224-13.175-1.194-30.21-16.708-30.21h-.816v-40.263c29.253-10.397 52.553-32.568 64.437-61.064 5.91 4.496 11.768 8.58 17.266 12.011 12.722 7.942 30.21-.323 30.21-17.523h40.277c15.123 42.293 55.387 72.933 103.408 72.933 60.534-.001 109.78-49.247 109.78-109.78 0-24.847-8.534-49.192-24.031-68.552-2.588-3.234-7.308-3.756-10.542-1.169-3.233 2.589-3.757 7.309-1.168 10.542 13.569 16.953 20.741 37.417 20.741 59.179 0 52.261-42.517 94.778-94.778 94.778-39.723 0-73.029-24.193-87.344-58 12.555-.882 22.501-11.371 22.501-24.146v-25.802c0-12.694-9.82-23.13-22.262-24.128 14.58-33.872 47.919-57.479 87.105-57.479 17.279 0 34.186 4.691 48.893 13.567 3.547 2.143 8.157 1 10.297-2.546s1.001-8.156-2.546-10.296c-17.046-10.287-36.633-15.725-56.644-15.725-47.757 0-87.924 30.325-103.217 72.394h-40.468c0-17.286-17.568-25.412-30.21-17.524-5.557 3.468-11.478 7.601-17.448 12.15-16.847-39.606-55.72-67.02-101.101-67.02-60.532 0-109.778 49.246-109.778 109.777 0 47.765 30.331 87.927 72.394 103.218v40.468c-17.25 0-25.436 17.532-17.523 30.211 3.468 5.555 7.601 11.477 12.15 17.447-17.792 7.568-33.598 19.883-45.227 35.442-14.258 19.077-21.794 41.781-21.794 65.66 0 28.254 10.71 55.094 30.157 75.576 2.852 3.004 7.6 3.127 10.603.274 3.004-2.852 3.127-7.599.275-10.603-16.789-17.682-26.035-40.854-26.035-65.247 0-20.617 6.504-40.217 18.808-56.68 10.913-14.601 26.073-25.896 43.064-32.211 5.545 6.498 11.188 12.521 16.512 17.596 9.043 8.616 23.207 8.616 32.248-.001 5.365-5.114 11.056-11.193 16.647-17.753 24.884 9.061 44.683 28.005 54.865 52.268-12.566.871-22.525 11.365-22.525 24.148v25.802c0 12.7 9.83 23.14 22.28 24.13-6.51 15.119-16.993 28.553-30.222 38.502-16.507 12.415-36.182 18.976-56.899 18.976-14.469 0-28.354-3.173-41.271-9.432-3.729-1.805-8.214-.248-10.019 3.48-1.806 3.728-.248 8.214 3.479 10.02 14.972 7.254 31.058 10.932 47.811 10.932 23.995 0 46.789-7.603 65.916-21.988 16.991-12.777 30.075-30.526 37.301-50.405h40.468v.815c0 15.435 16.967 24.973 30.21 16.708 5.559-3.47 11.484-7.605 17.457-12.156 16.806 39.536 55.621 67.026 101.092 67.026 60.532 0 109.778-49.246 109.778-109.777 0-12.73-2.15-25.149-6.397-36.996 4.02-4.392 6.397-10.199 6.397-16.484v-56.357c0-11.078-10.758-19.279-21.584-15.866zm-254.147-208.925c3.236-2.018 7.269.312 7.269 3.983v8.315c0 4.143 3.358 7.5 7.5 7.5h62.128c5.081 0 9.214 4.134 9.214 9.214v25.802c0 5.08-4.133 9.214-9.214 9.214h-62.128c-4.142 0-7.5 3.357-7.5 7.5v8.316c0 3.736-4.099 5.96-7.269 3.982-15.122-9.438-32.519-23.736-44.338-36.138 0-.001-.001-.001-.001-.001-3.086-3.238-3.086-8.312 0-11.55 11.788-12.365 29.155-26.659 44.339-36.137zm-221.269 42.182c0-52.26 42.517-94.777 94.778-94.777 40.519 0 75.344 25.424 88.89 61.872-6.503 5.55-12.525 11.192-17.595 16.511-8.618 9.043-8.618 23.208 0 32.249 5.111 5.363 11.19 11.055 17.753 16.647-9.061 24.883-28.006 44.679-52.268 54.861-.873-12.564-11.367-22.52-24.148-22.52h-25.803c-12.701 0-23.141 9.831-24.13 22.283-33.913-14.604-57.477-48.016-57.477-87.126zm119.092 189.816c-6.279 7.652-12.784 14.733-18.809 20.478-3.238 3.086-8.312 3.086-11.55 0-6.028-5.746-12.532-12.827-18.809-20.478-6.66-8.116-12.652-16.368-17.33-23.861-1.978-3.169.248-7.269 3.983-7.269h8.315c4.142 0 7.5-3.357 7.5-7.5v-62.128c0-5.081 4.133-9.215 9.214-9.215h25.802c5.08 0 9.214 4.134 9.214 9.215v62.128c0 4.143 3.358 7.5 7.5 7.5h8.316c3.73 0 5.964 4.095 3.983 7.268-4.676 7.494-10.669 15.746-17.329 23.862zm229.273-24.935 9.943-1.754c3.427-.601 6.679 1.698 7.278 5.097l24.2 137.245c.603 3.419-1.675 6.673-5.096 7.277l-9.944 1.754c-3.414.6-6.675-1.687-7.276-5.097l-24.2-137.245c-.604-3.418 1.674-6.672 5.095-7.277zm-63.772 152.417c-8.114 6.658-16.366 12.651-23.862 17.33-3.188 1.987-7.268-.268-7.268-3.983v-8.315c0-4.143-3.358-7.5-7.5-7.5h-62.128c-5.081 0-9.214-4.134-9.214-9.214v-25.802c0-5.08 4.134-9.214 9.214-9.214h62.128c4.142 0 7.5-3.358 7.5-7.5v-8.317c0-3.736 4.099-5.96 7.268-3.981 7.492 4.674 15.743 10.667 23.862 17.329 7.656 6.282 14.736 12.785 20.476 18.808 0 .001.001.001.001.001 3.086 3.238 3.086 8.311 0 11.55-5.74 6.021-12.821 12.525-20.477 18.808zm102.629 69.925c-40.524 0-75.346-25.428-88.89-61.872 6.503-5.55 12.526-11.192 17.596-16.512 8.618-9.043 8.618-23.208 0-32.249-5.111-5.363-11.19-11.055-17.753-16.647 6.987-19.096 20.115-35.576 37.098-46.753l17.425 98.819c2.038 11.555 13.1 19.302 24.654 17.263l9.944-1.754c11.584-2.041 19.306-13.069 17.264-24.653l-9.872-55.989c7.737 1.742 15.728 4.617 24.044 7.613 11.273 4.061 22.95 8.266 34.859 9.783 8.099 1.033 15.945.793 23.749-1.256 3.094 9.463 4.662 19.331 4.662 29.429-.002 52.261-42.519 94.778-94.78 94.778zm94.778-148.257c0 4.151-2.681 7.78-6.671 9.03-5.994 1.878-12.485 2.336-19.843 1.396-10.482-1.337-21.624-5.396-31.672-9.017-10.409-3.75-21.118-7.599-31.913-9.292l-11.906-67.107c12.514-.32 26.194 4.763 38.66 9.257 11.279 4.066 23.022 8.293 34.935 9.811 9.594 1.223 18.211.568 26.344-1.998 1.022-.319 2.067.464 2.067 1.562v56.358zm-92.972-193.057c4.142 0 7.5-3.357 7.5-7.5v-76.816c0-4.143-3.358-7.5-7.5-7.5h-16.418c-4.142 0-7.5 3.357-7.5 7.5s3.358 7.5 7.5 7.5h8.918v69.315c0 4.143 3.358 7.501 7.5 7.501zm-294.667 285.658c-6.784 0-12.632-5.502-12.632-12.632 0-4.143-3.358-7.5-7.5-7.5s-7.5 3.357-7.5 7.5c0 15.412 12.64 27.632 27.632 27.632 15.237 0 27.633-12.396 27.633-27.632 0-7.929-3.357-15.089-8.724-20.133 5.367-5.044 8.724-12.204 8.724-20.133 0-15.236-12.396-27.633-27.633-27.633-13.174 0-24.578 9.372-27.114 22.285-.798 4.064 1.849 8.006 5.914 8.805 4.065.797 8.007-1.849 8.805-5.914 1.158-5.896 6.372-10.176 12.396-10.176 6.966 0 12.633 5.667 12.633 12.633s-5.667 12.633-12.633 12.633c-4.142 0-7.5 3.357-7.5 7.5s3.358 7.5 7.5 7.5c6.966 0 12.633 5.667 12.633 12.633-.001 6.965-5.668 12.632-12.634 12.632z"/></g><g/><g/><g/><g/><g/><g/><g/><g/><g/><g/><g/><g/><g/><g/><g/></svg>