<svg clip-rule="evenodd" fill-rule="evenodd" height="256" image-rendering="optimizeQuality" shape-rendering="geometricPrecision" text-rendering="geometricPrecision" viewBox="0 0 120602 120602" width="256" xmlns="http://www.w3.org/2000/svg"><g id="Layer_x0020_1"><path d="m17633 110145h6048c6917 0 6917-10458 0-10458h-16383c-6917 0-6917-10457 0-10457h16050c6917 0 6918-10457 0-10457h-5764c-6917 0-6917-10457 0-10457h28711 10214 15569c6917 0 6917 10457 0 10457h-2882c-6917 0-6917 10457 0 10457h7858c6918 0 6918 10457 0 10457h-8191c-6917 0-6917 10458 0 10458h2518c6917 0 6917 10457 0 10457h-14872-10214-28662c-6917 0-6917-10457 0-10457z" fill="#ebebeb"/><path d="m48922 68315h53850c6918 0 6917 10458 0 10458h-5369c-7309 0-7954 10457 800 10457h15101c6917 0 6917 10458 0 10458h-21754c-6917 0-6917 10457 0 10457h5264c6917 0 6917 10457 0 10457h-47892-2885c-6917 0-6917-10457 0-10457h2885c6962 0 7253-10458 0-10458h-12316c-6917 0-6917-10457 0-10457h8925c7660 236 8566-10457 0-10457h-5452c-6918 0-6918-10457 0-10457h8843zm60594 41830h-31c-2876 0-5229 2352-5229 5228v1c0 2876 2353 5228 5229 5228h31c2875 0 5228-2352 5228-5228v-1c0-2876-2353-5228-5228-5228z" fill="#d6d6d6"/><g id="_362895744"><circle cx="100415" cy="70732" fill="#fff" r="12122"/><path d="m96834 73708h867v-1717c-543-541-1072-1041-1221-1843-162-871-298-2668-316-4860-44-5255 8545-5255 8501 0-18 2192-154 3989-316 4860-149 802-678 1302-1221 1843v1717h867c2617 0 4758 2141 4758 4758v1065c-2173 2060-5108 3323-8338 3323-3231 0-6166-1263-8339-3323v-1065c0-2617 2141-4758 4758-4758z" fill="#ffb861"/><path d="m96834 73708c2422 3373 4730 3480 7161 0 2617 0 4758 2141 4758 4758v1065c-2173 2060-5108 3323-8338 3323-3231 0-6166-1263-8339-3323v-1065c0-2617 2141-4758 4758-4758z" fill="#00dcab"/><g fill="none" stroke="#105286" stroke-width="1884.4"><path d="m92076 79531v-1065c0-2617 2141-4758 4758-4758h867v-1717c-543-541-1072-1041-1221-1843-162-871-298-2668-316-4860-44-5255 8545-5255 8501 0-18 2192-154 3989-316 4860-149 802-678 1302-1221 1843v1717h867c2617 0 4758 2141 4758 4758v1065"/><circle cx="100415" cy="70732" r="12122"/></g></g><circle cx="24593" cy="41869" fill="#fff" r="13787"/><path d="m20521 45254h986v-1953c-618-616-1219-1184-1389-2096-184-991-339-3035-359-5528-50-5977 9719-5977 9669 0-20 2493-175 4537-359 5528-170 912-771 1480-1389 2096v1953h986c2976 0 5411 2435 5411 5411v1212c-2471 2342-5810 3779-9484 3779s-7012-1437-9483-3779v-1212c0-2976 2435-5411 5411-5411z" fill="#ffb861"/><path d="m20521 45254c2754 3836 5380 3958 8145 0 2976 0 5411 2435 5411 5411v1212c-2471 2342-5810 3779-9484 3779s-7012-1437-9483-3779v-1212c0-2976 2435-5411 5411-5411z" fill="#e6e6e6"/><path d="m15110 51877v-1212c0-2976 2435-5411 5411-5411h986v-1953c-618-616-1219-1184-1389-2096-184-991-339-3035-359-5528-50-5977 9719-5977 9669 0-20 2493-175 4537-359 5528-170 912-771 1480-1389 2096v1953h986c2976 0 5411 2435 5411 5411v1212" fill="none" stroke="#105286" stroke-width="1884.4"/><circle cx="24593" cy="41869" fill="none" r="13787" stroke="#105286" stroke-width="1884.4"/><path d="m4159 112696 1120 1120m3053-1120-1120 1120m-1933 1933-1120 1120m3053-1120 1120 1120" fill="none" stroke="#105286" stroke-width="1884.4"/><circle cx="53823" cy="87872" fill="#fff" r="25386"/><g id="_362888592"><path d="m46286 94901h1824v-3613c-1143-1140-2256-2192-2570-3881-341-1834-627-5616-665-10230-91-11063 17988-11063 17897 0-38 4614-325 8396-665 10230-314 1689-1428 2741-2571 3881v3613h1824c5509 0 10016 4507 10016 10016v1294c-4559 4364-10743 7046-17553 7046s-12993-2682-17552-7047v-1293c0-5509 4507-10016 10015-10016z" fill="#ffb861"/><path d="m46286 94901c5097 7101 9957 7325 15074 0 5509 0 10016 4507 10016 10015v1295c-4559 4364-10743 7046-17553 7046s-12993-2682-17552-7047v-1294c0-5508 4507-10015 10015-10015z" fill="#53b4ed"/><path d="m44919 79606 97 123s3948-3126 4096-6282c0 0 6017 8367 13610 4053 16-9 31-18 47-28l3-295c91-11063-17988-11063-17897 0 7 839 22 1651 44 2429z" fill="#4d4d4d"/><path d="m36271 106210v-1293c0-5509 4507-10016 10015-10016h1824v-3613c-1143-1140-2256-2192-2570-3881-341-1834-627-5616-665-10230-91-11063 17988-11063 17897 0-38 4614-325 8396-665 10230-314 1689-1428 2741-2571 3881v3613h1824c5509 0 10016 4507 10016 10016v1294" fill="none" stroke="#105286" stroke-width="1884.4"/><path d="m48110 91288s5179 7228 11426 0" fill="none" stroke="#105286" stroke-width="1884.4"/><path d="m50711 113067 1571-12863h3110l1571 12860c-1029 127-2076 193-3140 193-1054 0-2092-65-3112-190z" fill="#fff"/><path d="m55408 113207-1277-11510h-588l-1277 11511c515 32 1034 49 1557 49 533 0 1060-18 1585-50z" fill="#ff576b"/><path d="m55392 100204 1571 12860m-6252 3 1571-12863" fill="none" stroke="#105286" stroke-width="1884.4"/><path d="m48110 94901 5727 5410-5808 1947-1743-7357z" fill="#fff"/><path d="m48110 94901 5727 5410-5808 1947-1743-7357z" fill="none" stroke="#105286" stroke-width="1884.4"/><path d="m59564 94901-5727 5410 5809 1947 1742-7357z" fill="#fff"/><path d="m59564 94901-5727 5410 5809 1947 1742-7357z" fill="none" stroke="#105286" stroke-width="1884.4"/></g><path d="m73636 71999c3487 4347 5573 9866 5573 15873 0 14020-11365 25385-25386 25385-14020 0-25385-11365-25385-25385 0-14021 11365-25386 25385-25386 3051 0 5976 538 8686 1525" fill="none" stroke="#105286" stroke-width="1884.4"/><path d="m84095 48708h2096c1152 0 2095-943 2095-2096v-5204-8392-14118h-22510v5411c-2545 1703-5947 4310-6668 6487v1c-124 206-224 429-297 668l-4908 16069c-18 56 14 115 70 132l2795 854c1593 487 3295-418 3782-2012l2322-7602s1437-628 2904-1162v29592c0 1625 1330 2955 2955 2955 1625 0 2954-1330 2954-2955v-5932h3408c1874 0 3407-1534 3407-3408v-2033h2798c1538 0 2797-1259 2797-2797z" fill="#fff"/><path d="m55356 46840 4590-15025c43-141 103-276 178-402l77-128 38-127c668-1974 4451-4688 6192-5853l532-356v-4853h20114v26516c0 492-406 898-897 898h-641v-4696h-2653v4696 5287c0 877-428 1837-1645 1837h-1456v-11457h-2547v14760c-89 1311-1108 2019-2156 2019h-2047v-16090h-2559v17609 5861c0 964-792 1756-1756 1756s-1757-792-1757-1756v-31304l-1608 586c-687 250-1368 518-2044 796-338 139-1044 392-1297 645l-212 211-2409 7888c-293 961-1325 1510-2286 1216z" fill="#ffb861"/><path d="m84095 48708h2096c1152 0 2095-943 2095-2096v-5204-8392-14118h-22510v5411c-2545 1703-5947 4310-6668 6487v1c-124 206-224 429-297 668l-4908 16069c-18 56 14 115 70 132l2795 854c1593 487 3295-418 3782-2012l2322-7602s1437-628 2904-1162v29592c0 1625 1330 2955 2955 2955 1625 0 2954-1330 2954-2955v-5932h3408c1874 0 3407-1534 3407-3408v-2033h2798c1538 0 2797-1259 2797-2797z" fill="none" stroke="#105286" stroke-width="1884.4"/><path d="m71685 61404v-17538" fill="none" stroke="#105286" stroke-width="1884.4"/><path d="m78500 55963v-12786" fill="none" stroke="#105286" stroke-width="1884.4"/><path d="m84095 48708v-5894" fill="none" stroke="#105286" stroke-width="1884.4"/><path d="m91398 7660v11238h-29066v-11238z" fill="#fff"/><path d="m91398 7660v11238h-29066v-11238" fill="none" stroke="#105286" stroke-width="1884.4"/><path d="m64741 7585v8827h24248v-8827z" fill="#ffd027"/><g fill="none" stroke="#105286" stroke-width="1884.4"><path d="m4159 3630 1120 1121m3053-1121-1120 1121m-1933 1933-1120 1120m3053-1120 1120 1120"/><path d="m12220 70870 1120 1120m3054-1120-1120 1120m-1933 1933-1121 1121m3054-1121 1120 1121"/><path d="m42596 3630 1121 1121m3053-1121-1120 1121m-1933 1933-1121 1120m3054-1120 1120 1120"/><path d="m112555 3630 1120 1121m3054-1121-1121 1121m-1932 1933-1121 1120m3053-1120 1121 1120"/><path d="m112555 53289 1120 1120m3054-1120-1121 1121m-1932 1932-1121 1121m3053-1121 1121 1121"/><path d="m112555 103767 1120 1120m3054-1120-1121 1121m-1932 1933-1121 1120m3053-1120 1121 1120"/><path d="m82028 106712 1120 1121m3053-1121-1120 1121m-1933 1933-1120 1120m3053-1120 1120 1120"/><circle cx="104672" cy="25013" r="2349"/><circle cx="98562" cy="96244" r="2349"/><circle cx="11784" cy="94123" r="2349"/><circle cx="9468" cy="21338" r="2349"/><circle cx="6077" cy="56812" r="2349"/><path d="m42596 29738 1121 1120m3053-1120-1120 1120m-1933 1933-1121 1120m3054-1120 1120 1120"/><path d="m50354 50641-6809 7972-3270-2792"/><path d="m96254 40779 8321 8322"/><path d="m104575 40779-8321 8322"/><path d="m24387 13644 8321 8321"/><path d="m32708 13644-8321 8321"/></g></g><g id="Layer_x0020_2"><path d="m0 0h120602v120602h-120602z" fill="none"/></g></svg>