<?xml version="1.0" encoding="UTF-8"?>
<svg xmlns="http://www.w3.org/2000/svg" xmlns:xlink="http://www.w3.org/1999/xlink" version="1.1" width="512" height="512" x="0" y="0" viewBox="0 0 511.994 511.994" style="enable-background:new 0 0 512 512" xml:space="preserve" class="">
  <g>
    <path d="M472.937 173.6 92.706 116.263l14.317-94.941c1.338-8.876 9.619-14.986 18.495-13.648l348.087 52.491c8.876 1.338 14.986 9.619 13.648 18.495l-14.316 94.94z" style="" fill="#19b014" data-original="#efe1e6" opacity="1"/>
    <path d="M452.782 203.495H43.576V100.277c0-8.976 7.277-16.253 16.253-16.253h376.7c8.976 0 16.253 7.277 16.253 16.253v103.218z" style="" fill="#ede8e8" data-original="#ede8e8" class=""/>
    <path d="M287.85 172.199H54.934c-16.772 0-30.368 13.596-30.368 30.368v271.56c0 16.772 13.596 30.368 30.368 30.368h400.552c16.772 0 30.368-13.596 30.368-30.368V145.759c0-14.602-11.838-26.44-26.44-26.44H340.73c-14.602 0-26.44 11.838-26.44 26.44 0 14.603-11.838 26.44-26.44 26.44z" style="" fill="#1ab815" data-original="#ffd600" class="" opacity="1"/>
    <path d="M459.414 119.319h-3.695v324.672c0 16.771-13.596 30.367-30.368 30.367H24.799c-.076 0-.151-.005-.226-.006.122 16.667 13.666 30.141 30.362 30.141h400.552c16.771 0 30.368-13.596 30.368-30.367V145.759c-.001-14.602-11.839-26.44-26.441-26.44z" style="" fill="#1ab815" data-original="#ffc800" class="" opacity="1"/>
    <path d="M230.172 399.685 83.524 386.501c-7.646-.687-13.287-7.443-12.6-15.089l13.184-146.648c.687-7.646 7.443-13.287 15.089-12.6l146.648 13.184c7.646.687 13.287 7.443 12.6 15.089l-13.184 146.648c-.687 7.646-7.443 13.287-15.089 12.6z" style="" fill="#fff0f2" data-original="#fff0f2" class=""/>
    <path d="M202.562 361.624c4.717.424 8.495-3.772 7.658-8.434-3.594-20.014-20.173-35.976-41.404-37.885-21.231-1.909-40.391 10.841-47.497 29.892-1.655 4.437 1.314 9.24 6.031 9.664l75.212 6.763z" style="" fill="#1ab815" data-original="#ffc800" class="" opacity="1"/>
    <circle cx="171.212" cy="288.641" r="26.772" style="" fill="#c48958" data-original="#c48958" class=""/>
    <path d="m97.568 84.023 9.444-62.629c1.345-8.916 9.662-15.054 18.579-13.71l347.942 52.469c8.916 1.345 15.054 9.662 13.71 18.579l-7.414 49.162" style="stroke-width:15;stroke-linecap:round;stroke-linejoin:round;stroke-miterlimit:10;" fill="none" stroke="#000000" stroke-width="15" stroke-linecap="round" stroke-linejoin="round" stroke-miterlimit="10" data-original="#000000" class=""/>
    <path d="M43.576 171.766V100.35c0-9.017 7.31-16.327 16.327-16.327h376.553c9.017 0 16.327 7.31 16.327 16.327v15.688" style="stroke-width:15;stroke-linecap:round;stroke-linejoin:round;stroke-miterlimit:10;" fill="none" stroke="#000000" stroke-width="15" stroke-linecap="round" stroke-linejoin="round" stroke-miterlimit="10" data-original="#000000" class=""/>
    <path d="M485.854 204.751v-58.992c0-14.602-11.838-26.44-26.44-26.44H340.73c-14.602 0-26.44 11.838-26.44 26.44v0c0 14.602-11.838 26.44-26.44 26.44H54.934c-16.772 0-30.368 13.596-30.368 30.368V388.29M24.567 423.447v50.679c0 16.772 13.596 30.368 30.368 30.368h400.552c16.772 0 30.368-13.596 30.368-30.368V240.913" style="stroke-width:15;stroke-linecap:round;stroke-linejoin:round;stroke-miterlimit:10;" fill="none" stroke="#000000" stroke-width="15" stroke-linecap="round" stroke-linejoin="round" stroke-miterlimit="10" data-original="#000000" class=""/>
    <path d="M202.549 361.623c4.717.424 8.494-3.772 7.658-8.433-3.593-20.013-20.162-35.976-41.392-37.884-21.23-1.909-40.381 10.843-47.485 29.894-1.655 4.437 1.314 9.24 6.031 9.664l75.188 6.759z" style="stroke-width:15;stroke-linecap:round;stroke-linejoin:round;stroke-miterlimit:10;" fill="none" stroke="#000000" stroke-width="15" stroke-linecap="round" stroke-linejoin="round" stroke-miterlimit="10" data-original="#000000" class=""/>
    <circle cx="171.212" cy="288.641" r="26.772" style="stroke-width:15;stroke-linecap:round;stroke-linejoin:round;stroke-miterlimit:10;" fill="none" stroke="#000000" stroke-width="15" stroke-linecap="round" stroke-linejoin="round" stroke-miterlimit="10" data-original="#000000" class=""/>
    <path d="M230.172 399.685 83.524 386.501c-7.646-.687-13.287-7.443-12.6-15.089l13.184-146.648c.687-7.646 7.443-13.287 15.089-12.6l146.648 13.184c7.646.687 13.287 7.443 12.6 15.089l-13.184 146.648c-.687 7.646-7.443 13.287-15.089 12.6z" style="stroke-width:15;stroke-linecap:round;stroke-linejoin:round;stroke-miterlimit:10;" fill="none" stroke="#000000" stroke-width="15" stroke-linecap="round" stroke-linejoin="round" stroke-miterlimit="10" data-original="#000000" class=""/>
    <path d="M129.889 243.814h-1.795c-10.712 0-19.397-8.684-19.397-19.397v-62.77c0-10.712 8.684-19.397 19.397-19.397h1.795c10.712 0 19.397 8.684 19.397 19.397v62.77c0 10.713-8.684 19.397-19.397 19.397zM328.114 342.963h101.907M328.114 380.929h101.907" style="stroke-width:15;stroke-linecap:round;stroke-linejoin:round;stroke-miterlimit:10;" fill="none" stroke="#000000" stroke-width="15" stroke-linecap="round" stroke-linejoin="round" stroke-miterlimit="10" data-original="#000000" class=""/>
  </g>
</svg>
