<?xml version="1.0" encoding="UTF-8"?>
<svg xmlns="http://www.w3.org/2000/svg" xmlns:xlink="http://www.w3.org/1999/xlink" version="1.1" width="512" height="512" x="0" y="0" viewBox="0 0 512 512" style="enable-background:new 0 0 512 512" xml:space="preserve" class="">
  <g>
    <g fill-rule="evenodd" clip-rule="evenodd">
      <g style="fill:#fff;stroke:#000;stroke-width:16;stroke-linecap:round;stroke-linejoin:round;stroke-miterlimit:2.613">
        <path d="M136.58 315.904h101.286c-2.735-25.553-24.364-45.455-50.643-45.455-26.28-.001-47.909 19.902-50.643 45.455z" fill="#000000" opacity="1" data-original="#000000"/>
        <circle cx="187.223" cy="244.695" r="25.754" fill="#000000" opacity="1" data-original="#000000"/>
        <path d="M274.132 315.904h101.286c-2.735-25.553-24.364-45.455-50.643-45.455-26.28-.001-47.909 19.902-50.643 45.455z" fill="#000000" opacity="1" data-original="#000000"/>
        <circle cx="324.775" cy="244.695" r="25.754" transform="translate(-3.16 4.252)" fill="#000000" opacity="1" data-original="#000000"/>
        <path d="M205.355 274.474h101.286c-2.735-25.553-24.364-45.455-50.643-45.455s-47.908 19.902-50.643 45.455z" fill="#000000" opacity="1" data-original="#000000"/>
        <circle cx="255.999" cy="203.265" r="25.754" fill="#000000" opacity="1" data-original="#000000"/>
      </g>
      <path fill="#048996" d="M300.121 89.539a189.135 189.135 0 0 1 55.376 22.957l35.984-15.982 42.411 42.41-15.977 35.973a189.1 189.1 0 0 1 22.961 55.391l36.712 14.13v59.977l-36.721 14.134a189.135 189.135 0 0 1-22.957 55.376l15.982 35.984-42.41 42.411-35.973-15.977a189.1 189.1 0 0 1-55.391 22.961l-14.131 36.712H226.01l-14.134-36.721a189.123 189.123 0 0 1-55.376-22.957L120.516 452.3l-42.411-42.411 15.978-35.973a189.114 189.114 0 0 1-22.962-55.391l-36.712-14.13V244.42l36.717-14.133a189.097 189.097 0 0 1 22.959-55.38l-15.98-35.98 42.41-42.411 35.984 15.982a189.135 189.135 0 0 1 55.376-22.957L226.01 52.82h59.976z" opacity="1" data-original="#ffe177" class=""/>
      <path fill="#ffd064" d="m156.5 436.32-35.984 15.982-5.541-5.541 33.737-14.984a191.214 191.214 0 0 0 7.788 4.543zM300.121 89.539a189.135 189.135 0 0 1 55.376 22.957l-10.228 4.543c-17.125-10.544-43.599-22.844-63.164-27.5l-14.134-36.721h18.016zm55.388 346.785a189.1 189.1 0 0 1-55.391 22.961l-14.131 36.712h-18.016l14.131-36.712c19.57-4.656 46.05-16.956 63.177-27.504zM114.974 102.055l5.541-5.541 35.984 15.982a189.35 189.35 0 0 0-7.787 4.543zm264.032 0 12.475-5.541 42.411 42.41-15.977 35.973a189.1 189.1 0 0 1 22.961 55.391l36.712 14.13v59.977l-36.721 14.134a189.135 189.135 0 0 1-22.957 55.376l15.982 35.984-42.41 42.411-12.475-5.541 36.87-36.871-15.982-35.984a189.135 189.135 0 0 0 22.957-55.376l36.721-14.134v-59.977l-36.712-14.13a189.064 189.064 0 0 0-22.962-55.391l15.977-35.973z" opacity="1" data-original="#ffd064"/>
      <circle cx="255.998" cy="274.408" r="145.79" fill="#eceff1" transform="rotate(-45 255.967 274.476)" opacity="1" data-original="#eceff1"/>
      <path fill="#d1d1d6" d="M255.997 128.618c-80.523 0-145.788 65.266-145.788 145.791 0 80.523 65.265 145.789 145.788 145.789 3.904 0 7.771-.158 11.596-.459-75.1-5.909-134.193-68.711-134.193-145.33 0-76.621 59.093-139.423 134.193-145.332a147.781 147.781 0 0 0-11.596-.459z" opacity="1" data-original="#d1d1d6" class=""/>
      <path fill="#8ac9fe" d="M209.361 275.109h93.276a3.99 3.99 0 0 0 3.924-4.804c-4.795-23.536-25.609-41.247-50.562-41.247-24.952 0-45.766 17.711-50.562 41.247a3.99 3.99 0 0 0 3.924 4.804z" opacity="1" data-original="#8ac9fe"/>
      <path fill="#60b7ff" d="M293.517 275.108h9.12a3.99 3.99 0 0 0 3.924-4.804c-4.796-23.536-25.61-41.247-50.562-41.247-1.537 0-3.057.068-4.56.2 22.895 2.005 41.502 18.961 46.002 41.048a3.99 3.99 0 0 1-3.924 4.803z" opacity="1" data-original="#60b7ff" class=""/>
      <circle cx="255.999" cy="202.967" r="26.09" fill="#f6dccd" transform="rotate(-68.16 256.102 203.038)" opacity="1" data-original="#f6dccd"/>
      <path fill="#f1cbbc" d="M255.999 176.877c14.409 0 26.09 11.681 26.09 26.09s-11.681 26.09-26.09 26.09c-1.234 0-2.447-.088-3.635-.253 12.688-1.769 22.456-12.661 22.456-25.837s-9.767-24.068-22.456-25.837a26.406 26.406 0 0 1 3.635-.253z" opacity="1" data-original="#f1cbbc"/>
      <path fill="#8ac9fe" d="M278.137 316.539h93.276a3.99 3.99 0 0 0 3.924-4.804c-4.795-23.536-25.609-41.247-50.562-41.247s-45.766 17.711-50.562 41.247a3.99 3.99 0 0 0 3.924 4.804z" opacity="1" data-original="#8ac9fe"/>
      <path fill="#60b7ff" d="M362.293 316.538h9.12a3.99 3.99 0 0 0 3.924-4.804c-4.796-23.536-25.61-41.247-50.562-41.247a52.49 52.49 0 0 0-4.56.199c22.895 2.005 41.502 18.961 46.002 41.048a3.99 3.99 0 0 1-3.924 4.804z" opacity="1" data-original="#60b7ff" class=""/>
      <path fill="#f6dccd" d="M324.775 218.307c14.409 0 26.09 11.681 26.09 26.09s-11.681 26.09-26.09 26.09-26.09-11.681-26.09-26.09 11.681-26.09 26.09-26.09z" opacity="1" data-original="#f6dccd"/>
      <path fill="#f1cbbc" d="M324.775 218.307c14.409 0 26.09 11.681 26.09 26.09s-11.681 26.09-26.09 26.09c-1.234 0-2.447-.088-3.635-.253 12.688-1.769 22.455-12.662 22.455-25.837s-9.767-24.068-22.455-25.837a26.25 26.25 0 0 1 3.635-.253z" opacity="1" data-original="#f1cbbc"/>
      <path fill="#8ac9fe" d="M140.585 316.539h93.276a3.99 3.99 0 0 0 3.924-4.804c-4.795-23.536-25.609-41.247-50.562-41.247s-45.766 17.711-50.562 41.247a3.99 3.99 0 0 0 3.924 4.804z" opacity="1" data-original="#8ac9fe"/>
      <path fill="#60b7ff" d="M224.741 316.538h9.12a3.99 3.99 0 0 0 3.924-4.804c-4.796-23.536-25.61-41.247-50.562-41.247a52.49 52.49 0 0 0-4.56.199c22.895 2.005 41.502 18.961 46.002 41.048a3.99 3.99 0 0 1-3.924 4.804z" opacity="1" data-original="#60b7ff" class=""/>
      <path fill="#f6dccd" d="M187.223 218.307c14.409 0 26.09 11.681 26.09 26.09s-11.681 26.09-26.09 26.09-26.09-11.681-26.09-26.09c-.001-14.409 11.681-26.09 26.09-26.09z" opacity="1" data-original="#f6dccd"/>
      <path fill="#f1cbbc" d="M187.223 218.307c14.409 0 26.09 11.681 26.09 26.09s-11.681 26.09-26.09 26.09c-1.234 0-2.447-.088-3.635-.253 12.688-1.769 22.455-12.662 22.455-25.837s-9.767-24.068-22.455-25.837a26.25 26.25 0 0 1 3.635-.253z" opacity="1" data-original="#f1cbbc"/>
      <path fill="#242222" d="M379.022 50.488a8 8 0 0 1 8-8.002h13.983a8 8 0 0 1 8 8.002 7.998 7.998 0 0 1-8 7.997h-13.983c-4.42 0-8-3.582-8-7.997zm34.487 34.487V70.991a8 8 0 1 1 16 0v13.984a8 8 0 1 1-16 0zm0-54.995V16.001a8 8 0 1 1 16 0V29.98c0 4.425-3.582 8.002-8 8.002s-8-3.577-8-8.002zm20.504 20.508a8 8 0 0 1 8-8.002h13.984a8 8 0 1 1 0 15.999h-13.984c-4.42 0-8-3.582-8-7.997zM82.489 84.975V70.991a8 8 0 1 1 16.002 0v13.984a8 8 0 0 1-8 8.002 8 8 0 0 1-8.002-8.002zM48.001 50.488a8.001 8.001 0 0 1 8-8.002h13.985a8 8 0 1 1 0 15.999H56.001a8 8 0 0 1-8-7.997zM82.489 29.98V16.001a8 8 0 1 1 16.002 0V29.98a7.997 7.997 0 0 1-8 8.002 7.997 7.997 0 0 1-8.002-8.002zm20.504 20.508a8.001 8.001 0 0 1 8-8.002h13.986a8 8 0 0 1 0 15.999h-13.986a8 8 0 0 1-8-7.997zm262.574 257.41h-81.583c3.865-11.781 12.637-21.186 23.821-25.982.073-.028.149-.047.221-.08a47.34 47.34 0 0 1 1.398-.56c.092-.037.18-.08.272-.118a43.032 43.032 0 0 1 15.08-2.711c18.91 0 35.124 12.172 40.791 29.451zm-219.135 0c5.666-17.279 21.882-29.451 40.792-29.451 5.295 0 10.381.956 15.081 2.711.092.038.18.08.272.118.473.179.937.367 1.399.565.074.028.151.052.224.08 11.181 4.792 19.951 14.196 23.814 25.977zm40.792-80.958c9.789 0 17.754 7.964 17.754 17.755s-7.965 17.754-17.754 17.754c-9.788 0-17.753-7.964-17.753-17.754s7.964-17.755 17.753-17.755zm68.764 10.077h.022c18.813.005 35.081 12.196 40.768 29.456H215.22c5.686-17.26 21.956-29.451 40.768-29.456zm-17.742-33.753c0-9.79 7.965-17.754 17.754-17.754s17.753 7.964 17.753 17.754-7.959 17.75-17.746 17.754H255.994c-9.787-.004-17.748-7.964-17.748-17.754zm86.529 23.676c9.791 0 17.754 7.964 17.754 17.755s-7.963 17.754-17.754 17.754c-9.789 0-17.754-7.964-17.754-17.754s7.965-17.755 17.754-17.755zm0-15.999c-14.847 0-27.477 9.64-31.981 22.988a59.073 59.073 0 0 0-12.24-7.54c5.696-6.048 9.2-14.182 9.2-23.125 0-18.611-15.142-33.753-33.755-33.753-18.61 0-33.753 15.142-33.753 33.753 0 8.943 3.502 17.076 9.198 23.125a59.085 59.085 0 0 0-12.238 7.536c-4.507-13.344-17.136-22.984-31.983-22.984-18.612 0-33.753 15.142-33.753 33.753 0 8.929 3.491 17.053 9.171 23.097-18.368 8.402-31.737 25.968-34.015 47.257a8 8 0 0 0 2.004 6.199 7.994 7.994 0 0 0 5.95 2.655h101.286a8.003 8.003 0 0 0 7.954-8.854c-1.341-12.511-6.518-23.737-14.282-32.576h48.92a58.691 58.691 0 0 0-14.282 32.576 8.005 8.005 0 0 0 7.956 8.854h101.286a8.005 8.005 0 0 0 7.956-8.854c-2.28-21.289-15.649-38.855-34.017-47.257 5.682-6.044 9.172-14.168 9.172-23.097 0-18.611-15.141-33.753-33.754-33.753zM256 412.198c75.977 0 137.79-61.811 137.79-137.789 0-75.979-61.813-137.789-137.79-137.789s-137.789 61.811-137.789 137.789S180.022 412.198 256 412.198zm0-291.582c-84.801 0-153.79 68.993-153.79 153.793 0 84.799 68.989 153.792 153.79 153.792 84.799 0 153.79-68.994 153.79-153.792 0-84.8-68.991-153.793-153.79-153.793zm213.591 178.283V249.91l-31.586-12.153a8.001 8.001 0 0 1-4.909-5.615 180.822 180.822 0 0 0-21.99-53.051 7.991 7.991 0 0 1-.5-7.442l13.747-30.952-34.643-34.643-30.964 13.754a8.005 8.005 0 0 1-7.441-.499 180.784 180.784 0 0 0-53.035-21.986 8.008 8.008 0 0 1-5.613-4.909l-12.161-31.598h-48.992l-12.161 31.598a8.007 8.007 0 0 1-5.615 4.909 180.807 180.807 0 0 0-53.035 21.986 8.004 8.004 0 0 1-7.441.499l-30.963-13.754-34.643 34.643 13.749 30.962a7.996 7.996 0 0 1-.499 7.441 180.848 180.848 0 0 0-21.988 53.037 7.992 7.992 0 0 1-4.909 5.615L42.407 249.91v48.998l31.586 12.153a7.997 7.997 0 0 1 4.909 5.62 180.804 180.804 0 0 0 21.99 53.037 8.011 8.011 0 0 1 .5 7.451l-13.747 30.948 34.643 34.643 30.965-13.754a8.02 8.02 0 0 1 7.441.504 180.931 180.931 0 0 0 53.035 21.991 7.98 7.98 0 0 1 5.613 4.9l12.161 31.597h48.992l12.159-31.588a8.007 8.007 0 0 1 5.613-4.909 180.812 180.812 0 0 0 53.048-21.991 8.022 8.022 0 0 1 7.442-.504l30.953 13.754 34.641-34.643-13.753-30.966a8.003 8.003 0 0 1 .5-7.441 180.766 180.766 0 0 0 21.986-53.028 7.984 7.984 0 0 1 4.909-5.616zm10.874-61.948-32.832-12.633a196.58 196.58 0 0 0-20.718-49.978l14.288-32.172a7.993 7.993 0 0 0-1.653-8.901l-42.41-42.413a8.006 8.006 0 0 0-8.904-1.652l-32.181 14.29a196.848 196.848 0 0 0-49.959-20.71l-12.64-32.84a8 8 0 0 0-7.467-5.126h-59.976a7.998 7.998 0 0 0-7.465 5.126l-12.642 32.84a196.891 196.891 0 0 0-49.961 20.71l-32.182-14.29a8.006 8.006 0 0 0-8.904 1.652l-42.41 42.414a8 8 0 0 0-1.655 8.905l14.291 32.176a196.694 196.694 0 0 0-20.714 49.964l-32.836 12.643a7.995 7.995 0 0 0-5.126 7.465v59.98a7.974 7.974 0 0 0 5.126 7.456l32.83 12.643a196.685 196.685 0 0 0 20.718 49.978l-14.29 32.172a7.991 7.991 0 0 0 1.655 8.9l42.411 42.409a7.998 7.998 0 0 0 8.904 1.652l32.182-14.29a196.697 196.697 0 0 0 49.959 20.71l12.642 32.84a8.001 8.001 0 0 0 7.465 5.13h59.977a8.003 8.003 0 0 0 7.465-5.13l12.637-32.831a196.595 196.595 0 0 0 49.975-20.71l32.169 14.281a7.996 7.996 0 0 0 8.904-1.652l42.411-42.409a7.995 7.995 0 0 0 1.655-8.9l-14.294-32.191a196.715 196.715 0 0 0 20.712-49.959l32.841-12.643a7.985 7.985 0 0 0 5.126-7.456v-59.98a7.999 7.999 0 0 0-5.124-7.47z" opacity="1" data-original="#242222" class=""/>
    </g>
  </g>
</svg>
